<?xml version="1.0" encoding="utf-8" standalone="no"?>
<!DOCTYPE svg PUBLIC "-//W3C//DTD SVG 1.1//EN"
  "http://www.w3.org/Graphics/SVG/1.1/DTD/svg11.dtd">
<svg xmlns:xlink="http://www.w3.org/1999/xlink" width="576pt" height="432pt" viewBox="0 0 576 432" xmlns="http://www.w3.org/2000/svg" version="1.1">
 <metadata>
  <rdf:RDF xmlns:dc="http://purl.org/dc/elements/1.1/" xmlns:cc="http://creativecommons.org/ns#" xmlns:rdf="http://www.w3.org/1999/02/22-rdf-syntax-ns#">
   <cc:Work>
    <dc:type rdf:resource="http://purl.org/dc/dcmitype/StillImage"/>
    <dc:date>2023-08-06T11:55:11.817278</dc:date>
    <dc:format>image/svg+xml</dc:format>
    <dc:creator>
     <cc:Agent>
      <dc:title>Matplotlib v3.7.2, https://matplotlib.org/</dc:title>
     </cc:Agent>
    </dc:creator>
   </cc:Work>
  </rdf:RDF>
 </metadata>
 <defs>
  <style type="text/css">*{stroke-linejoin: round; stroke-linecap: butt}</style>
 </defs>
 <g id="figure_1">
  <g id="patch_1">
   <path d="M 0 432 
L 576 432 
L 576 0 
L 0 0 
z
" style="fill: #ffffff"/>
  </g>
  <g id="axes_1">
   <g id="patch_2">
    <path d="M 72 384.48 
L 518.4 384.48 
L 518.4 51.84 
L 72 51.84 
z
" style="fill: #ffffff"/>
   </g>
   <g id="matplotlib.axis_1">
    <g id="xtick_1">
     <g id="line2d_1">
      <path d="M 92.290909 384.48 
L 92.290909 51.84 
" clip-path="url(#p94a868d6a2)" style="fill: none; stroke: #b0b0b0; stroke-opacity: 0.5; stroke-width: 0.8; stroke-linecap: square"/>
     </g>
     <g id="line2d_2">
      <defs>
       <path id="m480b52d286" d="M 0 0 
L 0 3.5 
" style="stroke: #000000; stroke-width: 0.8"/>
      </defs>
      <g>
       <use xlink:href="#m480b52d286" x="92.290909" y="384.48" style="stroke: #000000; stroke-width: 0.8"/>
      </g>
     </g>
     <g id="text_1">
      <!-- 0 -->
      <g transform="translate(89.109659 399.078438) scale(0.1 -0.1)">
       <defs>
        <path id="DejaVuSans-30" d="M 2034 4250 
Q 1547 4250 1301 3770 
Q 1056 3291 1056 2328 
Q 1056 1369 1301 889 
Q 1547 409 2034 409 
Q 2525 409 2770 889 
Q 3016 1369 3016 2328 
Q 3016 3291 2770 3770 
Q 2525 4250 2034 4250 
z
M 2034 4750 
Q 2819 4750 3233 4129 
Q 3647 3509 3647 2328 
Q 3647 1150 3233 529 
Q 2819 -91 2034 -91 
Q 1250 -91 836 529 
Q 422 1150 422 2328 
Q 422 3509 836 4129 
Q 1250 4750 2034 4750 
z
" transform="scale(0.015625)"/>
       </defs>
       <use xlink:href="#DejaVuSans-30"/>
      </g>
     </g>
    </g>
    <g id="xtick_2">
     <g id="line2d_3">
      <path d="M 146.4 384.48 
L 146.4 51.84 
" clip-path="url(#p94a868d6a2)" style="fill: none; stroke: #b0b0b0; stroke-opacity: 0.5; stroke-width: 0.8; stroke-linecap: square"/>
     </g>
     <g id="line2d_4">
      <g>
       <use xlink:href="#m480b52d286" x="146.4" y="384.48" style="stroke: #000000; stroke-width: 0.8"/>
      </g>
     </g>
     <g id="text_2">
      <!-- 20 -->
      <g transform="translate(140.0375 399.078438) scale(0.1 -0.1)">
       <defs>
        <path id="DejaVuSans-32" d="M 1228 531 
L 3431 531 
L 3431 0 
L 469 0 
L 469 531 
Q 828 903 1448 1529 
Q 2069 2156 2228 2338 
Q 2531 2678 2651 2914 
Q 2772 3150 2772 3378 
Q 2772 3750 2511 3984 
Q 2250 4219 1831 4219 
Q 1534 4219 1204 4116 
Q 875 4013 500 3803 
L 500 4441 
Q 881 4594 1212 4672 
Q 1544 4750 1819 4750 
Q 2544 4750 2975 4387 
Q 3406 4025 3406 3419 
Q 3406 3131 3298 2873 
Q 3191 2616 2906 2266 
Q 2828 2175 2409 1742 
Q 1991 1309 1228 531 
z
" transform="scale(0.015625)"/>
       </defs>
       <use xlink:href="#DejaVuSans-32"/>
       <use xlink:href="#DejaVuSans-30" x="63.623047"/>
      </g>
     </g>
    </g>
    <g id="xtick_3">
     <g id="line2d_5">
      <path d="M 200.509091 384.48 
L 200.509091 51.84 
" clip-path="url(#p94a868d6a2)" style="fill: none; stroke: #b0b0b0; stroke-opacity: 0.5; stroke-width: 0.8; stroke-linecap: square"/>
     </g>
     <g id="line2d_6">
      <g>
       <use xlink:href="#m480b52d286" x="200.509091" y="384.48" style="stroke: #000000; stroke-width: 0.8"/>
      </g>
     </g>
     <g id="text_3">
      <!-- 40 -->
      <g transform="translate(194.146591 399.078438) scale(0.1 -0.1)">
       <defs>
        <path id="DejaVuSans-34" d="M 2419 4116 
L 825 1625 
L 2419 1625 
L 2419 4116 
z
M 2253 4666 
L 3047 4666 
L 3047 1625 
L 3713 1625 
L 3713 1100 
L 3047 1100 
L 3047 0 
L 2419 0 
L 2419 1100 
L 313 1100 
L 313 1709 
L 2253 4666 
z
" transform="scale(0.015625)"/>
       </defs>
       <use xlink:href="#DejaVuSans-34"/>
       <use xlink:href="#DejaVuSans-30" x="63.623047"/>
      </g>
     </g>
    </g>
    <g id="xtick_4">
     <g id="line2d_7">
      <path d="M 254.618182 384.48 
L 254.618182 51.84 
" clip-path="url(#p94a868d6a2)" style="fill: none; stroke: #b0b0b0; stroke-opacity: 0.5; stroke-width: 0.8; stroke-linecap: square"/>
     </g>
     <g id="line2d_8">
      <g>
       <use xlink:href="#m480b52d286" x="254.618182" y="384.48" style="stroke: #000000; stroke-width: 0.8"/>
      </g>
     </g>
     <g id="text_4">
      <!-- 60 -->
      <g transform="translate(248.255682 399.078438) scale(0.1 -0.1)">
       <defs>
        <path id="DejaVuSans-36" d="M 2113 2584 
Q 1688 2584 1439 2293 
Q 1191 2003 1191 1497 
Q 1191 994 1439 701 
Q 1688 409 2113 409 
Q 2538 409 2786 701 
Q 3034 994 3034 1497 
Q 3034 2003 2786 2293 
Q 2538 2584 2113 2584 
z
M 3366 4563 
L 3366 3988 
Q 3128 4100 2886 4159 
Q 2644 4219 2406 4219 
Q 1781 4219 1451 3797 
Q 1122 3375 1075 2522 
Q 1259 2794 1537 2939 
Q 1816 3084 2150 3084 
Q 2853 3084 3261 2657 
Q 3669 2231 3669 1497 
Q 3669 778 3244 343 
Q 2819 -91 2113 -91 
Q 1303 -91 875 529 
Q 447 1150 447 2328 
Q 447 3434 972 4092 
Q 1497 4750 2381 4750 
Q 2619 4750 2861 4703 
Q 3103 4656 3366 4563 
z
" transform="scale(0.015625)"/>
       </defs>
       <use xlink:href="#DejaVuSans-36"/>
       <use xlink:href="#DejaVuSans-30" x="63.623047"/>
      </g>
     </g>
    </g>
    <g id="xtick_5">
     <g id="line2d_9">
      <path d="M 308.727273 384.48 
L 308.727273 51.84 
" clip-path="url(#p94a868d6a2)" style="fill: none; stroke: #b0b0b0; stroke-opacity: 0.5; stroke-width: 0.8; stroke-linecap: square"/>
     </g>
     <g id="line2d_10">
      <g>
       <use xlink:href="#m480b52d286" x="308.727273" y="384.48" style="stroke: #000000; stroke-width: 0.8"/>
      </g>
     </g>
     <g id="text_5">
      <!-- 80 -->
      <g transform="translate(302.364773 399.078438) scale(0.1 -0.1)">
       <defs>
        <path id="DejaVuSans-38" d="M 2034 2216 
Q 1584 2216 1326 1975 
Q 1069 1734 1069 1313 
Q 1069 891 1326 650 
Q 1584 409 2034 409 
Q 2484 409 2743 651 
Q 3003 894 3003 1313 
Q 3003 1734 2745 1975 
Q 2488 2216 2034 2216 
z
M 1403 2484 
Q 997 2584 770 2862 
Q 544 3141 544 3541 
Q 544 4100 942 4425 
Q 1341 4750 2034 4750 
Q 2731 4750 3128 4425 
Q 3525 4100 3525 3541 
Q 3525 3141 3298 2862 
Q 3072 2584 2669 2484 
Q 3125 2378 3379 2068 
Q 3634 1759 3634 1313 
Q 3634 634 3220 271 
Q 2806 -91 2034 -91 
Q 1263 -91 848 271 
Q 434 634 434 1313 
Q 434 1759 690 2068 
Q 947 2378 1403 2484 
z
M 1172 3481 
Q 1172 3119 1398 2916 
Q 1625 2713 2034 2713 
Q 2441 2713 2670 2916 
Q 2900 3119 2900 3481 
Q 2900 3844 2670 4047 
Q 2441 4250 2034 4250 
Q 1625 4250 1398 4047 
Q 1172 3844 1172 3481 
z
" transform="scale(0.015625)"/>
       </defs>
       <use xlink:href="#DejaVuSans-38"/>
       <use xlink:href="#DejaVuSans-30" x="63.623047"/>
      </g>
     </g>
    </g>
    <g id="xtick_6">
     <g id="line2d_11">
      <path d="M 362.836364 384.48 
L 362.836364 51.84 
" clip-path="url(#p94a868d6a2)" style="fill: none; stroke: #b0b0b0; stroke-opacity: 0.5; stroke-width: 0.8; stroke-linecap: square"/>
     </g>
     <g id="line2d_12">
      <g>
       <use xlink:href="#m480b52d286" x="362.836364" y="384.48" style="stroke: #000000; stroke-width: 0.8"/>
      </g>
     </g>
     <g id="text_6">
      <!-- 100 -->
      <g transform="translate(353.292614 399.078438) scale(0.1 -0.1)">
       <defs>
        <path id="DejaVuSans-31" d="M 794 531 
L 1825 531 
L 1825 4091 
L 703 3866 
L 703 4441 
L 1819 4666 
L 2450 4666 
L 2450 531 
L 3481 531 
L 3481 0 
L 794 0 
L 794 531 
z
" transform="scale(0.015625)"/>
       </defs>
       <use xlink:href="#DejaVuSans-31"/>
       <use xlink:href="#DejaVuSans-30" x="63.623047"/>
       <use xlink:href="#DejaVuSans-30" x="127.246094"/>
      </g>
     </g>
    </g>
    <g id="xtick_7">
     <g id="line2d_13">
      <path d="M 416.945455 384.48 
L 416.945455 51.84 
" clip-path="url(#p94a868d6a2)" style="fill: none; stroke: #b0b0b0; stroke-opacity: 0.5; stroke-width: 0.8; stroke-linecap: square"/>
     </g>
     <g id="line2d_14">
      <g>
       <use xlink:href="#m480b52d286" x="416.945455" y="384.48" style="stroke: #000000; stroke-width: 0.8"/>
      </g>
     </g>
     <g id="text_7">
      <!-- 120 -->
      <g transform="translate(407.401705 399.078438) scale(0.1 -0.1)">
       <use xlink:href="#DejaVuSans-31"/>
       <use xlink:href="#DejaVuSans-32" x="63.623047"/>
       <use xlink:href="#DejaVuSans-30" x="127.246094"/>
      </g>
     </g>
    </g>
    <g id="xtick_8">
     <g id="line2d_15">
      <path d="M 471.054545 384.48 
L 471.054545 51.84 
" clip-path="url(#p94a868d6a2)" style="fill: none; stroke: #b0b0b0; stroke-opacity: 0.5; stroke-width: 0.8; stroke-linecap: square"/>
     </g>
     <g id="line2d_16">
      <g>
       <use xlink:href="#m480b52d286" x="471.054545" y="384.48" style="stroke: #000000; stroke-width: 0.8"/>
      </g>
     </g>
     <g id="text_8">
      <!-- 140 -->
      <g transform="translate(461.510795 399.078438) scale(0.1 -0.1)">
       <use xlink:href="#DejaVuSans-31"/>
       <use xlink:href="#DejaVuSans-34" x="63.623047"/>
       <use xlink:href="#DejaVuSans-30" x="127.246094"/>
      </g>
     </g>
    </g>
    <g id="text_9">
     <!-- Communication rounds -->
     <g transform="translate(237.083594 412.756563) scale(0.1 -0.1)">
      <defs>
       <path id="DejaVuSans-43" d="M 4122 4306 
L 4122 3641 
Q 3803 3938 3442 4084 
Q 3081 4231 2675 4231 
Q 1875 4231 1450 3742 
Q 1025 3253 1025 2328 
Q 1025 1406 1450 917 
Q 1875 428 2675 428 
Q 3081 428 3442 575 
Q 3803 722 4122 1019 
L 4122 359 
Q 3791 134 3420 21 
Q 3050 -91 2638 -91 
Q 1578 -91 968 557 
Q 359 1206 359 2328 
Q 359 3453 968 4101 
Q 1578 4750 2638 4750 
Q 3056 4750 3426 4639 
Q 3797 4528 4122 4306 
z
" transform="scale(0.015625)"/>
       <path id="DejaVuSans-6f" d="M 1959 3097 
Q 1497 3097 1228 2736 
Q 959 2375 959 1747 
Q 959 1119 1226 758 
Q 1494 397 1959 397 
Q 2419 397 2687 759 
Q 2956 1122 2956 1747 
Q 2956 2369 2687 2733 
Q 2419 3097 1959 3097 
z
M 1959 3584 
Q 2709 3584 3137 3096 
Q 3566 2609 3566 1747 
Q 3566 888 3137 398 
Q 2709 -91 1959 -91 
Q 1206 -91 779 398 
Q 353 888 353 1747 
Q 353 2609 779 3096 
Q 1206 3584 1959 3584 
z
" transform="scale(0.015625)"/>
       <path id="DejaVuSans-6d" d="M 3328 2828 
Q 3544 3216 3844 3400 
Q 4144 3584 4550 3584 
Q 5097 3584 5394 3201 
Q 5691 2819 5691 2113 
L 5691 0 
L 5113 0 
L 5113 2094 
Q 5113 2597 4934 2840 
Q 4756 3084 4391 3084 
Q 3944 3084 3684 2787 
Q 3425 2491 3425 1978 
L 3425 0 
L 2847 0 
L 2847 2094 
Q 2847 2600 2669 2842 
Q 2491 3084 2119 3084 
Q 1678 3084 1418 2786 
Q 1159 2488 1159 1978 
L 1159 0 
L 581 0 
L 581 3500 
L 1159 3500 
L 1159 2956 
Q 1356 3278 1631 3431 
Q 1906 3584 2284 3584 
Q 2666 3584 2933 3390 
Q 3200 3197 3328 2828 
z
" transform="scale(0.015625)"/>
       <path id="DejaVuSans-75" d="M 544 1381 
L 544 3500 
L 1119 3500 
L 1119 1403 
Q 1119 906 1312 657 
Q 1506 409 1894 409 
Q 2359 409 2629 706 
Q 2900 1003 2900 1516 
L 2900 3500 
L 3475 3500 
L 3475 0 
L 2900 0 
L 2900 538 
Q 2691 219 2414 64 
Q 2138 -91 1772 -91 
Q 1169 -91 856 284 
Q 544 659 544 1381 
z
M 1991 3584 
L 1991 3584 
z
" transform="scale(0.015625)"/>
       <path id="DejaVuSans-6e" d="M 3513 2113 
L 3513 0 
L 2938 0 
L 2938 2094 
Q 2938 2591 2744 2837 
Q 2550 3084 2163 3084 
Q 1697 3084 1428 2787 
Q 1159 2491 1159 1978 
L 1159 0 
L 581 0 
L 581 3500 
L 1159 3500 
L 1159 2956 
Q 1366 3272 1645 3428 
Q 1925 3584 2291 3584 
Q 2894 3584 3203 3211 
Q 3513 2838 3513 2113 
z
" transform="scale(0.015625)"/>
       <path id="DejaVuSans-69" d="M 603 3500 
L 1178 3500 
L 1178 0 
L 603 0 
L 603 3500 
z
M 603 4863 
L 1178 4863 
L 1178 4134 
L 603 4134 
L 603 4863 
z
" transform="scale(0.015625)"/>
       <path id="DejaVuSans-63" d="M 3122 3366 
L 3122 2828 
Q 2878 2963 2633 3030 
Q 2388 3097 2138 3097 
Q 1578 3097 1268 2742 
Q 959 2388 959 1747 
Q 959 1106 1268 751 
Q 1578 397 2138 397 
Q 2388 397 2633 464 
Q 2878 531 3122 666 
L 3122 134 
Q 2881 22 2623 -34 
Q 2366 -91 2075 -91 
Q 1284 -91 818 406 
Q 353 903 353 1747 
Q 353 2603 823 3093 
Q 1294 3584 2113 3584 
Q 2378 3584 2631 3529 
Q 2884 3475 3122 3366 
z
" transform="scale(0.015625)"/>
       <path id="DejaVuSans-61" d="M 2194 1759 
Q 1497 1759 1228 1600 
Q 959 1441 959 1056 
Q 959 750 1161 570 
Q 1363 391 1709 391 
Q 2188 391 2477 730 
Q 2766 1069 2766 1631 
L 2766 1759 
L 2194 1759 
z
M 3341 1997 
L 3341 0 
L 2766 0 
L 2766 531 
Q 2569 213 2275 61 
Q 1981 -91 1556 -91 
Q 1019 -91 701 211 
Q 384 513 384 1019 
Q 384 1609 779 1909 
Q 1175 2209 1959 2209 
L 2766 2209 
L 2766 2266 
Q 2766 2663 2505 2880 
Q 2244 3097 1772 3097 
Q 1472 3097 1187 3025 
Q 903 2953 641 2809 
L 641 3341 
Q 956 3463 1253 3523 
Q 1550 3584 1831 3584 
Q 2591 3584 2966 3190 
Q 3341 2797 3341 1997 
z
" transform="scale(0.015625)"/>
       <path id="DejaVuSans-74" d="M 1172 4494 
L 1172 3500 
L 2356 3500 
L 2356 3053 
L 1172 3053 
L 1172 1153 
Q 1172 725 1289 603 
Q 1406 481 1766 481 
L 2356 481 
L 2356 0 
L 1766 0 
Q 1100 0 847 248 
Q 594 497 594 1153 
L 594 3053 
L 172 3053 
L 172 3500 
L 594 3500 
L 594 4494 
L 1172 4494 
z
" transform="scale(0.015625)"/>
       <path id="DejaVuSans-20" transform="scale(0.015625)"/>
       <path id="DejaVuSans-72" d="M 2631 2963 
Q 2534 3019 2420 3045 
Q 2306 3072 2169 3072 
Q 1681 3072 1420 2755 
Q 1159 2438 1159 1844 
L 1159 0 
L 581 0 
L 581 3500 
L 1159 3500 
L 1159 2956 
Q 1341 3275 1631 3429 
Q 1922 3584 2338 3584 
Q 2397 3584 2469 3576 
Q 2541 3569 2628 3553 
L 2631 2963 
z
" transform="scale(0.015625)"/>
       <path id="DejaVuSans-64" d="M 2906 2969 
L 2906 4863 
L 3481 4863 
L 3481 0 
L 2906 0 
L 2906 525 
Q 2725 213 2448 61 
Q 2172 -91 1784 -91 
Q 1150 -91 751 415 
Q 353 922 353 1747 
Q 353 2572 751 3078 
Q 1150 3584 1784 3584 
Q 2172 3584 2448 3432 
Q 2725 3281 2906 2969 
z
M 947 1747 
Q 947 1113 1208 752 
Q 1469 391 1925 391 
Q 2381 391 2643 752 
Q 2906 1113 2906 1747 
Q 2906 2381 2643 2742 
Q 2381 3103 1925 3103 
Q 1469 3103 1208 2742 
Q 947 2381 947 1747 
z
" transform="scale(0.015625)"/>
       <path id="DejaVuSans-73" d="M 2834 3397 
L 2834 2853 
Q 2591 2978 2328 3040 
Q 2066 3103 1784 3103 
Q 1356 3103 1142 2972 
Q 928 2841 928 2578 
Q 928 2378 1081 2264 
Q 1234 2150 1697 2047 
L 1894 2003 
Q 2506 1872 2764 1633 
Q 3022 1394 3022 966 
Q 3022 478 2636 193 
Q 2250 -91 1575 -91 
Q 1294 -91 989 -36 
Q 684 19 347 128 
L 347 722 
Q 666 556 975 473 
Q 1284 391 1588 391 
Q 1994 391 2212 530 
Q 2431 669 2431 922 
Q 2431 1156 2273 1281 
Q 2116 1406 1581 1522 
L 1381 1569 
Q 847 1681 609 1914 
Q 372 2147 372 2553 
Q 372 3047 722 3315 
Q 1072 3584 1716 3584 
Q 2034 3584 2315 3537 
Q 2597 3491 2834 3397 
z
" transform="scale(0.015625)"/>
      </defs>
      <use xlink:href="#DejaVuSans-43"/>
      <use xlink:href="#DejaVuSans-6f" x="69.824219"/>
      <use xlink:href="#DejaVuSans-6d" x="131.005859"/>
      <use xlink:href="#DejaVuSans-6d" x="228.417969"/>
      <use xlink:href="#DejaVuSans-75" x="325.830078"/>
      <use xlink:href="#DejaVuSans-6e" x="389.208984"/>
      <use xlink:href="#DejaVuSans-69" x="452.587891"/>
      <use xlink:href="#DejaVuSans-63" x="480.371094"/>
      <use xlink:href="#DejaVuSans-61" x="535.351562"/>
      <use xlink:href="#DejaVuSans-74" x="596.630859"/>
      <use xlink:href="#DejaVuSans-69" x="635.839844"/>
      <use xlink:href="#DejaVuSans-6f" x="663.623047"/>
      <use xlink:href="#DejaVuSans-6e" x="724.804688"/>
      <use xlink:href="#DejaVuSans-20" x="788.183594"/>
      <use xlink:href="#DejaVuSans-72" x="819.970703"/>
      <use xlink:href="#DejaVuSans-6f" x="858.833984"/>
      <use xlink:href="#DejaVuSans-75" x="920.015625"/>
      <use xlink:href="#DejaVuSans-6e" x="983.394531"/>
      <use xlink:href="#DejaVuSans-64" x="1046.773438"/>
      <use xlink:href="#DejaVuSans-73" x="1110.25"/>
     </g>
    </g>
   </g>
   <g id="matplotlib.axis_2">
    <g id="ytick_1">
     <g id="line2d_17">
      <path d="M 72 349.563029 
L 518.4 349.563029 
" clip-path="url(#p94a868d6a2)" style="fill: none; stroke: #b0b0b0; stroke-opacity: 0.5; stroke-width: 0.8; stroke-linecap: square"/>
     </g>
     <g id="line2d_18">
      <defs>
       <path id="m86f064d911" d="M 0 0 
L -3.5 0 
" style="stroke: #000000; stroke-width: 0.8"/>
      </defs>
      <g>
       <use xlink:href="#m86f064d911" x="72" y="349.563029" style="stroke: #000000; stroke-width: 0.8"/>
      </g>
     </g>
     <g id="text_10">
      <!-- 0.3 -->
      <g transform="translate(49.096875 353.362248) scale(0.1 -0.1)">
       <defs>
        <path id="DejaVuSans-2e" d="M 684 794 
L 1344 794 
L 1344 0 
L 684 0 
L 684 794 
z
" transform="scale(0.015625)"/>
        <path id="DejaVuSans-33" d="M 2597 2516 
Q 3050 2419 3304 2112 
Q 3559 1806 3559 1356 
Q 3559 666 3084 287 
Q 2609 -91 1734 -91 
Q 1441 -91 1130 -33 
Q 819 25 488 141 
L 488 750 
Q 750 597 1062 519 
Q 1375 441 1716 441 
Q 2309 441 2620 675 
Q 2931 909 2931 1356 
Q 2931 1769 2642 2001 
Q 2353 2234 1838 2234 
L 1294 2234 
L 1294 2753 
L 1863 2753 
Q 2328 2753 2575 2939 
Q 2822 3125 2822 3475 
Q 2822 3834 2567 4026 
Q 2313 4219 1838 4219 
Q 1578 4219 1281 4162 
Q 984 4106 628 3988 
L 628 4550 
Q 988 4650 1302 4700 
Q 1616 4750 1894 4750 
Q 2613 4750 3031 4423 
Q 3450 4097 3450 3541 
Q 3450 3153 3228 2886 
Q 3006 2619 2597 2516 
z
" transform="scale(0.015625)"/>
       </defs>
       <use xlink:href="#DejaVuSans-30"/>
       <use xlink:href="#DejaVuSans-2e" x="63.623047"/>
       <use xlink:href="#DejaVuSans-33" x="95.410156"/>
      </g>
     </g>
    </g>
    <g id="ytick_2">
     <g id="line2d_19">
      <path d="M 72 298.671074 
L 518.4 298.671074 
" clip-path="url(#p94a868d6a2)" style="fill: none; stroke: #b0b0b0; stroke-opacity: 0.5; stroke-width: 0.8; stroke-linecap: square"/>
     </g>
     <g id="line2d_20">
      <g>
       <use xlink:href="#m86f064d911" x="72" y="298.671074" style="stroke: #000000; stroke-width: 0.8"/>
      </g>
     </g>
     <g id="text_11">
      <!-- 0.4 -->
      <g transform="translate(49.096875 302.470292) scale(0.1 -0.1)">
       <use xlink:href="#DejaVuSans-30"/>
       <use xlink:href="#DejaVuSans-2e" x="63.623047"/>
       <use xlink:href="#DejaVuSans-34" x="95.410156"/>
      </g>
     </g>
    </g>
    <g id="ytick_3">
     <g id="line2d_21">
      <path d="M 72 247.779118 
L 518.4 247.779118 
" clip-path="url(#p94a868d6a2)" style="fill: none; stroke: #b0b0b0; stroke-opacity: 0.5; stroke-width: 0.8; stroke-linecap: square"/>
     </g>
     <g id="line2d_22">
      <g>
       <use xlink:href="#m86f064d911" x="72" y="247.779118" style="stroke: #000000; stroke-width: 0.8"/>
      </g>
     </g>
     <g id="text_12">
      <!-- 0.5 -->
      <g transform="translate(49.096875 251.578337) scale(0.1 -0.1)">
       <defs>
        <path id="DejaVuSans-35" d="M 691 4666 
L 3169 4666 
L 3169 4134 
L 1269 4134 
L 1269 2991 
Q 1406 3038 1543 3061 
Q 1681 3084 1819 3084 
Q 2600 3084 3056 2656 
Q 3513 2228 3513 1497 
Q 3513 744 3044 326 
Q 2575 -91 1722 -91 
Q 1428 -91 1123 -41 
Q 819 9 494 109 
L 494 744 
Q 775 591 1075 516 
Q 1375 441 1709 441 
Q 2250 441 2565 725 
Q 2881 1009 2881 1497 
Q 2881 1984 2565 2268 
Q 2250 2553 1709 2553 
Q 1456 2553 1204 2497 
Q 953 2441 691 2322 
L 691 4666 
z
" transform="scale(0.015625)"/>
       </defs>
       <use xlink:href="#DejaVuSans-30"/>
       <use xlink:href="#DejaVuSans-2e" x="63.623047"/>
       <use xlink:href="#DejaVuSans-35" x="95.410156"/>
      </g>
     </g>
    </g>
    <g id="ytick_4">
     <g id="line2d_23">
      <path d="M 72 196.887163 
L 518.4 196.887163 
" clip-path="url(#p94a868d6a2)" style="fill: none; stroke: #b0b0b0; stroke-opacity: 0.5; stroke-width: 0.8; stroke-linecap: square"/>
     </g>
     <g id="line2d_24">
      <g>
       <use xlink:href="#m86f064d911" x="72" y="196.887163" style="stroke: #000000; stroke-width: 0.8"/>
      </g>
     </g>
     <g id="text_13">
      <!-- 0.6 -->
      <g transform="translate(49.096875 200.686381) scale(0.1 -0.1)">
       <use xlink:href="#DejaVuSans-30"/>
       <use xlink:href="#DejaVuSans-2e" x="63.623047"/>
       <use xlink:href="#DejaVuSans-36" x="95.410156"/>
      </g>
     </g>
    </g>
    <g id="ytick_5">
     <g id="line2d_25">
      <path d="M 72 145.995207 
L 518.4 145.995207 
" clip-path="url(#p94a868d6a2)" style="fill: none; stroke: #b0b0b0; stroke-opacity: 0.5; stroke-width: 0.8; stroke-linecap: square"/>
     </g>
     <g id="line2d_26">
      <g>
       <use xlink:href="#m86f064d911" x="72" y="145.995207" style="stroke: #000000; stroke-width: 0.8"/>
      </g>
     </g>
     <g id="text_14">
      <!-- 0.7 -->
      <g transform="translate(49.096875 149.794426) scale(0.1 -0.1)">
       <defs>
        <path id="DejaVuSans-37" d="M 525 4666 
L 3525 4666 
L 3525 4397 
L 1831 0 
L 1172 0 
L 2766 4134 
L 525 4134 
L 525 4666 
z
" transform="scale(0.015625)"/>
       </defs>
       <use xlink:href="#DejaVuSans-30"/>
       <use xlink:href="#DejaVuSans-2e" x="63.623047"/>
       <use xlink:href="#DejaVuSans-37" x="95.410156"/>
      </g>
     </g>
    </g>
    <g id="ytick_6">
     <g id="line2d_27">
      <path d="M 72 95.103251 
L 518.4 95.103251 
" clip-path="url(#p94a868d6a2)" style="fill: none; stroke: #b0b0b0; stroke-opacity: 0.5; stroke-width: 0.8; stroke-linecap: square"/>
     </g>
     <g id="line2d_28">
      <g>
       <use xlink:href="#m86f064d911" x="72" y="95.103251" style="stroke: #000000; stroke-width: 0.8"/>
      </g>
     </g>
     <g id="text_15">
      <!-- 0.8 -->
      <g transform="translate(49.096875 98.90247) scale(0.1 -0.1)">
       <use xlink:href="#DejaVuSans-30"/>
       <use xlink:href="#DejaVuSans-2e" x="63.623047"/>
       <use xlink:href="#DejaVuSans-38" x="95.410156"/>
      </g>
     </g>
    </g>
    <g id="text_16">
     <!-- Accuracy -->
     <g transform="translate(43.017187 240.988125) rotate(-90) scale(0.1 -0.1)">
      <defs>
       <path id="DejaVuSans-41" d="M 2188 4044 
L 1331 1722 
L 3047 1722 
L 2188 4044 
z
M 1831 4666 
L 2547 4666 
L 4325 0 
L 3669 0 
L 3244 1197 
L 1141 1197 
L 716 0 
L 50 0 
L 1831 4666 
z
" transform="scale(0.015625)"/>
       <path id="DejaVuSans-79" d="M 2059 -325 
Q 1816 -950 1584 -1140 
Q 1353 -1331 966 -1331 
L 506 -1331 
L 506 -850 
L 844 -850 
Q 1081 -850 1212 -737 
Q 1344 -625 1503 -206 
L 1606 56 
L 191 3500 
L 800 3500 
L 1894 763 
L 2988 3500 
L 3597 3500 
L 2059 -325 
z
" transform="scale(0.015625)"/>
      </defs>
      <use xlink:href="#DejaVuSans-41"/>
      <use xlink:href="#DejaVuSans-63" x="66.658203"/>
      <use xlink:href="#DejaVuSans-63" x="121.638672"/>
      <use xlink:href="#DejaVuSans-75" x="176.619141"/>
      <use xlink:href="#DejaVuSans-72" x="239.998047"/>
      <use xlink:href="#DejaVuSans-61" x="281.111328"/>
      <use xlink:href="#DejaVuSans-63" x="342.390625"/>
      <use xlink:href="#DejaVuSans-79" x="397.371094"/>
     </g>
    </g>
   </g>
   <g id="line2d_29">
    <path d="M 92.290909 229.305338 
L 94.996364 284.217758 
L 97.701818 291.189956 
L 100.407273 284.981138 
L 103.112727 197.701434 
L 105.818182 223.147412 
L 108.523636 219.941218 
L 111.229091 270.324254 
L 113.934545 189.406045 
L 116.64 243.504194 
L 119.345455 147.878209 
L 122.050909 181.874036 
L 124.756364 124.569694 
L 127.461818 140.60066 
L 130.167273 194.189889 
L 132.872727 127.521427 
L 135.578182 141.465823 
L 138.283636 125.078613 
L 140.989091 143.857745 
L 143.694545 148.387129 
L 146.4 147.063938 
L 149.105455 129.658889 
L 151.810909 125.129505 
L 154.516364 125.638425 
L 157.221818 155.359327 
L 159.927273 134.239165 
L 162.632727 121.058149 
L 165.338182 144.926476 
L 168.043636 147.878209 
L 170.749091 145.486287 
L 173.454545 137.445358 
L 176.16 130.218701 
L 178.865455 97.240714 
L 181.570909 119.226038 
L 184.276364 96.986254 
L 186.981818 124.569694 
L 189.687273 140.651552 
L 192.392727 121.058149 
L 195.098182 111.999381 
L 197.803636 113.882383 
L 200.509091 128.335698 
L 203.214545 112.5083 
L 205.92 110.67619 
L 208.625455 110.67619 
L 211.330909 100.192447 
L 214.036364 105.536102 
L 216.741818 107.164645 
L 219.447273 138.25963 
L 222.152727 109.556567 
L 224.858182 113.322572 
L 227.563636 93.474709 
L 230.269091 126.707156 
L 232.974545 111.185109 
L 235.68 85.993591 
L 238.385455 92.71133 
L 241.090909 91.082787 
L 243.796364 95.408603 
L 246.501818 94.848792 
L 249.207273 135.816816 
L 251.912727 102.584369 
L 254.618182 92.405978 
L 257.323636 87.316782 
L 260.029091 89.759596 
L 262.734545 94.03452 
L 265.44 93.729169 
L 268.145455 92.405978 
L 270.850909 101.56653 
L 273.556364 86.502511 
L 276.261818 87.622134 
L 278.967273 133.933814 
L 281.672727 107.724456 
L 284.378182 125.129505 
L 287.083636 134.493625 
L 289.789091 95.612171 
L 292.494545 108.538728 
L 295.2 96.680902 
L 297.905455 111.694029 
L 300.610909 82.532938 
L 303.316364 93.220249 
L 306.021818 115.205574 
L 308.727273 96.426442 
L 311.432727 120.803689 
L 314.138182 117.292144 
L 316.843636 91.591706 
L 319.549091 89.250677 
L 322.254545 110.065486 
L 324.96 153.985244 
L 327.665455 83.09275 
L 330.370909 116.274305 
L 333.076364 96.935362 
L 335.781818 130.72762 
L 338.487273 135.307896 
L 341.192727 124.569694 
L 343.898182 87.062322 
L 346.603636 92.405978 
L 349.309091 83.856129 
L 352.014545 99.937987 
L 354.72 91.591706 
L 357.425455 90.014056 
L 360.130909 87.876594 
L 362.836364 90.522975 
L 365.541818 96.986254 
L 368.247273 87.876594 
L 370.952727 111.948489 
L 373.658182 111.948489 
L 376.363636 98.818364 
L 379.069091 106.655725 
L 381.774545 108.742296 
L 384.48 87.622134 
L 387.185455 88.690865 
L 389.890909 95.612171 
L 392.596364 91.591706 
L 395.301818 96.426442 
L 398.007273 95.103251 
L 400.712727 82.787398 
L 403.418182 100.192447 
L 406.123636 93.474709 
L 408.829091 91.082787 
L 411.534545 92.965789 
L 414.24 86.248051 
L 416.945455 105.027183 
L 419.650909 95.917523 
L 422.356364 91.591706 
L 425.061818 90.268516 
L 427.767273 88.639973 
L 430.472727 92.71133 
L 433.178182 102.889721 
L 435.883636 97.240714 
L 438.589091 136.071276 
L 441.294545 130.72762 
L 444 101.006718 
L 446.705455 94.28898 
L 449.410909 91.591706 
L 452.116364 87.316782 
L 454.821818 162.077065 
L 457.527273 90.522975 
L 460.232727 92.71133 
L 462.938182 83.296318 
L 465.643636 92.71133 
L 468.349091 88.945325 
L 471.054545 90.014056 
L 473.76 86.807863 
L 476.465455 90.522975 
L 479.170909 89.454244 
L 481.876364 87.571242 
L 484.581818 91.642598 
L 487.287273 120.294769 
L 489.992727 120.294769 
L 492.698182 130.218701 
L 495.403636 96.426442 
L 498.109091 92.965789 
L 498.109091 92.965789 
" clip-path="url(#p94a868d6a2)" style="fill: none; stroke: #1f77b4; stroke-width: 1.5; stroke-linecap: square"/>
   </g>
   <g id="line2d_30">
    <path d="M 92.290909 326.000054 
L 94.996364 270.578714 
L 97.701818 302.437078 
L 100.407273 250.985311 
L 103.112727 212.714561 
L 105.818182 278.314291 
L 108.523636 291.953336 
L 111.229091 205.182551 
L 113.934545 214.801131 
L 116.64 162.077065 
L 119.345455 155.919138 
L 122.050909 219.432299 
L 124.756364 203.045089 
L 127.461818 183.757038 
L 130.167273 117.597496 
L 132.872727 135.002545 
L 135.578182 178.922302 
L 138.283636 177.0393 
L 140.989091 117.902848 
L 143.694545 143.043474 
L 146.4 145.995207 
L 149.105455 119.226038 
L 151.810909 131.541892 
L 154.516364 104.212911 
L 157.221818 116.528765 
L 159.927273 143.094366 
L 162.632727 153.527216 
L 165.338182 111.999381 
L 168.043636 125.943777 
L 170.749091 111.134217 
L 173.454545 132.610623 
L 176.16 109.556567 
L 178.865455 123.806314 
L 181.570909 110.67619 
L 184.276364 96.171982 
L 186.981818 125.333073 
L 189.687273 103.6531 
L 192.392727 128.590158 
L 195.098182 150.321023 
L 197.803636 185.080229 
L 200.509091 108.233376 
L 203.214545 92.405978 
L 205.92 184.825769 
L 208.625455 137.190899 
L 211.330909 107.164645 
L 214.036364 143.857745 
L 216.741818 115.968953 
L 219.447273 114.900222 
L 222.152727 109.811027 
L 224.858182 100.497799 
L 227.563636 97.749633 
L 230.269091 134.748085 
L 235.68 99.429068 
L 238.385455 103.6531 
L 241.090909 121.87242 
L 243.796364 154.036136 
L 246.501818 89.759596 
L 249.207273 124.824153 
L 251.912727 108.182484 
L 254.618182 112.813652 
L 257.323636 111.439569 
L 260.029091 115.968953 
L 262.734545 101.261178 
L 265.44 100.701367 
L 268.145455 105.027183 
L 270.850909 102.075449 
L 273.556364 111.694029 
L 276.261818 95.917523 
L 278.967273 102.889721 
L 281.672727 130.218701 
L 284.378182 102.075449 
L 287.083636 110.370838 
L 289.789091 96.986254 
L 292.494545 92.965789 
L 295.2 88.181945 
L 297.905455 90.014056 
L 300.610909 121.312609 
L 303.316364 99.937987 
L 306.021818 149.45586 
L 308.727273 103.6531 
L 311.432727 115.968953 
L 314.138182 90.828327 
L 316.843636 130.422269 
L 319.549091 87.062322 
L 322.254545 78.207122 
L 324.96 100.701367 
L 327.665455 84.619509 
L 330.370909 93.729169 
L 333.076364 109.811027 
L 335.781818 154.341488 
L 338.487273 88.945325 
L 341.192727 77.952662 
L 343.898182 105.790562 
L 349.309091 88.945325 
L 352.014545 84.110589 
L 354.72 88.131054 
L 357.425455 75.8152 
L 360.130909 83.856129 
L 362.836364 110.625298 
L 365.541818 88.385513 
L 368.247273 151.898674 
L 370.952727 76.629472 
L 373.658182 109.811027 
L 376.363636 99.429068 
L 379.069091 125.638425 
L 381.774545 102.889721 
L 384.48 192.612238 
L 387.185455 109.556567 
L 389.890909 117.292144 
L 392.596364 83.601669 
L 395.301818 136.580195 
L 398.007273 94.848792 
L 400.712727 87.062322 
L 403.418182 75.255389 
L 406.123636 93.271141 
L 408.829091 73.677738 
L 411.534545 110.625298 
L 414.24 96.731794 
L 416.945455 95.917523 
L 419.650909 91.082787 
L 422.356364 115.205574 
L 425.061818 156.47895 
L 427.767273 96.680902 
L 430.472727 109.302107 
L 433.178182 103.90756 
L 435.883636 132.356163 
L 438.589091 168.234992 
L 441.294545 95.917523 
L 444 122.12688 
L 446.705455 118.411767 
L 449.410909 100.955826 
L 452.116364 75.306281 
L 454.821818 92.965789 
L 457.527273 72.049196 
L 460.232727 72.863467 
L 462.938182 73.423278 
L 465.643636 77.952662 
L 468.349091 209.711935 
L 471.054545 75.56074 
L 473.76 87.316782 
L 476.465455 73.423278 
L 479.170909 91.082787 
L 481.876364 81.973127 
L 484.581818 77.698203 
L 487.287273 92.405978 
L 489.992727 196.887163 
L 492.698182 100.701367 
L 495.403636 75.56074 
L 498.109091 77.392851 
L 498.109091 77.392851 
" clip-path="url(#p94a868d6a2)" style="fill: none; stroke: #ff7f0e; stroke-width: 1.5; stroke-linecap: square"/>
   </g>
   <g id="line2d_31">
    <path d="M 92.290909 295.9738 
L 94.996364 305.897731 
L 97.701818 296.279152 
L 100.407273 265.489519 
L 103.112727 271.342094 
L 105.818182 250.67996 
L 108.523636 264.166328 
L 111.229091 241.06138 
L 113.934545 269.204631 
L 116.64 162.636876 
L 119.345455 211.340478 
L 122.050909 203.85936 
L 124.756364 153.221865 
L 127.461818 248.847849 
L 130.167273 138.25963 
L 132.872727 164.214527 
L 135.578182 155.410219 
L 138.283636 136.122168 
L 140.989091 132.865082 
L 143.694545 149.506752 
L 146.4 153.476324 
L 149.105455 144.875584 
L 151.810909 111.439569 
L 154.516364 148.438021 
L 157.221818 130.422269 
L 159.927273 148.132669 
L 162.632727 118.411767 
L 165.338182 121.058149 
L 168.043636 124.264342 
L 170.749091 112.813652 
L 173.454545 175.716109 
L 176.16 121.363501 
L 178.865455 164.468987 
L 181.570909 151.898674 
L 184.276364 152.153134 
L 186.981818 128.284806 
L 189.687273 135.002545 
L 192.392727 112.813652 
L 195.098182 164.214527 
L 197.803636 114.391303 
L 200.509091 103.39864 
L 203.214545 120.243877 
L 205.92 114.645762 
L 208.625455 95.103251 
L 211.330909 89.759596 
L 214.036364 183.197227 
L 216.741818 105.281643 
L 219.447273 91.337247 
L 222.152727 106.095914 
L 224.858182 121.923312 
L 227.563636 145.689855 
L 230.269091 107.469997 
L 232.974545 121.363501 
L 235.68 117.902848 
L 238.385455 95.917523 
L 241.090909 122.12688 
L 243.796364 116.834116 
L 246.501818 92.660438 
L 249.207273 106.095914 
L 251.912727 101.770098 
L 254.618182 112.25384 
L 257.323636 104.976291 
L 260.029091 87.876594 
L 262.734545 155.919138 
L 265.44 108.742296 
L 268.145455 108.538728 
L 270.850909 79.581205 
L 273.556364 112.5083 
L 276.261818 75.000929 
L 278.967273 90.014056 
L 281.672727 102.584369 
L 284.378182 81.158856 
L 287.083636 88.945325 
L 289.789091 98.818364 
L 292.494545 125.383965 
L 295.2 75.56074 
L 297.905455 114.085951 
L 300.610909 71.794736 
L 303.316364 77.392851 
L 306.021818 106.350374 
L 308.727273 95.917523 
L 311.432727 79.275853 
L 314.138182 106.045022 
L 316.843636 129.353538 
L 319.549091 114.391303 
L 322.254545 72.863467 
L 324.96 84.92486 
L 327.665455 80.649936 
L 330.370909 121.87242 
L 333.076364 75.000929 
L 335.781818 120.04031 
L 338.487273 116.274305 
L 341.192727 102.838829 
L 343.898182 153.221865 
L 346.603636 132.559731 
L 349.309091 125.129505 
L 352.014545 165.283258 
L 354.72 91.337247 
L 357.425455 119.175146 
L 360.130909 162.585985 
L 362.836364 127.216075 
L 365.541818 90.014056 
L 368.247273 68.334083 
L 370.952727 93.474709 
L 373.658182 94.28898 
L 376.363636 80.090125 
L 379.069091 106.095914 
L 381.774545 81.718667 
L 384.48 75.8152 
L 387.185455 90.268516 
L 389.890909 143.348825 
L 392.596364 114.391303 
L 395.301818 95.103251 
L 398.007273 162.636876 
L 400.712727 99.937987 
L 403.418182 88.385513 
L 406.123636 75.8152 
L 408.829091 87.825702 
L 411.534545 84.110589 
L 414.24 72.049196 
L 416.945455 75.000929 
L 419.650909 78.207122 
L 422.356364 76.06966 
L 425.061818 71.540276 
L 427.767273 86.248051 
L 430.472727 74.492009 
L 433.178182 112.25384 
L 435.883636 72.303655 
L 438.589091 80.090125 
L 441.294545 115.154682 
L 444 111.694029 
L 446.705455 76.883931 
L 452.116364 73.677738 
L 454.821818 113.322572 
L 457.527273 68.334083 
L 460.232727 81.718667 
L 462.938182 69.097462 
L 465.643636 108.233376 
L 468.349091 88.945325 
L 471.054545 79.275853 
L 473.76 85.68824 
L 476.465455 74.23755 
L 479.170909 74.746469 
L 481.876364 130.72762 
L 484.581818 90.522975 
L 487.287273 75.8152 
L 489.992727 69.911733 
L 492.698182 94.848792 
L 495.403636 76.375012 
L 498.109091 76.629472 
L 498.109091 76.629472 
" clip-path="url(#p94a868d6a2)" style="fill: none; stroke: #2ca02c; stroke-width: 1.5; stroke-linecap: square"/>
   </g>
   <g id="line2d_32">
    <path d="M 92.290909 369.36 
L 94.996364 356.789687 
L 97.701818 278.568751 
L 100.407273 266.55825 
L 103.112727 304.574541 
L 105.818182 302.437078 
L 108.523636 276.991101 
L 111.229091 185.64004 
L 113.934545 253.631693 
L 116.64 289.561414 
L 119.345455 245.896116 
L 122.050909 195.25862 
L 124.756364 211.594938 
L 127.461818 196.072891 
L 130.167273 151.644214 
L 132.872727 206.760202 
L 135.578182 145.995207 
L 138.283636 174.138458 
L 140.989091 115.205574 
L 143.694545 160.194063 
L 146.4 162.331525 
L 149.105455 174.392918 
L 151.810909 178.158923 
L 154.516364 139.531929 
L 157.221818 131.491 
L 159.927273 151.084403 
L 162.632727 135.002545 
L 165.338182 106.095914 
L 168.043636 140.60066 
L 170.749091 134.748085 
L 173.454545 114.696654 
L 176.16 107.673564 
L 178.865455 130.72762 
L 181.570909 126.707156 
L 184.276364 131.287432 
L 186.981818 104.212911 
L 189.687273 107.978916 
L 192.392727 135.816816 
L 195.098182 92.151518 
L 197.803636 150.015671 
L 200.509091 194.444349 
L 203.214545 118.666227 
L 205.92 141.160471 
L 208.625455 121.61796 
L 211.330909 116.834116 
L 214.036364 103.6531 
L 216.741818 100.192447 
L 219.447273 130.218701 
L 222.152727 118.666227 
L 224.858182 124.569694 
L 227.563636 160.499414 
L 230.269091 137.445358 
L 232.974545 95.103251 
L 235.68 93.220249 
L 238.385455 87.571242 
L 241.090909 159.125332 
L 243.796364 109.302107 
L 246.501818 116.783225 
L 249.207273 107.164645 
L 251.912727 95.408603 
L 254.618182 90.828327 
L 257.323636 110.879758 
L 260.029091 105.586994 
L 262.734545 107.419105 
L 265.44 118.411767 
L 268.145455 125.638425 
L 270.850909 93.220249 
L 273.556364 113.01722 
L 276.261818 111.185109 
L 278.967273 112.76276 
L 281.672727 125.638425 
L 284.378182 110.370838 
L 287.083636 121.058149 
L 289.789091 117.902848 
L 292.494545 110.065486 
L 295.2 98.054985 
L 297.905455 87.316782 
L 300.610909 113.322572 
L 303.316364 120.549229 
L 306.021818 97.291606 
L 308.727273 95.612171 
L 311.432727 81.158856 
L 314.138182 105.586994 
L 316.843636 113.577031 
L 319.549091 107.164645 
L 322.254545 107.419105 
L 324.96 181.619576 
L 327.665455 82.532938 
L 330.370909 124.264342 
L 333.076364 85.484672 
L 335.781818 207.625365 
L 338.487273 87.062322 
L 341.192727 158.870872 
L 343.898182 206.811094 
L 346.603636 70.980464 
L 349.309091 166.097529 
L 352.014545 123.500963 
L 354.72 98.563904 
L 357.425455 67.21446 
L 360.130909 139.786388 
L 362.836364 91.897058 
L 365.541818 91.337247 
L 368.247273 110.370838 
L 370.952727 70.726005 
L 373.658182 130.422269 
L 376.363636 74.186658 
L 379.069091 132.559731 
L 381.774545 81.158856 
L 384.48 104.212911 
L 387.185455 70.726005 
L 389.890909 96.680902 
L 392.596364 70.726005 
L 395.301818 100.701367 
L 398.007273 111.185109 
L 400.712727 101.56653 
L 403.418182 132.610623 
L 406.123636 94.848792 
L 408.829091 167.726072 
L 411.534545 107.928024 
L 414.24 90.828327 
L 416.945455 85.739132 
L 419.650909 76.883931 
L 422.356364 84.110589 
L 425.061818 109.811027 
L 427.767273 75.306281 
L 430.472727 109.811027 
L 433.178182 77.952662 
L 435.883636 73.423278 
L 438.589091 106.350374 
L 441.294545 66.96 
L 444 119.175146 
L 446.705455 141.465823 
L 449.410909 76.629472 
L 452.116364 100.192447 
L 454.821818 98.869256 
L 457.527273 111.185109 
L 460.232727 67.774271 
L 462.938182 75.000929 
L 465.643636 90.828327 
L 468.349091 86.553403 
L 471.054545 81.718667 
L 473.76 116.223413 
L 476.465455 70.166193 
L 479.170909 87.876594 
L 481.876364 75.306281 
L 484.581818 129.14997 
L 487.287273 69.911733 
L 489.992727 117.902848 
L 492.698182 68.079623 
L 495.403636 147.878209 
L 498.109091 195.818432 
L 498.109091 195.818432 
" clip-path="url(#p94a868d6a2)" style="fill: none; stroke: #d62728; stroke-width: 1.5; stroke-linecap: square"/>
   </g>
   <g id="patch_3">
    <path d="M 72 384.48 
L 72 51.84 
" style="fill: none; stroke: #000000; stroke-width: 0.8; stroke-linejoin: miter; stroke-linecap: square"/>
   </g>
   <g id="patch_4">
    <path d="M 518.4 384.48 
L 518.4 51.84 
" style="fill: none; stroke: #000000; stroke-width: 0.8; stroke-linejoin: miter; stroke-linecap: square"/>
   </g>
   <g id="patch_5">
    <path d="M 72 384.48 
L 518.4 384.48 
" style="fill: none; stroke: #000000; stroke-width: 0.8; stroke-linejoin: miter; stroke-linecap: square"/>
   </g>
   <g id="patch_6">
    <path d="M 72 51.84 
L 518.4 51.84 
" style="fill: none; stroke: #000000; stroke-width: 0.8; stroke-linejoin: miter; stroke-linecap: square"/>
   </g>
   <g id="text_17">
    <!-- Max-Common -->
    <g transform="translate(253.606875 45.84) scale(0.12 -0.12)">
     <defs>
      <path id="DejaVuSans-4d" d="M 628 4666 
L 1569 4666 
L 2759 1491 
L 3956 4666 
L 4897 4666 
L 4897 0 
L 4281 0 
L 4281 4097 
L 3078 897 
L 2444 897 
L 1241 4097 
L 1241 0 
L 628 0 
L 628 4666 
z
" transform="scale(0.015625)"/>
      <path id="DejaVuSans-78" d="M 3513 3500 
L 2247 1797 
L 3578 0 
L 2900 0 
L 1881 1375 
L 863 0 
L 184 0 
L 1544 1831 
L 300 3500 
L 978 3500 
L 1906 2253 
L 2834 3500 
L 3513 3500 
z
" transform="scale(0.015625)"/>
      <path id="DejaVuSans-2d" d="M 313 2009 
L 1997 2009 
L 1997 1497 
L 313 1497 
L 313 2009 
z
" transform="scale(0.015625)"/>
     </defs>
     <use xlink:href="#DejaVuSans-4d"/>
     <use xlink:href="#DejaVuSans-61" x="86.279297"/>
     <use xlink:href="#DejaVuSans-78" x="147.558594"/>
     <use xlink:href="#DejaVuSans-2d" x="206.738281"/>
     <use xlink:href="#DejaVuSans-43" x="242.822266"/>
     <use xlink:href="#DejaVuSans-6f" x="312.646484"/>
     <use xlink:href="#DejaVuSans-6d" x="373.828125"/>
     <use xlink:href="#DejaVuSans-6d" x="471.240234"/>
     <use xlink:href="#DejaVuSans-6f" x="568.652344"/>
     <use xlink:href="#DejaVuSans-6e" x="629.833984"/>
    </g>
   </g>
   <g id="legend_1">
    <g id="patch_7">
     <path d="M 79 118.5525 
L 124.203125 118.5525 
Q 126.203125 118.5525 126.203125 116.5525 
L 126.203125 58.84 
Q 126.203125 56.84 124.203125 56.84 
L 79 56.84 
Q 77 56.84 77 58.84 
L 77 116.5525 
Q 77 118.5525 79 118.5525 
z
" style="fill: #ffffff; opacity: 0.8; stroke: #cccccc; stroke-linejoin: miter"/>
    </g>
    <g id="line2d_33">
     <path d="M 81 64.938438 
L 91 64.938438 
L 101 64.938438 
" style="fill: none; stroke: #1f77b4; stroke-width: 1.5; stroke-linecap: square"/>
    </g>
    <g id="text_18">
     <!-- V1 -->
     <g transform="translate(109 68.438438) scale(0.1 -0.1)">
      <defs>
       <path id="DejaVuSans-56" d="M 1831 0 
L 50 4666 
L 709 4666 
L 2188 738 
L 3669 4666 
L 4325 4666 
L 2547 0 
L 1831 0 
z
" transform="scale(0.015625)"/>
      </defs>
      <use xlink:href="#DejaVuSans-56"/>
      <use xlink:href="#DejaVuSans-31" x="68.408203"/>
     </g>
    </g>
    <g id="line2d_34">
     <path d="M 81 79.616563 
L 91 79.616563 
L 101 79.616563 
" style="fill: none; stroke: #ff7f0e; stroke-width: 1.5; stroke-linecap: square"/>
    </g>
    <g id="text_19">
     <!-- V2 -->
     <g transform="translate(109 83.116563) scale(0.1 -0.1)">
      <use xlink:href="#DejaVuSans-56"/>
      <use xlink:href="#DejaVuSans-32" x="68.408203"/>
     </g>
    </g>
    <g id="line2d_35">
     <path d="M 81 94.294688 
L 91 94.294688 
L 101 94.294688 
" style="fill: none; stroke: #2ca02c; stroke-width: 1.5; stroke-linecap: square"/>
    </g>
    <g id="text_20">
     <!-- V3 -->
     <g transform="translate(109 97.794688) scale(0.1 -0.1)">
      <use xlink:href="#DejaVuSans-56"/>
      <use xlink:href="#DejaVuSans-33" x="68.408203"/>
     </g>
    </g>
    <g id="line2d_36">
     <path d="M 81 108.972813 
L 91 108.972813 
L 101 108.972813 
" style="fill: none; stroke: #d62728; stroke-width: 1.5; stroke-linecap: square"/>
    </g>
    <g id="text_21">
     <!-- V4 -->
     <g transform="translate(109 112.472813) scale(0.1 -0.1)">
      <use xlink:href="#DejaVuSans-56"/>
      <use xlink:href="#DejaVuSans-34" x="68.408203"/>
     </g>
    </g>
   </g>
  </g>
 </g>
 <defs>
  <clipPath id="p94a868d6a2">
   <rect x="72" y="51.84" width="446.4" height="332.64"/>
  </clipPath>
 </defs>
</svg>
