<?xml version="1.0" encoding="utf-8" standalone="no"?>
<!DOCTYPE svg PUBLIC "-//W3C//DTD SVG 1.1//EN"
  "http://www.w3.org/Graphics/SVG/1.1/DTD/svg11.dtd">
<svg xmlns:xlink="http://www.w3.org/1999/xlink" width="1000.016706pt" height="279.274375pt" viewBox="0 0 1000.016706 279.274375" xmlns="http://www.w3.org/2000/svg" version="1.1">
 <metadata>
  <rdf:RDF xmlns:dc="http://purl.org/dc/elements/1.1/" xmlns:cc="http://creativecommons.org/ns#" xmlns:rdf="http://www.w3.org/1999/02/22-rdf-syntax-ns#">
   <cc:Work>
    <dc:type rdf:resource="http://purl.org/dc/dcmitype/StillImage"/>
    <dc:date>2023-08-09T14:16:06.892578</dc:date>
    <dc:format>image/svg+xml</dc:format>
    <dc:creator>
     <cc:Agent>
      <dc:title>Matplotlib v3.5.1, https://matplotlib.org/</dc:title>
     </cc:Agent>
    </dc:creator>
   </cc:Work>
  </rdf:RDF>
 </metadata>
 <defs>
  <style type="text/css">*{stroke-linejoin: round; stroke-linecap: butt}</style>
 </defs>
 <g id="figure_1">
  <g id="patch_1">
   <path d="M 0 279.274375 
L 1000.016706 279.274375 
L 1000.016706 0 
L 0 0 
L 0 279.274375 
z
" style="fill: none"/>
  </g>
  <g id="axes_1">
   <g id="patch_2">
    <path d="M 30.103125 241.718125 
L 328.016706 241.718125 
L 328.016706 22.318125 
L 30.103125 22.318125 
z
" style="fill: #ffffff"/>
   </g>
   <g id="matplotlib.axis_1">
    <g id="xtick_1">
     <g id="line2d_1">
      <path d="M 43.644651 241.718125 
L 43.644651 22.318125 
" clip-path="url(#p5ddb2b0769)" style="fill: none; stroke-dasharray: 0.8,1.32; stroke-dashoffset: 0; stroke: #b0b0b0; stroke-opacity: 0.5; stroke-width: 0.8"/>
     </g>
     <g id="line2d_2">
      <defs>
       <path id="med14bb0145" d="M 0 0 
L 0 3.5 
" style="stroke: #000000; stroke-width: 0.8"/>
      </defs>
      <g>
       <use xlink:href="#med14bb0145" x="43.644651" y="241.718125" style="stroke: #000000; stroke-width: 0.8"/>
      </g>
     </g>
     <g id="text_1">
      <!-- 0 -->
      <g transform="translate(40.463401 256.316563)scale(0.1 -0.1)">
       <defs>
        <path id="DejaVuSans-30" d="M 2034 4250 
Q 1547 4250 1301 3770 
Q 1056 3291 1056 2328 
Q 1056 1369 1301 889 
Q 1547 409 2034 409 
Q 2525 409 2770 889 
Q 3016 1369 3016 2328 
Q 3016 3291 2770 3770 
Q 2525 4250 2034 4250 
z
M 2034 4750 
Q 2819 4750 3233 4129 
Q 3647 3509 3647 2328 
Q 3647 1150 3233 529 
Q 2819 -91 2034 -91 
Q 1250 -91 836 529 
Q 422 1150 422 2328 
Q 422 3509 836 4129 
Q 1250 4750 2034 4750 
z
" transform="scale(0.015625)"/>
       </defs>
       <use xlink:href="#DejaVuSans-30"/>
      </g>
     </g>
    </g>
    <g id="xtick_2">
     <g id="line2d_3">
      <path d="M 89.162387 241.718125 
L 89.162387 22.318125 
" clip-path="url(#p5ddb2b0769)" style="fill: none; stroke-dasharray: 0.8,1.32; stroke-dashoffset: 0; stroke: #b0b0b0; stroke-opacity: 0.5; stroke-width: 0.8"/>
     </g>
     <g id="line2d_4">
      <g>
       <use xlink:href="#med14bb0145" x="89.162387" y="241.718125" style="stroke: #000000; stroke-width: 0.8"/>
      </g>
     </g>
     <g id="text_2">
      <!-- 20 -->
      <g transform="translate(82.799887 256.316563)scale(0.1 -0.1)">
       <defs>
        <path id="DejaVuSans-32" d="M 1228 531 
L 3431 531 
L 3431 0 
L 469 0 
L 469 531 
Q 828 903 1448 1529 
Q 2069 2156 2228 2338 
Q 2531 2678 2651 2914 
Q 2772 3150 2772 3378 
Q 2772 3750 2511 3984 
Q 2250 4219 1831 4219 
Q 1534 4219 1204 4116 
Q 875 4013 500 3803 
L 500 4441 
Q 881 4594 1212 4672 
Q 1544 4750 1819 4750 
Q 2544 4750 2975 4387 
Q 3406 4025 3406 3419 
Q 3406 3131 3298 2873 
Q 3191 2616 2906 2266 
Q 2828 2175 2409 1742 
Q 1991 1309 1228 531 
z
" transform="scale(0.015625)"/>
       </defs>
       <use xlink:href="#DejaVuSans-32"/>
       <use xlink:href="#DejaVuSans-30" x="63.623047"/>
      </g>
     </g>
    </g>
    <g id="xtick_3">
     <g id="line2d_5">
      <path d="M 134.680123 241.718125 
L 134.680123 22.318125 
" clip-path="url(#p5ddb2b0769)" style="fill: none; stroke-dasharray: 0.8,1.32; stroke-dashoffset: 0; stroke: #b0b0b0; stroke-opacity: 0.5; stroke-width: 0.8"/>
     </g>
     <g id="line2d_6">
      <g>
       <use xlink:href="#med14bb0145" x="134.680123" y="241.718125" style="stroke: #000000; stroke-width: 0.8"/>
      </g>
     </g>
     <g id="text_3">
      <!-- 40 -->
      <g transform="translate(128.317623 256.316563)scale(0.1 -0.1)">
       <defs>
        <path id="DejaVuSans-34" d="M 2419 4116 
L 825 1625 
L 2419 1625 
L 2419 4116 
z
M 2253 4666 
L 3047 4666 
L 3047 1625 
L 3713 1625 
L 3713 1100 
L 3047 1100 
L 3047 0 
L 2419 0 
L 2419 1100 
L 313 1100 
L 313 1709 
L 2253 4666 
z
" transform="scale(0.015625)"/>
       </defs>
       <use xlink:href="#DejaVuSans-34"/>
       <use xlink:href="#DejaVuSans-30" x="63.623047"/>
      </g>
     </g>
    </g>
    <g id="xtick_4">
     <g id="line2d_7">
      <path d="M 180.197859 241.718125 
L 180.197859 22.318125 
" clip-path="url(#p5ddb2b0769)" style="fill: none; stroke-dasharray: 0.8,1.32; stroke-dashoffset: 0; stroke: #b0b0b0; stroke-opacity: 0.5; stroke-width: 0.8"/>
     </g>
     <g id="line2d_8">
      <g>
       <use xlink:href="#med14bb0145" x="180.197859" y="241.718125" style="stroke: #000000; stroke-width: 0.8"/>
      </g>
     </g>
     <g id="text_4">
      <!-- 60 -->
      <g transform="translate(173.835359 256.316563)scale(0.1 -0.1)">
       <defs>
        <path id="DejaVuSans-36" d="M 2113 2584 
Q 1688 2584 1439 2293 
Q 1191 2003 1191 1497 
Q 1191 994 1439 701 
Q 1688 409 2113 409 
Q 2538 409 2786 701 
Q 3034 994 3034 1497 
Q 3034 2003 2786 2293 
Q 2538 2584 2113 2584 
z
M 3366 4563 
L 3366 3988 
Q 3128 4100 2886 4159 
Q 2644 4219 2406 4219 
Q 1781 4219 1451 3797 
Q 1122 3375 1075 2522 
Q 1259 2794 1537 2939 
Q 1816 3084 2150 3084 
Q 2853 3084 3261 2657 
Q 3669 2231 3669 1497 
Q 3669 778 3244 343 
Q 2819 -91 2113 -91 
Q 1303 -91 875 529 
Q 447 1150 447 2328 
Q 447 3434 972 4092 
Q 1497 4750 2381 4750 
Q 2619 4750 2861 4703 
Q 3103 4656 3366 4563 
z
" transform="scale(0.015625)"/>
       </defs>
       <use xlink:href="#DejaVuSans-36"/>
       <use xlink:href="#DejaVuSans-30" x="63.623047"/>
      </g>
     </g>
    </g>
    <g id="xtick_5">
     <g id="line2d_9">
      <path d="M 225.715595 241.718125 
L 225.715595 22.318125 
" clip-path="url(#p5ddb2b0769)" style="fill: none; stroke-dasharray: 0.8,1.32; stroke-dashoffset: 0; stroke: #b0b0b0; stroke-opacity: 0.5; stroke-width: 0.8"/>
     </g>
     <g id="line2d_10">
      <g>
       <use xlink:href="#med14bb0145" x="225.715595" y="241.718125" style="stroke: #000000; stroke-width: 0.8"/>
      </g>
     </g>
     <g id="text_5">
      <!-- 80 -->
      <g transform="translate(219.353095 256.316563)scale(0.1 -0.1)">
       <defs>
        <path id="DejaVuSans-38" d="M 2034 2216 
Q 1584 2216 1326 1975 
Q 1069 1734 1069 1313 
Q 1069 891 1326 650 
Q 1584 409 2034 409 
Q 2484 409 2743 651 
Q 3003 894 3003 1313 
Q 3003 1734 2745 1975 
Q 2488 2216 2034 2216 
z
M 1403 2484 
Q 997 2584 770 2862 
Q 544 3141 544 3541 
Q 544 4100 942 4425 
Q 1341 4750 2034 4750 
Q 2731 4750 3128 4425 
Q 3525 4100 3525 3541 
Q 3525 3141 3298 2862 
Q 3072 2584 2669 2484 
Q 3125 2378 3379 2068 
Q 3634 1759 3634 1313 
Q 3634 634 3220 271 
Q 2806 -91 2034 -91 
Q 1263 -91 848 271 
Q 434 634 434 1313 
Q 434 1759 690 2068 
Q 947 2378 1403 2484 
z
M 1172 3481 
Q 1172 3119 1398 2916 
Q 1625 2713 2034 2713 
Q 2441 2713 2670 2916 
Q 2900 3119 2900 3481 
Q 2900 3844 2670 4047 
Q 2441 4250 2034 4250 
Q 1625 4250 1398 4047 
Q 1172 3844 1172 3481 
z
" transform="scale(0.015625)"/>
       </defs>
       <use xlink:href="#DejaVuSans-38"/>
       <use xlink:href="#DejaVuSans-30" x="63.623047"/>
      </g>
     </g>
    </g>
    <g id="xtick_6">
     <g id="line2d_11">
      <path d="M 271.233331 241.718125 
L 271.233331 22.318125 
" clip-path="url(#p5ddb2b0769)" style="fill: none; stroke-dasharray: 0.8,1.32; stroke-dashoffset: 0; stroke: #b0b0b0; stroke-opacity: 0.5; stroke-width: 0.8"/>
     </g>
     <g id="line2d_12">
      <g>
       <use xlink:href="#med14bb0145" x="271.233331" y="241.718125" style="stroke: #000000; stroke-width: 0.8"/>
      </g>
     </g>
     <g id="text_6">
      <!-- 100 -->
      <g transform="translate(261.689581 256.316563)scale(0.1 -0.1)">
       <defs>
        <path id="DejaVuSans-31" d="M 794 531 
L 1825 531 
L 1825 4091 
L 703 3866 
L 703 4441 
L 1819 4666 
L 2450 4666 
L 2450 531 
L 3481 531 
L 3481 0 
L 794 0 
L 794 531 
z
" transform="scale(0.015625)"/>
       </defs>
       <use xlink:href="#DejaVuSans-31"/>
       <use xlink:href="#DejaVuSans-30" x="63.623047"/>
       <use xlink:href="#DejaVuSans-30" x="127.246094"/>
      </g>
     </g>
    </g>
    <g id="xtick_7">
     <g id="line2d_13">
      <path d="M 316.751067 241.718125 
L 316.751067 22.318125 
" clip-path="url(#p5ddb2b0769)" style="fill: none; stroke-dasharray: 0.8,1.32; stroke-dashoffset: 0; stroke: #b0b0b0; stroke-opacity: 0.5; stroke-width: 0.8"/>
     </g>
     <g id="line2d_14">
      <g>
       <use xlink:href="#med14bb0145" x="316.751067" y="241.718125" style="stroke: #000000; stroke-width: 0.8"/>
      </g>
     </g>
     <g id="text_7">
      <!-- 120 -->
      <g transform="translate(307.207317 256.316563)scale(0.1 -0.1)">
       <use xlink:href="#DejaVuSans-31"/>
       <use xlink:href="#DejaVuSans-32" x="63.623047"/>
       <use xlink:href="#DejaVuSans-30" x="127.246094"/>
      </g>
     </g>
    </g>
    <g id="text_8">
     <!-- Communication rounds -->
     <g transform="translate(120.943509 269.994688)scale(0.1 -0.1)">
      <defs>
       <path id="DejaVuSans-43" d="M 4122 4306 
L 4122 3641 
Q 3803 3938 3442 4084 
Q 3081 4231 2675 4231 
Q 1875 4231 1450 3742 
Q 1025 3253 1025 2328 
Q 1025 1406 1450 917 
Q 1875 428 2675 428 
Q 3081 428 3442 575 
Q 3803 722 4122 1019 
L 4122 359 
Q 3791 134 3420 21 
Q 3050 -91 2638 -91 
Q 1578 -91 968 557 
Q 359 1206 359 2328 
Q 359 3453 968 4101 
Q 1578 4750 2638 4750 
Q 3056 4750 3426 4639 
Q 3797 4528 4122 4306 
z
" transform="scale(0.015625)"/>
       <path id="DejaVuSans-6f" d="M 1959 3097 
Q 1497 3097 1228 2736 
Q 959 2375 959 1747 
Q 959 1119 1226 758 
Q 1494 397 1959 397 
Q 2419 397 2687 759 
Q 2956 1122 2956 1747 
Q 2956 2369 2687 2733 
Q 2419 3097 1959 3097 
z
M 1959 3584 
Q 2709 3584 3137 3096 
Q 3566 2609 3566 1747 
Q 3566 888 3137 398 
Q 2709 -91 1959 -91 
Q 1206 -91 779 398 
Q 353 888 353 1747 
Q 353 2609 779 3096 
Q 1206 3584 1959 3584 
z
" transform="scale(0.015625)"/>
       <path id="DejaVuSans-6d" d="M 3328 2828 
Q 3544 3216 3844 3400 
Q 4144 3584 4550 3584 
Q 5097 3584 5394 3201 
Q 5691 2819 5691 2113 
L 5691 0 
L 5113 0 
L 5113 2094 
Q 5113 2597 4934 2840 
Q 4756 3084 4391 3084 
Q 3944 3084 3684 2787 
Q 3425 2491 3425 1978 
L 3425 0 
L 2847 0 
L 2847 2094 
Q 2847 2600 2669 2842 
Q 2491 3084 2119 3084 
Q 1678 3084 1418 2786 
Q 1159 2488 1159 1978 
L 1159 0 
L 581 0 
L 581 3500 
L 1159 3500 
L 1159 2956 
Q 1356 3278 1631 3431 
Q 1906 3584 2284 3584 
Q 2666 3584 2933 3390 
Q 3200 3197 3328 2828 
z
" transform="scale(0.015625)"/>
       <path id="DejaVuSans-75" d="M 544 1381 
L 544 3500 
L 1119 3500 
L 1119 1403 
Q 1119 906 1312 657 
Q 1506 409 1894 409 
Q 2359 409 2629 706 
Q 2900 1003 2900 1516 
L 2900 3500 
L 3475 3500 
L 3475 0 
L 2900 0 
L 2900 538 
Q 2691 219 2414 64 
Q 2138 -91 1772 -91 
Q 1169 -91 856 284 
Q 544 659 544 1381 
z
M 1991 3584 
L 1991 3584 
z
" transform="scale(0.015625)"/>
       <path id="DejaVuSans-6e" d="M 3513 2113 
L 3513 0 
L 2938 0 
L 2938 2094 
Q 2938 2591 2744 2837 
Q 2550 3084 2163 3084 
Q 1697 3084 1428 2787 
Q 1159 2491 1159 1978 
L 1159 0 
L 581 0 
L 581 3500 
L 1159 3500 
L 1159 2956 
Q 1366 3272 1645 3428 
Q 1925 3584 2291 3584 
Q 2894 3584 3203 3211 
Q 3513 2838 3513 2113 
z
" transform="scale(0.015625)"/>
       <path id="DejaVuSans-69" d="M 603 3500 
L 1178 3500 
L 1178 0 
L 603 0 
L 603 3500 
z
M 603 4863 
L 1178 4863 
L 1178 4134 
L 603 4134 
L 603 4863 
z
" transform="scale(0.015625)"/>
       <path id="DejaVuSans-63" d="M 3122 3366 
L 3122 2828 
Q 2878 2963 2633 3030 
Q 2388 3097 2138 3097 
Q 1578 3097 1268 2742 
Q 959 2388 959 1747 
Q 959 1106 1268 751 
Q 1578 397 2138 397 
Q 2388 397 2633 464 
Q 2878 531 3122 666 
L 3122 134 
Q 2881 22 2623 -34 
Q 2366 -91 2075 -91 
Q 1284 -91 818 406 
Q 353 903 353 1747 
Q 353 2603 823 3093 
Q 1294 3584 2113 3584 
Q 2378 3584 2631 3529 
Q 2884 3475 3122 3366 
z
" transform="scale(0.015625)"/>
       <path id="DejaVuSans-61" d="M 2194 1759 
Q 1497 1759 1228 1600 
Q 959 1441 959 1056 
Q 959 750 1161 570 
Q 1363 391 1709 391 
Q 2188 391 2477 730 
Q 2766 1069 2766 1631 
L 2766 1759 
L 2194 1759 
z
M 3341 1997 
L 3341 0 
L 2766 0 
L 2766 531 
Q 2569 213 2275 61 
Q 1981 -91 1556 -91 
Q 1019 -91 701 211 
Q 384 513 384 1019 
Q 384 1609 779 1909 
Q 1175 2209 1959 2209 
L 2766 2209 
L 2766 2266 
Q 2766 2663 2505 2880 
Q 2244 3097 1772 3097 
Q 1472 3097 1187 3025 
Q 903 2953 641 2809 
L 641 3341 
Q 956 3463 1253 3523 
Q 1550 3584 1831 3584 
Q 2591 3584 2966 3190 
Q 3341 2797 3341 1997 
z
" transform="scale(0.015625)"/>
       <path id="DejaVuSans-74" d="M 1172 4494 
L 1172 3500 
L 2356 3500 
L 2356 3053 
L 1172 3053 
L 1172 1153 
Q 1172 725 1289 603 
Q 1406 481 1766 481 
L 2356 481 
L 2356 0 
L 1766 0 
Q 1100 0 847 248 
Q 594 497 594 1153 
L 594 3053 
L 172 3053 
L 172 3500 
L 594 3500 
L 594 4494 
L 1172 4494 
z
" transform="scale(0.015625)"/>
       <path id="DejaVuSans-20" transform="scale(0.015625)"/>
       <path id="DejaVuSans-72" d="M 2631 2963 
Q 2534 3019 2420 3045 
Q 2306 3072 2169 3072 
Q 1681 3072 1420 2755 
Q 1159 2438 1159 1844 
L 1159 0 
L 581 0 
L 581 3500 
L 1159 3500 
L 1159 2956 
Q 1341 3275 1631 3429 
Q 1922 3584 2338 3584 
Q 2397 3584 2469 3576 
Q 2541 3569 2628 3553 
L 2631 2963 
z
" transform="scale(0.015625)"/>
       <path id="DejaVuSans-64" d="M 2906 2969 
L 2906 4863 
L 3481 4863 
L 3481 0 
L 2906 0 
L 2906 525 
Q 2725 213 2448 61 
Q 2172 -91 1784 -91 
Q 1150 -91 751 415 
Q 353 922 353 1747 
Q 353 2572 751 3078 
Q 1150 3584 1784 3584 
Q 2172 3584 2448 3432 
Q 2725 3281 2906 2969 
z
M 947 1747 
Q 947 1113 1208 752 
Q 1469 391 1925 391 
Q 2381 391 2643 752 
Q 2906 1113 2906 1747 
Q 2906 2381 2643 2742 
Q 2381 3103 1925 3103 
Q 1469 3103 1208 2742 
Q 947 2381 947 1747 
z
" transform="scale(0.015625)"/>
       <path id="DejaVuSans-73" d="M 2834 3397 
L 2834 2853 
Q 2591 2978 2328 3040 
Q 2066 3103 1784 3103 
Q 1356 3103 1142 2972 
Q 928 2841 928 2578 
Q 928 2378 1081 2264 
Q 1234 2150 1697 2047 
L 1894 2003 
Q 2506 1872 2764 1633 
Q 3022 1394 3022 966 
Q 3022 478 2636 193 
Q 2250 -91 1575 -91 
Q 1294 -91 989 -36 
Q 684 19 347 128 
L 347 722 
Q 666 556 975 473 
Q 1284 391 1588 391 
Q 1994 391 2212 530 
Q 2431 669 2431 922 
Q 2431 1156 2273 1281 
Q 2116 1406 1581 1522 
L 1381 1569 
Q 847 1681 609 1914 
Q 372 2147 372 2553 
Q 372 3047 722 3315 
Q 1072 3584 1716 3584 
Q 2034 3584 2315 3537 
Q 2597 3491 2834 3397 
z
" transform="scale(0.015625)"/>
      </defs>
      <use xlink:href="#DejaVuSans-43"/>
      <use xlink:href="#DejaVuSans-6f" x="69.824219"/>
      <use xlink:href="#DejaVuSans-6d" x="131.005859"/>
      <use xlink:href="#DejaVuSans-6d" x="228.417969"/>
      <use xlink:href="#DejaVuSans-75" x="325.830078"/>
      <use xlink:href="#DejaVuSans-6e" x="389.208984"/>
      <use xlink:href="#DejaVuSans-69" x="452.587891"/>
      <use xlink:href="#DejaVuSans-63" x="480.371094"/>
      <use xlink:href="#DejaVuSans-61" x="535.351562"/>
      <use xlink:href="#DejaVuSans-74" x="596.630859"/>
      <use xlink:href="#DejaVuSans-69" x="635.839844"/>
      <use xlink:href="#DejaVuSans-6f" x="663.623047"/>
      <use xlink:href="#DejaVuSans-6e" x="724.804688"/>
      <use xlink:href="#DejaVuSans-20" x="788.183594"/>
      <use xlink:href="#DejaVuSans-72" x="819.970703"/>
      <use xlink:href="#DejaVuSans-6f" x="858.833984"/>
      <use xlink:href="#DejaVuSans-75" x="920.015625"/>
      <use xlink:href="#DejaVuSans-6e" x="983.394531"/>
      <use xlink:href="#DejaVuSans-64" x="1046.773438"/>
      <use xlink:href="#DejaVuSans-73" x="1110.25"/>
     </g>
    </g>
   </g>
   <g id="matplotlib.axis_2">
    <g id="ytick_1">
     <g id="line2d_15">
      <path d="M 30.103125 220.463878 
L 328.016706 220.463878 
" clip-path="url(#p5ddb2b0769)" style="fill: none; stroke-dasharray: 0.8,1.32; stroke-dashoffset: 0; stroke: #b0b0b0; stroke-opacity: 0.5; stroke-width: 0.8"/>
     </g>
     <g id="line2d_16">
      <defs>
       <path id="mda0c0fffe9" d="M 0 0 
L -3.5 0 
" style="stroke: #000000; stroke-width: 0.8"/>
      </defs>
      <g>
       <use xlink:href="#mda0c0fffe9" x="30.103125" y="220.463878" style="stroke: #000000; stroke-width: 0.8"/>
      </g>
     </g>
     <g id="text_9">
      <!-- 0.3 -->
      <g transform="translate(7.2 224.263097)scale(0.1 -0.1)">
       <defs>
        <path id="DejaVuSans-2e" d="M 684 794 
L 1344 794 
L 1344 0 
L 684 0 
L 684 794 
z
" transform="scale(0.015625)"/>
        <path id="DejaVuSans-33" d="M 2597 2516 
Q 3050 2419 3304 2112 
Q 3559 1806 3559 1356 
Q 3559 666 3084 287 
Q 2609 -91 1734 -91 
Q 1441 -91 1130 -33 
Q 819 25 488 141 
L 488 750 
Q 750 597 1062 519 
Q 1375 441 1716 441 
Q 2309 441 2620 675 
Q 2931 909 2931 1356 
Q 2931 1769 2642 2001 
Q 2353 2234 1838 2234 
L 1294 2234 
L 1294 2753 
L 1863 2753 
Q 2328 2753 2575 2939 
Q 2822 3125 2822 3475 
Q 2822 3834 2567 4026 
Q 2313 4219 1838 4219 
Q 1578 4219 1281 4162 
Q 984 4106 628 3988 
L 628 4550 
Q 988 4650 1302 4700 
Q 1616 4750 1894 4750 
Q 2613 4750 3031 4423 
Q 3450 4097 3450 3541 
Q 3450 3153 3228 2886 
Q 3006 2619 2597 2516 
z
" transform="scale(0.015625)"/>
       </defs>
       <use xlink:href="#DejaVuSans-30"/>
       <use xlink:href="#DejaVuSans-2e" x="63.623047"/>
       <use xlink:href="#DejaVuSans-33" x="95.410156"/>
      </g>
     </g>
    </g>
    <g id="ytick_2">
     <g id="line2d_17">
      <path d="M 30.103125 186.380736 
L 328.016706 186.380736 
" clip-path="url(#p5ddb2b0769)" style="fill: none; stroke-dasharray: 0.8,1.32; stroke-dashoffset: 0; stroke: #b0b0b0; stroke-opacity: 0.5; stroke-width: 0.8"/>
     </g>
     <g id="line2d_18">
      <g>
       <use xlink:href="#mda0c0fffe9" x="30.103125" y="186.380736" style="stroke: #000000; stroke-width: 0.8"/>
      </g>
     </g>
     <g id="text_10">
      <!-- 0.4 -->
      <g transform="translate(7.2 190.179955)scale(0.1 -0.1)">
       <use xlink:href="#DejaVuSans-30"/>
       <use xlink:href="#DejaVuSans-2e" x="63.623047"/>
       <use xlink:href="#DejaVuSans-34" x="95.410156"/>
      </g>
     </g>
    </g>
    <g id="ytick_3">
     <g id="line2d_19">
      <path d="M 30.103125 152.297594 
L 328.016706 152.297594 
" clip-path="url(#p5ddb2b0769)" style="fill: none; stroke-dasharray: 0.8,1.32; stroke-dashoffset: 0; stroke: #b0b0b0; stroke-opacity: 0.5; stroke-width: 0.8"/>
     </g>
     <g id="line2d_20">
      <g>
       <use xlink:href="#mda0c0fffe9" x="30.103125" y="152.297594" style="stroke: #000000; stroke-width: 0.8"/>
      </g>
     </g>
     <g id="text_11">
      <!-- 0.5 -->
      <g transform="translate(7.2 156.096813)scale(0.1 -0.1)">
       <defs>
        <path id="DejaVuSans-35" d="M 691 4666 
L 3169 4666 
L 3169 4134 
L 1269 4134 
L 1269 2991 
Q 1406 3038 1543 3061 
Q 1681 3084 1819 3084 
Q 2600 3084 3056 2656 
Q 3513 2228 3513 1497 
Q 3513 744 3044 326 
Q 2575 -91 1722 -91 
Q 1428 -91 1123 -41 
Q 819 9 494 109 
L 494 744 
Q 775 591 1075 516 
Q 1375 441 1709 441 
Q 2250 441 2565 725 
Q 2881 1009 2881 1497 
Q 2881 1984 2565 2268 
Q 2250 2553 1709 2553 
Q 1456 2553 1204 2497 
Q 953 2441 691 2322 
L 691 4666 
z
" transform="scale(0.015625)"/>
       </defs>
       <use xlink:href="#DejaVuSans-30"/>
       <use xlink:href="#DejaVuSans-2e" x="63.623047"/>
       <use xlink:href="#DejaVuSans-35" x="95.410156"/>
      </g>
     </g>
    </g>
    <g id="ytick_4">
     <g id="line2d_21">
      <path d="M 30.103125 118.214453 
L 328.016706 118.214453 
" clip-path="url(#p5ddb2b0769)" style="fill: none; stroke-dasharray: 0.8,1.32; stroke-dashoffset: 0; stroke: #b0b0b0; stroke-opacity: 0.5; stroke-width: 0.8"/>
     </g>
     <g id="line2d_22">
      <g>
       <use xlink:href="#mda0c0fffe9" x="30.103125" y="118.214453" style="stroke: #000000; stroke-width: 0.8"/>
      </g>
     </g>
     <g id="text_12">
      <!-- 0.6 -->
      <g transform="translate(7.2 122.013671)scale(0.1 -0.1)">
       <use xlink:href="#DejaVuSans-30"/>
       <use xlink:href="#DejaVuSans-2e" x="63.623047"/>
       <use xlink:href="#DejaVuSans-36" x="95.410156"/>
      </g>
     </g>
    </g>
    <g id="ytick_5">
     <g id="line2d_23">
      <path d="M 30.103125 84.131311 
L 328.016706 84.131311 
" clip-path="url(#p5ddb2b0769)" style="fill: none; stroke-dasharray: 0.8,1.32; stroke-dashoffset: 0; stroke: #b0b0b0; stroke-opacity: 0.5; stroke-width: 0.8"/>
     </g>
     <g id="line2d_24">
      <g>
       <use xlink:href="#mda0c0fffe9" x="30.103125" y="84.131311" style="stroke: #000000; stroke-width: 0.8"/>
      </g>
     </g>
     <g id="text_13">
      <!-- 0.7 -->
      <g transform="translate(7.2 87.93053)scale(0.1 -0.1)">
       <defs>
        <path id="DejaVuSans-37" d="M 525 4666 
L 3525 4666 
L 3525 4397 
L 1831 0 
L 1172 0 
L 2766 4134 
L 525 4134 
L 525 4666 
z
" transform="scale(0.015625)"/>
       </defs>
       <use xlink:href="#DejaVuSans-30"/>
       <use xlink:href="#DejaVuSans-2e" x="63.623047"/>
       <use xlink:href="#DejaVuSans-37" x="95.410156"/>
      </g>
     </g>
    </g>
    <g id="ytick_6">
     <g id="line2d_25">
      <path d="M 30.103125 50.048169 
L 328.016706 50.048169 
" clip-path="url(#p5ddb2b0769)" style="fill: none; stroke-dasharray: 0.8,1.32; stroke-dashoffset: 0; stroke: #b0b0b0; stroke-opacity: 0.5; stroke-width: 0.8"/>
     </g>
     <g id="line2d_26">
      <g>
       <use xlink:href="#mda0c0fffe9" x="30.103125" y="50.048169" style="stroke: #000000; stroke-width: 0.8"/>
      </g>
     </g>
     <g id="text_14">
      <!-- 0.8 -->
      <g transform="translate(7.2 53.847388)scale(0.1 -0.1)">
       <use xlink:href="#DejaVuSans-30"/>
       <use xlink:href="#DejaVuSans-2e" x="63.623047"/>
       <use xlink:href="#DejaVuSans-38" x="95.410156"/>
      </g>
     </g>
    </g>
   </g>
   <g id="line2d_27">
    <path d="M 43.644651 210.06852 
L 45.920538 188.357558 
L 48.196425 150.661604 
L 50.472312 175.985378 
L 52.748199 154.274417 
L 55.024085 185.66499 
L 57.299972 106.012688 
L 59.575859 84.131311 
L 61.851746 85.767302 
L 64.127633 69.782308 
L 66.403519 80.927496 
L 68.679406 54.001814 
L 70.955293 99.025644 
L 73.23118 57.785042 
L 75.507067 56.864797 
L 77.782953 59.012035 
L 80.05884 48.241763 
L 82.334727 44.697116 
L 84.610614 48.446261 
L 86.886501 54.887975 
L 89.162387 48.821176 
L 91.438274 42.345379 
L 93.714161 45.378779 
L 95.990048 44.288118 
L 98.265934 44.663033 
L 100.541821 41.970465 
L 102.817708 41.629633 
L 105.093595 40.538973 
L 107.369482 41.59555 
L 109.645368 43.401956 
L 111.921255 41.084303 
L 114.197142 36.210414 
L 116.473029 40.164058 
L 118.748916 38.01682 
L 121.024802 39.448312 
L 123.300689 44.117702 
L 125.576576 35.699166 
L 127.852463 41.254719 
L 130.12835 39.993642 
L 132.404236 39.652811 
L 134.680123 34.98342 
L 136.95601 38.01682 
L 139.231897 38.56215 
L 141.507784 37.880488 
L 143.78367 38.01682 
L 146.059557 37.130658 
L 148.335444 39.448312 
L 150.611331 36.585328 
L 152.887218 38.221319 
L 155.163104 41.970465 
L 157.438991 37.505573 
L 159.714878 37.301074 
L 161.990765 37.301074 
L 164.266651 35.494668 
L 166.542538 37.505573 
L 168.818425 34.063176 
L 171.094312 40.368557 
L 173.370199 36.414912 
L 175.646085 37.675989 
L 177.921972 39.277896 
L 180.197859 39.993642 
L 182.473746 37.846404 
L 184.749633 37.880488 
L 187.025519 36.960243 
L 189.301406 38.01682 
L 191.577293 38.902982 
L 193.85318 36.585328 
L 196.129067 38.56215 
L 198.404953 41.425134 
L 200.68084 37.641906 
L 202.956727 35.869582 
L 205.232614 36.755744 
L 207.508501 36.244497 
L 209.784387 40.164058 
L 212.060274 38.56215 
L 214.336161 38.56215 
L 216.612048 36.074081 
L 218.887935 35.358335 
L 221.163821 37.47149 
L 223.439708 35.528751 
L 225.715595 36.074081 
L 227.991482 37.301074 
L 230.267369 36.210414 
L 232.543255 33.722344 
L 234.819142 41.800049 
L 237.095029 34.43809 
L 239.370916 35.494668 
L 241.646802 32.802099 
L 243.922689 37.846404 
L 246.198576 36.210414 
L 248.474463 36.585328 
L 250.75035 38.221319 
L 253.026236 37.164742 
L 255.302123 36.414912 
L 257.57801 36.414912 
L 259.853897 34.778922 
L 262.129784 36.244497 
L 264.40567 34.778922 
L 266.681557 35.869582 
L 268.957444 35.153836 
L 271.233331 36.414912 
L 273.509218 36.585328 
L 275.785104 33.89276 
L 278.060991 34.778922 
L 280.336878 38.391735 
L 282.612765 35.528751 
L 284.888652 36.414912 
L 287.164538 33.89276 
L 289.440425 38.732566 
L 291.716312 37.301074 
L 293.992199 39.277896 
L 296.268086 41.629633 
L 298.543972 35.699166 
L 300.819859 34.608506 
L 303.095746 36.074081 
L 305.371633 36.414912 
L 307.64752 36.210414 
L 309.923406 34.267674 
L 312.199293 38.902982 
L 314.47518 37.130658 
" clip-path="url(#p5ddb2b0769)" style="fill: none; stroke: #000000; stroke-linecap: square"/>
   </g>
   <g id="line2d_28">
    <path d="M 43.644651 197.321425 
L 45.920538 231.234151 
L 48.196425 209.148275 
L 50.472312 191.050126 
L 52.748199 164.84019 
L 55.024085 151.206934 
L 57.299972 138.868836 
L 59.575859 131.847709 
L 61.851746 125.576411 
L 64.127633 79.121089 
L 66.403519 95.071999 
L 68.679406 70.872969 
L 70.955293 54.376728 
L 73.23118 54.71756 
L 75.507067 60.068613 
L 77.782953 50.389001 
L 80.05884 64.738003 
L 82.334727 50.934331 
L 84.610614 51.479661 
L 86.886501 51.820492 
L 89.162387 50.593499 
L 91.438274 47.526017 
L 93.714161 53.286068 
L 95.990048 46.639855 
L 98.265934 57.035213 
L 100.541821 43.401956 
L 102.817708 45.378779 
L 105.093595 43.98137 
L 107.369482 42.14088 
L 109.645368 46.469439 
L 111.921255 44.663033 
L 114.197142 48.241763 
L 116.473029 40.709388 
L 118.748916 39.277896 
L 121.024802 44.663033 
L 123.300689 42.856626 
L 125.576576 44.663033 
L 127.852463 42.004548 
L 130.12835 41.084303 
L 132.404236 46.469439 
L 134.680123 43.572372 
L 136.95601 42.686211 
L 139.231897 48.241763 
L 141.507784 43.401956 
L 143.78367 40.709388 
L 146.059557 42.856626 
L 148.335444 42.14088 
L 150.611331 47.185185 
L 152.887218 42.686211 
L 155.163104 46.639855 
L 157.438991 41.084303 
L 159.714878 39.107481 
L 161.990765 40.538973 
L 164.266651 40.368557 
L 166.542538 44.322201 
L 168.818425 39.277896 
L 171.094312 42.686211 
L 173.370199 43.231541 
L 175.646085 39.107481 
L 177.921972 43.231541 
L 180.197859 37.675989 
L 182.473746 41.254719 
L 184.749633 41.288802 
L 187.025519 42.856626 
L 189.301406 46.094525 
L 191.577293 41.254719 
L 193.85318 39.823227 
L 196.129067 42.14088 
L 198.404953 42.345379 
L 200.68084 39.448312 
L 202.956727 37.641906 
L 205.232614 39.107481 
L 207.508501 46.469439 
L 209.784387 40.573056 
L 212.060274 46.810271 
L 214.336161 36.039998 
L 216.612048 39.652811 
L 218.887935 39.993642 
L 221.163821 39.993642 
L 223.439708 41.254719 
L 225.715595 38.221319 
L 227.991482 42.686211 
L 230.267369 40.913887 
L 232.543255 62.249934 
L 234.819142 43.027042 
L 237.095029 41.800049 
L 239.370916 41.629633 
L 241.646802 42.004548 
L 243.922689 40.913887 
L 246.198576 43.776871 
L 248.474463 36.585328 
L 250.75035 37.301074 
L 253.026236 40.198141 
L 255.302123 38.56215 
L 257.57801 44.833448 
L 259.853897 40.538973 
L 262.129784 42.686211 
L 264.40567 37.505573 
L 266.681557 43.027042 
L 268.957444 43.401956 
L 271.233331 38.221319 
L 273.509218 38.221319 
L 275.785104 42.515795 
L 278.060991 43.231541 
L 280.336878 40.879804 
L 282.612765 39.823227 
L 284.888652 38.937065 
L 287.164538 39.652811 
L 289.440425 41.425134 
L 291.716312 46.980686 
L 293.992199 40.709388 
L 296.268086 40.709388 
L 298.543972 46.128608 
L 300.819859 45.71961 
L 303.095746 45.71961 
L 305.371633 40.538973 
L 307.64752 36.244497 
L 309.923406 38.937065 
L 312.199293 39.618728 
L 314.47518 43.776871 
" clip-path="url(#p5ddb2b0769)" style="fill: none; stroke: #2a6aa8; stroke-linecap: square"/>
   </g>
   <g id="line2d_29">
    <path d="M 43.644651 221.009208 
L 45.920538 225.849014 
L 48.196425 201.786316 
L 50.472312 195.685434 
L 52.748199 145.821797 
L 55.024085 102.808873 
L 57.299972 123.054259 
L 59.575859 130.586633 
L 61.851746 87.710041 
L 64.127633 109.421002 
L 66.403519 78.780258 
L 68.679406 63.885925 
L 70.955293 101.002466 
L 73.23118 57.921375 
L 75.507067 76.394438 
L 77.782953 61.909102 
L 80.05884 52.740737 
L 82.334727 46.469439 
L 84.610614 54.172229 
L 86.886501 62.96568 
L 89.162387 56.660299 
L 91.438274 73.735953 
L 93.714161 48.787093 
L 95.990048 47.696432 
L 98.265934 51.13883 
L 100.541821 55.058391 
L 102.817708 50.934331 
L 105.093595 45.924109 
L 107.369482 61.534188 
L 109.645368 49.127924 
L 111.921255 47.185185 
L 114.197142 44.117702 
L 116.473029 52.911153 
L 118.748916 39.993642 
L 121.024802 50.763915 
L 123.300689 44.492617 
L 125.576576 43.231541 
L 127.852463 43.027042 
L 130.12835 50.934331 
L 132.404236 43.231541 
L 134.680123 40.879804 
L 136.95601 41.084303 
L 139.231897 46.639855 
L 141.507784 45.71961 
L 143.78367 41.629633 
L 146.059557 42.686211 
L 148.335444 42.14088 
L 150.611331 43.027042 
L 152.887218 46.26494 
L 155.163104 39.482395 
L 157.438991 42.515795 
L 159.714878 44.117702 
L 161.990765 42.856626 
L 164.266651 37.505573 
L 166.542538 48.957509 
L 168.818425 38.391735 
L 171.094312 38.221319 
L 173.370199 36.92616 
L 175.646085 49.502839 
L 177.921972 43.98137 
L 180.197859 41.800049 
L 182.473746 40.164058 
L 184.749633 43.776871 
L 187.025519 44.492617 
L 189.301406 41.59555 
L 191.577293 45.003864 
L 193.85318 50.048169 
L 196.129067 39.993642 
L 198.404953 43.231541 
L 200.68084 52.740737 
L 202.956727 41.800049 
L 205.232614 41.59555 
L 207.508501 45.378779 
L 209.784387 40.538973 
L 212.060274 39.823227 
L 214.336161 38.221319 
L 216.612048 36.414912 
L 218.887935 39.482395 
L 221.163821 49.673255 
L 223.439708 41.59555 
L 225.715595 44.117702 
L 227.991482 41.425134 
L 230.267369 43.572372 
L 232.543255 40.879804 
L 234.819142 37.675989 
L 237.095029 39.277896 
L 239.370916 41.800049 
L 241.646802 46.639855 
L 243.922689 40.198141 
L 246.198576 41.425134 
L 248.474463 49.673255 
L 250.75035 43.231541 
L 253.026236 41.254719 
L 255.302123 39.448312 
L 257.57801 43.606455 
L 259.853897 36.960243 
L 262.129784 50.593499 
L 264.40567 38.221319 
L 266.681557 46.128608 
L 268.957444 72.474876 
L 271.233331 45.003864 
L 273.509218 44.663033 
L 275.785104 40.198141 
L 278.060991 38.01682 
L 280.336878 38.221319 
L 282.612765 38.01682 
L 284.888652 42.856626 
L 287.164538 43.401956 
L 289.440425 45.17428 
L 291.716312 43.231541 
L 293.992199 37.675989 
L 296.268086 44.322201 
L 298.543972 48.787093 
L 300.819859 39.823227 
L 303.095746 47.185185 
L 305.371633 42.345379 
L 307.64752 36.789827 
L 309.923406 44.322201 
L 312.199293 38.391735 
L 314.47518 53.251984 
" clip-path="url(#p5ddb2b0769)" style="fill: none; stroke: #f79f1e; stroke-linecap: square"/>
   </g>
   <g id="line2d_30">
    <path d="M 43.644651 224.076691 
L 45.920538 220.123046 
L 48.196425 231.745398 
L 50.472312 196.605679 
L 52.748199 163.783613 
L 55.024085 153.354172 
L 57.299972 91.322854 
L 59.575859 154.478915 
L 61.851746 89.346032 
L 64.127633 68.521232 
L 66.403519 97.934983 
L 68.679406 104.41078 
L 70.955293 87.198794 
L 73.23118 70.702553 
L 75.507067 80.893412 
L 77.782953 65.453749 
L 80.05884 61.704604 
L 82.334727 96.333076 
L 84.610614 50.763915 
L 86.886501 64.022257 
L 89.162387 51.650077 
L 91.438274 46.469439 
L 93.714161 43.061125 
L 95.990048 49.332423 
L 98.265934 54.001814 
L 100.541821 86.108133 
L 102.817708 38.391735 
L 105.093595 39.107481 
L 107.369482 44.833448 
L 109.645368 36.755744 
L 111.921255 45.378779 
L 114.197142 37.505573 
L 116.473029 51.13883 
L 118.748916 45.208363 
L 121.024802 55.978636 
L 123.300689 39.823227 
L 125.576576 46.469439 
L 127.852463 38.391735 
L 130.12835 40.368557 
L 132.404236 47.866848 
L 134.680123 40.913887 
L 136.95601 38.937065 
L 139.231897 37.130658 
L 141.507784 36.414912 
L 143.78367 39.823227 
L 146.059557 39.107481 
L 148.335444 36.039998 
L 150.611331 38.56215 
L 152.887218 38.391735 
L 155.163104 61.909102 
L 157.438991 50.218585 
L 159.714878 38.221319 
L 161.990765 47.900931 
L 164.266651 35.494668 
L 166.542538 34.778922 
L 168.818425 35.699166 
L 171.094312 38.56215 
L 173.370199 34.097259 
L 175.646085 41.970465 
L 177.921972 34.267674 
L 180.197859 39.277896 
L 182.473746 38.56215 
L 184.749633 43.572372 
L 187.025519 35.699166 
L 189.301406 39.823227 
L 191.577293 52.024991 
L 193.85318 42.515795 
L 196.129067 35.358335 
L 198.404953 35.494668 
L 200.68084 36.960243 
L 202.956727 38.391735 
L 205.232614 34.98342 
L 207.508501 39.652811 
L 209.784387 62.454433 
L 212.060274 44.492617 
L 214.336161 40.709388 
L 216.612048 35.153836 
L 218.887935 36.789827 
L 221.163821 34.097259 
L 223.439708 35.324252 
L 225.715595 40.538973 
L 227.991482 47.151102 
L 230.267369 35.699166 
L 232.543255 39.107481 
L 234.819142 37.301074 
L 237.095029 42.004548 
L 239.370916 34.608506 
L 241.646802 36.585328 
L 243.922689 35.153836 
L 246.198576 38.221319 
L 248.474463 39.823227 
L 250.75035 38.221319 
L 253.026236 36.585328 
L 255.302123 33.722344 
L 257.57801 36.585328 
L 259.853897 40.334474 
L 262.129784 36.414912 
L 264.40567 36.039998 
L 266.681557 36.960243 
L 268.957444 46.469439 
L 271.233331 46.469439 
L 273.509218 35.324252 
L 275.785104 37.675989 
L 278.060991 39.277896 
L 280.336878 49.127924 
L 282.612765 34.608506 
L 284.888652 45.208363 
L 287.164538 33.006598 
L 289.440425 36.789827 
L 291.716312 42.856626 
L 293.992199 46.469439 
L 296.268086 40.164058 
L 298.543972 32.665767 
L 300.819859 39.277896 
L 303.095746 39.448312 
L 305.371633 33.722344 
L 307.64752 32.290852 
L 309.923406 40.198141 
L 312.199293 34.097259 
L 314.47518 34.097259 
" clip-path="url(#p5ddb2b0769)" style="fill: none; stroke: #f22b00; stroke-linecap: square"/>
   </g>
   <g id="patch_3">
    <path d="M 30.103125 241.718125 
L 30.103125 22.318125 
" style="fill: none; stroke: #000000; stroke-width: 0.8; stroke-linejoin: miter; stroke-linecap: square"/>
   </g>
   <g id="patch_4">
    <path d="M 328.016706 241.718125 
L 328.016706 22.318125 
" style="fill: none; stroke: #000000; stroke-width: 0.8; stroke-linejoin: miter; stroke-linecap: square"/>
   </g>
   <g id="patch_5">
    <path d="M 30.103125 241.718125 
L 328.016706 241.718125 
" style="fill: none; stroke: #000000; stroke-width: 0.8; stroke-linejoin: miter; stroke-linecap: square"/>
   </g>
   <g id="patch_6">
    <path d="M 30.103125 22.318125 
L 328.016706 22.318125 
" style="fill: none; stroke: #000000; stroke-width: 0.8; stroke-linejoin: miter; stroke-linecap: square"/>
   </g>
   <g id="text_15">
    <!-- Basic-Common -->
    <g transform="translate(133.986791 16.318125)scale(0.12 -0.12)">
     <defs>
      <path id="DejaVuSans-42" d="M 1259 2228 
L 1259 519 
L 2272 519 
Q 2781 519 3026 730 
Q 3272 941 3272 1375 
Q 3272 1813 3026 2020 
Q 2781 2228 2272 2228 
L 1259 2228 
z
M 1259 4147 
L 1259 2741 
L 2194 2741 
Q 2656 2741 2882 2914 
Q 3109 3088 3109 3444 
Q 3109 3797 2882 3972 
Q 2656 4147 2194 4147 
L 1259 4147 
z
M 628 4666 
L 2241 4666 
Q 2963 4666 3353 4366 
Q 3744 4066 3744 3513 
Q 3744 3084 3544 2831 
Q 3344 2578 2956 2516 
Q 3422 2416 3680 2098 
Q 3938 1781 3938 1306 
Q 3938 681 3513 340 
Q 3088 0 2303 0 
L 628 0 
L 628 4666 
z
" transform="scale(0.015625)"/>
      <path id="DejaVuSans-2d" d="M 313 2009 
L 1997 2009 
L 1997 1497 
L 313 1497 
L 313 2009 
z
" transform="scale(0.015625)"/>
     </defs>
     <use xlink:href="#DejaVuSans-42"/>
     <use xlink:href="#DejaVuSans-61" x="68.603516"/>
     <use xlink:href="#DejaVuSans-73" x="129.882812"/>
     <use xlink:href="#DejaVuSans-69" x="181.982422"/>
     <use xlink:href="#DejaVuSans-63" x="209.765625"/>
     <use xlink:href="#DejaVuSans-2d" x="264.746094"/>
     <use xlink:href="#DejaVuSans-43" x="300.830078"/>
     <use xlink:href="#DejaVuSans-6f" x="370.654297"/>
     <use xlink:href="#DejaVuSans-6d" x="431.835938"/>
     <use xlink:href="#DejaVuSans-6d" x="529.248047"/>
     <use xlink:href="#DejaVuSans-6f" x="626.660156"/>
     <use xlink:href="#DejaVuSans-6e" x="687.841797"/>
    </g>
   </g>
   <g id="legend_1">
    <g id="patch_7">
     <path d="M 233.541706 236.718125 
L 321.016706 236.718125 
Q 323.016706 236.718125 323.016706 234.718125 
L 323.016706 177.005625 
Q 323.016706 175.005625 321.016706 175.005625 
L 233.541706 175.005625 
Q 231.541706 175.005625 231.541706 177.005625 
L 231.541706 234.718125 
Q 231.541706 236.718125 233.541706 236.718125 
z
" style="fill: #ffffff; opacity: 0.8; stroke: #cccccc; stroke-linejoin: miter"/>
    </g>
    <g id="line2d_31">
     <path d="M 235.541706 183.104063 
L 245.541706 183.104063 
L 255.541706 183.104063 
" style="fill: none; stroke: #000000; stroke-linecap: square"/>
    </g>
    <g id="text_16">
     <!-- CharCNN-3 -->
     <g transform="translate(263.541706 186.604063)scale(0.1 -0.1)">
      <defs>
       <path id="DejaVuSans-68" d="M 3513 2113 
L 3513 0 
L 2938 0 
L 2938 2094 
Q 2938 2591 2744 2837 
Q 2550 3084 2163 3084 
Q 1697 3084 1428 2787 
Q 1159 2491 1159 1978 
L 1159 0 
L 581 0 
L 581 4863 
L 1159 4863 
L 1159 2956 
Q 1366 3272 1645 3428 
Q 1925 3584 2291 3584 
Q 2894 3584 3203 3211 
Q 3513 2838 3513 2113 
z
" transform="scale(0.015625)"/>
       <path id="DejaVuSans-4e" d="M 628 4666 
L 1478 4666 
L 3547 763 
L 3547 4666 
L 4159 4666 
L 4159 0 
L 3309 0 
L 1241 3903 
L 1241 0 
L 628 0 
L 628 4666 
z
" transform="scale(0.015625)"/>
      </defs>
      <use xlink:href="#DejaVuSans-43"/>
      <use xlink:href="#DejaVuSans-68" x="69.824219"/>
      <use xlink:href="#DejaVuSans-61" x="133.203125"/>
      <use xlink:href="#DejaVuSans-72" x="194.482422"/>
      <use xlink:href="#DejaVuSans-43" x="235.595703"/>
      <use xlink:href="#DejaVuSans-4e" x="305.419922"/>
      <use xlink:href="#DejaVuSans-4e" x="380.224609"/>
      <use xlink:href="#DejaVuSans-2d" x="455.029297"/>
      <use xlink:href="#DejaVuSans-33" x="491.113281"/>
     </g>
    </g>
    <g id="line2d_32">
     <path d="M 235.541706 197.782188 
L 245.541706 197.782188 
L 255.541706 197.782188 
" style="fill: none; stroke: #2a6aa8; stroke-linecap: square"/>
    </g>
    <g id="text_17">
     <!-- CharCNN-4 -->
     <g transform="translate(263.541706 201.282188)scale(0.1 -0.1)">
      <use xlink:href="#DejaVuSans-43"/>
      <use xlink:href="#DejaVuSans-68" x="69.824219"/>
      <use xlink:href="#DejaVuSans-61" x="133.203125"/>
      <use xlink:href="#DejaVuSans-72" x="194.482422"/>
      <use xlink:href="#DejaVuSans-43" x="235.595703"/>
      <use xlink:href="#DejaVuSans-4e" x="305.419922"/>
      <use xlink:href="#DejaVuSans-4e" x="380.224609"/>
      <use xlink:href="#DejaVuSans-2d" x="455.029297"/>
      <use xlink:href="#DejaVuSans-34" x="491.113281"/>
     </g>
    </g>
    <g id="line2d_33">
     <path d="M 235.541706 212.460313 
L 245.541706 212.460313 
L 255.541706 212.460313 
" style="fill: none; stroke: #f79f1e; stroke-linecap: square"/>
    </g>
    <g id="text_18">
     <!-- CharCNN-5 -->
     <g transform="translate(263.541706 215.960313)scale(0.1 -0.1)">
      <use xlink:href="#DejaVuSans-43"/>
      <use xlink:href="#DejaVuSans-68" x="69.824219"/>
      <use xlink:href="#DejaVuSans-61" x="133.203125"/>
      <use xlink:href="#DejaVuSans-72" x="194.482422"/>
      <use xlink:href="#DejaVuSans-43" x="235.595703"/>
      <use xlink:href="#DejaVuSans-4e" x="305.419922"/>
      <use xlink:href="#DejaVuSans-4e" x="380.224609"/>
      <use xlink:href="#DejaVuSans-2d" x="455.029297"/>
      <use xlink:href="#DejaVuSans-35" x="491.113281"/>
     </g>
    </g>
    <g id="line2d_34">
     <path d="M 235.541706 227.138438 
L 245.541706 227.138438 
L 255.541706 227.138438 
" style="fill: none; stroke: #f22b00; stroke-linecap: square"/>
    </g>
    <g id="text_19">
     <!-- CharCNN-6 -->
     <g transform="translate(263.541706 230.638438)scale(0.1 -0.1)">
      <use xlink:href="#DejaVuSans-43"/>
      <use xlink:href="#DejaVuSans-68" x="69.824219"/>
      <use xlink:href="#DejaVuSans-61" x="133.203125"/>
      <use xlink:href="#DejaVuSans-72" x="194.482422"/>
      <use xlink:href="#DejaVuSans-43" x="235.595703"/>
      <use xlink:href="#DejaVuSans-4e" x="305.419922"/>
      <use xlink:href="#DejaVuSans-4e" x="380.224609"/>
      <use xlink:href="#DejaVuSans-2d" x="455.029297"/>
      <use xlink:href="#DejaVuSans-36" x="491.113281"/>
     </g>
    </g>
   </g>
  </g>
  <g id="axes_2">
   <g id="patch_8">
    <path d="M 362.503125 241.718125 
L 660.416706 241.718125 
L 660.416706 22.318125 
L 362.503125 22.318125 
z
" style="fill: #ffffff"/>
   </g>
   <g id="matplotlib.axis_3">
    <g id="xtick_8">
     <g id="line2d_35">
      <path d="M 376.044651 241.718125 
L 376.044651 22.318125 
" clip-path="url(#p103345f565)" style="fill: none; stroke-dasharray: 0.8,1.32; stroke-dashoffset: 0; stroke: #b0b0b0; stroke-opacity: 0.5; stroke-width: 0.8"/>
     </g>
     <g id="line2d_36">
      <g>
       <use xlink:href="#med14bb0145" x="376.044651" y="241.718125" style="stroke: #000000; stroke-width: 0.8"/>
      </g>
     </g>
     <g id="text_20">
      <!-- 0 -->
      <g transform="translate(372.863401 256.316563)scale(0.1 -0.1)">
       <use xlink:href="#DejaVuSans-30"/>
      </g>
     </g>
    </g>
    <g id="xtick_9">
     <g id="line2d_37">
      <path d="M 421.562387 241.718125 
L 421.562387 22.318125 
" clip-path="url(#p103345f565)" style="fill: none; stroke-dasharray: 0.8,1.32; stroke-dashoffset: 0; stroke: #b0b0b0; stroke-opacity: 0.5; stroke-width: 0.8"/>
     </g>
     <g id="line2d_38">
      <g>
       <use xlink:href="#med14bb0145" x="421.562387" y="241.718125" style="stroke: #000000; stroke-width: 0.8"/>
      </g>
     </g>
     <g id="text_21">
      <!-- 20 -->
      <g transform="translate(415.199887 256.316563)scale(0.1 -0.1)">
       <use xlink:href="#DejaVuSans-32"/>
       <use xlink:href="#DejaVuSans-30" x="63.623047"/>
      </g>
     </g>
    </g>
    <g id="xtick_10">
     <g id="line2d_39">
      <path d="M 467.080123 241.718125 
L 467.080123 22.318125 
" clip-path="url(#p103345f565)" style="fill: none; stroke-dasharray: 0.8,1.32; stroke-dashoffset: 0; stroke: #b0b0b0; stroke-opacity: 0.5; stroke-width: 0.8"/>
     </g>
     <g id="line2d_40">
      <g>
       <use xlink:href="#med14bb0145" x="467.080123" y="241.718125" style="stroke: #000000; stroke-width: 0.8"/>
      </g>
     </g>
     <g id="text_22">
      <!-- 40 -->
      <g transform="translate(460.717623 256.316563)scale(0.1 -0.1)">
       <use xlink:href="#DejaVuSans-34"/>
       <use xlink:href="#DejaVuSans-30" x="63.623047"/>
      </g>
     </g>
    </g>
    <g id="xtick_11">
     <g id="line2d_41">
      <path d="M 512.597859 241.718125 
L 512.597859 22.318125 
" clip-path="url(#p103345f565)" style="fill: none; stroke-dasharray: 0.8,1.32; stroke-dashoffset: 0; stroke: #b0b0b0; stroke-opacity: 0.5; stroke-width: 0.8"/>
     </g>
     <g id="line2d_42">
      <g>
       <use xlink:href="#med14bb0145" x="512.597859" y="241.718125" style="stroke: #000000; stroke-width: 0.8"/>
      </g>
     </g>
     <g id="text_23">
      <!-- 60 -->
      <g transform="translate(506.235359 256.316563)scale(0.1 -0.1)">
       <use xlink:href="#DejaVuSans-36"/>
       <use xlink:href="#DejaVuSans-30" x="63.623047"/>
      </g>
     </g>
    </g>
    <g id="xtick_12">
     <g id="line2d_43">
      <path d="M 558.115595 241.718125 
L 558.115595 22.318125 
" clip-path="url(#p103345f565)" style="fill: none; stroke-dasharray: 0.8,1.32; stroke-dashoffset: 0; stroke: #b0b0b0; stroke-opacity: 0.5; stroke-width: 0.8"/>
     </g>
     <g id="line2d_44">
      <g>
       <use xlink:href="#med14bb0145" x="558.115595" y="241.718125" style="stroke: #000000; stroke-width: 0.8"/>
      </g>
     </g>
     <g id="text_24">
      <!-- 80 -->
      <g transform="translate(551.753095 256.316563)scale(0.1 -0.1)">
       <use xlink:href="#DejaVuSans-38"/>
       <use xlink:href="#DejaVuSans-30" x="63.623047"/>
      </g>
     </g>
    </g>
    <g id="xtick_13">
     <g id="line2d_45">
      <path d="M 603.633331 241.718125 
L 603.633331 22.318125 
" clip-path="url(#p103345f565)" style="fill: none; stroke-dasharray: 0.8,1.32; stroke-dashoffset: 0; stroke: #b0b0b0; stroke-opacity: 0.5; stroke-width: 0.8"/>
     </g>
     <g id="line2d_46">
      <g>
       <use xlink:href="#med14bb0145" x="603.633331" y="241.718125" style="stroke: #000000; stroke-width: 0.8"/>
      </g>
     </g>
     <g id="text_25">
      <!-- 100 -->
      <g transform="translate(594.089581 256.316563)scale(0.1 -0.1)">
       <use xlink:href="#DejaVuSans-31"/>
       <use xlink:href="#DejaVuSans-30" x="63.623047"/>
       <use xlink:href="#DejaVuSans-30" x="127.246094"/>
      </g>
     </g>
    </g>
    <g id="xtick_14">
     <g id="line2d_47">
      <path d="M 649.151067 241.718125 
L 649.151067 22.318125 
" clip-path="url(#p103345f565)" style="fill: none; stroke-dasharray: 0.8,1.32; stroke-dashoffset: 0; stroke: #b0b0b0; stroke-opacity: 0.5; stroke-width: 0.8"/>
     </g>
     <g id="line2d_48">
      <g>
       <use xlink:href="#med14bb0145" x="649.151067" y="241.718125" style="stroke: #000000; stroke-width: 0.8"/>
      </g>
     </g>
     <g id="text_26">
      <!-- 120 -->
      <g transform="translate(639.607317 256.316563)scale(0.1 -0.1)">
       <use xlink:href="#DejaVuSans-31"/>
       <use xlink:href="#DejaVuSans-32" x="63.623047"/>
       <use xlink:href="#DejaVuSans-30" x="127.246094"/>
      </g>
     </g>
    </g>
    <g id="text_27">
     <!-- Communication rounds -->
     <g transform="translate(453.343509 269.994688)scale(0.1 -0.1)">
      <use xlink:href="#DejaVuSans-43"/>
      <use xlink:href="#DejaVuSans-6f" x="69.824219"/>
      <use xlink:href="#DejaVuSans-6d" x="131.005859"/>
      <use xlink:href="#DejaVuSans-6d" x="228.417969"/>
      <use xlink:href="#DejaVuSans-75" x="325.830078"/>
      <use xlink:href="#DejaVuSans-6e" x="389.208984"/>
      <use xlink:href="#DejaVuSans-69" x="452.587891"/>
      <use xlink:href="#DejaVuSans-63" x="480.371094"/>
      <use xlink:href="#DejaVuSans-61" x="535.351562"/>
      <use xlink:href="#DejaVuSans-74" x="596.630859"/>
      <use xlink:href="#DejaVuSans-69" x="635.839844"/>
      <use xlink:href="#DejaVuSans-6f" x="663.623047"/>
      <use xlink:href="#DejaVuSans-6e" x="724.804688"/>
      <use xlink:href="#DejaVuSans-20" x="788.183594"/>
      <use xlink:href="#DejaVuSans-72" x="819.970703"/>
      <use xlink:href="#DejaVuSans-6f" x="858.833984"/>
      <use xlink:href="#DejaVuSans-75" x="920.015625"/>
      <use xlink:href="#DejaVuSans-6e" x="983.394531"/>
      <use xlink:href="#DejaVuSans-64" x="1046.773438"/>
      <use xlink:href="#DejaVuSans-73" x="1110.25"/>
     </g>
    </g>
   </g>
   <g id="matplotlib.axis_4">
    <g id="ytick_7">
     <g id="line2d_49">
      <path d="M 362.503125 227.640958 
L 660.416706 227.640958 
" clip-path="url(#p103345f565)" style="fill: none; stroke-dasharray: 0.8,1.32; stroke-dashoffset: 0; stroke: #b0b0b0; stroke-opacity: 0.5; stroke-width: 0.8"/>
     </g>
     <g id="line2d_50">
      <g>
       <use xlink:href="#mda0c0fffe9" x="362.503125" y="227.640958" style="stroke: #000000; stroke-width: 0.8"/>
      </g>
     </g>
     <g id="text_28">
      <!-- 0.3 -->
      <g transform="translate(339.6 231.440177)scale(0.1 -0.1)">
       <use xlink:href="#DejaVuSans-30"/>
       <use xlink:href="#DejaVuSans-2e" x="63.623047"/>
       <use xlink:href="#DejaVuSans-33" x="95.410156"/>
      </g>
     </g>
    </g>
    <g id="ytick_8">
     <g id="line2d_51">
      <path d="M 362.503125 192.257856 
L 660.416706 192.257856 
" clip-path="url(#p103345f565)" style="fill: none; stroke-dasharray: 0.8,1.32; stroke-dashoffset: 0; stroke: #b0b0b0; stroke-opacity: 0.5; stroke-width: 0.8"/>
     </g>
     <g id="line2d_52">
      <g>
       <use xlink:href="#mda0c0fffe9" x="362.503125" y="192.257856" style="stroke: #000000; stroke-width: 0.8"/>
      </g>
     </g>
     <g id="text_29">
      <!-- 0.4 -->
      <g transform="translate(339.6 196.057075)scale(0.1 -0.1)">
       <use xlink:href="#DejaVuSans-30"/>
       <use xlink:href="#DejaVuSans-2e" x="63.623047"/>
       <use xlink:href="#DejaVuSans-34" x="95.410156"/>
      </g>
     </g>
    </g>
    <g id="ytick_9">
     <g id="line2d_53">
      <path d="M 362.503125 156.874754 
L 660.416706 156.874754 
" clip-path="url(#p103345f565)" style="fill: none; stroke-dasharray: 0.8,1.32; stroke-dashoffset: 0; stroke: #b0b0b0; stroke-opacity: 0.5; stroke-width: 0.8"/>
     </g>
     <g id="line2d_54">
      <g>
       <use xlink:href="#mda0c0fffe9" x="362.503125" y="156.874754" style="stroke: #000000; stroke-width: 0.8"/>
      </g>
     </g>
     <g id="text_30">
      <!-- 0.5 -->
      <g transform="translate(339.6 160.673973)scale(0.1 -0.1)">
       <use xlink:href="#DejaVuSans-30"/>
       <use xlink:href="#DejaVuSans-2e" x="63.623047"/>
       <use xlink:href="#DejaVuSans-35" x="95.410156"/>
      </g>
     </g>
    </g>
    <g id="ytick_10">
     <g id="line2d_55">
      <path d="M 362.503125 121.491652 
L 660.416706 121.491652 
" clip-path="url(#p103345f565)" style="fill: none; stroke-dasharray: 0.8,1.32; stroke-dashoffset: 0; stroke: #b0b0b0; stroke-opacity: 0.5; stroke-width: 0.8"/>
     </g>
     <g id="line2d_56">
      <g>
       <use xlink:href="#mda0c0fffe9" x="362.503125" y="121.491652" style="stroke: #000000; stroke-width: 0.8"/>
      </g>
     </g>
     <g id="text_31">
      <!-- 0.6 -->
      <g transform="translate(339.6 125.290871)scale(0.1 -0.1)">
       <use xlink:href="#DejaVuSans-30"/>
       <use xlink:href="#DejaVuSans-2e" x="63.623047"/>
       <use xlink:href="#DejaVuSans-36" x="95.410156"/>
      </g>
     </g>
    </g>
    <g id="ytick_11">
     <g id="line2d_57">
      <path d="M 362.503125 86.10855 
L 660.416706 86.10855 
" clip-path="url(#p103345f565)" style="fill: none; stroke-dasharray: 0.8,1.32; stroke-dashoffset: 0; stroke: #b0b0b0; stroke-opacity: 0.5; stroke-width: 0.8"/>
     </g>
     <g id="line2d_58">
      <g>
       <use xlink:href="#mda0c0fffe9" x="362.503125" y="86.10855" style="stroke: #000000; stroke-width: 0.8"/>
      </g>
     </g>
     <g id="text_32">
      <!-- 0.7 -->
      <g transform="translate(339.6 89.907769)scale(0.1 -0.1)">
       <use xlink:href="#DejaVuSans-30"/>
       <use xlink:href="#DejaVuSans-2e" x="63.623047"/>
       <use xlink:href="#DejaVuSans-37" x="95.410156"/>
      </g>
     </g>
    </g>
    <g id="ytick_12">
     <g id="line2d_59">
      <path d="M 362.503125 50.725448 
L 660.416706 50.725448 
" clip-path="url(#p103345f565)" style="fill: none; stroke-dasharray: 0.8,1.32; stroke-dashoffset: 0; stroke: #b0b0b0; stroke-opacity: 0.5; stroke-width: 0.8"/>
     </g>
     <g id="line2d_60">
      <g>
       <use xlink:href="#mda0c0fffe9" x="362.503125" y="50.725448" style="stroke: #000000; stroke-width: 0.8"/>
      </g>
     </g>
     <g id="text_33">
      <!-- 0.8 -->
      <g transform="translate(339.6 54.524667)scale(0.1 -0.1)">
       <use xlink:href="#DejaVuSans-30"/>
       <use xlink:href="#DejaVuSans-2e" x="63.623047"/>
       <use xlink:href="#DejaVuSans-38" x="95.410156"/>
      </g>
     </g>
    </g>
   </g>
   <g id="line2d_61">
    <path d="M 376.044651 229.693178 
L 378.320538 212.178542 
L 380.596425 178.104615 
L 382.872312 143.075344 
L 385.148199 147.745914 
L 387.424085 128.391357 
L 389.699972 119.262517 
L 391.975859 101.747881 
L 394.251746 80.164189 
L 396.527633 82.00411 
L 398.803519 78.288885 
L 401.079406 74.92749 
L 403.355293 65.444819 
L 405.63118 59.111244 
L 407.907067 51.857708 
L 410.182953 56.669809 
L 412.45884 44.92262 
L 414.734727 44.391873 
L 417.010614 52.388454 
L 419.286501 47.010223 
L 421.562387 47.364054 
L 423.838274 44.391873 
L 426.114161 44.781087 
L 428.390048 40.287433 
L 430.665934 44.002659 
L 432.941821 41.030478 
L 435.217708 42.8704 
L 437.493595 37.138337 
L 439.769482 41.773524 
L 442.045368 42.905783 
L 444.321255 39.367473 
L 446.597142 46.656392 
L 448.873029 43.436529 
L 451.148916 39.544388 
L 453.424802 41.631991 
L 455.700689 39.544388 
L 457.976576 36.182993 
L 460.252463 38.058298 
L 462.52835 38.235213 
L 464.804236 41.030478 
L 467.080123 37.881382 
L 469.35601 41.207394 
L 471.631897 41.596608 
L 473.907784 36.749123 
L 476.18367 38.235213 
L 478.459557 38.978259 
L 480.735444 37.845999 
L 483.011331 35.616864 
L 485.287218 52.211539 
L 487.563104 39.544388 
L 489.838991 38.624428 
L 492.114878 38.978259 
L 494.390765 41.950439 
L 496.666651 36.359909 
L 498.942538 42.375036 
L 501.218425 38.447512 
L 503.494312 37.845999 
L 505.770199 36.359909 
L 508.046085 37.138337 
L 510.321972 35.263033 
L 512.597859 34.343072 
L 514.873746 44.92262 
L 517.149633 42.516569 
L 519.425519 33.953858 
L 521.701406 38.058298 
L 523.977293 38.058298 
L 526.25318 38.412129 
L 528.529067 36.395292 
L 530.804953 36.395292 
L 533.08084 38.801343 
L 535.356727 36.926039 
L 537.632614 38.801343 
L 539.908501 39.544388 
L 542.184387 38.447512 
L 544.460274 44.781087 
L 546.736161 37.492168 
L 549.012048 45.877963 
L 551.287935 33.953858 
L 553.563821 39.721304 
L 555.839708 39.155174 
L 558.115595 34.873819 
L 560.391482 37.315253 
L 562.667369 37.881382 
L 564.943255 41.419693 
L 567.219142 37.845999 
L 569.495029 37.704467 
L 571.770916 37.669084 
L 574.046802 38.058298 
L 576.322689 40.676647 
L 578.598576 35.829162 
L 580.874463 36.218377 
L 583.15035 38.589044 
L 585.426236 39.721304 
L 587.702123 36.359909 
L 589.97801 38.058298 
L 592.253897 45.701048 
L 594.529784 35.263033 
L 596.80567 49.062443 
L 599.081557 34.343072 
L 601.357444 40.888946 
L 603.633331 32.290852 
L 605.909218 45.488749 
L 608.185104 38.235213 
L 610.460991 35.829162 
L 612.736878 35.439948 
L 615.012765 32.467768 
L 617.288652 37.315253 
L 619.564538 37.704467 
L 621.840425 36.395292 
L 624.116312 35.829162 
L 626.392199 35.829162 
L 628.668086 36.006078 
L 630.943972 39.898219 
L 633.219859 40.853563 
L 635.495746 36.182993 
L 637.771633 36.006078 
L 640.04752 37.704467 
L 642.323406 37.492168 
L 644.599293 38.235213 
L 646.87518 39.367473 
" clip-path="url(#p103345f565)" style="fill: none; stroke: #000000; stroke-linecap: square"/>
   </g>
   <g id="line2d_62">
    <path d="M 376.044651 218.299819 
L 378.320538 185.57045 
L 380.596425 155.91941 
L 382.872312 147.781297 
L 385.148199 125.206878 
L 387.424085 117.953342 
L 389.699972 96.935779 
L 391.975859 96.723481 
L 394.251746 60.951165 
L 396.527633 85.18859 
L 398.803519 80.907234 
L 401.079406 116.290336 
L 403.355293 69.726174 
L 405.63118 48.673228 
L 407.907067 59.111244 
L 410.182953 58.1559 
L 412.45884 49.416274 
L 414.734727 47.187138 
L 417.010614 47.540969 
L 419.286501 52.777668 
L 421.562387 44.391873 
L 423.838274 45.488749 
L 426.114161 48.284014 
L 428.390048 39.898219 
L 430.665934 42.516569 
L 432.941821 46.797924 
L 435.217708 41.207394 
L 437.493595 40.676647 
L 439.769482 40.499732 
L 442.045368 43.825743 
L 444.321255 45.701048 
L 446.597142 40.464349 
L 448.873029 44.179575 
L 451.148916 37.492168 
L 453.424802 39.367473 
L 455.700689 38.235213 
L 457.976576 38.801343 
L 460.252463 37.138337 
L 462.52835 38.624428 
L 464.804236 39.898219 
L 467.080123 59.288159 
L 469.35601 44.92262 
L 471.631897 42.728867 
L 473.907784 36.006078 
L 476.18367 35.829162 
L 478.459557 37.704467 
L 480.735444 37.704467 
L 483.011331 36.395292 
L 485.287218 44.391873 
L 487.563104 42.516569 
L 489.838991 44.568789 
L 492.114878 41.030478 
L 494.390765 60.420418 
L 496.666651 36.218377 
L 498.942538 35.086117 
L 501.218425 34.873819 
L 503.494312 34.873819 
L 505.770199 34.909202 
L 508.046085 41.419693 
L 510.321972 41.950439 
L 512.597859 36.572208 
L 514.873746 35.829162 
L 517.149633 39.367473 
L 519.425519 40.287433 
L 521.701406 44.214958 
L 523.977293 37.492168 
L 526.25318 40.676647 
L 528.529067 42.728867 
L 530.804953 38.058298 
L 533.08084 49.239358 
L 535.356727 37.492168 
L 537.632614 40.641264 
L 539.908501 41.419693 
L 542.184387 37.704467 
L 544.460274 39.367473 
L 546.736161 38.624428 
L 549.012048 38.235213 
L 551.287935 39.190557 
L 553.563821 36.749123 
L 555.839708 45.488749 
L 558.115595 37.315253 
L 560.391482 41.631991 
L 562.667369 46.267178 
L 564.943255 40.499732 
L 567.219142 44.745704 
L 569.495029 36.572208 
L 571.770916 37.315253 
L 574.046802 35.439948 
L 576.322689 40.110518 
L 578.598576 48.708612 
L 580.874463 37.845999 
L 583.15035 40.464349 
L 585.426236 43.471912 
L 587.702123 32.856982 
L 589.97801 39.721304 
L 592.253897 36.749123 
L 594.529784 44.568789 
L 596.80567 38.624428 
L 599.081557 37.881382 
L 601.357444 43.825743 
L 603.633331 37.881382 
L 605.909218 41.773524 
L 608.185104 41.773524 
L 610.460991 39.544388 
L 612.736878 38.058298 
L 615.012765 35.439948 
L 617.288652 38.978259 
L 619.564538 34.343072 
L 621.840425 40.676647 
L 624.116312 40.676647 
L 626.392199 36.395292 
L 628.668086 34.166157 
L 630.943972 40.676647 
L 633.219859 36.218377 
L 635.495746 38.624428 
L 637.771633 47.930183 
L 640.04752 37.881382 
L 642.323406 32.644683 
L 644.599293 38.801343 
L 646.87518 37.492168 
" clip-path="url(#p103345f565)" style="fill: none; stroke: #2a6aa8; stroke-linecap: square"/>
   </g>
   <g id="line2d_63">
    <path d="M 376.044651 201.563612 
L 378.320538 216.459898 
L 380.596425 185.181236 
L 382.872312 172.691001 
L 385.148199 183.659762 
L 387.424085 152.94723 
L 389.699972 110.876722 
L 391.975859 104.153932 
L 394.251746 108.824502 
L 396.527633 86.497764 
L 398.803519 120.925523 
L 401.079406 93.574385 
L 403.355293 78.642716 
L 405.63118 60.066587 
L 407.907067 70.858433 
L 410.182953 76.024366 
L 412.45884 60.951165 
L 414.734727 51.468494 
L 417.010614 51.99924 
L 419.286501 63.569514 
L 421.562387 52.600753 
L 423.838274 62.437255 
L 426.114161 79.774975 
L 428.390048 53.520713 
L 430.665934 46.267178 
L 432.941821 78.4658 
L 435.217708 46.40871 
L 437.493595 45.524132 
L 439.769482 45.877963 
L 442.045368 52.777668 
L 444.321255 59.111244 
L 446.597142 49.451657 
L 448.873029 45.524132 
L 451.148916 43.825743 
L 453.424802 69.372343 
L 455.700689 49.770105 
L 457.976576 95.80352 
L 460.252463 44.745704 
L 462.52835 54.829888 
L 464.804236 41.242777 
L 467.080123 55.219102 
L 469.35601 43.259614 
L 471.631897 42.339653 
L 473.907784 42.905783 
L 476.18367 46.267178 
L 478.459557 50.336234 
L 480.735444 49.239358 
L 483.011331 42.905783 
L 485.287218 45.311834 
L 487.563104 45.701048 
L 489.838991 54.61759 
L 492.114878 41.985822 
L 494.390765 59.854289 
L 496.666651 43.259614 
L 498.942538 48.850144 
L 501.218425 46.797924 
L 503.494312 44.002659 
L 505.770199 44.179575 
L 508.046085 42.516569 
L 510.321972 43.259614 
L 512.597859 38.447512 
L 514.873746 43.082698 
L 517.149633 43.648828 
L 519.425519 44.568789 
L 521.701406 45.488749 
L 523.977293 49.027059 
L 526.25318 47.717885 
L 528.529067 44.391873 
L 530.804953 40.464349 
L 533.08084 40.110518 
L 535.356727 50.725448 
L 537.632614 44.391873 
L 539.908501 44.958003 
L 542.184387 42.516569 
L 544.460274 42.516569 
L 546.736161 43.648828 
L 549.012048 44.391873 
L 551.287935 56.882108 
L 553.563821 45.524132 
L 555.839708 44.568789 
L 558.115595 45.134918 
L 560.391482 42.728867 
L 562.667369 60.20812 
L 564.943255 40.110518 
L 567.219142 50.725448 
L 569.495029 46.656392 
L 571.770916 49.805488 
L 574.046802 51.291578 
L 576.322689 38.978259 
L 578.598576 40.464349 
L 580.874463 44.391873 
L 583.15035 42.375036 
L 585.426236 41.207394 
L 587.702123 38.978259 
L 589.97801 52.034623 
L 592.253897 46.621009 
L 594.529784 50.902364 
L 596.80567 36.961422 
L 599.081557 53.131499 
L 601.357444 42.905783 
L 603.633331 44.391873 
L 605.909218 41.030478 
L 608.185104 38.235213 
L 610.460991 36.006078 
L 612.736878 43.648828 
L 615.012765 44.179575 
L 617.288652 40.287433 
L 619.564538 46.797924 
L 621.840425 41.985822 
L 624.116312 58.368198 
L 626.392199 42.728867 
L 628.668086 43.082698 
L 630.943972 39.898219 
L 633.219859 43.082698 
L 635.495746 43.825743 
L 637.771633 44.92262 
L 640.04752 44.214958 
L 642.323406 42.905783 
L 644.599293 38.801343 
L 646.87518 37.138337 
" clip-path="url(#p103345f565)" style="fill: none; stroke: #f79f1e; stroke-linecap: square"/>
   </g>
   <g id="line2d_64">
    <path d="M 376.044651 231.745398 
L 378.320538 184.615106 
L 380.596425 204.925006 
L 382.872312 167.701983 
L 385.148199 119.262517 
L 387.424085 136.564854 
L 389.699972 111.053637 
L 391.975859 98.032656 
L 394.251746 86.285466 
L 396.527633 79.421144 
L 398.803519 93.008255 
L 401.079406 80.730319 
L 403.355293 71.566095 
L 405.63118 68.240084 
L 407.907067 77.192009 
L 410.182953 64.489475 
L 412.45884 61.340379 
L 414.734727 68.416999 
L 417.010614 50.548533 
L 419.286501 58.368198 
L 421.562387 58.898945 
L 423.838274 50.548533 
L 426.114161 54.263759 
L 428.390048 43.436529 
L 430.665934 68.77083 
L 432.941821 42.905783 
L 435.217708 57.802069 
L 437.493595 53.343798 
L 439.769482 54.476057 
L 442.045368 39.190557 
L 444.321255 63.781813 
L 446.597142 48.673228 
L 448.873029 42.339653 
L 451.148916 45.170301 
L 453.424802 53.697629 
L 455.700689 47.540969 
L 457.976576 53.343798 
L 460.252463 50.725448 
L 462.52835 49.593189 
L 464.804236 48.673228 
L 467.080123 46.621009 
L 469.35601 49.982403 
L 471.631897 87.028511 
L 473.907784 46.97484 
L 476.18367 41.419693 
L 478.459557 61.552678 
L 480.735444 47.930183 
L 483.011331 43.082698 
L 485.287218 36.572208 
L 487.563104 37.881382 
L 489.838991 40.853563 
L 492.114878 44.002659 
L 494.390765 46.267178 
L 496.666651 48.107099 
L 498.942538 48.107099 
L 501.218425 38.235213 
L 503.494312 57.58977 
L 505.770199 47.540969 
L 508.046085 36.182993 
L 510.321972 42.905783 
L 512.597859 53.874544 
L 514.873746 44.002659 
L 517.149633 38.801343 
L 519.425519 38.978259 
L 521.701406 40.641264 
L 523.977293 38.801343 
L 526.25318 41.207394 
L 528.529067 41.985822 
L 530.804953 49.027059 
L 533.08084 41.242777 
L 535.356727 47.753268 
L 537.632614 39.933602 
L 539.908501 50.336234 
L 542.184387 40.853563 
L 544.460274 47.930183 
L 546.736161 42.728867 
L 549.012048 81.614896 
L 551.287935 56.315978 
L 553.563821 32.290852 
L 555.839708 46.054879 
L 558.115595 46.444093 
L 560.391482 41.950439 
L 562.667369 41.985822 
L 564.943255 43.471912 
L 567.219142 43.259614 
L 569.495029 55.006804 
L 571.770916 54.829888 
L 574.046802 37.881382 
L 576.322689 41.419693 
L 578.598576 38.624428 
L 580.874463 41.242777 
L 583.15035 38.235213 
L 585.426236 38.058298 
L 587.702123 39.721304 
L 589.97801 48.284014 
L 592.253897 38.624428 
L 594.529784 43.471912 
L 596.80567 34.873819 
L 599.081557 32.467768 
L 601.357444 38.058298 
L 603.633331 38.447512 
L 605.909218 42.127355 
L 608.185104 37.315253 
L 610.460991 50.159319 
L 612.736878 43.436529 
L 615.012765 49.593189 
L 617.288652 39.367473 
L 619.564538 46.267178 
L 621.840425 35.439948 
L 624.116312 41.242777 
L 626.392199 37.669084 
L 628.668086 40.287433 
L 630.943972 38.235213 
L 633.219859 43.082698 
L 635.495746 41.596608 
L 637.771633 37.315253 
L 640.04752 38.058298 
L 642.323406 38.624428 
L 644.599293 33.600027 
L 646.87518 38.978259 
" clip-path="url(#p103345f565)" style="fill: none; stroke: #f22b00; stroke-linecap: square"/>
   </g>
   <g id="patch_9">
    <path d="M 362.503125 241.718125 
L 362.503125 22.318125 
" style="fill: none; stroke: #000000; stroke-width: 0.8; stroke-linejoin: miter; stroke-linecap: square"/>
   </g>
   <g id="patch_10">
    <path d="M 660.416706 241.718125 
L 660.416706 22.318125 
" style="fill: none; stroke: #000000; stroke-width: 0.8; stroke-linejoin: miter; stroke-linecap: square"/>
   </g>
   <g id="patch_11">
    <path d="M 362.503125 241.718125 
L 660.416706 241.718125 
" style="fill: none; stroke: #000000; stroke-width: 0.8; stroke-linejoin: miter; stroke-linecap: square"/>
   </g>
   <g id="patch_12">
    <path d="M 362.503125 22.318125 
L 660.416706 22.318125 
" style="fill: none; stroke: #000000; stroke-width: 0.8; stroke-linejoin: miter; stroke-linecap: square"/>
   </g>
   <g id="text_34">
    <!-- Clustered-Common -->
    <g transform="translate(453.610541 16.318125)scale(0.12 -0.12)">
     <defs>
      <path id="DejaVuSans-6c" d="M 603 4863 
L 1178 4863 
L 1178 0 
L 603 0 
L 603 4863 
z
" transform="scale(0.015625)"/>
      <path id="DejaVuSans-65" d="M 3597 1894 
L 3597 1613 
L 953 1613 
Q 991 1019 1311 708 
Q 1631 397 2203 397 
Q 2534 397 2845 478 
Q 3156 559 3463 722 
L 3463 178 
Q 3153 47 2828 -22 
Q 2503 -91 2169 -91 
Q 1331 -91 842 396 
Q 353 884 353 1716 
Q 353 2575 817 3079 
Q 1281 3584 2069 3584 
Q 2775 3584 3186 3129 
Q 3597 2675 3597 1894 
z
M 3022 2063 
Q 3016 2534 2758 2815 
Q 2500 3097 2075 3097 
Q 1594 3097 1305 2825 
Q 1016 2553 972 2059 
L 3022 2063 
z
" transform="scale(0.015625)"/>
     </defs>
     <use xlink:href="#DejaVuSans-43"/>
     <use xlink:href="#DejaVuSans-6c" x="69.824219"/>
     <use xlink:href="#DejaVuSans-75" x="97.607422"/>
     <use xlink:href="#DejaVuSans-73" x="160.986328"/>
     <use xlink:href="#DejaVuSans-74" x="213.085938"/>
     <use xlink:href="#DejaVuSans-65" x="252.294922"/>
     <use xlink:href="#DejaVuSans-72" x="313.818359"/>
     <use xlink:href="#DejaVuSans-65" x="352.681641"/>
     <use xlink:href="#DejaVuSans-64" x="414.205078"/>
     <use xlink:href="#DejaVuSans-2d" x="477.681641"/>
     <use xlink:href="#DejaVuSans-43" x="513.765625"/>
     <use xlink:href="#DejaVuSans-6f" x="583.589844"/>
     <use xlink:href="#DejaVuSans-6d" x="644.771484"/>
     <use xlink:href="#DejaVuSans-6d" x="742.183594"/>
     <use xlink:href="#DejaVuSans-6f" x="839.595703"/>
     <use xlink:href="#DejaVuSans-6e" x="900.777344"/>
    </g>
   </g>
   <g id="legend_2">
    <g id="patch_13">
     <path d="M 565.941706 236.718125 
L 653.416706 236.718125 
Q 655.416706 236.718125 655.416706 234.718125 
L 655.416706 177.005625 
Q 655.416706 175.005625 653.416706 175.005625 
L 565.941706 175.005625 
Q 563.941706 175.005625 563.941706 177.005625 
L 563.941706 234.718125 
Q 563.941706 236.718125 565.941706 236.718125 
z
" style="fill: #ffffff; opacity: 0.8; stroke: #cccccc; stroke-linejoin: miter"/>
    </g>
    <g id="line2d_65">
     <path d="M 567.941706 183.104063 
L 577.941706 183.104063 
L 587.941706 183.104063 
" style="fill: none; stroke: #000000; stroke-linecap: square"/>
    </g>
    <g id="text_35">
     <!-- CharCNN-3 -->
     <g transform="translate(595.941706 186.604063)scale(0.1 -0.1)">
      <use xlink:href="#DejaVuSans-43"/>
      <use xlink:href="#DejaVuSans-68" x="69.824219"/>
      <use xlink:href="#DejaVuSans-61" x="133.203125"/>
      <use xlink:href="#DejaVuSans-72" x="194.482422"/>
      <use xlink:href="#DejaVuSans-43" x="235.595703"/>
      <use xlink:href="#DejaVuSans-4e" x="305.419922"/>
      <use xlink:href="#DejaVuSans-4e" x="380.224609"/>
      <use xlink:href="#DejaVuSans-2d" x="455.029297"/>
      <use xlink:href="#DejaVuSans-33" x="491.113281"/>
     </g>
    </g>
    <g id="line2d_66">
     <path d="M 567.941706 197.782188 
L 577.941706 197.782188 
L 587.941706 197.782188 
" style="fill: none; stroke: #2a6aa8; stroke-linecap: square"/>
    </g>
    <g id="text_36">
     <!-- CharCNN-4 -->
     <g transform="translate(595.941706 201.282188)scale(0.1 -0.1)">
      <use xlink:href="#DejaVuSans-43"/>
      <use xlink:href="#DejaVuSans-68" x="69.824219"/>
      <use xlink:href="#DejaVuSans-61" x="133.203125"/>
      <use xlink:href="#DejaVuSans-72" x="194.482422"/>
      <use xlink:href="#DejaVuSans-43" x="235.595703"/>
      <use xlink:href="#DejaVuSans-4e" x="305.419922"/>
      <use xlink:href="#DejaVuSans-4e" x="380.224609"/>
      <use xlink:href="#DejaVuSans-2d" x="455.029297"/>
      <use xlink:href="#DejaVuSans-34" x="491.113281"/>
     </g>
    </g>
    <g id="line2d_67">
     <path d="M 567.941706 212.460313 
L 577.941706 212.460313 
L 587.941706 212.460313 
" style="fill: none; stroke: #f79f1e; stroke-linecap: square"/>
    </g>
    <g id="text_37">
     <!-- CharCNN-5 -->
     <g transform="translate(595.941706 215.960313)scale(0.1 -0.1)">
      <use xlink:href="#DejaVuSans-43"/>
      <use xlink:href="#DejaVuSans-68" x="69.824219"/>
      <use xlink:href="#DejaVuSans-61" x="133.203125"/>
      <use xlink:href="#DejaVuSans-72" x="194.482422"/>
      <use xlink:href="#DejaVuSans-43" x="235.595703"/>
      <use xlink:href="#DejaVuSans-4e" x="305.419922"/>
      <use xlink:href="#DejaVuSans-4e" x="380.224609"/>
      <use xlink:href="#DejaVuSans-2d" x="455.029297"/>
      <use xlink:href="#DejaVuSans-35" x="491.113281"/>
     </g>
    </g>
    <g id="line2d_68">
     <path d="M 567.941706 227.138438 
L 577.941706 227.138438 
L 587.941706 227.138438 
" style="fill: none; stroke: #f22b00; stroke-linecap: square"/>
    </g>
    <g id="text_38">
     <!-- CharCNN-6 -->
     <g transform="translate(595.941706 230.638438)scale(0.1 -0.1)">
      <use xlink:href="#DejaVuSans-43"/>
      <use xlink:href="#DejaVuSans-68" x="69.824219"/>
      <use xlink:href="#DejaVuSans-61" x="133.203125"/>
      <use xlink:href="#DejaVuSans-72" x="194.482422"/>
      <use xlink:href="#DejaVuSans-43" x="235.595703"/>
      <use xlink:href="#DejaVuSans-4e" x="305.419922"/>
      <use xlink:href="#DejaVuSans-4e" x="380.224609"/>
      <use xlink:href="#DejaVuSans-2d" x="455.029297"/>
      <use xlink:href="#DejaVuSans-36" x="491.113281"/>
     </g>
    </g>
   </g>
  </g>
  <g id="axes_3">
   <g id="patch_14">
    <path d="M 694.903125 241.718125 
L 992.816706 241.718125 
L 992.816706 22.318125 
L 694.903125 22.318125 
z
" style="fill: #ffffff"/>
   </g>
   <g id="matplotlib.axis_5">
    <g id="xtick_15">
     <g id="line2d_69">
      <path d="M 708.444651 241.718125 
L 708.444651 22.318125 
" clip-path="url(#p396d9fbd5d)" style="fill: none; stroke-dasharray: 0.8,1.32; stroke-dashoffset: 0; stroke: #b0b0b0; stroke-opacity: 0.5; stroke-width: 0.8"/>
     </g>
     <g id="line2d_70">
      <g>
       <use xlink:href="#med14bb0145" x="708.444651" y="241.718125" style="stroke: #000000; stroke-width: 0.8"/>
      </g>
     </g>
     <g id="text_39">
      <!-- 0 -->
      <g transform="translate(705.263401 256.316563)scale(0.1 -0.1)">
       <use xlink:href="#DejaVuSans-30"/>
      </g>
     </g>
    </g>
    <g id="xtick_16">
     <g id="line2d_71">
      <path d="M 753.962387 241.718125 
L 753.962387 22.318125 
" clip-path="url(#p396d9fbd5d)" style="fill: none; stroke-dasharray: 0.8,1.32; stroke-dashoffset: 0; stroke: #b0b0b0; stroke-opacity: 0.5; stroke-width: 0.8"/>
     </g>
     <g id="line2d_72">
      <g>
       <use xlink:href="#med14bb0145" x="753.962387" y="241.718125" style="stroke: #000000; stroke-width: 0.8"/>
      </g>
     </g>
     <g id="text_40">
      <!-- 20 -->
      <g transform="translate(747.599887 256.316563)scale(0.1 -0.1)">
       <use xlink:href="#DejaVuSans-32"/>
       <use xlink:href="#DejaVuSans-30" x="63.623047"/>
      </g>
     </g>
    </g>
    <g id="xtick_17">
     <g id="line2d_73">
      <path d="M 799.480123 241.718125 
L 799.480123 22.318125 
" clip-path="url(#p396d9fbd5d)" style="fill: none; stroke-dasharray: 0.8,1.32; stroke-dashoffset: 0; stroke: #b0b0b0; stroke-opacity: 0.5; stroke-width: 0.8"/>
     </g>
     <g id="line2d_74">
      <g>
       <use xlink:href="#med14bb0145" x="799.480123" y="241.718125" style="stroke: #000000; stroke-width: 0.8"/>
      </g>
     </g>
     <g id="text_41">
      <!-- 40 -->
      <g transform="translate(793.117623 256.316563)scale(0.1 -0.1)">
       <use xlink:href="#DejaVuSans-34"/>
       <use xlink:href="#DejaVuSans-30" x="63.623047"/>
      </g>
     </g>
    </g>
    <g id="xtick_18">
     <g id="line2d_75">
      <path d="M 844.997859 241.718125 
L 844.997859 22.318125 
" clip-path="url(#p396d9fbd5d)" style="fill: none; stroke-dasharray: 0.8,1.32; stroke-dashoffset: 0; stroke: #b0b0b0; stroke-opacity: 0.5; stroke-width: 0.8"/>
     </g>
     <g id="line2d_76">
      <g>
       <use xlink:href="#med14bb0145" x="844.997859" y="241.718125" style="stroke: #000000; stroke-width: 0.8"/>
      </g>
     </g>
     <g id="text_42">
      <!-- 60 -->
      <g transform="translate(838.635359 256.316563)scale(0.1 -0.1)">
       <use xlink:href="#DejaVuSans-36"/>
       <use xlink:href="#DejaVuSans-30" x="63.623047"/>
      </g>
     </g>
    </g>
    <g id="xtick_19">
     <g id="line2d_77">
      <path d="M 890.515595 241.718125 
L 890.515595 22.318125 
" clip-path="url(#p396d9fbd5d)" style="fill: none; stroke-dasharray: 0.8,1.32; stroke-dashoffset: 0; stroke: #b0b0b0; stroke-opacity: 0.5; stroke-width: 0.8"/>
     </g>
     <g id="line2d_78">
      <g>
       <use xlink:href="#med14bb0145" x="890.515595" y="241.718125" style="stroke: #000000; stroke-width: 0.8"/>
      </g>
     </g>
     <g id="text_43">
      <!-- 80 -->
      <g transform="translate(884.153095 256.316563)scale(0.1 -0.1)">
       <use xlink:href="#DejaVuSans-38"/>
       <use xlink:href="#DejaVuSans-30" x="63.623047"/>
      </g>
     </g>
    </g>
    <g id="xtick_20">
     <g id="line2d_79">
      <path d="M 936.033331 241.718125 
L 936.033331 22.318125 
" clip-path="url(#p396d9fbd5d)" style="fill: none; stroke-dasharray: 0.8,1.32; stroke-dashoffset: 0; stroke: #b0b0b0; stroke-opacity: 0.5; stroke-width: 0.8"/>
     </g>
     <g id="line2d_80">
      <g>
       <use xlink:href="#med14bb0145" x="936.033331" y="241.718125" style="stroke: #000000; stroke-width: 0.8"/>
      </g>
     </g>
     <g id="text_44">
      <!-- 100 -->
      <g transform="translate(926.489581 256.316563)scale(0.1 -0.1)">
       <use xlink:href="#DejaVuSans-31"/>
       <use xlink:href="#DejaVuSans-30" x="63.623047"/>
       <use xlink:href="#DejaVuSans-30" x="127.246094"/>
      </g>
     </g>
    </g>
    <g id="xtick_21">
     <g id="line2d_81">
      <path d="M 981.551067 241.718125 
L 981.551067 22.318125 
" clip-path="url(#p396d9fbd5d)" style="fill: none; stroke-dasharray: 0.8,1.32; stroke-dashoffset: 0; stroke: #b0b0b0; stroke-opacity: 0.5; stroke-width: 0.8"/>
     </g>
     <g id="line2d_82">
      <g>
       <use xlink:href="#med14bb0145" x="981.551067" y="241.718125" style="stroke: #000000; stroke-width: 0.8"/>
      </g>
     </g>
     <g id="text_45">
      <!-- 120 -->
      <g transform="translate(972.007317 256.316563)scale(0.1 -0.1)">
       <use xlink:href="#DejaVuSans-31"/>
       <use xlink:href="#DejaVuSans-32" x="63.623047"/>
       <use xlink:href="#DejaVuSans-30" x="127.246094"/>
      </g>
     </g>
    </g>
    <g id="text_46">
     <!-- Communication rounds -->
     <g transform="translate(785.743509 269.994688)scale(0.1 -0.1)">
      <use xlink:href="#DejaVuSans-43"/>
      <use xlink:href="#DejaVuSans-6f" x="69.824219"/>
      <use xlink:href="#DejaVuSans-6d" x="131.005859"/>
      <use xlink:href="#DejaVuSans-6d" x="228.417969"/>
      <use xlink:href="#DejaVuSans-75" x="325.830078"/>
      <use xlink:href="#DejaVuSans-6e" x="389.208984"/>
      <use xlink:href="#DejaVuSans-69" x="452.587891"/>
      <use xlink:href="#DejaVuSans-63" x="480.371094"/>
      <use xlink:href="#DejaVuSans-61" x="535.351562"/>
      <use xlink:href="#DejaVuSans-74" x="596.630859"/>
      <use xlink:href="#DejaVuSans-69" x="635.839844"/>
      <use xlink:href="#DejaVuSans-6f" x="663.623047"/>
      <use xlink:href="#DejaVuSans-6e" x="724.804688"/>
      <use xlink:href="#DejaVuSans-20" x="788.183594"/>
      <use xlink:href="#DejaVuSans-72" x="819.970703"/>
      <use xlink:href="#DejaVuSans-6f" x="858.833984"/>
      <use xlink:href="#DejaVuSans-75" x="920.015625"/>
      <use xlink:href="#DejaVuSans-6e" x="983.394531"/>
      <use xlink:href="#DejaVuSans-64" x="1046.773438"/>
      <use xlink:href="#DejaVuSans-73" x="1110.25"/>
     </g>
    </g>
   </g>
   <g id="matplotlib.axis_6">
    <g id="ytick_13">
     <g id="line2d_83">
      <path d="M 694.903125 217.06448 
L 992.816706 217.06448 
" clip-path="url(#p396d9fbd5d)" style="fill: none; stroke-dasharray: 0.8,1.32; stroke-dashoffset: 0; stroke: #b0b0b0; stroke-opacity: 0.5; stroke-width: 0.8"/>
     </g>
     <g id="line2d_84">
      <g>
       <use xlink:href="#mda0c0fffe9" x="694.903125" y="217.06448" style="stroke: #000000; stroke-width: 0.8"/>
      </g>
     </g>
     <g id="text_47">
      <!-- 0.3 -->
      <g transform="translate(672 220.863699)scale(0.1 -0.1)">
       <use xlink:href="#DejaVuSans-30"/>
       <use xlink:href="#DejaVuSans-2e" x="63.623047"/>
       <use xlink:href="#DejaVuSans-33" x="95.410156"/>
      </g>
     </g>
    </g>
    <g id="ytick_14">
     <g id="line2d_85">
      <path d="M 694.903125 183.849735 
L 992.816706 183.849735 
" clip-path="url(#p396d9fbd5d)" style="fill: none; stroke-dasharray: 0.8,1.32; stroke-dashoffset: 0; stroke: #b0b0b0; stroke-opacity: 0.5; stroke-width: 0.8"/>
     </g>
     <g id="line2d_86">
      <g>
       <use xlink:href="#mda0c0fffe9" x="694.903125" y="183.849735" style="stroke: #000000; stroke-width: 0.8"/>
      </g>
     </g>
     <g id="text_48">
      <!-- 0.4 -->
      <g transform="translate(672 187.648954)scale(0.1 -0.1)">
       <use xlink:href="#DejaVuSans-30"/>
       <use xlink:href="#DejaVuSans-2e" x="63.623047"/>
       <use xlink:href="#DejaVuSans-34" x="95.410156"/>
      </g>
     </g>
    </g>
    <g id="ytick_15">
     <g id="line2d_87">
      <path d="M 694.903125 150.63499 
L 992.816706 150.63499 
" clip-path="url(#p396d9fbd5d)" style="fill: none; stroke-dasharray: 0.8,1.32; stroke-dashoffset: 0; stroke: #b0b0b0; stroke-opacity: 0.5; stroke-width: 0.8"/>
     </g>
     <g id="line2d_88">
      <g>
       <use xlink:href="#mda0c0fffe9" x="694.903125" y="150.63499" style="stroke: #000000; stroke-width: 0.8"/>
      </g>
     </g>
     <g id="text_49">
      <!-- 0.5 -->
      <g transform="translate(672 154.434208)scale(0.1 -0.1)">
       <use xlink:href="#DejaVuSans-30"/>
       <use xlink:href="#DejaVuSans-2e" x="63.623047"/>
       <use xlink:href="#DejaVuSans-35" x="95.410156"/>
      </g>
     </g>
    </g>
    <g id="ytick_16">
     <g id="line2d_89">
      <path d="M 694.903125 117.420244 
L 992.816706 117.420244 
" clip-path="url(#p396d9fbd5d)" style="fill: none; stroke-dasharray: 0.8,1.32; stroke-dashoffset: 0; stroke: #b0b0b0; stroke-opacity: 0.5; stroke-width: 0.8"/>
     </g>
     <g id="line2d_90">
      <g>
       <use xlink:href="#mda0c0fffe9" x="694.903125" y="117.420244" style="stroke: #000000; stroke-width: 0.8"/>
      </g>
     </g>
     <g id="text_50">
      <!-- 0.6 -->
      <g transform="translate(672 121.219463)scale(0.1 -0.1)">
       <use xlink:href="#DejaVuSans-30"/>
       <use xlink:href="#DejaVuSans-2e" x="63.623047"/>
       <use xlink:href="#DejaVuSans-36" x="95.410156"/>
      </g>
     </g>
    </g>
    <g id="ytick_17">
     <g id="line2d_91">
      <path d="M 694.903125 84.205499 
L 992.816706 84.205499 
" clip-path="url(#p396d9fbd5d)" style="fill: none; stroke-dasharray: 0.8,1.32; stroke-dashoffset: 0; stroke: #b0b0b0; stroke-opacity: 0.5; stroke-width: 0.8"/>
     </g>
     <g id="line2d_92">
      <g>
       <use xlink:href="#mda0c0fffe9" x="694.903125" y="84.205499" style="stroke: #000000; stroke-width: 0.8"/>
      </g>
     </g>
     <g id="text_51">
      <!-- 0.7 -->
      <g transform="translate(672 88.004718)scale(0.1 -0.1)">
       <use xlink:href="#DejaVuSans-30"/>
       <use xlink:href="#DejaVuSans-2e" x="63.623047"/>
       <use xlink:href="#DejaVuSans-37" x="95.410156"/>
      </g>
     </g>
    </g>
    <g id="ytick_18">
     <g id="line2d_93">
      <path d="M 694.903125 50.990754 
L 992.816706 50.990754 
" clip-path="url(#p396d9fbd5d)" style="fill: none; stroke-dasharray: 0.8,1.32; stroke-dashoffset: 0; stroke: #b0b0b0; stroke-opacity: 0.5; stroke-width: 0.8"/>
     </g>
     <g id="line2d_94">
      <g>
       <use xlink:href="#mda0c0fffe9" x="694.903125" y="50.990754" style="stroke: #000000; stroke-width: 0.8"/>
      </g>
     </g>
     <g id="text_52">
      <!-- 0.8 -->
      <g transform="translate(672 54.789973)scale(0.1 -0.1)">
       <use xlink:href="#DejaVuSans-30"/>
       <use xlink:href="#DejaVuSans-2e" x="63.623047"/>
       <use xlink:href="#DejaVuSans-38" x="95.410156"/>
      </g>
     </g>
    </g>
   </g>
   <g id="line2d_95">
    <path d="M 708.444651 214.606589 
L 710.720538 217.230554 
L 712.996425 200.257819 
L 715.272312 168.637382 
L 717.548199 153.956464 
L 719.824085 146.948153 
L 722.099972 127.716815 
L 724.375859 118.483116 
L 726.651746 102.041817 
L 728.927633 82.445118 
L 731.203519 68.295636 
L 733.479406 60.423742 
L 735.755293 63.745216 
L 738.03118 61.486613 
L 740.307067 60.257668 
L 742.582953 52.883994 
L 744.85884 49.927882 
L 747.134727 47.669279 
L 749.410614 49.396446 
L 751.686501 47.835353 
L 753.962387 47.303917 
L 756.238274 45.211388 
L 758.514161 47.503206 
L 760.790048 41.889914 
L 763.065934 47.469991 
L 765.341821 41.889914 
L 767.617708 42.753497 
L 769.893595 43.982443 
L 772.169482 43.982443 
L 774.445368 44.846026 
L 776.721255 43.650295 
L 778.997142 44.347805 
L 781.273029 42.454564 
L 783.548916 47.137843 
L 785.824802 44.679952 
L 788.100689 44.879241 
L 790.376576 41.889914 
L 792.652463 42.587423 
L 794.92835 41.358478 
L 797.204236 40.494894 
L 799.480123 41.02633 
L 801.75601 45.742824 
L 804.031897 42.055987 
L 806.307784 37.870929 
L 808.58367 48.366789 
L 810.859557 42.42135 
L 813.135444 46.440334 
L 815.411331 42.055987 
L 817.687218 40.660968 
L 819.963104 42.42135 
L 822.238991 43.284933 
L 824.514878 50.990754 
L 826.790765 45.045314 
L 829.066651 38.568439 
L 831.342538 41.02633 
L 833.618425 42.055987 
L 835.894312 40.129532 
L 838.170199 42.42135 
L 840.446085 42.952786 
L 842.721972 43.484221 
L 844.997859 45.908898 
L 847.273746 51.854337 
L 849.549633 44.347805 
L 851.825519 51.688264 
L 854.101406 41.358478 
L 856.377293 40.328821 
L 858.65318 41.02633 
L 860.929067 45.045314 
L 863.204953 40.162747 
L 865.48084 42.919571 
L 867.756727 41.192404 
L 870.032614 48.898225 
L 872.308501 42.587423 
L 874.584387 42.952786 
L 876.860274 42.952786 
L 879.136161 39.265949 
L 881.412048 41.72384 
L 883.687935 40.494894 
L 885.963821 38.933801 
L 888.239708 41.557766 
L 890.515595 38.767728 
L 892.791482 45.776039 
L 895.067369 43.650295 
L 897.343255 44.181731 
L 899.619142 44.347805 
L 901.895029 36.309836 
L 904.170916 36.641984 
L 906.446802 47.835353 
L 908.722689 43.284933 
L 910.998576 43.484221 
L 913.274463 44.148516 
L 915.55035 51.52219 
L 917.826236 41.72384 
L 920.102123 47.469991 
L 922.37801 45.377462 
L 924.653897 42.587423 
L 926.929784 43.484221 
L 929.20567 38.933801 
L 931.481557 38.070218 
L 933.757444 39.099875 
L 936.033331 40.860257 
L 938.309218 42.587423 
L 940.585104 44.347805 
L 942.860991 41.557766 
L 945.136878 43.284933 
L 947.412765 38.568439 
L 949.688652 39.631311 
L 951.964538 42.42135 
L 954.240425 40.129532 
L 956.516312 43.118859 
L 958.792199 46.074972 
L 961.068086 46.805696 
L 963.343972 42.089202 
L 965.619859 41.72384 
L 967.895746 44.679952 
L 970.171633 38.402365 
L 972.44752 38.070218 
L 974.723406 42.786712 
L 976.999293 34.914817 
L 979.27518 43.484221 
" clip-path="url(#p396d9fbd5d)" style="fill: none; stroke: #000000; stroke-linecap: square"/>
   </g>
   <g id="line2d_96">
    <path d="M 708.444651 199.228162 
L 710.720538 183.484373 
L 712.996425 179.133241 
L 715.272312 154.986121 
L 717.548199 155.683631 
L 719.824085 102.373965 
L 722.099972 130.872216 
L 724.375859 79.655079 
L 726.651746 94.535285 
L 728.927633 88.025195 
L 731.203519 84.736935 
L 733.479406 62.715559 
L 735.755293 56.736905 
L 738.03118 52.917209 
L 740.307067 47.303917 
L 742.582953 46.241045 
L 744.85884 51.156828 
L 747.134727 45.908898 
L 749.410614 48.366789 
L 751.686501 56.039395 
L 753.962387 51.854337 
L 756.238274 43.284933 
L 758.514161 48.366789 
L 760.790048 41.192404 
L 763.065934 51.688264 
L 765.341821 43.484221 
L 767.617708 38.037003 
L 769.893595 58.862649 
L 772.169482 42.055987 
L 774.445368 40.660968 
L 776.721255 120.409572 
L 778.997142 43.61708 
L 781.273029 45.776039 
L 783.548916 41.72384 
L 785.824802 42.222061 
L 788.100689 40.660968 
L 790.376576 42.255276 
L 792.652463 37.870929 
L 794.92835 41.192404 
L 797.204236 43.650295 
L 799.480123 42.587423 
L 801.75601 55.042953 
L 804.031897 48.698936 
L 806.307784 46.606407 
L 808.58367 44.148516 
L 810.859557 46.805696 
L 813.135444 42.089202 
L 815.411331 38.037003 
L 817.687218 37.007346 
L 819.963104 41.02633 
L 822.238991 45.742824 
L 824.514878 38.767728 
L 826.790765 39.265949 
L 829.066651 37.339494 
L 831.342538 38.070218 
L 833.618425 35.246965 
L 835.894312 36.309836 
L 838.170199 39.13309 
L 840.446085 41.02633 
L 842.721972 48.898225 
L 844.997859 40.494894 
L 847.273746 63.047706 
L 849.549633 48.366789 
L 851.825519 47.137843 
L 854.101406 38.767728 
L 856.377293 42.786712 
L 858.65318 43.484221 
L 860.929067 46.606407 
L 863.204953 44.347805 
L 865.48084 37.505567 
L 867.756727 42.055987 
L 870.032614 38.933801 
L 872.308501 33.519798 
L 874.584387 38.568439 
L 876.860274 36.47591 
L 879.136161 34.715529 
L 881.412048 35.080891 
L 883.687935 38.236292 
L 885.963821 39.631311 
L 888.239708 39.099875 
L 890.515595 39.963458 
L 892.791482 39.099875 
L 895.067369 42.587423 
L 897.343255 41.557766 
L 899.619142 53.780792 
L 901.895029 33.685872 
L 904.170916 53.946866 
L 906.446802 38.568439 
L 908.722689 38.070218 
L 910.998576 36.641984 
L 913.274463 42.089202 
L 915.55035 38.070218 
L 917.826236 37.17342 
L 920.102123 34.217307 
L 922.37801 39.963458 
L 924.653897 36.641984 
L 926.929784 34.748743 
L 929.20567 38.43558 
L 931.481557 38.402365 
L 933.757444 38.933801 
L 936.033331 44.679952 
L 938.309218 38.402365 
L 940.585104 43.284933 
L 942.860991 32.290852 
L 945.136878 36.841272 
L 947.412765 34.549455 
L 949.688652 35.778401 
L 951.964538 35.080891 
L 954.240425 37.372708 
L 956.516312 38.767728 
L 958.792199 42.952786 
L 961.068086 37.704856 
L 963.343972 35.944474 
L 965.619859 48.898225 
L 967.895746 40.660968 
L 970.171633 37.704856 
L 972.44752 39.631311 
L 974.723406 38.037003 
L 976.999293 38.933801 
L 979.27518 34.715529 
" clip-path="url(#p396d9fbd5d)" style="fill: none; stroke: #2a6aa8; stroke-linecap: square"/>
   </g>
   <g id="line2d_97">
    <path d="M 708.444651 211.484403 
L 710.720538 225.799958 
L 712.996425 192.91736 
L 715.272312 192.053777 
L 717.548199 172.158145 
L 719.824085 130.706143 
L 722.099972 127.716815 
L 724.375859 96.262452 
L 726.651746 104.99793 
L 728.927633 87.526974 
L 731.203519 106.924385 
L 733.479406 87.693047 
L 735.755293 57.434414 
L 738.03118 85.069083 
L 740.307067 68.295636 
L 742.582953 65.87096 
L 744.85884 57.633703 
L 747.134727 60.456956 
L 749.410614 59.228011 
L 751.686501 55.873321 
L 753.962387 62.018049 
L 756.238274 49.927882 
L 758.514161 87.3609 
L 760.790048 54.146155 
L 763.065934 60.456956 
L 765.341821 76.532893 
L 767.617708 52.917209 
L 769.893595 49.230372 
L 772.169482 43.816369 
L 774.445368 49.927882 
L 776.721255 57.102267 
L 778.997142 56.238684 
L 781.273029 65.671671 
L 783.548916 52.053626 
L 785.824802 46.440334 
L 788.100689 58.331213 
L 790.376576 62.682344 
L 792.652463 41.358478 
L 794.92835 43.284933 
L 797.204236 46.27426 
L 799.480123 48.001427 
L 801.75601 44.148516 
L 804.031897 42.952786 
L 806.307784 47.303917 
L 808.58367 43.816369 
L 810.859557 53.780792 
L 813.135444 68.793857 
L 815.411331 40.860257 
L 817.687218 45.776039 
L 819.963104 53.083283 
L 822.238991 48.898225 
L 824.514878 42.055987 
L 826.790765 43.118859 
L 829.066651 48.366789 
L 831.342538 45.410677 
L 833.618425 41.192404 
L 835.894312 41.358478 
L 838.170199 57.268341 
L 840.446085 41.02633 
L 842.721972 45.908898 
L 844.997859 39.465237 
L 847.273746 46.606407 
L 849.549633 41.358478 
L 851.825519 103.768984 
L 854.101406 36.309836 
L 856.377293 43.650295 
L 858.65318 53.946866 
L 860.929067 42.587423 
L 863.204953 54.511517 
L 865.48084 46.805696 
L 867.756727 43.982443 
L 870.032614 64.077364 
L 872.308501 54.843664 
L 874.584387 41.557766 
L 876.860274 42.222061 
L 879.136161 42.454564 
L 881.412048 42.786712 
L 883.687935 64.974162 
L 885.963821 49.230372 
L 888.239708 39.963458 
L 890.515595 45.908898 
L 892.791482 40.660968 
L 895.067369 42.089202 
L 897.343255 46.606407 
L 899.619142 39.631311 
L 901.895029 37.339494 
L 904.170916 44.513879 
L 906.446802 42.753497 
L 908.722689 42.753497 
L 910.998576 39.265949 
L 913.274463 50.990754 
L 915.55035 39.265949 
L 917.826236 42.753497 
L 920.102123 41.02633 
L 922.37801 44.347805 
L 924.653897 52.186485 
L 926.929784 42.42135 
L 929.20567 45.742824 
L 931.481557 41.192404 
L 933.757444 44.148516 
L 936.033331 40.494894 
L 938.309218 40.494894 
L 940.585104 52.917209 
L 942.860991 43.816369 
L 945.136878 46.606407 
L 947.412765 42.222061 
L 949.688652 44.347805 
L 951.964538 41.889914 
L 954.240425 39.465237 
L 956.516312 38.402365 
L 958.792199 39.797385 
L 961.068086 40.827042 
L 963.343972 46.805696 
L 965.619859 50.293244 
L 967.895746 71.982473 
L 970.171633 40.660968 
L 972.44752 42.089202 
L 974.723406 41.557766 
L 976.999293 42.952786 
L 979.27518 42.786712 
" clip-path="url(#p396d9fbd5d)" style="fill: none; stroke: #f79f1e; stroke-linecap: square"/>
   </g>
   <g id="line2d_98">
    <path d="M 708.444651 231.745398 
L 710.720538 208.162929 
L 712.996425 194.146306 
L 715.272312 170.231689 
L 717.548199 182.122568 
L 719.824085 136.983729 
L 722.099972 105.363292 
L 724.375859 123.863905 
L 726.651746 77.728624 
L 728.927633 82.644406 
L 731.203519 67.432053 
L 733.479406 84.205499 
L 735.755293 69.72387 
L 738.03118 74.606438 
L 740.307067 60.423742 
L 742.582953 70.919601 
L 744.85884 47.835353 
L 747.134727 61.984835 
L 749.410614 64.608799 
L 751.686501 73.01213 
L 753.962387 69.358508 
L 756.238274 50.990754 
L 758.514161 44.181731 
L 760.790048 63.579142 
L 763.065934 46.440334 
L 765.341821 51.52219 
L 767.617708 45.377462 
L 769.893595 42.222061 
L 772.169482 50.293244 
L 774.445368 43.118859 
L 776.721255 40.494894 
L 778.997142 41.889914 
L 781.273029 40.660968 
L 783.548916 37.704856 
L 785.824802 49.795023 
L 788.100689 48.167501 
L 790.376576 41.524551 
L 792.652463 42.089202 
L 794.92835 41.557766 
L 797.204236 57.268341 
L 799.480123 44.148516 
L 801.75601 41.02633 
L 804.031897 39.265949 
L 806.307784 37.505567 
L 808.58367 41.02633 
L 810.859557 45.742824 
L 813.135444 35.778401 
L 815.411331 43.816369 
L 817.687218 39.963458 
L 819.963104 40.328821 
L 822.238991 38.070218 
L 824.514878 41.02633 
L 826.790765 39.797385 
L 829.066651 68.494925 
L 831.342538 36.47591 
L 833.618425 43.61708 
L 835.894312 34.018019 
L 838.170199 44.181731 
L 840.446085 35.246965 
L 842.721972 34.018019 
L 844.997859 42.089202 
L 847.273746 36.841272 
L 849.549633 39.465237 
L 851.825519 38.402365 
L 854.101406 52.551847 
L 856.377293 57.102267 
L 858.65318 39.432023 
L 860.929067 39.265949 
L 863.204953 38.236292 
L 865.48084 38.43558 
L 867.756727 40.660968 
L 870.032614 38.037003 
L 872.308501 39.797385 
L 874.584387 47.669279 
L 876.860274 36.841272 
L 879.136161 42.587423 
L 881.412048 38.933801 
L 883.687935 51.190042 
L 885.963821 38.070218 
L 888.239708 58.131924 
L 890.515595 39.963458 
L 892.791482 46.27426 
L 895.067369 36.47591 
L 897.343255 35.246965 
L 899.619142 37.538782 
L 901.895029 42.42135 
L 904.170916 52.020411 
L 906.446802 38.402365 
L 908.722689 46.805696 
L 910.998576 36.309836 
L 913.274463 45.57675 
L 915.55035 36.641984 
L 917.826236 48.167501 
L 920.102123 41.557766 
L 922.37801 39.099875 
L 924.653897 60.955177 
L 926.929784 61.121251 
L 929.20567 42.786712 
L 931.481557 38.43558 
L 933.757444 45.045314 
L 936.033331 36.309836 
L 938.309218 44.879241 
L 940.585104 37.538782 
L 942.860991 34.748743 
L 945.136878 46.27426 
L 947.412765 36.641984 
L 949.688652 36.808058 
L 951.964538 41.358478 
L 954.240425 36.841272 
L 956.516312 34.914817 
L 958.792199 40.660968 
L 961.068086 36.309836 
L 963.343972 40.860257 
L 965.619859 35.612327 
L 967.895746 36.675199 
L 970.171633 36.309836 
L 972.44752 40.494894 
L 974.723406 36.841272 
L 976.999293 37.870929 
L 979.27518 37.704856 
" clip-path="url(#p396d9fbd5d)" style="fill: none; stroke: #f22b00; stroke-linecap: square"/>
   </g>
   <g id="patch_15">
    <path d="M 694.903125 241.718125 
L 694.903125 22.318125 
" style="fill: none; stroke: #000000; stroke-width: 0.8; stroke-linejoin: miter; stroke-linecap: square"/>
   </g>
   <g id="patch_16">
    <path d="M 992.816706 241.718125 
L 992.816706 22.318125 
" style="fill: none; stroke: #000000; stroke-width: 0.8; stroke-linejoin: miter; stroke-linecap: square"/>
   </g>
   <g id="patch_17">
    <path d="M 694.903125 241.718125 
L 992.816706 241.718125 
" style="fill: none; stroke: #000000; stroke-width: 0.8; stroke-linejoin: miter; stroke-linecap: square"/>
   </g>
   <g id="patch_18">
    <path d="M 694.903125 22.318125 
L 992.816706 22.318125 
" style="fill: none; stroke: #000000; stroke-width: 0.8; stroke-linejoin: miter; stroke-linecap: square"/>
   </g>
   <g id="text_53">
    <!-- Max-Common -->
    <g transform="translate(802.266791 16.318125)scale(0.12 -0.12)">
     <defs>
      <path id="DejaVuSans-4d" d="M 628 4666 
L 1569 4666 
L 2759 1491 
L 3956 4666 
L 4897 4666 
L 4897 0 
L 4281 0 
L 4281 4097 
L 3078 897 
L 2444 897 
L 1241 4097 
L 1241 0 
L 628 0 
L 628 4666 
z
" transform="scale(0.015625)"/>
      <path id="DejaVuSans-78" d="M 3513 3500 
L 2247 1797 
L 3578 0 
L 2900 0 
L 1881 1375 
L 863 0 
L 184 0 
L 1544 1831 
L 300 3500 
L 978 3500 
L 1906 2253 
L 2834 3500 
L 3513 3500 
z
" transform="scale(0.015625)"/>
     </defs>
     <use xlink:href="#DejaVuSans-4d"/>
     <use xlink:href="#DejaVuSans-61" x="86.279297"/>
     <use xlink:href="#DejaVuSans-78" x="147.558594"/>
     <use xlink:href="#DejaVuSans-2d" x="206.738281"/>
     <use xlink:href="#DejaVuSans-43" x="242.822266"/>
     <use xlink:href="#DejaVuSans-6f" x="312.646484"/>
     <use xlink:href="#DejaVuSans-6d" x="373.828125"/>
     <use xlink:href="#DejaVuSans-6d" x="471.240234"/>
     <use xlink:href="#DejaVuSans-6f" x="568.652344"/>
     <use xlink:href="#DejaVuSans-6e" x="629.833984"/>
    </g>
   </g>
   <g id="legend_3">
    <g id="patch_19">
     <path d="M 898.341706 236.718125 
L 985.816706 236.718125 
Q 987.816706 236.718125 987.816706 234.718125 
L 987.816706 177.005625 
Q 987.816706 175.005625 985.816706 175.005625 
L 898.341706 175.005625 
Q 896.341706 175.005625 896.341706 177.005625 
L 896.341706 234.718125 
Q 896.341706 236.718125 898.341706 236.718125 
z
" style="fill: #ffffff; opacity: 0.8; stroke: #cccccc; stroke-linejoin: miter"/>
    </g>
    <g id="line2d_99">
     <path d="M 900.341706 183.104063 
L 910.341706 183.104063 
L 920.341706 183.104063 
" style="fill: none; stroke: #000000; stroke-linecap: square"/>
    </g>
    <g id="text_54">
     <!-- CharCNN-3 -->
     <g transform="translate(928.341706 186.604063)scale(0.1 -0.1)">
      <use xlink:href="#DejaVuSans-43"/>
      <use xlink:href="#DejaVuSans-68" x="69.824219"/>
      <use xlink:href="#DejaVuSans-61" x="133.203125"/>
      <use xlink:href="#DejaVuSans-72" x="194.482422"/>
      <use xlink:href="#DejaVuSans-43" x="235.595703"/>
      <use xlink:href="#DejaVuSans-4e" x="305.419922"/>
      <use xlink:href="#DejaVuSans-4e" x="380.224609"/>
      <use xlink:href="#DejaVuSans-2d" x="455.029297"/>
      <use xlink:href="#DejaVuSans-33" x="491.113281"/>
     </g>
    </g>
    <g id="line2d_100">
     <path d="M 900.341706 197.782188 
L 910.341706 197.782188 
L 920.341706 197.782188 
" style="fill: none; stroke: #2a6aa8; stroke-linecap: square"/>
    </g>
    <g id="text_55">
     <!-- CharCNN-4 -->
     <g transform="translate(928.341706 201.282188)scale(0.1 -0.1)">
      <use xlink:href="#DejaVuSans-43"/>
      <use xlink:href="#DejaVuSans-68" x="69.824219"/>
      <use xlink:href="#DejaVuSans-61" x="133.203125"/>
      <use xlink:href="#DejaVuSans-72" x="194.482422"/>
      <use xlink:href="#DejaVuSans-43" x="235.595703"/>
      <use xlink:href="#DejaVuSans-4e" x="305.419922"/>
      <use xlink:href="#DejaVuSans-4e" x="380.224609"/>
      <use xlink:href="#DejaVuSans-2d" x="455.029297"/>
      <use xlink:href="#DejaVuSans-34" x="491.113281"/>
     </g>
    </g>
    <g id="line2d_101">
     <path d="M 900.341706 212.460313 
L 910.341706 212.460313 
L 920.341706 212.460313 
" style="fill: none; stroke: #f79f1e; stroke-linecap: square"/>
    </g>
    <g id="text_56">
     <!-- CharCNN-5 -->
     <g transform="translate(928.341706 215.960313)scale(0.1 -0.1)">
      <use xlink:href="#DejaVuSans-43"/>
      <use xlink:href="#DejaVuSans-68" x="69.824219"/>
      <use xlink:href="#DejaVuSans-61" x="133.203125"/>
      <use xlink:href="#DejaVuSans-72" x="194.482422"/>
      <use xlink:href="#DejaVuSans-43" x="235.595703"/>
      <use xlink:href="#DejaVuSans-4e" x="305.419922"/>
      <use xlink:href="#DejaVuSans-4e" x="380.224609"/>
      <use xlink:href="#DejaVuSans-2d" x="455.029297"/>
      <use xlink:href="#DejaVuSans-35" x="491.113281"/>
     </g>
    </g>
    <g id="line2d_102">
     <path d="M 900.341706 227.138438 
L 910.341706 227.138438 
L 920.341706 227.138438 
" style="fill: none; stroke: #f22b00; stroke-linecap: square"/>
    </g>
    <g id="text_57">
     <!-- CharCNN-6 -->
     <g transform="translate(928.341706 230.638438)scale(0.1 -0.1)">
      <use xlink:href="#DejaVuSans-43"/>
      <use xlink:href="#DejaVuSans-68" x="69.824219"/>
      <use xlink:href="#DejaVuSans-61" x="133.203125"/>
      <use xlink:href="#DejaVuSans-72" x="194.482422"/>
      <use xlink:href="#DejaVuSans-43" x="235.595703"/>
      <use xlink:href="#DejaVuSans-4e" x="305.419922"/>
      <use xlink:href="#DejaVuSans-4e" x="380.224609"/>
      <use xlink:href="#DejaVuSans-2d" x="455.029297"/>
      <use xlink:href="#DejaVuSans-36" x="491.113281"/>
     </g>
    </g>
   </g>
  </g>
 </g>
 <defs>
  <clipPath id="p5ddb2b0769">
   <rect x="30.103125" y="22.318125" width="297.913581" height="219.4"/>
  </clipPath>
  <clipPath id="p103345f565">
   <rect x="362.503125" y="22.318125" width="297.913581" height="219.4"/>
  </clipPath>
  <clipPath id="p396d9fbd5d">
   <rect x="694.903125" y="22.318125" width="297.913581" height="219.4"/>
  </clipPath>
 </defs>
</svg>
