<?xml version="1.0" encoding="utf-8" standalone="no"?>
<!DOCTYPE svg PUBLIC "-//W3C//DTD SVG 1.1//EN"
  "http://www.w3.org/Graphics/SVG/1.1/DTD/svg11.dtd">
<svg xmlns:xlink="http://www.w3.org/1999/xlink" width="576pt" height="432pt" viewBox="0 0 576 432" xmlns="http://www.w3.org/2000/svg" version="1.1">
 <metadata>
  <rdf:RDF xmlns:dc="http://purl.org/dc/elements/1.1/" xmlns:cc="http://creativecommons.org/ns#" xmlns:rdf="http://www.w3.org/1999/02/22-rdf-syntax-ns#">
   <cc:Work>
    <dc:type rdf:resource="http://purl.org/dc/dcmitype/StillImage"/>
    <dc:date>2023-08-05T20:03:54.949423</dc:date>
    <dc:format>image/svg+xml</dc:format>
    <dc:creator>
     <cc:Agent>
      <dc:title>Matplotlib v3.5.2, https://matplotlib.org/</dc:title>
     </cc:Agent>
    </dc:creator>
   </cc:Work>
  </rdf:RDF>
 </metadata>
 <defs>
  <style type="text/css">*{stroke-linejoin: round; stroke-linecap: butt}</style>
 </defs>
 <g id="figure_1">
  <g id="patch_1">
   <path d="M 0 432 
L 576 432 
L 576 0 
L 0 0 
z
" style="fill: #ffffff"/>
  </g>
  <g id="axes_1">
   <g id="patch_2">
    <path d="M 72 384.48 
L 518.4 384.48 
L 518.4 51.84 
L 72 51.84 
z
" style="fill: #ffffff"/>
   </g>
   <g id="matplotlib.axis_1">
    <g id="xtick_1">
     <g id="line2d_1">
      <path d="M 92.290909 384.48 
L 92.290909 51.84 
" clip-path="url(#p8a96a7c991)" style="fill: none; stroke: #b0b0b0; stroke-opacity: 0.5; stroke-width: 0.8; stroke-linecap: square"/>
     </g>
     <g id="line2d_2">
      <defs>
       <path id="m0b5020969b" d="M 0 0 
L 0 3.5 
" style="stroke: #000000; stroke-width: 0.8"/>
      </defs>
      <g>
       <use xlink:href="#m0b5020969b" x="92.290909" y="384.48" style="stroke: #000000; stroke-width: 0.8"/>
      </g>
     </g>
     <g id="text_1">
      <!-- 0 -->
      <g transform="translate(89.109659 399.078438)scale(0.1 -0.1)">
       <defs>
        <path id="DejaVuSans-30" d="M 2034 4250 
Q 1547 4250 1301 3770 
Q 1056 3291 1056 2328 
Q 1056 1369 1301 889 
Q 1547 409 2034 409 
Q 2525 409 2770 889 
Q 3016 1369 3016 2328 
Q 3016 3291 2770 3770 
Q 2525 4250 2034 4250 
z
M 2034 4750 
Q 2819 4750 3233 4129 
Q 3647 3509 3647 2328 
Q 3647 1150 3233 529 
Q 2819 -91 2034 -91 
Q 1250 -91 836 529 
Q 422 1150 422 2328 
Q 422 3509 836 4129 
Q 1250 4750 2034 4750 
z
" transform="scale(0.015625)"/>
       </defs>
       <use xlink:href="#DejaVuSans-30"/>
      </g>
     </g>
    </g>
    <g id="xtick_2">
     <g id="line2d_3">
      <path d="M 142.765807 384.48 
L 142.765807 51.84 
" clip-path="url(#p8a96a7c991)" style="fill: none; stroke: #b0b0b0; stroke-opacity: 0.5; stroke-width: 0.8; stroke-linecap: square"/>
     </g>
     <g id="line2d_4">
      <g>
       <use xlink:href="#m0b5020969b" x="142.765807" y="384.48" style="stroke: #000000; stroke-width: 0.8"/>
      </g>
     </g>
     <g id="text_2">
      <!-- 25 -->
      <g transform="translate(136.403307 399.078438)scale(0.1 -0.1)">
       <defs>
        <path id="DejaVuSans-32" d="M 1228 531 
L 3431 531 
L 3431 0 
L 469 0 
L 469 531 
Q 828 903 1448 1529 
Q 2069 2156 2228 2338 
Q 2531 2678 2651 2914 
Q 2772 3150 2772 3378 
Q 2772 3750 2511 3984 
Q 2250 4219 1831 4219 
Q 1534 4219 1204 4116 
Q 875 4013 500 3803 
L 500 4441 
Q 881 4594 1212 4672 
Q 1544 4750 1819 4750 
Q 2544 4750 2975 4387 
Q 3406 4025 3406 3419 
Q 3406 3131 3298 2873 
Q 3191 2616 2906 2266 
Q 2828 2175 2409 1742 
Q 1991 1309 1228 531 
z
" transform="scale(0.015625)"/>
        <path id="DejaVuSans-35" d="M 691 4666 
L 3169 4666 
L 3169 4134 
L 1269 4134 
L 1269 2991 
Q 1406 3038 1543 3061 
Q 1681 3084 1819 3084 
Q 2600 3084 3056 2656 
Q 3513 2228 3513 1497 
Q 3513 744 3044 326 
Q 2575 -91 1722 -91 
Q 1428 -91 1123 -41 
Q 819 9 494 109 
L 494 744 
Q 775 591 1075 516 
Q 1375 441 1709 441 
Q 2250 441 2565 725 
Q 2881 1009 2881 1497 
Q 2881 1984 2565 2268 
Q 2250 2553 1709 2553 
Q 1456 2553 1204 2497 
Q 953 2441 691 2322 
L 691 4666 
z
" transform="scale(0.015625)"/>
       </defs>
       <use xlink:href="#DejaVuSans-32"/>
       <use xlink:href="#DejaVuSans-35" x="63.623047"/>
      </g>
     </g>
    </g>
    <g id="xtick_3">
     <g id="line2d_5">
      <path d="M 193.240706 384.48 
L 193.240706 51.84 
" clip-path="url(#p8a96a7c991)" style="fill: none; stroke: #b0b0b0; stroke-opacity: 0.5; stroke-width: 0.8; stroke-linecap: square"/>
     </g>
     <g id="line2d_6">
      <g>
       <use xlink:href="#m0b5020969b" x="193.240706" y="384.48" style="stroke: #000000; stroke-width: 0.8"/>
      </g>
     </g>
     <g id="text_3">
      <!-- 50 -->
      <g transform="translate(186.878206 399.078438)scale(0.1 -0.1)">
       <use xlink:href="#DejaVuSans-35"/>
       <use xlink:href="#DejaVuSans-30" x="63.623047"/>
      </g>
     </g>
    </g>
    <g id="xtick_4">
     <g id="line2d_7">
      <path d="M 243.715604 384.48 
L 243.715604 51.84 
" clip-path="url(#p8a96a7c991)" style="fill: none; stroke: #b0b0b0; stroke-opacity: 0.5; stroke-width: 0.8; stroke-linecap: square"/>
     </g>
     <g id="line2d_8">
      <g>
       <use xlink:href="#m0b5020969b" x="243.715604" y="384.48" style="stroke: #000000; stroke-width: 0.8"/>
      </g>
     </g>
     <g id="text_4">
      <!-- 75 -->
      <g transform="translate(237.353104 399.078438)scale(0.1 -0.1)">
       <defs>
        <path id="DejaVuSans-37" d="M 525 4666 
L 3525 4666 
L 3525 4397 
L 1831 0 
L 1172 0 
L 2766 4134 
L 525 4134 
L 525 4666 
z
" transform="scale(0.015625)"/>
       </defs>
       <use xlink:href="#DejaVuSans-37"/>
       <use xlink:href="#DejaVuSans-35" x="63.623047"/>
      </g>
     </g>
    </g>
    <g id="xtick_5">
     <g id="line2d_9">
      <path d="M 294.190502 384.48 
L 294.190502 51.84 
" clip-path="url(#p8a96a7c991)" style="fill: none; stroke: #b0b0b0; stroke-opacity: 0.5; stroke-width: 0.8; stroke-linecap: square"/>
     </g>
     <g id="line2d_10">
      <g>
       <use xlink:href="#m0b5020969b" x="294.190502" y="384.48" style="stroke: #000000; stroke-width: 0.8"/>
      </g>
     </g>
     <g id="text_5">
      <!-- 100 -->
      <g transform="translate(284.646752 399.078438)scale(0.1 -0.1)">
       <defs>
        <path id="DejaVuSans-31" d="M 794 531 
L 1825 531 
L 1825 4091 
L 703 3866 
L 703 4441 
L 1819 4666 
L 2450 4666 
L 2450 531 
L 3481 531 
L 3481 0 
L 794 0 
L 794 531 
z
" transform="scale(0.015625)"/>
       </defs>
       <use xlink:href="#DejaVuSans-31"/>
       <use xlink:href="#DejaVuSans-30" x="63.623047"/>
       <use xlink:href="#DejaVuSans-30" x="127.246094"/>
      </g>
     </g>
    </g>
    <g id="xtick_6">
     <g id="line2d_11">
      <path d="M 344.6654 384.48 
L 344.6654 51.84 
" clip-path="url(#p8a96a7c991)" style="fill: none; stroke: #b0b0b0; stroke-opacity: 0.5; stroke-width: 0.8; stroke-linecap: square"/>
     </g>
     <g id="line2d_12">
      <g>
       <use xlink:href="#m0b5020969b" x="344.6654" y="384.48" style="stroke: #000000; stroke-width: 0.8"/>
      </g>
     </g>
     <g id="text_6">
      <!-- 125 -->
      <g transform="translate(335.12165 399.078438)scale(0.1 -0.1)">
       <use xlink:href="#DejaVuSans-31"/>
       <use xlink:href="#DejaVuSans-32" x="63.623047"/>
       <use xlink:href="#DejaVuSans-35" x="127.246094"/>
      </g>
     </g>
    </g>
    <g id="xtick_7">
     <g id="line2d_13">
      <path d="M 395.140299 384.48 
L 395.140299 51.84 
" clip-path="url(#p8a96a7c991)" style="fill: none; stroke: #b0b0b0; stroke-opacity: 0.5; stroke-width: 0.8; stroke-linecap: square"/>
     </g>
     <g id="line2d_14">
      <g>
       <use xlink:href="#m0b5020969b" x="395.140299" y="384.48" style="stroke: #000000; stroke-width: 0.8"/>
      </g>
     </g>
     <g id="text_7">
      <!-- 150 -->
      <g transform="translate(385.596549 399.078438)scale(0.1 -0.1)">
       <use xlink:href="#DejaVuSans-31"/>
       <use xlink:href="#DejaVuSans-35" x="63.623047"/>
       <use xlink:href="#DejaVuSans-30" x="127.246094"/>
      </g>
     </g>
    </g>
    <g id="xtick_8">
     <g id="line2d_15">
      <path d="M 445.615197 384.48 
L 445.615197 51.84 
" clip-path="url(#p8a96a7c991)" style="fill: none; stroke: #b0b0b0; stroke-opacity: 0.5; stroke-width: 0.8; stroke-linecap: square"/>
     </g>
     <g id="line2d_16">
      <g>
       <use xlink:href="#m0b5020969b" x="445.615197" y="384.48" style="stroke: #000000; stroke-width: 0.8"/>
      </g>
     </g>
     <g id="text_8">
      <!-- 175 -->
      <g transform="translate(436.071447 399.078438)scale(0.1 -0.1)">
       <use xlink:href="#DejaVuSans-31"/>
       <use xlink:href="#DejaVuSans-37" x="63.623047"/>
       <use xlink:href="#DejaVuSans-35" x="127.246094"/>
      </g>
     </g>
    </g>
    <g id="xtick_9">
     <g id="line2d_17">
      <path d="M 496.090095 384.48 
L 496.090095 51.84 
" clip-path="url(#p8a96a7c991)" style="fill: none; stroke: #b0b0b0; stroke-opacity: 0.5; stroke-width: 0.8; stroke-linecap: square"/>
     </g>
     <g id="line2d_18">
      <g>
       <use xlink:href="#m0b5020969b" x="496.090095" y="384.48" style="stroke: #000000; stroke-width: 0.8"/>
      </g>
     </g>
     <g id="text_9">
      <!-- 200 -->
      <g transform="translate(486.546345 399.078438)scale(0.1 -0.1)">
       <use xlink:href="#DejaVuSans-32"/>
       <use xlink:href="#DejaVuSans-30" x="63.623047"/>
       <use xlink:href="#DejaVuSans-30" x="127.246094"/>
      </g>
     </g>
    </g>
    <g id="text_10">
     <!-- Communication rounds -->
     <g transform="translate(237.083594 412.756563)scale(0.1 -0.1)">
      <defs>
       <path id="DejaVuSans-43" d="M 4122 4306 
L 4122 3641 
Q 3803 3938 3442 4084 
Q 3081 4231 2675 4231 
Q 1875 4231 1450 3742 
Q 1025 3253 1025 2328 
Q 1025 1406 1450 917 
Q 1875 428 2675 428 
Q 3081 428 3442 575 
Q 3803 722 4122 1019 
L 4122 359 
Q 3791 134 3420 21 
Q 3050 -91 2638 -91 
Q 1578 -91 968 557 
Q 359 1206 359 2328 
Q 359 3453 968 4101 
Q 1578 4750 2638 4750 
Q 3056 4750 3426 4639 
Q 3797 4528 4122 4306 
z
" transform="scale(0.015625)"/>
       <path id="DejaVuSans-6f" d="M 1959 3097 
Q 1497 3097 1228 2736 
Q 959 2375 959 1747 
Q 959 1119 1226 758 
Q 1494 397 1959 397 
Q 2419 397 2687 759 
Q 2956 1122 2956 1747 
Q 2956 2369 2687 2733 
Q 2419 3097 1959 3097 
z
M 1959 3584 
Q 2709 3584 3137 3096 
Q 3566 2609 3566 1747 
Q 3566 888 3137 398 
Q 2709 -91 1959 -91 
Q 1206 -91 779 398 
Q 353 888 353 1747 
Q 353 2609 779 3096 
Q 1206 3584 1959 3584 
z
" transform="scale(0.015625)"/>
       <path id="DejaVuSans-6d" d="M 3328 2828 
Q 3544 3216 3844 3400 
Q 4144 3584 4550 3584 
Q 5097 3584 5394 3201 
Q 5691 2819 5691 2113 
L 5691 0 
L 5113 0 
L 5113 2094 
Q 5113 2597 4934 2840 
Q 4756 3084 4391 3084 
Q 3944 3084 3684 2787 
Q 3425 2491 3425 1978 
L 3425 0 
L 2847 0 
L 2847 2094 
Q 2847 2600 2669 2842 
Q 2491 3084 2119 3084 
Q 1678 3084 1418 2786 
Q 1159 2488 1159 1978 
L 1159 0 
L 581 0 
L 581 3500 
L 1159 3500 
L 1159 2956 
Q 1356 3278 1631 3431 
Q 1906 3584 2284 3584 
Q 2666 3584 2933 3390 
Q 3200 3197 3328 2828 
z
" transform="scale(0.015625)"/>
       <path id="DejaVuSans-75" d="M 544 1381 
L 544 3500 
L 1119 3500 
L 1119 1403 
Q 1119 906 1312 657 
Q 1506 409 1894 409 
Q 2359 409 2629 706 
Q 2900 1003 2900 1516 
L 2900 3500 
L 3475 3500 
L 3475 0 
L 2900 0 
L 2900 538 
Q 2691 219 2414 64 
Q 2138 -91 1772 -91 
Q 1169 -91 856 284 
Q 544 659 544 1381 
z
M 1991 3584 
L 1991 3584 
z
" transform="scale(0.015625)"/>
       <path id="DejaVuSans-6e" d="M 3513 2113 
L 3513 0 
L 2938 0 
L 2938 2094 
Q 2938 2591 2744 2837 
Q 2550 3084 2163 3084 
Q 1697 3084 1428 2787 
Q 1159 2491 1159 1978 
L 1159 0 
L 581 0 
L 581 3500 
L 1159 3500 
L 1159 2956 
Q 1366 3272 1645 3428 
Q 1925 3584 2291 3584 
Q 2894 3584 3203 3211 
Q 3513 2838 3513 2113 
z
" transform="scale(0.015625)"/>
       <path id="DejaVuSans-69" d="M 603 3500 
L 1178 3500 
L 1178 0 
L 603 0 
L 603 3500 
z
M 603 4863 
L 1178 4863 
L 1178 4134 
L 603 4134 
L 603 4863 
z
" transform="scale(0.015625)"/>
       <path id="DejaVuSans-63" d="M 3122 3366 
L 3122 2828 
Q 2878 2963 2633 3030 
Q 2388 3097 2138 3097 
Q 1578 3097 1268 2742 
Q 959 2388 959 1747 
Q 959 1106 1268 751 
Q 1578 397 2138 397 
Q 2388 397 2633 464 
Q 2878 531 3122 666 
L 3122 134 
Q 2881 22 2623 -34 
Q 2366 -91 2075 -91 
Q 1284 -91 818 406 
Q 353 903 353 1747 
Q 353 2603 823 3093 
Q 1294 3584 2113 3584 
Q 2378 3584 2631 3529 
Q 2884 3475 3122 3366 
z
" transform="scale(0.015625)"/>
       <path id="DejaVuSans-61" d="M 2194 1759 
Q 1497 1759 1228 1600 
Q 959 1441 959 1056 
Q 959 750 1161 570 
Q 1363 391 1709 391 
Q 2188 391 2477 730 
Q 2766 1069 2766 1631 
L 2766 1759 
L 2194 1759 
z
M 3341 1997 
L 3341 0 
L 2766 0 
L 2766 531 
Q 2569 213 2275 61 
Q 1981 -91 1556 -91 
Q 1019 -91 701 211 
Q 384 513 384 1019 
Q 384 1609 779 1909 
Q 1175 2209 1959 2209 
L 2766 2209 
L 2766 2266 
Q 2766 2663 2505 2880 
Q 2244 3097 1772 3097 
Q 1472 3097 1187 3025 
Q 903 2953 641 2809 
L 641 3341 
Q 956 3463 1253 3523 
Q 1550 3584 1831 3584 
Q 2591 3584 2966 3190 
Q 3341 2797 3341 1997 
z
" transform="scale(0.015625)"/>
       <path id="DejaVuSans-74" d="M 1172 4494 
L 1172 3500 
L 2356 3500 
L 2356 3053 
L 1172 3053 
L 1172 1153 
Q 1172 725 1289 603 
Q 1406 481 1766 481 
L 2356 481 
L 2356 0 
L 1766 0 
Q 1100 0 847 248 
Q 594 497 594 1153 
L 594 3053 
L 172 3053 
L 172 3500 
L 594 3500 
L 594 4494 
L 1172 4494 
z
" transform="scale(0.015625)"/>
       <path id="DejaVuSans-20" transform="scale(0.015625)"/>
       <path id="DejaVuSans-72" d="M 2631 2963 
Q 2534 3019 2420 3045 
Q 2306 3072 2169 3072 
Q 1681 3072 1420 2755 
Q 1159 2438 1159 1844 
L 1159 0 
L 581 0 
L 581 3500 
L 1159 3500 
L 1159 2956 
Q 1341 3275 1631 3429 
Q 1922 3584 2338 3584 
Q 2397 3584 2469 3576 
Q 2541 3569 2628 3553 
L 2631 2963 
z
" transform="scale(0.015625)"/>
       <path id="DejaVuSans-64" d="M 2906 2969 
L 2906 4863 
L 3481 4863 
L 3481 0 
L 2906 0 
L 2906 525 
Q 2725 213 2448 61 
Q 2172 -91 1784 -91 
Q 1150 -91 751 415 
Q 353 922 353 1747 
Q 353 2572 751 3078 
Q 1150 3584 1784 3584 
Q 2172 3584 2448 3432 
Q 2725 3281 2906 2969 
z
M 947 1747 
Q 947 1113 1208 752 
Q 1469 391 1925 391 
Q 2381 391 2643 752 
Q 2906 1113 2906 1747 
Q 2906 2381 2643 2742 
Q 2381 3103 1925 3103 
Q 1469 3103 1208 2742 
Q 947 2381 947 1747 
z
" transform="scale(0.015625)"/>
       <path id="DejaVuSans-73" d="M 2834 3397 
L 2834 2853 
Q 2591 2978 2328 3040 
Q 2066 3103 1784 3103 
Q 1356 3103 1142 2972 
Q 928 2841 928 2578 
Q 928 2378 1081 2264 
Q 1234 2150 1697 2047 
L 1894 2003 
Q 2506 1872 2764 1633 
Q 3022 1394 3022 966 
Q 3022 478 2636 193 
Q 2250 -91 1575 -91 
Q 1294 -91 989 -36 
Q 684 19 347 128 
L 347 722 
Q 666 556 975 473 
Q 1284 391 1588 391 
Q 1994 391 2212 530 
Q 2431 669 2431 922 
Q 2431 1156 2273 1281 
Q 2116 1406 1581 1522 
L 1381 1569 
Q 847 1681 609 1914 
Q 372 2147 372 2553 
Q 372 3047 722 3315 
Q 1072 3584 1716 3584 
Q 2034 3584 2315 3537 
Q 2597 3491 2834 3397 
z
" transform="scale(0.015625)"/>
      </defs>
      <use xlink:href="#DejaVuSans-43"/>
      <use xlink:href="#DejaVuSans-6f" x="69.824219"/>
      <use xlink:href="#DejaVuSans-6d" x="131.005859"/>
      <use xlink:href="#DejaVuSans-6d" x="228.417969"/>
      <use xlink:href="#DejaVuSans-75" x="325.830078"/>
      <use xlink:href="#DejaVuSans-6e" x="389.208984"/>
      <use xlink:href="#DejaVuSans-69" x="452.587891"/>
      <use xlink:href="#DejaVuSans-63" x="480.371094"/>
      <use xlink:href="#DejaVuSans-61" x="535.351562"/>
      <use xlink:href="#DejaVuSans-74" x="596.630859"/>
      <use xlink:href="#DejaVuSans-69" x="635.839844"/>
      <use xlink:href="#DejaVuSans-6f" x="663.623047"/>
      <use xlink:href="#DejaVuSans-6e" x="724.804688"/>
      <use xlink:href="#DejaVuSans-20" x="788.183594"/>
      <use xlink:href="#DejaVuSans-72" x="819.970703"/>
      <use xlink:href="#DejaVuSans-6f" x="858.833984"/>
      <use xlink:href="#DejaVuSans-75" x="920.015625"/>
      <use xlink:href="#DejaVuSans-6e" x="983.394531"/>
      <use xlink:href="#DejaVuSans-64" x="1046.773438"/>
      <use xlink:href="#DejaVuSans-73" x="1110.25"/>
     </g>
    </g>
   </g>
   <g id="matplotlib.axis_2">
    <g id="ytick_1">
     <g id="line2d_19">
      <path d="M 72 360.910148 
L 518.4 360.910148 
" clip-path="url(#p8a96a7c991)" style="fill: none; stroke: #b0b0b0; stroke-opacity: 0.5; stroke-width: 0.8; stroke-linecap: square"/>
     </g>
     <g id="line2d_20">
      <defs>
       <path id="mc91f0e97d5" d="M 0 0 
L -3.5 0 
" style="stroke: #000000; stroke-width: 0.8"/>
      </defs>
      <g>
       <use xlink:href="#mc91f0e97d5" x="72" y="360.910148" style="stroke: #000000; stroke-width: 0.8"/>
      </g>
     </g>
     <g id="text_11">
      <!-- 0.30 -->
      <g transform="translate(42.734375 364.709367)scale(0.1 -0.1)">
       <defs>
        <path id="DejaVuSans-2e" d="M 684 794 
L 1344 794 
L 1344 0 
L 684 0 
L 684 794 
z
" transform="scale(0.015625)"/>
        <path id="DejaVuSans-33" d="M 2597 2516 
Q 3050 2419 3304 2112 
Q 3559 1806 3559 1356 
Q 3559 666 3084 287 
Q 2609 -91 1734 -91 
Q 1441 -91 1130 -33 
Q 819 25 488 141 
L 488 750 
Q 750 597 1062 519 
Q 1375 441 1716 441 
Q 2309 441 2620 675 
Q 2931 909 2931 1356 
Q 2931 1769 2642 2001 
Q 2353 2234 1838 2234 
L 1294 2234 
L 1294 2753 
L 1863 2753 
Q 2328 2753 2575 2939 
Q 2822 3125 2822 3475 
Q 2822 3834 2567 4026 
Q 2313 4219 1838 4219 
Q 1578 4219 1281 4162 
Q 984 4106 628 3988 
L 628 4550 
Q 988 4650 1302 4700 
Q 1616 4750 1894 4750 
Q 2613 4750 3031 4423 
Q 3450 4097 3450 3541 
Q 3450 3153 3228 2886 
Q 3006 2619 2597 2516 
z
" transform="scale(0.015625)"/>
       </defs>
       <use xlink:href="#DejaVuSans-30"/>
       <use xlink:href="#DejaVuSans-2e" x="63.623047"/>
       <use xlink:href="#DejaVuSans-33" x="95.410156"/>
       <use xlink:href="#DejaVuSans-30" x="159.033203"/>
      </g>
     </g>
    </g>
    <g id="ytick_2">
     <g id="line2d_21">
      <path d="M 72 323.521424 
L 518.4 323.521424 
" clip-path="url(#p8a96a7c991)" style="fill: none; stroke: #b0b0b0; stroke-opacity: 0.5; stroke-width: 0.8; stroke-linecap: square"/>
     </g>
     <g id="line2d_22">
      <g>
       <use xlink:href="#mc91f0e97d5" x="72" y="323.521424" style="stroke: #000000; stroke-width: 0.8"/>
      </g>
     </g>
     <g id="text_12">
      <!-- 0.35 -->
      <g transform="translate(42.734375 327.320643)scale(0.1 -0.1)">
       <use xlink:href="#DejaVuSans-30"/>
       <use xlink:href="#DejaVuSans-2e" x="63.623047"/>
       <use xlink:href="#DejaVuSans-33" x="95.410156"/>
       <use xlink:href="#DejaVuSans-35" x="159.033203"/>
      </g>
     </g>
    </g>
    <g id="ytick_3">
     <g id="line2d_23">
      <path d="M 72 286.1327 
L 518.4 286.1327 
" clip-path="url(#p8a96a7c991)" style="fill: none; stroke: #b0b0b0; stroke-opacity: 0.5; stroke-width: 0.8; stroke-linecap: square"/>
     </g>
     <g id="line2d_24">
      <g>
       <use xlink:href="#mc91f0e97d5" x="72" y="286.1327" style="stroke: #000000; stroke-width: 0.8"/>
      </g>
     </g>
     <g id="text_13">
      <!-- 0.40 -->
      <g transform="translate(42.734375 289.931919)scale(0.1 -0.1)">
       <defs>
        <path id="DejaVuSans-34" d="M 2419 4116 
L 825 1625 
L 2419 1625 
L 2419 4116 
z
M 2253 4666 
L 3047 4666 
L 3047 1625 
L 3713 1625 
L 3713 1100 
L 3047 1100 
L 3047 0 
L 2419 0 
L 2419 1100 
L 313 1100 
L 313 1709 
L 2253 4666 
z
" transform="scale(0.015625)"/>
       </defs>
       <use xlink:href="#DejaVuSans-30"/>
       <use xlink:href="#DejaVuSans-2e" x="63.623047"/>
       <use xlink:href="#DejaVuSans-34" x="95.410156"/>
       <use xlink:href="#DejaVuSans-30" x="159.033203"/>
      </g>
     </g>
    </g>
    <g id="ytick_4">
     <g id="line2d_25">
      <path d="M 72 248.743976 
L 518.4 248.743976 
" clip-path="url(#p8a96a7c991)" style="fill: none; stroke: #b0b0b0; stroke-opacity: 0.5; stroke-width: 0.8; stroke-linecap: square"/>
     </g>
     <g id="line2d_26">
      <g>
       <use xlink:href="#mc91f0e97d5" x="72" y="248.743976" style="stroke: #000000; stroke-width: 0.8"/>
      </g>
     </g>
     <g id="text_14">
      <!-- 0.45 -->
      <g transform="translate(42.734375 252.543195)scale(0.1 -0.1)">
       <use xlink:href="#DejaVuSans-30"/>
       <use xlink:href="#DejaVuSans-2e" x="63.623047"/>
       <use xlink:href="#DejaVuSans-34" x="95.410156"/>
       <use xlink:href="#DejaVuSans-35" x="159.033203"/>
      </g>
     </g>
    </g>
    <g id="ytick_5">
     <g id="line2d_27">
      <path d="M 72 211.355252 
L 518.4 211.355252 
" clip-path="url(#p8a96a7c991)" style="fill: none; stroke: #b0b0b0; stroke-opacity: 0.5; stroke-width: 0.8; stroke-linecap: square"/>
     </g>
     <g id="line2d_28">
      <g>
       <use xlink:href="#mc91f0e97d5" x="72" y="211.355252" style="stroke: #000000; stroke-width: 0.8"/>
      </g>
     </g>
     <g id="text_15">
      <!-- 0.50 -->
      <g transform="translate(42.734375 215.154471)scale(0.1 -0.1)">
       <use xlink:href="#DejaVuSans-30"/>
       <use xlink:href="#DejaVuSans-2e" x="63.623047"/>
       <use xlink:href="#DejaVuSans-35" x="95.410156"/>
       <use xlink:href="#DejaVuSans-30" x="159.033203"/>
      </g>
     </g>
    </g>
    <g id="ytick_6">
     <g id="line2d_29">
      <path d="M 72 173.966528 
L 518.4 173.966528 
" clip-path="url(#p8a96a7c991)" style="fill: none; stroke: #b0b0b0; stroke-opacity: 0.5; stroke-width: 0.8; stroke-linecap: square"/>
     </g>
     <g id="line2d_30">
      <g>
       <use xlink:href="#mc91f0e97d5" x="72" y="173.966528" style="stroke: #000000; stroke-width: 0.8"/>
      </g>
     </g>
     <g id="text_16">
      <!-- 0.55 -->
      <g transform="translate(42.734375 177.765747)scale(0.1 -0.1)">
       <use xlink:href="#DejaVuSans-30"/>
       <use xlink:href="#DejaVuSans-2e" x="63.623047"/>
       <use xlink:href="#DejaVuSans-35" x="95.410156"/>
       <use xlink:href="#DejaVuSans-35" x="159.033203"/>
      </g>
     </g>
    </g>
    <g id="ytick_7">
     <g id="line2d_31">
      <path d="M 72 136.577804 
L 518.4 136.577804 
" clip-path="url(#p8a96a7c991)" style="fill: none; stroke: #b0b0b0; stroke-opacity: 0.5; stroke-width: 0.8; stroke-linecap: square"/>
     </g>
     <g id="line2d_32">
      <g>
       <use xlink:href="#mc91f0e97d5" x="72" y="136.577804" style="stroke: #000000; stroke-width: 0.8"/>
      </g>
     </g>
     <g id="text_17">
      <!-- 0.60 -->
      <g transform="translate(42.734375 140.377023)scale(0.1 -0.1)">
       <defs>
        <path id="DejaVuSans-36" d="M 2113 2584 
Q 1688 2584 1439 2293 
Q 1191 2003 1191 1497 
Q 1191 994 1439 701 
Q 1688 409 2113 409 
Q 2538 409 2786 701 
Q 3034 994 3034 1497 
Q 3034 2003 2786 2293 
Q 2538 2584 2113 2584 
z
M 3366 4563 
L 3366 3988 
Q 3128 4100 2886 4159 
Q 2644 4219 2406 4219 
Q 1781 4219 1451 3797 
Q 1122 3375 1075 2522 
Q 1259 2794 1537 2939 
Q 1816 3084 2150 3084 
Q 2853 3084 3261 2657 
Q 3669 2231 3669 1497 
Q 3669 778 3244 343 
Q 2819 -91 2113 -91 
Q 1303 -91 875 529 
Q 447 1150 447 2328 
Q 447 3434 972 4092 
Q 1497 4750 2381 4750 
Q 2619 4750 2861 4703 
Q 3103 4656 3366 4563 
z
" transform="scale(0.015625)"/>
       </defs>
       <use xlink:href="#DejaVuSans-30"/>
       <use xlink:href="#DejaVuSans-2e" x="63.623047"/>
       <use xlink:href="#DejaVuSans-36" x="95.410156"/>
       <use xlink:href="#DejaVuSans-30" x="159.033203"/>
      </g>
     </g>
    </g>
    <g id="ytick_8">
     <g id="line2d_33">
      <path d="M 72 99.18908 
L 518.4 99.18908 
" clip-path="url(#p8a96a7c991)" style="fill: none; stroke: #b0b0b0; stroke-opacity: 0.5; stroke-width: 0.8; stroke-linecap: square"/>
     </g>
     <g id="line2d_34">
      <g>
       <use xlink:href="#mc91f0e97d5" x="72" y="99.18908" style="stroke: #000000; stroke-width: 0.8"/>
      </g>
     </g>
     <g id="text_18">
      <!-- 0.65 -->
      <g transform="translate(42.734375 102.988299)scale(0.1 -0.1)">
       <use xlink:href="#DejaVuSans-30"/>
       <use xlink:href="#DejaVuSans-2e" x="63.623047"/>
       <use xlink:href="#DejaVuSans-36" x="95.410156"/>
       <use xlink:href="#DejaVuSans-35" x="159.033203"/>
      </g>
     </g>
    </g>
    <g id="ytick_9">
     <g id="line2d_35">
      <path d="M 72 61.800356 
L 518.4 61.800356 
" clip-path="url(#p8a96a7c991)" style="fill: none; stroke: #b0b0b0; stroke-opacity: 0.5; stroke-width: 0.8; stroke-linecap: square"/>
     </g>
     <g id="line2d_36">
      <g>
       <use xlink:href="#mc91f0e97d5" x="72" y="61.800356" style="stroke: #000000; stroke-width: 0.8"/>
      </g>
     </g>
     <g id="text_19">
      <!-- 0.70 -->
      <g transform="translate(42.734375 65.599575)scale(0.1 -0.1)">
       <use xlink:href="#DejaVuSans-30"/>
       <use xlink:href="#DejaVuSans-2e" x="63.623047"/>
       <use xlink:href="#DejaVuSans-37" x="95.410156"/>
       <use xlink:href="#DejaVuSans-30" x="159.033203"/>
      </g>
     </g>
    </g>
    <g id="text_20">
     <!-- Accuracy -->
     <g transform="translate(36.654687 240.988125)rotate(-90)scale(0.1 -0.1)">
      <defs>
       <path id="DejaVuSans-41" d="M 2188 4044 
L 1331 1722 
L 3047 1722 
L 2188 4044 
z
M 1831 4666 
L 2547 4666 
L 4325 0 
L 3669 0 
L 3244 1197 
L 1141 1197 
L 716 0 
L 50 0 
L 1831 4666 
z
" transform="scale(0.015625)"/>
       <path id="DejaVuSans-79" d="M 2059 -325 
Q 1816 -950 1584 -1140 
Q 1353 -1331 966 -1331 
L 506 -1331 
L 506 -850 
L 844 -850 
Q 1081 -850 1212 -737 
Q 1344 -625 1503 -206 
L 1606 56 
L 191 3500 
L 800 3500 
L 1894 763 
L 2988 3500 
L 3597 3500 
L 2059 -325 
z
" transform="scale(0.015625)"/>
      </defs>
      <use xlink:href="#DejaVuSans-41"/>
      <use xlink:href="#DejaVuSans-63" x="66.658203"/>
      <use xlink:href="#DejaVuSans-63" x="121.638672"/>
      <use xlink:href="#DejaVuSans-75" x="176.619141"/>
      <use xlink:href="#DejaVuSans-72" x="239.998047"/>
      <use xlink:href="#DejaVuSans-61" x="281.111328"/>
      <use xlink:href="#DejaVuSans-63" x="342.390625"/>
      <use xlink:href="#DejaVuSans-79" x="397.371094"/>
     </g>
    </g>
   </g>
   <g id="line2d_37">
    <path d="M 92.290909 340.64546 
L 94.309905 335.111929 
L 96.328901 343.038338 
L 98.347897 310.584926 
L 100.366893 292.114896 
L 102.385889 270.130326 
L 104.404885 267.288783 
L 106.423881 248.444866 
L 108.442877 255.698279 
L 110.461872 261.755252 
L 112.480868 237.452582 
L 114.499864 227.581958 
L 116.51886 232.891157 
L 118.537856 224.441306 
L 120.556852 220.777211 
L 122.575848 191.464451 
L 124.594844 206.195608 
L 126.61384 207.61638 
L 128.632836 205.971276 
L 130.651832 196.77365 
L 132.670828 193.184332 
L 134.689824 196.025875 
L 136.70882 197.371869 
L 138.727815 188.174243 
L 140.746811 200.28819 
L 142.765807 201.559407 
L 144.784803 171.349318 
L 146.803799 184.285816 
L 148.822795 160.057923 
L 150.841791 188.996795 
L 152.860787 181.219941 
L 154.879783 180.472166 
L 156.898779 183.313709 
L 158.917775 161.104807 
L 160.936771 158.637151 
L 162.955767 167.087003 
L 164.974763 152.580178 
L 166.993758 160.805697 
L 169.012754 159.833591 
L 173.050746 158.562374 
L 175.069742 159.160593 
L 177.088738 145.47632 
L 179.107734 167.610445 
L 181.12673 137.624688 
L 183.145726 150.785519 
L 185.164722 144.878101 
L 189.202714 153.253175 
L 191.22171 146.149318 
L 193.240706 149.439525 
L 195.259701 143.532107 
L 197.278697 140.241899 
L 199.297693 145.77543 
L 201.316689 146.822315 
L 203.335685 145.251988 
L 205.354681 147.869199 
L 207.373677 146.448427 
L 209.392673 137.549911 
L 211.411669 147.869199 
L 213.430665 139.419347 
L 215.449661 151.383739 
L 217.468657 129.100059 
L 219.487653 140.092344 
L 221.506649 130.146944 
L 223.525645 141.438338 
L 225.54464 124.314303 
L 227.563636 128.50184 
L 229.582632 136.428249 
L 231.601628 119.752878 
L 233.620624 134.409258 
L 235.63962 141.513116 
L 237.658616 126.931513 
L 239.677612 124.9873 
L 241.696608 129.773056 
L 243.715604 137.699466 
L 245.7346 142.036558 
L 247.753596 119.977211 
L 249.772592 127.754065 
L 251.791588 128.277507 
L 253.810583 123.865638 
L 255.829579 121.47276 
L 257.848575 127.60451 
L 259.867571 132.764154 
L 261.886567 126.034184 
L 263.905563 113.84546 
L 265.924559 123.117864 
L 267.943555 132.913709 
L 269.962551 121.996202 
L 271.981547 122.070979 
L 274.000543 121.547537 
L 276.019539 117.65911 
L 278.038535 117.06089 
L 280.057531 124.538635 
L 282.076526 115.864451 
L 284.095522 130.745163 
L 286.114518 115.864451 
L 288.133514 124.08997 
L 290.15251 128.427062 
L 292.171506 114.817567 
L 294.190502 111.377804 
L 296.209498 120.201543 
L 298.228494 111.527359 
L 300.24749 114.593234 
L 302.266486 114.593234 
L 304.285482 115.565341 
L 306.304478 111.078694 
L 308.323474 121.024095 
L 310.342469 121.098872 
L 312.361465 114.069792 
L 314.380461 110.854362 
L 316.399457 110.181365 
L 318.418453 109.284036 
L 320.437449 121.248427 
L 322.456445 129.324392 
L 324.475441 122.669199 
L 326.494437 122.968309 
L 328.513433 114.967122 
L 330.532429 115.714896 
L 332.551425 109.583145 
L 334.570421 111.078694 
L 336.589417 115.041899 
L 338.608412 118.332107 
L 340.627408 121.921424 
L 342.646404 109.284036 
L 344.6654 107.489377 
L 346.684396 118.556439 
L 348.703392 105.993828 
L 352.741384 112.574243 
L 354.76038 115.341009 
L 356.779376 111.377804 
L 358.798372 117.65911 
L 360.817368 110.929139 
L 362.836364 114.518457 
L 364.85536 109.807478 
L 366.874355 115.415786 
L 368.893351 108.087596 
L 370.912347 114.742789 
L 372.931343 109.209258 
L 374.950339 110.63003 
L 376.969335 114.294125 
L 378.988331 116.986113 
L 381.007327 114.892344 
L 383.026323 120.87454 
L 385.045319 110.854362 
L 387.064315 121.622315 
L 389.083311 117.808665 
L 391.102307 107.713709 
L 393.121303 114.294125 
L 395.140299 109.882255 
L 397.159294 103.750504 
L 399.17829 108.461484 
L 401.197286 121.17365 
L 405.235278 107.190267 
L 407.254274 117.65911 
L 409.27327 106.442493 
L 411.292266 117.509555 
L 413.311262 111.751691 
L 415.330258 116.836558 
L 417.349254 106.666825 
L 419.36825 105.993828 
L 421.387246 109.957033 
L 423.406242 112.424688 
L 425.425237 109.657923 
L 427.444233 118.107774 
L 429.463229 108.386706 
L 431.482225 118.332107 
L 433.501221 109.7327 
L 435.520217 107.938042 
L 437.539213 113.920237 
L 439.558209 106.891157 
L 441.577205 109.807478 
L 443.596201 117.210445 
L 445.615197 107.863264 
L 447.634193 127.828843 
L 449.653189 101.731513 
L 451.672185 111.078694 
L 453.69118 113.097685 
L 455.710176 109.583145 
L 457.729172 104.872166 
L 459.748168 106.666825 
L 461.767164 111.153472 
L 463.78616 109.284036 
L 465.805156 119.678101 
L 467.824152 117.509555 
L 469.843148 105.021721 
L 471.862144 104.124392 
L 473.88114 120.126766 
L 475.900136 114.593234 
L 477.919132 106.367715 
L 479.938128 103.825282 
L 481.957123 113.24724 
L 483.976119 115.341009 
L 485.995115 103.30184 
L 488.014111 113.920237 
L 490.033107 111.377804 
L 492.052103 110.779585 
L 494.071099 118.332107 
L 496.090095 114.817567 
L 498.109091 97.917864 
L 498.109091 97.917864 
" clip-path="url(#p8a96a7c991)" style="fill: none; stroke: #1f77b4; stroke-width: 1.5; stroke-linecap: square"/>
   </g>
   <g id="line2d_38">
    <path d="M 92.290909 347.898872 
L 94.309905 332.345163 
L 96.328901 334.887596 
L 98.347897 309.313709 
L 100.366893 269.008665 
L 102.385889 282.91727 
L 104.404885 253.155846 
L 106.423881 261.755252 
L 108.442877 250.837745 
L 110.461872 250.837745 
L 112.480868 233.040712 
L 114.499864 210.308368 
L 116.51886 204.774837 
L 118.537856 206.569496 
L 120.556852 195.87632 
L 122.575848 197.596202 
L 124.594844 197.745757 
L 126.61384 203.054955 
L 128.632836 186.304807 
L 130.651832 187.127359 
L 132.670828 167.76 
L 134.689824 159.534481 
L 136.70882 167.16178 
L 138.727815 167.76 
L 140.746811 158.338042 
L 142.765807 153.776617 
L 144.784803 145.77543 
L 146.803799 169.704214 
L 148.822795 150.635964 
L 150.841791 145.251988 
L 152.860787 156.31905 
L 154.879783 139.793234 
L 156.898779 144.279881 
L 158.917775 141.139228 
L 160.936771 139.868012 
L 162.955767 153.477507 
L 164.974763 131.41816 
L 166.993758 125.361187 
L 169.012754 133.960593 
L 171.03175 135.082255 
L 173.050746 138.821128 
L 175.069742 132.091157 
L 177.088738 143.008665 
L 179.107734 122.818754 
L 181.12673 130.221721 
L 183.145726 131.268605 
L 185.164722 132.539822 
L 187.183718 117.135668 
L 189.202714 127.305401 
L 191.22171 124.239525 
L 193.240706 128.277507 
L 195.259701 111.078694 
L 197.278697 113.471573 
L 199.297693 118.780772 
L 201.316689 118.705994 
L 203.335685 110.33092 
L 205.354681 112.050801 
L 207.373677 116.687003 
L 209.392673 112.723798 
L 211.411669 117.135668 
L 213.430665 108.087596 
L 215.449661 105.844273 
L 217.468657 101.581958 
L 219.487653 104.498279 
L 221.506649 102.105401 
L 223.525645 104.049614 
L 225.54464 104.797389 
L 227.563636 116.836558 
L 229.582632 101.955846 
L 231.601628 100.385519 
L 233.620624 93.954659 
L 235.63962 100.161187 
L 237.658616 94.552878 
L 239.677612 96.123205 
L 241.696608 87.299466 
L 243.715604 88.122018 
L 245.7346 97.244866 
L 247.753596 92.608665 
L 249.772592 95.67454 
L 251.791588 99.862077 
L 253.810583 91.86089 
L 255.829579 85.654362 
L 257.848575 91.935668 
L 259.867571 103.152285 
L 261.886567 98.590861 
L 263.905563 101.731513 
L 265.924559 91.337448 
L 267.943555 89.542789 
L 269.962551 91.935668 
L 271.981547 89.692344 
L 274.000543 95.599763 
L 276.019539 81.61638 
L 278.038535 90.141009 
L 280.057531 87.149911 
L 282.076526 90.888783 
L 284.095522 87.224688 
L 286.114518 88.122018 
L 288.133514 90.963561 
L 290.15251 89.393234 
L 294.190502 80.868605 
L 296.209498 88.122018 
L 298.228494 81.392047 
L 300.24749 82.513709 
L 302.266486 85.355252 
L 304.285482 92.384332 
L 306.304478 85.729139 
L 308.323474 79.896499 
L 310.342469 87.299466 
L 312.361465 82.513709 
L 314.380461 89.393234 
L 316.399457 75.035964 
L 318.418453 92.982552 
L 320.437449 83.560593 
L 322.456445 99.712522 
L 324.475441 76.755846 
L 326.494437 78.625282 
L 328.513433 94.029436 
L 330.532429 81.541602 
L 332.551425 82.663264 
L 334.570421 85.654362 
L 336.589417 80.270386 
L 338.608412 82.588487 
L 340.627408 82.588487 
L 342.646404 88.196795 
L 344.6654 78.475727 
L 346.684396 88.570682 
L 350.722388 73.390861 
L 352.741384 76.456736 
L 354.76038 83.934481 
L 356.779376 83.261484 
L 358.798372 78.326172 
L 360.817368 73.914303 
L 362.836364 76.456736 
L 364.85536 78.475727 
L 366.874355 85.953472 
L 368.893351 76.157626 
L 370.912347 82.738042 
L 372.931343 73.615193 
L 374.950339 78.251395 
L 376.969335 78.700059 
L 378.988331 77.877507 
L 381.007327 82.812819 
L 383.026323 85.803917 
L 385.045319 76.980178 
L 387.064315 67.184332 
L 389.083311 78.475727 
L 391.102307 80.046053 
L 393.121303 74.5873 
L 395.140299 79.223501 
L 397.159294 88.04724 
L 399.17829 77.428843 
L 401.197286 84.682255 
L 403.216282 77.653175 
L 405.235278 82.364154 
L 407.254274 76.082849 
L 409.27327 67.034777 
L 411.292266 87.000356 
L 413.311262 74.662077 
L 415.330258 76.157626 
L 417.349254 79.447834 
L 419.36825 70.624095 
L 421.387246 80.943383 
L 423.406242 84.5327 
L 425.425237 66.96 
L 427.444233 80.345163 
L 429.463229 86.850801 
L 431.482225 74.811632 
L 433.501221 79.896499 
L 435.520217 72.119644 
L 437.539213 71.147537 
L 439.558209 80.419941 
L 441.577205 70.923205 
L 443.596201 76.681068 
L 445.615197 74.961187 
L 447.634193 76.681068 
L 449.653189 73.091751 
L 451.672185 79.971276 
L 453.69118 72.269199 
L 455.710176 71.745757 
L 457.729172 93.132107 
L 459.748168 76.905401 
L 461.767164 87.449021 
L 463.78616 69.053769 
L 465.805156 87.748131 
L 467.824152 76.008071 
L 469.843148 77.428843 
L 471.862144 68.380772 
L 473.88114 79.073947 
L 475.900136 82.588487 
L 477.919132 75.260297 
L 479.938128 72.493531 
L 481.957123 81.691157 
L 485.995115 70.77365 
L 488.014111 88.122018 
L 490.033107 71.745757 
L 492.052103 67.932107 
L 494.071099 75.484629 
L 496.090095 71.895312 
L 498.109091 70.77365 
L 498.109091 70.77365 
" clip-path="url(#p8a96a7c991)" style="fill: none; stroke: #ff7f0e; stroke-width: 1.5; stroke-linecap: square"/>
   </g>
   <g id="line2d_39">
    <path d="M 92.290909 363.153472 
L 94.309905 350.216973 
L 96.328901 343.187893 
L 98.347897 325.390861 
L 100.366893 296.601543 
L 102.385889 279.627062 
L 104.404885 283.590267 
L 106.423881 253.60451 
L 108.442877 258.689377 
L 110.461872 240.892344 
L 112.480868 236.555252 
L 114.499864 209.037151 
L 116.51886 214.421128 
L 118.537856 220.328546 
L 120.556852 202.307181 
L 122.575848 215.393234 
L 124.594844 198.044866 
L 126.61384 193.932107 
L 128.632836 180.023501 
L 130.651832 192.511335 
L 132.670828 194.679881 
L 134.689824 176.359407 
L 136.70882 175.536855 
L 138.727815 181.444273 
L 140.746811 186.155252 
L 142.765807 182.266825 
L 144.784803 168.05911 
L 146.803799 173.443086 
L 148.822795 149.738635 
L 150.841791 158.562374 
L 152.860787 168.657329 
L 154.879783 170.97543 
L 156.898779 145.326766 
L 158.917775 144.130326 
L 160.936771 165.367122 
L 162.955767 147.196202 
L 164.974763 143.457329 
L 166.993758 155.421721 
L 169.012754 135.381365 
L 171.03175 129.922611 
L 173.050746 146.523205 
L 175.069742 132.614599 
L 177.088738 139.793234 
L 179.107734 137.624688 
L 181.12673 137.549911 
L 183.145726 133.437151 
L 185.164722 148.243086 
L 187.183718 128.277507 
L 189.202714 158.113709 
L 191.22171 130.670386 
L 193.240706 139.419347 
L 195.259701 131.044273 
L 197.278697 135.23181 
L 199.297693 123.192641 
L 201.316689 125.510742 
L 203.335685 128.277507 
L 205.354681 115.640119 
L 207.373677 119.378991 
L 209.392673 119.453769 
L 211.411669 134.184926 
L 213.430665 122.370089 
L 215.449661 114.668012 
L 217.468657 124.38908 
L 219.487653 105.171276 
L 221.506649 119.453769 
L 223.525645 110.929139 
L 225.54464 104.797389 
L 227.563636 123.267418 
L 229.582632 103.900059 
L 231.601628 121.622315 
L 233.620624 120.500653 
L 235.63962 113.097685 
L 237.658616 115.490564 
L 241.696608 111.078694 
L 243.715604 116.313116 
L 245.7346 113.54635 
L 247.753596 107.190267 
L 249.772592 105.619941 
L 251.791588 104.946944 
L 253.810583 107.489377 
L 255.829579 96.646647 
L 257.848575 84.158813 
L 259.867571 96.497092 
L 261.886567 103.451395 
L 263.905563 101.507181 
L 265.924559 105.844273 
L 267.943555 105.395608 
L 269.962551 102.030623 
L 271.981547 100.161187 
L 274.000543 89.692344 
L 276.019539 91.337448 
L 278.038535 110.63003 
L 280.057531 107.339822 
L 282.076526 98.516083 
L 284.095522 105.395608 
L 286.114518 96.123205 
L 288.133514 95.07632 
L 290.15251 100.834184 
L 292.171506 101.731513 
L 294.190502 100.086409 
L 296.209498 85.579585 
L 298.228494 103.30184 
L 300.24749 93.431217 
L 302.266486 100.460297 
L 304.285482 100.609852 
L 306.304478 106.666825 
L 308.323474 109.059703 
L 310.342469 91.337448 
L 312.361465 101.058516 
L 314.380461 100.011632 
L 316.399457 96.796202 
L 318.418453 95.898872 
L 320.437449 93.206884 
L 322.456445 97.394421 
L 324.475441 103.900059 
L 326.494437 93.281662 
L 328.513433 91.038338 
L 330.532429 98.366528 
L 332.551425 96.497092 
L 334.570421 88.04724 
L 336.589417 94.029436 
L 338.608412 94.328546 
L 340.627408 86.626469 
L 342.646404 85.205697 
L 344.6654 85.803917 
L 346.684396 100.983739 
L 348.703392 100.385519 
L 350.722388 103.30184 
L 352.741384 92.608665 
L 354.76038 87.000356 
L 356.779376 90.514896 
L 358.798372 89.991454 
L 360.817368 91.038338 
L 362.836364 104.647834 
L 364.85536 94.627656 
L 366.874355 88.94457 
L 368.893351 102.778398 
L 370.912347 96.497092 
L 372.931343 106.81638 
L 374.950339 77.578398 
L 376.969335 93.057329 
L 378.988331 79.746944 
L 381.007327 87.299466 
L 383.026323 87.224688 
L 385.045319 96.571869 
L 387.064315 87.523798 
L 389.083311 90.215786 
L 391.102307 93.805104 
L 393.121303 95.300653 
L 395.140299 91.786113 
L 397.159294 103.376617 
L 399.17829 85.654362 
L 401.197286 90.066231 
L 403.216282 81.392047 
L 405.235278 89.767122 
L 407.254274 82.214599 
L 409.27327 92.309555 
L 411.292266 85.803917 
L 415.330258 96.945757 
L 419.36825 78.251395 
L 421.387246 92.309555 
L 423.406242 82.962374 
L 425.425237 90.514896 
L 427.444233 82.588487 
L 429.463229 80.943383 
L 431.482225 84.084036 
L 433.501221 90.215786 
L 435.520217 90.365341 
L 437.539213 91.187893 
L 441.577205 79.672166 
L 443.596201 90.066231 
L 445.615197 102.778398 
L 447.634193 86.327359 
L 449.653189 94.178991 
L 451.672185 81.765935 
L 453.69118 89.094125 
L 455.710176 86.103027 
L 457.729172 82.214599 
L 459.748168 93.879881 
L 461.767164 90.814006 
L 463.78616 80.345163 
L 465.805156 79.447834 
L 467.824152 85.205697 
L 469.843148 88.34635 
L 471.862144 89.019347 
L 473.88114 84.981365 
L 475.900136 94.403323 
L 477.919132 83.859703 
L 479.938128 78.40095 
L 481.957123 91.337448 
L 483.976119 88.122018 
L 485.995115 90.066231 
L 488.014111 89.991454 
L 490.033107 99.7873 
L 492.052103 96.945757 
L 494.071099 90.589674 
L 496.090095 107.489377 
L 498.109091 89.617567 
L 498.109091 89.617567 
" clip-path="url(#p8a96a7c991)" style="fill: none; stroke: #2ca02c; stroke-width: 1.5; stroke-linecap: square"/>
   </g>
   <g id="line2d_40">
    <path d="M 92.290909 362.63003 
L 94.309905 369.36 
L 96.328901 360.461484 
L 98.347897 321.352878 
L 100.366893 305.948724 
L 102.385889 284.562374 
L 104.404885 264.74635 
L 106.423881 267.214006 
L 108.442877 267.96178 
L 110.461872 247.996202 
L 112.480868 237.153472 
L 114.499864 240.593234 
L 116.51886 234.162374 
L 118.537856 214.271573 
L 120.556852 211.280475 
L 122.575848 212.476914 
L 124.594844 203.727953 
L 126.61384 217.636558 
L 128.632836 193.707774 
L 130.651832 190.866231 
L 132.670828 209.635371 
L 134.689824 206.419941 
L 136.70882 181.967715 
L 138.727815 180.621721 
L 140.746811 179.425282 
L 142.765807 168.432997 
L 144.784803 171.199763 
L 146.803799 167.984332 
L 148.822795 174.938635 
L 150.841791 157.964154 
L 152.860787 161.403917 
L 154.879783 164.54457 
L 156.898779 156.244273 
L 158.917775 166.040119 
L 160.936771 165.367122 
L 162.955767 149.140415 
L 164.974763 140.690564 
L 166.993758 158.562374 
L 169.012754 162.301246 
L 171.03175 149.364748 
L 173.050746 144.055549 
L 175.069742 152.80451 
L 177.088738 153.178398 
L 179.107734 135.83003 
L 181.12673 138.895905 
L 183.145726 139.419347 
L 185.164722 139.04546 
L 187.183718 140.167122 
L 189.202714 141.139228 
L 191.22171 124.164748 
L 193.240706 124.762967 
L 195.259701 129.623501 
L 197.278697 143.457329 
L 199.297693 130.520831 
L 201.316689 132.913709 
L 203.335685 134.9327 
L 205.354681 120.724985 
L 207.373677 134.708368 
L 209.392673 131.41816 
L 211.411669 127.454955 
L 213.430665 124.463858 
L 215.449661 140.690564 
L 217.468657 115.116677 
L 219.487653 121.846647 
L 221.506649 127.90362 
L 223.525645 121.846647 
L 225.54464 124.08997 
L 227.563636 119.304214 
L 229.582632 135.23181 
L 231.601628 130.371276 
L 233.620624 116.836558 
L 235.63962 118.855549 
L 237.658616 116.687003 
L 239.677612 111.751691 
L 241.696608 118.107774 
L 243.715604 102.778398 
L 245.7346 107.414599 
L 247.753596 123.192641 
L 249.772592 114.14457 
L 251.791588 107.339822 
L 253.810583 110.181365 
L 255.829579 111.676914 
L 257.848575 105.021721 
L 259.867571 108.162374 
L 261.886567 107.190267 
L 263.905563 109.134481 
L 265.924559 115.640119 
L 267.943555 119.453769 
L 269.962551 132.539822 
L 271.981547 106.666825 
L 274.000543 102.180178 
L 276.019539 108.536261 
L 278.038535 113.471573 
L 280.057531 121.47276 
L 282.076526 98.441306 
L 284.095522 110.33092 
L 286.114518 105.021721 
L 288.133514 116.238338 
L 290.15251 114.892344 
L 292.171506 105.470386 
L 294.190502 105.395608 
L 296.209498 112.125579 
L 298.228494 104.797389 
L 300.24749 102.778398 
L 302.266486 100.011632 
L 304.285482 100.161187 
L 306.304478 105.021721 
L 308.323474 110.256142 
L 310.342469 105.993828 
L 312.361465 94.552878 
L 314.380461 92.533887 
L 316.399457 101.282849 
L 318.418453 90.365341 
L 320.437449 106.21816 
L 322.456445 111.303027 
L 324.475441 111.527359 
L 326.494437 93.057329 
L 328.513433 93.580772 
L 330.532429 100.908961 
L 332.551425 126.482849 
L 334.570421 115.266231 
L 336.589417 126.931513 
L 338.608412 99.039525 
L 340.627408 96.497092 
L 342.646404 106.367715 
L 344.6654 101.282849 
L 346.684396 105.021721 
L 348.703392 106.292938 
L 350.722388 98.665638 
L 352.741384 104.124392 
L 354.76038 100.460297 
L 356.779376 98.964748 
L 358.798372 99.48819 
L 360.817368 94.851988 
L 362.836364 97.693531 
L 364.85536 95.07632 
L 366.874355 96.646647 
L 368.893351 102.479288 
L 370.912347 106.51727 
L 372.931343 101.432404 
L 374.950339 102.479288 
L 376.969335 102.030623 
L 378.988331 91.786113 
L 381.007327 95.07632 
L 383.026323 101.208071 
L 385.045319 94.253769 
L 387.064315 99.637745 
L 389.083311 97.618754 
L 391.102307 99.114303 
L 393.121303 100.385519 
L 395.140299 90.888783 
L 397.159294 105.545163 
L 399.17829 101.507181 
L 401.197286 90.066231 
L 403.216282 91.187893 
L 405.235278 94.702433 
L 407.254274 88.869792 
L 409.27327 96.048427 
L 411.292266 101.282849 
L 413.311262 92.45911 
L 415.330258 95.225875 
L 417.349254 97.618754 
L 419.36825 91.412226 
L 421.387246 101.731513 
L 423.406242 96.197982 
L 425.425237 92.010445 
L 427.444233 103.227062 
L 429.463229 90.814006 
L 431.482225 100.161187 
L 433.501221 96.048427 
L 435.520217 96.721424 
L 437.539213 105.91905 
L 439.558209 99.114303 
L 441.577205 95.749318 
L 443.596201 85.579585 
L 445.615197 96.123205 
L 447.634193 95.67454 
L 449.653189 105.470386 
L 451.672185 96.796202 
L 453.69118 94.627656 
L 455.710176 102.927953 
L 457.729172 92.683442 
L 459.748168 87.299466 
L 461.767164 89.767122 
L 463.78616 99.48819 
L 465.805156 88.495905 
L 467.824152 99.114303 
L 469.843148 92.907774 
L 471.862144 94.178991 
L 473.88114 90.739228 
L 475.900136 92.384332 
L 477.919132 97.244866 
L 479.938128 106.741602 
L 481.957123 97.917864 
L 483.976119 90.215786 
L 485.995115 112.050801 
L 488.014111 98.441306 
L 490.033107 96.422315 
L 492.052103 104.498279 
L 494.071099 103.077507 
L 496.090095 86.028249 
L 498.109091 119.902433 
L 498.109091 119.902433 
" clip-path="url(#p8a96a7c991)" style="fill: none; stroke: #d62728; stroke-width: 1.5; stroke-linecap: square"/>
   </g>
   <g id="patch_3">
    <path d="M 72 384.48 
L 72 51.84 
" style="fill: none; stroke: #000000; stroke-width: 0.8; stroke-linejoin: miter; stroke-linecap: square"/>
   </g>
   <g id="patch_4">
    <path d="M 518.4 384.48 
L 518.4 51.84 
" style="fill: none; stroke: #000000; stroke-width: 0.8; stroke-linejoin: miter; stroke-linecap: square"/>
   </g>
   <g id="patch_5">
    <path d="M 72 384.48 
L 518.4 384.48 
" style="fill: none; stroke: #000000; stroke-width: 0.8; stroke-linejoin: miter; stroke-linecap: square"/>
   </g>
   <g id="patch_6">
    <path d="M 72 51.84 
L 518.4 51.84 
" style="fill: none; stroke: #000000; stroke-width: 0.8; stroke-linejoin: miter; stroke-linecap: square"/>
   </g>
   <g id="text_21">
    <!-- Clustered-Common -->
    <g transform="translate(237.350625 45.84)scale(0.12 -0.12)">
     <defs>
      <path id="DejaVuSans-6c" d="M 603 4863 
L 1178 4863 
L 1178 0 
L 603 0 
L 603 4863 
z
" transform="scale(0.015625)"/>
      <path id="DejaVuSans-65" d="M 3597 1894 
L 3597 1613 
L 953 1613 
Q 991 1019 1311 708 
Q 1631 397 2203 397 
Q 2534 397 2845 478 
Q 3156 559 3463 722 
L 3463 178 
Q 3153 47 2828 -22 
Q 2503 -91 2169 -91 
Q 1331 -91 842 396 
Q 353 884 353 1716 
Q 353 2575 817 3079 
Q 1281 3584 2069 3584 
Q 2775 3584 3186 3129 
Q 3597 2675 3597 1894 
z
M 3022 2063 
Q 3016 2534 2758 2815 
Q 2500 3097 2075 3097 
Q 1594 3097 1305 2825 
Q 1016 2553 972 2059 
L 3022 2063 
z
" transform="scale(0.015625)"/>
      <path id="DejaVuSans-2d" d="M 313 2009 
L 1997 2009 
L 1997 1497 
L 313 1497 
L 313 2009 
z
" transform="scale(0.015625)"/>
     </defs>
     <use xlink:href="#DejaVuSans-43"/>
     <use xlink:href="#DejaVuSans-6c" x="69.824219"/>
     <use xlink:href="#DejaVuSans-75" x="97.607422"/>
     <use xlink:href="#DejaVuSans-73" x="160.986328"/>
     <use xlink:href="#DejaVuSans-74" x="213.085938"/>
     <use xlink:href="#DejaVuSans-65" x="252.294922"/>
     <use xlink:href="#DejaVuSans-72" x="313.818359"/>
     <use xlink:href="#DejaVuSans-65" x="352.681641"/>
     <use xlink:href="#DejaVuSans-64" x="414.205078"/>
     <use xlink:href="#DejaVuSans-2d" x="477.681641"/>
     <use xlink:href="#DejaVuSans-43" x="513.765625"/>
     <use xlink:href="#DejaVuSans-6f" x="583.589844"/>
     <use xlink:href="#DejaVuSans-6d" x="644.771484"/>
     <use xlink:href="#DejaVuSans-6d" x="742.183594"/>
     <use xlink:href="#DejaVuSans-6f" x="839.595703"/>
     <use xlink:href="#DejaVuSans-6e" x="900.777344"/>
    </g>
   </g>
   <g id="legend_1">
    <g id="patch_7">
     <path d="M 79 118.5525 
L 124.203125 118.5525 
Q 126.203125 118.5525 126.203125 116.5525 
L 126.203125 58.84 
Q 126.203125 56.84 124.203125 56.84 
L 79 56.84 
Q 77 56.84 77 58.84 
L 77 116.5525 
Q 77 118.5525 79 118.5525 
z
" style="fill: #ffffff; opacity: 0.8; stroke: #cccccc; stroke-linejoin: miter"/>
    </g>
    <g id="line2d_41">
     <path d="M 81 64.938438 
L 91 64.938438 
L 101 64.938438 
" style="fill: none; stroke: #1f77b4; stroke-width: 1.5; stroke-linecap: square"/>
    </g>
    <g id="text_22">
     <!-- V1 -->
     <g transform="translate(109 68.438438)scale(0.1 -0.1)">
      <defs>
       <path id="DejaVuSans-56" d="M 1831 0 
L 50 4666 
L 709 4666 
L 2188 738 
L 3669 4666 
L 4325 4666 
L 2547 0 
L 1831 0 
z
" transform="scale(0.015625)"/>
      </defs>
      <use xlink:href="#DejaVuSans-56"/>
      <use xlink:href="#DejaVuSans-31" x="68.408203"/>
     </g>
    </g>
    <g id="line2d_42">
     <path d="M 81 79.616563 
L 91 79.616563 
L 101 79.616563 
" style="fill: none; stroke: #ff7f0e; stroke-width: 1.5; stroke-linecap: square"/>
    </g>
    <g id="text_23">
     <!-- V2 -->
     <g transform="translate(109 83.116563)scale(0.1 -0.1)">
      <use xlink:href="#DejaVuSans-56"/>
      <use xlink:href="#DejaVuSans-32" x="68.408203"/>
     </g>
    </g>
    <g id="line2d_43">
     <path d="M 81 94.294688 
L 91 94.294688 
L 101 94.294688 
" style="fill: none; stroke: #2ca02c; stroke-width: 1.5; stroke-linecap: square"/>
    </g>
    <g id="text_24">
     <!-- V3 -->
     <g transform="translate(109 97.794688)scale(0.1 -0.1)">
      <use xlink:href="#DejaVuSans-56"/>
      <use xlink:href="#DejaVuSans-33" x="68.408203"/>
     </g>
    </g>
    <g id="line2d_44">
     <path d="M 81 108.972813 
L 91 108.972813 
L 101 108.972813 
" style="fill: none; stroke: #d62728; stroke-width: 1.5; stroke-linecap: square"/>
    </g>
    <g id="text_25">
     <!-- V4 -->
     <g transform="translate(109 112.472813)scale(0.1 -0.1)">
      <use xlink:href="#DejaVuSans-56"/>
      <use xlink:href="#DejaVuSans-34" x="68.408203"/>
     </g>
    </g>
   </g>
  </g>
 </g>
 <defs>
  <clipPath id="p8a96a7c991">
   <rect x="72" y="51.84" width="446.4" height="332.64"/>
  </clipPath>
 </defs>
</svg>
