<?xml version="1.0" encoding="utf-8" standalone="no"?>
<!DOCTYPE svg PUBLIC "-//W3C//DTD SVG 1.1//EN"
  "http://www.w3.org/Graphics/SVG/1.1/DTD/svg11.dtd">
<svg xmlns:xlink="http://www.w3.org/1999/xlink" width="576pt" height="432pt" viewBox="0 0 576 432" xmlns="http://www.w3.org/2000/svg" version="1.1">
 <metadata>
  <rdf:RDF xmlns:dc="http://purl.org/dc/elements/1.1/" xmlns:cc="http://creativecommons.org/ns#" xmlns:rdf="http://www.w3.org/1999/02/22-rdf-syntax-ns#">
   <cc:Work>
    <dc:type rdf:resource="http://purl.org/dc/dcmitype/StillImage"/>
    <dc:date>2023-08-04T13:23:50.966150</dc:date>
    <dc:format>image/svg+xml</dc:format>
    <dc:creator>
     <cc:Agent>
      <dc:title>Matplotlib v3.5.2, https://matplotlib.org/</dc:title>
     </cc:Agent>
    </dc:creator>
   </cc:Work>
  </rdf:RDF>
 </metadata>
 <defs>
  <style type="text/css">*{stroke-linejoin: round; stroke-linecap: butt}</style>
 </defs>
 <g id="figure_1">
  <g id="patch_1">
   <path d="M 0 432 
L 576 432 
L 576 0 
L 0 0 
L 0 432 
z
" style="fill: none"/>
  </g>
  <g id="axes_1">
   <g id="patch_2">
    <path d="M 72 378 
L 518.4 378 
L 518.4 51.84 
L 72 51.84 
z
" style="fill: #ffffff"/>
   </g>
   <g id="matplotlib.axis_1">
    <g id="xtick_1">
     <g id="line2d_1">
      <path d="M 92.290909 378 
L 92.290909 51.84 
" clip-path="url(#p9f2d087b7a)" style="fill: none; stroke: #b0b0b0; stroke-opacity: 0.5; stroke-width: 0.8; stroke-linecap: square"/>
     </g>
     <g id="line2d_2">
      <defs>
       <path id="mb9814fb284" d="M 0 0 
L 0 3.5 
" style="stroke: #000000; stroke-width: 0.8"/>
      </defs>
      <g>
       <use xlink:href="#mb9814fb284" x="92.290909" y="378" style="stroke: #000000; stroke-width: 0.8"/>
      </g>
     </g>
     <g id="text_1">
      <!-- 0 -->
      <g transform="translate(89.109659 392.598437)scale(0.1 -0.1)">
       <defs>
        <path id="DejaVuSans-30" d="M 2034 4250 
Q 1547 4250 1301 3770 
Q 1056 3291 1056 2328 
Q 1056 1369 1301 889 
Q 1547 409 2034 409 
Q 2525 409 2770 889 
Q 3016 1369 3016 2328 
Q 3016 3291 2770 3770 
Q 2525 4250 2034 4250 
z
M 2034 4750 
Q 2819 4750 3233 4129 
Q 3647 3509 3647 2328 
Q 3647 1150 3233 529 
Q 2819 -91 2034 -91 
Q 1250 -91 836 529 
Q 422 1150 422 2328 
Q 422 3509 836 4129 
Q 1250 4750 2034 4750 
z
" transform="scale(0.015625)"/>
       </defs>
       <use xlink:href="#DejaVuSans-30"/>
      </g>
     </g>
    </g>
    <g id="xtick_2">
     <g id="line2d_3">
      <path d="M 173.454545 378 
L 173.454545 51.84 
" clip-path="url(#p9f2d087b7a)" style="fill: none; stroke: #b0b0b0; stroke-opacity: 0.5; stroke-width: 0.8; stroke-linecap: square"/>
     </g>
     <g id="line2d_4">
      <g>
       <use xlink:href="#mb9814fb284" x="173.454545" y="378" style="stroke: #000000; stroke-width: 0.8"/>
      </g>
     </g>
     <g id="text_2">
      <!-- 50 -->
      <g transform="translate(167.092045 392.598437)scale(0.1 -0.1)">
       <defs>
        <path id="DejaVuSans-35" d="M 691 4666 
L 3169 4666 
L 3169 4134 
L 1269 4134 
L 1269 2991 
Q 1406 3038 1543 3061 
Q 1681 3084 1819 3084 
Q 2600 3084 3056 2656 
Q 3513 2228 3513 1497 
Q 3513 744 3044 326 
Q 2575 -91 1722 -91 
Q 1428 -91 1123 -41 
Q 819 9 494 109 
L 494 744 
Q 775 591 1075 516 
Q 1375 441 1709 441 
Q 2250 441 2565 725 
Q 2881 1009 2881 1497 
Q 2881 1984 2565 2268 
Q 2250 2553 1709 2553 
Q 1456 2553 1204 2497 
Q 953 2441 691 2322 
L 691 4666 
z
" transform="scale(0.015625)"/>
       </defs>
       <use xlink:href="#DejaVuSans-35"/>
       <use xlink:href="#DejaVuSans-30" x="63.623047"/>
      </g>
     </g>
    </g>
    <g id="xtick_3">
     <g id="line2d_5">
      <path d="M 254.618182 378 
L 254.618182 51.84 
" clip-path="url(#p9f2d087b7a)" style="fill: none; stroke: #b0b0b0; stroke-opacity: 0.5; stroke-width: 0.8; stroke-linecap: square"/>
     </g>
     <g id="line2d_6">
      <g>
       <use xlink:href="#mb9814fb284" x="254.618182" y="378" style="stroke: #000000; stroke-width: 0.8"/>
      </g>
     </g>
     <g id="text_3">
      <!-- 100 -->
      <g transform="translate(245.074432 392.598437)scale(0.1 -0.1)">
       <defs>
        <path id="DejaVuSans-31" d="M 794 531 
L 1825 531 
L 1825 4091 
L 703 3866 
L 703 4441 
L 1819 4666 
L 2450 4666 
L 2450 531 
L 3481 531 
L 3481 0 
L 794 0 
L 794 531 
z
" transform="scale(0.015625)"/>
       </defs>
       <use xlink:href="#DejaVuSans-31"/>
       <use xlink:href="#DejaVuSans-30" x="63.623047"/>
       <use xlink:href="#DejaVuSans-30" x="127.246094"/>
      </g>
     </g>
    </g>
    <g id="xtick_4">
     <g id="line2d_7">
      <path d="M 335.781818 378 
L 335.781818 51.84 
" clip-path="url(#p9f2d087b7a)" style="fill: none; stroke: #b0b0b0; stroke-opacity: 0.5; stroke-width: 0.8; stroke-linecap: square"/>
     </g>
     <g id="line2d_8">
      <g>
       <use xlink:href="#mb9814fb284" x="335.781818" y="378" style="stroke: #000000; stroke-width: 0.8"/>
      </g>
     </g>
     <g id="text_4">
      <!-- 150 -->
      <g transform="translate(326.238068 392.598437)scale(0.1 -0.1)">
       <use xlink:href="#DejaVuSans-31"/>
       <use xlink:href="#DejaVuSans-35" x="63.623047"/>
       <use xlink:href="#DejaVuSans-30" x="127.246094"/>
      </g>
     </g>
    </g>
    <g id="xtick_5">
     <g id="line2d_9">
      <path d="M 416.945455 378 
L 416.945455 51.84 
" clip-path="url(#p9f2d087b7a)" style="fill: none; stroke: #b0b0b0; stroke-opacity: 0.5; stroke-width: 0.8; stroke-linecap: square"/>
     </g>
     <g id="line2d_10">
      <g>
       <use xlink:href="#mb9814fb284" x="416.945455" y="378" style="stroke: #000000; stroke-width: 0.8"/>
      </g>
     </g>
     <g id="text_5">
      <!-- 200 -->
      <g transform="translate(407.401705 392.598437)scale(0.1 -0.1)">
       <defs>
        <path id="DejaVuSans-32" d="M 1228 531 
L 3431 531 
L 3431 0 
L 469 0 
L 469 531 
Q 828 903 1448 1529 
Q 2069 2156 2228 2338 
Q 2531 2678 2651 2914 
Q 2772 3150 2772 3378 
Q 2772 3750 2511 3984 
Q 2250 4219 1831 4219 
Q 1534 4219 1204 4116 
Q 875 4013 500 3803 
L 500 4441 
Q 881 4594 1212 4672 
Q 1544 4750 1819 4750 
Q 2544 4750 2975 4387 
Q 3406 4025 3406 3419 
Q 3406 3131 3298 2873 
Q 3191 2616 2906 2266 
Q 2828 2175 2409 1742 
Q 1991 1309 1228 531 
z
" transform="scale(0.015625)"/>
       </defs>
       <use xlink:href="#DejaVuSans-32"/>
       <use xlink:href="#DejaVuSans-30" x="63.623047"/>
       <use xlink:href="#DejaVuSans-30" x="127.246094"/>
      </g>
     </g>
    </g>
    <g id="xtick_6">
     <g id="line2d_11">
      <path d="M 498.109091 378 
L 498.109091 51.84 
" clip-path="url(#p9f2d087b7a)" style="fill: none; stroke: #b0b0b0; stroke-opacity: 0.5; stroke-width: 0.8; stroke-linecap: square"/>
     </g>
     <g id="line2d_12">
      <g>
       <use xlink:href="#mb9814fb284" x="498.109091" y="378" style="stroke: #000000; stroke-width: 0.8"/>
      </g>
     </g>
     <g id="text_6">
      <!-- 250 -->
      <g transform="translate(488.565341 392.598437)scale(0.1 -0.1)">
       <use xlink:href="#DejaVuSans-32"/>
       <use xlink:href="#DejaVuSans-35" x="63.623047"/>
       <use xlink:href="#DejaVuSans-30" x="127.246094"/>
      </g>
     </g>
    </g>
    <g id="text_7">
     <!-- Communication rounds -->
     <g transform="translate(237.083594 406.276563)scale(0.1 -0.1)">
      <defs>
       <path id="DejaVuSans-43" d="M 4122 4306 
L 4122 3641 
Q 3803 3938 3442 4084 
Q 3081 4231 2675 4231 
Q 1875 4231 1450 3742 
Q 1025 3253 1025 2328 
Q 1025 1406 1450 917 
Q 1875 428 2675 428 
Q 3081 428 3442 575 
Q 3803 722 4122 1019 
L 4122 359 
Q 3791 134 3420 21 
Q 3050 -91 2638 -91 
Q 1578 -91 968 557 
Q 359 1206 359 2328 
Q 359 3453 968 4101 
Q 1578 4750 2638 4750 
Q 3056 4750 3426 4639 
Q 3797 4528 4122 4306 
z
" transform="scale(0.015625)"/>
       <path id="DejaVuSans-6f" d="M 1959 3097 
Q 1497 3097 1228 2736 
Q 959 2375 959 1747 
Q 959 1119 1226 758 
Q 1494 397 1959 397 
Q 2419 397 2687 759 
Q 2956 1122 2956 1747 
Q 2956 2369 2687 2733 
Q 2419 3097 1959 3097 
z
M 1959 3584 
Q 2709 3584 3137 3096 
Q 3566 2609 3566 1747 
Q 3566 888 3137 398 
Q 2709 -91 1959 -91 
Q 1206 -91 779 398 
Q 353 888 353 1747 
Q 353 2609 779 3096 
Q 1206 3584 1959 3584 
z
" transform="scale(0.015625)"/>
       <path id="DejaVuSans-6d" d="M 3328 2828 
Q 3544 3216 3844 3400 
Q 4144 3584 4550 3584 
Q 5097 3584 5394 3201 
Q 5691 2819 5691 2113 
L 5691 0 
L 5113 0 
L 5113 2094 
Q 5113 2597 4934 2840 
Q 4756 3084 4391 3084 
Q 3944 3084 3684 2787 
Q 3425 2491 3425 1978 
L 3425 0 
L 2847 0 
L 2847 2094 
Q 2847 2600 2669 2842 
Q 2491 3084 2119 3084 
Q 1678 3084 1418 2786 
Q 1159 2488 1159 1978 
L 1159 0 
L 581 0 
L 581 3500 
L 1159 3500 
L 1159 2956 
Q 1356 3278 1631 3431 
Q 1906 3584 2284 3584 
Q 2666 3584 2933 3390 
Q 3200 3197 3328 2828 
z
" transform="scale(0.015625)"/>
       <path id="DejaVuSans-75" d="M 544 1381 
L 544 3500 
L 1119 3500 
L 1119 1403 
Q 1119 906 1312 657 
Q 1506 409 1894 409 
Q 2359 409 2629 706 
Q 2900 1003 2900 1516 
L 2900 3500 
L 3475 3500 
L 3475 0 
L 2900 0 
L 2900 538 
Q 2691 219 2414 64 
Q 2138 -91 1772 -91 
Q 1169 -91 856 284 
Q 544 659 544 1381 
z
M 1991 3584 
L 1991 3584 
z
" transform="scale(0.015625)"/>
       <path id="DejaVuSans-6e" d="M 3513 2113 
L 3513 0 
L 2938 0 
L 2938 2094 
Q 2938 2591 2744 2837 
Q 2550 3084 2163 3084 
Q 1697 3084 1428 2787 
Q 1159 2491 1159 1978 
L 1159 0 
L 581 0 
L 581 3500 
L 1159 3500 
L 1159 2956 
Q 1366 3272 1645 3428 
Q 1925 3584 2291 3584 
Q 2894 3584 3203 3211 
Q 3513 2838 3513 2113 
z
" transform="scale(0.015625)"/>
       <path id="DejaVuSans-69" d="M 603 3500 
L 1178 3500 
L 1178 0 
L 603 0 
L 603 3500 
z
M 603 4863 
L 1178 4863 
L 1178 4134 
L 603 4134 
L 603 4863 
z
" transform="scale(0.015625)"/>
       <path id="DejaVuSans-63" d="M 3122 3366 
L 3122 2828 
Q 2878 2963 2633 3030 
Q 2388 3097 2138 3097 
Q 1578 3097 1268 2742 
Q 959 2388 959 1747 
Q 959 1106 1268 751 
Q 1578 397 2138 397 
Q 2388 397 2633 464 
Q 2878 531 3122 666 
L 3122 134 
Q 2881 22 2623 -34 
Q 2366 -91 2075 -91 
Q 1284 -91 818 406 
Q 353 903 353 1747 
Q 353 2603 823 3093 
Q 1294 3584 2113 3584 
Q 2378 3584 2631 3529 
Q 2884 3475 3122 3366 
z
" transform="scale(0.015625)"/>
       <path id="DejaVuSans-61" d="M 2194 1759 
Q 1497 1759 1228 1600 
Q 959 1441 959 1056 
Q 959 750 1161 570 
Q 1363 391 1709 391 
Q 2188 391 2477 730 
Q 2766 1069 2766 1631 
L 2766 1759 
L 2194 1759 
z
M 3341 1997 
L 3341 0 
L 2766 0 
L 2766 531 
Q 2569 213 2275 61 
Q 1981 -91 1556 -91 
Q 1019 -91 701 211 
Q 384 513 384 1019 
Q 384 1609 779 1909 
Q 1175 2209 1959 2209 
L 2766 2209 
L 2766 2266 
Q 2766 2663 2505 2880 
Q 2244 3097 1772 3097 
Q 1472 3097 1187 3025 
Q 903 2953 641 2809 
L 641 3341 
Q 956 3463 1253 3523 
Q 1550 3584 1831 3584 
Q 2591 3584 2966 3190 
Q 3341 2797 3341 1997 
z
" transform="scale(0.015625)"/>
       <path id="DejaVuSans-74" d="M 1172 4494 
L 1172 3500 
L 2356 3500 
L 2356 3053 
L 1172 3053 
L 1172 1153 
Q 1172 725 1289 603 
Q 1406 481 1766 481 
L 2356 481 
L 2356 0 
L 1766 0 
Q 1100 0 847 248 
Q 594 497 594 1153 
L 594 3053 
L 172 3053 
L 172 3500 
L 594 3500 
L 594 4494 
L 1172 4494 
z
" transform="scale(0.015625)"/>
       <path id="DejaVuSans-20" transform="scale(0.015625)"/>
       <path id="DejaVuSans-72" d="M 2631 2963 
Q 2534 3019 2420 3045 
Q 2306 3072 2169 3072 
Q 1681 3072 1420 2755 
Q 1159 2438 1159 1844 
L 1159 0 
L 581 0 
L 581 3500 
L 1159 3500 
L 1159 2956 
Q 1341 3275 1631 3429 
Q 1922 3584 2338 3584 
Q 2397 3584 2469 3576 
Q 2541 3569 2628 3553 
L 2631 2963 
z
" transform="scale(0.015625)"/>
       <path id="DejaVuSans-64" d="M 2906 2969 
L 2906 4863 
L 3481 4863 
L 3481 0 
L 2906 0 
L 2906 525 
Q 2725 213 2448 61 
Q 2172 -91 1784 -91 
Q 1150 -91 751 415 
Q 353 922 353 1747 
Q 353 2572 751 3078 
Q 1150 3584 1784 3584 
Q 2172 3584 2448 3432 
Q 2725 3281 2906 2969 
z
M 947 1747 
Q 947 1113 1208 752 
Q 1469 391 1925 391 
Q 2381 391 2643 752 
Q 2906 1113 2906 1747 
Q 2906 2381 2643 2742 
Q 2381 3103 1925 3103 
Q 1469 3103 1208 2742 
Q 947 2381 947 1747 
z
" transform="scale(0.015625)"/>
       <path id="DejaVuSans-73" d="M 2834 3397 
L 2834 2853 
Q 2591 2978 2328 3040 
Q 2066 3103 1784 3103 
Q 1356 3103 1142 2972 
Q 928 2841 928 2578 
Q 928 2378 1081 2264 
Q 1234 2150 1697 2047 
L 1894 2003 
Q 2506 1872 2764 1633 
Q 3022 1394 3022 966 
Q 3022 478 2636 193 
Q 2250 -91 1575 -91 
Q 1294 -91 989 -36 
Q 684 19 347 128 
L 347 722 
Q 666 556 975 473 
Q 1284 391 1588 391 
Q 1994 391 2212 530 
Q 2431 669 2431 922 
Q 2431 1156 2273 1281 
Q 2116 1406 1581 1522 
L 1381 1569 
Q 847 1681 609 1914 
Q 372 2147 372 2553 
Q 372 3047 722 3315 
Q 1072 3584 1716 3584 
Q 2034 3584 2315 3537 
Q 2597 3491 2834 3397 
z
" transform="scale(0.015625)"/>
      </defs>
      <use xlink:href="#DejaVuSans-43"/>
      <use xlink:href="#DejaVuSans-6f" x="69.824219"/>
      <use xlink:href="#DejaVuSans-6d" x="131.005859"/>
      <use xlink:href="#DejaVuSans-6d" x="228.417969"/>
      <use xlink:href="#DejaVuSans-75" x="325.830078"/>
      <use xlink:href="#DejaVuSans-6e" x="389.208984"/>
      <use xlink:href="#DejaVuSans-69" x="452.587891"/>
      <use xlink:href="#DejaVuSans-63" x="480.371094"/>
      <use xlink:href="#DejaVuSans-61" x="535.351562"/>
      <use xlink:href="#DejaVuSans-74" x="596.630859"/>
      <use xlink:href="#DejaVuSans-69" x="635.839844"/>
      <use xlink:href="#DejaVuSans-6f" x="663.623047"/>
      <use xlink:href="#DejaVuSans-6e" x="724.804688"/>
      <use xlink:href="#DejaVuSans-20" x="788.183594"/>
      <use xlink:href="#DejaVuSans-72" x="819.970703"/>
      <use xlink:href="#DejaVuSans-6f" x="858.833984"/>
      <use xlink:href="#DejaVuSans-75" x="920.015625"/>
      <use xlink:href="#DejaVuSans-6e" x="983.394531"/>
      <use xlink:href="#DejaVuSans-64" x="1046.773438"/>
      <use xlink:href="#DejaVuSans-73" x="1110.25"/>
     </g>
    </g>
   </g>
   <g id="matplotlib.axis_2">
    <g id="ytick_1">
     <g id="line2d_13">
      <path d="M 72 340.711736 
L 518.4 340.711736 
" clip-path="url(#p9f2d087b7a)" style="fill: none; stroke: #b0b0b0; stroke-opacity: 0.5; stroke-width: 0.8; stroke-linecap: square"/>
     </g>
     <g id="line2d_14">
      <defs>
       <path id="m608044f23e" d="M 0 0 
L -3.5 0 
" style="stroke: #000000; stroke-width: 0.8"/>
      </defs>
      <g>
       <use xlink:href="#m608044f23e" x="72" y="340.711736" style="stroke: #000000; stroke-width: 0.8"/>
      </g>
     </g>
     <g id="text_8">
      <!-- 0.3 -->
      <g transform="translate(49.096875 344.510954)scale(0.1 -0.1)">
       <defs>
        <path id="DejaVuSans-2e" d="M 684 794 
L 1344 794 
L 1344 0 
L 684 0 
L 684 794 
z
" transform="scale(0.015625)"/>
        <path id="DejaVuSans-33" d="M 2597 2516 
Q 3050 2419 3304 2112 
Q 3559 1806 3559 1356 
Q 3559 666 3084 287 
Q 2609 -91 1734 -91 
Q 1441 -91 1130 -33 
Q 819 25 488 141 
L 488 750 
Q 750 597 1062 519 
Q 1375 441 1716 441 
Q 2309 441 2620 675 
Q 2931 909 2931 1356 
Q 2931 1769 2642 2001 
Q 2353 2234 1838 2234 
L 1294 2234 
L 1294 2753 
L 1863 2753 
Q 2328 2753 2575 2939 
Q 2822 3125 2822 3475 
Q 2822 3834 2567 4026 
Q 2313 4219 1838 4219 
Q 1578 4219 1281 4162 
Q 984 4106 628 3988 
L 628 4550 
Q 988 4650 1302 4700 
Q 1616 4750 1894 4750 
Q 2613 4750 3031 4423 
Q 3450 4097 3450 3541 
Q 3450 3153 3228 2886 
Q 3006 2619 2597 2516 
z
" transform="scale(0.015625)"/>
       </defs>
       <use xlink:href="#DejaVuSans-30"/>
       <use xlink:href="#DejaVuSans-2e" x="63.623047"/>
       <use xlink:href="#DejaVuSans-33" x="95.410156"/>
      </g>
     </g>
    </g>
    <g id="ytick_2">
     <g id="line2d_15">
      <path d="M 72 287.228855 
L 518.4 287.228855 
" clip-path="url(#p9f2d087b7a)" style="fill: none; stroke: #b0b0b0; stroke-opacity: 0.5; stroke-width: 0.8; stroke-linecap: square"/>
     </g>
     <g id="line2d_16">
      <g>
       <use xlink:href="#m608044f23e" x="72" y="287.228855" style="stroke: #000000; stroke-width: 0.8"/>
      </g>
     </g>
     <g id="text_9">
      <!-- 0.4 -->
      <g transform="translate(49.096875 291.028074)scale(0.1 -0.1)">
       <defs>
        <path id="DejaVuSans-34" d="M 2419 4116 
L 825 1625 
L 2419 1625 
L 2419 4116 
z
M 2253 4666 
L 3047 4666 
L 3047 1625 
L 3713 1625 
L 3713 1100 
L 3047 1100 
L 3047 0 
L 2419 0 
L 2419 1100 
L 313 1100 
L 313 1709 
L 2253 4666 
z
" transform="scale(0.015625)"/>
       </defs>
       <use xlink:href="#DejaVuSans-30"/>
       <use xlink:href="#DejaVuSans-2e" x="63.623047"/>
       <use xlink:href="#DejaVuSans-34" x="95.410156"/>
      </g>
     </g>
    </g>
    <g id="ytick_3">
     <g id="line2d_17">
      <path d="M 72 233.745974 
L 518.4 233.745974 
" clip-path="url(#p9f2d087b7a)" style="fill: none; stroke: #b0b0b0; stroke-opacity: 0.5; stroke-width: 0.8; stroke-linecap: square"/>
     </g>
     <g id="line2d_18">
      <g>
       <use xlink:href="#m608044f23e" x="72" y="233.745974" style="stroke: #000000; stroke-width: 0.8"/>
      </g>
     </g>
     <g id="text_10">
      <!-- 0.5 -->
      <g transform="translate(49.096875 237.545193)scale(0.1 -0.1)">
       <use xlink:href="#DejaVuSans-30"/>
       <use xlink:href="#DejaVuSans-2e" x="63.623047"/>
       <use xlink:href="#DejaVuSans-35" x="95.410156"/>
      </g>
     </g>
    </g>
    <g id="ytick_4">
     <g id="line2d_19">
      <path d="M 72 180.263093 
L 518.4 180.263093 
" clip-path="url(#p9f2d087b7a)" style="fill: none; stroke: #b0b0b0; stroke-opacity: 0.5; stroke-width: 0.8; stroke-linecap: square"/>
     </g>
     <g id="line2d_20">
      <g>
       <use xlink:href="#m608044f23e" x="72" y="180.263093" style="stroke: #000000; stroke-width: 0.8"/>
      </g>
     </g>
     <g id="text_11">
      <!-- 0.6 -->
      <g transform="translate(49.096875 184.062312)scale(0.1 -0.1)">
       <defs>
        <path id="DejaVuSans-36" d="M 2113 2584 
Q 1688 2584 1439 2293 
Q 1191 2003 1191 1497 
Q 1191 994 1439 701 
Q 1688 409 2113 409 
Q 2538 409 2786 701 
Q 3034 994 3034 1497 
Q 3034 2003 2786 2293 
Q 2538 2584 2113 2584 
z
M 3366 4563 
L 3366 3988 
Q 3128 4100 2886 4159 
Q 2644 4219 2406 4219 
Q 1781 4219 1451 3797 
Q 1122 3375 1075 2522 
Q 1259 2794 1537 2939 
Q 1816 3084 2150 3084 
Q 2853 3084 3261 2657 
Q 3669 2231 3669 1497 
Q 3669 778 3244 343 
Q 2819 -91 2113 -91 
Q 1303 -91 875 529 
Q 447 1150 447 2328 
Q 447 3434 972 4092 
Q 1497 4750 2381 4750 
Q 2619 4750 2861 4703 
Q 3103 4656 3366 4563 
z
" transform="scale(0.015625)"/>
       </defs>
       <use xlink:href="#DejaVuSans-30"/>
       <use xlink:href="#DejaVuSans-2e" x="63.623047"/>
       <use xlink:href="#DejaVuSans-36" x="95.410156"/>
      </g>
     </g>
    </g>
    <g id="ytick_5">
     <g id="line2d_21">
      <path d="M 72 126.780213 
L 518.4 126.780213 
" clip-path="url(#p9f2d087b7a)" style="fill: none; stroke: #b0b0b0; stroke-opacity: 0.5; stroke-width: 0.8; stroke-linecap: square"/>
     </g>
     <g id="line2d_22">
      <g>
       <use xlink:href="#m608044f23e" x="72" y="126.780213" style="stroke: #000000; stroke-width: 0.8"/>
      </g>
     </g>
     <g id="text_12">
      <!-- 0.7 -->
      <g transform="translate(49.096875 130.579431)scale(0.1 -0.1)">
       <defs>
        <path id="DejaVuSans-37" d="M 525 4666 
L 3525 4666 
L 3525 4397 
L 1831 0 
L 1172 0 
L 2766 4134 
L 525 4134 
L 525 4666 
z
" transform="scale(0.015625)"/>
       </defs>
       <use xlink:href="#DejaVuSans-30"/>
       <use xlink:href="#DejaVuSans-2e" x="63.623047"/>
       <use xlink:href="#DejaVuSans-37" x="95.410156"/>
      </g>
     </g>
    </g>
    <g id="ytick_6">
     <g id="line2d_23">
      <path d="M 72 73.297332 
L 518.4 73.297332 
" clip-path="url(#p9f2d087b7a)" style="fill: none; stroke: #b0b0b0; stroke-opacity: 0.5; stroke-width: 0.8; stroke-linecap: square"/>
     </g>
     <g id="line2d_24">
      <g>
       <use xlink:href="#m608044f23e" x="72" y="73.297332" style="stroke: #000000; stroke-width: 0.8"/>
      </g>
     </g>
     <g id="text_13">
      <!-- 0.8 -->
      <g transform="translate(49.096875 77.096551)scale(0.1 -0.1)">
       <defs>
        <path id="DejaVuSans-38" d="M 2034 2216 
Q 1584 2216 1326 1975 
Q 1069 1734 1069 1313 
Q 1069 891 1326 650 
Q 1584 409 2034 409 
Q 2484 409 2743 651 
Q 3003 894 3003 1313 
Q 3003 1734 2745 1975 
Q 2488 2216 2034 2216 
z
M 1403 2484 
Q 997 2584 770 2862 
Q 544 3141 544 3541 
Q 544 4100 942 4425 
Q 1341 4750 2034 4750 
Q 2731 4750 3128 4425 
Q 3525 4100 3525 3541 
Q 3525 3141 3298 2862 
Q 3072 2584 2669 2484 
Q 3125 2378 3379 2068 
Q 3634 1759 3634 1313 
Q 3634 634 3220 271 
Q 2806 -91 2034 -91 
Q 1263 -91 848 271 
Q 434 634 434 1313 
Q 434 1759 690 2068 
Q 947 2378 1403 2484 
z
M 1172 3481 
Q 1172 3119 1398 2916 
Q 1625 2713 2034 2713 
Q 2441 2713 2670 2916 
Q 2900 3119 2900 3481 
Q 2900 3844 2670 4047 
Q 2441 4250 2034 4250 
Q 1625 4250 1398 4047 
Q 1172 3844 1172 3481 
z
" transform="scale(0.015625)"/>
       </defs>
       <use xlink:href="#DejaVuSans-30"/>
       <use xlink:href="#DejaVuSans-2e" x="63.623047"/>
       <use xlink:href="#DejaVuSans-38" x="95.410156"/>
      </g>
     </g>
    </g>
    <g id="text_14">
     <!-- Accuracy -->
     <g transform="translate(43.017187 237.748125)rotate(-90)scale(0.1 -0.1)">
      <defs>
       <path id="DejaVuSans-41" d="M 2188 4044 
L 1331 1722 
L 3047 1722 
L 2188 4044 
z
M 1831 4666 
L 2547 4666 
L 4325 0 
L 3669 0 
L 3244 1197 
L 1141 1197 
L 716 0 
L 50 0 
L 1831 4666 
z
" transform="scale(0.015625)"/>
       <path id="DejaVuSans-79" d="M 2059 -325 
Q 1816 -950 1584 -1140 
Q 1353 -1331 966 -1331 
L 506 -1331 
L 506 -850 
L 844 -850 
Q 1081 -850 1212 -737 
Q 1344 -625 1503 -206 
L 1606 56 
L 191 3500 
L 800 3500 
L 1894 763 
L 2988 3500 
L 3597 3500 
L 2059 -325 
z
" transform="scale(0.015625)"/>
      </defs>
      <use xlink:href="#DejaVuSans-41"/>
      <use xlink:href="#DejaVuSans-63" x="66.658203"/>
      <use xlink:href="#DejaVuSans-63" x="121.638672"/>
      <use xlink:href="#DejaVuSans-75" x="176.619141"/>
      <use xlink:href="#DejaVuSans-72" x="239.998047"/>
      <use xlink:href="#DejaVuSans-61" x="281.111328"/>
      <use xlink:href="#DejaVuSans-63" x="342.390625"/>
      <use xlink:href="#DejaVuSans-79" x="397.371094"/>
     </g>
    </g>
   </g>
   <g id="line2d_25">
    <path d="M 92.290909 330.229091 
L 93.914182 325.95046 
L 95.537455 302.204061 
L 97.160727 269.472538 
L 98.784 261.129209 
L 100.407273 256.208784 
L 102.030545 250.00477 
L 103.653818 244.870413 
L 105.277091 242.303235 
L 106.900364 203.795561 
L 108.523636 206.148808 
L 110.146909 213.850342 
L 111.770182 191.601464 
L 113.393455 180.049162 
L 115.016727 177.268052 
L 116.64 188.820354 
L 118.263273 209.143849 
L 119.886545 166.999339 
L 121.509818 175.984463 
L 123.133091 164.218229 
L 124.756364 146.675844 
L 126.379636 161.223188 
L 128.002909 170.850106 
L 129.626182 151.382338 
L 131.249455 157.37242 
L 132.872727 170.208312 
L 134.496 164.646092 
L 136.119273 158.442078 
L 137.742545 144.108666 
L 139.365818 151.596269 
L 140.989091 142.825077 
L 142.612364 132.770295 
L 144.235636 131.272774 
L 145.858909 130.844911 
L 147.482182 125.282692 
L 149.105455 136.407131 
L 150.728727 129.347391 
L 152.352 128.063802 
L 153.975273 125.924486 
L 155.598545 132.984227 
L 157.221818 121.645856 
L 158.845091 117.153294 
L 160.468364 126.138418 
L 162.091636 111.377143 
L 163.714909 112.4468 
L 165.338182 119.720472 
L 166.961455 117.367226 
L 168.584727 118.00902 
L 170.208 122.073719 
L 171.831273 110.521417 
L 173.454545 113.73039 
L 175.077818 118.00902 
L 176.701091 112.874664 
L 178.324364 112.660732 
L 179.947636 112.660732 
L 181.570909 113.088595 
L 183.194182 110.521417 
L 184.817455 115.22791 
L 186.440727 108.596033 
L 188.064 98.541251 
L 189.687273 121.859787 
L 191.310545 109.879622 
L 192.933818 112.232869 
L 194.557091 113.088595 
L 196.180364 96.615868 
L 197.803636 109.023896 
L 199.426909 104.531334 
L 201.050182 106.028855 
L 202.673455 108.809965 
L 204.296727 113.73039 
L 205.92 98.113388 
L 207.543273 102.178087 
L 209.166545 116.725431 
L 210.789818 91.695443 
L 212.413091 104.531334 
L 214.036364 111.591074 
L 215.659636 112.018937 
L 217.282909 104.745266 
L 218.906182 102.60595 
L 220.529455 98.541251 
L 222.152727 115.441842 
L 223.776 100.894498 
L 225.399273 108.16817 
L 227.022545 92.7651 
L 228.645818 99.824841 
L 230.269091 105.600992 
L 231.892364 103.675608 
L 233.515636 99.183046 
L 235.138909 103.461677 
L 236.762182 91.695443 
L 238.385455 100.038772 
L 240.008727 101.10843 
L 241.632 100.680567 
L 243.255273 95.760142 
L 244.878545 95.118347 
L 246.501818 95.54621 
L 248.125091 96.829799 
L 249.748364 91.481511 
L 251.371636 96.188005 
L 252.994909 97.899457 
L 254.618182 94.476553 
L 256.241455 93.192963 
L 257.864727 89.128264 
L 259.488 93.834758 
L 261.111273 100.038772 
L 262.734545 93.192963 
L 264.357818 93.192963 
L 265.981091 100.894498 
L 267.604364 106.456718 
L 269.227636 94.904416 
L 270.850909 100.894498 
L 272.474182 101.536293 
L 275.720727 85.70536 
L 277.344 96.401936 
L 278.967273 92.337237 
L 280.590545 94.904416 
L 282.213818 97.043731 
L 283.837091 90.197922 
L 285.460364 97.257662 
L 287.083636 100.680567 
L 288.706909 91.909374 
L 290.330182 97.043731 
L 291.953455 89.770059 
L 293.576727 99.610909 
L 295.2 95.760142 
L 296.823273 93.834758 
L 298.446545 106.670649 
L 300.069818 93.406895 
L 301.693091 98.755183 
L 303.316364 102.178087 
L 304.939636 91.053648 
L 306.562909 93.406895 
L 308.186182 82.92425 
L 309.809455 95.760142 
L 311.432727 91.481511 
L 313.056 88.058607 
L 314.679273 99.396978 
L 316.302545 97.899457 
L 317.925818 95.118347 
L 319.549091 91.26758 
L 321.172364 88.914333 
L 322.795636 88.058607 
L 324.418909 89.770059 
L 326.042182 88.914333 
L 327.665455 89.128264 
L 329.288727 88.058607 
L 330.912 100.038772 
L 332.535273 90.197922 
L 334.158545 82.282456 
L 335.781818 89.983991 
L 337.405091 82.496387 
L 339.028364 95.760142 
L 340.651636 86.988949 
L 342.274909 98.32732 
L 343.898182 98.113388 
L 345.521455 97.257662 
L 347.144727 98.113388 
L 348.768 87.202881 
L 350.391273 93.620826 
L 352.014545 92.7651 
L 353.637818 86.775018 
L 355.261091 91.053648 
L 356.884364 94.690484 
L 358.507636 88.48647 
L 360.130909 89.770059 
L 361.754182 93.406895 
L 363.377455 90.625785 
L 365.000727 96.401936 
L 366.624 87.202881 
L 368.247273 93.406895 
L 369.870545 89.128264 
L 371.493818 92.979032 
L 373.117091 86.775018 
L 374.740364 94.904416 
L 376.363636 90.197922 
L 377.986909 89.342196 
L 379.610182 94.904416 
L 381.233455 86.561086 
L 382.856727 89.770059 
L 384.48 100.680567 
L 386.103273 92.979032 
L 387.726545 93.834758 
L 389.349818 82.710319 
L 390.973091 91.695443 
L 392.596364 91.909374 
L 394.219636 81.640661 
L 395.842909 95.54621 
L 397.466182 91.695443 
L 399.089455 86.561086 
L 400.712727 90.625785 
L 402.336 89.128264 
L 403.959273 98.113388 
L 405.582545 81.212798 
L 407.205818 86.347155 
L 408.829091 95.760142 
L 410.452364 89.556128 
L 412.075636 85.491429 
L 413.698909 97.685525 
L 415.322182 95.118347 
L 416.945455 84.207839 
L 418.568727 90.839717 
L 420.192 98.969115 
L 421.815273 80.998867 
L 423.438545 85.491429 
L 425.061818 93.834758 
L 426.685091 82.92425 
L 428.308364 85.70536 
L 429.931636 82.710319 
L 431.554909 95.332279 
L 433.178182 99.183046 
L 434.801455 86.561086 
L 436.424727 87.202881 
L 438.048 92.979032 
L 439.671273 93.406895 
L 441.294545 97.899457 
L 442.917818 88.48647 
L 444.541091 92.979032 
L 446.164364 89.342196 
L 447.787636 92.551169 
L 449.410909 88.914333 
L 451.034182 84.849634 
L 452.657455 93.620826 
L 454.280727 83.352113 
L 455.904 94.262621 
L 457.527273 94.904416 
L 459.150545 106.028855 
L 460.773818 88.700401 
L 462.397091 93.834758 
L 464.020364 86.775018 
L 465.643636 90.625785 
L 467.266909 82.282456 
L 468.890182 86.775018 
L 470.513455 83.779976 
L 472.136727 84.421771 
L 473.76 88.914333 
L 475.383273 91.481511 
L 477.006545 97.257662 
L 478.629818 80.998867 
L 480.253091 81.854593 
L 481.876364 76.292373 
L 483.499636 80.571004 
L 485.122909 100.038772 
L 486.746182 81.42673 
L 488.369455 91.481511 
L 489.992727 93.620826 
L 491.616 91.909374 
L 493.239273 85.70536 
L 494.862545 92.7651 
L 496.485818 88.48647 
L 498.109091 89.342196 
L 498.109091 89.342196 
" clip-path="url(#p9f2d087b7a)" style="fill: none; stroke: #1f77b4; stroke-width: 1.5; stroke-linecap: square"/>
   </g>
   <g id="line2d_26">
    <path d="M 92.290909 341.995325 
L 93.914182 313.328501 
L 95.537455 310.119528 
L 97.160727 272.46758 
L 98.784 260.487414 
L 100.407273 247.437591 
L 102.030545 250.218701 
L 103.653818 233.104179 
L 105.277091 214.278205 
L 106.900364 214.92 
L 108.523636 202.725903 
L 110.146909 177.481983 
L 111.770182 174.914805 
L 113.393455 174.059079 
L 115.016727 174.700874 
L 116.64 191.173601 
L 118.263273 152.238064 
L 119.886545 162.93464 
L 121.509818 161.223188 
L 123.133091 156.730626 
L 124.756364 147.103707 
L 126.379636 158.656009 
L 128.002909 138.974309 
L 129.626182 137.262857 
L 131.249455 131.700638 
L 132.872727 138.974309 
L 134.496 123.57124 
L 136.119273 139.402172 
L 137.742545 134.695679 
L 139.365818 133.198158 
L 140.989091 136.1932 
L 142.612364 123.999103 
L 144.235636 121.004061 
L 145.858909 121.217993 
L 147.482182 124.854829 
L 149.105455 116.725431 
L 150.728727 110.093554 
L 152.352 109.665691 
L 153.975273 111.591074 
L 155.598545 107.526375 
L 157.221818 113.088595 
L 158.845091 112.018937 
L 160.468364 113.944321 
L 162.091636 113.088595 
L 163.714909 108.16817 
L 165.338182 110.521417 
L 166.961455 103.675608 
L 168.584727 98.755183 
L 170.208 104.317403 
L 171.831273 111.377143 
L 173.454545 102.819882 
L 175.077818 107.098512 
L 176.701091 104.317403 
L 178.324364 104.745266 
L 179.947636 99.183046 
L 181.570909 98.32732 
L 183.194182 95.118347 
L 184.817455 93.406895 
L 186.440727 95.332279 
L 188.064 98.755183 
L 189.687273 99.824841 
L 191.310545 104.317403 
L 192.933818 101.536293 
L 194.557091 96.401936 
L 196.180364 93.406895 
L 197.803636 95.332279 
L 199.426909 91.26758 
L 201.050182 95.974073 
L 202.673455 96.829799 
L 204.296727 88.914333 
L 205.92 89.770059 
L 207.543273 101.964156 
L 209.166545 101.536293 
L 210.789818 92.551169 
L 212.413091 103.033813 
L 214.036364 89.770059 
L 215.659636 82.282456 
L 217.282909 93.620826 
L 218.906182 93.620826 
L 220.529455 91.053648 
L 222.152727 89.983991 
L 223.776 92.551169 
L 225.399273 88.272538 
L 227.022545 91.053648 
L 228.645818 97.257662 
L 230.269091 82.710319 
L 231.892364 90.625785 
L 233.515636 92.551169 
L 235.138909 98.113388 
L 236.762182 97.257662 
L 238.385455 97.043731 
L 240.008727 87.416812 
L 241.632 86.775018 
L 243.255273 87.844675 
L 244.878545 94.262621 
L 246.501818 87.630744 
L 248.125091 83.138182 
L 249.748364 86.988949 
L 251.371636 87.844675 
L 252.994909 83.352113 
L 254.618182 88.700401 
L 256.241455 88.272538 
L 257.864727 81.212798 
L 259.488 99.396978 
L 261.111273 82.068524 
L 262.734545 85.70536 
L 264.357818 83.993908 
L 265.981091 93.620826 
L 267.604364 88.48647 
L 269.227636 91.909374 
L 270.850909 86.775018 
L 272.474182 86.133223 
L 274.097455 85.919292 
L 275.720727 86.775018 
L 278.967273 85.919292 
L 280.590545 80.571004 
L 282.213818 78.859551 
L 283.837091 85.491429 
L 285.460364 83.138182 
L 287.083636 92.123306 
L 288.706909 81.42673 
L 290.330182 76.078442 
L 291.953455 84.849634 
L 293.576727 88.058607 
L 295.2 88.700401 
L 296.823273 81.212798 
L 298.446545 87.202881 
L 300.069818 91.909374 
L 301.693091 89.342196 
L 303.316364 92.551169 
L 304.939636 89.342196 
L 306.562909 80.571004 
L 308.186182 94.048689 
L 309.809455 76.506305 
L 311.432727 83.138182 
L 313.056 75.86451 
L 314.679273 92.979032 
L 316.302545 83.352113 
L 317.925818 85.277497 
L 319.549091 82.496387 
L 321.172364 80.14314 
L 322.795636 82.282456 
L 324.418909 85.919292 
L 326.042182 80.998867 
L 327.665455 91.695443 
L 329.288727 75.650579 
L 330.912 88.272538 
L 332.535273 87.844675 
L 334.158545 82.496387 
L 335.781818 83.993908 
L 337.405091 83.352113 
L 339.028364 80.14314 
L 340.651636 91.909374 
L 342.274909 78.003825 
L 343.898182 86.988949 
L 345.521455 84.421771 
L 347.144727 85.491429 
L 348.768 82.068524 
L 350.391273 84.207839 
L 352.014545 87.202881 
L 353.637818 78.217757 
L 355.261091 85.491429 
L 356.884364 79.929209 
L 358.507636 82.282456 
L 360.130909 82.068524 
L 361.754182 82.496387 
L 363.377455 76.720236 
L 365.000727 77.575962 
L 366.624 80.357072 
L 368.247273 79.929209 
L 369.870545 86.775018 
L 371.493818 74.366989 
L 373.117091 85.277497 
L 374.740364 81.640661 
L 376.363636 80.14314 
L 377.986909 82.92425 
L 379.610182 77.575962 
L 381.233455 104.317403 
L 382.856727 81.854593 
L 384.48 86.133223 
L 386.103273 76.934168 
L 387.726545 80.998867 
L 389.349818 84.207839 
L 390.973091 81.854593 
L 392.596364 81.854593 
L 394.219636 76.720236 
L 395.842909 78.859551 
L 397.466182 77.362031 
L 399.089455 82.710319 
L 400.712727 86.988949 
L 402.336 82.282456 
L 403.959273 83.138182 
L 405.582545 81.640661 
L 407.205818 80.784935 
L 408.829091 71.371948 
L 410.452364 78.64562 
L 412.075636 76.720236 
L 413.698909 77.575962 
L 415.322182 72.013743 
L 416.945455 83.779976 
L 418.568727 74.580921 
L 420.192 77.148099 
L 421.815273 80.998867 
L 423.438545 87.630744 
L 425.061818 76.078442 
L 426.685091 83.779976 
L 428.308364 79.715277 
L 429.931636 74.794852 
L 431.554909 76.720236 
L 433.178182 74.366989 
L 434.801455 79.287414 
L 436.424727 82.710319 
L 438.048 79.501346 
L 439.671273 81.854593 
L 441.294545 80.14314 
L 442.917818 74.580921 
L 444.541091 73.0834 
L 446.164364 81.212798 
L 447.787636 69.874427 
L 449.410909 81.854593 
L 451.034182 78.217757 
L 452.657455 66.665455 
L 454.280727 74.366989 
L 455.904 83.566045 
L 457.527273 79.287414 
L 459.150545 80.14314 
L 460.773818 81.212798 
L 462.397091 82.92425 
L 464.020364 83.352113 
L 465.643636 77.148099 
L 467.266909 76.078442 
L 468.890182 74.580921 
L 470.513455 77.575962 
L 472.136727 77.789894 
L 473.76 80.784935 
L 475.383273 78.217757 
L 477.006545 73.939126 
L 478.629818 76.078442 
L 480.253091 87.202881 
L 481.876364 79.287414 
L 483.499636 78.859551 
L 485.122909 80.571004 
L 486.746182 81.42673 
L 488.369455 81.212798 
L 491.616 76.078442 
L 493.239273 83.566045 
L 494.862545 87.202881 
L 496.485818 74.366989 
L 498.109091 79.715277 
L 498.109091 79.715277 
" clip-path="url(#p9f2d087b7a)" style="fill: none; stroke: #ff7f0e; stroke-width: 1.5; stroke-linecap: square"/>
   </g>
   <g id="line2d_27">
    <path d="M 92.290909 338.57242 
L 93.914182 320.816104 
L 95.537455 292.791074 
L 97.160727 307.338418 
L 98.784 295.144321 
L 102.030545 251.930153 
L 103.653818 214.278205 
L 105.277091 221.551877 
L 106.900364 202.084109 
L 108.523636 213.636411 
L 110.146909 191.601464 
L 111.770182 187.536765 
L 113.393455 172.561558 
L 115.016727 196.735821 
L 116.64 168.282928 
L 118.263273 180.049162 
L 119.886545 163.148571 
L 121.509818 169.352586 
L 123.133091 153.735584 
L 124.756364 146.03405 
L 126.379636 159.939599 
L 128.002909 148.387296 
L 129.626182 151.168406 
L 131.249455 139.402172 
L 132.872727 165.501818 
L 134.496 140.043967 
L 136.119273 132.342432 
L 137.742545 141.755419 
L 139.365818 143.039008 
L 140.989091 128.919528 
L 142.612364 127.84987 
L 144.235636 126.994144 
L 145.858909 119.934404 
L 147.482182 124.854829 
L 149.105455 130.417048 
L 150.728727 105.38706 
L 152.352 107.954238 
L 153.975273 119.292609 
L 155.598545 108.596033 
L 157.221818 112.4468 
L 158.845091 110.735348 
L 160.468364 104.531334 
L 162.091636 110.94928 
L 163.714909 115.869705 
L 165.338182 110.307485 
L 166.961455 107.312444 
L 168.584727 114.372184 
L 170.208 110.521417 
L 171.831273 100.894498 
L 173.454545 111.591074 
L 175.077818 107.526375 
L 176.701091 90.625785 
L 178.324364 112.660732 
L 179.947636 104.531334 
L 181.570909 100.680567 
L 183.194182 94.476553 
L 184.817455 104.103471 
L 186.440727 97.471594 
L 188.064 100.894498 
L 189.687273 96.829799 
L 191.310545 96.188005 
L 192.933818 92.979032 
L 194.557091 97.899457 
L 196.180364 99.610909 
L 197.803636 98.541251 
L 199.426909 88.700401 
L 201.050182 94.904416 
L 202.673455 99.610909 
L 204.296727 90.625785 
L 205.92 93.192963 
L 207.543273 94.048689 
L 209.166545 86.133223 
L 210.789818 87.202881 
L 212.413091 88.914333 
L 214.036364 89.128264 
L 215.659636 88.700401 
L 217.282909 87.416812 
L 218.906182 86.347155 
L 220.529455 95.54621 
L 222.152727 83.779976 
L 223.776 94.048689 
L 225.399273 86.347155 
L 227.022545 94.476553 
L 228.645818 87.844675 
L 230.269091 83.566045 
L 231.892364 78.217757 
L 233.515636 89.128264 
L 235.138909 82.282456 
L 236.762182 89.342196 
L 238.385455 83.779976 
L 240.008727 80.357072 
L 241.632 81.42673 
L 243.255273 87.630744 
L 244.878545 104.317403 
L 248.125091 83.352113 
L 249.748364 82.496387 
L 251.371636 78.64562 
L 252.994909 96.615868 
L 254.618182 88.914333 
L 256.241455 88.914333 
L 257.864727 79.073483 
L 259.488 80.571004 
L 261.111273 89.770059 
L 262.734545 78.64562 
L 265.981091 86.347155 
L 267.604364 72.441606 
L 269.227636 90.839717 
L 270.850909 79.501346 
L 272.474182 71.799811 
L 274.097455 80.14314 
L 275.720727 76.292373 
L 277.344 85.277497 
L 278.967273 80.14314 
L 280.590545 78.217757 
L 282.213818 84.421771 
L 283.837091 78.217757 
L 285.460364 73.939126 
L 287.083636 80.357072 
L 288.706909 76.292373 
L 290.330182 75.650579 
L 291.953455 79.287414 
L 293.576727 82.282456 
L 295.2 79.501346 
L 296.823273 82.496387 
L 298.446545 87.416812 
L 300.069818 75.86451 
L 301.693091 72.869469 
L 303.316364 83.352113 
L 304.939636 81.640661 
L 306.562909 73.939126 
L 308.186182 82.710319 
L 309.809455 85.277497 
L 311.432727 84.421771 
L 313.056 85.063566 
L 314.679273 81.42673 
L 316.302545 67.949044 
L 317.925818 74.794852 
L 319.549091 88.058607 
L 321.172364 83.138182 
L 322.795636 80.998867 
L 324.418909 74.794852 
L 326.042182 88.272538 
L 327.665455 84.635702 
L 329.288727 76.292373 
L 330.912 75.222715 
L 332.535273 72.227674 
L 334.158545 70.30229 
L 335.781818 74.794852 
L 337.405091 73.0834 
L 339.028364 66.665455 
L 340.651636 80.571004 
L 342.274909 75.008784 
L 343.898182 82.496387 
L 345.521455 73.297332 
L 347.144727 84.421771 
L 348.768 82.496387 
L 350.391273 74.580921 
L 352.014545 72.441606 
L 353.637818 79.501346 
L 355.261091 73.725195 
L 358.507636 83.352113 
L 360.130909 78.217757 
L 361.754182 76.934168 
L 363.377455 86.988949 
L 365.000727 78.217757 
L 366.624 78.859551 
L 368.247273 77.362031 
L 369.870545 81.854593 
L 371.493818 73.511263 
L 373.117091 80.998867 
L 374.740364 76.506305 
L 376.363636 70.516222 
L 377.986909 76.934168 
L 379.610182 72.227674 
L 381.233455 74.794852 
L 382.856727 78.217757 
L 384.48 75.436647 
L 386.103273 81.42673 
L 387.726545 78.217757 
L 389.349818 82.496387 
L 390.973091 82.282456 
L 392.596364 77.575962 
L 394.219636 80.357072 
L 395.842909 76.934168 
L 397.466182 72.013743 
L 399.089455 81.42673 
L 400.712727 73.0834 
L 402.336 83.352113 
L 403.959273 75.436647 
L 407.205818 92.979032 
L 408.829091 71.371948 
L 410.452364 72.013743 
L 412.075636 81.640661 
L 413.698909 74.366989 
L 415.322182 76.292373 
L 416.945455 74.366989 
L 418.568727 75.650579 
L 420.192 73.725195 
L 421.815273 72.441606 
L 423.438545 72.227674 
L 425.061818 78.217757 
L 426.685091 75.86451 
L 428.308364 69.232633 
L 429.931636 80.14314 
L 431.554909 73.511263 
L 433.178182 81.212798 
L 434.801455 80.14314 
L 436.424727 67.307249 
L 438.048 82.068524 
L 439.671273 74.580921 
L 441.294545 72.227674 
L 442.917818 75.222715 
L 444.541091 84.207839 
L 446.164364 70.088359 
L 447.787636 71.158017 
L 449.410909 80.571004 
L 451.034182 78.003825 
L 452.657455 70.516222 
L 454.280727 75.008784 
L 455.904 86.347155 
L 457.527273 70.516222 
L 459.150545 71.158017 
L 460.773818 81.42673 
L 462.397091 70.30229 
L 464.020364 71.58588 
L 465.643636 75.008784 
L 467.266909 72.227674 
L 468.890182 72.013743 
L 470.513455 70.516222 
L 472.136727 82.282456 
L 473.76 77.575962 
L 475.383273 82.068524 
L 477.006545 73.511263 
L 478.629818 75.650579 
L 480.253091 77.575962 
L 481.876364 74.794852 
L 483.499636 68.162975 
L 485.122909 78.217757 
L 486.746182 78.003825 
L 488.369455 72.655537 
L 489.992727 80.14314 
L 491.616 77.362031 
L 493.239273 72.013743 
L 494.862545 83.352113 
L 496.485818 88.700401 
L 498.109091 72.655537 
L 498.109091 72.655537 
" clip-path="url(#p9f2d087b7a)" style="fill: none; stroke: #2ca02c; stroke-width: 1.5; stroke-linecap: square"/>
   </g>
   <g id="line2d_28">
    <path d="M 92.290909 363.174545 
L 93.914182 347.343613 
L 95.537455 333.438064 
L 97.160727 303.487651 
L 98.784 287.870649 
L 100.407273 282.736293 
L 102.030545 258.134168 
L 103.653818 249.576907 
L 105.277091 260.059551 
L 106.900364 248.293318 
L 108.523636 221.765809 
L 110.146909 212.352822 
L 111.770182 194.382574 
L 113.393455 203.581629 
L 115.016727 183.044203 
L 116.64 208.502054 
L 118.263273 190.531806 
L 119.886545 179.621299 
L 121.509818 160.367462 
L 123.133091 164.646092 
L 124.756364 179.83523 
L 126.379636 166.357544 
L 128.002909 147.53157 
L 129.626182 152.451995 
L 131.249455 142.611145 
L 132.872727 153.09379 
L 134.496 155.8749 
L 136.119273 146.03405 
L 137.742545 144.108666 
L 139.365818 146.247981 
L 140.989091 136.621063 
L 142.612364 139.188241 
L 144.235636 131.272774 
L 145.858909 126.352349 
L 147.482182 122.715514 
L 149.105455 136.621063 
L 150.728727 121.004061 
L 152.352 124.854829 
L 153.975273 123.357308 
L 155.598545 131.486706 
L 157.221818 118.00902 
L 158.845091 124.426966 
L 160.468364 123.57124 
L 162.091636 135.765336 
L 163.714909 116.297568 
L 165.338182 130.63098 
L 166.961455 115.22791 
L 168.584727 128.491665 
L 170.208 112.4468 
L 171.831273 118.436883 
L 173.454545 110.94928 
L 175.077818 117.153294 
L 176.701091 107.740307 
L 178.324364 112.232869 
L 179.947636 107.954238 
L 181.570909 112.232869 
L 183.194182 124.854829 
L 184.817455 103.247745 
L 186.440727 108.382102 
L 188.064 102.819882 
L 189.687273 107.954238 
L 191.310545 100.680567 
L 192.933818 104.103471 
L 194.557091 111.377143 
L 196.180364 104.959197 
L 197.803636 101.322361 
L 199.426909 108.596033 
L 201.050182 100.894498 
L 202.673455 99.824841 
L 204.296727 99.610909 
L 205.92 101.536293 
L 207.543273 105.38706 
L 209.166545 95.54621 
L 210.789818 104.531334 
L 212.413091 99.183046 
L 214.036364 96.829799 
L 215.659636 101.10843 
L 217.282909 94.262621 
L 218.906182 90.197922 
L 220.529455 92.979032 
L 222.152727 100.466635 
L 223.776 99.610909 
L 225.399273 86.775018 
L 227.022545 98.755183 
L 228.645818 90.411854 
L 230.269091 89.770059 
L 231.892364 97.899457 
L 233.515636 91.481511 
L 235.138909 91.481511 
L 236.762182 94.262621 
L 238.385455 93.192963 
L 240.008727 87.630744 
L 241.632 87.630744 
L 243.255273 88.058607 
L 244.878545 93.834758 
L 246.501818 89.983991 
L 248.125091 91.26758 
L 249.748364 95.54621 
L 251.371636 84.421771 
L 252.994909 95.332279 
L 254.618182 90.839717 
L 256.241455 78.64562 
L 257.864727 93.834758 
L 259.488 86.133223 
L 261.111273 89.770059 
L 262.734545 92.7651 
L 264.357818 91.481511 
L 265.981091 88.914333 
L 267.604364 89.556128 
L 269.227636 81.640661 
L 270.850909 86.133223 
L 272.474182 88.058607 
L 274.097455 97.257662 
L 275.720727 92.979032 
L 277.344 92.979032 
L 278.967273 91.909374 
L 280.590545 88.700401 
L 282.213818 95.760142 
L 283.837091 97.257662 
L 285.460364 84.849634 
L 287.083636 82.496387 
L 288.706909 92.979032 
L 290.330182 88.272538 
L 291.953455 87.630744 
L 293.576727 98.113388 
L 295.2 80.784935 
L 296.823273 94.262621 
L 298.446545 98.32732 
L 300.069818 81.640661 
L 301.693091 83.138182 
L 303.316364 91.909374 
L 304.939636 88.058607 
L 306.562909 95.974073 
L 308.186182 88.058607 
L 309.809455 82.496387 
L 311.432727 88.058607 
L 313.056 86.988949 
L 314.679273 83.993908 
L 316.302545 83.138182 
L 317.925818 78.859551 
L 319.549091 92.123306 
L 321.172364 85.491429 
L 322.795636 87.202881 
L 324.418909 81.42673 
L 326.042182 83.566045 
L 327.665455 92.337237 
L 329.288727 87.202881 
L 330.912 81.212798 
L 332.535273 79.287414 
L 334.158545 77.575962 
L 335.781818 79.073483 
L 337.405091 85.063566 
L 339.028364 87.630744 
L 340.651636 89.556128 
L 342.274909 94.048689 
L 343.898182 76.078442 
L 345.521455 78.859551 
L 347.144727 90.839717 
L 348.768 92.7651 
L 350.391273 80.998867 
L 352.014545 82.282456 
L 353.637818 89.983991 
L 355.261091 75.86451 
L 356.884364 75.008784 
L 358.507636 80.784935 
L 360.130909 88.272538 
L 361.754182 84.849634 
L 363.377455 81.854593 
L 365.000727 76.720236 
L 366.624 80.357072 
L 368.247273 82.282456 
L 369.870545 78.859551 
L 371.493818 81.212798 
L 373.117091 82.710319 
L 374.740364 82.496387 
L 376.363636 80.14314 
L 377.986909 88.272538 
L 381.233455 80.357072 
L 382.856727 69.232633 
L 384.48 83.993908 
L 386.103273 84.421771 
L 387.726545 93.406895 
L 389.349818 83.352113 
L 390.973091 76.078442 
L 392.596364 79.073483 
L 394.219636 71.371948 
L 395.842909 77.362031 
L 397.466182 84.207839 
L 399.089455 81.212798 
L 400.712727 89.556128 
L 402.336 82.92425 
L 403.959273 94.690484 
L 405.582545 91.053648 
L 407.205818 94.476553 
L 408.829091 86.988949 
L 410.452364 84.849634 
L 412.075636 78.217757 
L 413.698909 76.078442 
L 415.322182 83.993908 
L 416.945455 88.058607 
L 418.568727 78.431688 
L 420.192 85.063566 
L 423.438545 87.630744 
L 425.061818 83.779976 
L 426.685091 95.974073 
L 428.308364 72.869469 
L 429.931636 83.566045 
L 431.554909 71.799811 
L 433.178182 85.063566 
L 434.801455 82.282456 
L 436.424727 93.834758 
L 438.048 94.476553 
L 439.671273 79.287414 
L 441.294545 80.784935 
L 442.917818 87.202881 
L 444.541091 78.64562 
L 446.164364 94.262621 
L 447.787636 75.650579 
L 449.410909 77.789894 
L 451.034182 88.058607 
L 452.657455 88.700401 
L 454.280727 86.988949 
L 455.904 82.92425 
L 457.527273 91.481511 
L 459.150545 83.138182 
L 460.773818 83.138182 
L 462.397091 74.794852 
L 464.020364 72.655537 
L 465.643636 84.849634 
L 467.266909 82.92425 
L 468.890182 69.660496 
L 470.513455 93.620826 
L 472.136727 73.511263 
L 473.76 75.436647 
L 475.383273 83.566045 
L 477.006545 81.42673 
L 478.629818 88.272538 
L 480.253091 83.779976 
L 481.876364 82.710319 
L 483.499636 92.979032 
L 485.122909 81.212798 
L 486.746182 84.207839 
L 488.369455 80.571004 
L 489.992727 78.64562 
L 491.616 80.998867 
L 493.239273 74.153058 
L 494.862545 84.849634 
L 496.485818 75.650579 
L 498.109091 73.0834 
L 498.109091 73.0834 
" clip-path="url(#p9f2d087b7a)" style="fill: none; stroke: #d62728; stroke-width: 1.5; stroke-linecap: square"/>
   </g>
   <g id="patch_3">
    <path d="M 72 378 
L 72 51.84 
" style="fill: none; stroke: #000000; stroke-width: 0.8; stroke-linejoin: miter; stroke-linecap: square"/>
   </g>
   <g id="patch_4">
    <path d="M 518.4 378 
L 518.4 51.84 
" style="fill: none; stroke: #000000; stroke-width: 0.8; stroke-linejoin: miter; stroke-linecap: square"/>
   </g>
   <g id="patch_5">
    <path d="M 72 378 
L 518.4 378 
" style="fill: none; stroke: #000000; stroke-width: 0.8; stroke-linejoin: miter; stroke-linecap: square"/>
   </g>
   <g id="patch_6">
    <path d="M 72 51.84 
L 518.4 51.84 
" style="fill: none; stroke: #000000; stroke-width: 0.8; stroke-linejoin: miter; stroke-linecap: square"/>
   </g>
   <g id="text_15">
    <!-- Clustered-Common -->
    <g transform="translate(237.350625 45.84)scale(0.12 -0.12)">
     <defs>
      <path id="DejaVuSans-6c" d="M 603 4863 
L 1178 4863 
L 1178 0 
L 603 0 
L 603 4863 
z
" transform="scale(0.015625)"/>
      <path id="DejaVuSans-65" d="M 3597 1894 
L 3597 1613 
L 953 1613 
Q 991 1019 1311 708 
Q 1631 397 2203 397 
Q 2534 397 2845 478 
Q 3156 559 3463 722 
L 3463 178 
Q 3153 47 2828 -22 
Q 2503 -91 2169 -91 
Q 1331 -91 842 396 
Q 353 884 353 1716 
Q 353 2575 817 3079 
Q 1281 3584 2069 3584 
Q 2775 3584 3186 3129 
Q 3597 2675 3597 1894 
z
M 3022 2063 
Q 3016 2534 2758 2815 
Q 2500 3097 2075 3097 
Q 1594 3097 1305 2825 
Q 1016 2553 972 2059 
L 3022 2063 
z
" transform="scale(0.015625)"/>
      <path id="DejaVuSans-2d" d="M 313 2009 
L 1997 2009 
L 1997 1497 
L 313 1497 
L 313 2009 
z
" transform="scale(0.015625)"/>
     </defs>
     <use xlink:href="#DejaVuSans-43"/>
     <use xlink:href="#DejaVuSans-6c" x="69.824219"/>
     <use xlink:href="#DejaVuSans-75" x="97.607422"/>
     <use xlink:href="#DejaVuSans-73" x="160.986328"/>
     <use xlink:href="#DejaVuSans-74" x="213.085938"/>
     <use xlink:href="#DejaVuSans-65" x="252.294922"/>
     <use xlink:href="#DejaVuSans-72" x="313.818359"/>
     <use xlink:href="#DejaVuSans-65" x="352.681641"/>
     <use xlink:href="#DejaVuSans-64" x="414.205078"/>
     <use xlink:href="#DejaVuSans-2d" x="477.681641"/>
     <use xlink:href="#DejaVuSans-43" x="513.765625"/>
     <use xlink:href="#DejaVuSans-6f" x="583.589844"/>
     <use xlink:href="#DejaVuSans-6d" x="644.771484"/>
     <use xlink:href="#DejaVuSans-6d" x="742.183594"/>
     <use xlink:href="#DejaVuSans-6f" x="839.595703"/>
     <use xlink:href="#DejaVuSans-6e" x="900.777344"/>
    </g>
   </g>
   <g id="legend_1">
    <g id="patch_7">
     <path d="M 79 118.5525 
L 124.203125 118.5525 
Q 126.203125 118.5525 126.203125 116.5525 
L 126.203125 58.84 
Q 126.203125 56.84 124.203125 56.84 
L 79 56.84 
Q 77 56.84 77 58.84 
L 77 116.5525 
Q 77 118.5525 79 118.5525 
z
" style="fill: #ffffff; opacity: 0.8; stroke: #cccccc; stroke-linejoin: miter"/>
    </g>
    <g id="line2d_29">
     <path d="M 81 64.938438 
L 91 64.938438 
L 101 64.938438 
" style="fill: none; stroke: #1f77b4; stroke-width: 1.5; stroke-linecap: square"/>
    </g>
    <g id="text_16">
     <!-- V1 -->
     <g transform="translate(109 68.438438)scale(0.1 -0.1)">
      <defs>
       <path id="DejaVuSans-56" d="M 1831 0 
L 50 4666 
L 709 4666 
L 2188 738 
L 3669 4666 
L 4325 4666 
L 2547 0 
L 1831 0 
z
" transform="scale(0.015625)"/>
      </defs>
      <use xlink:href="#DejaVuSans-56"/>
      <use xlink:href="#DejaVuSans-31" x="68.408203"/>
     </g>
    </g>
    <g id="line2d_30">
     <path d="M 81 79.616563 
L 91 79.616563 
L 101 79.616563 
" style="fill: none; stroke: #ff7f0e; stroke-width: 1.5; stroke-linecap: square"/>
    </g>
    <g id="text_17">
     <!-- V2 -->
     <g transform="translate(109 83.116563)scale(0.1 -0.1)">
      <use xlink:href="#DejaVuSans-56"/>
      <use xlink:href="#DejaVuSans-32" x="68.408203"/>
     </g>
    </g>
    <g id="line2d_31">
     <path d="M 81 94.294688 
L 91 94.294688 
L 101 94.294688 
" style="fill: none; stroke: #2ca02c; stroke-width: 1.5; stroke-linecap: square"/>
    </g>
    <g id="text_18">
     <!-- V3 -->
     <g transform="translate(109 97.794688)scale(0.1 -0.1)">
      <use xlink:href="#DejaVuSans-56"/>
      <use xlink:href="#DejaVuSans-33" x="68.408203"/>
     </g>
    </g>
    <g id="line2d_32">
     <path d="M 81 108.972813 
L 91 108.972813 
L 101 108.972813 
" style="fill: none; stroke: #d62728; stroke-width: 1.5; stroke-linecap: square"/>
    </g>
    <g id="text_19">
     <!-- V4 -->
     <g transform="translate(109 112.472813)scale(0.1 -0.1)">
      <use xlink:href="#DejaVuSans-56"/>
      <use xlink:href="#DejaVuSans-34" x="68.408203"/>
     </g>
    </g>
   </g>
  </g>
 </g>
 <defs>
  <clipPath id="p9f2d087b7a">
   <rect x="72" y="51.84" width="446.4" height="326.16"/>
  </clipPath>
 </defs>
</svg>
