<?xml version="1.0" encoding="utf-8" standalone="no"?>
<!DOCTYPE svg PUBLIC "-//W3C//DTD SVG 1.1//EN"
  "http://www.w3.org/Graphics/SVG/1.1/DTD/svg11.dtd">
<svg xmlns:xlink="http://www.w3.org/1999/xlink" width="576pt" height="432pt" viewBox="0 0 576 432" xmlns="http://www.w3.org/2000/svg" version="1.1">
 <metadata>
  <rdf:RDF xmlns:dc="http://purl.org/dc/elements/1.1/" xmlns:cc="http://creativecommons.org/ns#" xmlns:rdf="http://www.w3.org/1999/02/22-rdf-syntax-ns#">
   <cc:Work>
    <dc:type rdf:resource="http://purl.org/dc/dcmitype/StillImage"/>
    <dc:date>2023-08-05T18:19:49.104092</dc:date>
    <dc:format>image/svg+xml</dc:format>
    <dc:creator>
     <cc:Agent>
      <dc:title>Matplotlib v3.5.1, https://matplotlib.org/</dc:title>
     </cc:Agent>
    </dc:creator>
   </cc:Work>
  </rdf:RDF>
 </metadata>
 <defs>
  <style type="text/css">*{stroke-linejoin: round; stroke-linecap: butt}</style>
 </defs>
 <g id="figure_1">
  <g id="patch_1">
   <path d="M 0 432 
L 576 432 
L 576 0 
L 0 0 
z
" style="fill: #ffffff"/>
  </g>
  <g id="axes_1">
   <g id="patch_2">
    <path d="M 72 384.48 
L 518.4 384.48 
L 518.4 51.84 
L 72 51.84 
z
" style="fill: #ffffff"/>
   </g>
   <g id="matplotlib.axis_1">
    <g id="xtick_1">
     <g id="line2d_1">
      <path d="M 92.290909 384.48 
L 92.290909 51.84 
" clip-path="url(#p56100718a4)" style="fill: none; stroke: #b0b0b0; stroke-opacity: 0.5; stroke-width: 0.8; stroke-linecap: square"/>
     </g>
     <g id="line2d_2">
      <defs>
       <path id="mad734cb8d2" d="M 0 0 
L 0 3.5 
" style="stroke: #000000; stroke-width: 0.8"/>
      </defs>
      <g>
       <use xlink:href="#mad734cb8d2" x="92.290909" y="384.48" style="stroke: #000000; stroke-width: 0.8"/>
      </g>
     </g>
     <g id="text_1">
      <!-- 0 -->
      <g transform="translate(89.109659 399.078438)scale(0.1 -0.1)">
       <defs>
        <path id="DejaVuSans-30" d="M 2034 4250 
Q 1547 4250 1301 3770 
Q 1056 3291 1056 2328 
Q 1056 1369 1301 889 
Q 1547 409 2034 409 
Q 2525 409 2770 889 
Q 3016 1369 3016 2328 
Q 3016 3291 2770 3770 
Q 2525 4250 2034 4250 
z
M 2034 4750 
Q 2819 4750 3233 4129 
Q 3647 3509 3647 2328 
Q 3647 1150 3233 529 
Q 2819 -91 2034 -91 
Q 1250 -91 836 529 
Q 422 1150 422 2328 
Q 422 3509 836 4129 
Q 1250 4750 2034 4750 
z
" transform="scale(0.015625)"/>
       </defs>
       <use xlink:href="#DejaVuSans-30"/>
      </g>
     </g>
    </g>
    <g id="xtick_2">
     <g id="line2d_3">
      <path d="M 143.273093 384.48 
L 143.273093 51.84 
" clip-path="url(#p56100718a4)" style="fill: none; stroke: #b0b0b0; stroke-opacity: 0.5; stroke-width: 0.8; stroke-linecap: square"/>
     </g>
     <g id="line2d_4">
      <g>
       <use xlink:href="#mad734cb8d2" x="143.273093" y="384.48" style="stroke: #000000; stroke-width: 0.8"/>
      </g>
     </g>
     <g id="text_2">
      <!-- 25 -->
      <g transform="translate(136.910593 399.078438)scale(0.1 -0.1)">
       <defs>
        <path id="DejaVuSans-32" d="M 1228 531 
L 3431 531 
L 3431 0 
L 469 0 
L 469 531 
Q 828 903 1448 1529 
Q 2069 2156 2228 2338 
Q 2531 2678 2651 2914 
Q 2772 3150 2772 3378 
Q 2772 3750 2511 3984 
Q 2250 4219 1831 4219 
Q 1534 4219 1204 4116 
Q 875 4013 500 3803 
L 500 4441 
Q 881 4594 1212 4672 
Q 1544 4750 1819 4750 
Q 2544 4750 2975 4387 
Q 3406 4025 3406 3419 
Q 3406 3131 3298 2873 
Q 3191 2616 2906 2266 
Q 2828 2175 2409 1742 
Q 1991 1309 1228 531 
z
" transform="scale(0.015625)"/>
        <path id="DejaVuSans-35" d="M 691 4666 
L 3169 4666 
L 3169 4134 
L 1269 4134 
L 1269 2991 
Q 1406 3038 1543 3061 
Q 1681 3084 1819 3084 
Q 2600 3084 3056 2656 
Q 3513 2228 3513 1497 
Q 3513 744 3044 326 
Q 2575 -91 1722 -91 
Q 1428 -91 1123 -41 
Q 819 9 494 109 
L 494 744 
Q 775 591 1075 516 
Q 1375 441 1709 441 
Q 2250 441 2565 725 
Q 2881 1009 2881 1497 
Q 2881 1984 2565 2268 
Q 2250 2553 1709 2553 
Q 1456 2553 1204 2497 
Q 953 2441 691 2322 
L 691 4666 
z
" transform="scale(0.015625)"/>
       </defs>
       <use xlink:href="#DejaVuSans-32"/>
       <use xlink:href="#DejaVuSans-35" x="63.623047"/>
      </g>
     </g>
    </g>
    <g id="xtick_3">
     <g id="line2d_5">
      <path d="M 194.255276 384.48 
L 194.255276 51.84 
" clip-path="url(#p56100718a4)" style="fill: none; stroke: #b0b0b0; stroke-opacity: 0.5; stroke-width: 0.8; stroke-linecap: square"/>
     </g>
     <g id="line2d_6">
      <g>
       <use xlink:href="#mad734cb8d2" x="194.255276" y="384.48" style="stroke: #000000; stroke-width: 0.8"/>
      </g>
     </g>
     <g id="text_3">
      <!-- 50 -->
      <g transform="translate(187.892776 399.078438)scale(0.1 -0.1)">
       <use xlink:href="#DejaVuSans-35"/>
       <use xlink:href="#DejaVuSans-30" x="63.623047"/>
      </g>
     </g>
    </g>
    <g id="xtick_4">
     <g id="line2d_7">
      <path d="M 245.23746 384.48 
L 245.23746 51.84 
" clip-path="url(#p56100718a4)" style="fill: none; stroke: #b0b0b0; stroke-opacity: 0.5; stroke-width: 0.8; stroke-linecap: square"/>
     </g>
     <g id="line2d_8">
      <g>
       <use xlink:href="#mad734cb8d2" x="245.23746" y="384.48" style="stroke: #000000; stroke-width: 0.8"/>
      </g>
     </g>
     <g id="text_4">
      <!-- 75 -->
      <g transform="translate(238.87496 399.078438)scale(0.1 -0.1)">
       <defs>
        <path id="DejaVuSans-37" d="M 525 4666 
L 3525 4666 
L 3525 4397 
L 1831 0 
L 1172 0 
L 2766 4134 
L 525 4134 
L 525 4666 
z
" transform="scale(0.015625)"/>
       </defs>
       <use xlink:href="#DejaVuSans-37"/>
       <use xlink:href="#DejaVuSans-35" x="63.623047"/>
      </g>
     </g>
    </g>
    <g id="xtick_5">
     <g id="line2d_9">
      <path d="M 296.219644 384.48 
L 296.219644 51.84 
" clip-path="url(#p56100718a4)" style="fill: none; stroke: #b0b0b0; stroke-opacity: 0.5; stroke-width: 0.8; stroke-linecap: square"/>
     </g>
     <g id="line2d_10">
      <g>
       <use xlink:href="#mad734cb8d2" x="296.219644" y="384.48" style="stroke: #000000; stroke-width: 0.8"/>
      </g>
     </g>
     <g id="text_5">
      <!-- 100 -->
      <g transform="translate(286.675894 399.078438)scale(0.1 -0.1)">
       <defs>
        <path id="DejaVuSans-31" d="M 794 531 
L 1825 531 
L 1825 4091 
L 703 3866 
L 703 4441 
L 1819 4666 
L 2450 4666 
L 2450 531 
L 3481 531 
L 3481 0 
L 794 0 
L 794 531 
z
" transform="scale(0.015625)"/>
       </defs>
       <use xlink:href="#DejaVuSans-31"/>
       <use xlink:href="#DejaVuSans-30" x="63.623047"/>
       <use xlink:href="#DejaVuSans-30" x="127.246094"/>
      </g>
     </g>
    </g>
    <g id="xtick_6">
     <g id="line2d_11">
      <path d="M 347.201827 384.48 
L 347.201827 51.84 
" clip-path="url(#p56100718a4)" style="fill: none; stroke: #b0b0b0; stroke-opacity: 0.5; stroke-width: 0.8; stroke-linecap: square"/>
     </g>
     <g id="line2d_12">
      <g>
       <use xlink:href="#mad734cb8d2" x="347.201827" y="384.48" style="stroke: #000000; stroke-width: 0.8"/>
      </g>
     </g>
     <g id="text_6">
      <!-- 125 -->
      <g transform="translate(337.658077 399.078438)scale(0.1 -0.1)">
       <use xlink:href="#DejaVuSans-31"/>
       <use xlink:href="#DejaVuSans-32" x="63.623047"/>
       <use xlink:href="#DejaVuSans-35" x="127.246094"/>
      </g>
     </g>
    </g>
    <g id="xtick_7">
     <g id="line2d_13">
      <path d="M 398.184011 384.48 
L 398.184011 51.84 
" clip-path="url(#p56100718a4)" style="fill: none; stroke: #b0b0b0; stroke-opacity: 0.5; stroke-width: 0.8; stroke-linecap: square"/>
     </g>
     <g id="line2d_14">
      <g>
       <use xlink:href="#mad734cb8d2" x="398.184011" y="384.48" style="stroke: #000000; stroke-width: 0.8"/>
      </g>
     </g>
     <g id="text_7">
      <!-- 150 -->
      <g transform="translate(388.640261 399.078438)scale(0.1 -0.1)">
       <use xlink:href="#DejaVuSans-31"/>
       <use xlink:href="#DejaVuSans-35" x="63.623047"/>
       <use xlink:href="#DejaVuSans-30" x="127.246094"/>
      </g>
     </g>
    </g>
    <g id="xtick_8">
     <g id="line2d_15">
      <path d="M 449.166195 384.48 
L 449.166195 51.84 
" clip-path="url(#p56100718a4)" style="fill: none; stroke: #b0b0b0; stroke-opacity: 0.5; stroke-width: 0.8; stroke-linecap: square"/>
     </g>
     <g id="line2d_16">
      <g>
       <use xlink:href="#mad734cb8d2" x="449.166195" y="384.48" style="stroke: #000000; stroke-width: 0.8"/>
      </g>
     </g>
     <g id="text_8">
      <!-- 175 -->
      <g transform="translate(439.622445 399.078438)scale(0.1 -0.1)">
       <use xlink:href="#DejaVuSans-31"/>
       <use xlink:href="#DejaVuSans-37" x="63.623047"/>
       <use xlink:href="#DejaVuSans-35" x="127.246094"/>
      </g>
     </g>
    </g>
    <g id="xtick_9">
     <g id="line2d_17">
      <path d="M 500.148378 384.48 
L 500.148378 51.84 
" clip-path="url(#p56100718a4)" style="fill: none; stroke: #b0b0b0; stroke-opacity: 0.5; stroke-width: 0.8; stroke-linecap: square"/>
     </g>
     <g id="line2d_18">
      <g>
       <use xlink:href="#mad734cb8d2" x="500.148378" y="384.48" style="stroke: #000000; stroke-width: 0.8"/>
      </g>
     </g>
     <g id="text_9">
      <!-- 200 -->
      <g transform="translate(490.604628 399.078438)scale(0.1 -0.1)">
       <use xlink:href="#DejaVuSans-32"/>
       <use xlink:href="#DejaVuSans-30" x="63.623047"/>
       <use xlink:href="#DejaVuSans-30" x="127.246094"/>
      </g>
     </g>
    </g>
    <g id="text_10">
     <!-- Communication rounds -->
     <g transform="translate(237.083594 412.756563)scale(0.1 -0.1)">
      <defs>
       <path id="DejaVuSans-43" d="M 4122 4306 
L 4122 3641 
Q 3803 3938 3442 4084 
Q 3081 4231 2675 4231 
Q 1875 4231 1450 3742 
Q 1025 3253 1025 2328 
Q 1025 1406 1450 917 
Q 1875 428 2675 428 
Q 3081 428 3442 575 
Q 3803 722 4122 1019 
L 4122 359 
Q 3791 134 3420 21 
Q 3050 -91 2638 -91 
Q 1578 -91 968 557 
Q 359 1206 359 2328 
Q 359 3453 968 4101 
Q 1578 4750 2638 4750 
Q 3056 4750 3426 4639 
Q 3797 4528 4122 4306 
z
" transform="scale(0.015625)"/>
       <path id="DejaVuSans-6f" d="M 1959 3097 
Q 1497 3097 1228 2736 
Q 959 2375 959 1747 
Q 959 1119 1226 758 
Q 1494 397 1959 397 
Q 2419 397 2687 759 
Q 2956 1122 2956 1747 
Q 2956 2369 2687 2733 
Q 2419 3097 1959 3097 
z
M 1959 3584 
Q 2709 3584 3137 3096 
Q 3566 2609 3566 1747 
Q 3566 888 3137 398 
Q 2709 -91 1959 -91 
Q 1206 -91 779 398 
Q 353 888 353 1747 
Q 353 2609 779 3096 
Q 1206 3584 1959 3584 
z
" transform="scale(0.015625)"/>
       <path id="DejaVuSans-6d" d="M 3328 2828 
Q 3544 3216 3844 3400 
Q 4144 3584 4550 3584 
Q 5097 3584 5394 3201 
Q 5691 2819 5691 2113 
L 5691 0 
L 5113 0 
L 5113 2094 
Q 5113 2597 4934 2840 
Q 4756 3084 4391 3084 
Q 3944 3084 3684 2787 
Q 3425 2491 3425 1978 
L 3425 0 
L 2847 0 
L 2847 2094 
Q 2847 2600 2669 2842 
Q 2491 3084 2119 3084 
Q 1678 3084 1418 2786 
Q 1159 2488 1159 1978 
L 1159 0 
L 581 0 
L 581 3500 
L 1159 3500 
L 1159 2956 
Q 1356 3278 1631 3431 
Q 1906 3584 2284 3584 
Q 2666 3584 2933 3390 
Q 3200 3197 3328 2828 
z
" transform="scale(0.015625)"/>
       <path id="DejaVuSans-75" d="M 544 1381 
L 544 3500 
L 1119 3500 
L 1119 1403 
Q 1119 906 1312 657 
Q 1506 409 1894 409 
Q 2359 409 2629 706 
Q 2900 1003 2900 1516 
L 2900 3500 
L 3475 3500 
L 3475 0 
L 2900 0 
L 2900 538 
Q 2691 219 2414 64 
Q 2138 -91 1772 -91 
Q 1169 -91 856 284 
Q 544 659 544 1381 
z
M 1991 3584 
L 1991 3584 
z
" transform="scale(0.015625)"/>
       <path id="DejaVuSans-6e" d="M 3513 2113 
L 3513 0 
L 2938 0 
L 2938 2094 
Q 2938 2591 2744 2837 
Q 2550 3084 2163 3084 
Q 1697 3084 1428 2787 
Q 1159 2491 1159 1978 
L 1159 0 
L 581 0 
L 581 3500 
L 1159 3500 
L 1159 2956 
Q 1366 3272 1645 3428 
Q 1925 3584 2291 3584 
Q 2894 3584 3203 3211 
Q 3513 2838 3513 2113 
z
" transform="scale(0.015625)"/>
       <path id="DejaVuSans-69" d="M 603 3500 
L 1178 3500 
L 1178 0 
L 603 0 
L 603 3500 
z
M 603 4863 
L 1178 4863 
L 1178 4134 
L 603 4134 
L 603 4863 
z
" transform="scale(0.015625)"/>
       <path id="DejaVuSans-63" d="M 3122 3366 
L 3122 2828 
Q 2878 2963 2633 3030 
Q 2388 3097 2138 3097 
Q 1578 3097 1268 2742 
Q 959 2388 959 1747 
Q 959 1106 1268 751 
Q 1578 397 2138 397 
Q 2388 397 2633 464 
Q 2878 531 3122 666 
L 3122 134 
Q 2881 22 2623 -34 
Q 2366 -91 2075 -91 
Q 1284 -91 818 406 
Q 353 903 353 1747 
Q 353 2603 823 3093 
Q 1294 3584 2113 3584 
Q 2378 3584 2631 3529 
Q 2884 3475 3122 3366 
z
" transform="scale(0.015625)"/>
       <path id="DejaVuSans-61" d="M 2194 1759 
Q 1497 1759 1228 1600 
Q 959 1441 959 1056 
Q 959 750 1161 570 
Q 1363 391 1709 391 
Q 2188 391 2477 730 
Q 2766 1069 2766 1631 
L 2766 1759 
L 2194 1759 
z
M 3341 1997 
L 3341 0 
L 2766 0 
L 2766 531 
Q 2569 213 2275 61 
Q 1981 -91 1556 -91 
Q 1019 -91 701 211 
Q 384 513 384 1019 
Q 384 1609 779 1909 
Q 1175 2209 1959 2209 
L 2766 2209 
L 2766 2266 
Q 2766 2663 2505 2880 
Q 2244 3097 1772 3097 
Q 1472 3097 1187 3025 
Q 903 2953 641 2809 
L 641 3341 
Q 956 3463 1253 3523 
Q 1550 3584 1831 3584 
Q 2591 3584 2966 3190 
Q 3341 2797 3341 1997 
z
" transform="scale(0.015625)"/>
       <path id="DejaVuSans-74" d="M 1172 4494 
L 1172 3500 
L 2356 3500 
L 2356 3053 
L 1172 3053 
L 1172 1153 
Q 1172 725 1289 603 
Q 1406 481 1766 481 
L 2356 481 
L 2356 0 
L 1766 0 
Q 1100 0 847 248 
Q 594 497 594 1153 
L 594 3053 
L 172 3053 
L 172 3500 
L 594 3500 
L 594 4494 
L 1172 4494 
z
" transform="scale(0.015625)"/>
       <path id="DejaVuSans-20" transform="scale(0.015625)"/>
       <path id="DejaVuSans-72" d="M 2631 2963 
Q 2534 3019 2420 3045 
Q 2306 3072 2169 3072 
Q 1681 3072 1420 2755 
Q 1159 2438 1159 1844 
L 1159 0 
L 581 0 
L 581 3500 
L 1159 3500 
L 1159 2956 
Q 1341 3275 1631 3429 
Q 1922 3584 2338 3584 
Q 2397 3584 2469 3576 
Q 2541 3569 2628 3553 
L 2631 2963 
z
" transform="scale(0.015625)"/>
       <path id="DejaVuSans-64" d="M 2906 2969 
L 2906 4863 
L 3481 4863 
L 3481 0 
L 2906 0 
L 2906 525 
Q 2725 213 2448 61 
Q 2172 -91 1784 -91 
Q 1150 -91 751 415 
Q 353 922 353 1747 
Q 353 2572 751 3078 
Q 1150 3584 1784 3584 
Q 2172 3584 2448 3432 
Q 2725 3281 2906 2969 
z
M 947 1747 
Q 947 1113 1208 752 
Q 1469 391 1925 391 
Q 2381 391 2643 752 
Q 2906 1113 2906 1747 
Q 2906 2381 2643 2742 
Q 2381 3103 1925 3103 
Q 1469 3103 1208 2742 
Q 947 2381 947 1747 
z
" transform="scale(0.015625)"/>
       <path id="DejaVuSans-73" d="M 2834 3397 
L 2834 2853 
Q 2591 2978 2328 3040 
Q 2066 3103 1784 3103 
Q 1356 3103 1142 2972 
Q 928 2841 928 2578 
Q 928 2378 1081 2264 
Q 1234 2150 1697 2047 
L 1894 2003 
Q 2506 1872 2764 1633 
Q 3022 1394 3022 966 
Q 3022 478 2636 193 
Q 2250 -91 1575 -91 
Q 1294 -91 989 -36 
Q 684 19 347 128 
L 347 722 
Q 666 556 975 473 
Q 1284 391 1588 391 
Q 1994 391 2212 530 
Q 2431 669 2431 922 
Q 2431 1156 2273 1281 
Q 2116 1406 1581 1522 
L 1381 1569 
Q 847 1681 609 1914 
Q 372 2147 372 2553 
Q 372 3047 722 3315 
Q 1072 3584 1716 3584 
Q 2034 3584 2315 3537 
Q 2597 3491 2834 3397 
z
" transform="scale(0.015625)"/>
      </defs>
      <use xlink:href="#DejaVuSans-43"/>
      <use xlink:href="#DejaVuSans-6f" x="69.824219"/>
      <use xlink:href="#DejaVuSans-6d" x="131.005859"/>
      <use xlink:href="#DejaVuSans-6d" x="228.417969"/>
      <use xlink:href="#DejaVuSans-75" x="325.830078"/>
      <use xlink:href="#DejaVuSans-6e" x="389.208984"/>
      <use xlink:href="#DejaVuSans-69" x="452.587891"/>
      <use xlink:href="#DejaVuSans-63" x="480.371094"/>
      <use xlink:href="#DejaVuSans-61" x="535.351562"/>
      <use xlink:href="#DejaVuSans-74" x="596.630859"/>
      <use xlink:href="#DejaVuSans-69" x="635.839844"/>
      <use xlink:href="#DejaVuSans-6f" x="663.623047"/>
      <use xlink:href="#DejaVuSans-6e" x="724.804688"/>
      <use xlink:href="#DejaVuSans-20" x="788.183594"/>
      <use xlink:href="#DejaVuSans-72" x="819.970703"/>
      <use xlink:href="#DejaVuSans-6f" x="858.833984"/>
      <use xlink:href="#DejaVuSans-75" x="920.015625"/>
      <use xlink:href="#DejaVuSans-6e" x="983.394531"/>
      <use xlink:href="#DejaVuSans-64" x="1046.773438"/>
      <use xlink:href="#DejaVuSans-73" x="1110.25"/>
     </g>
    </g>
   </g>
   <g id="matplotlib.axis_2">
    <g id="ytick_1">
     <g id="line2d_19">
      <path d="M 72 338.498865 
L 518.4 338.498865 
" clip-path="url(#p56100718a4)" style="fill: none; stroke: #b0b0b0; stroke-opacity: 0.5; stroke-width: 0.8; stroke-linecap: square"/>
     </g>
     <g id="line2d_20">
      <defs>
       <path id="m8127099222" d="M 0 0 
L -3.5 0 
" style="stroke: #000000; stroke-width: 0.8"/>
      </defs>
      <g>
       <use xlink:href="#m8127099222" x="72" y="338.498865" style="stroke: #000000; stroke-width: 0.8"/>
      </g>
     </g>
     <g id="text_11">
      <!-- 0.3 -->
      <g transform="translate(49.096875 342.298083)scale(0.1 -0.1)">
       <defs>
        <path id="DejaVuSans-2e" d="M 684 794 
L 1344 794 
L 1344 0 
L 684 0 
L 684 794 
z
" transform="scale(0.015625)"/>
        <path id="DejaVuSans-33" d="M 2597 2516 
Q 3050 2419 3304 2112 
Q 3559 1806 3559 1356 
Q 3559 666 3084 287 
Q 2609 -91 1734 -91 
Q 1441 -91 1130 -33 
Q 819 25 488 141 
L 488 750 
Q 750 597 1062 519 
Q 1375 441 1716 441 
Q 2309 441 2620 675 
Q 2931 909 2931 1356 
Q 2931 1769 2642 2001 
Q 2353 2234 1838 2234 
L 1294 2234 
L 1294 2753 
L 1863 2753 
Q 2328 2753 2575 2939 
Q 2822 3125 2822 3475 
Q 2822 3834 2567 4026 
Q 2313 4219 1838 4219 
Q 1578 4219 1281 4162 
Q 984 4106 628 3988 
L 628 4550 
Q 988 4650 1302 4700 
Q 1616 4750 1894 4750 
Q 2613 4750 3031 4423 
Q 3450 4097 3450 3541 
Q 3450 3153 3228 2886 
Q 3006 2619 2597 2516 
z
" transform="scale(0.015625)"/>
       </defs>
       <use xlink:href="#DejaVuSans-30"/>
       <use xlink:href="#DejaVuSans-2e" x="63.623047"/>
       <use xlink:href="#DejaVuSans-33" x="95.410156"/>
      </g>
     </g>
    </g>
    <g id="ytick_2">
     <g id="line2d_21">
      <path d="M 72 289.590568 
L 518.4 289.590568 
" clip-path="url(#p56100718a4)" style="fill: none; stroke: #b0b0b0; stroke-opacity: 0.5; stroke-width: 0.8; stroke-linecap: square"/>
     </g>
     <g id="line2d_22">
      <g>
       <use xlink:href="#m8127099222" x="72" y="289.590568" style="stroke: #000000; stroke-width: 0.8"/>
      </g>
     </g>
     <g id="text_12">
      <!-- 0.4 -->
      <g transform="translate(49.096875 293.389786)scale(0.1 -0.1)">
       <defs>
        <path id="DejaVuSans-34" d="M 2419 4116 
L 825 1625 
L 2419 1625 
L 2419 4116 
z
M 2253 4666 
L 3047 4666 
L 3047 1625 
L 3713 1625 
L 3713 1100 
L 3047 1100 
L 3047 0 
L 2419 0 
L 2419 1100 
L 313 1100 
L 313 1709 
L 2253 4666 
z
" transform="scale(0.015625)"/>
       </defs>
       <use xlink:href="#DejaVuSans-30"/>
       <use xlink:href="#DejaVuSans-2e" x="63.623047"/>
       <use xlink:href="#DejaVuSans-34" x="95.410156"/>
      </g>
     </g>
    </g>
    <g id="ytick_3">
     <g id="line2d_23">
      <path d="M 72 240.682271 
L 518.4 240.682271 
" clip-path="url(#p56100718a4)" style="fill: none; stroke: #b0b0b0; stroke-opacity: 0.5; stroke-width: 0.8; stroke-linecap: square"/>
     </g>
     <g id="line2d_24">
      <g>
       <use xlink:href="#m8127099222" x="72" y="240.682271" style="stroke: #000000; stroke-width: 0.8"/>
      </g>
     </g>
     <g id="text_13">
      <!-- 0.5 -->
      <g transform="translate(49.096875 244.481489)scale(0.1 -0.1)">
       <use xlink:href="#DejaVuSans-30"/>
       <use xlink:href="#DejaVuSans-2e" x="63.623047"/>
       <use xlink:href="#DejaVuSans-35" x="95.410156"/>
      </g>
     </g>
    </g>
    <g id="ytick_4">
     <g id="line2d_25">
      <path d="M 72 191.773974 
L 518.4 191.773974 
" clip-path="url(#p56100718a4)" style="fill: none; stroke: #b0b0b0; stroke-opacity: 0.5; stroke-width: 0.8; stroke-linecap: square"/>
     </g>
     <g id="line2d_26">
      <g>
       <use xlink:href="#m8127099222" x="72" y="191.773974" style="stroke: #000000; stroke-width: 0.8"/>
      </g>
     </g>
     <g id="text_14">
      <!-- 0.6 -->
      <g transform="translate(49.096875 195.573193)scale(0.1 -0.1)">
       <defs>
        <path id="DejaVuSans-36" d="M 2113 2584 
Q 1688 2584 1439 2293 
Q 1191 2003 1191 1497 
Q 1191 994 1439 701 
Q 1688 409 2113 409 
Q 2538 409 2786 701 
Q 3034 994 3034 1497 
Q 3034 2003 2786 2293 
Q 2538 2584 2113 2584 
z
M 3366 4563 
L 3366 3988 
Q 3128 4100 2886 4159 
Q 2644 4219 2406 4219 
Q 1781 4219 1451 3797 
Q 1122 3375 1075 2522 
Q 1259 2794 1537 2939 
Q 1816 3084 2150 3084 
Q 2853 3084 3261 2657 
Q 3669 2231 3669 1497 
Q 3669 778 3244 343 
Q 2819 -91 2113 -91 
Q 1303 -91 875 529 
Q 447 1150 447 2328 
Q 447 3434 972 4092 
Q 1497 4750 2381 4750 
Q 2619 4750 2861 4703 
Q 3103 4656 3366 4563 
z
" transform="scale(0.015625)"/>
       </defs>
       <use xlink:href="#DejaVuSans-30"/>
       <use xlink:href="#DejaVuSans-2e" x="63.623047"/>
       <use xlink:href="#DejaVuSans-36" x="95.410156"/>
      </g>
     </g>
    </g>
    <g id="ytick_5">
     <g id="line2d_27">
      <path d="M 72 142.865677 
L 518.4 142.865677 
" clip-path="url(#p56100718a4)" style="fill: none; stroke: #b0b0b0; stroke-opacity: 0.5; stroke-width: 0.8; stroke-linecap: square"/>
     </g>
     <g id="line2d_28">
      <g>
       <use xlink:href="#m8127099222" x="72" y="142.865677" style="stroke: #000000; stroke-width: 0.8"/>
      </g>
     </g>
     <g id="text_15">
      <!-- 0.7 -->
      <g transform="translate(49.096875 146.664896)scale(0.1 -0.1)">
       <use xlink:href="#DejaVuSans-30"/>
       <use xlink:href="#DejaVuSans-2e" x="63.623047"/>
       <use xlink:href="#DejaVuSans-37" x="95.410156"/>
      </g>
     </g>
    </g>
    <g id="ytick_6">
     <g id="line2d_29">
      <path d="M 72 93.95738 
L 518.4 93.95738 
" clip-path="url(#p56100718a4)" style="fill: none; stroke: #b0b0b0; stroke-opacity: 0.5; stroke-width: 0.8; stroke-linecap: square"/>
     </g>
     <g id="line2d_30">
      <g>
       <use xlink:href="#m8127099222" x="72" y="93.95738" style="stroke: #000000; stroke-width: 0.8"/>
      </g>
     </g>
     <g id="text_16">
      <!-- 0.8 -->
      <g transform="translate(49.096875 97.756599)scale(0.1 -0.1)">
       <defs>
        <path id="DejaVuSans-38" d="M 2034 2216 
Q 1584 2216 1326 1975 
Q 1069 1734 1069 1313 
Q 1069 891 1326 650 
Q 1584 409 2034 409 
Q 2484 409 2743 651 
Q 3003 894 3003 1313 
Q 3003 1734 2745 1975 
Q 2488 2216 2034 2216 
z
M 1403 2484 
Q 997 2584 770 2862 
Q 544 3141 544 3541 
Q 544 4100 942 4425 
Q 1341 4750 2034 4750 
Q 2731 4750 3128 4425 
Q 3525 4100 3525 3541 
Q 3525 3141 3298 2862 
Q 3072 2584 2669 2484 
Q 3125 2378 3379 2068 
Q 3634 1759 3634 1313 
Q 3634 634 3220 271 
Q 2806 -91 2034 -91 
Q 1263 -91 848 271 
Q 434 634 434 1313 
Q 434 1759 690 2068 
Q 947 2378 1403 2484 
z
M 1172 3481 
Q 1172 3119 1398 2916 
Q 1625 2713 2034 2713 
Q 2441 2713 2670 2916 
Q 2900 3119 2900 3481 
Q 2900 3844 2670 4047 
Q 2441 4250 2034 4250 
Q 1625 4250 1398 4047 
Q 1172 3844 1172 3481 
z
" transform="scale(0.015625)"/>
       </defs>
       <use xlink:href="#DejaVuSans-30"/>
       <use xlink:href="#DejaVuSans-2e" x="63.623047"/>
       <use xlink:href="#DejaVuSans-38" x="95.410156"/>
      </g>
     </g>
    </g>
    <g id="text_17">
     <!-- Accuracy -->
     <g transform="translate(43.017187 240.988125)rotate(-90)scale(0.1 -0.1)">
      <defs>
       <path id="DejaVuSans-41" d="M 2188 4044 
L 1331 1722 
L 3047 1722 
L 2188 4044 
z
M 1831 4666 
L 2547 4666 
L 4325 0 
L 3669 0 
L 3244 1197 
L 1141 1197 
L 716 0 
L 50 0 
L 1831 4666 
z
" transform="scale(0.015625)"/>
       <path id="DejaVuSans-79" d="M 2059 -325 
Q 1816 -950 1584 -1140 
Q 1353 -1331 966 -1331 
L 506 -1331 
L 506 -850 
L 844 -850 
Q 1081 -850 1212 -737 
Q 1344 -625 1503 -206 
L 1606 56 
L 191 3500 
L 800 3500 
L 1894 763 
L 2988 3500 
L 3597 3500 
L 2059 -325 
z
" transform="scale(0.015625)"/>
      </defs>
      <use xlink:href="#DejaVuSans-41"/>
      <use xlink:href="#DejaVuSans-63" x="66.658203"/>
      <use xlink:href="#DejaVuSans-63" x="121.638672"/>
      <use xlink:href="#DejaVuSans-75" x="176.619141"/>
      <use xlink:href="#DejaVuSans-72" x="239.998047"/>
      <use xlink:href="#DejaVuSans-61" x="281.111328"/>
      <use xlink:href="#DejaVuSans-63" x="342.390625"/>
      <use xlink:href="#DejaVuSans-79" x="397.371094"/>
     </g>
    </g>
   </g>
   <g id="line2d_31">
    <path d="M 92.290909 361.925939 
L 94.330196 368.381834 
L 96.369484 357.524192 
L 98.408771 361.925939 
L 100.448058 357.524192 
L 102.487346 361.925939 
L 104.526633 349.84559 
L 106.565921 360.605415 
L 108.605208 357.768734 
L 110.644495 329.744279 
L 112.683783 361.925939 
L 114.72307 333.363493 
L 116.762357 317.908472 
L 118.801645 333.852576 
L 120.840932 304.018515 
L 122.880219 294.481397 
L 124.919507 269.538166 
L 126.958794 288.025502 
L 128.998081 263.326812 
L 131.037369 261.028122 
L 133.076656 257.65345 
L 135.115943 275.45607 
L 137.155231 251.001921 
L 139.194518 240.682271 
L 141.233805 239.899738 
L 143.273093 287.291878 
L 145.31238 254.327686 
L 147.351667 227.085764 
L 149.390955 233.981834 
L 151.430242 220.580961 
L 153.469529 200.7731 
L 155.508817 177.590568 
L 157.548104 176.318952 
L 159.587392 180.96524 
L 161.626679 181.454323 
L 163.665966 181.503231 
L 165.705254 222.928559 
L 167.744541 164.776594 
L 169.783828 178.911092 
L 171.823116 171.183581 
L 173.862403 148.783581 
L 175.90169 175.047336 
L 177.940978 157.000175 
L 179.980265 143.64821 
L 182.019552 133.084017 
L 184.05884 125.84559 
L 186.098127 138.219389 
L 188.137414 115.330306 
L 190.176702 132.594934 
L 192.215989 134.649083 
L 194.255276 124.035983 
L 196.294564 121.24821 
L 198.333851 110.977467 
L 200.373138 112.200175 
L 202.412426 108.385328 
L 204.451713 118.411528 
L 206.491 113.276157 
L 208.530288 109.656943 
L 210.569575 112.787074 
L 212.608862 115.330306 
L 214.64815 109.656943 
L 216.687437 108.091878 
L 218.726725 108.923319 
L 220.766012 118.166987 
L 222.805299 107.309345 
L 224.844587 108.336419 
L 228.923161 101.684891 
L 230.962449 101.684891 
L 233.001736 109.412402 
L 235.041023 106.086638 
L 237.080311 110.146026 
L 239.119598 98.84821 
L 241.158885 103.739039 
L 243.198173 113.276157 
L 245.23746 106.086638 
L 247.276747 99.337293 
L 249.316035 100.902358 
L 251.355322 100.657817 
L 253.394609 102.711965 
L 255.433897 102.467424 
L 257.473184 101.684891 
L 259.512471 105.255197 
L 261.551759 106.037729 
L 263.591046 106.282271 
L 265.630333 105.548646 
L 267.669621 98.84821 
L 269.708908 101.929432 
L 271.748196 92.685764 
L 273.787483 99.875284 
L 275.82677 101.684891 
L 277.866058 103.739039 
L 279.905345 102.956507 
L 281.944632 110.684017 
L 283.98392 97.283144 
L 286.023207 101.929432 
L 288.062494 99.337293 
L 290.101782 101.1469 
L 292.141069 98.603668 
L 294.180356 99.092751 
L 296.219644 100.657817 
L 298.258931 105.548646 
L 300.298218 95.228996 
L 302.337506 108.87441 
L 304.376793 97.821135 
L 306.41608 91.120699 
L 308.455368 98.065677 
L 310.494655 103.201048 
L 312.533942 94.25083 
L 314.57323 90.582707 
L 316.612517 95.228996 
L 318.651804 103.44559 
L 320.691092 104.228122 
L 322.730379 94.25083 
L 324.769667 96.54952 
L 326.808954 101.1469 
L 328.848241 91.36524 
L 330.887529 89.849083 
L 332.926816 97.283144 
L 334.966103 95.766987 
L 337.005391 96.011528 
L 339.044678 100.413275 
L 341.083965 95.766987 
L 343.123253 92.685764 
L 345.16254 97.821135 
L 347.201827 95.228996 
L 349.241115 101.978341 
L 351.280402 98.84821 
L 353.319689 90.338166 
L 355.358977 86.76786 
L 359.437551 95.522445 
L 361.476839 92.636856 
L 363.516126 90.142533 
L 365.555413 92.636856 
L 367.594701 90.582707 
L 369.633988 100.657817 
L 371.673275 88.528559 
L 373.712563 87.501485 
L 375.75185 94.739913 
L 377.791138 90.876157 
L 379.830425 99.875284 
L 381.869712 97.038603 
L 383.909 100.364367 
L 385.948287 101.440349 
L 387.987574 101.1469 
L 390.026862 95.228996 
L 392.066149 93.95738 
L 394.105436 83.148646 
L 396.144724 88.528559 
L 398.184011 95.228996 
L 400.223298 90.631616 
L 402.262586 88.822009 
L 404.301873 88.822009 
L 406.34116 89.604541 
L 408.380448 89.849083 
L 410.419735 89.311092 
L 412.459022 89.311092 
L 414.49831 83.393188 
L 416.537597 89.555633 
L 418.576884 93.419389 
L 420.616172 96.25607 
L 422.655459 92.392314 
L 424.694746 93.174847 
L 426.734034 86.76786 
L 428.773321 89.555633 
L 430.812608 92.685764 
L 432.851896 84.664803 
L 434.891183 85.202795 
L 436.930471 81.877031 
L 438.969758 91.854323 
L 441.009045 82.121572 
L 443.048333 90.338166 
L 445.08762 82.904105 
L 447.126907 106.86917 
L 449.166195 90.093624 
L 451.205482 87.501485 
L 453.244769 87.746026 
L 455.284057 84.175721 
L 457.323344 84.664803 
L 461.401919 85.202795 
L 463.441206 83.393188 
L 465.480493 83.931179 
L 469.559068 86.47441 
L 471.598355 91.36524 
L 473.637643 84.664803 
L 475.67693 82.415022 
L 477.716217 84.420262 
L 479.755505 85.447336 
L 481.794792 83.393188 
L 483.834079 94.739913 
L 485.873367 85.691878 
L 487.912654 80.311965 
L 489.951942 85.447336 
L 491.991229 95.228996 
L 494.030516 89.06655 
L 496.069804 77.230742 
L 498.109091 92.881397 
L 498.109091 92.881397 
" clip-path="url(#p56100718a4)" style="fill: none; stroke: #1f77b4; stroke-width: 1.5; stroke-linecap: square"/>
   </g>
   <g id="line2d_32">
    <path d="M 92.290909 338.792314 
L 94.330196 369.36 
L 96.369484 360.849956 
L 98.408771 358.795808 
L 100.448058 345.688384 
L 102.487346 327.44559 
L 104.526633 355.470044 
L 106.565921 297.318079 
L 108.605208 307.882271 
L 110.644495 315.07179 
L 112.683783 300.399301 
L 114.72307 298.883144 
L 116.762357 301.426376 
L 118.801645 291.155633 
L 120.840932 287.291878 
L 122.880219 293.209782 
L 124.919507 287.047336 
L 126.958794 298.883144 
L 128.998081 282.107598 
L 131.037369 285.726812 
L 135.115943 249.974847 
L 137.155231 233.199301 
L 139.194518 223.711092 
L 141.233805 208.011528 
L 143.273093 201.311092 
L 145.31238 190.7469 
L 147.351667 257.164367 
L 149.390955 187.421135 
L 151.430242 186.100611 
L 153.469529 185.85607 
L 155.508817 173.237729 
L 157.548104 176.07441 
L 159.587392 177.101485 
L 161.626679 176.856943 
L 163.665966 162.184454 
L 165.705254 164.483144 
L 167.744541 150.593188 
L 169.783828 156.26655 
L 171.823116 142.572227 
L 173.862403 148.539039 
L 175.90169 129.464803 
L 177.940978 131.029869 
L 179.980265 118.65607 
L 182.019552 116.65083 
L 184.05884 108.385328 
L 186.098127 102.173974 
L 188.137414 104.228122 
L 190.176702 95.228996 
L 192.215989 101.1469 
L 196.294564 88.039476 
L 198.333851 92.147773 
L 200.373138 85.202795 
L 202.412426 85.202795 
L 204.451713 84.175721 
L 206.491 86.47441 
L 208.530288 87.256943 
L 210.569575 84.175721 
L 212.608862 87.305852 
L 214.64815 80.067424 
L 216.687437 76.692751 
L 218.726725 77.719825 
L 220.766012 83.931179 
L 222.805299 79.040349 
L 224.844587 79.773974 
L 226.883874 79.529432 
L 228.923161 78.795808 
L 230.962449 79.822882 
L 233.001736 75.959127 
L 235.041023 78.502358 
L 237.080311 75.959127 
L 239.119598 71.312838 
L 241.158885 81.094498 
L 243.198173 75.910218 
L 245.23746 76.497118 
L 247.276747 77.475284 
L 249.316035 74.100611 
L 251.355322 80.556507 
L 253.394609 77.475284 
L 255.433897 75.127686 
L 257.473184 80.311965 
L 259.512471 74.394061 
L 263.591046 78.502358 
L 265.630333 77.230742 
L 267.669621 75.127686 
L 269.708908 77.719825 
L 271.748196 78.991441 
L 273.787483 76.937293 
L 275.82677 80.311965 
L 277.866058 67.693624 
L 279.905345 77.230742 
L 281.944632 75.665677 
L 283.98392 79.773974 
L 286.023207 77.230742 
L 288.062494 73.611528 
L 290.101782 85.936419 
L 292.141069 89.311092 
L 294.180356 68.231616 
L 296.219644 75.665677 
L 298.258931 81.04559 
L 300.298218 75.959127 
L 302.337506 77.964367 
L 304.376793 78.257817 
L 306.41608 75.176594 
L 308.455368 75.665677 
L 310.494655 76.692751 
L 312.533942 79.284891 
L 314.57323 71.801921 
L 316.612517 77.719825 
L 318.651804 78.502358 
L 320.691092 72.828996 
L 322.730379 75.665677 
L 324.769667 76.692751 
L 326.808954 73.611528 
L 328.848241 72.339913 
L 330.887529 77.719825 
L 332.926816 76.986201 
L 334.966103 73.073537 
L 337.005391 76.692751 
L 339.044678 76.203668 
L 341.083965 75.176594 
L 343.123253 79.529432 
L 345.16254 72.339913 
L 347.201827 70.530306 
L 349.241115 78.257817 
L 351.280402 79.040349 
L 353.319689 76.203668 
L 355.358977 74.883144 
L 357.398264 79.284891 
L 359.437551 88.822009 
L 361.476839 73.611528 
L 363.516126 72.584454 
L 365.555413 79.284891 
L 367.594701 66.96 
L 369.633988 68.720699 
L 371.673275 78.7469 
L 373.712563 96.25607 
L 375.75185 75.959127 
L 377.791138 76.986201 
L 379.830425 75.959127 
L 381.869712 77.964367 
L 383.909 85.691878 
L 385.948287 74.394061 
L 387.987574 81.583581 
L 390.026862 74.394061 
L 392.066149 75.665677 
L 394.105436 75.127686 
L 396.144724 78.991441 
L 398.184011 68.476157 
L 400.223298 74.14952 
L 402.262586 74.638603 
L 404.301873 72.584454 
L 408.380448 74.14952 
L 410.419735 74.14952 
L 412.459022 74.932052 
L 414.49831 76.44821 
L 416.537597 83.931179 
L 418.576884 75.665677 
L 420.616172 89.555633 
L 422.655459 75.421135 
L 424.694746 76.986201 
L 426.734034 76.692751 
L 428.773321 73.611528 
L 430.812608 77.719825 
L 432.851896 82.904105 
L 434.891183 73.611528 
L 436.930471 79.529432 
L 438.969758 74.883144 
L 441.009045 71.801921 
L 443.048333 82.610655 
L 445.08762 80.801048 
L 447.126907 80.067424 
L 449.166195 70.530306 
L 451.205482 75.421135 
L 453.244769 79.822882 
L 455.284057 75.176594 
L 457.323344 107.309345 
L 459.362631 71.068297 
L 461.401919 69.747773 
L 463.441206 76.44821 
L 465.480493 74.14952 
L 467.519781 79.822882 
L 469.559068 77.964367 
L 471.598355 71.068297 
L 473.637643 84.664803 
L 475.67693 80.311965 
L 477.716217 82.366114 
L 479.755505 70.285764 
L 481.794792 79.284891 
L 483.834079 74.394061 
L 485.873367 71.801921 
L 487.912654 74.883144 
L 489.951942 70.041223 
L 491.991229 76.497118 
L 494.030516 78.257817 
L 496.069804 78.257817 
L 498.109091 76.692751 
L 498.109091 76.692751 
" clip-path="url(#p56100718a4)" style="fill: none; stroke: #ff7f0e; stroke-width: 1.5; stroke-linecap: square"/>
   </g>
   <g id="line2d_33">
    <path d="M 92.290909 354.491878 
L 94.330196 345.932926 
L 96.369484 341.628996 
L 98.408771 329.45083 
L 100.448058 332.825502 
L 102.487346 359.627249 
L 104.526633 341.091004 
L 106.565921 351.117205 
L 108.605208 328.961747 
L 110.644495 327.690131 
L 112.683783 358.062183 
L 114.72307 308.615895 
L 116.762357 330.771354 
L 118.801645 330.526812 
L 120.840932 266.408035 
L 122.880219 243.27441 
L 124.919507 263.864803 
L 126.958794 216.472664 
L 128.998081 232.465677 
L 131.037369 214.467424 
L 133.076656 213.391441 
L 135.115943 208.25607 
L 137.155231 229.873537 
L 139.194518 201.017642 
L 141.233805 207.96262 
L 143.273093 186.589694 
L 145.31238 166.537293 
L 147.351667 171.183581 
L 149.390955 168.640349 
L 151.430242 155.239476 
L 153.469529 155.239476 
L 155.508817 146.973974 
L 157.548104 137.974847 
L 159.587392 137.192314 
L 161.626679 132.594934 
L 163.665966 129.758253 
L 165.705254 126.383581 
L 167.744541 130.540786 
L 169.783828 128.486638 
L 171.823116 131.518952 
L 173.862403 122.568734 
L 175.90169 121.24821 
L 177.940978 112.493624 
L 179.980265 105.255197 
L 182.019552 108.336419 
L 184.05884 102.173974 
L 186.098127 95.473537 
L 188.137414 101.684891 
L 190.176702 100.657817 
L 192.215989 103.983581 
L 194.255276 105.548646 
L 196.294564 98.310218 
L 198.333851 97.283144 
L 200.373138 93.95738 
L 202.412426 96.011528 
L 204.451713 90.093624 
L 206.491 93.712838 
L 208.530288 90.093624 
L 210.569575 102.173974 
L 212.608862 89.800175 
L 216.687437 84.664803 
L 218.726725 94.446463 
L 220.766012 89.849083 
L 222.805299 91.903231 
L 224.844587 85.447336 
L 226.883874 90.093624 
L 228.923161 83.393188 
L 230.962449 88.039476 
L 233.001736 89.311092 
L 235.041023 86.229869 
L 237.080311 87.501485 
L 239.119598 89.311092 
L 241.158885 86.963493 
L 243.198173 107.064803 
L 245.23746 88.528559 
L 247.276747 86.47441 
L 249.316035 80.311965 
L 251.355322 87.012402 
L 253.394609 87.012402 
L 255.433897 90.338166 
L 257.473184 85.936419 
L 259.512471 84.664803 
L 261.551759 88.039476 
L 263.591046 85.447336 
L 265.630333 83.148646 
L 267.669621 78.502358 
L 269.708908 80.556507 
L 273.787483 91.120699 
L 275.82677 87.794934 
L 277.866058 81.583581 
L 279.905345 82.121572 
L 281.944632 90.338166 
L 283.98392 86.229869 
L 286.023207 87.256943 
L 288.062494 74.14952 
L 290.101782 81.04559 
L 294.180356 83.637729 
L 296.219644 83.637729 
L 298.258931 82.121572 
L 300.298218 82.121572 
L 302.337506 80.849956 
L 304.376793 97.283144 
L 306.41608 97.087511 
L 308.455368 80.849956 
L 310.494655 85.985328 
L 312.533942 82.121572 
L 314.57323 82.904105 
L 316.612517 90.338166 
L 318.651804 82.610655 
L 320.691092 89.311092 
L 322.730379 90.631616 
L 324.769667 85.985328 
L 326.808954 80.311965 
L 328.848241 83.393188 
L 330.887529 84.175721 
L 332.926816 82.904105 
L 334.966103 90.582707 
L 337.005391 83.882271 
L 339.044678 91.120699 
L 341.083965 81.583581 
L 343.123253 84.664803 
L 345.16254 96.54952 
L 347.201827 76.986201 
L 349.241115 81.877031 
L 351.280402 84.664803 
L 353.319689 83.637729 
L 355.358977 82.415022 
L 357.398264 81.828122 
L 359.437551 86.229869 
L 361.476839 81.583581 
L 363.516126 87.012402 
L 365.555413 85.740786 
L 367.594701 79.773974 
L 369.633988 75.665677 
L 371.673275 82.366114 
L 373.712563 82.415022 
L 375.75185 88.528559 
L 377.791138 82.121572 
L 379.830425 83.882271 
L 381.869712 79.529432 
L 383.909 83.393188 
L 385.948287 83.393188 
L 387.987574 80.556507 
L 390.026862 93.174847 
L 392.066149 78.7469 
L 394.105436 85.985328 
L 396.144724 86.229869 
L 398.184011 83.931179 
L 400.223298 87.794934 
L 402.262586 87.012402 
L 404.301873 87.012402 
L 406.34116 91.36524 
L 408.380448 84.420262 
L 410.419735 78.502358 
L 412.459022 77.719825 
L 414.49831 78.7469 
L 416.537597 82.366114 
L 418.576884 85.202795 
L 420.616172 81.828122 
L 422.655459 80.067424 
L 424.694746 87.501485 
L 426.734034 87.012402 
L 430.812608 77.719825 
L 432.851896 85.447336 
L 434.891183 90.093624 
L 436.930471 89.849083 
L 438.969758 85.202795 
L 441.009045 85.202795 
L 443.048333 83.393188 
L 445.08762 79.284891 
L 447.126907 90.582707 
L 449.166195 83.882271 
L 451.205482 80.018515 
L 453.244769 80.556507 
L 455.284057 87.012402 
L 457.323344 84.958253 
L 459.362631 89.06655 
L 461.401919 82.366114 
L 463.441206 83.931179 
L 465.480493 81.339039 
L 467.519781 97.038603 
L 469.559068 83.393188 
L 471.598355 82.121572 
L 473.637643 95.718079 
L 475.67693 81.583581 
L 477.716217 87.012402 
L 479.755505 86.76786 
L 481.794792 83.637729 
L 483.834079 78.7469 
L 485.873367 86.718952 
L 487.912654 92.147773 
L 489.951942 87.501485 
L 491.991229 77.475284 
L 494.030516 81.339039 
L 496.069804 83.148646 
L 498.109091 80.067424 
L 498.109091 80.067424 
" clip-path="url(#p56100718a4)" style="fill: none; stroke: #2ca02c; stroke-width: 1.5; stroke-linecap: square"/>
   </g>
   <g id="line2d_34">
    <path d="M 92.290909 350.090131 
L 94.330196 348.035983 
L 96.369484 360.16524 
L 98.408771 342.65607 
L 100.448058 346.715459 
L 102.487346 340.553013 
L 104.526633 344.710218 
L 106.565921 329.255197 
L 108.605208 334.879651 
L 110.644495 324.070917 
L 112.683783 306.806288 
L 114.72307 283.134672 
L 116.762357 278.243843 
L 118.801645 259.218515 
L 120.840932 250.46393 
L 122.880219 285.188821 
L 124.919507 253.05607 
L 126.958794 238.139039 
L 128.998081 233.443843 
L 131.037369 267.190568 
L 133.076656 219.553886 
L 135.115943 217.499738 
L 137.155231 186.883144 
L 139.194518 182.236856 
L 141.233805 185.073537 
L 143.273093 177.346026 
L 145.31238 166.292751 
L 147.351667 148.294498 
L 149.390955 143.110218 
L 151.430242 140.322445 
L 153.469529 149.517205 
L 155.508817 146.191441 
L 157.548104 122.813275 
L 159.587392 121.981834 
L 161.626679 124.622882 
L 163.665966 120.759127 
L 165.705254 111.1731 
L 167.744541 115.330306 
L 169.783828 118.411528 
L 171.823116 113.520699 
L 173.862403 111.46655 
L 175.90169 110.684017 
L 177.940978 109.656943 
L 179.980265 104.032489 
L 182.019552 103.494498 
L 184.05884 119.438603 
L 186.098127 109.656943 
L 188.137414 109.656943 
L 190.176702 107.064803 
L 192.215989 99.141659 
L 194.255276 99.337293 
L 196.294564 100.168734 
L 198.333851 102.173974 
L 200.373138 99.141659 
L 202.412426 96.500611 
L 204.451713 95.766987 
L 206.491 97.038603 
L 208.530288 91.36524 
L 210.569575 96.794061 
L 212.608862 98.603668 
L 214.64815 99.924192 
L 216.687437 95.718079 
L 218.726725 93.223755 
L 220.766012 92.685764 
L 222.805299 94.446463 
L 224.844587 97.576594 
L 226.883874 98.114585 
L 228.923161 94.984454 
L 230.962449 92.392314 
L 233.001736 92.392314 
L 235.041023 96.25607 
L 237.080311 85.740786 
L 239.119598 89.849083 
L 241.158885 89.311092 
L 243.198173 94.984454 
L 245.23746 88.822009 
L 247.276747 91.36524 
L 249.316035 89.06655 
L 251.355322 94.25083 
L 253.394609 93.95738 
L 255.433897 88.332926 
L 257.473184 88.039476 
L 259.512471 93.712838 
L 261.551759 88.528559 
L 263.591046 85.202795 
L 265.630333 90.338166 
L 267.669621 93.419389 
L 269.708908 100.657817 
L 271.748196 88.332926 
L 273.787483 90.582707 
L 275.82677 92.196681 
L 277.866058 120.759127 
L 279.905345 94.739913 
L 281.944632 88.528559 
L 283.98392 105.010655 
L 286.023207 90.827249 
L 288.062494 89.06655 
L 290.101782 89.555633 
L 292.141069 88.822009 
L 294.180356 91.120699 
L 296.219644 93.95738 
L 298.258931 85.202795 
L 300.298218 86.718952 
L 302.337506 90.876157 
L 304.376793 82.610655 
L 306.41608 95.473537 
L 308.455368 88.039476 
L 310.494655 93.95738 
L 312.533942 83.637729 
L 314.57323 92.147773 
L 316.612517 86.963493 
L 318.651804 80.067424 
L 320.691092 79.529432 
L 322.730379 87.305852 
L 324.769667 84.664803 
L 326.808954 84.909345 
L 328.848241 100.364367 
L 330.887529 88.332926 
L 332.926816 81.877031 
L 334.966103 81.094498 
L 337.005391 88.332926 
L 339.044678 85.691878 
L 341.083965 84.958253 
L 343.123253 84.958253 
L 345.16254 88.822009 
L 347.201827 80.556507 
L 349.241115 82.121572 
L 351.280402 90.093624 
L 353.319689 82.121572 
L 355.358977 86.718952 
L 357.398264 84.420262 
L 359.437551 82.415022 
L 361.476839 80.067424 
L 363.516126 86.963493 
L 365.555413 83.637729 
L 367.594701 83.148646 
L 369.633988 84.175721 
L 371.673275 90.876157 
L 373.712563 83.637729 
L 375.75185 85.985328 
L 377.791138 83.637729 
L 379.830425 79.822882 
L 381.869712 82.366114 
L 383.909 89.311092 
L 385.948287 102.173974 
L 387.987574 81.094498 
L 390.026862 82.904105 
L 394.105436 82.904105 
L 396.144724 86.76786 
L 398.184011 82.610655 
L 400.223298 79.040349 
L 402.262586 77.230742 
L 404.301873 80.311965 
L 406.34116 86.76786 
L 408.380448 82.366114 
L 410.419735 79.284891 
L 412.459022 80.067424 
L 414.49831 83.148646 
L 416.537597 82.415022 
L 418.576884 78.502358 
L 420.616172 85.691878 
L 422.655459 84.175721 
L 424.694746 83.931179 
L 426.734034 78.7469 
L 428.773321 77.719825 
L 430.812608 89.555633 
L 432.851896 84.664803 
L 434.891183 80.556507 
L 436.930471 89.849083 
L 438.969758 81.877031 
L 441.009045 84.958253 
L 443.048333 75.959127 
L 445.08762 88.822009 
L 447.126907 79.822882 
L 449.166195 81.583581 
L 451.205482 82.904105 
L 453.244769 91.36524 
L 455.284057 79.284891 
L 457.323344 87.501485 
L 459.362631 93.95738 
L 461.401919 77.719825 
L 463.441206 80.067424 
L 465.480493 80.556507 
L 467.519781 83.393188 
L 469.559068 84.175721 
L 471.598355 78.502358 
L 473.637643 87.501485 
L 475.67693 86.718952 
L 477.716217 94.446463 
L 479.755505 82.610655 
L 481.794792 78.013275 
L 483.834079 78.795808 
L 485.873367 82.121572 
L 487.912654 83.148646 
L 489.951942 76.986201 
L 491.991229 81.094498 
L 494.030516 80.067424 
L 496.069804 82.610655 
L 498.109091 86.76786 
L 498.109091 86.76786 
" clip-path="url(#p56100718a4)" style="fill: none; stroke: #d62728; stroke-width: 1.5; stroke-linecap: square"/>
   </g>
   <g id="patch_3">
    <path d="M 72 384.48 
L 72 51.84 
" style="fill: none; stroke: #000000; stroke-width: 0.8; stroke-linejoin: miter; stroke-linecap: square"/>
   </g>
   <g id="patch_4">
    <path d="M 518.4 384.48 
L 518.4 51.84 
" style="fill: none; stroke: #000000; stroke-width: 0.8; stroke-linejoin: miter; stroke-linecap: square"/>
   </g>
   <g id="patch_5">
    <path d="M 72 384.48 
L 518.4 384.48 
" style="fill: none; stroke: #000000; stroke-width: 0.8; stroke-linejoin: miter; stroke-linecap: square"/>
   </g>
   <g id="patch_6">
    <path d="M 72 51.84 
L 518.4 51.84 
" style="fill: none; stroke: #000000; stroke-width: 0.8; stroke-linejoin: miter; stroke-linecap: square"/>
   </g>
   <g id="text_18">
    <!-- Basic-Common -->
    <g transform="translate(250.126875 45.84)scale(0.12 -0.12)">
     <defs>
      <path id="DejaVuSans-42" d="M 1259 2228 
L 1259 519 
L 2272 519 
Q 2781 519 3026 730 
Q 3272 941 3272 1375 
Q 3272 1813 3026 2020 
Q 2781 2228 2272 2228 
L 1259 2228 
z
M 1259 4147 
L 1259 2741 
L 2194 2741 
Q 2656 2741 2882 2914 
Q 3109 3088 3109 3444 
Q 3109 3797 2882 3972 
Q 2656 4147 2194 4147 
L 1259 4147 
z
M 628 4666 
L 2241 4666 
Q 2963 4666 3353 4366 
Q 3744 4066 3744 3513 
Q 3744 3084 3544 2831 
Q 3344 2578 2956 2516 
Q 3422 2416 3680 2098 
Q 3938 1781 3938 1306 
Q 3938 681 3513 340 
Q 3088 0 2303 0 
L 628 0 
L 628 4666 
z
" transform="scale(0.015625)"/>
      <path id="DejaVuSans-2d" d="M 313 2009 
L 1997 2009 
L 1997 1497 
L 313 1497 
L 313 2009 
z
" transform="scale(0.015625)"/>
     </defs>
     <use xlink:href="#DejaVuSans-42"/>
     <use xlink:href="#DejaVuSans-61" x="68.603516"/>
     <use xlink:href="#DejaVuSans-73" x="129.882812"/>
     <use xlink:href="#DejaVuSans-69" x="181.982422"/>
     <use xlink:href="#DejaVuSans-63" x="209.765625"/>
     <use xlink:href="#DejaVuSans-2d" x="264.746094"/>
     <use xlink:href="#DejaVuSans-43" x="300.830078"/>
     <use xlink:href="#DejaVuSans-6f" x="370.654297"/>
     <use xlink:href="#DejaVuSans-6d" x="431.835938"/>
     <use xlink:href="#DejaVuSans-6d" x="529.248047"/>
     <use xlink:href="#DejaVuSans-6f" x="626.660156"/>
     <use xlink:href="#DejaVuSans-6e" x="687.841797"/>
    </g>
   </g>
   <g id="legend_1">
    <g id="patch_7">
     <path d="M 79 118.5525 
L 124.203125 118.5525 
Q 126.203125 118.5525 126.203125 116.5525 
L 126.203125 58.84 
Q 126.203125 56.84 124.203125 56.84 
L 79 56.84 
Q 77 56.84 77 58.84 
L 77 116.5525 
Q 77 118.5525 79 118.5525 
z
" style="fill: #ffffff; opacity: 0.8; stroke: #cccccc; stroke-linejoin: miter"/>
    </g>
    <g id="line2d_35">
     <path d="M 81 64.938438 
L 91 64.938438 
L 101 64.938438 
" style="fill: none; stroke: #1f77b4; stroke-width: 1.5; stroke-linecap: square"/>
    </g>
    <g id="text_19">
     <!-- V1 -->
     <g transform="translate(109 68.438438)scale(0.1 -0.1)">
      <defs>
       <path id="DejaVuSans-56" d="M 1831 0 
L 50 4666 
L 709 4666 
L 2188 738 
L 3669 4666 
L 4325 4666 
L 2547 0 
L 1831 0 
z
" transform="scale(0.015625)"/>
      </defs>
      <use xlink:href="#DejaVuSans-56"/>
      <use xlink:href="#DejaVuSans-31" x="68.408203"/>
     </g>
    </g>
    <g id="line2d_36">
     <path d="M 81 79.616563 
L 91 79.616563 
L 101 79.616563 
" style="fill: none; stroke: #ff7f0e; stroke-width: 1.5; stroke-linecap: square"/>
    </g>
    <g id="text_20">
     <!-- V2 -->
     <g transform="translate(109 83.116563)scale(0.1 -0.1)">
      <use xlink:href="#DejaVuSans-56"/>
      <use xlink:href="#DejaVuSans-32" x="68.408203"/>
     </g>
    </g>
    <g id="line2d_37">
     <path d="M 81 94.294688 
L 91 94.294688 
L 101 94.294688 
" style="fill: none; stroke: #2ca02c; stroke-width: 1.5; stroke-linecap: square"/>
    </g>
    <g id="text_21">
     <!-- V3 -->
     <g transform="translate(109 97.794688)scale(0.1 -0.1)">
      <use xlink:href="#DejaVuSans-56"/>
      <use xlink:href="#DejaVuSans-33" x="68.408203"/>
     </g>
    </g>
    <g id="line2d_38">
     <path d="M 81 108.972813 
L 91 108.972813 
L 101 108.972813 
" style="fill: none; stroke: #d62728; stroke-width: 1.5; stroke-linecap: square"/>
    </g>
    <g id="text_22">
     <!-- V4 -->
     <g transform="translate(109 112.472813)scale(0.1 -0.1)">
      <use xlink:href="#DejaVuSans-56"/>
      <use xlink:href="#DejaVuSans-34" x="68.408203"/>
     </g>
    </g>
   </g>
  </g>
 </g>
 <defs>
  <clipPath id="p56100718a4">
   <rect x="72" y="51.84" width="446.4" height="332.64"/>
  </clipPath>
 </defs>
</svg>
