<?xml version="1.0" encoding="utf-8" standalone="no"?>
<!DOCTYPE svg PUBLIC "-//W3C//DTD SVG 1.1//EN"
  "http://www.w3.org/Graphics/SVG/1.1/DTD/svg11.dtd">
<svg xmlns:xlink="http://www.w3.org/1999/xlink" width="576pt" height="432pt" viewBox="0 0 576 432" xmlns="http://www.w3.org/2000/svg" version="1.1">
 <metadata>
  <rdf:RDF xmlns:dc="http://purl.org/dc/elements/1.1/" xmlns:cc="http://creativecommons.org/ns#" xmlns:rdf="http://www.w3.org/1999/02/22-rdf-syntax-ns#">
   <cc:Work>
    <dc:type rdf:resource="http://purl.org/dc/dcmitype/StillImage"/>
    <dc:date>2023-08-05T22:29:23.852367</dc:date>
    <dc:format>image/svg+xml</dc:format>
    <dc:creator>
     <cc:Agent>
      <dc:title>Matplotlib v3.5.1, https://matplotlib.org/</dc:title>
     </cc:Agent>
    </dc:creator>
   </cc:Work>
  </rdf:RDF>
 </metadata>
 <defs>
  <style type="text/css">*{stroke-linejoin: round; stroke-linecap: butt}</style>
 </defs>
 <g id="figure_1">
  <g id="patch_1">
   <path d="M 0 432 
L 576 432 
L 576 0 
L 0 0 
z
" style="fill: #ffffff"/>
  </g>
  <g id="axes_1">
   <g id="patch_2">
    <path d="M 72 384.48 
L 518.4 384.48 
L 518.4 51.84 
L 72 51.84 
z
" style="fill: #ffffff"/>
   </g>
   <g id="matplotlib.axis_1">
    <g id="xtick_1">
     <g id="line2d_1">
      <path d="M 92.290909 384.48 
L 92.290909 51.84 
" clip-path="url(#pc152fa4f1d)" style="fill: none; stroke: #b0b0b0; stroke-opacity: 0.5; stroke-width: 0.8; stroke-linecap: square"/>
     </g>
     <g id="line2d_2">
      <defs>
       <path id="mb4e11abf7b" d="M 0 0 
L 0 3.5 
" style="stroke: #000000; stroke-width: 0.8"/>
      </defs>
      <g>
       <use xlink:href="#mb4e11abf7b" x="92.290909" y="384.48" style="stroke: #000000; stroke-width: 0.8"/>
      </g>
     </g>
     <g id="text_1">
      <!-- 0 -->
      <g transform="translate(89.109659 399.078438)scale(0.1 -0.1)">
       <defs>
        <path id="DejaVuSans-30" d="M 2034 4250 
Q 1547 4250 1301 3770 
Q 1056 3291 1056 2328 
Q 1056 1369 1301 889 
Q 1547 409 2034 409 
Q 2525 409 2770 889 
Q 3016 1369 3016 2328 
Q 3016 3291 2770 3770 
Q 2525 4250 2034 4250 
z
M 2034 4750 
Q 2819 4750 3233 4129 
Q 3647 3509 3647 2328 
Q 3647 1150 3233 529 
Q 2819 -91 2034 -91 
Q 1250 -91 836 529 
Q 422 1150 422 2328 
Q 422 3509 836 4129 
Q 1250 4750 2034 4750 
z
" transform="scale(0.015625)"/>
       </defs>
       <use xlink:href="#DejaVuSans-30"/>
      </g>
     </g>
    </g>
    <g id="xtick_2">
     <g id="line2d_3">
      <path d="M 160.495646 384.48 
L 160.495646 51.84 
" clip-path="url(#pc152fa4f1d)" style="fill: none; stroke: #b0b0b0; stroke-opacity: 0.5; stroke-width: 0.8; stroke-linecap: square"/>
     </g>
     <g id="line2d_4">
      <g>
       <use xlink:href="#mb4e11abf7b" x="160.495646" y="384.48" style="stroke: #000000; stroke-width: 0.8"/>
      </g>
     </g>
     <g id="text_2">
      <!-- 20 -->
      <g transform="translate(154.133146 399.078438)scale(0.1 -0.1)">
       <defs>
        <path id="DejaVuSans-32" d="M 1228 531 
L 3431 531 
L 3431 0 
L 469 0 
L 469 531 
Q 828 903 1448 1529 
Q 2069 2156 2228 2338 
Q 2531 2678 2651 2914 
Q 2772 3150 2772 3378 
Q 2772 3750 2511 3984 
Q 2250 4219 1831 4219 
Q 1534 4219 1204 4116 
Q 875 4013 500 3803 
L 500 4441 
Q 881 4594 1212 4672 
Q 1544 4750 1819 4750 
Q 2544 4750 2975 4387 
Q 3406 4025 3406 3419 
Q 3406 3131 3298 2873 
Q 3191 2616 2906 2266 
Q 2828 2175 2409 1742 
Q 1991 1309 1228 531 
z
" transform="scale(0.015625)"/>
       </defs>
       <use xlink:href="#DejaVuSans-32"/>
       <use xlink:href="#DejaVuSans-30" x="63.623047"/>
      </g>
     </g>
    </g>
    <g id="xtick_3">
     <g id="line2d_5">
      <path d="M 228.700382 384.48 
L 228.700382 51.84 
" clip-path="url(#pc152fa4f1d)" style="fill: none; stroke: #b0b0b0; stroke-opacity: 0.5; stroke-width: 0.8; stroke-linecap: square"/>
     </g>
     <g id="line2d_6">
      <g>
       <use xlink:href="#mb4e11abf7b" x="228.700382" y="384.48" style="stroke: #000000; stroke-width: 0.8"/>
      </g>
     </g>
     <g id="text_3">
      <!-- 40 -->
      <g transform="translate(222.337882 399.078438)scale(0.1 -0.1)">
       <defs>
        <path id="DejaVuSans-34" d="M 2419 4116 
L 825 1625 
L 2419 1625 
L 2419 4116 
z
M 2253 4666 
L 3047 4666 
L 3047 1625 
L 3713 1625 
L 3713 1100 
L 3047 1100 
L 3047 0 
L 2419 0 
L 2419 1100 
L 313 1100 
L 313 1709 
L 2253 4666 
z
" transform="scale(0.015625)"/>
       </defs>
       <use xlink:href="#DejaVuSans-34"/>
       <use xlink:href="#DejaVuSans-30" x="63.623047"/>
      </g>
     </g>
    </g>
    <g id="xtick_4">
     <g id="line2d_7">
      <path d="M 296.905118 384.48 
L 296.905118 51.84 
" clip-path="url(#pc152fa4f1d)" style="fill: none; stroke: #b0b0b0; stroke-opacity: 0.5; stroke-width: 0.8; stroke-linecap: square"/>
     </g>
     <g id="line2d_8">
      <g>
       <use xlink:href="#mb4e11abf7b" x="296.905118" y="384.48" style="stroke: #000000; stroke-width: 0.8"/>
      </g>
     </g>
     <g id="text_4">
      <!-- 60 -->
      <g transform="translate(290.542618 399.078438)scale(0.1 -0.1)">
       <defs>
        <path id="DejaVuSans-36" d="M 2113 2584 
Q 1688 2584 1439 2293 
Q 1191 2003 1191 1497 
Q 1191 994 1439 701 
Q 1688 409 2113 409 
Q 2538 409 2786 701 
Q 3034 994 3034 1497 
Q 3034 2003 2786 2293 
Q 2538 2584 2113 2584 
z
M 3366 4563 
L 3366 3988 
Q 3128 4100 2886 4159 
Q 2644 4219 2406 4219 
Q 1781 4219 1451 3797 
Q 1122 3375 1075 2522 
Q 1259 2794 1537 2939 
Q 1816 3084 2150 3084 
Q 2853 3084 3261 2657 
Q 3669 2231 3669 1497 
Q 3669 778 3244 343 
Q 2819 -91 2113 -91 
Q 1303 -91 875 529 
Q 447 1150 447 2328 
Q 447 3434 972 4092 
Q 1497 4750 2381 4750 
Q 2619 4750 2861 4703 
Q 3103 4656 3366 4563 
z
" transform="scale(0.015625)"/>
       </defs>
       <use xlink:href="#DejaVuSans-36"/>
       <use xlink:href="#DejaVuSans-30" x="63.623047"/>
      </g>
     </g>
    </g>
    <g id="xtick_5">
     <g id="line2d_9">
      <path d="M 365.109855 384.48 
L 365.109855 51.84 
" clip-path="url(#pc152fa4f1d)" style="fill: none; stroke: #b0b0b0; stroke-opacity: 0.5; stroke-width: 0.8; stroke-linecap: square"/>
     </g>
     <g id="line2d_10">
      <g>
       <use xlink:href="#mb4e11abf7b" x="365.109855" y="384.48" style="stroke: #000000; stroke-width: 0.8"/>
      </g>
     </g>
     <g id="text_5">
      <!-- 80 -->
      <g transform="translate(358.747355 399.078438)scale(0.1 -0.1)">
       <defs>
        <path id="DejaVuSans-38" d="M 2034 2216 
Q 1584 2216 1326 1975 
Q 1069 1734 1069 1313 
Q 1069 891 1326 650 
Q 1584 409 2034 409 
Q 2484 409 2743 651 
Q 3003 894 3003 1313 
Q 3003 1734 2745 1975 
Q 2488 2216 2034 2216 
z
M 1403 2484 
Q 997 2584 770 2862 
Q 544 3141 544 3541 
Q 544 4100 942 4425 
Q 1341 4750 2034 4750 
Q 2731 4750 3128 4425 
Q 3525 4100 3525 3541 
Q 3525 3141 3298 2862 
Q 3072 2584 2669 2484 
Q 3125 2378 3379 2068 
Q 3634 1759 3634 1313 
Q 3634 634 3220 271 
Q 2806 -91 2034 -91 
Q 1263 -91 848 271 
Q 434 634 434 1313 
Q 434 1759 690 2068 
Q 947 2378 1403 2484 
z
M 1172 3481 
Q 1172 3119 1398 2916 
Q 1625 2713 2034 2713 
Q 2441 2713 2670 2916 
Q 2900 3119 2900 3481 
Q 2900 3844 2670 4047 
Q 2441 4250 2034 4250 
Q 1625 4250 1398 4047 
Q 1172 3844 1172 3481 
z
" transform="scale(0.015625)"/>
       </defs>
       <use xlink:href="#DejaVuSans-38"/>
       <use xlink:href="#DejaVuSans-30" x="63.623047"/>
      </g>
     </g>
    </g>
    <g id="xtick_6">
     <g id="line2d_11">
      <path d="M 433.314591 384.48 
L 433.314591 51.84 
" clip-path="url(#pc152fa4f1d)" style="fill: none; stroke: #b0b0b0; stroke-opacity: 0.5; stroke-width: 0.8; stroke-linecap: square"/>
     </g>
     <g id="line2d_12">
      <g>
       <use xlink:href="#mb4e11abf7b" x="433.314591" y="384.48" style="stroke: #000000; stroke-width: 0.8"/>
      </g>
     </g>
     <g id="text_6">
      <!-- 100 -->
      <g transform="translate(423.770841 399.078438)scale(0.1 -0.1)">
       <defs>
        <path id="DejaVuSans-31" d="M 794 531 
L 1825 531 
L 1825 4091 
L 703 3866 
L 703 4441 
L 1819 4666 
L 2450 4666 
L 2450 531 
L 3481 531 
L 3481 0 
L 794 0 
L 794 531 
z
" transform="scale(0.015625)"/>
       </defs>
       <use xlink:href="#DejaVuSans-31"/>
       <use xlink:href="#DejaVuSans-30" x="63.623047"/>
       <use xlink:href="#DejaVuSans-30" x="127.246094"/>
      </g>
     </g>
    </g>
    <g id="xtick_7">
     <g id="line2d_13">
      <path d="M 501.519328 384.48 
L 501.519328 51.84 
" clip-path="url(#pc152fa4f1d)" style="fill: none; stroke: #b0b0b0; stroke-opacity: 0.5; stroke-width: 0.8; stroke-linecap: square"/>
     </g>
     <g id="line2d_14">
      <g>
       <use xlink:href="#mb4e11abf7b" x="501.519328" y="384.48" style="stroke: #000000; stroke-width: 0.8"/>
      </g>
     </g>
     <g id="text_7">
      <!-- 120 -->
      <g transform="translate(491.975578 399.078438)scale(0.1 -0.1)">
       <use xlink:href="#DejaVuSans-31"/>
       <use xlink:href="#DejaVuSans-32" x="63.623047"/>
       <use xlink:href="#DejaVuSans-30" x="127.246094"/>
      </g>
     </g>
    </g>
    <g id="text_8">
     <!-- Communication rounds -->
     <g transform="translate(237.083594 412.756563)scale(0.1 -0.1)">
      <defs>
       <path id="DejaVuSans-43" d="M 4122 4306 
L 4122 3641 
Q 3803 3938 3442 4084 
Q 3081 4231 2675 4231 
Q 1875 4231 1450 3742 
Q 1025 3253 1025 2328 
Q 1025 1406 1450 917 
Q 1875 428 2675 428 
Q 3081 428 3442 575 
Q 3803 722 4122 1019 
L 4122 359 
Q 3791 134 3420 21 
Q 3050 -91 2638 -91 
Q 1578 -91 968 557 
Q 359 1206 359 2328 
Q 359 3453 968 4101 
Q 1578 4750 2638 4750 
Q 3056 4750 3426 4639 
Q 3797 4528 4122 4306 
z
" transform="scale(0.015625)"/>
       <path id="DejaVuSans-6f" d="M 1959 3097 
Q 1497 3097 1228 2736 
Q 959 2375 959 1747 
Q 959 1119 1226 758 
Q 1494 397 1959 397 
Q 2419 397 2687 759 
Q 2956 1122 2956 1747 
Q 2956 2369 2687 2733 
Q 2419 3097 1959 3097 
z
M 1959 3584 
Q 2709 3584 3137 3096 
Q 3566 2609 3566 1747 
Q 3566 888 3137 398 
Q 2709 -91 1959 -91 
Q 1206 -91 779 398 
Q 353 888 353 1747 
Q 353 2609 779 3096 
Q 1206 3584 1959 3584 
z
" transform="scale(0.015625)"/>
       <path id="DejaVuSans-6d" d="M 3328 2828 
Q 3544 3216 3844 3400 
Q 4144 3584 4550 3584 
Q 5097 3584 5394 3201 
Q 5691 2819 5691 2113 
L 5691 0 
L 5113 0 
L 5113 2094 
Q 5113 2597 4934 2840 
Q 4756 3084 4391 3084 
Q 3944 3084 3684 2787 
Q 3425 2491 3425 1978 
L 3425 0 
L 2847 0 
L 2847 2094 
Q 2847 2600 2669 2842 
Q 2491 3084 2119 3084 
Q 1678 3084 1418 2786 
Q 1159 2488 1159 1978 
L 1159 0 
L 581 0 
L 581 3500 
L 1159 3500 
L 1159 2956 
Q 1356 3278 1631 3431 
Q 1906 3584 2284 3584 
Q 2666 3584 2933 3390 
Q 3200 3197 3328 2828 
z
" transform="scale(0.015625)"/>
       <path id="DejaVuSans-75" d="M 544 1381 
L 544 3500 
L 1119 3500 
L 1119 1403 
Q 1119 906 1312 657 
Q 1506 409 1894 409 
Q 2359 409 2629 706 
Q 2900 1003 2900 1516 
L 2900 3500 
L 3475 3500 
L 3475 0 
L 2900 0 
L 2900 538 
Q 2691 219 2414 64 
Q 2138 -91 1772 -91 
Q 1169 -91 856 284 
Q 544 659 544 1381 
z
M 1991 3584 
L 1991 3584 
z
" transform="scale(0.015625)"/>
       <path id="DejaVuSans-6e" d="M 3513 2113 
L 3513 0 
L 2938 0 
L 2938 2094 
Q 2938 2591 2744 2837 
Q 2550 3084 2163 3084 
Q 1697 3084 1428 2787 
Q 1159 2491 1159 1978 
L 1159 0 
L 581 0 
L 581 3500 
L 1159 3500 
L 1159 2956 
Q 1366 3272 1645 3428 
Q 1925 3584 2291 3584 
Q 2894 3584 3203 3211 
Q 3513 2838 3513 2113 
z
" transform="scale(0.015625)"/>
       <path id="DejaVuSans-69" d="M 603 3500 
L 1178 3500 
L 1178 0 
L 603 0 
L 603 3500 
z
M 603 4863 
L 1178 4863 
L 1178 4134 
L 603 4134 
L 603 4863 
z
" transform="scale(0.015625)"/>
       <path id="DejaVuSans-63" d="M 3122 3366 
L 3122 2828 
Q 2878 2963 2633 3030 
Q 2388 3097 2138 3097 
Q 1578 3097 1268 2742 
Q 959 2388 959 1747 
Q 959 1106 1268 751 
Q 1578 397 2138 397 
Q 2388 397 2633 464 
Q 2878 531 3122 666 
L 3122 134 
Q 2881 22 2623 -34 
Q 2366 -91 2075 -91 
Q 1284 -91 818 406 
Q 353 903 353 1747 
Q 353 2603 823 3093 
Q 1294 3584 2113 3584 
Q 2378 3584 2631 3529 
Q 2884 3475 3122 3366 
z
" transform="scale(0.015625)"/>
       <path id="DejaVuSans-61" d="M 2194 1759 
Q 1497 1759 1228 1600 
Q 959 1441 959 1056 
Q 959 750 1161 570 
Q 1363 391 1709 391 
Q 2188 391 2477 730 
Q 2766 1069 2766 1631 
L 2766 1759 
L 2194 1759 
z
M 3341 1997 
L 3341 0 
L 2766 0 
L 2766 531 
Q 2569 213 2275 61 
Q 1981 -91 1556 -91 
Q 1019 -91 701 211 
Q 384 513 384 1019 
Q 384 1609 779 1909 
Q 1175 2209 1959 2209 
L 2766 2209 
L 2766 2266 
Q 2766 2663 2505 2880 
Q 2244 3097 1772 3097 
Q 1472 3097 1187 3025 
Q 903 2953 641 2809 
L 641 3341 
Q 956 3463 1253 3523 
Q 1550 3584 1831 3584 
Q 2591 3584 2966 3190 
Q 3341 2797 3341 1997 
z
" transform="scale(0.015625)"/>
       <path id="DejaVuSans-74" d="M 1172 4494 
L 1172 3500 
L 2356 3500 
L 2356 3053 
L 1172 3053 
L 1172 1153 
Q 1172 725 1289 603 
Q 1406 481 1766 481 
L 2356 481 
L 2356 0 
L 1766 0 
Q 1100 0 847 248 
Q 594 497 594 1153 
L 594 3053 
L 172 3053 
L 172 3500 
L 594 3500 
L 594 4494 
L 1172 4494 
z
" transform="scale(0.015625)"/>
       <path id="DejaVuSans-20" transform="scale(0.015625)"/>
       <path id="DejaVuSans-72" d="M 2631 2963 
Q 2534 3019 2420 3045 
Q 2306 3072 2169 3072 
Q 1681 3072 1420 2755 
Q 1159 2438 1159 1844 
L 1159 0 
L 581 0 
L 581 3500 
L 1159 3500 
L 1159 2956 
Q 1341 3275 1631 3429 
Q 1922 3584 2338 3584 
Q 2397 3584 2469 3576 
Q 2541 3569 2628 3553 
L 2631 2963 
z
" transform="scale(0.015625)"/>
       <path id="DejaVuSans-64" d="M 2906 2969 
L 2906 4863 
L 3481 4863 
L 3481 0 
L 2906 0 
L 2906 525 
Q 2725 213 2448 61 
Q 2172 -91 1784 -91 
Q 1150 -91 751 415 
Q 353 922 353 1747 
Q 353 2572 751 3078 
Q 1150 3584 1784 3584 
Q 2172 3584 2448 3432 
Q 2725 3281 2906 2969 
z
M 947 1747 
Q 947 1113 1208 752 
Q 1469 391 1925 391 
Q 2381 391 2643 752 
Q 2906 1113 2906 1747 
Q 2906 2381 2643 2742 
Q 2381 3103 1925 3103 
Q 1469 3103 1208 2742 
Q 947 2381 947 1747 
z
" transform="scale(0.015625)"/>
       <path id="DejaVuSans-73" d="M 2834 3397 
L 2834 2853 
Q 2591 2978 2328 3040 
Q 2066 3103 1784 3103 
Q 1356 3103 1142 2972 
Q 928 2841 928 2578 
Q 928 2378 1081 2264 
Q 1234 2150 1697 2047 
L 1894 2003 
Q 2506 1872 2764 1633 
Q 3022 1394 3022 966 
Q 3022 478 2636 193 
Q 2250 -91 1575 -91 
Q 1294 -91 989 -36 
Q 684 19 347 128 
L 347 722 
Q 666 556 975 473 
Q 1284 391 1588 391 
Q 1994 391 2212 530 
Q 2431 669 2431 922 
Q 2431 1156 2273 1281 
Q 2116 1406 1581 1522 
L 1381 1569 
Q 847 1681 609 1914 
Q 372 2147 372 2553 
Q 372 3047 722 3315 
Q 1072 3584 1716 3584 
Q 2034 3584 2315 3537 
Q 2597 3491 2834 3397 
z
" transform="scale(0.015625)"/>
      </defs>
      <use xlink:href="#DejaVuSans-43"/>
      <use xlink:href="#DejaVuSans-6f" x="69.824219"/>
      <use xlink:href="#DejaVuSans-6d" x="131.005859"/>
      <use xlink:href="#DejaVuSans-6d" x="228.417969"/>
      <use xlink:href="#DejaVuSans-75" x="325.830078"/>
      <use xlink:href="#DejaVuSans-6e" x="389.208984"/>
      <use xlink:href="#DejaVuSans-69" x="452.587891"/>
      <use xlink:href="#DejaVuSans-63" x="480.371094"/>
      <use xlink:href="#DejaVuSans-61" x="535.351562"/>
      <use xlink:href="#DejaVuSans-74" x="596.630859"/>
      <use xlink:href="#DejaVuSans-69" x="635.839844"/>
      <use xlink:href="#DejaVuSans-6f" x="663.623047"/>
      <use xlink:href="#DejaVuSans-6e" x="724.804688"/>
      <use xlink:href="#DejaVuSans-20" x="788.183594"/>
      <use xlink:href="#DejaVuSans-72" x="819.970703"/>
      <use xlink:href="#DejaVuSans-6f" x="858.833984"/>
      <use xlink:href="#DejaVuSans-75" x="920.015625"/>
      <use xlink:href="#DejaVuSans-6e" x="983.394531"/>
      <use xlink:href="#DejaVuSans-64" x="1046.773438"/>
      <use xlink:href="#DejaVuSans-73" x="1110.25"/>
     </g>
    </g>
   </g>
   <g id="matplotlib.axis_2">
    <g id="ytick_1">
     <g id="line2d_15">
      <path d="M 72 363.137115 
L 518.4 363.137115 
" clip-path="url(#pc152fa4f1d)" style="fill: none; stroke: #b0b0b0; stroke-opacity: 0.5; stroke-width: 0.8; stroke-linecap: square"/>
     </g>
     <g id="line2d_16">
      <defs>
       <path id="m486d7ed89e" d="M 0 0 
L -3.5 0 
" style="stroke: #000000; stroke-width: 0.8"/>
      </defs>
      <g>
       <use xlink:href="#m486d7ed89e" x="72" y="363.137115" style="stroke: #000000; stroke-width: 0.8"/>
      </g>
     </g>
     <g id="text_9">
      <!-- 0.3 -->
      <g transform="translate(49.096875 366.936334)scale(0.1 -0.1)">
       <defs>
        <path id="DejaVuSans-2e" d="M 684 794 
L 1344 794 
L 1344 0 
L 684 0 
L 684 794 
z
" transform="scale(0.015625)"/>
        <path id="DejaVuSans-33" d="M 2597 2516 
Q 3050 2419 3304 2112 
Q 3559 1806 3559 1356 
Q 3559 666 3084 287 
Q 2609 -91 1734 -91 
Q 1441 -91 1130 -33 
Q 819 25 488 141 
L 488 750 
Q 750 597 1062 519 
Q 1375 441 1716 441 
Q 2309 441 2620 675 
Q 2931 909 2931 1356 
Q 2931 1769 2642 2001 
Q 2353 2234 1838 2234 
L 1294 2234 
L 1294 2753 
L 1863 2753 
Q 2328 2753 2575 2939 
Q 2822 3125 2822 3475 
Q 2822 3834 2567 4026 
Q 2313 4219 1838 4219 
Q 1578 4219 1281 4162 
Q 984 4106 628 3988 
L 628 4550 
Q 988 4650 1302 4700 
Q 1616 4750 1894 4750 
Q 2613 4750 3031 4423 
Q 3450 4097 3450 3541 
Q 3450 3153 3228 2886 
Q 3006 2619 2597 2516 
z
" transform="scale(0.015625)"/>
       </defs>
       <use xlink:href="#DejaVuSans-30"/>
       <use xlink:href="#DejaVuSans-2e" x="63.623047"/>
       <use xlink:href="#DejaVuSans-33" x="95.410156"/>
      </g>
     </g>
    </g>
    <g id="ytick_2">
     <g id="line2d_17">
      <path d="M 72 309.491559 
L 518.4 309.491559 
" clip-path="url(#pc152fa4f1d)" style="fill: none; stroke: #b0b0b0; stroke-opacity: 0.5; stroke-width: 0.8; stroke-linecap: square"/>
     </g>
     <g id="line2d_18">
      <g>
       <use xlink:href="#m486d7ed89e" x="72" y="309.491559" style="stroke: #000000; stroke-width: 0.8"/>
      </g>
     </g>
     <g id="text_10">
      <!-- 0.4 -->
      <g transform="translate(49.096875 313.290778)scale(0.1 -0.1)">
       <use xlink:href="#DejaVuSans-30"/>
       <use xlink:href="#DejaVuSans-2e" x="63.623047"/>
       <use xlink:href="#DejaVuSans-34" x="95.410156"/>
      </g>
     </g>
    </g>
    <g id="ytick_3">
     <g id="line2d_19">
      <path d="M 72 255.846003 
L 518.4 255.846003 
" clip-path="url(#pc152fa4f1d)" style="fill: none; stroke: #b0b0b0; stroke-opacity: 0.5; stroke-width: 0.8; stroke-linecap: square"/>
     </g>
     <g id="line2d_20">
      <g>
       <use xlink:href="#m486d7ed89e" x="72" y="255.846003" style="stroke: #000000; stroke-width: 0.8"/>
      </g>
     </g>
     <g id="text_11">
      <!-- 0.5 -->
      <g transform="translate(49.096875 259.645222)scale(0.1 -0.1)">
       <defs>
        <path id="DejaVuSans-35" d="M 691 4666 
L 3169 4666 
L 3169 4134 
L 1269 4134 
L 1269 2991 
Q 1406 3038 1543 3061 
Q 1681 3084 1819 3084 
Q 2600 3084 3056 2656 
Q 3513 2228 3513 1497 
Q 3513 744 3044 326 
Q 2575 -91 1722 -91 
Q 1428 -91 1123 -41 
Q 819 9 494 109 
L 494 744 
Q 775 591 1075 516 
Q 1375 441 1709 441 
Q 2250 441 2565 725 
Q 2881 1009 2881 1497 
Q 2881 1984 2565 2268 
Q 2250 2553 1709 2553 
Q 1456 2553 1204 2497 
Q 953 2441 691 2322 
L 691 4666 
z
" transform="scale(0.015625)"/>
       </defs>
       <use xlink:href="#DejaVuSans-30"/>
       <use xlink:href="#DejaVuSans-2e" x="63.623047"/>
       <use xlink:href="#DejaVuSans-35" x="95.410156"/>
      </g>
     </g>
    </g>
    <g id="ytick_4">
     <g id="line2d_21">
      <path d="M 72 202.200447 
L 518.4 202.200447 
" clip-path="url(#pc152fa4f1d)" style="fill: none; stroke: #b0b0b0; stroke-opacity: 0.5; stroke-width: 0.8; stroke-linecap: square"/>
     </g>
     <g id="line2d_22">
      <g>
       <use xlink:href="#m486d7ed89e" x="72" y="202.200447" style="stroke: #000000; stroke-width: 0.8"/>
      </g>
     </g>
     <g id="text_12">
      <!-- 0.6 -->
      <g transform="translate(49.096875 205.999666)scale(0.1 -0.1)">
       <use xlink:href="#DejaVuSans-30"/>
       <use xlink:href="#DejaVuSans-2e" x="63.623047"/>
       <use xlink:href="#DejaVuSans-36" x="95.410156"/>
      </g>
     </g>
    </g>
    <g id="ytick_5">
     <g id="line2d_23">
      <path d="M 72 148.554891 
L 518.4 148.554891 
" clip-path="url(#pc152fa4f1d)" style="fill: none; stroke: #b0b0b0; stroke-opacity: 0.5; stroke-width: 0.8; stroke-linecap: square"/>
     </g>
     <g id="line2d_24">
      <g>
       <use xlink:href="#m486d7ed89e" x="72" y="148.554891" style="stroke: #000000; stroke-width: 0.8"/>
      </g>
     </g>
     <g id="text_13">
      <!-- 0.7 -->
      <g transform="translate(49.096875 152.35411)scale(0.1 -0.1)">
       <defs>
        <path id="DejaVuSans-37" d="M 525 4666 
L 3525 4666 
L 3525 4397 
L 1831 0 
L 1172 0 
L 2766 4134 
L 525 4134 
L 525 4666 
z
" transform="scale(0.015625)"/>
       </defs>
       <use xlink:href="#DejaVuSans-30"/>
       <use xlink:href="#DejaVuSans-2e" x="63.623047"/>
       <use xlink:href="#DejaVuSans-37" x="95.410156"/>
      </g>
     </g>
    </g>
    <g id="ytick_6">
     <g id="line2d_25">
      <path d="M 72 94.909335 
L 518.4 94.909335 
" clip-path="url(#pc152fa4f1d)" style="fill: none; stroke: #b0b0b0; stroke-opacity: 0.5; stroke-width: 0.8; stroke-linecap: square"/>
     </g>
     <g id="line2d_26">
      <g>
       <use xlink:href="#m486d7ed89e" x="72" y="94.909335" style="stroke: #000000; stroke-width: 0.8"/>
      </g>
     </g>
     <g id="text_14">
      <!-- 0.8 -->
      <g transform="translate(49.096875 98.708554)scale(0.1 -0.1)">
       <use xlink:href="#DejaVuSans-30"/>
       <use xlink:href="#DejaVuSans-2e" x="63.623047"/>
       <use xlink:href="#DejaVuSans-38" x="95.410156"/>
      </g>
     </g>
    </g>
    <g id="text_15">
     <!-- Accuracy -->
     <g transform="translate(43.017187 240.988125)rotate(-90)scale(0.1 -0.1)">
      <defs>
       <path id="DejaVuSans-41" d="M 2188 4044 
L 1331 1722 
L 3047 1722 
L 2188 4044 
z
M 1831 4666 
L 2547 4666 
L 4325 0 
L 3669 0 
L 3244 1197 
L 1141 1197 
L 716 0 
L 50 0 
L 1831 4666 
z
" transform="scale(0.015625)"/>
       <path id="DejaVuSans-79" d="M 2059 -325 
Q 1816 -950 1584 -1140 
Q 1353 -1331 966 -1331 
L 506 -1331 
L 506 -850 
L 844 -850 
Q 1081 -850 1212 -737 
Q 1344 -625 1503 -206 
L 1606 56 
L 191 3500 
L 800 3500 
L 1894 763 
L 2988 3500 
L 3597 3500 
L 2059 -325 
z
" transform="scale(0.015625)"/>
      </defs>
      <use xlink:href="#DejaVuSans-41"/>
      <use xlink:href="#DejaVuSans-63" x="66.658203"/>
      <use xlink:href="#DejaVuSans-63" x="121.638672"/>
      <use xlink:href="#DejaVuSans-75" x="176.619141"/>
      <use xlink:href="#DejaVuSans-72" x="239.998047"/>
      <use xlink:href="#DejaVuSans-61" x="281.111328"/>
      <use xlink:href="#DejaVuSans-63" x="342.390625"/>
      <use xlink:href="#DejaVuSans-79" x="397.371094"/>
     </g>
    </g>
   </g>
   <g id="line2d_27">
    <path d="M 92.290909 366.248558 
L 95.701146 339.694007 
L 99.111383 288.033337 
L 102.52162 234.924236 
L 105.931856 242.00545 
L 109.342093 212.66133 
L 112.75233 198.820777 
L 116.162567 172.266227 
L 119.572804 139.542437 
L 122.98304 142.332006 
L 126.393277 136.699223 
L 129.803514 131.602895 
L 133.213751 117.225886 
L 136.623988 107.623332 
L 140.034225 96.625993 
L 143.444461 103.921788 
L 146.854698 86.111464 
L 150.264935 85.30678 
L 153.675172 97.430676 
L 157.085409 89.276551 
L 160.495646 89.813007 
L 163.905882 85.30678 
L 167.316119 85.896881 
L 170.726356 79.083896 
L 174.136593 84.716679 
L 177.54683 80.210452 
L 180.957066 83.000021 
L 184.367303 74.309441 
L 187.77754 81.337009 
L 191.187777 83.053667 
L 194.598014 77.689111 
L 198.008251 88.740096 
L 201.418487 83.85835 
L 204.828724 77.957339 
L 208.238961 81.122427 
L 211.649198 77.957339 
L 215.059435 72.861011 
L 218.469672 75.704226 
L 221.879908 75.972453 
L 225.290145 80.210452 
L 228.700382 75.435998 
L 232.110619 80.47868 
L 235.520856 81.068781 
L 238.931092 73.71934 
L 242.341329 75.972453 
L 245.751566 77.09901 
L 249.161803 75.382352 
L 252.57204 72.002682 
L 255.982277 97.162448 
L 259.392513 77.957339 
L 262.80275 76.562555 
L 266.212987 77.09901 
L 269.623224 81.605237 
L 273.033461 73.129239 
L 276.443697 82.248984 
L 279.853934 76.294327 
L 283.264171 75.382352 
L 286.674408 73.129239 
L 290.084645 74.309441 
L 293.494882 71.466227 
L 296.905118 70.071442 
L 300.315355 86.111464 
L 303.725592 82.463566 
L 307.135829 69.481341 
L 310.546066 75.704226 
L 313.956303 75.704226 
L 317.366539 76.240681 
L 320.776776 73.182885 
L 324.187013 73.182885 
L 327.59725 76.830782 
L 331.007487 73.987568 
L 334.417723 76.830782 
L 337.82796 77.957339 
L 341.238197 76.294327 
L 344.648434 85.896881 
L 348.058671 74.845897 
L 351.468908 87.559894 
L 354.879144 69.481341 
L 358.289381 78.225567 
L 361.699618 77.367238 
L 365.109855 70.876126 
L 368.520092 74.577669 
L 371.930328 75.435998 
L 375.340565 80.800553 
L 378.750802 75.382352 
L 382.161039 75.16777 
L 385.571276 75.114125 
L 388.981513 75.704226 
L 392.391749 79.673997 
L 395.801986 72.324556 
L 399.212223 72.914657 
L 402.62246 76.508909 
L 406.032697 78.225567 
L 409.442934 73.129239 
L 412.85317 75.704226 
L 416.263407 87.291666 
L 419.673644 71.466227 
L 423.083881 92.387994 
L 426.494118 70.071442 
L 429.904354 79.99587 
L 433.314591 66.96 
L 436.724828 86.969792 
L 440.135065 75.972453 
L 443.545302 72.324556 
L 446.955539 71.734454 
L 450.365775 67.228228 
L 453.776012 74.577669 
L 457.186249 75.16777 
L 460.596486 73.182885 
L 464.006723 72.324556 
L 467.41696 72.324556 
L 470.827196 72.592783 
L 474.237433 78.493795 
L 477.64767 79.942225 
L 481.057907 72.861011 
L 484.468144 72.592783 
L 487.87838 75.16777 
L 491.288617 74.845897 
L 494.698854 75.972453 
L 498.109091 77.689111 
" clip-path="url(#pc152fa4f1d)" style="fill: none; stroke: #1f77b4; stroke-width: 1.5; stroke-linecap: square"/>
   </g>
   <g id="line2d_28">
    <path d="M 92.290909 348.974689 
L 95.701146 299.352549 
L 99.111383 254.397573 
L 102.52162 242.059095 
L 105.931856 207.83323 
L 109.342093 196.835891 
L 112.75233 164.970431 
L 116.162567 164.648558 
L 119.572804 110.4129 
L 122.98304 147.160106 
L 126.393277 140.668994 
L 129.803514 194.31455 
L 133.213751 123.716998 
L 136.623988 91.797892 
L 140.034225 107.623332 
L 143.444461 106.174902 
L 146.854698 92.924449 
L 150.264935 89.544779 
L 153.675172 90.081235 
L 157.085409 98.020777 
L 160.495646 85.30678 
L 163.905882 86.969792 
L 167.316119 91.207791 
L 170.726356 78.493795 
L 174.136593 82.463566 
L 177.54683 88.954678 
L 180.957066 80.47868 
L 184.367303 79.673997 
L 187.77754 79.405769 
L 191.187777 84.448451 
L 194.598014 87.291666 
L 198.008251 79.352123 
L 201.418487 84.984907 
L 204.828724 74.845897 
L 208.238961 77.689111 
L 211.649198 75.972453 
L 215.059435 76.830782 
L 218.469672 74.309441 
L 221.879908 76.562555 
L 225.290145 78.493795 
L 228.700382 107.891559 
L 232.110619 86.111464 
L 235.520856 82.785439 
L 238.931092 72.592783 
L 242.341329 72.324556 
L 245.751566 75.16777 
L 249.161803 75.16777 
L 252.57204 73.182885 
L 255.982277 85.30678 
L 259.392513 82.463566 
L 262.80275 85.575008 
L 266.212987 80.210452 
L 269.623224 109.608217 
L 273.033461 72.914657 
L 276.443697 71.197999 
L 279.853934 70.876126 
L 283.264171 70.876126 
L 286.674408 70.929771 
L 290.084645 80.800553 
L 293.494882 81.605237 
L 296.905118 73.451112 
L 300.315355 72.324556 
L 303.725592 77.689111 
L 307.135829 79.083896 
L 310.546066 85.038552 
L 313.956303 74.845897 
L 317.366539 79.673997 
L 320.776776 82.785439 
L 324.187013 75.704226 
L 327.59725 92.656221 
L 331.007487 74.845897 
L 334.417723 79.620351 
L 337.82796 80.800553 
L 341.238197 75.16777 
L 344.648434 77.689111 
L 348.058671 76.562555 
L 351.468908 75.972453 
L 354.879144 77.420883 
L 358.289381 73.71934 
L 361.699618 86.969792 
L 365.109855 74.577669 
L 368.520092 81.122427 
L 371.930328 88.149995 
L 375.340565 79.405769 
L 378.750802 85.843236 
L 382.161039 73.451112 
L 385.571276 74.577669 
L 388.981513 71.734454 
L 392.391749 78.815668 
L 395.801986 91.851538 
L 399.212223 75.382352 
L 402.62246 79.352123 
L 406.032697 83.911996 
L 409.442934 67.818329 
L 412.85317 78.225567 
L 416.263407 73.71934 
L 419.673644 85.575008 
L 423.083881 76.562555 
L 426.494118 75.435998 
L 429.904354 84.448451 
L 433.314591 75.435998 
L 436.724828 81.337009 
L 440.135065 81.337009 
L 443.545302 77.957339 
L 446.955539 75.704226 
L 450.365775 71.734454 
L 453.776012 77.09901 
L 457.186249 70.071442 
L 460.596486 79.673997 
L 464.006723 79.673997 
L 467.41696 73.182885 
L 470.827196 69.803214 
L 474.237433 79.673997 
L 477.64767 72.914657 
L 481.057907 76.562555 
L 484.468144 90.671336 
L 487.87838 75.435998 
L 491.288617 67.496456 
L 494.698854 76.830782 
L 498.109091 74.845897 
" clip-path="url(#pc152fa4f1d)" style="fill: none; stroke: #ff7f0e; stroke-width: 1.5; stroke-linecap: square"/>
   </g>
   <g id="line2d_29">
    <path d="M 92.290909 323.600341 
L 95.701146 346.18512 
L 99.111383 298.762448 
L 102.52162 279.825567 
L 105.931856 296.455689 
L 109.342093 249.891346 
L 112.75233 186.10678 
L 116.162567 175.914125 
L 119.572804 182.995338 
L 122.98304 149.144992 
L 126.393277 201.342118 
L 129.803514 159.874103 
L 133.213751 137.235679 
L 136.623988 109.071762 
L 140.034225 125.433656 
L 143.444461 133.265907 
L 146.854698 110.4129 
L 150.264935 96.035891 
L 153.675172 96.840575 
L 157.085409 114.382672 
L 160.495646 97.752549 
L 163.905882 112.666014 
L 167.316119 138.952336 
L 170.726356 99.147334 
L 174.136593 88.149995 
L 177.54683 136.967451 
L 180.957066 88.364577 
L 184.367303 87.023438 
L 187.77754 87.559894 
L 191.187777 98.020777 
L 194.598014 107.623332 
L 198.008251 92.978095 
L 201.418487 87.023438 
L 204.828724 84.448451 
L 208.238961 123.180543 
L 211.649198 93.460905 
L 215.059435 163.253773 
L 218.469672 85.843236 
L 221.879908 101.132219 
L 225.290145 80.532326 
L 228.700382 101.72232 
L 232.110619 83.590122 
L 235.520856 82.195338 
L 238.931092 83.053667 
L 242.341329 88.149995 
L 245.751566 94.319234 
L 249.161803 92.656221 
L 252.57204 83.053667 
L 255.982277 86.701565 
L 259.392513 87.291666 
L 262.80275 100.810346 
L 266.212987 81.658882 
L 269.623224 108.749888 
L 273.033461 83.590122 
L 276.443697 92.06612 
L 279.853934 88.954678 
L 283.264171 84.716679 
L 286.674408 84.984907 
L 290.084645 82.463566 
L 293.494882 83.590122 
L 296.905118 76.294327 
L 300.315355 83.321895 
L 303.725592 84.180224 
L 307.135829 85.575008 
L 310.546066 86.969792 
L 313.956303 92.334348 
L 317.366539 90.349462 
L 320.776776 85.30678 
L 324.187013 79.352123 
L 327.59725 78.815668 
L 331.007487 94.909335 
L 334.417723 85.30678 
L 337.82796 86.165109 
L 341.238197 82.463566 
L 344.648434 82.463566 
L 348.058671 84.180224 
L 351.468908 85.30678 
L 354.879144 104.243662 
L 358.289381 87.023438 
L 361.699618 85.575008 
L 365.109855 86.433337 
L 368.520092 82.785439 
L 371.930328 109.286344 
L 375.340565 78.815668 
L 378.750802 94.909335 
L 382.161039 88.740096 
L 385.571276 93.51455 
L 388.981513 95.767664 
L 392.391749 77.09901 
L 395.801986 79.352123 
L 399.212223 85.30678 
L 402.62246 82.248984 
L 406.032697 80.47868 
L 409.442934 77.09901 
L 412.85317 96.89422 
L 416.263407 88.68645 
L 419.673644 95.177563 
L 423.083881 74.041213 
L 426.494118 98.557233 
L 429.904354 83.053667 
L 433.314591 85.30678 
L 436.724828 80.210452 
L 440.135065 75.972453 
L 443.545302 72.592783 
L 446.955539 84.180224 
L 450.365775 84.984907 
L 453.776012 79.083896 
L 457.186249 88.954678 
L 460.596486 81.658882 
L 464.006723 106.496775 
L 467.41696 82.785439 
L 470.827196 83.321895 
L 474.237433 78.493795 
L 477.64767 83.321895 
L 481.057907 84.448451 
L 484.468144 86.111464 
L 487.87838 85.038552 
L 491.288617 83.053667 
L 494.698854 76.830782 
L 498.109091 74.309441 
" clip-path="url(#pc152fa4f1d)" style="fill: none; stroke: #2ca02c; stroke-width: 1.5; stroke-linecap: square"/>
   </g>
   <g id="line2d_30">
    <path d="M 92.290909 369.36 
L 95.701146 297.904119 
L 99.111383 328.696668 
L 102.52162 272.261543 
L 105.931856 198.820777 
L 109.342093 225.053454 
L 112.75233 186.375008 
L 116.162567 166.633443 
L 119.572804 148.823119 
L 122.98304 138.415881 
L 126.393277 159.015774 
L 129.803514 140.400766 
L 133.213751 126.506567 
L 136.623988 121.463885 
L 140.034225 135.036211 
L 143.444461 115.777456 
L 146.854698 111.003002 
L 150.264935 121.732113 
L 153.675172 94.641107 
L 157.085409 106.496775 
L 160.495646 107.301458 
L 163.905882 94.641107 
L 167.316119 100.27389 
L 170.726356 83.85835 
L 174.136593 122.268568 
L 177.54683 83.053667 
L 180.957066 105.638446 
L 184.367303 98.879106 
L 187.77754 100.595764 
L 191.187777 77.420883 
L 194.598014 114.704545 
L 198.008251 91.797892 
L 201.418487 82.195338 
L 204.828724 86.486982 
L 208.238961 99.415561 
L 211.649198 90.081235 
L 215.059435 98.879106 
L 218.469672 94.909335 
L 221.879908 93.192677 
L 225.290145 91.797892 
L 228.700382 88.68645 
L 232.110619 93.782778 
L 235.520856 149.949675 
L 238.931092 89.222906 
L 242.341329 80.800553 
L 245.751566 111.324875 
L 249.161803 90.671336 
L 252.57204 83.321895 
L 255.982277 73.451112 
L 259.392513 75.435998 
L 262.80275 79.942225 
L 266.212987 84.716679 
L 269.623224 88.149995 
L 273.033461 90.939564 
L 276.443697 90.939564 
L 279.853934 75.972453 
L 283.264171 105.316573 
L 286.674408 90.081235 
L 290.084645 72.861011 
L 293.494882 83.053667 
L 296.905118 99.683789 
L 300.315355 84.716679 
L 303.725592 76.830782 
L 307.135829 77.09901 
L 310.546066 79.620351 
L 313.956303 76.830782 
L 317.366539 80.47868 
L 320.776776 81.658882 
L 324.187013 92.334348 
L 327.59725 80.532326 
L 331.007487 90.403108 
L 334.417723 78.54744 
L 337.82796 94.319234 
L 341.238197 79.942225 
L 344.648434 90.671336 
L 348.058671 82.785439 
L 351.468908 141.741905 
L 354.879144 103.385333 
L 358.289381 66.96 
L 361.699618 87.828121 
L 365.109855 88.418222 
L 368.520092 81.605237 
L 371.930328 81.658882 
L 375.340565 83.911996 
L 378.750802 83.590122 
L 382.161039 101.400447 
L 385.571276 101.132219 
L 388.981513 75.435998 
L 392.391749 80.800553 
L 395.801986 76.562555 
L 399.212223 80.532326 
L 402.62246 75.972453 
L 406.032697 75.704226 
L 409.442934 78.225567 
L 412.85317 91.207791 
L 416.263407 76.562555 
L 419.673644 83.911996 
L 423.083881 70.876126 
L 426.494118 67.228228 
L 429.904354 75.704226 
L 433.314591 76.294327 
L 436.724828 81.873465 
L 440.135065 74.577669 
L 443.545302 94.051006 
L 446.955539 83.85835 
L 450.365775 93.192677 
L 453.776012 77.689111 
L 457.186249 88.149995 
L 460.596486 71.734454 
L 464.006723 80.532326 
L 467.41696 75.114125 
L 470.827196 79.083896 
L 474.237433 75.972453 
L 477.64767 83.321895 
L 481.057907 81.068781 
L 484.468144 74.577669 
L 487.87838 75.704226 
L 491.288617 76.562555 
L 494.698854 68.944886 
L 498.109091 77.09901 
" clip-path="url(#pc152fa4f1d)" style="fill: none; stroke: #d62728; stroke-width: 1.5; stroke-linecap: square"/>
   </g>
   <g id="patch_3">
    <path d="M 72 384.48 
L 72 51.84 
" style="fill: none; stroke: #000000; stroke-width: 0.8; stroke-linejoin: miter; stroke-linecap: square"/>
   </g>
   <g id="patch_4">
    <path d="M 518.4 384.48 
L 518.4 51.84 
" style="fill: none; stroke: #000000; stroke-width: 0.8; stroke-linejoin: miter; stroke-linecap: square"/>
   </g>
   <g id="patch_5">
    <path d="M 72 384.48 
L 518.4 384.48 
" style="fill: none; stroke: #000000; stroke-width: 0.8; stroke-linejoin: miter; stroke-linecap: square"/>
   </g>
   <g id="patch_6">
    <path d="M 72 51.84 
L 518.4 51.84 
" style="fill: none; stroke: #000000; stroke-width: 0.8; stroke-linejoin: miter; stroke-linecap: square"/>
   </g>
   <g id="text_16">
    <!-- Clustered-Common -->
    <g transform="translate(237.350625 45.84)scale(0.12 -0.12)">
     <defs>
      <path id="DejaVuSans-6c" d="M 603 4863 
L 1178 4863 
L 1178 0 
L 603 0 
L 603 4863 
z
" transform="scale(0.015625)"/>
      <path id="DejaVuSans-65" d="M 3597 1894 
L 3597 1613 
L 953 1613 
Q 991 1019 1311 708 
Q 1631 397 2203 397 
Q 2534 397 2845 478 
Q 3156 559 3463 722 
L 3463 178 
Q 3153 47 2828 -22 
Q 2503 -91 2169 -91 
Q 1331 -91 842 396 
Q 353 884 353 1716 
Q 353 2575 817 3079 
Q 1281 3584 2069 3584 
Q 2775 3584 3186 3129 
Q 3597 2675 3597 1894 
z
M 3022 2063 
Q 3016 2534 2758 2815 
Q 2500 3097 2075 3097 
Q 1594 3097 1305 2825 
Q 1016 2553 972 2059 
L 3022 2063 
z
" transform="scale(0.015625)"/>
      <path id="DejaVuSans-2d" d="M 313 2009 
L 1997 2009 
L 1997 1497 
L 313 1497 
L 313 2009 
z
" transform="scale(0.015625)"/>
     </defs>
     <use xlink:href="#DejaVuSans-43"/>
     <use xlink:href="#DejaVuSans-6c" x="69.824219"/>
     <use xlink:href="#DejaVuSans-75" x="97.607422"/>
     <use xlink:href="#DejaVuSans-73" x="160.986328"/>
     <use xlink:href="#DejaVuSans-74" x="213.085938"/>
     <use xlink:href="#DejaVuSans-65" x="252.294922"/>
     <use xlink:href="#DejaVuSans-72" x="313.818359"/>
     <use xlink:href="#DejaVuSans-65" x="352.681641"/>
     <use xlink:href="#DejaVuSans-64" x="414.205078"/>
     <use xlink:href="#DejaVuSans-2d" x="477.681641"/>
     <use xlink:href="#DejaVuSans-43" x="513.765625"/>
     <use xlink:href="#DejaVuSans-6f" x="583.589844"/>
     <use xlink:href="#DejaVuSans-6d" x="644.771484"/>
     <use xlink:href="#DejaVuSans-6d" x="742.183594"/>
     <use xlink:href="#DejaVuSans-6f" x="839.595703"/>
     <use xlink:href="#DejaVuSans-6e" x="900.777344"/>
    </g>
   </g>
   <g id="legend_1">
    <g id="patch_7">
     <path d="M 466.196875 379.48 
L 511.4 379.48 
Q 513.4 379.48 513.4 377.48 
L 513.4 319.7675 
Q 513.4 317.7675 511.4 317.7675 
L 466.196875 317.7675 
Q 464.196875 317.7675 464.196875 319.7675 
L 464.196875 377.48 
Q 464.196875 379.48 466.196875 379.48 
z
" style="fill: #ffffff; opacity: 0.8; stroke: #cccccc; stroke-linejoin: miter"/>
    </g>
    <g id="line2d_31">
     <path d="M 468.196875 325.865937 
L 478.196875 325.865937 
L 488.196875 325.865937 
" style="fill: none; stroke: #1f77b4; stroke-width: 1.5; stroke-linecap: square"/>
    </g>
    <g id="text_17">
     <!-- V1 -->
     <g transform="translate(496.196875 329.365937)scale(0.1 -0.1)">
      <defs>
       <path id="DejaVuSans-56" d="M 1831 0 
L 50 4666 
L 709 4666 
L 2188 738 
L 3669 4666 
L 4325 4666 
L 2547 0 
L 1831 0 
z
" transform="scale(0.015625)"/>
      </defs>
      <use xlink:href="#DejaVuSans-56"/>
      <use xlink:href="#DejaVuSans-31" x="68.408203"/>
     </g>
    </g>
    <g id="line2d_32">
     <path d="M 468.196875 340.544062 
L 478.196875 340.544062 
L 488.196875 340.544062 
" style="fill: none; stroke: #ff7f0e; stroke-width: 1.5; stroke-linecap: square"/>
    </g>
    <g id="text_18">
     <!-- V2 -->
     <g transform="translate(496.196875 344.044062)scale(0.1 -0.1)">
      <use xlink:href="#DejaVuSans-56"/>
      <use xlink:href="#DejaVuSans-32" x="68.408203"/>
     </g>
    </g>
    <g id="line2d_33">
     <path d="M 468.196875 355.222188 
L 478.196875 355.222188 
L 488.196875 355.222188 
" style="fill: none; stroke: #2ca02c; stroke-width: 1.5; stroke-linecap: square"/>
    </g>
    <g id="text_19">
     <!-- V3 -->
     <g transform="translate(496.196875 358.722188)scale(0.1 -0.1)">
      <use xlink:href="#DejaVuSans-56"/>
      <use xlink:href="#DejaVuSans-33" x="68.408203"/>
     </g>
    </g>
    <g id="line2d_34">
     <path d="M 468.196875 369.900312 
L 478.196875 369.900312 
L 488.196875 369.900312 
" style="fill: none; stroke: #d62728; stroke-width: 1.5; stroke-linecap: square"/>
    </g>
    <g id="text_20">
     <!-- V4 -->
     <g transform="translate(496.196875 373.400312)scale(0.1 -0.1)">
      <use xlink:href="#DejaVuSans-56"/>
      <use xlink:href="#DejaVuSans-34" x="68.408203"/>
     </g>
    </g>
   </g>
  </g>
 </g>
 <defs>
  <clipPath id="pc152fa4f1d">
   <rect x="72" y="51.84" width="446.4" height="332.64"/>
  </clipPath>
 </defs>
</svg>
