<?xml version="1.0" encoding="utf-8" standalone="no"?>
<!DOCTYPE svg PUBLIC "-//W3C//DTD SVG 1.1//EN"
  "http://www.w3.org/Graphics/SVG/1.1/DTD/svg11.dtd">
<svg xmlns:xlink="http://www.w3.org/1999/xlink" width="576pt" height="432pt" viewBox="0 0 576 432" xmlns="http://www.w3.org/2000/svg" version="1.1">
 <metadata>
  <rdf:RDF xmlns:dc="http://purl.org/dc/elements/1.1/" xmlns:cc="http://creativecommons.org/ns#" xmlns:rdf="http://www.w3.org/1999/02/22-rdf-syntax-ns#">
   <cc:Work>
    <dc:type rdf:resource="http://purl.org/dc/dcmitype/StillImage"/>
    <dc:date>2023-08-05T15:17:23.291542</dc:date>
    <dc:format>image/svg+xml</dc:format>
    <dc:creator>
     <cc:Agent>
      <dc:title>Matplotlib v3.5.2, https://matplotlib.org/</dc:title>
     </cc:Agent>
    </dc:creator>
   </cc:Work>
  </rdf:RDF>
 </metadata>
 <defs>
  <style type="text/css">*{stroke-linejoin: round; stroke-linecap: butt}</style>
 </defs>
 <g id="figure_1">
  <g id="patch_1">
   <path d="M 0 432 
L 576 432 
L 576 0 
L 0 0 
z
" style="fill: #ffffff"/>
  </g>
  <g id="axes_1">
   <g id="patch_2">
    <path d="M 72 384.48 
L 518.4 384.48 
L 518.4 51.84 
L 72 51.84 
z
" style="fill: #ffffff"/>
   </g>
   <g id="matplotlib.axis_1">
    <g id="xtick_1">
     <g id="line2d_1">
      <path d="M 92.290909 384.48 
L 92.290909 51.84 
" clip-path="url(#pf57079d1e1)" style="fill: none; stroke: #b0b0b0; stroke-opacity: 0.5; stroke-width: 0.8; stroke-linecap: square"/>
     </g>
     <g id="line2d_2">
      <defs>
       <path id="md89ba1ec63" d="M 0 0 
L 0 3.5 
" style="stroke: #000000; stroke-width: 0.8"/>
      </defs>
      <g>
       <use xlink:href="#md89ba1ec63" x="92.290909" y="384.48" style="stroke: #000000; stroke-width: 0.8"/>
      </g>
     </g>
     <g id="text_1">
      <!-- 0 -->
      <g transform="translate(89.109659 399.078438)scale(0.1 -0.1)">
       <defs>
        <path id="DejaVuSans-30" d="M 2034 4250 
Q 1547 4250 1301 3770 
Q 1056 3291 1056 2328 
Q 1056 1369 1301 889 
Q 1547 409 2034 409 
Q 2525 409 2770 889 
Q 3016 1369 3016 2328 
Q 3016 3291 2770 3770 
Q 2525 4250 2034 4250 
z
M 2034 4750 
Q 2819 4750 3233 4129 
Q 3647 3509 3647 2328 
Q 3647 1150 3233 529 
Q 2819 -91 2034 -91 
Q 1250 -91 836 529 
Q 422 1150 422 2328 
Q 422 3509 836 4129 
Q 1250 4750 2034 4750 
z
" transform="scale(0.015625)"/>
       </defs>
       <use xlink:href="#DejaVuSans-30"/>
      </g>
     </g>
    </g>
    <g id="xtick_2">
     <g id="line2d_3">
      <path d="M 173.131184 384.48 
L 173.131184 51.84 
" clip-path="url(#pf57079d1e1)" style="fill: none; stroke: #b0b0b0; stroke-opacity: 0.5; stroke-width: 0.8; stroke-linecap: square"/>
     </g>
     <g id="line2d_4">
      <g>
       <use xlink:href="#md89ba1ec63" x="173.131184" y="384.48" style="stroke: #000000; stroke-width: 0.8"/>
      </g>
     </g>
     <g id="text_2">
      <!-- 50 -->
      <g transform="translate(166.768684 399.078438)scale(0.1 -0.1)">
       <defs>
        <path id="DejaVuSans-35" d="M 691 4666 
L 3169 4666 
L 3169 4134 
L 1269 4134 
L 1269 2991 
Q 1406 3038 1543 3061 
Q 1681 3084 1819 3084 
Q 2600 3084 3056 2656 
Q 3513 2228 3513 1497 
Q 3513 744 3044 326 
Q 2575 -91 1722 -91 
Q 1428 -91 1123 -41 
Q 819 9 494 109 
L 494 744 
Q 775 591 1075 516 
Q 1375 441 1709 441 
Q 2250 441 2565 725 
Q 2881 1009 2881 1497 
Q 2881 1984 2565 2268 
Q 2250 2553 1709 2553 
Q 1456 2553 1204 2497 
Q 953 2441 691 2322 
L 691 4666 
z
" transform="scale(0.015625)"/>
       </defs>
       <use xlink:href="#DejaVuSans-35"/>
       <use xlink:href="#DejaVuSans-30" x="63.623047"/>
      </g>
     </g>
    </g>
    <g id="xtick_3">
     <g id="line2d_5">
      <path d="M 253.97146 384.48 
L 253.97146 51.84 
" clip-path="url(#pf57079d1e1)" style="fill: none; stroke: #b0b0b0; stroke-opacity: 0.5; stroke-width: 0.8; stroke-linecap: square"/>
     </g>
     <g id="line2d_6">
      <g>
       <use xlink:href="#md89ba1ec63" x="253.97146" y="384.48" style="stroke: #000000; stroke-width: 0.8"/>
      </g>
     </g>
     <g id="text_3">
      <!-- 100 -->
      <g transform="translate(244.42771 399.078438)scale(0.1 -0.1)">
       <defs>
        <path id="DejaVuSans-31" d="M 794 531 
L 1825 531 
L 1825 4091 
L 703 3866 
L 703 4441 
L 1819 4666 
L 2450 4666 
L 2450 531 
L 3481 531 
L 3481 0 
L 794 0 
L 794 531 
z
" transform="scale(0.015625)"/>
       </defs>
       <use xlink:href="#DejaVuSans-31"/>
       <use xlink:href="#DejaVuSans-30" x="63.623047"/>
       <use xlink:href="#DejaVuSans-30" x="127.246094"/>
      </g>
     </g>
    </g>
    <g id="xtick_4">
     <g id="line2d_7">
      <path d="M 334.811735 384.48 
L 334.811735 51.84 
" clip-path="url(#pf57079d1e1)" style="fill: none; stroke: #b0b0b0; stroke-opacity: 0.5; stroke-width: 0.8; stroke-linecap: square"/>
     </g>
     <g id="line2d_8">
      <g>
       <use xlink:href="#md89ba1ec63" x="334.811735" y="384.48" style="stroke: #000000; stroke-width: 0.8"/>
      </g>
     </g>
     <g id="text_4">
      <!-- 150 -->
      <g transform="translate(325.267985 399.078438)scale(0.1 -0.1)">
       <use xlink:href="#DejaVuSans-31"/>
       <use xlink:href="#DejaVuSans-35" x="63.623047"/>
       <use xlink:href="#DejaVuSans-30" x="127.246094"/>
      </g>
     </g>
    </g>
    <g id="xtick_5">
     <g id="line2d_9">
      <path d="M 415.65201 384.48 
L 415.65201 51.84 
" clip-path="url(#pf57079d1e1)" style="fill: none; stroke: #b0b0b0; stroke-opacity: 0.5; stroke-width: 0.8; stroke-linecap: square"/>
     </g>
     <g id="line2d_10">
      <g>
       <use xlink:href="#md89ba1ec63" x="415.65201" y="384.48" style="stroke: #000000; stroke-width: 0.8"/>
      </g>
     </g>
     <g id="text_5">
      <!-- 200 -->
      <g transform="translate(406.10826 399.078438)scale(0.1 -0.1)">
       <defs>
        <path id="DejaVuSans-32" d="M 1228 531 
L 3431 531 
L 3431 0 
L 469 0 
L 469 531 
Q 828 903 1448 1529 
Q 2069 2156 2228 2338 
Q 2531 2678 2651 2914 
Q 2772 3150 2772 3378 
Q 2772 3750 2511 3984 
Q 2250 4219 1831 4219 
Q 1534 4219 1204 4116 
Q 875 4013 500 3803 
L 500 4441 
Q 881 4594 1212 4672 
Q 1544 4750 1819 4750 
Q 2544 4750 2975 4387 
Q 3406 4025 3406 3419 
Q 3406 3131 3298 2873 
Q 3191 2616 2906 2266 
Q 2828 2175 2409 1742 
Q 1991 1309 1228 531 
z
" transform="scale(0.015625)"/>
       </defs>
       <use xlink:href="#DejaVuSans-32"/>
       <use xlink:href="#DejaVuSans-30" x="63.623047"/>
       <use xlink:href="#DejaVuSans-30" x="127.246094"/>
      </g>
     </g>
    </g>
    <g id="xtick_6">
     <g id="line2d_11">
      <path d="M 496.492285 384.48 
L 496.492285 51.84 
" clip-path="url(#pf57079d1e1)" style="fill: none; stroke: #b0b0b0; stroke-opacity: 0.5; stroke-width: 0.8; stroke-linecap: square"/>
     </g>
     <g id="line2d_12">
      <g>
       <use xlink:href="#md89ba1ec63" x="496.492285" y="384.48" style="stroke: #000000; stroke-width: 0.8"/>
      </g>
     </g>
     <g id="text_6">
      <!-- 250 -->
      <g transform="translate(486.948535 399.078438)scale(0.1 -0.1)">
       <use xlink:href="#DejaVuSans-32"/>
       <use xlink:href="#DejaVuSans-35" x="63.623047"/>
       <use xlink:href="#DejaVuSans-30" x="127.246094"/>
      </g>
     </g>
    </g>
    <g id="text_7">
     <!-- Communication rounds -->
     <g transform="translate(237.083594 412.756563)scale(0.1 -0.1)">
      <defs>
       <path id="DejaVuSans-43" d="M 4122 4306 
L 4122 3641 
Q 3803 3938 3442 4084 
Q 3081 4231 2675 4231 
Q 1875 4231 1450 3742 
Q 1025 3253 1025 2328 
Q 1025 1406 1450 917 
Q 1875 428 2675 428 
Q 3081 428 3442 575 
Q 3803 722 4122 1019 
L 4122 359 
Q 3791 134 3420 21 
Q 3050 -91 2638 -91 
Q 1578 -91 968 557 
Q 359 1206 359 2328 
Q 359 3453 968 4101 
Q 1578 4750 2638 4750 
Q 3056 4750 3426 4639 
Q 3797 4528 4122 4306 
z
" transform="scale(0.015625)"/>
       <path id="DejaVuSans-6f" d="M 1959 3097 
Q 1497 3097 1228 2736 
Q 959 2375 959 1747 
Q 959 1119 1226 758 
Q 1494 397 1959 397 
Q 2419 397 2687 759 
Q 2956 1122 2956 1747 
Q 2956 2369 2687 2733 
Q 2419 3097 1959 3097 
z
M 1959 3584 
Q 2709 3584 3137 3096 
Q 3566 2609 3566 1747 
Q 3566 888 3137 398 
Q 2709 -91 1959 -91 
Q 1206 -91 779 398 
Q 353 888 353 1747 
Q 353 2609 779 3096 
Q 1206 3584 1959 3584 
z
" transform="scale(0.015625)"/>
       <path id="DejaVuSans-6d" d="M 3328 2828 
Q 3544 3216 3844 3400 
Q 4144 3584 4550 3584 
Q 5097 3584 5394 3201 
Q 5691 2819 5691 2113 
L 5691 0 
L 5113 0 
L 5113 2094 
Q 5113 2597 4934 2840 
Q 4756 3084 4391 3084 
Q 3944 3084 3684 2787 
Q 3425 2491 3425 1978 
L 3425 0 
L 2847 0 
L 2847 2094 
Q 2847 2600 2669 2842 
Q 2491 3084 2119 3084 
Q 1678 3084 1418 2786 
Q 1159 2488 1159 1978 
L 1159 0 
L 581 0 
L 581 3500 
L 1159 3500 
L 1159 2956 
Q 1356 3278 1631 3431 
Q 1906 3584 2284 3584 
Q 2666 3584 2933 3390 
Q 3200 3197 3328 2828 
z
" transform="scale(0.015625)"/>
       <path id="DejaVuSans-75" d="M 544 1381 
L 544 3500 
L 1119 3500 
L 1119 1403 
Q 1119 906 1312 657 
Q 1506 409 1894 409 
Q 2359 409 2629 706 
Q 2900 1003 2900 1516 
L 2900 3500 
L 3475 3500 
L 3475 0 
L 2900 0 
L 2900 538 
Q 2691 219 2414 64 
Q 2138 -91 1772 -91 
Q 1169 -91 856 284 
Q 544 659 544 1381 
z
M 1991 3584 
L 1991 3584 
z
" transform="scale(0.015625)"/>
       <path id="DejaVuSans-6e" d="M 3513 2113 
L 3513 0 
L 2938 0 
L 2938 2094 
Q 2938 2591 2744 2837 
Q 2550 3084 2163 3084 
Q 1697 3084 1428 2787 
Q 1159 2491 1159 1978 
L 1159 0 
L 581 0 
L 581 3500 
L 1159 3500 
L 1159 2956 
Q 1366 3272 1645 3428 
Q 1925 3584 2291 3584 
Q 2894 3584 3203 3211 
Q 3513 2838 3513 2113 
z
" transform="scale(0.015625)"/>
       <path id="DejaVuSans-69" d="M 603 3500 
L 1178 3500 
L 1178 0 
L 603 0 
L 603 3500 
z
M 603 4863 
L 1178 4863 
L 1178 4134 
L 603 4134 
L 603 4863 
z
" transform="scale(0.015625)"/>
       <path id="DejaVuSans-63" d="M 3122 3366 
L 3122 2828 
Q 2878 2963 2633 3030 
Q 2388 3097 2138 3097 
Q 1578 3097 1268 2742 
Q 959 2388 959 1747 
Q 959 1106 1268 751 
Q 1578 397 2138 397 
Q 2388 397 2633 464 
Q 2878 531 3122 666 
L 3122 134 
Q 2881 22 2623 -34 
Q 2366 -91 2075 -91 
Q 1284 -91 818 406 
Q 353 903 353 1747 
Q 353 2603 823 3093 
Q 1294 3584 2113 3584 
Q 2378 3584 2631 3529 
Q 2884 3475 3122 3366 
z
" transform="scale(0.015625)"/>
       <path id="DejaVuSans-61" d="M 2194 1759 
Q 1497 1759 1228 1600 
Q 959 1441 959 1056 
Q 959 750 1161 570 
Q 1363 391 1709 391 
Q 2188 391 2477 730 
Q 2766 1069 2766 1631 
L 2766 1759 
L 2194 1759 
z
M 3341 1997 
L 3341 0 
L 2766 0 
L 2766 531 
Q 2569 213 2275 61 
Q 1981 -91 1556 -91 
Q 1019 -91 701 211 
Q 384 513 384 1019 
Q 384 1609 779 1909 
Q 1175 2209 1959 2209 
L 2766 2209 
L 2766 2266 
Q 2766 2663 2505 2880 
Q 2244 3097 1772 3097 
Q 1472 3097 1187 3025 
Q 903 2953 641 2809 
L 641 3341 
Q 956 3463 1253 3523 
Q 1550 3584 1831 3584 
Q 2591 3584 2966 3190 
Q 3341 2797 3341 1997 
z
" transform="scale(0.015625)"/>
       <path id="DejaVuSans-74" d="M 1172 4494 
L 1172 3500 
L 2356 3500 
L 2356 3053 
L 1172 3053 
L 1172 1153 
Q 1172 725 1289 603 
Q 1406 481 1766 481 
L 2356 481 
L 2356 0 
L 1766 0 
Q 1100 0 847 248 
Q 594 497 594 1153 
L 594 3053 
L 172 3053 
L 172 3500 
L 594 3500 
L 594 4494 
L 1172 4494 
z
" transform="scale(0.015625)"/>
       <path id="DejaVuSans-20" transform="scale(0.015625)"/>
       <path id="DejaVuSans-72" d="M 2631 2963 
Q 2534 3019 2420 3045 
Q 2306 3072 2169 3072 
Q 1681 3072 1420 2755 
Q 1159 2438 1159 1844 
L 1159 0 
L 581 0 
L 581 3500 
L 1159 3500 
L 1159 2956 
Q 1341 3275 1631 3429 
Q 1922 3584 2338 3584 
Q 2397 3584 2469 3576 
Q 2541 3569 2628 3553 
L 2631 2963 
z
" transform="scale(0.015625)"/>
       <path id="DejaVuSans-64" d="M 2906 2969 
L 2906 4863 
L 3481 4863 
L 3481 0 
L 2906 0 
L 2906 525 
Q 2725 213 2448 61 
Q 2172 -91 1784 -91 
Q 1150 -91 751 415 
Q 353 922 353 1747 
Q 353 2572 751 3078 
Q 1150 3584 1784 3584 
Q 2172 3584 2448 3432 
Q 2725 3281 2906 2969 
z
M 947 1747 
Q 947 1113 1208 752 
Q 1469 391 1925 391 
Q 2381 391 2643 752 
Q 2906 1113 2906 1747 
Q 2906 2381 2643 2742 
Q 2381 3103 1925 3103 
Q 1469 3103 1208 2742 
Q 947 2381 947 1747 
z
" transform="scale(0.015625)"/>
       <path id="DejaVuSans-73" d="M 2834 3397 
L 2834 2853 
Q 2591 2978 2328 3040 
Q 2066 3103 1784 3103 
Q 1356 3103 1142 2972 
Q 928 2841 928 2578 
Q 928 2378 1081 2264 
Q 1234 2150 1697 2047 
L 1894 2003 
Q 2506 1872 2764 1633 
Q 3022 1394 3022 966 
Q 3022 478 2636 193 
Q 2250 -91 1575 -91 
Q 1294 -91 989 -36 
Q 684 19 347 128 
L 347 722 
Q 666 556 975 473 
Q 1284 391 1588 391 
Q 1994 391 2212 530 
Q 2431 669 2431 922 
Q 2431 1156 2273 1281 
Q 2116 1406 1581 1522 
L 1381 1569 
Q 847 1681 609 1914 
Q 372 2147 372 2553 
Q 372 3047 722 3315 
Q 1072 3584 1716 3584 
Q 2034 3584 2315 3537 
Q 2597 3491 2834 3397 
z
" transform="scale(0.015625)"/>
      </defs>
      <use xlink:href="#DejaVuSans-43"/>
      <use xlink:href="#DejaVuSans-6f" x="69.824219"/>
      <use xlink:href="#DejaVuSans-6d" x="131.005859"/>
      <use xlink:href="#DejaVuSans-6d" x="228.417969"/>
      <use xlink:href="#DejaVuSans-75" x="325.830078"/>
      <use xlink:href="#DejaVuSans-6e" x="389.208984"/>
      <use xlink:href="#DejaVuSans-69" x="452.587891"/>
      <use xlink:href="#DejaVuSans-63" x="480.371094"/>
      <use xlink:href="#DejaVuSans-61" x="535.351562"/>
      <use xlink:href="#DejaVuSans-74" x="596.630859"/>
      <use xlink:href="#DejaVuSans-69" x="635.839844"/>
      <use xlink:href="#DejaVuSans-6f" x="663.623047"/>
      <use xlink:href="#DejaVuSans-6e" x="724.804688"/>
      <use xlink:href="#DejaVuSans-20" x="788.183594"/>
      <use xlink:href="#DejaVuSans-72" x="819.970703"/>
      <use xlink:href="#DejaVuSans-6f" x="858.833984"/>
      <use xlink:href="#DejaVuSans-75" x="920.015625"/>
      <use xlink:href="#DejaVuSans-6e" x="983.394531"/>
      <use xlink:href="#DejaVuSans-64" x="1046.773438"/>
      <use xlink:href="#DejaVuSans-73" x="1110.25"/>
     </g>
    </g>
   </g>
   <g id="matplotlib.axis_2">
    <g id="ytick_1">
     <g id="line2d_13">
      <path d="M 72 354.796364 
L 518.4 354.796364 
" clip-path="url(#pf57079d1e1)" style="fill: none; stroke: #b0b0b0; stroke-opacity: 0.5; stroke-width: 0.8; stroke-linecap: square"/>
     </g>
     <g id="line2d_14">
      <defs>
       <path id="m1068c9d5e4" d="M 0 0 
L -3.5 0 
" style="stroke: #000000; stroke-width: 0.8"/>
      </defs>
      <g>
       <use xlink:href="#m1068c9d5e4" x="72" y="354.796364" style="stroke: #000000; stroke-width: 0.8"/>
      </g>
     </g>
     <g id="text_8">
      <!-- 0.30 -->
      <g transform="translate(42.734375 358.595582)scale(0.1 -0.1)">
       <defs>
        <path id="DejaVuSans-2e" d="M 684 794 
L 1344 794 
L 1344 0 
L 684 0 
L 684 794 
z
" transform="scale(0.015625)"/>
        <path id="DejaVuSans-33" d="M 2597 2516 
Q 3050 2419 3304 2112 
Q 3559 1806 3559 1356 
Q 3559 666 3084 287 
Q 2609 -91 1734 -91 
Q 1441 -91 1130 -33 
Q 819 25 488 141 
L 488 750 
Q 750 597 1062 519 
Q 1375 441 1716 441 
Q 2309 441 2620 675 
Q 2931 909 2931 1356 
Q 2931 1769 2642 2001 
Q 2353 2234 1838 2234 
L 1294 2234 
L 1294 2753 
L 1863 2753 
Q 2328 2753 2575 2939 
Q 2822 3125 2822 3475 
Q 2822 3834 2567 4026 
Q 2313 4219 1838 4219 
Q 1578 4219 1281 4162 
Q 984 4106 628 3988 
L 628 4550 
Q 988 4650 1302 4700 
Q 1616 4750 1894 4750 
Q 2613 4750 3031 4423 
Q 3450 4097 3450 3541 
Q 3450 3153 3228 2886 
Q 3006 2619 2597 2516 
z
" transform="scale(0.015625)"/>
       </defs>
       <use xlink:href="#DejaVuSans-30"/>
       <use xlink:href="#DejaVuSans-2e" x="63.623047"/>
       <use xlink:href="#DejaVuSans-33" x="95.410156"/>
       <use xlink:href="#DejaVuSans-30" x="159.033203"/>
      </g>
     </g>
    </g>
    <g id="ytick_2">
     <g id="line2d_15">
      <path d="M 72 313.887273 
L 518.4 313.887273 
" clip-path="url(#pf57079d1e1)" style="fill: none; stroke: #b0b0b0; stroke-opacity: 0.5; stroke-width: 0.8; stroke-linecap: square"/>
     </g>
     <g id="line2d_16">
      <g>
       <use xlink:href="#m1068c9d5e4" x="72" y="313.887273" style="stroke: #000000; stroke-width: 0.8"/>
      </g>
     </g>
     <g id="text_9">
      <!-- 0.35 -->
      <g transform="translate(42.734375 317.686491)scale(0.1 -0.1)">
       <use xlink:href="#DejaVuSans-30"/>
       <use xlink:href="#DejaVuSans-2e" x="63.623047"/>
       <use xlink:href="#DejaVuSans-33" x="95.410156"/>
       <use xlink:href="#DejaVuSans-35" x="159.033203"/>
      </g>
     </g>
    </g>
    <g id="ytick_3">
     <g id="line2d_17">
      <path d="M 72 272.978182 
L 518.4 272.978182 
" clip-path="url(#pf57079d1e1)" style="fill: none; stroke: #b0b0b0; stroke-opacity: 0.5; stroke-width: 0.8; stroke-linecap: square"/>
     </g>
     <g id="line2d_18">
      <g>
       <use xlink:href="#m1068c9d5e4" x="72" y="272.978182" style="stroke: #000000; stroke-width: 0.8"/>
      </g>
     </g>
     <g id="text_10">
      <!-- 0.40 -->
      <g transform="translate(42.734375 276.777401)scale(0.1 -0.1)">
       <defs>
        <path id="DejaVuSans-34" d="M 2419 4116 
L 825 1625 
L 2419 1625 
L 2419 4116 
z
M 2253 4666 
L 3047 4666 
L 3047 1625 
L 3713 1625 
L 3713 1100 
L 3047 1100 
L 3047 0 
L 2419 0 
L 2419 1100 
L 313 1100 
L 313 1709 
L 2253 4666 
z
" transform="scale(0.015625)"/>
       </defs>
       <use xlink:href="#DejaVuSans-30"/>
       <use xlink:href="#DejaVuSans-2e" x="63.623047"/>
       <use xlink:href="#DejaVuSans-34" x="95.410156"/>
       <use xlink:href="#DejaVuSans-30" x="159.033203"/>
      </g>
     </g>
    </g>
    <g id="ytick_4">
     <g id="line2d_19">
      <path d="M 72 232.069091 
L 518.4 232.069091 
" clip-path="url(#pf57079d1e1)" style="fill: none; stroke: #b0b0b0; stroke-opacity: 0.5; stroke-width: 0.8; stroke-linecap: square"/>
     </g>
     <g id="line2d_20">
      <g>
       <use xlink:href="#m1068c9d5e4" x="72" y="232.069091" style="stroke: #000000; stroke-width: 0.8"/>
      </g>
     </g>
     <g id="text_11">
      <!-- 0.45 -->
      <g transform="translate(42.734375 235.86831)scale(0.1 -0.1)">
       <use xlink:href="#DejaVuSans-30"/>
       <use xlink:href="#DejaVuSans-2e" x="63.623047"/>
       <use xlink:href="#DejaVuSans-34" x="95.410156"/>
       <use xlink:href="#DejaVuSans-35" x="159.033203"/>
      </g>
     </g>
    </g>
    <g id="ytick_5">
     <g id="line2d_21">
      <path d="M 72 191.16 
L 518.4 191.16 
" clip-path="url(#pf57079d1e1)" style="fill: none; stroke: #b0b0b0; stroke-opacity: 0.5; stroke-width: 0.8; stroke-linecap: square"/>
     </g>
     <g id="line2d_22">
      <g>
       <use xlink:href="#m1068c9d5e4" x="72" y="191.16" style="stroke: #000000; stroke-width: 0.8"/>
      </g>
     </g>
     <g id="text_12">
      <!-- 0.50 -->
      <g transform="translate(42.734375 194.959219)scale(0.1 -0.1)">
       <use xlink:href="#DejaVuSans-30"/>
       <use xlink:href="#DejaVuSans-2e" x="63.623047"/>
       <use xlink:href="#DejaVuSans-35" x="95.410156"/>
       <use xlink:href="#DejaVuSans-30" x="159.033203"/>
      </g>
     </g>
    </g>
    <g id="ytick_6">
     <g id="line2d_23">
      <path d="M 72 150.250909 
L 518.4 150.250909 
" clip-path="url(#pf57079d1e1)" style="fill: none; stroke: #b0b0b0; stroke-opacity: 0.5; stroke-width: 0.8; stroke-linecap: square"/>
     </g>
     <g id="line2d_24">
      <g>
       <use xlink:href="#m1068c9d5e4" x="72" y="150.250909" style="stroke: #000000; stroke-width: 0.8"/>
      </g>
     </g>
     <g id="text_13">
      <!-- 0.55 -->
      <g transform="translate(42.734375 154.050128)scale(0.1 -0.1)">
       <use xlink:href="#DejaVuSans-30"/>
       <use xlink:href="#DejaVuSans-2e" x="63.623047"/>
       <use xlink:href="#DejaVuSans-35" x="95.410156"/>
       <use xlink:href="#DejaVuSans-35" x="159.033203"/>
      </g>
     </g>
    </g>
    <g id="ytick_7">
     <g id="line2d_25">
      <path d="M 72 109.341818 
L 518.4 109.341818 
" clip-path="url(#pf57079d1e1)" style="fill: none; stroke: #b0b0b0; stroke-opacity: 0.5; stroke-width: 0.8; stroke-linecap: square"/>
     </g>
     <g id="line2d_26">
      <g>
       <use xlink:href="#m1068c9d5e4" x="72" y="109.341818" style="stroke: #000000; stroke-width: 0.8"/>
      </g>
     </g>
     <g id="text_14">
      <!-- 0.60 -->
      <g transform="translate(42.734375 113.141037)scale(0.1 -0.1)">
       <defs>
        <path id="DejaVuSans-36" d="M 2113 2584 
Q 1688 2584 1439 2293 
Q 1191 2003 1191 1497 
Q 1191 994 1439 701 
Q 1688 409 2113 409 
Q 2538 409 2786 701 
Q 3034 994 3034 1497 
Q 3034 2003 2786 2293 
Q 2538 2584 2113 2584 
z
M 3366 4563 
L 3366 3988 
Q 3128 4100 2886 4159 
Q 2644 4219 2406 4219 
Q 1781 4219 1451 3797 
Q 1122 3375 1075 2522 
Q 1259 2794 1537 2939 
Q 1816 3084 2150 3084 
Q 2853 3084 3261 2657 
Q 3669 2231 3669 1497 
Q 3669 778 3244 343 
Q 2819 -91 2113 -91 
Q 1303 -91 875 529 
Q 447 1150 447 2328 
Q 447 3434 972 4092 
Q 1497 4750 2381 4750 
Q 2619 4750 2861 4703 
Q 3103 4656 3366 4563 
z
" transform="scale(0.015625)"/>
       </defs>
       <use xlink:href="#DejaVuSans-30"/>
       <use xlink:href="#DejaVuSans-2e" x="63.623047"/>
       <use xlink:href="#DejaVuSans-36" x="95.410156"/>
       <use xlink:href="#DejaVuSans-30" x="159.033203"/>
      </g>
     </g>
    </g>
    <g id="ytick_8">
     <g id="line2d_27">
      <path d="M 72 68.432727 
L 518.4 68.432727 
" clip-path="url(#pf57079d1e1)" style="fill: none; stroke: #b0b0b0; stroke-opacity: 0.5; stroke-width: 0.8; stroke-linecap: square"/>
     </g>
     <g id="line2d_28">
      <g>
       <use xlink:href="#m1068c9d5e4" x="72" y="68.432727" style="stroke: #000000; stroke-width: 0.8"/>
      </g>
     </g>
     <g id="text_15">
      <!-- 0.65 -->
      <g transform="translate(42.734375 72.231946)scale(0.1 -0.1)">
       <use xlink:href="#DejaVuSans-30"/>
       <use xlink:href="#DejaVuSans-2e" x="63.623047"/>
       <use xlink:href="#DejaVuSans-36" x="95.410156"/>
       <use xlink:href="#DejaVuSans-35" x="159.033203"/>
      </g>
     </g>
    </g>
    <g id="text_16">
     <!-- Accuracy -->
     <g transform="translate(36.654687 240.988125)rotate(-90)scale(0.1 -0.1)">
      <defs>
       <path id="DejaVuSans-41" d="M 2188 4044 
L 1331 1722 
L 3047 1722 
L 2188 4044 
z
M 1831 4666 
L 2547 4666 
L 4325 0 
L 3669 0 
L 3244 1197 
L 1141 1197 
L 716 0 
L 50 0 
L 1831 4666 
z
" transform="scale(0.015625)"/>
       <path id="DejaVuSans-79" d="M 2059 -325 
Q 1816 -950 1584 -1140 
Q 1353 -1331 966 -1331 
L 506 -1331 
L 506 -850 
L 844 -850 
Q 1081 -850 1212 -737 
Q 1344 -625 1503 -206 
L 1606 56 
L 191 3500 
L 800 3500 
L 1894 763 
L 2988 3500 
L 3597 3500 
L 2059 -325 
z
" transform="scale(0.015625)"/>
      </defs>
      <use xlink:href="#DejaVuSans-41"/>
      <use xlink:href="#DejaVuSans-63" x="66.658203"/>
      <use xlink:href="#DejaVuSans-63" x="121.638672"/>
      <use xlink:href="#DejaVuSans-75" x="176.619141"/>
      <use xlink:href="#DejaVuSans-72" x="239.998047"/>
      <use xlink:href="#DejaVuSans-61" x="281.111328"/>
      <use xlink:href="#DejaVuSans-63" x="342.390625"/>
      <use xlink:href="#DejaVuSans-79" x="397.371094"/>
     </g>
    </g>
   </g>
   <g id="line2d_29">
    <path d="M 92.290909 352.341818 
L 93.907715 321.414545 
L 95.52452 304.478182 
L 98.758131 263.896364 
L 100.374937 242.132727 
L 101.991742 245.405455 
L 105.225353 231.578182 
L 106.842159 217.341818 
L 108.458964 217.832727 
L 110.07577 238.369091 
L 111.692575 208.669091 
L 113.309381 223.314545 
L 114.926186 188.46 
L 116.542992 193.86 
L 119.776603 191.650909 
L 121.393408 185.023636 
L 123.010214 174.06 
L 124.627019 187.069091 
L 126.243825 173.978182 
L 127.86063 168.823636 
L 129.477436 191.732727 
L 131.094241 168.823636 
L 132.711047 167.269091 
L 134.327852 169.969091 
L 135.944658 165.223636 
L 137.561463 182.241818 
L 139.178269 149.269091 
L 140.795074 164.978182 
L 144.028685 157.614545 
L 145.645491 157.287273 
L 147.262296 155.814545 
L 148.879102 158.678182 
L 150.495907 143.050909 
L 152.112713 156.550909 
L 153.729518 147.469091 
L 155.346324 153.769091 
L 156.963129 153.36 
L 158.579935 153.278182 
L 160.19674 151.232727 
L 161.813546 151.723636 
L 163.430351 134.705455 
L 165.047157 142.232727 
L 166.663962 139.450909 
L 168.280768 143.214545 
L 169.897573 139.532727 
L 171.514379 150.905455 
L 173.131184 145.096364 
L 174.74799 154.996364 
L 176.364795 136.832727 
L 177.981601 133.56 
L 179.598406 139.614545 
L 181.215212 139.369091 
L 182.832017 129.714545 
L 184.448823 134.950909 
L 186.065628 121.287273 
L 187.682434 146.323636 
L 189.299239 123.169091 
L 190.916045 129.387273 
L 192.53285 133.887273 
L 194.149656 126.687273 
L 195.766461 124.887273 
L 197.383267 112.287273 
L 199.000072 128.896364 
L 200.616878 114.087273 
L 202.233683 116.950909 
L 203.850489 126.932727 
L 205.467294 129.550909 
L 207.0841 124.887273 
L 208.700905 119.405455 
L 210.317711 117.769091 
L 211.934516 117.114545 
L 213.551322 118.996364 
L 215.168127 113.023636 
L 216.784933 111.878182 
L 218.401739 114.087273 
L 220.018544 117.605455 
L 221.63535 105.578182 
L 223.252155 119.078182 
L 224.868961 117.769091 
L 226.485766 114.414545 
L 228.102572 131.023636 
L 229.719377 118.26 
L 231.336183 113.269091 
L 232.952988 113.76 
L 234.569794 109.341818 
L 236.186599 113.187273 
L 237.803405 115.969091 
L 239.42021 109.178182 
L 241.037016 110.487273 
L 242.653821 104.105455 
L 244.270627 105.741818 
L 245.887432 106.969091 
L 247.504238 116.050909 
L 249.121043 115.56 
L 250.737849 106.478182 
L 252.354654 114.414545 
L 253.97146 107.950909 
L 255.588265 117.278182 
L 257.205071 109.587273 
L 258.821876 119.978182 
L 260.438682 112.86 
L 262.055487 115.478182 
L 263.672293 112.205455 
L 265.289098 105.414545 
L 266.905904 106.396364 
L 268.522709 114.250909 
L 270.139515 108.605455 
L 271.75632 107.050909 
L 273.373126 114.823636 
L 274.989931 112.778182 
L 276.606737 109.014545 
L 278.223542 111.223636 
L 279.840348 111.469091 
L 281.457153 113.514545 
L 283.073959 107.214545 
L 284.690764 117.278182 
L 286.30757 116.214545 
L 287.924375 109.505455 
L 289.541181 108.441818 
L 291.157986 110.16 
L 292.774792 104.514545 
L 294.391597 104.841818 
L 296.008403 102.796364 
L 297.625208 111.550909 
L 299.242014 114.005455 
L 300.858819 102.469091 
L 302.475625 120.305455 
L 304.09243 100.587273 
L 305.709236 113.841818 
L 307.326041 106.56 
L 308.942847 103.941818 
L 310.559652 109.423636 
L 312.176458 109.505455 
L 313.793263 107.705455 
L 315.410069 109.996364 
L 317.026874 118.178182 
L 318.64368 111.550909 
L 320.260485 112.041818 
L 321.877291 113.923636 
L 323.494096 106.396364 
L 325.110902 111.796364 
L 326.727707 116.705455 
L 328.344513 107.705455 
L 331.578124 103.450909 
L 333.194929 98.296364 
L 334.811735 99.36 
L 336.42854 106.969091 
L 338.045346 109.341818 
L 339.662151 98.705455 
L 341.278957 112.778182 
L 342.895762 109.587273 
L 344.512568 104.923636 
L 346.129373 106.314545 
L 347.746179 101.650909 
L 349.362984 106.887273 
L 350.97979 99.441818 
L 352.596595 96.087273 
L 354.213401 112.614545 
L 355.830206 106.396364 
L 357.447012 108.36 
L 359.063817 106.723636 
L 360.680623 99.36 
L 362.297428 101.569091 
L 363.914234 99.932727 
L 365.531039 106.56 
L 367.147845 109.26 
L 368.76465 111.714545 
L 370.381456 106.232727 
L 371.998261 109.750909 
L 373.615067 108.032727 
L 375.231873 102.305455 
L 376.848678 100.587273 
L 378.465484 114.578182 
L 380.082289 107.787273 
L 381.699095 110.978182 
L 383.3159 103.287273 
L 384.932706 114.414545 
L 386.549511 108.769091 
L 388.166317 110.323636 
L 389.783122 103.369091 
L 391.399928 99.605455 
L 393.016733 105.905455 
L 394.633539 102.141818 
L 396.250344 110.323636 
L 397.86715 104.596364 
L 399.483955 111.96 
L 401.100761 107.705455 
L 402.717566 99.36 
L 404.334372 108.687273 
L 405.951177 104.923636 
L 407.567983 111.387273 
L 409.184788 96.169091 
L 410.801594 107.296364 
L 412.418399 104.105455 
L 414.035205 108.114545 
L 415.65201 105.250909 
L 417.268816 108.196364 
L 418.885621 118.26 
L 420.502427 112.941818 
L 422.119232 104.596364 
L 423.736038 110.896364 
L 425.352843 106.069091 
L 426.969649 103.696364 
L 428.586454 111.387273 
L 430.20326 112.86 
L 431.820065 99.687273 
L 433.436871 110.814545 
L 435.053676 94.778182 
L 436.670482 112.941818 
L 438.287287 101.650909 
L 439.904093 97.641818 
L 441.520898 99.932727 
L 443.137704 111.06 
L 444.754509 97.478182 
L 446.371315 107.869091 
L 447.98812 111.469091 
L 449.604926 105.496364 
L 451.221731 106.969091 
L 452.838537 100.178182 
L 454.455342 98.787273 
L 456.072148 111.223636 
L 457.688953 101.241818 
L 459.305759 96.496364 
L 464.156175 102.06 
L 465.772981 109.096364 
L 467.389786 100.178182 
L 469.006592 107.950909 
L 470.623397 103.696364 
L 472.240203 108.032727 
L 473.857008 99.36 
L 475.473814 100.914545 
L 477.090619 107.869091 
L 478.707425 95.678182 
L 480.32423 106.478182 
L 481.941036 114.414545 
L 483.557841 102.06 
L 485.174647 103.205455 
L 486.791452 100.096364 
L 488.408258 107.705455 
L 490.025063 109.014545 
L 491.641869 107.214545 
L 493.258674 94.696364 
L 494.87548 102.06 
L 496.492285 104.76 
L 498.109091 108.196364 
L 498.109091 108.196364 
" clip-path="url(#pf57079d1e1)" style="fill: none; stroke: #1f77b4; stroke-width: 1.5; stroke-linecap: square"/>
   </g>
   <g id="line2d_30">
    <path d="M 92.290909 349.56 
L 93.907715 315.278182 
L 95.52452 294.578182 
L 97.141326 294.987273 
L 98.758131 263.732727 
L 100.374937 242.132727 
L 101.991742 245.16 
L 103.608548 245.978182 
L 105.225353 212.432727 
L 106.842159 234.36 
L 108.458964 203.841818 
L 110.07577 201.141818 
L 111.692575 203.269091 
L 113.309381 190.587273 
L 114.926186 187.396364 
L 116.542992 186.987273 
L 118.159797 175.941818 
L 119.776603 183.387273 
L 121.393408 172.669091 
L 123.010214 184.941818 
L 124.627019 169.887273 
L 126.243825 169.150909 
L 129.477436 162.278182 
L 131.094241 159.741818 
L 132.711047 162.36 
L 134.327852 147.796364 
L 135.944658 148.778182 
L 137.561463 163.750909 
L 139.178269 146.569091 
L 140.795074 144.850909 
L 142.41188 147.632727 
L 144.028685 149.596364 
L 145.645491 144.769091 
L 147.262296 145.178182 
L 148.879102 134.132727 
L 150.495907 142.150909 
L 152.112713 127.832727 
L 153.729518 171.441818 
L 155.346324 127.178182 
L 156.963129 123.741818 
L 158.579935 126.36 
L 160.19674 129.469091 
L 161.813546 146.405455 
L 163.430351 121.205455 
L 165.047157 122.678182 
L 166.663962 122.923636 
L 168.280768 130.86 
L 171.514379 114.087273 
L 173.131184 118.505455 
L 174.74799 109.341818 
L 176.364795 129.141818 
L 177.981601 121.778182 
L 179.598406 121.123636 
L 181.215212 127.341818 
L 182.832017 106.478182 
L 184.448823 114.823636 
L 186.065628 114.741818 
L 187.682434 100.423636 
L 189.299239 114.332727 
L 190.916045 108.36 
L 192.53285 106.396364 
L 194.149656 113.596364 
L 195.766461 102.141818 
L 197.383267 114.332727 
L 199.000072 91.096364 
L 200.616878 114.823636 
L 202.233683 107.46 
L 203.850489 101.978182 
L 205.467294 107.378182 
L 207.0841 98.378182 
L 208.700905 101.241818 
L 210.317711 101.569091 
L 211.934516 107.46 
L 213.551322 106.56 
L 215.168127 94.941818 
L 216.784933 91.178182 
L 218.401739 86.187273 
L 220.018544 100.423636 
L 221.63535 94.123636 
L 223.252155 95.514545 
L 224.868961 97.56 
L 226.485766 95.187273 
L 228.102572 92.405455 
L 229.719377 90.032727 
L 231.336183 85.532727 
L 232.952988 94.696364 
L 234.569794 88.805455 
L 236.186599 88.805455 
L 237.803405 91.341818 
L 239.42021 102.632727 
L 241.037016 90.523636 
L 242.653821 80.950909 
L 244.270627 91.669091 
L 245.887432 88.723636 
L 247.504238 93.796364 
L 249.121043 91.341818 
L 250.737849 81.932727 
L 252.354654 82.914545 
L 253.97146 101.078182 
L 255.588265 91.996364 
L 257.205071 92.896364 
L 258.821876 86.105455 
L 260.438682 89.787273 
L 262.055487 82.505455 
L 263.672293 85.614545 
L 265.289098 92.078182 
L 266.905904 90.36 
L 268.522709 85.369091 
L 270.139515 85.696364 
L 271.75632 87.250909 
L 273.373126 95.596364 
L 274.989931 86.841818 
L 278.223542 92.078182 
L 279.840348 87.987273 
L 281.457153 78.987273 
L 283.073959 84.387273 
L 284.690764 81.605455 
L 286.30757 89.705455 
L 287.924375 85.778182 
L 289.541181 80.214545 
L 291.157986 83.078182 
L 292.774792 82.423636 
L 294.391597 88.478182 
L 296.008403 83.078182 
L 297.625208 71.950909 
L 299.242014 79.56 
L 300.858819 86.023636 
L 302.475625 79.232727 
L 304.09243 79.887273 
L 305.709236 89.950909 
L 307.326041 85.614545 
L 308.942847 92.405455 
L 310.559652 81.441818 
L 312.176458 84.06 
L 313.793263 88.478182 
L 315.410069 82.423636 
L 317.026874 80.46 
L 318.64368 80.623636 
L 320.260485 71.623636 
L 321.877291 82.096364 
L 323.494096 77.923636 
L 325.110902 83.323636 
L 326.727707 86.269091 
L 328.344513 74.405455 
L 329.961318 82.750909 
L 331.578124 80.950909 
L 333.194929 83.650909 
L 334.811735 75.714545 
L 336.42854 75.550909 
L 338.045346 79.232727 
L 339.662151 72.850909 
L 341.278957 82.996364 
L 342.895762 85.532727 
L 344.512568 85.123636 
L 346.129373 81.196364 
L 347.746179 85.287273 
L 349.362984 86.432727 
L 350.97979 83.978182 
L 352.596595 80.050909 
L 354.213401 83.896364 
L 355.830206 81.196364 
L 357.447012 76.778182 
L 359.063817 77.269091 
L 360.680623 87.578182 
L 362.297428 77.923636 
L 363.914234 77.923636 
L 365.531039 79.641818 
L 367.147845 72.850909 
L 368.76465 76.123636 
L 370.381456 86.596364 
L 371.998261 81.032727 
L 373.615067 79.805455 
L 375.231873 81.032727 
L 376.848678 77.678182 
L 378.465484 86.432727 
L 380.082289 81.769091 
L 381.699095 82.096364 
L 383.3159 79.396364 
L 384.932706 81.687273 
L 386.549511 78.005455 
L 388.166317 84.550909 
L 389.783122 79.150909 
L 391.399928 72.687273 
L 393.016733 85.86 
L 394.633539 79.805455 
L 396.250344 74.569091 
L 397.86715 82.750909 
L 399.483955 78.905455 
L 401.100761 75.632727 
L 402.717566 86.187273 
L 404.334372 78.905455 
L 405.951177 72.278182 
L 407.567983 83.650909 
L 409.184788 84.469091 
L 410.801594 73.832727 
L 412.418399 85.614545 
L 414.035205 91.996364 
L 415.65201 73.587273 
L 417.268816 73.096364 
L 418.885621 78.66 
L 420.502427 75.141818 
L 422.119232 84.632727 
L 423.736038 86.596364 
L 425.352843 85.450909 
L 426.969649 76.287273 
L 428.586454 78.087273 
L 430.20326 81.441818 
L 431.820065 79.887273 
L 433.436871 75.305455 
L 435.053676 78.741818 
L 436.670482 87.332727 
L 438.287287 77.841818 
L 439.904093 82.178182 
L 441.520898 81.114545 
L 443.137704 81.032727 
L 444.754509 74.650909 
L 446.371315 72.278182 
L 447.98812 78.741818 
L 449.604926 80.46 
L 451.221731 77.432727 
L 452.838537 82.669091 
L 454.455342 83.978182 
L 456.072148 76.450909 
L 457.688953 85.778182 
L 459.305759 83.241818 
L 460.922564 82.914545 
L 462.53937 82.26 
L 464.156175 84.714545 
L 465.772981 76.614545 
L 467.389786 84.878182 
L 469.006592 66.96 
L 470.623397 81.032727 
L 472.240203 71.378182 
L 473.857008 76.614545 
L 475.473814 73.341818 
L 477.090619 74.405455 
L 478.707425 77.269091 
L 480.32423 72.114545 
L 481.941036 80.296364 
L 483.557841 71.869091 
L 485.174647 85.614545 
L 486.791452 75.796364 
L 488.408258 81.114545 
L 490.025063 80.46 
L 491.641869 73.832727 
L 493.258674 75.223636 
L 494.87548 73.587273 
L 496.492285 80.46 
L 498.109091 74.650909 
L 498.109091 74.650909 
" clip-path="url(#pf57079d1e1)" style="fill: none; stroke: #ff7f0e; stroke-width: 1.5; stroke-linecap: square"/>
   </g>
   <g id="line2d_31">
    <path d="M 92.290909 369.36 
L 93.907715 322.887273 
L 95.52452 300.469091 
L 97.141326 291.632727 
L 100.374937 254.896364 
L 101.991742 252.687273 
L 103.608548 250.069091 
L 105.225353 231.66 
L 106.842159 221.105455 
L 108.458964 227.569091 
L 110.07577 215.541818 
L 111.692575 196.396364 
L 113.309381 214.723636 
L 114.926186 196.887273 
L 116.542992 196.232727 
L 118.159797 203.514545 
L 119.776603 170.623636 
L 121.393408 178.969091 
L 123.010214 164.405455 
L 124.627019 178.069091 
L 126.243825 183.632727 
L 127.86063 184.778182 
L 129.477436 171.932727 
L 131.094241 160.069091 
L 132.711047 172.341818 
L 134.327852 154.423636 
L 135.944658 164.569091 
L 137.561463 162.278182 
L 139.178269 146.978182 
L 140.795074 151.232727 
L 142.41188 145.914545 
L 144.028685 150.332727 
L 145.645491 144.932727 
L 147.262296 140.841818 
L 148.879102 150.414545 
L 150.495907 132.496364 
L 152.112713 147.06 
L 153.729518 139.86 
L 155.346324 145.669091 
L 156.963129 149.187273 
L 158.579935 130.369091 
L 160.19674 140.514545 
L 161.813546 132.005455 
L 163.430351 127.669091 
L 165.047157 130.287273 
L 166.663962 134.705455 
L 168.280768 147.796364 
L 169.897573 132.496364 
L 171.514379 129.223636 
L 173.131184 120.878182 
L 174.74799 128.814545 
L 176.364795 112.941818 
L 177.981601 123.578182 
L 179.598406 119.16 
L 181.215212 116.050909 
L 182.832017 118.096364 
L 184.448823 125.132727 
L 186.065628 113.514545 
L 187.682434 109.505455 
L 189.299239 117.278182 
L 190.916045 108.932727 
L 192.53285 117.605455 
L 194.149656 107.296364 
L 195.766461 107.869091 
L 197.383267 104.105455 
L 199.000072 117.523636 
L 200.616878 96.66 
L 202.233683 113.432727 
L 203.850489 110.16 
L 205.467294 109.750909 
L 207.0841 106.150909 
L 208.700905 112.205455 
L 210.317711 112.696364 
L 211.934516 107.050909 
L 215.168127 112.696364 
L 216.784933 96.250909 
L 220.018544 107.869091 
L 221.63535 106.887273 
L 223.252155 100.014545 
L 224.868961 104.269091 
L 226.485766 103.287273 
L 228.102572 103.696364 
L 229.719377 107.214545 
L 231.336183 107.787273 
L 232.952988 109.505455 
L 234.569794 100.505455 
L 236.186599 93.223636 
L 237.803405 106.314545 
L 239.42021 105.987273 
L 241.037016 98.869091 
L 242.653821 103.123636 
L 244.270627 98.950909 
L 245.887432 91.341818 
L 247.504238 93.469091 
L 249.121043 96.578182 
L 250.737849 94.614545 
L 252.354654 105.005455 
L 253.97146 95.514545 
L 255.588265 92.896364 
L 257.205071 99.605455 
L 258.821876 103.532727 
L 260.438682 96.414545 
L 262.055487 100.669091 
L 263.672293 100.505455 
L 265.289098 88.723636 
L 266.905904 88.396364 
L 270.139515 95.76 
L 271.75632 98.705455 
L 273.373126 90.523636 
L 274.989931 83.487273 
L 276.606737 93.305455 
L 278.223542 85.041818 
L 279.840348 86.432727 
L 281.457153 87.250909 
L 283.073959 91.587273 
L 284.690764 96.332727 
L 286.30757 99.850909 
L 287.924375 84.387273 
L 289.541181 95.841818 
L 291.157986 94.941818 
L 292.774792 87.087273 
L 294.391597 87.578182 
L 296.008403 91.505455 
L 297.625208 92.241818 
L 299.242014 95.023636 
L 300.858819 90.850909 
L 302.475625 96.087273 
L 304.09243 87.823636 
L 305.709236 96.66 
L 307.326041 88.396364 
L 308.942847 93.714545 
L 310.559652 83.978182 
L 312.176458 91.669091 
L 313.793263 92.732727 
L 315.410069 81.932727 
L 317.026874 86.678182 
L 318.64368 98.787273 
L 320.260485 90.932727 
L 323.494096 81.441818 
L 325.110902 89.705455 
L 326.727707 85.941818 
L 328.344513 96.578182 
L 329.961318 92.487273 
L 331.578124 90.523636 
L 333.194929 95.269091 
L 334.811735 77.350909 
L 336.42854 100.423636 
L 338.045346 89.214545 
L 339.662151 85.696364 
L 341.278957 93.96 
L 342.895762 88.232727 
L 344.512568 79.232727 
L 346.129373 92.405455 
L 347.746179 87.414545 
L 349.362984 83.732727 
L 350.97979 93.632727 
L 352.596595 78.414545 
L 354.213401 82.341818 
L 355.830206 93.632727 
L 357.447012 95.514545 
L 359.063817 93.469091 
L 360.680623 79.805455 
L 362.297428 91.750909 
L 363.914234 82.505455 
L 365.531039 93.06 
L 367.147845 88.641818 
L 368.76465 85.532727 
L 370.381456 87.169091 
L 371.998261 94.778182 
L 373.615067 90.687273 
L 375.231873 80.46 
L 376.848678 90.932727 
L 378.465484 92.323636 
L 380.082289 88.723636 
L 381.699095 85.696364 
L 383.3159 85.86 
L 384.932706 82.750909 
L 386.549511 85.614545 
L 388.166317 74.241818 
L 389.783122 99.441818 
L 391.399928 85.041818 
L 393.016733 99.196364 
L 394.633539 94.369091 
L 396.250344 88.232727 
L 397.86715 103.614545 
L 399.483955 100.750909 
L 401.100761 94.614545 
L 402.717566 90.523636 
L 404.334372 98.46 
L 405.951177 92.814545 
L 407.567983 85.205455 
L 409.184788 86.514545 
L 410.801594 85.369091 
L 412.418399 87.169091 
L 414.035205 89.623636 
L 415.65201 77.023636 
L 417.268816 81.932727 
L 418.885621 82.26 
L 420.502427 78.005455 
L 422.119232 82.096364 
L 423.736038 80.46 
L 425.352843 85.369091 
L 426.969649 78.741818 
L 428.586454 86.841818 
L 430.20326 89.950909 
L 431.820065 90.769091 
L 433.436871 92.978182 
L 435.053676 81.441818 
L 436.670482 92.241818 
L 438.287287 80.950909 
L 439.904093 91.341818 
L 441.520898 82.914545 
L 443.137704 87.987273 
L 444.754509 88.723636 
L 446.371315 78.987273 
L 447.98812 81.032727 
L 449.604926 85.941818 
L 451.221731 87.823636 
L 452.838537 86.432727 
L 454.455342 78.169091 
L 456.072148 82.014545 
L 457.688953 92.978182 
L 459.305759 84.469091 
L 460.922564 85.369091 
L 462.53937 84.714545 
L 464.156175 90.523636 
L 465.772981 79.150909 
L 467.389786 85.696364 
L 469.006592 100.750909 
L 470.623397 83.978182 
L 472.240203 89.378182 
L 473.857008 81.850909 
L 475.473814 95.023636 
L 477.090619 85.614545 
L 478.707425 84.796364 
L 480.32423 87.250909 
L 481.941036 81.687273 
L 483.557841 79.887273 
L 485.174647 78.741818 
L 486.791452 85.696364 
L 488.408258 94.205455 
L 490.025063 78.823636 
L 491.641869 94.614545 
L 493.258674 85.614545 
L 494.87548 77.678182 
L 496.492285 84.223636 
L 498.109091 86.432727 
L 498.109091 86.432727 
" clip-path="url(#pf57079d1e1)" style="fill: none; stroke: #2ca02c; stroke-width: 1.5; stroke-linecap: square"/>
   </g>
   <g id="line2d_32">
    <path d="M 92.290909 367.641818 
L 93.907715 335.078182 
L 95.52452 325.750909 
L 97.141326 291.796364 
L 98.758131 299.732727 
L 100.374937 250.56 
L 101.991742 256.778182 
L 103.608548 262.096364 
L 105.225353 238.778182 
L 106.842159 248.514545 
L 108.458964 237.469091 
L 111.692575 207.032727 
L 113.309381 204.169091 
L 114.926186 218.569091 
L 116.542992 235.423636 
L 118.159797 191.814545 
L 119.776603 180.523636 
L 121.393408 213.250909 
L 123.010214 183.714545 
L 124.627019 176.023636 
L 126.243825 175.614545 
L 127.86063 172.996364 
L 129.477436 184.614545 
L 131.094241 177.005455 
L 132.711047 165.387273 
L 134.327852 175.86 
L 135.944658 161.46 
L 137.561463 156.305455 
L 139.178269 162.36 
L 140.795074 154.914545 
L 142.41188 174.550909 
L 144.028685 144.196364 
L 145.645491 171.36 
L 147.262296 142.478182 
L 148.879102 150.66 
L 150.495907 148.287273 
L 152.112713 147.305455 
L 153.729518 147.06 
L 155.346324 160.641818 
L 156.963129 140.841818 
L 158.579935 154.26 
L 160.19674 132.741818 
L 161.813546 127.669091 
L 163.430351 132.741818 
L 165.047157 128.241818 
L 166.663962 126.441818 
L 168.280768 131.923636 
L 169.897573 133.232727 
L 171.514379 127.914545 
L 173.131184 112.778182 
L 174.74799 134.46 
L 176.364795 137.078182 
L 177.981601 123.332727 
L 179.598406 127.914545 
L 181.215212 127.423636 
L 182.832017 128.896364 
L 184.448823 118.669091 
L 186.065628 124.396364 
L 187.682434 124.641818 
L 189.299239 118.096364 
L 190.916045 120.96 
L 192.53285 116.46 
L 194.149656 117.769091 
L 195.766461 107.869091 
L 197.383267 108.196364 
L 199.000072 111.550909 
L 200.616878 109.750909 
L 202.233683 107.541818 
L 203.850489 112.123636 
L 205.467294 107.132727 
L 207.0841 99.605455 
L 208.700905 117.36 
L 210.317711 105.987273 
L 211.934516 111.141818 
L 213.551322 100.423636 
L 215.168127 126.36 
L 216.784933 106.069091 
L 218.401739 106.232727 
L 220.018544 111.550909 
L 221.63535 119.241818 
L 223.252155 103.614545 
L 224.868961 104.350909 
L 226.485766 113.432727 
L 228.102572 98.541818 
L 229.719377 105.250909 
L 231.336183 105.578182 
L 232.952988 109.096364 
L 234.569794 109.832727 
L 236.186599 108.605455 
L 237.803405 100.178182 
L 239.42021 108.032727 
L 241.037016 105.169091 
L 244.270627 100.914545 
L 245.887432 104.432727 
L 247.504238 106.723636 
L 249.121043 97.723636 
L 250.737849 108.769091 
L 252.354654 99.850909 
L 253.97146 103.205455 
L 255.588265 98.214545 
L 257.205071 101.241818 
L 258.821876 94.696364 
L 260.438682 103.205455 
L 262.055487 105.578182 
L 263.672293 95.923636 
L 265.289098 99.196364 
L 266.905904 99.114545 
L 268.522709 103.450909 
L 270.139515 96.496364 
L 271.75632 101.732727 
L 273.373126 105.250909 
L 274.989931 93.141818 
L 276.606737 101.569091 
L 278.223542 104.678182 
L 279.840348 97.805455 
L 281.457153 89.950909 
L 283.073959 94.778182 
L 284.690764 94.86 
L 286.30757 91.014545 
L 287.924375 99.850909 
L 289.541181 92.487273 
L 291.157986 103.123636 
L 292.774792 109.096364 
L 294.391597 103.123636 
L 296.008403 103.614545 
L 297.625208 100.096364 
L 299.242014 88.314545 
L 300.858819 98.541818 
L 302.475625 106.723636 
L 304.09243 96.823636 
L 305.709236 92.896364 
L 307.326041 98.869091 
L 308.942847 93.796364 
L 310.559652 93.878182 
L 312.176458 91.096364 
L 313.793263 83.323636 
L 315.410069 84.796364 
L 317.026874 95.841818 
L 318.64368 105.414545 
L 320.260485 93.632727 
L 321.877291 93.387273 
L 323.494096 94.941818 
L 325.110902 91.26 
L 326.727707 96.169091 
L 328.344513 99.932727 
L 329.961318 106.069091 
L 331.578124 96.741818 
L 333.194929 104.76 
L 334.811735 82.26 
L 336.42854 101.241818 
L 338.045346 89.787273 
L 339.662151 93.96 
L 341.278957 90.032727 
L 342.895762 90.523636 
L 344.512568 94.532727 
L 346.129373 82.423636 
L 347.746179 84.714545 
L 349.362984 87.823636 
L 350.97979 89.050909 
L 352.596595 91.669091 
L 354.213401 82.096364 
L 355.830206 84.96 
L 357.447012 90.769091 
L 359.063817 97.805455 
L 360.680623 88.641818 
L 362.297428 83.569091 
L 363.914234 109.669091 
L 365.531039 91.341818 
L 367.147845 90.278182 
L 368.76465 96.169091 
L 370.381456 85.123636 
L 371.998261 94.614545 
L 373.615067 89.950909 
L 375.231873 98.623636 
L 376.848678 96.823636 
L 378.465484 80.623636 
L 380.082289 89.46 
L 381.699095 92.814545 
L 383.3159 86.841818 
L 384.932706 117.687273 
L 386.549511 88.232727 
L 388.166317 93.141818 
L 389.783122 88.478182 
L 391.399928 90.769091 
L 393.016733 88.805455 
L 394.633539 89.623636 
L 396.250344 81.769091 
L 397.86715 94.614545 
L 399.483955 87.414545 
L 401.100761 91.996364 
L 402.717566 92.241818 
L 404.334372 91.423636 
L 405.951177 93.469091 
L 407.567983 88.314545 
L 409.184788 81.769091 
L 410.801594 91.423636 
L 412.418399 83.16 
L 414.035205 92.732727 
L 415.65201 87.905455 
L 417.268816 92.732727 
L 418.885621 86.514545 
L 420.502427 79.232727 
L 422.119232 105.66 
L 423.736038 87.823636 
L 425.352843 89.950909 
L 426.969649 86.269091 
L 428.586454 86.514545 
L 430.20326 86.350909 
L 431.820065 93.714545 
L 433.436871 88.887273 
L 435.053676 83.078182 
L 436.670482 81.032727 
L 438.287287 88.641818 
L 439.904093 93.305455 
L 441.520898 89.132727 
L 443.137704 81.850909 
L 444.754509 93.141818 
L 446.371315 98.378182 
L 447.98812 86.678182 
L 449.604926 100.505455 
L 451.221731 87.087273 
L 452.838537 101.814545 
L 454.455342 84.141818 
L 456.072148 100.423636 
L 457.688953 91.26 
L 459.305759 86.350909 
L 460.922564 85.696364 
L 462.53937 97.150909 
L 464.156175 88.069091 
L 465.772981 86.105455 
L 467.389786 72.932727 
L 469.006592 91.423636 
L 470.623397 90.114545 
L 472.240203 83.487273 
L 473.857008 91.669091 
L 475.473814 90.196364 
L 477.090619 79.56 
L 478.707425 84.796364 
L 480.32423 88.396364 
L 481.941036 81.36 
L 483.557841 80.950909 
L 485.174647 85.778182 
L 486.791452 79.396364 
L 488.408258 86.923636 
L 490.025063 90.523636 
L 491.641869 87.250909 
L 493.258674 79.723636 
L 494.87548 75.96 
L 496.492285 91.178182 
L 498.109091 89.46 
L 498.109091 89.46 
" clip-path="url(#pf57079d1e1)" style="fill: none; stroke: #d62728; stroke-width: 1.5; stroke-linecap: square"/>
   </g>
   <g id="patch_3">
    <path d="M 72 384.48 
L 72 51.84 
" style="fill: none; stroke: #000000; stroke-width: 0.8; stroke-linejoin: miter; stroke-linecap: square"/>
   </g>
   <g id="patch_4">
    <path d="M 518.4 384.48 
L 518.4 51.84 
" style="fill: none; stroke: #000000; stroke-width: 0.8; stroke-linejoin: miter; stroke-linecap: square"/>
   </g>
   <g id="patch_5">
    <path d="M 72 384.48 
L 518.4 384.48 
" style="fill: none; stroke: #000000; stroke-width: 0.8; stroke-linejoin: miter; stroke-linecap: square"/>
   </g>
   <g id="patch_6">
    <path d="M 72 51.84 
L 518.4 51.84 
" style="fill: none; stroke: #000000; stroke-width: 0.8; stroke-linejoin: miter; stroke-linecap: square"/>
   </g>
   <g id="text_17">
    <!-- Basic-Common -->
    <g transform="translate(250.126875 45.84)scale(0.12 -0.12)">
     <defs>
      <path id="DejaVuSans-42" d="M 1259 2228 
L 1259 519 
L 2272 519 
Q 2781 519 3026 730 
Q 3272 941 3272 1375 
Q 3272 1813 3026 2020 
Q 2781 2228 2272 2228 
L 1259 2228 
z
M 1259 4147 
L 1259 2741 
L 2194 2741 
Q 2656 2741 2882 2914 
Q 3109 3088 3109 3444 
Q 3109 3797 2882 3972 
Q 2656 4147 2194 4147 
L 1259 4147 
z
M 628 4666 
L 2241 4666 
Q 2963 4666 3353 4366 
Q 3744 4066 3744 3513 
Q 3744 3084 3544 2831 
Q 3344 2578 2956 2516 
Q 3422 2416 3680 2098 
Q 3938 1781 3938 1306 
Q 3938 681 3513 340 
Q 3088 0 2303 0 
L 628 0 
L 628 4666 
z
" transform="scale(0.015625)"/>
      <path id="DejaVuSans-2d" d="M 313 2009 
L 1997 2009 
L 1997 1497 
L 313 1497 
L 313 2009 
z
" transform="scale(0.015625)"/>
     </defs>
     <use xlink:href="#DejaVuSans-42"/>
     <use xlink:href="#DejaVuSans-61" x="68.603516"/>
     <use xlink:href="#DejaVuSans-73" x="129.882812"/>
     <use xlink:href="#DejaVuSans-69" x="181.982422"/>
     <use xlink:href="#DejaVuSans-63" x="209.765625"/>
     <use xlink:href="#DejaVuSans-2d" x="264.746094"/>
     <use xlink:href="#DejaVuSans-43" x="300.830078"/>
     <use xlink:href="#DejaVuSans-6f" x="370.654297"/>
     <use xlink:href="#DejaVuSans-6d" x="431.835938"/>
     <use xlink:href="#DejaVuSans-6d" x="529.248047"/>
     <use xlink:href="#DejaVuSans-6f" x="626.660156"/>
     <use xlink:href="#DejaVuSans-6e" x="687.841797"/>
    </g>
   </g>
   <g id="legend_1">
    <g id="patch_7">
     <path d="M 79 118.5525 
L 124.203125 118.5525 
Q 126.203125 118.5525 126.203125 116.5525 
L 126.203125 58.84 
Q 126.203125 56.84 124.203125 56.84 
L 79 56.84 
Q 77 56.84 77 58.84 
L 77 116.5525 
Q 77 118.5525 79 118.5525 
z
" style="fill: #ffffff; opacity: 0.8; stroke: #cccccc; stroke-linejoin: miter"/>
    </g>
    <g id="line2d_33">
     <path d="M 81 64.938438 
L 91 64.938438 
L 101 64.938438 
" style="fill: none; stroke: #1f77b4; stroke-width: 1.5; stroke-linecap: square"/>
    </g>
    <g id="text_18">
     <!-- V1 -->
     <g transform="translate(109 68.438438)scale(0.1 -0.1)">
      <defs>
       <path id="DejaVuSans-56" d="M 1831 0 
L 50 4666 
L 709 4666 
L 2188 738 
L 3669 4666 
L 4325 4666 
L 2547 0 
L 1831 0 
z
" transform="scale(0.015625)"/>
      </defs>
      <use xlink:href="#DejaVuSans-56"/>
      <use xlink:href="#DejaVuSans-31" x="68.408203"/>
     </g>
    </g>
    <g id="line2d_34">
     <path d="M 81 79.616563 
L 91 79.616563 
L 101 79.616563 
" style="fill: none; stroke: #ff7f0e; stroke-width: 1.5; stroke-linecap: square"/>
    </g>
    <g id="text_19">
     <!-- V2 -->
     <g transform="translate(109 83.116563)scale(0.1 -0.1)">
      <use xlink:href="#DejaVuSans-56"/>
      <use xlink:href="#DejaVuSans-32" x="68.408203"/>
     </g>
    </g>
    <g id="line2d_35">
     <path d="M 81 94.294688 
L 91 94.294688 
L 101 94.294688 
" style="fill: none; stroke: #2ca02c; stroke-width: 1.5; stroke-linecap: square"/>
    </g>
    <g id="text_20">
     <!-- V3 -->
     <g transform="translate(109 97.794688)scale(0.1 -0.1)">
      <use xlink:href="#DejaVuSans-56"/>
      <use xlink:href="#DejaVuSans-33" x="68.408203"/>
     </g>
    </g>
    <g id="line2d_36">
     <path d="M 81 108.972813 
L 91 108.972813 
L 101 108.972813 
" style="fill: none; stroke: #d62728; stroke-width: 1.5; stroke-linecap: square"/>
    </g>
    <g id="text_21">
     <!-- V4 -->
     <g transform="translate(109 112.472813)scale(0.1 -0.1)">
      <use xlink:href="#DejaVuSans-56"/>
      <use xlink:href="#DejaVuSans-34" x="68.408203"/>
     </g>
    </g>
   </g>
  </g>
 </g>
 <defs>
  <clipPath id="pf57079d1e1">
   <rect x="72" y="51.84" width="446.4" height="332.64"/>
  </clipPath>
 </defs>
</svg>
