<?xml version="1.0" encoding="utf-8" standalone="no"?>
<!DOCTYPE svg PUBLIC "-//W3C//DTD SVG 1.1//EN"
  "http://www.w3.org/Graphics/SVG/1.1/DTD/svg11.dtd">
<svg xmlns:xlink="http://www.w3.org/1999/xlink" width="576pt" height="432pt" viewBox="0 0 576 432" xmlns="http://www.w3.org/2000/svg" version="1.1">
 <metadata>
  <rdf:RDF xmlns:dc="http://purl.org/dc/elements/1.1/" xmlns:cc="http://creativecommons.org/ns#" xmlns:rdf="http://www.w3.org/1999/02/22-rdf-syntax-ns#">
   <cc:Work>
    <dc:type rdf:resource="http://purl.org/dc/dcmitype/StillImage"/>
    <dc:date>2023-08-06T12:06:06.641711</dc:date>
    <dc:format>image/svg+xml</dc:format>
    <dc:creator>
     <cc:Agent>
      <dc:title>Matplotlib v3.7.2, https://matplotlib.org/</dc:title>
     </cc:Agent>
    </dc:creator>
   </cc:Work>
  </rdf:RDF>
 </metadata>
 <defs>
  <style type="text/css">*{stroke-linejoin: round; stroke-linecap: butt}</style>
 </defs>
 <g id="figure_1">
  <g id="patch_1">
   <path d="M 0 432 
L 576 432 
L 576 0 
L 0 0 
z
" style="fill: #ffffff"/>
  </g>
  <g id="axes_1">
   <g id="patch_2">
    <path d="M 72 384.48 
L 518.4 384.48 
L 518.4 51.84 
L 72 51.84 
z
" style="fill: #ffffff"/>
   </g>
   <g id="matplotlib.axis_1">
    <g id="xtick_1">
     <g id="line2d_1">
      <path d="M 92.290909 384.48 
L 92.290909 51.84 
" clip-path="url(#p5e325fbe7f)" style="fill: none; stroke: #b0b0b0; stroke-opacity: 0.5; stroke-width: 0.8; stroke-linecap: square"/>
     </g>
     <g id="line2d_2">
      <defs>
       <path id="m53bc438292" d="M 0 0 
L 0 3.5 
" style="stroke: #000000; stroke-width: 0.8"/>
      </defs>
      <g>
       <use xlink:href="#m53bc438292" x="92.290909" y="384.48" style="stroke: #000000; stroke-width: 0.8"/>
      </g>
     </g>
     <g id="text_1">
      <!-- 0 -->
      <g transform="translate(89.109659 399.078438) scale(0.1 -0.1)">
       <defs>
        <path id="DejaVuSans-30" d="M 2034 4250 
Q 1547 4250 1301 3770 
Q 1056 3291 1056 2328 
Q 1056 1369 1301 889 
Q 1547 409 2034 409 
Q 2525 409 2770 889 
Q 3016 1369 3016 2328 
Q 3016 3291 2770 3770 
Q 2525 4250 2034 4250 
z
M 2034 4750 
Q 2819 4750 3233 4129 
Q 3647 3509 3647 2328 
Q 3647 1150 3233 529 
Q 2819 -91 2034 -91 
Q 1250 -91 836 529 
Q 422 1150 422 2328 
Q 422 3509 836 4129 
Q 1250 4750 2034 4750 
z
" transform="scale(0.015625)"/>
       </defs>
       <use xlink:href="#DejaVuSans-30"/>
      </g>
     </g>
    </g>
    <g id="xtick_2">
     <g id="line2d_3">
      <path d="M 146.4 384.48 
L 146.4 51.84 
" clip-path="url(#p5e325fbe7f)" style="fill: none; stroke: #b0b0b0; stroke-opacity: 0.5; stroke-width: 0.8; stroke-linecap: square"/>
     </g>
     <g id="line2d_4">
      <g>
       <use xlink:href="#m53bc438292" x="146.4" y="384.48" style="stroke: #000000; stroke-width: 0.8"/>
      </g>
     </g>
     <g id="text_2">
      <!-- 20 -->
      <g transform="translate(140.0375 399.078438) scale(0.1 -0.1)">
       <defs>
        <path id="DejaVuSans-32" d="M 1228 531 
L 3431 531 
L 3431 0 
L 469 0 
L 469 531 
Q 828 903 1448 1529 
Q 2069 2156 2228 2338 
Q 2531 2678 2651 2914 
Q 2772 3150 2772 3378 
Q 2772 3750 2511 3984 
Q 2250 4219 1831 4219 
Q 1534 4219 1204 4116 
Q 875 4013 500 3803 
L 500 4441 
Q 881 4594 1212 4672 
Q 1544 4750 1819 4750 
Q 2544 4750 2975 4387 
Q 3406 4025 3406 3419 
Q 3406 3131 3298 2873 
Q 3191 2616 2906 2266 
Q 2828 2175 2409 1742 
Q 1991 1309 1228 531 
z
" transform="scale(0.015625)"/>
       </defs>
       <use xlink:href="#DejaVuSans-32"/>
       <use xlink:href="#DejaVuSans-30" x="63.623047"/>
      </g>
     </g>
    </g>
    <g id="xtick_3">
     <g id="line2d_5">
      <path d="M 200.509091 384.48 
L 200.509091 51.84 
" clip-path="url(#p5e325fbe7f)" style="fill: none; stroke: #b0b0b0; stroke-opacity: 0.5; stroke-width: 0.8; stroke-linecap: square"/>
     </g>
     <g id="line2d_6">
      <g>
       <use xlink:href="#m53bc438292" x="200.509091" y="384.48" style="stroke: #000000; stroke-width: 0.8"/>
      </g>
     </g>
     <g id="text_3">
      <!-- 40 -->
      <g transform="translate(194.146591 399.078438) scale(0.1 -0.1)">
       <defs>
        <path id="DejaVuSans-34" d="M 2419 4116 
L 825 1625 
L 2419 1625 
L 2419 4116 
z
M 2253 4666 
L 3047 4666 
L 3047 1625 
L 3713 1625 
L 3713 1100 
L 3047 1100 
L 3047 0 
L 2419 0 
L 2419 1100 
L 313 1100 
L 313 1709 
L 2253 4666 
z
" transform="scale(0.015625)"/>
       </defs>
       <use xlink:href="#DejaVuSans-34"/>
       <use xlink:href="#DejaVuSans-30" x="63.623047"/>
      </g>
     </g>
    </g>
    <g id="xtick_4">
     <g id="line2d_7">
      <path d="M 254.618182 384.48 
L 254.618182 51.84 
" clip-path="url(#p5e325fbe7f)" style="fill: none; stroke: #b0b0b0; stroke-opacity: 0.5; stroke-width: 0.8; stroke-linecap: square"/>
     </g>
     <g id="line2d_8">
      <g>
       <use xlink:href="#m53bc438292" x="254.618182" y="384.48" style="stroke: #000000; stroke-width: 0.8"/>
      </g>
     </g>
     <g id="text_4">
      <!-- 60 -->
      <g transform="translate(248.255682 399.078438) scale(0.1 -0.1)">
       <defs>
        <path id="DejaVuSans-36" d="M 2113 2584 
Q 1688 2584 1439 2293 
Q 1191 2003 1191 1497 
Q 1191 994 1439 701 
Q 1688 409 2113 409 
Q 2538 409 2786 701 
Q 3034 994 3034 1497 
Q 3034 2003 2786 2293 
Q 2538 2584 2113 2584 
z
M 3366 4563 
L 3366 3988 
Q 3128 4100 2886 4159 
Q 2644 4219 2406 4219 
Q 1781 4219 1451 3797 
Q 1122 3375 1075 2522 
Q 1259 2794 1537 2939 
Q 1816 3084 2150 3084 
Q 2853 3084 3261 2657 
Q 3669 2231 3669 1497 
Q 3669 778 3244 343 
Q 2819 -91 2113 -91 
Q 1303 -91 875 529 
Q 447 1150 447 2328 
Q 447 3434 972 4092 
Q 1497 4750 2381 4750 
Q 2619 4750 2861 4703 
Q 3103 4656 3366 4563 
z
" transform="scale(0.015625)"/>
       </defs>
       <use xlink:href="#DejaVuSans-36"/>
       <use xlink:href="#DejaVuSans-30" x="63.623047"/>
      </g>
     </g>
    </g>
    <g id="xtick_5">
     <g id="line2d_9">
      <path d="M 308.727273 384.48 
L 308.727273 51.84 
" clip-path="url(#p5e325fbe7f)" style="fill: none; stroke: #b0b0b0; stroke-opacity: 0.5; stroke-width: 0.8; stroke-linecap: square"/>
     </g>
     <g id="line2d_10">
      <g>
       <use xlink:href="#m53bc438292" x="308.727273" y="384.48" style="stroke: #000000; stroke-width: 0.8"/>
      </g>
     </g>
     <g id="text_5">
      <!-- 80 -->
      <g transform="translate(302.364773 399.078438) scale(0.1 -0.1)">
       <defs>
        <path id="DejaVuSans-38" d="M 2034 2216 
Q 1584 2216 1326 1975 
Q 1069 1734 1069 1313 
Q 1069 891 1326 650 
Q 1584 409 2034 409 
Q 2484 409 2743 651 
Q 3003 894 3003 1313 
Q 3003 1734 2745 1975 
Q 2488 2216 2034 2216 
z
M 1403 2484 
Q 997 2584 770 2862 
Q 544 3141 544 3541 
Q 544 4100 942 4425 
Q 1341 4750 2034 4750 
Q 2731 4750 3128 4425 
Q 3525 4100 3525 3541 
Q 3525 3141 3298 2862 
Q 3072 2584 2669 2484 
Q 3125 2378 3379 2068 
Q 3634 1759 3634 1313 
Q 3634 634 3220 271 
Q 2806 -91 2034 -91 
Q 1263 -91 848 271 
Q 434 634 434 1313 
Q 434 1759 690 2068 
Q 947 2378 1403 2484 
z
M 1172 3481 
Q 1172 3119 1398 2916 
Q 1625 2713 2034 2713 
Q 2441 2713 2670 2916 
Q 2900 3119 2900 3481 
Q 2900 3844 2670 4047 
Q 2441 4250 2034 4250 
Q 1625 4250 1398 4047 
Q 1172 3844 1172 3481 
z
" transform="scale(0.015625)"/>
       </defs>
       <use xlink:href="#DejaVuSans-38"/>
       <use xlink:href="#DejaVuSans-30" x="63.623047"/>
      </g>
     </g>
    </g>
    <g id="xtick_6">
     <g id="line2d_11">
      <path d="M 362.836364 384.48 
L 362.836364 51.84 
" clip-path="url(#p5e325fbe7f)" style="fill: none; stroke: #b0b0b0; stroke-opacity: 0.5; stroke-width: 0.8; stroke-linecap: square"/>
     </g>
     <g id="line2d_12">
      <g>
       <use xlink:href="#m53bc438292" x="362.836364" y="384.48" style="stroke: #000000; stroke-width: 0.8"/>
      </g>
     </g>
     <g id="text_6">
      <!-- 100 -->
      <g transform="translate(353.292614 399.078438) scale(0.1 -0.1)">
       <defs>
        <path id="DejaVuSans-31" d="M 794 531 
L 1825 531 
L 1825 4091 
L 703 3866 
L 703 4441 
L 1819 4666 
L 2450 4666 
L 2450 531 
L 3481 531 
L 3481 0 
L 794 0 
L 794 531 
z
" transform="scale(0.015625)"/>
       </defs>
       <use xlink:href="#DejaVuSans-31"/>
       <use xlink:href="#DejaVuSans-30" x="63.623047"/>
       <use xlink:href="#DejaVuSans-30" x="127.246094"/>
      </g>
     </g>
    </g>
    <g id="xtick_7">
     <g id="line2d_13">
      <path d="M 416.945455 384.48 
L 416.945455 51.84 
" clip-path="url(#p5e325fbe7f)" style="fill: none; stroke: #b0b0b0; stroke-opacity: 0.5; stroke-width: 0.8; stroke-linecap: square"/>
     </g>
     <g id="line2d_14">
      <g>
       <use xlink:href="#m53bc438292" x="416.945455" y="384.48" style="stroke: #000000; stroke-width: 0.8"/>
      </g>
     </g>
     <g id="text_7">
      <!-- 120 -->
      <g transform="translate(407.401705 399.078438) scale(0.1 -0.1)">
       <use xlink:href="#DejaVuSans-31"/>
       <use xlink:href="#DejaVuSans-32" x="63.623047"/>
       <use xlink:href="#DejaVuSans-30" x="127.246094"/>
      </g>
     </g>
    </g>
    <g id="xtick_8">
     <g id="line2d_15">
      <path d="M 471.054545 384.48 
L 471.054545 51.84 
" clip-path="url(#p5e325fbe7f)" style="fill: none; stroke: #b0b0b0; stroke-opacity: 0.5; stroke-width: 0.8; stroke-linecap: square"/>
     </g>
     <g id="line2d_16">
      <g>
       <use xlink:href="#m53bc438292" x="471.054545" y="384.48" style="stroke: #000000; stroke-width: 0.8"/>
      </g>
     </g>
     <g id="text_8">
      <!-- 140 -->
      <g transform="translate(461.510795 399.078438) scale(0.1 -0.1)">
       <use xlink:href="#DejaVuSans-31"/>
       <use xlink:href="#DejaVuSans-34" x="63.623047"/>
       <use xlink:href="#DejaVuSans-30" x="127.246094"/>
      </g>
     </g>
    </g>
    <g id="text_9">
     <!-- Communication rounds -->
     <g transform="translate(237.083594 412.756563) scale(0.1 -0.1)">
      <defs>
       <path id="DejaVuSans-43" d="M 4122 4306 
L 4122 3641 
Q 3803 3938 3442 4084 
Q 3081 4231 2675 4231 
Q 1875 4231 1450 3742 
Q 1025 3253 1025 2328 
Q 1025 1406 1450 917 
Q 1875 428 2675 428 
Q 3081 428 3442 575 
Q 3803 722 4122 1019 
L 4122 359 
Q 3791 134 3420 21 
Q 3050 -91 2638 -91 
Q 1578 -91 968 557 
Q 359 1206 359 2328 
Q 359 3453 968 4101 
Q 1578 4750 2638 4750 
Q 3056 4750 3426 4639 
Q 3797 4528 4122 4306 
z
" transform="scale(0.015625)"/>
       <path id="DejaVuSans-6f" d="M 1959 3097 
Q 1497 3097 1228 2736 
Q 959 2375 959 1747 
Q 959 1119 1226 758 
Q 1494 397 1959 397 
Q 2419 397 2687 759 
Q 2956 1122 2956 1747 
Q 2956 2369 2687 2733 
Q 2419 3097 1959 3097 
z
M 1959 3584 
Q 2709 3584 3137 3096 
Q 3566 2609 3566 1747 
Q 3566 888 3137 398 
Q 2709 -91 1959 -91 
Q 1206 -91 779 398 
Q 353 888 353 1747 
Q 353 2609 779 3096 
Q 1206 3584 1959 3584 
z
" transform="scale(0.015625)"/>
       <path id="DejaVuSans-6d" d="M 3328 2828 
Q 3544 3216 3844 3400 
Q 4144 3584 4550 3584 
Q 5097 3584 5394 3201 
Q 5691 2819 5691 2113 
L 5691 0 
L 5113 0 
L 5113 2094 
Q 5113 2597 4934 2840 
Q 4756 3084 4391 3084 
Q 3944 3084 3684 2787 
Q 3425 2491 3425 1978 
L 3425 0 
L 2847 0 
L 2847 2094 
Q 2847 2600 2669 2842 
Q 2491 3084 2119 3084 
Q 1678 3084 1418 2786 
Q 1159 2488 1159 1978 
L 1159 0 
L 581 0 
L 581 3500 
L 1159 3500 
L 1159 2956 
Q 1356 3278 1631 3431 
Q 1906 3584 2284 3584 
Q 2666 3584 2933 3390 
Q 3200 3197 3328 2828 
z
" transform="scale(0.015625)"/>
       <path id="DejaVuSans-75" d="M 544 1381 
L 544 3500 
L 1119 3500 
L 1119 1403 
Q 1119 906 1312 657 
Q 1506 409 1894 409 
Q 2359 409 2629 706 
Q 2900 1003 2900 1516 
L 2900 3500 
L 3475 3500 
L 3475 0 
L 2900 0 
L 2900 538 
Q 2691 219 2414 64 
Q 2138 -91 1772 -91 
Q 1169 -91 856 284 
Q 544 659 544 1381 
z
M 1991 3584 
L 1991 3584 
z
" transform="scale(0.015625)"/>
       <path id="DejaVuSans-6e" d="M 3513 2113 
L 3513 0 
L 2938 0 
L 2938 2094 
Q 2938 2591 2744 2837 
Q 2550 3084 2163 3084 
Q 1697 3084 1428 2787 
Q 1159 2491 1159 1978 
L 1159 0 
L 581 0 
L 581 3500 
L 1159 3500 
L 1159 2956 
Q 1366 3272 1645 3428 
Q 1925 3584 2291 3584 
Q 2894 3584 3203 3211 
Q 3513 2838 3513 2113 
z
" transform="scale(0.015625)"/>
       <path id="DejaVuSans-69" d="M 603 3500 
L 1178 3500 
L 1178 0 
L 603 0 
L 603 3500 
z
M 603 4863 
L 1178 4863 
L 1178 4134 
L 603 4134 
L 603 4863 
z
" transform="scale(0.015625)"/>
       <path id="DejaVuSans-63" d="M 3122 3366 
L 3122 2828 
Q 2878 2963 2633 3030 
Q 2388 3097 2138 3097 
Q 1578 3097 1268 2742 
Q 959 2388 959 1747 
Q 959 1106 1268 751 
Q 1578 397 2138 397 
Q 2388 397 2633 464 
Q 2878 531 3122 666 
L 3122 134 
Q 2881 22 2623 -34 
Q 2366 -91 2075 -91 
Q 1284 -91 818 406 
Q 353 903 353 1747 
Q 353 2603 823 3093 
Q 1294 3584 2113 3584 
Q 2378 3584 2631 3529 
Q 2884 3475 3122 3366 
z
" transform="scale(0.015625)"/>
       <path id="DejaVuSans-61" d="M 2194 1759 
Q 1497 1759 1228 1600 
Q 959 1441 959 1056 
Q 959 750 1161 570 
Q 1363 391 1709 391 
Q 2188 391 2477 730 
Q 2766 1069 2766 1631 
L 2766 1759 
L 2194 1759 
z
M 3341 1997 
L 3341 0 
L 2766 0 
L 2766 531 
Q 2569 213 2275 61 
Q 1981 -91 1556 -91 
Q 1019 -91 701 211 
Q 384 513 384 1019 
Q 384 1609 779 1909 
Q 1175 2209 1959 2209 
L 2766 2209 
L 2766 2266 
Q 2766 2663 2505 2880 
Q 2244 3097 1772 3097 
Q 1472 3097 1187 3025 
Q 903 2953 641 2809 
L 641 3341 
Q 956 3463 1253 3523 
Q 1550 3584 1831 3584 
Q 2591 3584 2966 3190 
Q 3341 2797 3341 1997 
z
" transform="scale(0.015625)"/>
       <path id="DejaVuSans-74" d="M 1172 4494 
L 1172 3500 
L 2356 3500 
L 2356 3053 
L 1172 3053 
L 1172 1153 
Q 1172 725 1289 603 
Q 1406 481 1766 481 
L 2356 481 
L 2356 0 
L 1766 0 
Q 1100 0 847 248 
Q 594 497 594 1153 
L 594 3053 
L 172 3053 
L 172 3500 
L 594 3500 
L 594 4494 
L 1172 4494 
z
" transform="scale(0.015625)"/>
       <path id="DejaVuSans-20" transform="scale(0.015625)"/>
       <path id="DejaVuSans-72" d="M 2631 2963 
Q 2534 3019 2420 3045 
Q 2306 3072 2169 3072 
Q 1681 3072 1420 2755 
Q 1159 2438 1159 1844 
L 1159 0 
L 581 0 
L 581 3500 
L 1159 3500 
L 1159 2956 
Q 1341 3275 1631 3429 
Q 1922 3584 2338 3584 
Q 2397 3584 2469 3576 
Q 2541 3569 2628 3553 
L 2631 2963 
z
" transform="scale(0.015625)"/>
       <path id="DejaVuSans-64" d="M 2906 2969 
L 2906 4863 
L 3481 4863 
L 3481 0 
L 2906 0 
L 2906 525 
Q 2725 213 2448 61 
Q 2172 -91 1784 -91 
Q 1150 -91 751 415 
Q 353 922 353 1747 
Q 353 2572 751 3078 
Q 1150 3584 1784 3584 
Q 2172 3584 2448 3432 
Q 2725 3281 2906 2969 
z
M 947 1747 
Q 947 1113 1208 752 
Q 1469 391 1925 391 
Q 2381 391 2643 752 
Q 2906 1113 2906 1747 
Q 2906 2381 2643 2742 
Q 2381 3103 1925 3103 
Q 1469 3103 1208 2742 
Q 947 2381 947 1747 
z
" transform="scale(0.015625)"/>
       <path id="DejaVuSans-73" d="M 2834 3397 
L 2834 2853 
Q 2591 2978 2328 3040 
Q 2066 3103 1784 3103 
Q 1356 3103 1142 2972 
Q 928 2841 928 2578 
Q 928 2378 1081 2264 
Q 1234 2150 1697 2047 
L 1894 2003 
Q 2506 1872 2764 1633 
Q 3022 1394 3022 966 
Q 3022 478 2636 193 
Q 2250 -91 1575 -91 
Q 1294 -91 989 -36 
Q 684 19 347 128 
L 347 722 
Q 666 556 975 473 
Q 1284 391 1588 391 
Q 1994 391 2212 530 
Q 2431 669 2431 922 
Q 2431 1156 2273 1281 
Q 2116 1406 1581 1522 
L 1381 1569 
Q 847 1681 609 1914 
Q 372 2147 372 2553 
Q 372 3047 722 3315 
Q 1072 3584 1716 3584 
Q 2034 3584 2315 3537 
Q 2597 3491 2834 3397 
z
" transform="scale(0.015625)"/>
      </defs>
      <use xlink:href="#DejaVuSans-43"/>
      <use xlink:href="#DejaVuSans-6f" x="69.824219"/>
      <use xlink:href="#DejaVuSans-6d" x="131.005859"/>
      <use xlink:href="#DejaVuSans-6d" x="228.417969"/>
      <use xlink:href="#DejaVuSans-75" x="325.830078"/>
      <use xlink:href="#DejaVuSans-6e" x="389.208984"/>
      <use xlink:href="#DejaVuSans-69" x="452.587891"/>
      <use xlink:href="#DejaVuSans-63" x="480.371094"/>
      <use xlink:href="#DejaVuSans-61" x="535.351562"/>
      <use xlink:href="#DejaVuSans-74" x="596.630859"/>
      <use xlink:href="#DejaVuSans-69" x="635.839844"/>
      <use xlink:href="#DejaVuSans-6f" x="663.623047"/>
      <use xlink:href="#DejaVuSans-6e" x="724.804688"/>
      <use xlink:href="#DejaVuSans-20" x="788.183594"/>
      <use xlink:href="#DejaVuSans-72" x="819.970703"/>
      <use xlink:href="#DejaVuSans-6f" x="858.833984"/>
      <use xlink:href="#DejaVuSans-75" x="920.015625"/>
      <use xlink:href="#DejaVuSans-6e" x="983.394531"/>
      <use xlink:href="#DejaVuSans-64" x="1046.773438"/>
      <use xlink:href="#DejaVuSans-73" x="1110.25"/>
     </g>
    </g>
   </g>
   <g id="matplotlib.axis_2">
    <g id="ytick_1">
     <g id="line2d_17">
      <path d="M 72 356.439719 
L 518.4 356.439719 
" clip-path="url(#p5e325fbe7f)" style="fill: none; stroke: #b0b0b0; stroke-opacity: 0.5; stroke-width: 0.8; stroke-linecap: square"/>
     </g>
     <g id="line2d_18">
      <defs>
       <path id="m2218b736c2" d="M 0 0 
L -3.5 0 
" style="stroke: #000000; stroke-width: 0.8"/>
      </defs>
      <g>
       <use xlink:href="#m2218b736c2" x="72" y="356.439719" style="stroke: #000000; stroke-width: 0.8"/>
      </g>
     </g>
     <g id="text_10">
      <!-- 0.3 -->
      <g transform="translate(49.096875 360.238938) scale(0.1 -0.1)">
       <defs>
        <path id="DejaVuSans-2e" d="M 684 794 
L 1344 794 
L 1344 0 
L 684 0 
L 684 794 
z
" transform="scale(0.015625)"/>
        <path id="DejaVuSans-33" d="M 2597 2516 
Q 3050 2419 3304 2112 
Q 3559 1806 3559 1356 
Q 3559 666 3084 287 
Q 2609 -91 1734 -91 
Q 1441 -91 1130 -33 
Q 819 25 488 141 
L 488 750 
Q 750 597 1062 519 
Q 1375 441 1716 441 
Q 2309 441 2620 675 
Q 2931 909 2931 1356 
Q 2931 1769 2642 2001 
Q 2353 2234 1838 2234 
L 1294 2234 
L 1294 2753 
L 1863 2753 
Q 2328 2753 2575 2939 
Q 2822 3125 2822 3475 
Q 2822 3834 2567 4026 
Q 2313 4219 1838 4219 
Q 1578 4219 1281 4162 
Q 984 4106 628 3988 
L 628 4550 
Q 988 4650 1302 4700 
Q 1616 4750 1894 4750 
Q 2613 4750 3031 4423 
Q 3450 4097 3450 3541 
Q 3450 3153 3228 2886 
Q 3006 2619 2597 2516 
z
" transform="scale(0.015625)"/>
       </defs>
       <use xlink:href="#DejaVuSans-30"/>
       <use xlink:href="#DejaVuSans-2e" x="63.623047"/>
       <use xlink:href="#DejaVuSans-33" x="95.410156"/>
      </g>
     </g>
    </g>
    <g id="ytick_2">
     <g id="line2d_19">
      <path d="M 72 301.923764 
L 518.4 301.923764 
" clip-path="url(#p5e325fbe7f)" style="fill: none; stroke: #b0b0b0; stroke-opacity: 0.5; stroke-width: 0.8; stroke-linecap: square"/>
     </g>
     <g id="line2d_20">
      <g>
       <use xlink:href="#m2218b736c2" x="72" y="301.923764" style="stroke: #000000; stroke-width: 0.8"/>
      </g>
     </g>
     <g id="text_11">
      <!-- 0.4 -->
      <g transform="translate(49.096875 305.722983) scale(0.1 -0.1)">
       <use xlink:href="#DejaVuSans-30"/>
       <use xlink:href="#DejaVuSans-2e" x="63.623047"/>
       <use xlink:href="#DejaVuSans-34" x="95.410156"/>
      </g>
     </g>
    </g>
    <g id="ytick_3">
     <g id="line2d_21">
      <path d="M 72 247.40781 
L 518.4 247.40781 
" clip-path="url(#p5e325fbe7f)" style="fill: none; stroke: #b0b0b0; stroke-opacity: 0.5; stroke-width: 0.8; stroke-linecap: square"/>
     </g>
     <g id="line2d_22">
      <g>
       <use xlink:href="#m2218b736c2" x="72" y="247.40781" style="stroke: #000000; stroke-width: 0.8"/>
      </g>
     </g>
     <g id="text_12">
      <!-- 0.5 -->
      <g transform="translate(49.096875 251.207028) scale(0.1 -0.1)">
       <defs>
        <path id="DejaVuSans-35" d="M 691 4666 
L 3169 4666 
L 3169 4134 
L 1269 4134 
L 1269 2991 
Q 1406 3038 1543 3061 
Q 1681 3084 1819 3084 
Q 2600 3084 3056 2656 
Q 3513 2228 3513 1497 
Q 3513 744 3044 326 
Q 2575 -91 1722 -91 
Q 1428 -91 1123 -41 
Q 819 9 494 109 
L 494 744 
Q 775 591 1075 516 
Q 1375 441 1709 441 
Q 2250 441 2565 725 
Q 2881 1009 2881 1497 
Q 2881 1984 2565 2268 
Q 2250 2553 1709 2553 
Q 1456 2553 1204 2497 
Q 953 2441 691 2322 
L 691 4666 
z
" transform="scale(0.015625)"/>
       </defs>
       <use xlink:href="#DejaVuSans-30"/>
       <use xlink:href="#DejaVuSans-2e" x="63.623047"/>
       <use xlink:href="#DejaVuSans-35" x="95.410156"/>
      </g>
     </g>
    </g>
    <g id="ytick_4">
     <g id="line2d_23">
      <path d="M 72 192.891855 
L 518.4 192.891855 
" clip-path="url(#p5e325fbe7f)" style="fill: none; stroke: #b0b0b0; stroke-opacity: 0.5; stroke-width: 0.8; stroke-linecap: square"/>
     </g>
     <g id="line2d_24">
      <g>
       <use xlink:href="#m2218b736c2" x="72" y="192.891855" style="stroke: #000000; stroke-width: 0.8"/>
      </g>
     </g>
     <g id="text_13">
      <!-- 0.6 -->
      <g transform="translate(49.096875 196.691074) scale(0.1 -0.1)">
       <use xlink:href="#DejaVuSans-30"/>
       <use xlink:href="#DejaVuSans-2e" x="63.623047"/>
       <use xlink:href="#DejaVuSans-36" x="95.410156"/>
      </g>
     </g>
    </g>
    <g id="ytick_5">
     <g id="line2d_25">
      <path d="M 72 138.3759 
L 518.4 138.3759 
" clip-path="url(#p5e325fbe7f)" style="fill: none; stroke: #b0b0b0; stroke-opacity: 0.5; stroke-width: 0.8; stroke-linecap: square"/>
     </g>
     <g id="line2d_26">
      <g>
       <use xlink:href="#m2218b736c2" x="72" y="138.3759" style="stroke: #000000; stroke-width: 0.8"/>
      </g>
     </g>
     <g id="text_14">
      <!-- 0.7 -->
      <g transform="translate(49.096875 142.175119) scale(0.1 -0.1)">
       <defs>
        <path id="DejaVuSans-37" d="M 525 4666 
L 3525 4666 
L 3525 4397 
L 1831 0 
L 1172 0 
L 2766 4134 
L 525 4134 
L 525 4666 
z
" transform="scale(0.015625)"/>
       </defs>
       <use xlink:href="#DejaVuSans-30"/>
       <use xlink:href="#DejaVuSans-2e" x="63.623047"/>
       <use xlink:href="#DejaVuSans-37" x="95.410156"/>
      </g>
     </g>
    </g>
    <g id="ytick_6">
     <g id="line2d_27">
      <path d="M 72 83.859946 
L 518.4 83.859946 
" clip-path="url(#p5e325fbe7f)" style="fill: none; stroke: #b0b0b0; stroke-opacity: 0.5; stroke-width: 0.8; stroke-linecap: square"/>
     </g>
     <g id="line2d_28">
      <g>
       <use xlink:href="#m2218b736c2" x="72" y="83.859946" style="stroke: #000000; stroke-width: 0.8"/>
      </g>
     </g>
     <g id="text_15">
      <!-- 0.8 -->
      <g transform="translate(49.096875 87.659165) scale(0.1 -0.1)">
       <use xlink:href="#DejaVuSans-30"/>
       <use xlink:href="#DejaVuSans-2e" x="63.623047"/>
       <use xlink:href="#DejaVuSans-38" x="95.410156"/>
      </g>
     </g>
    </g>
    <g id="text_16">
     <!-- Accuracy -->
     <g transform="translate(43.017187 240.988125) rotate(-90) scale(0.1 -0.1)">
      <defs>
       <path id="DejaVuSans-41" d="M 2188 4044 
L 1331 1722 
L 3047 1722 
L 2188 4044 
z
M 1831 4666 
L 2547 4666 
L 4325 0 
L 3669 0 
L 3244 1197 
L 1141 1197 
L 716 0 
L 50 0 
L 1831 4666 
z
" transform="scale(0.015625)"/>
       <path id="DejaVuSans-79" d="M 2059 -325 
Q 1816 -950 1584 -1140 
Q 1353 -1331 966 -1331 
L 506 -1331 
L 506 -850 
L 844 -850 
Q 1081 -850 1212 -737 
Q 1344 -625 1503 -206 
L 1606 56 
L 191 3500 
L 800 3500 
L 1894 763 
L 2988 3500 
L 3597 3500 
L 2059 -325 
z
" transform="scale(0.015625)"/>
      </defs>
      <use xlink:href="#DejaVuSans-41"/>
      <use xlink:href="#DejaVuSans-63" x="66.658203"/>
      <use xlink:href="#DejaVuSans-63" x="121.638672"/>
      <use xlink:href="#DejaVuSans-75" x="176.619141"/>
      <use xlink:href="#DejaVuSans-72" x="239.998047"/>
      <use xlink:href="#DejaVuSans-61" x="281.111328"/>
      <use xlink:href="#DejaVuSans-63" x="342.390625"/>
      <use xlink:href="#DejaVuSans-79" x="397.371094"/>
     </g>
    </g>
   </g>
   <g id="line2d_29">
    <path d="M 92.290909 306.230525 
L 94.996364 323.730146 
L 97.701818 229.035933 
L 100.407273 243.101049 
L 103.112727 233.342693 
L 105.818182 186.022845 
L 108.523636 256.621006 
L 111.229091 239.339448 
L 113.934545 173.974819 
L 116.64 201.505376 
L 119.345455 179.698994 
L 122.050909 181.443505 
L 124.756364 134.941395 
L 127.461818 176.809648 
L 130.167273 130.907215 
L 132.872727 185.695749 
L 135.578182 166.179037 
L 138.283636 137.503645 
L 140.989091 163.344208 
L 143.694545 135.213975 
L 146.4 146.117166 
L 149.105455 159.637123 
L 151.810909 128.94464 
L 154.516364 122.021114 
L 157.221818 140.665571 
L 159.927273 151.241666 
L 162.632727 130.362055 
L 165.338182 163.889367 
L 168.043636 110.845343 
L 170.749091 149.551671 
L 173.454545 145.572006 
L 178.865455 115.751779 
L 181.570909 106.211487 
L 184.276364 119.404348 
L 186.981818 105.066652 
L 189.687273 122.893369 
L 192.392727 96.180552 
L 195.098182 116.024359 
L 197.803636 113.680173 
L 200.509091 145.572006 
L 203.214545 127.20013 
L 205.92 93.345722 
L 208.625455 112.262758 
L 211.330909 97.052807 
L 214.036364 110.790827 
L 216.741818 105.339232 
L 219.447273 87.348967 
L 222.152727 104.521493 
L 224.858182 113.952753 
L 227.563636 109.427929 
L 230.269091 107.955998 
L 232.974545 91.873791 
L 235.68 86.749292 
L 238.385455 91.601211 
L 241.090909 92.800562 
L 243.796364 97.325387 
L 246.501818 93.945398 
L 249.207273 89.038962 
L 251.912727 85.004781 
L 254.618182 93.291206 
L 257.323636 89.311541 
L 260.029091 93.018626 
L 262.734545 83.859946 
L 265.44 83.587366 
L 268.145455 93.018626 
L 270.850909 101.686663 
L 273.556364 80.425441 
L 276.261818 81.51576 
L 278.967273 103.976333 
L 281.672727 94.490557 
L 284.378182 90.183797 
L 287.083636 93.618302 
L 289.789091 79.825765 
L 292.494545 85.604456 
L 295.2 80.698021 
L 297.905455 86.422196 
L 300.610909 78.135771 
L 303.316364 109.427929 
L 306.021818 82.115435 
L 308.727273 81.570276 
L 311.432727 106.211487 
L 314.138182 95.907972 
L 316.843636 81.570276 
L 319.549091 89.038962 
L 322.254545 88.439286 
L 324.96 89.584121 
L 327.665455 80.752537 
L 330.370909 74.64675 
L 333.076364 81.51576 
L 335.781818 80.098345 
L 338.487273 87.839611 
L 341.192727 98.742802 
L 343.898182 79.553186 
L 346.603636 79.825765 
L 349.309091 84.732201 
L 352.014545 85.277361 
L 354.72 100.487312 
L 357.425455 82.715111 
L 360.130909 86.967355 
L 362.836364 83.042207 
L 365.541818 83.859946 
L 368.247273 127.745289 
L 370.952727 80.370925 
L 373.658182 86.694776 
L 376.363636 89.638637 
L 379.069091 87.021871 
L 381.774545 85.004781 
L 384.48 86.422196 
L 387.185455 79.22609 
L 389.890909 85.877036 
L 392.596364 88.984446 
L 395.301818 87.021871 
L 398.007273 86.749292 
L 400.712727 85.549941 
L 403.418182 82.388015 
L 406.123636 89.856701 
L 408.829091 85.549941 
L 411.534545 85.059297 
L 414.24 75.846101 
L 416.945455 86.149616 
L 419.650909 88.984446 
L 422.356364 88.493802 
L 425.061818 90.183797 
L 427.767273 83.587366 
L 430.472727 86.149616 
L 433.178182 98.742802 
L 435.883636 96.235068 
L 438.589091 85.277361 
L 441.294545 83.859946 
L 444 85.004781 
L 446.705455 82.115435 
L 449.410909 84.732201 
L 452.116364 81.570276 
L 454.821818 89.311541 
L 457.527273 89.311541 
L 460.232727 83.859946 
L 462.938182 82.115435 
L 468.349091 79.825765 
L 471.054545 83.859946 
L 473.76 84.732201 
L 476.465455 79.280606 
L 479.170909 82.715111 
L 484.581818 85.059297 
L 487.287273 80.370925 
L 489.992727 85.877036 
L 492.698182 82.115435 
L 495.403636 86.149616 
L 498.109091 96.453131 
L 498.109091 96.453131 
" clip-path="url(#p5e325fbe7f)" style="fill: none; stroke: #1f77b4; stroke-width: 1.5; stroke-linecap: square"/>
   </g>
   <g id="line2d_30">
    <path d="M 92.290909 369.36 
L 94.996364 330.599156 
L 97.701818 258.311001 
L 100.407273 209.246641 
L 103.112727 228.436257 
L 105.818182 221.894343 
L 108.523636 225.001752 
L 111.229091 169.068383 
L 113.934545 177.082228 
L 116.64 198.070871 
L 119.345455 175.392234 
L 122.050909 146.117166 
L 124.756364 172.502888 
L 127.461818 130.034959 
L 130.167273 163.071628 
L 132.872727 155.602942 
L 135.578182 125.128524 
L 138.283636 182.533824 
L 140.989091 142.137501 
L 143.694545 120.603699 
L 146.4 114.279849 
L 149.105455 138.048805 
L 151.810909 105.938908 
L 154.516364 143.554916 
L 157.221818 132.924305 
L 159.927273 132.651725 
L 165.338182 121.748534 
L 168.043636 119.404348 
L 170.749091 104.248913 
L 173.454545 113.407593 
L 176.16 117.714354 
L 178.865455 118.859189 
L 181.570909 196.653456 
L 184.276364 100.487312 
L 186.981818 119.186284 
L 189.687273 99.887637 
L 192.392727 99.942153 
L 195.098182 125.455619 
L 197.803636 132.379145 
L 200.509091 116.242423 
L 203.214545 103.376658 
L 205.92 111.117923 
L 208.625455 109.645992 
L 211.330909 108.501157 
L 214.036364 102.504402 
L 216.741818 176.264489 
L 219.447273 108.228578 
L 222.152727 157.020357 
L 224.858182 149.824251 
L 227.563636 129.4898 
L 230.269091 103.976333 
L 232.974545 127.47271 
L 235.68 110.245668 
L 238.385455 101.359567 
L 241.090909 109.645992 
L 243.796364 90.183797 
L 246.501818 109.973088 
L 249.207273 98.470222 
L 251.912727 78.95351 
L 254.618182 91.873791 
L 257.323636 110.790827 
L 260.029091 105.393748 
L 262.734545 85.877036 
L 265.44 72.956755 
L 268.145455 110.245668 
L 270.850909 75.791585 
L 273.556364 75.246425 
L 276.261818 101.904727 
L 278.967273 103.376658 
L 281.672727 110.790827 
L 284.378182 101.086988 
L 287.083636 103.376658 
L 289.789091 79.280606 
L 292.494545 69.52225 
L 295.2 76.11868 
L 297.905455 74.973845 
L 300.610909 108.828253 
L 303.316364 103.376658 
L 306.021818 73.82901 
L 308.727273 97.597966 
L 311.432727 111.663083 
L 314.138182 85.277361 
L 316.843636 79.825765 
L 319.549091 71.212244 
L 322.254545 78.135771 
L 324.96 93.618302 
L 327.665455 114.225333 
L 330.370909 86.694776 
L 333.076364 100.759892 
L 335.781818 129.21722 
L 338.487273 104.248913 
L 341.192727 80.370925 
L 343.898182 75.791585 
L 346.603636 72.684175 
L 349.309091 80.9706 
L 352.014545 74.37417 
L 354.72 78.95351 
L 357.425455 109.155349 
L 360.130909 77.536095 
L 362.836364 73.229335 
L 365.541818 112.807918 
L 368.247273 77.536095 
L 370.952727 150.151347 
L 373.658182 77.536095 
L 376.363636 76.445776 
L 379.069091 75.519005 
L 381.774545 95.308296 
L 384.48 83.26027 
L 387.185455 77.263515 
L 389.890909 93.018626 
L 392.596364 102.504402 
L 395.301818 80.098345 
L 398.007273 108.828253 
L 400.712727 76.39126 
L 403.418182 74.701266 
L 406.123636 89.856701 
L 408.829091 74.37417 
L 411.534545 76.39126 
L 414.24 97.379903 
L 416.945455 80.9706 
L 419.650909 84.677685 
L 422.356364 75.246425 
L 425.061818 72.629659 
L 427.767273 76.064164 
L 430.472727 121.475955 
L 433.178182 69.52225 
L 435.883636 73.501915 
L 438.589091 134.06914 
L 441.294545 76.990936 
L 444 102.231823 
L 446.705455 75.300941 
L 449.410909 75.519005 
L 452.116364 72.0845 
L 454.821818 71.81192 
L 457.527273 74.37417 
L 460.232727 77.590611 
L 462.938182 72.684175 
L 465.643636 79.22609 
L 468.349091 75.519005 
L 471.054545 82.115435 
L 473.76 84.132526 
L 476.465455 80.098345 
L 479.170909 70.939665 
L 481.876364 75.300941 
L 484.581818 74.10159 
L 487.287273 75.791585 
L 489.992727 75.246425 
L 492.698182 77.263515 
L 498.109091 80.152861 
L 498.109091 80.152861 
" clip-path="url(#p5e325fbe7f)" style="fill: none; stroke: #ff7f0e; stroke-width: 1.5; stroke-linecap: square"/>
   </g>
   <g id="line2d_31">
    <path d="M 92.290909 296.799264 
L 94.996364 322.040151 
L 97.701818 275.865138 
L 100.407273 312.554375 
L 103.112727 216.115652 
L 105.818182 215.843072 
L 108.523636 301.324089 
L 111.229091 167.650968 
L 113.934545 220.694992 
L 116.64 202.323115 
L 119.345455 206.139232 
L 122.050909 200.087961 
L 124.756364 143.554916 
L 127.461818 227.018843 
L 130.167273 178.826739 
L 132.872727 168.250644 
L 135.578182 159.909703 
L 138.283636 149.279091 
L 140.989091 165.633878 
L 143.694545 154.185527 
L 146.4 124.310784 
L 149.105455 139.248156 
L 151.810909 129.435284 
L 154.516364 113.952753 
L 157.221818 159.582607 
L 159.927273 135.541071 
L 162.632727 136.958486 
L 165.338182 120.876279 
L 168.043636 107.955998 
L 170.749091 128.890124 
L 173.454545 103.649237 
L 176.16 103.049562 
L 178.865455 129.21722 
L 181.570909 125.782715 
L 184.276364 145.79007 
L 186.981818 123.165949 
L 189.687273 155.003267 
L 192.392727 121.694018 
L 195.098182 134.941395 
L 197.803636 105.666328 
L 200.509091 128.072385 
L 203.214545 101.086988 
L 205.92 106.811163 
L 208.625455 114.279849 
L 211.330909 147.861677 
L 214.036364 111.117923 
L 216.741818 93.618302 
L 219.447273 120.05854 
L 222.152727 108.828253 
L 224.858182 121.148859 
L 227.563636 147.262001 
L 230.269091 103.976333 
L 232.974545 137.558161 
L 235.68 136.35881 
L 238.385455 122.893369 
L 241.090909 119.731444 
L 243.796364 105.066652 
L 246.501818 130.634635 
L 249.207273 119.131769 
L 251.912727 128.672061 
L 254.618182 107.683418 
L 257.323636 139.248156 
L 260.029091 91.655727 
L 262.734545 129.4898 
L 265.44 87.348967 
L 268.145455 155.003267 
L 270.850909 152.441017 
L 273.556364 91.328632 
L 276.261818 97.652482 
L 278.967273 92.473467 
L 281.672727 116.024359 
L 284.378182 91.873791 
L 287.083636 126.92755 
L 289.789091 103.649237 
L 292.494545 149.279091 
L 295.2 116.569519 
L 297.905455 89.584121 
L 300.610909 85.004781 
L 303.316364 89.311541 
L 306.021818 92.746047 
L 308.727273 134.34172 
L 311.432727 86.149616 
L 314.138182 99.342477 
L 316.843636 97.925062 
L 319.549091 89.638637 
L 322.254545 146.117166 
L 324.96 138.3759 
L 327.665455 82.388015 
L 330.370909 89.584121 
L 333.076364 91.056052 
L 335.781818 95.635392 
L 338.487273 78.95351 
L 341.192727 84.405105 
L 343.898182 107.356322 
L 346.603636 80.098345 
L 349.309091 82.987691 
L 352.014545 82.987691 
L 354.72 83.26027 
L 357.425455 144.427171 
L 360.130909 71.212244 
L 362.836364 91.873791 
L 365.541818 105.993423 
L 368.247273 100.214732 
L 370.952727 91.873791 
L 373.658182 80.152861 
L 376.363636 81.24318 
L 379.069091 90.728956 
L 381.774545 77.536095 
L 384.48 76.66384 
L 387.185455 90.728956 
L 389.890909 73.82901 
L 392.596364 75.846101 
L 395.301818 80.9706 
L 398.007273 87.894127 
L 400.712727 132.597209 
L 403.418182 76.11868 
L 406.123636 106.811163 
L 408.829091 81.24318 
L 411.534545 96.453131 
L 414.24 77.536095 
L 416.945455 104.194397 
L 419.650909 77.590611 
L 422.356364 79.553186 
L 425.061818 76.990936 
L 427.767273 88.711866 
L 430.472727 78.95351 
L 433.178182 134.06914 
L 435.883636 72.629659 
L 438.589091 73.82901 
L 441.294545 70.667085 
L 444 87.021871 
L 446.705455 74.10159 
L 449.410909 73.774494 
L 452.116364 85.277361 
L 454.821818 80.370925 
L 457.527273 82.715111 
L 460.232727 87.567031 
L 462.938182 72.956755 
L 465.643636 118.859189 
L 468.349091 73.229335 
L 471.054545 87.294451 
L 473.76 77.536095 
L 476.465455 75.246425 
L 479.170909 73.82901 
L 481.876364 72.684175 
L 484.581818 82.442531 
L 487.287273 89.311541 
L 489.992727 72.684175 
L 492.698182 71.53934 
L 495.403636 75.246425 
L 498.109091 130.089475 
L 498.109091 130.089475 
" clip-path="url(#p5e325fbe7f)" style="fill: none; stroke: #2ca02c; stroke-width: 1.5; stroke-linecap: square"/>
   </g>
   <g id="line2d_32">
    <path d="M 92.290909 334.360757 
L 94.996364 213.553402 
L 97.701818 294.455078 
L 100.407273 275.265462 
L 103.112727 282.679632 
L 105.818182 257.166165 
L 108.523636 272.921276 
L 111.229091 206.684392 
L 113.934545 309.39245 
L 116.64 281.861893 
L 119.345455 210.991152 
L 122.050909 175.991909 
L 124.756364 142.682661 
L 127.461818 134.668816 
L 130.167273 226.146587 
L 132.872727 174.792558 
L 135.578182 140.992666 
L 138.283636 173.702239 
L 140.989091 155.057783 
L 143.694545 146.117166 
L 146.4 186.295425 
L 149.105455 175.991909 
L 151.810909 168.795803 
L 154.516364 151.841341 
L 157.221818 116.896614 
L 159.927273 123.493045 
L 162.632727 135.213975 
L 165.338182 130.634635 
L 168.043636 121.148859 
L 170.749091 115.424684 
L 173.454545 118.859189 
L 176.16 101.359567 
L 178.865455 92.473467 
L 181.570909 116.296939 
L 184.276364 120.33112 
L 186.981818 161.054538 
L 189.687273 98.470222 
L 192.392727 118.586609 
L 195.098182 126.055295 
L 197.803636 111.445019 
L 200.509091 122.293694 
L 203.214545 99.615057 
L 205.92 100.541828 
L 208.625455 136.685906 
L 211.330909 126.600454 
L 214.036364 107.410838 
L 216.741818 132.597209 
L 219.447273 127.799805 
L 222.152727 128.344965 
L 224.858182 118.041449 
L 227.563636 115.697263 
L 230.269091 101.686663 
L 232.974545 126.327875 
L 235.68 111.990178 
L 238.385455 102.231823 
L 241.090909 115.751779 
L 243.796364 110.572764 
L 246.501818 85.277361 
L 249.207273 127.145614 
L 251.912727 140.120411 
L 254.618182 94.163461 
L 257.323636 103.376658 
L 260.029091 91.001536 
L 262.734545 125.183039 
L 265.44 194.908945 
L 268.145455 105.938908 
L 270.850909 120.05854 
L 273.556364 101.359567 
L 276.261818 154.730687 
L 278.967273 137.231065 
L 284.378182 123.765625 
L 287.083636 103.049562 
L 289.789091 118.859189 
L 292.494545 157.892612 
L 295.2 163.616787 
L 297.905455 128.617545 
L 300.610909 123.983688 
L 303.316364 144.100076 
L 306.021818 137.503645 
L 308.727273 115.424684 
L 311.432727 124.855944 
L 314.138182 89.038962 
L 316.843636 132.106566 
L 319.549091 148.679416 
L 322.254545 116.569519 
L 324.96 113.952753 
L 327.665455 106.811163 
L 330.370909 97.597966 
L 333.076364 119.131769 
L 335.781818 137.830741 
L 338.487273 161.327117 
L 341.192727 111.445019 
L 343.898182 133.523981 
L 346.603636 119.186284 
L 349.309091 161.054538 
L 352.014545 93.890882 
L 354.72 91.001536 
L 357.425455 87.294451 
L 360.130909 91.001536 
L 362.836364 92.746047 
L 365.541818 114.007269 
L 368.247273 130.580119 
L 370.952727 141.537826 
L 373.658182 157.620032 
L 376.363636 77.808675 
L 379.069091 151.296182 
L 381.774545 157.620032 
L 384.48 76.39126 
L 387.185455 91.873791 
L 389.890909 141.265246 
L 392.596364 74.973845 
L 395.301818 95.308296 
L 398.007273 66.96 
L 400.712727 94.163461 
L 403.418182 171.085473 
L 406.123636 92.146371 
L 408.829091 73.82901 
L 411.534545 74.973845 
L 414.24 85.549941 
L 416.945455 108.228578 
L 419.650909 133.79656 
L 422.356364 88.711866 
L 425.061818 74.10159 
L 427.767273 96.780227 
L 430.472727 68.922574 
L 433.178182 70.394505 
L 435.883636 70.067409 
L 438.589091 79.22609 
L 441.294545 70.067409 
L 444 83.26027 
L 446.705455 87.021871 
L 449.410909 87.294451 
L 452.116364 88.166706 
L 454.821818 92.473467 
L 457.527273 111.663083 
L 460.232727 74.973845 
L 462.938182 109.645992 
L 465.643636 133.196885 
L 468.349091 77.263515 
L 471.054545 70.394505 
L 473.76 121.694018 
L 476.465455 135.813651 
L 479.170909 93.890882 
L 481.876364 82.115435 
L 484.581818 67.178064 
L 487.287273 87.567031 
L 489.992727 77.536095 
L 492.698182 76.990936 
L 495.403636 76.990936 
L 498.109091 101.632147 
L 498.109091 101.632147 
" clip-path="url(#p5e325fbe7f)" style="fill: none; stroke: #d62728; stroke-width: 1.5; stroke-linecap: square"/>
   </g>
   <g id="patch_3">
    <path d="M 72 384.48 
L 72 51.84 
" style="fill: none; stroke: #000000; stroke-width: 0.8; stroke-linejoin: miter; stroke-linecap: square"/>
   </g>
   <g id="patch_4">
    <path d="M 518.4 384.48 
L 518.4 51.84 
" style="fill: none; stroke: #000000; stroke-width: 0.8; stroke-linejoin: miter; stroke-linecap: square"/>
   </g>
   <g id="patch_5">
    <path d="M 72 384.48 
L 518.4 384.48 
" style="fill: none; stroke: #000000; stroke-width: 0.8; stroke-linejoin: miter; stroke-linecap: square"/>
   </g>
   <g id="patch_6">
    <path d="M 72 51.84 
L 518.4 51.84 
" style="fill: none; stroke: #000000; stroke-width: 0.8; stroke-linejoin: miter; stroke-linecap: square"/>
   </g>
   <g id="text_17">
    <!-- Basic-Common -->
    <g transform="translate(250.126875 45.84) scale(0.12 -0.12)">
     <defs>
      <path id="DejaVuSans-42" d="M 1259 2228 
L 1259 519 
L 2272 519 
Q 2781 519 3026 730 
Q 3272 941 3272 1375 
Q 3272 1813 3026 2020 
Q 2781 2228 2272 2228 
L 1259 2228 
z
M 1259 4147 
L 1259 2741 
L 2194 2741 
Q 2656 2741 2882 2914 
Q 3109 3088 3109 3444 
Q 3109 3797 2882 3972 
Q 2656 4147 2194 4147 
L 1259 4147 
z
M 628 4666 
L 2241 4666 
Q 2963 4666 3353 4366 
Q 3744 4066 3744 3513 
Q 3744 3084 3544 2831 
Q 3344 2578 2956 2516 
Q 3422 2416 3680 2098 
Q 3938 1781 3938 1306 
Q 3938 681 3513 340 
Q 3088 0 2303 0 
L 628 0 
L 628 4666 
z
" transform="scale(0.015625)"/>
      <path id="DejaVuSans-2d" d="M 313 2009 
L 1997 2009 
L 1997 1497 
L 313 1497 
L 313 2009 
z
" transform="scale(0.015625)"/>
     </defs>
     <use xlink:href="#DejaVuSans-42"/>
     <use xlink:href="#DejaVuSans-61" x="68.603516"/>
     <use xlink:href="#DejaVuSans-73" x="129.882812"/>
     <use xlink:href="#DejaVuSans-69" x="181.982422"/>
     <use xlink:href="#DejaVuSans-63" x="209.765625"/>
     <use xlink:href="#DejaVuSans-2d" x="264.746094"/>
     <use xlink:href="#DejaVuSans-43" x="300.830078"/>
     <use xlink:href="#DejaVuSans-6f" x="370.654297"/>
     <use xlink:href="#DejaVuSans-6d" x="431.835938"/>
     <use xlink:href="#DejaVuSans-6d" x="529.248047"/>
     <use xlink:href="#DejaVuSans-6f" x="626.660156"/>
     <use xlink:href="#DejaVuSans-6e" x="687.841797"/>
    </g>
   </g>
   <g id="legend_1">
    <g id="patch_7">
     <path d="M 79 118.5525 
L 124.203125 118.5525 
Q 126.203125 118.5525 126.203125 116.5525 
L 126.203125 58.84 
Q 126.203125 56.84 124.203125 56.84 
L 79 56.84 
Q 77 56.84 77 58.84 
L 77 116.5525 
Q 77 118.5525 79 118.5525 
z
" style="fill: #ffffff; opacity: 0.8; stroke: #cccccc; stroke-linejoin: miter"/>
    </g>
    <g id="line2d_33">
     <path d="M 81 64.938438 
L 91 64.938438 
L 101 64.938438 
" style="fill: none; stroke: #1f77b4; stroke-width: 1.5; stroke-linecap: square"/>
    </g>
    <g id="text_18">
     <!-- V1 -->
     <g transform="translate(109 68.438438) scale(0.1 -0.1)">
      <defs>
       <path id="DejaVuSans-56" d="M 1831 0 
L 50 4666 
L 709 4666 
L 2188 738 
L 3669 4666 
L 4325 4666 
L 2547 0 
L 1831 0 
z
" transform="scale(0.015625)"/>
      </defs>
      <use xlink:href="#DejaVuSans-56"/>
      <use xlink:href="#DejaVuSans-31" x="68.408203"/>
     </g>
    </g>
    <g id="line2d_34">
     <path d="M 81 79.616563 
L 91 79.616563 
L 101 79.616563 
" style="fill: none; stroke: #ff7f0e; stroke-width: 1.5; stroke-linecap: square"/>
    </g>
    <g id="text_19">
     <!-- V2 -->
     <g transform="translate(109 83.116563) scale(0.1 -0.1)">
      <use xlink:href="#DejaVuSans-56"/>
      <use xlink:href="#DejaVuSans-32" x="68.408203"/>
     </g>
    </g>
    <g id="line2d_35">
     <path d="M 81 94.294688 
L 91 94.294688 
L 101 94.294688 
" style="fill: none; stroke: #2ca02c; stroke-width: 1.5; stroke-linecap: square"/>
    </g>
    <g id="text_20">
     <!-- V3 -->
     <g transform="translate(109 97.794688) scale(0.1 -0.1)">
      <use xlink:href="#DejaVuSans-56"/>
      <use xlink:href="#DejaVuSans-33" x="68.408203"/>
     </g>
    </g>
    <g id="line2d_36">
     <path d="M 81 108.972813 
L 91 108.972813 
L 101 108.972813 
" style="fill: none; stroke: #d62728; stroke-width: 1.5; stroke-linecap: square"/>
    </g>
    <g id="text_21">
     <!-- V4 -->
     <g transform="translate(109 112.472813) scale(0.1 -0.1)">
      <use xlink:href="#DejaVuSans-56"/>
      <use xlink:href="#DejaVuSans-34" x="68.408203"/>
     </g>
    </g>
   </g>
  </g>
 </g>
 <defs>
  <clipPath id="p5e325fbe7f">
   <rect x="72" y="51.84" width="446.4" height="332.64"/>
  </clipPath>
 </defs>
</svg>
