<?xml version="1.0" encoding="utf-8" standalone="no"?>
<!DOCTYPE svg PUBLIC "-//W3C//DTD SVG 1.1//EN"
  "http://www.w3.org/Graphics/SVG/1.1/DTD/svg11.dtd">
<svg xmlns:xlink="http://www.w3.org/1999/xlink" width="576pt" height="432pt" viewBox="0 0 576 432" xmlns="http://www.w3.org/2000/svg" version="1.1">
 <metadata>
  <rdf:RDF xmlns:dc="http://purl.org/dc/elements/1.1/" xmlns:cc="http://creativecommons.org/ns#" xmlns:rdf="http://www.w3.org/1999/02/22-rdf-syntax-ns#">
   <cc:Work>
    <dc:type rdf:resource="http://purl.org/dc/dcmitype/StillImage"/>
    <dc:date>2023-08-08T05:48:53.430990</dc:date>
    <dc:format>image/svg+xml</dc:format>
    <dc:creator>
     <cc:Agent>
      <dc:title>Matplotlib v3.5.2, https://matplotlib.org/</dc:title>
     </cc:Agent>
    </dc:creator>
   </cc:Work>
  </rdf:RDF>
 </metadata>
 <defs>
  <style type="text/css">*{stroke-linejoin: round; stroke-linecap: butt}</style>
 </defs>
 <g id="figure_1">
  <g id="patch_1">
   <path d="M 0 432 
L 576 432 
L 576 0 
L 0 0 
z
" style="fill: #ffffff"/>
  </g>
  <g id="axes_1">
   <g id="patch_2">
    <path d="M 72 384.48 
L 518.4 384.48 
L 518.4 51.84 
L 72 51.84 
z
" style="fill: #ffffff"/>
   </g>
   <g id="matplotlib.axis_1">
    <g id="xtick_1">
     <g id="line2d_1">
      <path d="M 92.290909 384.48 
L 92.290909 51.84 
" clip-path="url(#p523ababd12)" style="fill: none; stroke: #b0b0b0; stroke-opacity: 0.5; stroke-width: 0.8; stroke-linecap: square"/>
     </g>
     <g id="line2d_2">
      <defs>
       <path id="m4491f23195" d="M 0 0 
L 0 3.5 
" style="stroke: #000000; stroke-width: 0.8"/>
      </defs>
      <g>
       <use xlink:href="#m4491f23195" x="92.290909" y="384.48" style="stroke: #000000; stroke-width: 0.8"/>
      </g>
     </g>
     <g id="text_1">
      <!-- 0 -->
      <g transform="translate(89.109659 399.078438)scale(0.1 -0.1)">
       <defs>
        <path id="DejaVuSans-30" d="M 2034 4250 
Q 1547 4250 1301 3770 
Q 1056 3291 1056 2328 
Q 1056 1369 1301 889 
Q 1547 409 2034 409 
Q 2525 409 2770 889 
Q 3016 1369 3016 2328 
Q 3016 3291 2770 3770 
Q 2525 4250 2034 4250 
z
M 2034 4750 
Q 2819 4750 3233 4129 
Q 3647 3509 3647 2328 
Q 3647 1150 3233 529 
Q 2819 -91 2034 -91 
Q 1250 -91 836 529 
Q 422 1150 422 2328 
Q 422 3509 836 4129 
Q 1250 4750 2034 4750 
z
" transform="scale(0.015625)"/>
       </defs>
       <use xlink:href="#DejaVuSans-30"/>
      </g>
     </g>
    </g>
    <g id="xtick_2">
     <g id="line2d_3">
      <path d="M 173.454545 384.48 
L 173.454545 51.84 
" clip-path="url(#p523ababd12)" style="fill: none; stroke: #b0b0b0; stroke-opacity: 0.5; stroke-width: 0.8; stroke-linecap: square"/>
     </g>
     <g id="line2d_4">
      <g>
       <use xlink:href="#m4491f23195" x="173.454545" y="384.48" style="stroke: #000000; stroke-width: 0.8"/>
      </g>
     </g>
     <g id="text_2">
      <!-- 50 -->
      <g transform="translate(167.092045 399.078438)scale(0.1 -0.1)">
       <defs>
        <path id="DejaVuSans-35" d="M 691 4666 
L 3169 4666 
L 3169 4134 
L 1269 4134 
L 1269 2991 
Q 1406 3038 1543 3061 
Q 1681 3084 1819 3084 
Q 2600 3084 3056 2656 
Q 3513 2228 3513 1497 
Q 3513 744 3044 326 
Q 2575 -91 1722 -91 
Q 1428 -91 1123 -41 
Q 819 9 494 109 
L 494 744 
Q 775 591 1075 516 
Q 1375 441 1709 441 
Q 2250 441 2565 725 
Q 2881 1009 2881 1497 
Q 2881 1984 2565 2268 
Q 2250 2553 1709 2553 
Q 1456 2553 1204 2497 
Q 953 2441 691 2322 
L 691 4666 
z
" transform="scale(0.015625)"/>
       </defs>
       <use xlink:href="#DejaVuSans-35"/>
       <use xlink:href="#DejaVuSans-30" x="63.623047"/>
      </g>
     </g>
    </g>
    <g id="xtick_3">
     <g id="line2d_5">
      <path d="M 254.618182 384.48 
L 254.618182 51.84 
" clip-path="url(#p523ababd12)" style="fill: none; stroke: #b0b0b0; stroke-opacity: 0.5; stroke-width: 0.8; stroke-linecap: square"/>
     </g>
     <g id="line2d_6">
      <g>
       <use xlink:href="#m4491f23195" x="254.618182" y="384.48" style="stroke: #000000; stroke-width: 0.8"/>
      </g>
     </g>
     <g id="text_3">
      <!-- 100 -->
      <g transform="translate(245.074432 399.078438)scale(0.1 -0.1)">
       <defs>
        <path id="DejaVuSans-31" d="M 794 531 
L 1825 531 
L 1825 4091 
L 703 3866 
L 703 4441 
L 1819 4666 
L 2450 4666 
L 2450 531 
L 3481 531 
L 3481 0 
L 794 0 
L 794 531 
z
" transform="scale(0.015625)"/>
       </defs>
       <use xlink:href="#DejaVuSans-31"/>
       <use xlink:href="#DejaVuSans-30" x="63.623047"/>
       <use xlink:href="#DejaVuSans-30" x="127.246094"/>
      </g>
     </g>
    </g>
    <g id="xtick_4">
     <g id="line2d_7">
      <path d="M 335.781818 384.48 
L 335.781818 51.84 
" clip-path="url(#p523ababd12)" style="fill: none; stroke: #b0b0b0; stroke-opacity: 0.5; stroke-width: 0.8; stroke-linecap: square"/>
     </g>
     <g id="line2d_8">
      <g>
       <use xlink:href="#m4491f23195" x="335.781818" y="384.48" style="stroke: #000000; stroke-width: 0.8"/>
      </g>
     </g>
     <g id="text_4">
      <!-- 150 -->
      <g transform="translate(326.238068 399.078438)scale(0.1 -0.1)">
       <use xlink:href="#DejaVuSans-31"/>
       <use xlink:href="#DejaVuSans-35" x="63.623047"/>
       <use xlink:href="#DejaVuSans-30" x="127.246094"/>
      </g>
     </g>
    </g>
    <g id="xtick_5">
     <g id="line2d_9">
      <path d="M 416.945455 384.48 
L 416.945455 51.84 
" clip-path="url(#p523ababd12)" style="fill: none; stroke: #b0b0b0; stroke-opacity: 0.5; stroke-width: 0.8; stroke-linecap: square"/>
     </g>
     <g id="line2d_10">
      <g>
       <use xlink:href="#m4491f23195" x="416.945455" y="384.48" style="stroke: #000000; stroke-width: 0.8"/>
      </g>
     </g>
     <g id="text_5">
      <!-- 200 -->
      <g transform="translate(407.401705 399.078438)scale(0.1 -0.1)">
       <defs>
        <path id="DejaVuSans-32" d="M 1228 531 
L 3431 531 
L 3431 0 
L 469 0 
L 469 531 
Q 828 903 1448 1529 
Q 2069 2156 2228 2338 
Q 2531 2678 2651 2914 
Q 2772 3150 2772 3378 
Q 2772 3750 2511 3984 
Q 2250 4219 1831 4219 
Q 1534 4219 1204 4116 
Q 875 4013 500 3803 
L 500 4441 
Q 881 4594 1212 4672 
Q 1544 4750 1819 4750 
Q 2544 4750 2975 4387 
Q 3406 4025 3406 3419 
Q 3406 3131 3298 2873 
Q 3191 2616 2906 2266 
Q 2828 2175 2409 1742 
Q 1991 1309 1228 531 
z
" transform="scale(0.015625)"/>
       </defs>
       <use xlink:href="#DejaVuSans-32"/>
       <use xlink:href="#DejaVuSans-30" x="63.623047"/>
       <use xlink:href="#DejaVuSans-30" x="127.246094"/>
      </g>
     </g>
    </g>
    <g id="xtick_6">
     <g id="line2d_11">
      <path d="M 498.109091 384.48 
L 498.109091 51.84 
" clip-path="url(#p523ababd12)" style="fill: none; stroke: #b0b0b0; stroke-opacity: 0.5; stroke-width: 0.8; stroke-linecap: square"/>
     </g>
     <g id="line2d_12">
      <g>
       <use xlink:href="#m4491f23195" x="498.109091" y="384.48" style="stroke: #000000; stroke-width: 0.8"/>
      </g>
     </g>
     <g id="text_6">
      <!-- 250 -->
      <g transform="translate(488.565341 399.078438)scale(0.1 -0.1)">
       <use xlink:href="#DejaVuSans-32"/>
       <use xlink:href="#DejaVuSans-35" x="63.623047"/>
       <use xlink:href="#DejaVuSans-30" x="127.246094"/>
      </g>
     </g>
    </g>
    <g id="text_7">
     <!-- Communication rounds -->
     <g transform="translate(237.083594 412.756563)scale(0.1 -0.1)">
      <defs>
       <path id="DejaVuSans-43" d="M 4122 4306 
L 4122 3641 
Q 3803 3938 3442 4084 
Q 3081 4231 2675 4231 
Q 1875 4231 1450 3742 
Q 1025 3253 1025 2328 
Q 1025 1406 1450 917 
Q 1875 428 2675 428 
Q 3081 428 3442 575 
Q 3803 722 4122 1019 
L 4122 359 
Q 3791 134 3420 21 
Q 3050 -91 2638 -91 
Q 1578 -91 968 557 
Q 359 1206 359 2328 
Q 359 3453 968 4101 
Q 1578 4750 2638 4750 
Q 3056 4750 3426 4639 
Q 3797 4528 4122 4306 
z
" transform="scale(0.015625)"/>
       <path id="DejaVuSans-6f" d="M 1959 3097 
Q 1497 3097 1228 2736 
Q 959 2375 959 1747 
Q 959 1119 1226 758 
Q 1494 397 1959 397 
Q 2419 397 2687 759 
Q 2956 1122 2956 1747 
Q 2956 2369 2687 2733 
Q 2419 3097 1959 3097 
z
M 1959 3584 
Q 2709 3584 3137 3096 
Q 3566 2609 3566 1747 
Q 3566 888 3137 398 
Q 2709 -91 1959 -91 
Q 1206 -91 779 398 
Q 353 888 353 1747 
Q 353 2609 779 3096 
Q 1206 3584 1959 3584 
z
" transform="scale(0.015625)"/>
       <path id="DejaVuSans-6d" d="M 3328 2828 
Q 3544 3216 3844 3400 
Q 4144 3584 4550 3584 
Q 5097 3584 5394 3201 
Q 5691 2819 5691 2113 
L 5691 0 
L 5113 0 
L 5113 2094 
Q 5113 2597 4934 2840 
Q 4756 3084 4391 3084 
Q 3944 3084 3684 2787 
Q 3425 2491 3425 1978 
L 3425 0 
L 2847 0 
L 2847 2094 
Q 2847 2600 2669 2842 
Q 2491 3084 2119 3084 
Q 1678 3084 1418 2786 
Q 1159 2488 1159 1978 
L 1159 0 
L 581 0 
L 581 3500 
L 1159 3500 
L 1159 2956 
Q 1356 3278 1631 3431 
Q 1906 3584 2284 3584 
Q 2666 3584 2933 3390 
Q 3200 3197 3328 2828 
z
" transform="scale(0.015625)"/>
       <path id="DejaVuSans-75" d="M 544 1381 
L 544 3500 
L 1119 3500 
L 1119 1403 
Q 1119 906 1312 657 
Q 1506 409 1894 409 
Q 2359 409 2629 706 
Q 2900 1003 2900 1516 
L 2900 3500 
L 3475 3500 
L 3475 0 
L 2900 0 
L 2900 538 
Q 2691 219 2414 64 
Q 2138 -91 1772 -91 
Q 1169 -91 856 284 
Q 544 659 544 1381 
z
M 1991 3584 
L 1991 3584 
z
" transform="scale(0.015625)"/>
       <path id="DejaVuSans-6e" d="M 3513 2113 
L 3513 0 
L 2938 0 
L 2938 2094 
Q 2938 2591 2744 2837 
Q 2550 3084 2163 3084 
Q 1697 3084 1428 2787 
Q 1159 2491 1159 1978 
L 1159 0 
L 581 0 
L 581 3500 
L 1159 3500 
L 1159 2956 
Q 1366 3272 1645 3428 
Q 1925 3584 2291 3584 
Q 2894 3584 3203 3211 
Q 3513 2838 3513 2113 
z
" transform="scale(0.015625)"/>
       <path id="DejaVuSans-69" d="M 603 3500 
L 1178 3500 
L 1178 0 
L 603 0 
L 603 3500 
z
M 603 4863 
L 1178 4863 
L 1178 4134 
L 603 4134 
L 603 4863 
z
" transform="scale(0.015625)"/>
       <path id="DejaVuSans-63" d="M 3122 3366 
L 3122 2828 
Q 2878 2963 2633 3030 
Q 2388 3097 2138 3097 
Q 1578 3097 1268 2742 
Q 959 2388 959 1747 
Q 959 1106 1268 751 
Q 1578 397 2138 397 
Q 2388 397 2633 464 
Q 2878 531 3122 666 
L 3122 134 
Q 2881 22 2623 -34 
Q 2366 -91 2075 -91 
Q 1284 -91 818 406 
Q 353 903 353 1747 
Q 353 2603 823 3093 
Q 1294 3584 2113 3584 
Q 2378 3584 2631 3529 
Q 2884 3475 3122 3366 
z
" transform="scale(0.015625)"/>
       <path id="DejaVuSans-61" d="M 2194 1759 
Q 1497 1759 1228 1600 
Q 959 1441 959 1056 
Q 959 750 1161 570 
Q 1363 391 1709 391 
Q 2188 391 2477 730 
Q 2766 1069 2766 1631 
L 2766 1759 
L 2194 1759 
z
M 3341 1997 
L 3341 0 
L 2766 0 
L 2766 531 
Q 2569 213 2275 61 
Q 1981 -91 1556 -91 
Q 1019 -91 701 211 
Q 384 513 384 1019 
Q 384 1609 779 1909 
Q 1175 2209 1959 2209 
L 2766 2209 
L 2766 2266 
Q 2766 2663 2505 2880 
Q 2244 3097 1772 3097 
Q 1472 3097 1187 3025 
Q 903 2953 641 2809 
L 641 3341 
Q 956 3463 1253 3523 
Q 1550 3584 1831 3584 
Q 2591 3584 2966 3190 
Q 3341 2797 3341 1997 
z
" transform="scale(0.015625)"/>
       <path id="DejaVuSans-74" d="M 1172 4494 
L 1172 3500 
L 2356 3500 
L 2356 3053 
L 1172 3053 
L 1172 1153 
Q 1172 725 1289 603 
Q 1406 481 1766 481 
L 2356 481 
L 2356 0 
L 1766 0 
Q 1100 0 847 248 
Q 594 497 594 1153 
L 594 3053 
L 172 3053 
L 172 3500 
L 594 3500 
L 594 4494 
L 1172 4494 
z
" transform="scale(0.015625)"/>
       <path id="DejaVuSans-20" transform="scale(0.015625)"/>
       <path id="DejaVuSans-72" d="M 2631 2963 
Q 2534 3019 2420 3045 
Q 2306 3072 2169 3072 
Q 1681 3072 1420 2755 
Q 1159 2438 1159 1844 
L 1159 0 
L 581 0 
L 581 3500 
L 1159 3500 
L 1159 2956 
Q 1341 3275 1631 3429 
Q 1922 3584 2338 3584 
Q 2397 3584 2469 3576 
Q 2541 3569 2628 3553 
L 2631 2963 
z
" transform="scale(0.015625)"/>
       <path id="DejaVuSans-64" d="M 2906 2969 
L 2906 4863 
L 3481 4863 
L 3481 0 
L 2906 0 
L 2906 525 
Q 2725 213 2448 61 
Q 2172 -91 1784 -91 
Q 1150 -91 751 415 
Q 353 922 353 1747 
Q 353 2572 751 3078 
Q 1150 3584 1784 3584 
Q 2172 3584 2448 3432 
Q 2725 3281 2906 2969 
z
M 947 1747 
Q 947 1113 1208 752 
Q 1469 391 1925 391 
Q 2381 391 2643 752 
Q 2906 1113 2906 1747 
Q 2906 2381 2643 2742 
Q 2381 3103 1925 3103 
Q 1469 3103 1208 2742 
Q 947 2381 947 1747 
z
" transform="scale(0.015625)"/>
       <path id="DejaVuSans-73" d="M 2834 3397 
L 2834 2853 
Q 2591 2978 2328 3040 
Q 2066 3103 1784 3103 
Q 1356 3103 1142 2972 
Q 928 2841 928 2578 
Q 928 2378 1081 2264 
Q 1234 2150 1697 2047 
L 1894 2003 
Q 2506 1872 2764 1633 
Q 3022 1394 3022 966 
Q 3022 478 2636 193 
Q 2250 -91 1575 -91 
Q 1294 -91 989 -36 
Q 684 19 347 128 
L 347 722 
Q 666 556 975 473 
Q 1284 391 1588 391 
Q 1994 391 2212 530 
Q 2431 669 2431 922 
Q 2431 1156 2273 1281 
Q 2116 1406 1581 1522 
L 1381 1569 
Q 847 1681 609 1914 
Q 372 2147 372 2553 
Q 372 3047 722 3315 
Q 1072 3584 1716 3584 
Q 2034 3584 2315 3537 
Q 2597 3491 2834 3397 
z
" transform="scale(0.015625)"/>
      </defs>
      <use xlink:href="#DejaVuSans-43"/>
      <use xlink:href="#DejaVuSans-6f" x="69.824219"/>
      <use xlink:href="#DejaVuSans-6d" x="131.005859"/>
      <use xlink:href="#DejaVuSans-6d" x="228.417969"/>
      <use xlink:href="#DejaVuSans-75" x="325.830078"/>
      <use xlink:href="#DejaVuSans-6e" x="389.208984"/>
      <use xlink:href="#DejaVuSans-69" x="452.587891"/>
      <use xlink:href="#DejaVuSans-63" x="480.371094"/>
      <use xlink:href="#DejaVuSans-61" x="535.351562"/>
      <use xlink:href="#DejaVuSans-74" x="596.630859"/>
      <use xlink:href="#DejaVuSans-69" x="635.839844"/>
      <use xlink:href="#DejaVuSans-6f" x="663.623047"/>
      <use xlink:href="#DejaVuSans-6e" x="724.804688"/>
      <use xlink:href="#DejaVuSans-20" x="788.183594"/>
      <use xlink:href="#DejaVuSans-72" x="819.970703"/>
      <use xlink:href="#DejaVuSans-6f" x="858.833984"/>
      <use xlink:href="#DejaVuSans-75" x="920.015625"/>
      <use xlink:href="#DejaVuSans-6e" x="983.394531"/>
      <use xlink:href="#DejaVuSans-64" x="1046.773438"/>
      <use xlink:href="#DejaVuSans-73" x="1110.25"/>
     </g>
    </g>
   </g>
   <g id="matplotlib.axis_2">
    <g id="ytick_1">
     <g id="line2d_13">
      <path d="M 72 353.582609 
L 518.4 353.582609 
" clip-path="url(#p523ababd12)" style="fill: none; stroke: #b0b0b0; stroke-opacity: 0.5; stroke-width: 0.8; stroke-linecap: square"/>
     </g>
     <g id="line2d_14">
      <defs>
       <path id="m214f9dd13b" d="M 0 0 
L -3.5 0 
" style="stroke: #000000; stroke-width: 0.8"/>
      </defs>
      <g>
       <use xlink:href="#m214f9dd13b" x="72" y="353.582609" style="stroke: #000000; stroke-width: 0.8"/>
      </g>
     </g>
     <g id="text_8">
      <!-- 0.3 -->
      <g transform="translate(49.096875 357.381827)scale(0.1 -0.1)">
       <defs>
        <path id="DejaVuSans-2e" d="M 684 794 
L 1344 794 
L 1344 0 
L 684 0 
L 684 794 
z
" transform="scale(0.015625)"/>
        <path id="DejaVuSans-33" d="M 2597 2516 
Q 3050 2419 3304 2112 
Q 3559 1806 3559 1356 
Q 3559 666 3084 287 
Q 2609 -91 1734 -91 
Q 1441 -91 1130 -33 
Q 819 25 488 141 
L 488 750 
Q 750 597 1062 519 
Q 1375 441 1716 441 
Q 2309 441 2620 675 
Q 2931 909 2931 1356 
Q 2931 1769 2642 2001 
Q 2353 2234 1838 2234 
L 1294 2234 
L 1294 2753 
L 1863 2753 
Q 2328 2753 2575 2939 
Q 2822 3125 2822 3475 
Q 2822 3834 2567 4026 
Q 2313 4219 1838 4219 
Q 1578 4219 1281 4162 
Q 984 4106 628 3988 
L 628 4550 
Q 988 4650 1302 4700 
Q 1616 4750 1894 4750 
Q 2613 4750 3031 4423 
Q 3450 4097 3450 3541 
Q 3450 3153 3228 2886 
Q 3006 2619 2597 2516 
z
" transform="scale(0.015625)"/>
       </defs>
       <use xlink:href="#DejaVuSans-30"/>
       <use xlink:href="#DejaVuSans-2e" x="63.623047"/>
       <use xlink:href="#DejaVuSans-33" x="95.410156"/>
      </g>
     </g>
    </g>
    <g id="ytick_2">
     <g id="line2d_15">
      <path d="M 72 298.8 
L 518.4 298.8 
" clip-path="url(#p523ababd12)" style="fill: none; stroke: #b0b0b0; stroke-opacity: 0.5; stroke-width: 0.8; stroke-linecap: square"/>
     </g>
     <g id="line2d_16">
      <g>
       <use xlink:href="#m214f9dd13b" x="72" y="298.8" style="stroke: #000000; stroke-width: 0.8"/>
      </g>
     </g>
     <g id="text_9">
      <!-- 0.4 -->
      <g transform="translate(49.096875 302.599219)scale(0.1 -0.1)">
       <defs>
        <path id="DejaVuSans-34" d="M 2419 4116 
L 825 1625 
L 2419 1625 
L 2419 4116 
z
M 2253 4666 
L 3047 4666 
L 3047 1625 
L 3713 1625 
L 3713 1100 
L 3047 1100 
L 3047 0 
L 2419 0 
L 2419 1100 
L 313 1100 
L 313 1709 
L 2253 4666 
z
" transform="scale(0.015625)"/>
       </defs>
       <use xlink:href="#DejaVuSans-30"/>
       <use xlink:href="#DejaVuSans-2e" x="63.623047"/>
       <use xlink:href="#DejaVuSans-34" x="95.410156"/>
      </g>
     </g>
    </g>
    <g id="ytick_3">
     <g id="line2d_17">
      <path d="M 72 244.017391 
L 518.4 244.017391 
" clip-path="url(#p523ababd12)" style="fill: none; stroke: #b0b0b0; stroke-opacity: 0.5; stroke-width: 0.8; stroke-linecap: square"/>
     </g>
     <g id="line2d_18">
      <g>
       <use xlink:href="#m214f9dd13b" x="72" y="244.017391" style="stroke: #000000; stroke-width: 0.8"/>
      </g>
     </g>
     <g id="text_10">
      <!-- 0.5 -->
      <g transform="translate(49.096875 247.81661)scale(0.1 -0.1)">
       <use xlink:href="#DejaVuSans-30"/>
       <use xlink:href="#DejaVuSans-2e" x="63.623047"/>
       <use xlink:href="#DejaVuSans-35" x="95.410156"/>
      </g>
     </g>
    </g>
    <g id="ytick_4">
     <g id="line2d_19">
      <path d="M 72 189.234783 
L 518.4 189.234783 
" clip-path="url(#p523ababd12)" style="fill: none; stroke: #b0b0b0; stroke-opacity: 0.5; stroke-width: 0.8; stroke-linecap: square"/>
     </g>
     <g id="line2d_20">
      <g>
       <use xlink:href="#m214f9dd13b" x="72" y="189.234783" style="stroke: #000000; stroke-width: 0.8"/>
      </g>
     </g>
     <g id="text_11">
      <!-- 0.6 -->
      <g transform="translate(49.096875 193.034001)scale(0.1 -0.1)">
       <defs>
        <path id="DejaVuSans-36" d="M 2113 2584 
Q 1688 2584 1439 2293 
Q 1191 2003 1191 1497 
Q 1191 994 1439 701 
Q 1688 409 2113 409 
Q 2538 409 2786 701 
Q 3034 994 3034 1497 
Q 3034 2003 2786 2293 
Q 2538 2584 2113 2584 
z
M 3366 4563 
L 3366 3988 
Q 3128 4100 2886 4159 
Q 2644 4219 2406 4219 
Q 1781 4219 1451 3797 
Q 1122 3375 1075 2522 
Q 1259 2794 1537 2939 
Q 1816 3084 2150 3084 
Q 2853 3084 3261 2657 
Q 3669 2231 3669 1497 
Q 3669 778 3244 343 
Q 2819 -91 2113 -91 
Q 1303 -91 875 529 
Q 447 1150 447 2328 
Q 447 3434 972 4092 
Q 1497 4750 2381 4750 
Q 2619 4750 2861 4703 
Q 3103 4656 3366 4563 
z
" transform="scale(0.015625)"/>
       </defs>
       <use xlink:href="#DejaVuSans-30"/>
       <use xlink:href="#DejaVuSans-2e" x="63.623047"/>
       <use xlink:href="#DejaVuSans-36" x="95.410156"/>
      </g>
     </g>
    </g>
    <g id="ytick_5">
     <g id="line2d_21">
      <path d="M 72 134.452174 
L 518.4 134.452174 
" clip-path="url(#p523ababd12)" style="fill: none; stroke: #b0b0b0; stroke-opacity: 0.5; stroke-width: 0.8; stroke-linecap: square"/>
     </g>
     <g id="line2d_22">
      <g>
       <use xlink:href="#m214f9dd13b" x="72" y="134.452174" style="stroke: #000000; stroke-width: 0.8"/>
      </g>
     </g>
     <g id="text_12">
      <!-- 0.7 -->
      <g transform="translate(49.096875 138.251393)scale(0.1 -0.1)">
       <defs>
        <path id="DejaVuSans-37" d="M 525 4666 
L 3525 4666 
L 3525 4397 
L 1831 0 
L 1172 0 
L 2766 4134 
L 525 4134 
L 525 4666 
z
" transform="scale(0.015625)"/>
       </defs>
       <use xlink:href="#DejaVuSans-30"/>
       <use xlink:href="#DejaVuSans-2e" x="63.623047"/>
       <use xlink:href="#DejaVuSans-37" x="95.410156"/>
      </g>
     </g>
    </g>
    <g id="ytick_6">
     <g id="line2d_23">
      <path d="M 72 79.669565 
L 518.4 79.669565 
" clip-path="url(#p523ababd12)" style="fill: none; stroke: #b0b0b0; stroke-opacity: 0.5; stroke-width: 0.8; stroke-linecap: square"/>
     </g>
     <g id="line2d_24">
      <g>
       <use xlink:href="#m214f9dd13b" x="72" y="79.669565" style="stroke: #000000; stroke-width: 0.8"/>
      </g>
     </g>
     <g id="text_13">
      <!-- 0.8 -->
      <g transform="translate(49.096875 83.468784)scale(0.1 -0.1)">
       <defs>
        <path id="DejaVuSans-38" d="M 2034 2216 
Q 1584 2216 1326 1975 
Q 1069 1734 1069 1313 
Q 1069 891 1326 650 
Q 1584 409 2034 409 
Q 2484 409 2743 651 
Q 3003 894 3003 1313 
Q 3003 1734 2745 1975 
Q 2488 2216 2034 2216 
z
M 1403 2484 
Q 997 2584 770 2862 
Q 544 3141 544 3541 
Q 544 4100 942 4425 
Q 1341 4750 2034 4750 
Q 2731 4750 3128 4425 
Q 3525 4100 3525 3541 
Q 3525 3141 3298 2862 
Q 3072 2584 2669 2484 
Q 3125 2378 3379 2068 
Q 3634 1759 3634 1313 
Q 3634 634 3220 271 
Q 2806 -91 2034 -91 
Q 1263 -91 848 271 
Q 434 634 434 1313 
Q 434 1759 690 2068 
Q 947 2378 1403 2484 
z
M 1172 3481 
Q 1172 3119 1398 2916 
Q 1625 2713 2034 2713 
Q 2441 2713 2670 2916 
Q 2900 3119 2900 3481 
Q 2900 3844 2670 4047 
Q 2441 4250 2034 4250 
Q 1625 4250 1398 4047 
Q 1172 3844 1172 3481 
z
" transform="scale(0.015625)"/>
       </defs>
       <use xlink:href="#DejaVuSans-30"/>
       <use xlink:href="#DejaVuSans-2e" x="63.623047"/>
       <use xlink:href="#DejaVuSans-38" x="95.410156"/>
      </g>
     </g>
    </g>
    <g id="text_14">
     <!-- Accuracy -->
     <g transform="translate(43.017187 240.988125)rotate(-90)scale(0.1 -0.1)">
      <defs>
       <path id="DejaVuSans-41" d="M 2188 4044 
L 1331 1722 
L 3047 1722 
L 2188 4044 
z
M 1831 4666 
L 2547 4666 
L 4325 0 
L 3669 0 
L 3244 1197 
L 1141 1197 
L 716 0 
L 50 0 
L 1831 4666 
z
" transform="scale(0.015625)"/>
       <path id="DejaVuSans-79" d="M 2059 -325 
Q 1816 -950 1584 -1140 
Q 1353 -1331 966 -1331 
L 506 -1331 
L 506 -850 
L 844 -850 
Q 1081 -850 1212 -737 
Q 1344 -625 1503 -206 
L 1606 56 
L 191 3500 
L 800 3500 
L 1894 763 
L 2988 3500 
L 3597 3500 
L 2059 -325 
z
" transform="scale(0.015625)"/>
      </defs>
      <use xlink:href="#DejaVuSans-41"/>
      <use xlink:href="#DejaVuSans-63" x="66.658203"/>
      <use xlink:href="#DejaVuSans-63" x="121.638672"/>
      <use xlink:href="#DejaVuSans-75" x="176.619141"/>
      <use xlink:href="#DejaVuSans-72" x="239.998047"/>
      <use xlink:href="#DejaVuSans-61" x="281.111328"/>
      <use xlink:href="#DejaVuSans-63" x="342.390625"/>
      <use xlink:href="#DejaVuSans-79" x="397.371094"/>
     </g>
    </g>
   </g>
   <g id="line2d_25">
    <path d="M 92.290909 341.311304 
L 93.914182 335.175652 
L 95.537455 322.027826 
L 97.160727 320.274783 
L 98.784 295.732174 
L 100.407273 290.911304 
L 102.030545 260.671304 
L 103.653818 300.991304 
L 105.277091 257.603478 
L 106.900364 258.48 
L 108.523636 255.850435 
L 110.146909 252.344348 
L 111.770182 225.172174 
L 113.393455 231.307826 
L 115.016727 227.363478 
L 116.64 204.135652 
L 118.263273 205.888696 
L 119.886545 205.888696 
L 121.509818 182.66087 
L 123.133091 192.302609 
L 124.756364 189.673043 
L 126.379636 199.753043 
L 128.002909 175.210435 
L 129.626182 169.513043 
L 131.249455 178.278261 
L 132.872727 171.704348 
L 134.496 155.050435 
L 136.119273 166.445217 
L 137.742545 176.525217 
L 139.365818 153.735652 
L 140.989091 157.241739 
L 142.612364 148.476522 
L 144.235636 138.396522 
L 145.858909 137.081739 
L 147.482182 151.544348 
L 149.105455 141.464348 
L 150.728727 140.587826 
L 152.352 131.384348 
L 153.975273 135.328696 
L 155.598545 129.193043 
L 157.221818 137.081739 
L 158.845091 136.643478 
L 160.468364 137.958261 
L 162.091636 130.507826 
L 163.714909 125.248696 
L 165.338182 132.69913 
L 166.961455 129.631304 
L 168.584727 137.52 
L 170.208 120.866087 
L 171.831273 112.10087 
L 175.077818 127.001739 
L 176.701091 118.236522 
L 178.324364 111.224348 
L 179.947636 127.44 
L 181.570909 135.766957 
L 183.194182 131.822609 
L 184.817455 110.347826 
L 186.440727 111.224348 
L 188.064 113.415652 
L 189.687273 127.001739 
L 191.310545 127.001739 
L 192.933818 118.236522 
L 194.557091 114.292174 
L 196.180364 109.909565 
L 197.803636 112.977391 
L 199.426909 121.304348 
L 201.050182 116.483478 
L 202.673455 117.798261 
L 204.296727 112.977391 
L 205.92 111.662609 
L 207.543273 105.965217 
L 209.166545 98.953043 
L 210.789818 105.088696 
L 212.413091 105.526957 
L 214.036364 111.662609 
L 215.659636 100.267826 
L 217.282909 111.662609 
L 218.906182 121.742609 
L 220.529455 105.965217 
L 222.152727 105.526957 
L 223.776 124.810435 
L 225.399273 104.650435 
L 227.022545 91.064348 
L 228.645818 110.786087 
L 230.269091 116.483478 
L 231.892364 109.033043 
L 233.515636 105.526957 
L 235.138909 99.829565 
L 236.762182 107.718261 
L 238.385455 100.706087 
L 240.008727 95.885217 
L 241.632 106.841739 
L 243.255273 105.088696 
L 244.878545 117.798261 
L 246.501818 120.427826 
L 248.125091 105.526957 
L 249.748364 106.403478 
L 251.371636 100.267826 
L 252.994909 97.2 
L 254.618182 118.236522 
L 256.241455 109.471304 
L 257.864727 99.391304 
L 259.488 108.594783 
L 261.111273 88.873043 
L 262.734545 106.403478 
L 265.981091 94.132174 
L 267.604364 100.267826 
L 269.227636 93.255652 
L 270.850909 90.626087 
L 272.474182 99.391304 
L 274.097455 102.02087 
L 275.720727 84.928696 
L 277.344 101.582609 
L 278.967273 95.446957 
L 280.590545 102.45913 
L 282.213818 103.335652 
L 283.837091 100.267826 
L 285.460364 102.45913 
L 287.083636 102.02087 
L 288.706909 98.076522 
L 290.330182 105.088696 
L 291.953455 95.446957 
L 293.576727 98.953043 
L 295.2 101.144348 
L 296.823273 105.088696 
L 298.446545 99.829565 
L 300.069818 90.626087 
L 301.693091 100.267826 
L 303.316364 105.526957 
L 304.939636 113.853913 
L 306.562909 104.650435 
L 308.186182 94.570435 
L 309.809455 98.953043 
L 311.432727 115.168696 
L 313.056 91.502609 
L 314.679273 87.996522 
L 316.302545 89.749565 
L 317.925818 92.37913 
L 319.549091 89.311304 
L 321.172364 107.718261 
L 322.795636 102.45913 
L 324.418909 93.693913 
L 326.042182 97.2 
L 327.665455 93.693913 
L 329.288727 92.37913 
L 330.912 90.187826 
L 332.535273 94.570435 
L 334.158545 104.650435 
L 335.781818 102.897391 
L 337.405091 91.94087 
L 339.028364 87.996522 
L 340.651636 94.132174 
L 342.274909 96.323478 
L 343.898182 95.008696 
L 345.521455 88.873043 
L 347.144727 95.008696 
L 348.768 108.156522 
L 350.391273 98.953043 
L 352.014545 86.681739 
L 353.637818 99.829565 
L 355.261091 87.996522 
L 356.884364 98.514783 
L 358.507636 87.996522 
L 360.130909 95.446957 
L 361.754182 87.12 
L 363.377455 97.2 
L 365.000727 92.37913 
L 366.624 91.064348 
L 368.247273 97.638261 
L 369.870545 98.953043 
L 371.493818 91.064348 
L 373.117091 96.323478 
L 374.740364 99.391304 
L 376.363636 92.817391 
L 377.986909 95.008696 
L 379.610182 92.817391 
L 381.233455 92.37913 
L 382.856727 98.076522 
L 384.48 93.255652 
L 386.103273 94.132174 
L 387.726545 90.626087 
L 389.349818 84.928696 
L 390.973091 107.718261 
L 392.596364 76.601739 
L 394.219636 93.693913 
L 395.842909 88.873043 
L 397.466182 88.873043 
L 399.089455 85.366957 
L 400.712727 97.2 
L 402.336 99.829565 
L 403.959273 99.829565 
L 405.582545 95.885217 
L 407.205818 106.841739 
L 408.829091 90.187826 
L 410.452364 94.132174 
L 412.075636 102.02087 
L 413.698909 83.175652 
L 415.322182 98.514783 
L 416.945455 94.132174 
L 418.568727 93.255652 
L 420.192 97.2 
L 421.815273 94.570435 
L 423.438545 100.706087 
L 425.061818 94.570435 
L 426.685091 97.638261 
L 428.308364 95.446957 
L 429.931636 90.187826 
L 431.554909 90.626087 
L 433.178182 100.706087 
L 434.801455 83.613913 
L 436.424727 102.897391 
L 438.048 88.873043 
L 439.671273 81.86087 
L 442.917818 105.526957 
L 444.541091 102.897391 
L 446.164364 97.638261 
L 447.787636 98.076522 
L 449.410909 91.94087 
L 451.034182 98.514783 
L 452.657455 97.2 
L 454.280727 96.323478 
L 455.904 96.761739 
L 457.527273 96.323478 
L 459.150545 81.86087 
L 460.773818 92.37913 
L 462.397091 80.984348 
L 464.020364 84.052174 
L 465.643636 104.212174 
L 467.266909 88.873043 
L 468.890182 90.187826 
L 470.513455 93.693913 
L 472.136727 89.749565 
L 473.76 102.02087 
L 475.383273 84.490435 
L 477.006545 88.434783 
L 478.629818 96.323478 
L 480.253091 87.558261 
L 481.876364 111.224348 
L 483.499636 91.064348 
L 485.122909 99.829565 
L 486.746182 93.693913 
L 488.369455 90.626087 
L 489.992727 77.478261 
L 491.616 94.132174 
L 493.239273 97.2 
L 494.862545 83.175652 
L 496.485818 91.94087 
L 498.109091 97.638261 
L 498.109091 97.638261 
" clip-path="url(#p523ababd12)" style="fill: none; stroke: #1f77b4; stroke-width: 1.5; stroke-linecap: square"/>
   </g>
   <g id="line2d_26">
    <path d="M 92.290909 362.347826 
L 93.914182 342.626087 
L 95.537455 333.86087 
L 97.160727 318.521739 
L 98.784 311.509565 
L 100.407273 298.8 
L 102.030545 305.373913 
L 103.653818 292.226087 
L 105.277091 286.528696 
L 106.900364 255.850435 
L 108.523636 246.646957 
L 110.146909 232.184348 
L 111.770182 222.542609 
L 113.393455 212.024348 
L 115.016727 207.641739 
L 116.64 219.474783 
L 118.263273 204.135652 
L 119.886545 183.09913 
L 121.509818 189.234783 
L 123.133091 170.389565 
L 124.756364 193.17913 
L 126.379636 187.92 
L 128.002909 181.346087 
L 129.626182 175.648696 
L 131.249455 152.42087 
L 132.872727 171.704348 
L 134.496 153.735652 
L 136.119273 151.544348 
L 137.742545 141.902609 
L 139.365818 134.452174 
L 142.612364 160.747826 
L 144.235636 142.34087 
L 145.858909 144.970435 
L 147.482182 137.958261 
L 149.105455 136.205217 
L 150.728727 151.106087 
L 152.352 133.575652 
L 153.975273 118.674783 
L 155.598545 123.057391 
L 157.221818 121.304348 
L 158.845091 115.606957 
L 160.468364 123.057391 
L 162.091636 127.878261 
L 163.714909 126.563478 
L 165.338182 123.057391 
L 166.961455 133.137391 
L 168.584727 111.224348 
L 170.208 120.427826 
L 171.831273 121.742609 
L 173.454545 121.304348 
L 175.077818 113.415652 
L 176.701091 123.933913 
L 178.324364 108.156522 
L 179.947636 116.483478 
L 181.570909 117.36 
L 183.194182 120.866087 
L 184.817455 111.224348 
L 186.440727 116.483478 
L 188.064 111.224348 
L 189.687273 104.212174 
L 191.310545 105.965217 
L 192.933818 100.706087 
L 194.557091 111.662609 
L 196.180364 104.212174 
L 197.803636 113.415652 
L 199.426909 103.773913 
L 201.050182 105.965217 
L 202.673455 102.02087 
L 204.296727 108.156522 
L 205.92 95.008696 
L 207.543273 99.829565 
L 209.166545 97.638261 
L 210.789818 104.212174 
L 212.413091 102.45913 
L 214.036364 89.749565 
L 215.659636 110.347826 
L 217.282909 100.267826 
L 218.906182 88.873043 
L 220.529455 94.570435 
L 222.152727 95.008696 
L 223.776 110.786087 
L 225.399273 102.897391 
L 227.022545 98.076522 
L 228.645818 98.076522 
L 230.269091 111.224348 
L 231.892364 102.897391 
L 233.515636 98.953043 
L 235.138909 85.366957 
L 236.762182 101.144348 
L 238.385455 77.916522 
L 240.008727 91.064348 
L 241.632 97.638261 
L 243.255273 98.076522 
L 244.878545 92.817391 
L 246.501818 99.391304 
L 248.125091 87.558261 
L 249.748364 91.502609 
L 251.371636 88.434783 
L 252.994909 93.255652 
L 254.618182 92.37913 
L 256.241455 106.841739 
L 257.864727 87.12 
L 259.488 95.885217 
L 261.111273 91.94087 
L 262.734545 103.335652 
L 264.357818 102.02087 
L 265.981091 85.366957 
L 267.604364 94.132174 
L 269.227636 97.2 
L 270.850909 91.94087 
L 272.474182 93.693913 
L 274.097455 83.175652 
L 275.720727 90.626087 
L 277.344 91.502609 
L 278.967273 88.873043 
L 280.590545 91.064348 
L 282.213818 77.04 
L 283.837091 87.996522 
L 285.460364 91.502609 
L 287.083636 84.052174 
L 288.706909 81.422609 
L 290.330182 88.873043 
L 291.953455 87.996522 
L 293.576727 94.570435 
L 295.2 95.446957 
L 296.823273 84.490435 
L 298.446545 80.984348 
L 300.069818 81.86087 
L 301.693091 84.928696 
L 303.316364 90.187826 
L 304.939636 80.107826 
L 306.562909 82.737391 
L 308.186182 91.94087 
L 309.809455 82.29913 
L 311.432727 85.805217 
L 313.056 81.86087 
L 314.679273 100.267826 
L 316.302545 85.366957 
L 317.925818 96.761739 
L 319.549091 81.422609 
L 321.172364 85.805217 
L 322.795636 89.749565 
L 324.418909 88.434783 
L 326.042182 84.490435 
L 327.665455 81.86087 
L 329.288727 85.805217 
L 330.912 90.626087 
L 332.535273 91.94087 
L 334.158545 86.681739 
L 335.781818 80.546087 
L 337.405091 72.21913 
L 339.028364 88.434783 
L 340.651636 90.626087 
L 342.274909 87.558261 
L 343.898182 90.187826 
L 345.521455 73.972174 
L 347.144727 91.94087 
L 350.391273 89.311304 
L 352.014545 89.749565 
L 353.637818 97.638261 
L 355.261091 79.231304 
L 356.884364 84.928696 
L 358.507636 78.793043 
L 360.130909 85.805217 
L 361.754182 87.12 
L 363.377455 85.366957 
L 365.000727 90.626087 
L 368.247273 76.163478 
L 369.870545 81.422609 
L 371.493818 80.984348 
L 373.117091 84.928696 
L 374.740364 85.366957 
L 376.363636 95.885217 
L 377.986909 87.558261 
L 379.610182 81.422609 
L 381.233455 87.12 
L 382.856727 81.422609 
L 384.48 90.187826 
L 386.103273 75.286957 
L 387.726545 89.311304 
L 389.349818 86.681739 
L 390.973091 81.86087 
L 392.596364 84.052174 
L 394.219636 72.21913 
L 395.842909 93.255652 
L 397.466182 84.928696 
L 399.089455 80.107826 
L 400.712727 80.984348 
L 402.336 86.681739 
L 403.959273 90.187826 
L 405.582545 78.354783 
L 407.205818 89.749565 
L 408.829091 85.366957 
L 410.452364 78.354783 
L 412.075636 77.04 
L 413.698909 77.04 
L 415.322182 94.570435 
L 416.945455 83.175652 
L 418.568727 88.434783 
L 420.192 79.669565 
L 421.815273 79.231304 
L 423.438545 96.323478 
L 425.061818 77.478261 
L 426.685091 80.107826 
L 428.308364 75.725217 
L 429.931636 73.095652 
L 431.554909 84.928696 
L 433.178182 91.502609 
L 434.801455 73.095652 
L 436.424727 73.095652 
L 438.048 81.86087 
L 439.671273 88.873043 
L 441.294545 91.94087 
L 442.917818 81.86087 
L 444.541091 81.422609 
L 447.787636 82.29913 
L 451.034182 75.286957 
L 452.657455 73.533913 
L 454.280727 82.737391 
L 455.904 90.187826 
L 457.527273 80.984348 
L 459.150545 81.422609 
L 460.773818 86.243478 
L 462.397091 87.558261 
L 464.020364 77.04 
L 465.643636 76.163478 
L 467.266909 83.613913 
L 468.890182 87.996522 
L 470.513455 81.86087 
L 472.136727 82.737391 
L 473.76 74.410435 
L 475.383273 74.410435 
L 477.006545 84.928696 
L 478.629818 81.422609 
L 480.253091 82.29913 
L 481.876364 84.490435 
L 483.499636 73.533913 
L 485.122909 75.286957 
L 486.746182 73.095652 
L 488.369455 73.095652 
L 489.992727 82.737391 
L 491.616 75.725217 
L 493.239273 71.342609 
L 494.862545 83.175652 
L 496.485818 77.916522 
L 498.109091 93.693913 
L 498.109091 93.693913 
" clip-path="url(#p523ababd12)" style="fill: none; stroke: #ff7f0e; stroke-width: 1.5; stroke-linecap: square"/>
   </g>
   <g id="line2d_27">
    <path d="M 92.290909 361.033043 
L 93.914182 358.403478 
L 95.537455 341.749565 
L 97.160727 326.848696 
L 98.784 307.565217 
L 100.407273 321.151304 
L 102.030545 315.453913 
L 103.653818 269.436522 
L 105.277091 278.201739 
L 106.900364 252.344348 
L 108.523636 250.591304 
L 110.146909 219.474783 
L 111.770182 233.937391 
L 113.393455 205.012174 
L 115.016727 213.33913 
L 116.64 204.573913 
L 118.263273 196.685217 
L 119.886545 212.90087 
L 121.509818 203.697391 
L 123.133091 181.784348 
L 124.756364 199.753043 
L 126.379636 172.58087 
L 128.002909 188.796522 
L 129.626182 181.784348 
L 132.872727 154.173913 
L 134.496 166.445217 
L 136.119273 164.692174 
L 137.742545 164.253913 
L 139.365818 159.433043 
L 140.989091 143.217391 
L 142.612364 147.6 
L 144.235636 137.52 
L 145.858909 150.229565 
L 147.482182 135.766957 
L 149.105455 131.822609 
L 150.728727 137.081739 
L 152.352 133.137391 
L 153.975273 132.26087 
L 155.598545 117.798261 
L 157.221818 127.878261 
L 158.845091 127.001739 
L 160.468364 125.248696 
L 162.091636 133.137391 
L 163.714909 122.18087 
L 165.338182 135.766957 
L 166.961455 132.26087 
L 168.584727 128.316522 
L 170.208 116.045217 
L 171.831273 127.44 
L 173.454545 114.292174 
L 175.077818 118.236522 
L 176.701091 109.909565 
L 178.324364 120.427826 
L 179.947636 118.674783 
L 181.570909 123.057391 
L 183.194182 111.662609 
L 184.817455 114.292174 
L 186.440727 112.53913 
L 188.064 112.53913 
L 189.687273 122.61913 
L 191.310545 110.786087 
L 192.933818 118.674783 
L 194.557091 105.965217 
L 196.180364 102.897391 
L 197.803636 97.2 
L 199.426909 112.10087 
L 201.050182 109.909565 
L 202.673455 112.10087 
L 204.296727 93.255652 
L 205.92 97.2 
L 207.543273 108.594783 
L 209.166545 109.909565 
L 210.789818 92.817391 
L 212.413091 97.2 
L 214.036364 105.088696 
L 217.282909 104.212174 
L 218.906182 90.187826 
L 220.529455 97.638261 
L 222.152727 95.446957 
L 223.776 109.471304 
L 225.399273 98.076522 
L 227.022545 98.953043 
L 228.645818 100.706087 
L 230.269091 105.526957 
L 231.892364 96.761739 
L 233.515636 120.427826 
L 235.138909 93.693913 
L 236.762182 99.829565 
L 238.385455 102.45913 
L 240.008727 102.02087 
L 241.632 110.347826 
L 243.255273 92.37913 
L 244.878545 108.594783 
L 246.501818 93.693913 
L 248.125091 111.662609 
L 249.748364 98.076522 
L 251.371636 91.502609 
L 252.994909 83.175652 
L 254.618182 109.471304 
L 256.241455 92.817391 
L 257.864727 99.391304 
L 259.488 98.953043 
L 261.111273 111.662609 
L 262.734545 108.156522 
L 264.357818 97.2 
L 265.981091 95.885217 
L 267.604364 106.841739 
L 269.227636 91.064348 
L 270.850909 102.02087 
L 272.474182 102.45913 
L 274.097455 92.817391 
L 275.720727 88.434783 
L 277.344 109.033043 
L 278.967273 94.132174 
L 280.590545 99.391304 
L 282.213818 88.873043 
L 283.837091 98.514783 
L 285.460364 81.86087 
L 287.083636 101.582609 
L 288.706909 98.514783 
L 290.330182 97.2 
L 291.953455 87.558261 
L 293.576727 93.693913 
L 295.2 89.311304 
L 296.823273 94.570435 
L 298.446545 98.953043 
L 300.069818 98.076522 
L 301.693091 100.267826 
L 303.316364 88.873043 
L 304.939636 90.187826 
L 306.562909 95.885217 
L 308.186182 89.749565 
L 309.809455 98.953043 
L 311.432727 103.335652 
L 313.056 84.052174 
L 314.679273 87.558261 
L 316.302545 87.558261 
L 317.925818 97.638261 
L 319.549091 89.749565 
L 321.172364 92.817391 
L 322.795636 87.996522 
L 326.042182 95.885217 
L 327.665455 95.885217 
L 329.288727 91.94087 
L 330.912 92.37913 
L 332.535273 100.267826 
L 334.158545 86.243478 
L 335.781818 87.12 
L 337.405091 95.885217 
L 339.028364 84.928696 
L 340.651636 94.570435 
L 342.274909 84.052174 
L 343.898182 85.366957 
L 345.521455 83.175652 
L 347.144727 86.243478 
L 348.768 95.446957 
L 350.391273 87.558261 
L 352.014545 86.681739 
L 353.637818 83.613913 
L 355.261091 91.064348 
L 356.884364 93.693913 
L 358.507636 85.366957 
L 360.130909 86.681739 
L 361.754182 84.490435 
L 363.377455 82.737391 
L 365.000727 78.354783 
L 366.624 83.175652 
L 368.247273 83.613913 
L 369.870545 83.175652 
L 371.493818 91.064348 
L 373.117091 90.187826 
L 374.740364 99.391304 
L 376.363636 91.064348 
L 377.986909 92.817391 
L 379.610182 93.693913 
L 382.856727 77.478261 
L 384.48 91.94087 
L 386.103273 99.391304 
L 387.726545 84.928696 
L 389.349818 71.78087 
L 390.973091 86.243478 
L 392.596364 86.243478 
L 394.219636 87.558261 
L 395.842909 81.422609 
L 397.466182 78.354783 
L 399.089455 86.681739 
L 400.712727 94.132174 
L 402.336 84.490435 
L 403.959273 78.793043 
L 405.582545 92.37913 
L 407.205818 85.805217 
L 408.829091 91.94087 
L 410.452364 87.996522 
L 412.075636 87.558261 
L 413.698909 91.502609 
L 415.322182 98.076522 
L 416.945455 85.366957 
L 418.568727 79.669565 
L 420.192 80.984348 
L 421.815273 86.681739 
L 423.438545 89.749565 
L 425.061818 73.533913 
L 426.685091 85.366957 
L 428.308364 108.594783 
L 429.931636 91.502609 
L 431.554909 86.681739 
L 433.178182 104.650435 
L 434.801455 91.064348 
L 436.424727 87.558261 
L 438.048 77.916522 
L 439.671273 83.175652 
L 441.294545 78.354783 
L 442.917818 95.885217 
L 444.541091 86.681739 
L 446.164364 80.546087 
L 447.787636 78.793043 
L 449.410909 82.29913 
L 451.034182 94.570435 
L 452.657455 87.996522 
L 454.280727 87.12 
L 455.904 72.657391 
L 457.527273 95.008696 
L 459.150545 88.434783 
L 460.773818 92.37913 
L 462.397091 83.613913 
L 464.020364 81.422609 
L 465.643636 88.434783 
L 467.266909 78.793043 
L 468.890182 97.2 
L 470.513455 86.681739 
L 472.136727 88.434783 
L 473.76 88.434783 
L 475.383273 80.546087 
L 477.006545 105.088696 
L 478.629818 87.996522 
L 480.253091 85.805217 
L 481.876364 84.490435 
L 483.499636 91.94087 
L 485.122909 78.354783 
L 486.746182 80.546087 
L 488.369455 97.638261 
L 489.992727 85.805217 
L 491.616 75.286957 
L 493.239273 85.366957 
L 494.862545 92.37913 
L 498.109091 76.163478 
L 498.109091 76.163478 
" clip-path="url(#p523ababd12)" style="fill: none; stroke: #2ca02c; stroke-width: 1.5; stroke-linecap: square"/>
   </g>
   <g id="line2d_28">
    <path d="M 92.290909 363.224348 
L 93.914182 369.36 
L 95.537455 322.466087 
L 97.160727 329.916522 
L 98.784 332.984348 
L 100.407273 321.589565 
L 102.030545 303.62087 
L 103.653818 274.695652 
L 105.277091 296.170435 
L 106.900364 253.65913 
L 108.523636 247.085217 
L 110.146909 227.363478 
L 111.770182 231.307826 
L 113.393455 228.24 
L 115.016727 227.801739 
L 116.64 203.697391 
L 118.263273 215.530435 
L 119.886545 204.573913 
L 121.509818 181.346087 
L 123.133091 198 
L 124.756364 199.314783 
L 126.379636 165.568696 
L 128.002909 157.68 
L 129.626182 153.735652 
L 131.249455 154.612174 
L 132.872727 164.692174 
L 134.496 143.217391 
L 136.119273 144.093913 
L 137.742545 149.791304 
L 139.365818 143.655652 
L 140.989091 146.723478 
L 142.612364 149.353043 
L 144.235636 146.285217 
L 145.858909 139.273043 
L 147.482182 155.926957 
L 149.105455 134.452174 
L 150.728727 134.890435 
L 152.352 137.958261 
L 153.975273 128.754783 
L 155.598545 133.575652 
L 157.221818 134.452174 
L 158.845091 124.372174 
L 160.468364 124.372174 
L 162.091636 118.674783 
L 163.714909 126.125217 
L 165.338182 116.483478 
L 166.961455 117.798261 
L 168.584727 114.292174 
L 170.208 106.403478 
L 171.831273 104.650435 
L 173.454545 128.316522 
L 175.077818 98.076522 
L 176.701091 119.113043 
L 178.324364 113.415652 
L 179.947636 104.212174 
L 181.570909 107.28 
L 183.194182 114.730435 
L 184.817455 118.236522 
L 186.440727 108.594783 
L 188.064 103.773913 
L 189.687273 109.033043 
L 191.310545 100.706087 
L 192.933818 109.033043 
L 194.557091 93.255652 
L 196.180364 109.033043 
L 197.803636 111.662609 
L 199.426909 102.45913 
L 201.050182 105.088696 
L 202.673455 106.403478 
L 204.296727 96.323478 
L 205.92 94.132174 
L 207.543273 100.267826 
L 209.166545 95.008696 
L 210.789818 105.088696 
L 212.413091 105.526957 
L 214.036364 98.076522 
L 215.659636 93.255652 
L 217.282909 95.008696 
L 218.906182 88.434783 
L 220.529455 91.502609 
L 222.152727 91.064348 
L 223.776 87.558261 
L 225.399273 98.076522 
L 227.022545 103.773913 
L 228.645818 92.817391 
L 230.269091 87.996522 
L 231.892364 100.706087 
L 233.515636 96.323478 
L 235.138909 93.255652 
L 236.762182 82.737391 
L 238.385455 83.613913 
L 240.008727 92.37913 
L 241.632 97.638261 
L 243.255273 90.626087 
L 244.878545 96.323478 
L 246.501818 84.052174 
L 248.125091 91.502609 
L 249.748364 106.403478 
L 251.371636 92.37913 
L 252.994909 86.243478 
L 254.618182 85.366957 
L 256.241455 86.681739 
L 257.864727 97.2 
L 259.488 86.681739 
L 261.111273 86.681739 
L 262.734545 88.434783 
L 264.357818 105.088696 
L 265.981091 88.434783 
L 267.604364 95.446957 
L 269.227636 91.502609 
L 270.850909 92.37913 
L 272.474182 81.86087 
L 274.097455 91.502609 
L 275.720727 84.928696 
L 277.344 99.829565 
L 278.967273 88.873043 
L 280.590545 93.693913 
L 282.213818 86.243478 
L 283.837091 91.502609 
L 285.460364 85.805217 
L 287.083636 94.570435 
L 288.706909 94.132174 
L 290.330182 95.885217 
L 291.953455 91.94087 
L 293.576727 83.613913 
L 295.2 84.052174 
L 296.823273 90.187826 
L 298.446545 94.570435 
L 300.069818 103.335652 
L 301.693091 91.94087 
L 303.316364 95.446957 
L 304.939636 88.434783 
L 306.562909 86.243478 
L 308.186182 84.490435 
L 309.809455 101.144348 
L 311.432727 93.255652 
L 313.056 82.29913 
L 314.679273 88.434783 
L 316.302545 83.613913 
L 317.925818 85.805217 
L 319.549091 84.052174 
L 321.172364 80.546087 
L 322.795636 97.638261 
L 324.418909 82.737391 
L 327.665455 86.243478 
L 329.288727 89.749565 
L 330.912 95.885217 
L 332.535273 99.391304 
L 334.158545 106.403478 
L 335.781818 91.064348 
L 337.405091 89.749565 
L 339.028364 87.558261 
L 340.651636 78.354783 
L 342.274909 66.96 
L 343.898182 77.04 
L 345.521455 83.175652 
L 347.144727 76.601739 
L 348.768 88.434783 
L 350.391273 82.737391 
L 352.014545 96.323478 
L 353.637818 82.29913 
L 355.261091 93.693913 
L 356.884364 76.163478 
L 358.507636 71.342609 
L 360.130909 86.243478 
L 361.754182 78.354783 
L 365.000727 87.996522 
L 366.624 88.873043 
L 368.247273 90.626087 
L 369.870545 90.187826 
L 371.493818 91.064348 
L 373.117091 89.311304 
L 374.740364 89.749565 
L 376.363636 80.984348 
L 377.986909 85.805217 
L 379.610182 70.466087 
L 381.233455 91.064348 
L 382.856727 74.410435 
L 384.48 85.805217 
L 386.103273 77.916522 
L 387.726545 88.434783 
L 389.349818 93.255652 
L 390.973091 84.052174 
L 392.596364 88.873043 
L 394.219636 85.366957 
L 395.842909 87.12 
L 397.466182 85.805217 
L 399.089455 85.805217 
L 400.712727 75.286957 
L 402.336 76.163478 
L 403.959273 95.446957 
L 405.582545 83.613913 
L 407.205818 86.681739 
L 408.829091 87.996522 
L 412.075636 78.354783 
L 413.698909 80.984348 
L 415.322182 88.434783 
L 416.945455 91.502609 
L 418.568727 86.243478 
L 420.192 91.94087 
L 421.815273 73.095652 
L 423.438545 96.761739 
L 425.061818 91.502609 
L 426.685091 77.478261 
L 428.308364 86.681739 
L 429.931636 82.29913 
L 431.554909 76.601739 
L 433.178182 80.984348 
L 434.801455 87.558261 
L 436.424727 88.434783 
L 438.048 73.972174 
L 439.671273 84.052174 
L 441.294545 86.681739 
L 442.917818 92.37913 
L 444.541091 77.478261 
L 446.164364 89.749565 
L 447.787636 94.570435 
L 449.410909 79.231304 
L 451.034182 84.928696 
L 452.657455 84.928696 
L 454.280727 95.885217 
L 455.904 87.558261 
L 457.527273 86.681739 
L 459.150545 84.052174 
L 460.773818 88.873043 
L 462.397091 84.928696 
L 464.020364 75.725217 
L 465.643636 78.793043 
L 467.266909 98.514783 
L 468.890182 68.713043 
L 470.513455 88.873043 
L 472.136727 83.613913 
L 473.76 91.94087 
L 475.383273 78.354783 
L 477.006545 73.533913 
L 478.629818 81.422609 
L 480.253091 84.490435 
L 481.876364 81.86087 
L 483.499636 75.725217 
L 485.122909 90.187826 
L 486.746182 76.601739 
L 488.369455 91.064348 
L 489.992727 91.064348 
L 491.616 74.848696 
L 493.239273 75.725217 
L 494.862545 79.669565 
L 496.485818 80.546087 
L 498.109091 80.107826 
L 498.109091 80.107826 
" clip-path="url(#p523ababd12)" style="fill: none; stroke: #d62728; stroke-width: 1.5; stroke-linecap: square"/>
   </g>
   <g id="patch_3">
    <path d="M 72 384.48 
L 72 51.84 
" style="fill: none; stroke: #000000; stroke-width: 0.8; stroke-linejoin: miter; stroke-linecap: square"/>
   </g>
   <g id="patch_4">
    <path d="M 518.4 384.48 
L 518.4 51.84 
" style="fill: none; stroke: #000000; stroke-width: 0.8; stroke-linejoin: miter; stroke-linecap: square"/>
   </g>
   <g id="patch_5">
    <path d="M 72 384.48 
L 518.4 384.48 
" style="fill: none; stroke: #000000; stroke-width: 0.8; stroke-linejoin: miter; stroke-linecap: square"/>
   </g>
   <g id="patch_6">
    <path d="M 72 51.84 
L 518.4 51.84 
" style="fill: none; stroke: #000000; stroke-width: 0.8; stroke-linejoin: miter; stroke-linecap: square"/>
   </g>
   <g id="text_15">
    <!-- Max-Common -->
    <g transform="translate(253.606875 45.84)scale(0.12 -0.12)">
     <defs>
      <path id="DejaVuSans-4d" d="M 628 4666 
L 1569 4666 
L 2759 1491 
L 3956 4666 
L 4897 4666 
L 4897 0 
L 4281 0 
L 4281 4097 
L 3078 897 
L 2444 897 
L 1241 4097 
L 1241 0 
L 628 0 
L 628 4666 
z
" transform="scale(0.015625)"/>
      <path id="DejaVuSans-78" d="M 3513 3500 
L 2247 1797 
L 3578 0 
L 2900 0 
L 1881 1375 
L 863 0 
L 184 0 
L 1544 1831 
L 300 3500 
L 978 3500 
L 1906 2253 
L 2834 3500 
L 3513 3500 
z
" transform="scale(0.015625)"/>
      <path id="DejaVuSans-2d" d="M 313 2009 
L 1997 2009 
L 1997 1497 
L 313 1497 
L 313 2009 
z
" transform="scale(0.015625)"/>
     </defs>
     <use xlink:href="#DejaVuSans-4d"/>
     <use xlink:href="#DejaVuSans-61" x="86.279297"/>
     <use xlink:href="#DejaVuSans-78" x="147.558594"/>
     <use xlink:href="#DejaVuSans-2d" x="206.738281"/>
     <use xlink:href="#DejaVuSans-43" x="242.822266"/>
     <use xlink:href="#DejaVuSans-6f" x="312.646484"/>
     <use xlink:href="#DejaVuSans-6d" x="373.828125"/>
     <use xlink:href="#DejaVuSans-6d" x="471.240234"/>
     <use xlink:href="#DejaVuSans-6f" x="568.652344"/>
     <use xlink:href="#DejaVuSans-6e" x="629.833984"/>
    </g>
   </g>
   <g id="legend_1">
    <g id="patch_7">
     <path d="M 79 118.5525 
L 124.203125 118.5525 
Q 126.203125 118.5525 126.203125 116.5525 
L 126.203125 58.84 
Q 126.203125 56.84 124.203125 56.84 
L 79 56.84 
Q 77 56.84 77 58.84 
L 77 116.5525 
Q 77 118.5525 79 118.5525 
z
" style="fill: #ffffff; opacity: 0.8; stroke: #cccccc; stroke-linejoin: miter"/>
    </g>
    <g id="line2d_29">
     <path d="M 81 64.938438 
L 91 64.938438 
L 101 64.938438 
" style="fill: none; stroke: #1f77b4; stroke-width: 1.5; stroke-linecap: square"/>
    </g>
    <g id="text_16">
     <!-- V1 -->
     <g transform="translate(109 68.438438)scale(0.1 -0.1)">
      <defs>
       <path id="DejaVuSans-56" d="M 1831 0 
L 50 4666 
L 709 4666 
L 2188 738 
L 3669 4666 
L 4325 4666 
L 2547 0 
L 1831 0 
z
" transform="scale(0.015625)"/>
      </defs>
      <use xlink:href="#DejaVuSans-56"/>
      <use xlink:href="#DejaVuSans-31" x="68.408203"/>
     </g>
    </g>
    <g id="line2d_30">
     <path d="M 81 79.616563 
L 91 79.616563 
L 101 79.616563 
" style="fill: none; stroke: #ff7f0e; stroke-width: 1.5; stroke-linecap: square"/>
    </g>
    <g id="text_17">
     <!-- V2 -->
     <g transform="translate(109 83.116563)scale(0.1 -0.1)">
      <use xlink:href="#DejaVuSans-56"/>
      <use xlink:href="#DejaVuSans-32" x="68.408203"/>
     </g>
    </g>
    <g id="line2d_31">
     <path d="M 81 94.294688 
L 91 94.294688 
L 101 94.294688 
" style="fill: none; stroke: #2ca02c; stroke-width: 1.5; stroke-linecap: square"/>
    </g>
    <g id="text_18">
     <!-- V3 -->
     <g transform="translate(109 97.794688)scale(0.1 -0.1)">
      <use xlink:href="#DejaVuSans-56"/>
      <use xlink:href="#DejaVuSans-33" x="68.408203"/>
     </g>
    </g>
    <g id="line2d_32">
     <path d="M 81 108.972813 
L 91 108.972813 
L 101 108.972813 
" style="fill: none; stroke: #d62728; stroke-width: 1.5; stroke-linecap: square"/>
    </g>
    <g id="text_19">
     <!-- V4 -->
     <g transform="translate(109 112.472813)scale(0.1 -0.1)">
      <use xlink:href="#DejaVuSans-56"/>
      <use xlink:href="#DejaVuSans-34" x="68.408203"/>
     </g>
    </g>
   </g>
  </g>
 </g>
 <defs>
  <clipPath id="p523ababd12">
   <rect x="72" y="51.84" width="446.4" height="332.64"/>
  </clipPath>
 </defs>
</svg>
