<?xml version="1.0" encoding="utf-8" standalone="no"?>
<!DOCTYPE svg PUBLIC "-//W3C//DTD SVG 1.1//EN"
  "http://www.w3.org/Graphics/SVG/1.1/DTD/svg11.dtd">
<svg xmlns:xlink="http://www.w3.org/1999/xlink" width="576pt" height="432pt" viewBox="0 0 576 432" xmlns="http://www.w3.org/2000/svg" version="1.1">
 <metadata>
  <rdf:RDF xmlns:dc="http://purl.org/dc/elements/1.1/" xmlns:cc="http://creativecommons.org/ns#" xmlns:rdf="http://www.w3.org/1999/02/22-rdf-syntax-ns#">
   <cc:Work>
    <dc:type rdf:resource="http://purl.org/dc/dcmitype/StillImage"/>
    <dc:date>2023-08-08T10:33:42.295475</dc:date>
    <dc:format>image/svg+xml</dc:format>
    <dc:creator>
     <cc:Agent>
      <dc:title>Matplotlib v3.5.2, https://matplotlib.org/</dc:title>
     </cc:Agent>
    </dc:creator>
   </cc:Work>
  </rdf:RDF>
 </metadata>
 <defs>
  <style type="text/css">*{stroke-linejoin: round; stroke-linecap: butt}</style>
 </defs>
 <g id="figure_1">
  <g id="patch_1">
   <path d="M 0 432 
L 576 432 
L 576 0 
L 0 0 
z
" style="fill: #ffffff"/>
  </g>
  <g id="axes_1">
   <g id="patch_2">
    <path d="M 72 384.48 
L 518.4 384.48 
L 518.4 51.84 
L 72 51.84 
z
" style="fill: #ffffff"/>
   </g>
   <g id="matplotlib.axis_1">
    <g id="xtick_1">
     <g id="line2d_1">
      <path d="M 92.290909 384.48 
L 92.290909 51.84 
" clip-path="url(#p5c485bd62e)" style="fill: none; stroke: #b0b0b0; stroke-opacity: 0.5; stroke-width: 0.8; stroke-linecap: square"/>
     </g>
     <g id="line2d_2">
      <defs>
       <path id="m84357f4d6e" d="M 0 0 
L 0 3.5 
" style="stroke: #000000; stroke-width: 0.8"/>
      </defs>
      <g>
       <use xlink:href="#m84357f4d6e" x="92.290909" y="384.48" style="stroke: #000000; stroke-width: 0.8"/>
      </g>
     </g>
     <g id="text_1">
      <!-- 0 -->
      <g transform="translate(89.109659 399.078438)scale(0.1 -0.1)">
       <defs>
        <path id="DejaVuSans-30" d="M 2034 4250 
Q 1547 4250 1301 3770 
Q 1056 3291 1056 2328 
Q 1056 1369 1301 889 
Q 1547 409 2034 409 
Q 2525 409 2770 889 
Q 3016 1369 3016 2328 
Q 3016 3291 2770 3770 
Q 2525 4250 2034 4250 
z
M 2034 4750 
Q 2819 4750 3233 4129 
Q 3647 3509 3647 2328 
Q 3647 1150 3233 529 
Q 2819 -91 2034 -91 
Q 1250 -91 836 529 
Q 422 1150 422 2328 
Q 422 3509 836 4129 
Q 1250 4750 2034 4750 
z
" transform="scale(0.015625)"/>
       </defs>
       <use xlink:href="#DejaVuSans-30"/>
      </g>
     </g>
    </g>
    <g id="xtick_2">
     <g id="line2d_3">
      <path d="M 173.454545 384.48 
L 173.454545 51.84 
" clip-path="url(#p5c485bd62e)" style="fill: none; stroke: #b0b0b0; stroke-opacity: 0.5; stroke-width: 0.8; stroke-linecap: square"/>
     </g>
     <g id="line2d_4">
      <g>
       <use xlink:href="#m84357f4d6e" x="173.454545" y="384.48" style="stroke: #000000; stroke-width: 0.8"/>
      </g>
     </g>
     <g id="text_2">
      <!-- 50 -->
      <g transform="translate(167.092045 399.078438)scale(0.1 -0.1)">
       <defs>
        <path id="DejaVuSans-35" d="M 691 4666 
L 3169 4666 
L 3169 4134 
L 1269 4134 
L 1269 2991 
Q 1406 3038 1543 3061 
Q 1681 3084 1819 3084 
Q 2600 3084 3056 2656 
Q 3513 2228 3513 1497 
Q 3513 744 3044 326 
Q 2575 -91 1722 -91 
Q 1428 -91 1123 -41 
Q 819 9 494 109 
L 494 744 
Q 775 591 1075 516 
Q 1375 441 1709 441 
Q 2250 441 2565 725 
Q 2881 1009 2881 1497 
Q 2881 1984 2565 2268 
Q 2250 2553 1709 2553 
Q 1456 2553 1204 2497 
Q 953 2441 691 2322 
L 691 4666 
z
" transform="scale(0.015625)"/>
       </defs>
       <use xlink:href="#DejaVuSans-35"/>
       <use xlink:href="#DejaVuSans-30" x="63.623047"/>
      </g>
     </g>
    </g>
    <g id="xtick_3">
     <g id="line2d_5">
      <path d="M 254.618182 384.48 
L 254.618182 51.84 
" clip-path="url(#p5c485bd62e)" style="fill: none; stroke: #b0b0b0; stroke-opacity: 0.5; stroke-width: 0.8; stroke-linecap: square"/>
     </g>
     <g id="line2d_6">
      <g>
       <use xlink:href="#m84357f4d6e" x="254.618182" y="384.48" style="stroke: #000000; stroke-width: 0.8"/>
      </g>
     </g>
     <g id="text_3">
      <!-- 100 -->
      <g transform="translate(245.074432 399.078438)scale(0.1 -0.1)">
       <defs>
        <path id="DejaVuSans-31" d="M 794 531 
L 1825 531 
L 1825 4091 
L 703 3866 
L 703 4441 
L 1819 4666 
L 2450 4666 
L 2450 531 
L 3481 531 
L 3481 0 
L 794 0 
L 794 531 
z
" transform="scale(0.015625)"/>
       </defs>
       <use xlink:href="#DejaVuSans-31"/>
       <use xlink:href="#DejaVuSans-30" x="63.623047"/>
       <use xlink:href="#DejaVuSans-30" x="127.246094"/>
      </g>
     </g>
    </g>
    <g id="xtick_4">
     <g id="line2d_7">
      <path d="M 335.781818 384.48 
L 335.781818 51.84 
" clip-path="url(#p5c485bd62e)" style="fill: none; stroke: #b0b0b0; stroke-opacity: 0.5; stroke-width: 0.8; stroke-linecap: square"/>
     </g>
     <g id="line2d_8">
      <g>
       <use xlink:href="#m84357f4d6e" x="335.781818" y="384.48" style="stroke: #000000; stroke-width: 0.8"/>
      </g>
     </g>
     <g id="text_4">
      <!-- 150 -->
      <g transform="translate(326.238068 399.078438)scale(0.1 -0.1)">
       <use xlink:href="#DejaVuSans-31"/>
       <use xlink:href="#DejaVuSans-35" x="63.623047"/>
       <use xlink:href="#DejaVuSans-30" x="127.246094"/>
      </g>
     </g>
    </g>
    <g id="xtick_5">
     <g id="line2d_9">
      <path d="M 416.945455 384.48 
L 416.945455 51.84 
" clip-path="url(#p5c485bd62e)" style="fill: none; stroke: #b0b0b0; stroke-opacity: 0.5; stroke-width: 0.8; stroke-linecap: square"/>
     </g>
     <g id="line2d_10">
      <g>
       <use xlink:href="#m84357f4d6e" x="416.945455" y="384.48" style="stroke: #000000; stroke-width: 0.8"/>
      </g>
     </g>
     <g id="text_5">
      <!-- 200 -->
      <g transform="translate(407.401705 399.078438)scale(0.1 -0.1)">
       <defs>
        <path id="DejaVuSans-32" d="M 1228 531 
L 3431 531 
L 3431 0 
L 469 0 
L 469 531 
Q 828 903 1448 1529 
Q 2069 2156 2228 2338 
Q 2531 2678 2651 2914 
Q 2772 3150 2772 3378 
Q 2772 3750 2511 3984 
Q 2250 4219 1831 4219 
Q 1534 4219 1204 4116 
Q 875 4013 500 3803 
L 500 4441 
Q 881 4594 1212 4672 
Q 1544 4750 1819 4750 
Q 2544 4750 2975 4387 
Q 3406 4025 3406 3419 
Q 3406 3131 3298 2873 
Q 3191 2616 2906 2266 
Q 2828 2175 2409 1742 
Q 1991 1309 1228 531 
z
" transform="scale(0.015625)"/>
       </defs>
       <use xlink:href="#DejaVuSans-32"/>
       <use xlink:href="#DejaVuSans-30" x="63.623047"/>
       <use xlink:href="#DejaVuSans-30" x="127.246094"/>
      </g>
     </g>
    </g>
    <g id="xtick_6">
     <g id="line2d_11">
      <path d="M 498.109091 384.48 
L 498.109091 51.84 
" clip-path="url(#p5c485bd62e)" style="fill: none; stroke: #b0b0b0; stroke-opacity: 0.5; stroke-width: 0.8; stroke-linecap: square"/>
     </g>
     <g id="line2d_12">
      <g>
       <use xlink:href="#m84357f4d6e" x="498.109091" y="384.48" style="stroke: #000000; stroke-width: 0.8"/>
      </g>
     </g>
     <g id="text_6">
      <!-- 250 -->
      <g transform="translate(488.565341 399.078438)scale(0.1 -0.1)">
       <use xlink:href="#DejaVuSans-32"/>
       <use xlink:href="#DejaVuSans-35" x="63.623047"/>
       <use xlink:href="#DejaVuSans-30" x="127.246094"/>
      </g>
     </g>
    </g>
    <g id="text_7">
     <!-- Communication rounds -->
     <g transform="translate(237.083594 412.756563)scale(0.1 -0.1)">
      <defs>
       <path id="DejaVuSans-43" d="M 4122 4306 
L 4122 3641 
Q 3803 3938 3442 4084 
Q 3081 4231 2675 4231 
Q 1875 4231 1450 3742 
Q 1025 3253 1025 2328 
Q 1025 1406 1450 917 
Q 1875 428 2675 428 
Q 3081 428 3442 575 
Q 3803 722 4122 1019 
L 4122 359 
Q 3791 134 3420 21 
Q 3050 -91 2638 -91 
Q 1578 -91 968 557 
Q 359 1206 359 2328 
Q 359 3453 968 4101 
Q 1578 4750 2638 4750 
Q 3056 4750 3426 4639 
Q 3797 4528 4122 4306 
z
" transform="scale(0.015625)"/>
       <path id="DejaVuSans-6f" d="M 1959 3097 
Q 1497 3097 1228 2736 
Q 959 2375 959 1747 
Q 959 1119 1226 758 
Q 1494 397 1959 397 
Q 2419 397 2687 759 
Q 2956 1122 2956 1747 
Q 2956 2369 2687 2733 
Q 2419 3097 1959 3097 
z
M 1959 3584 
Q 2709 3584 3137 3096 
Q 3566 2609 3566 1747 
Q 3566 888 3137 398 
Q 2709 -91 1959 -91 
Q 1206 -91 779 398 
Q 353 888 353 1747 
Q 353 2609 779 3096 
Q 1206 3584 1959 3584 
z
" transform="scale(0.015625)"/>
       <path id="DejaVuSans-6d" d="M 3328 2828 
Q 3544 3216 3844 3400 
Q 4144 3584 4550 3584 
Q 5097 3584 5394 3201 
Q 5691 2819 5691 2113 
L 5691 0 
L 5113 0 
L 5113 2094 
Q 5113 2597 4934 2840 
Q 4756 3084 4391 3084 
Q 3944 3084 3684 2787 
Q 3425 2491 3425 1978 
L 3425 0 
L 2847 0 
L 2847 2094 
Q 2847 2600 2669 2842 
Q 2491 3084 2119 3084 
Q 1678 3084 1418 2786 
Q 1159 2488 1159 1978 
L 1159 0 
L 581 0 
L 581 3500 
L 1159 3500 
L 1159 2956 
Q 1356 3278 1631 3431 
Q 1906 3584 2284 3584 
Q 2666 3584 2933 3390 
Q 3200 3197 3328 2828 
z
" transform="scale(0.015625)"/>
       <path id="DejaVuSans-75" d="M 544 1381 
L 544 3500 
L 1119 3500 
L 1119 1403 
Q 1119 906 1312 657 
Q 1506 409 1894 409 
Q 2359 409 2629 706 
Q 2900 1003 2900 1516 
L 2900 3500 
L 3475 3500 
L 3475 0 
L 2900 0 
L 2900 538 
Q 2691 219 2414 64 
Q 2138 -91 1772 -91 
Q 1169 -91 856 284 
Q 544 659 544 1381 
z
M 1991 3584 
L 1991 3584 
z
" transform="scale(0.015625)"/>
       <path id="DejaVuSans-6e" d="M 3513 2113 
L 3513 0 
L 2938 0 
L 2938 2094 
Q 2938 2591 2744 2837 
Q 2550 3084 2163 3084 
Q 1697 3084 1428 2787 
Q 1159 2491 1159 1978 
L 1159 0 
L 581 0 
L 581 3500 
L 1159 3500 
L 1159 2956 
Q 1366 3272 1645 3428 
Q 1925 3584 2291 3584 
Q 2894 3584 3203 3211 
Q 3513 2838 3513 2113 
z
" transform="scale(0.015625)"/>
       <path id="DejaVuSans-69" d="M 603 3500 
L 1178 3500 
L 1178 0 
L 603 0 
L 603 3500 
z
M 603 4863 
L 1178 4863 
L 1178 4134 
L 603 4134 
L 603 4863 
z
" transform="scale(0.015625)"/>
       <path id="DejaVuSans-63" d="M 3122 3366 
L 3122 2828 
Q 2878 2963 2633 3030 
Q 2388 3097 2138 3097 
Q 1578 3097 1268 2742 
Q 959 2388 959 1747 
Q 959 1106 1268 751 
Q 1578 397 2138 397 
Q 2388 397 2633 464 
Q 2878 531 3122 666 
L 3122 134 
Q 2881 22 2623 -34 
Q 2366 -91 2075 -91 
Q 1284 -91 818 406 
Q 353 903 353 1747 
Q 353 2603 823 3093 
Q 1294 3584 2113 3584 
Q 2378 3584 2631 3529 
Q 2884 3475 3122 3366 
z
" transform="scale(0.015625)"/>
       <path id="DejaVuSans-61" d="M 2194 1759 
Q 1497 1759 1228 1600 
Q 959 1441 959 1056 
Q 959 750 1161 570 
Q 1363 391 1709 391 
Q 2188 391 2477 730 
Q 2766 1069 2766 1631 
L 2766 1759 
L 2194 1759 
z
M 3341 1997 
L 3341 0 
L 2766 0 
L 2766 531 
Q 2569 213 2275 61 
Q 1981 -91 1556 -91 
Q 1019 -91 701 211 
Q 384 513 384 1019 
Q 384 1609 779 1909 
Q 1175 2209 1959 2209 
L 2766 2209 
L 2766 2266 
Q 2766 2663 2505 2880 
Q 2244 3097 1772 3097 
Q 1472 3097 1187 3025 
Q 903 2953 641 2809 
L 641 3341 
Q 956 3463 1253 3523 
Q 1550 3584 1831 3584 
Q 2591 3584 2966 3190 
Q 3341 2797 3341 1997 
z
" transform="scale(0.015625)"/>
       <path id="DejaVuSans-74" d="M 1172 4494 
L 1172 3500 
L 2356 3500 
L 2356 3053 
L 1172 3053 
L 1172 1153 
Q 1172 725 1289 603 
Q 1406 481 1766 481 
L 2356 481 
L 2356 0 
L 1766 0 
Q 1100 0 847 248 
Q 594 497 594 1153 
L 594 3053 
L 172 3053 
L 172 3500 
L 594 3500 
L 594 4494 
L 1172 4494 
z
" transform="scale(0.015625)"/>
       <path id="DejaVuSans-20" transform="scale(0.015625)"/>
       <path id="DejaVuSans-72" d="M 2631 2963 
Q 2534 3019 2420 3045 
Q 2306 3072 2169 3072 
Q 1681 3072 1420 2755 
Q 1159 2438 1159 1844 
L 1159 0 
L 581 0 
L 581 3500 
L 1159 3500 
L 1159 2956 
Q 1341 3275 1631 3429 
Q 1922 3584 2338 3584 
Q 2397 3584 2469 3576 
Q 2541 3569 2628 3553 
L 2631 2963 
z
" transform="scale(0.015625)"/>
       <path id="DejaVuSans-64" d="M 2906 2969 
L 2906 4863 
L 3481 4863 
L 3481 0 
L 2906 0 
L 2906 525 
Q 2725 213 2448 61 
Q 2172 -91 1784 -91 
Q 1150 -91 751 415 
Q 353 922 353 1747 
Q 353 2572 751 3078 
Q 1150 3584 1784 3584 
Q 2172 3584 2448 3432 
Q 2725 3281 2906 2969 
z
M 947 1747 
Q 947 1113 1208 752 
Q 1469 391 1925 391 
Q 2381 391 2643 752 
Q 2906 1113 2906 1747 
Q 2906 2381 2643 2742 
Q 2381 3103 1925 3103 
Q 1469 3103 1208 2742 
Q 947 2381 947 1747 
z
" transform="scale(0.015625)"/>
       <path id="DejaVuSans-73" d="M 2834 3397 
L 2834 2853 
Q 2591 2978 2328 3040 
Q 2066 3103 1784 3103 
Q 1356 3103 1142 2972 
Q 928 2841 928 2578 
Q 928 2378 1081 2264 
Q 1234 2150 1697 2047 
L 1894 2003 
Q 2506 1872 2764 1633 
Q 3022 1394 3022 966 
Q 3022 478 2636 193 
Q 2250 -91 1575 -91 
Q 1294 -91 989 -36 
Q 684 19 347 128 
L 347 722 
Q 666 556 975 473 
Q 1284 391 1588 391 
Q 1994 391 2212 530 
Q 2431 669 2431 922 
Q 2431 1156 2273 1281 
Q 2116 1406 1581 1522 
L 1381 1569 
Q 847 1681 609 1914 
Q 372 2147 372 2553 
Q 372 3047 722 3315 
Q 1072 3584 1716 3584 
Q 2034 3584 2315 3537 
Q 2597 3491 2834 3397 
z
" transform="scale(0.015625)"/>
      </defs>
      <use xlink:href="#DejaVuSans-43"/>
      <use xlink:href="#DejaVuSans-6f" x="69.824219"/>
      <use xlink:href="#DejaVuSans-6d" x="131.005859"/>
      <use xlink:href="#DejaVuSans-6d" x="228.417969"/>
      <use xlink:href="#DejaVuSans-75" x="325.830078"/>
      <use xlink:href="#DejaVuSans-6e" x="389.208984"/>
      <use xlink:href="#DejaVuSans-69" x="452.587891"/>
      <use xlink:href="#DejaVuSans-63" x="480.371094"/>
      <use xlink:href="#DejaVuSans-61" x="535.351562"/>
      <use xlink:href="#DejaVuSans-74" x="596.630859"/>
      <use xlink:href="#DejaVuSans-69" x="635.839844"/>
      <use xlink:href="#DejaVuSans-6f" x="663.623047"/>
      <use xlink:href="#DejaVuSans-6e" x="724.804688"/>
      <use xlink:href="#DejaVuSans-20" x="788.183594"/>
      <use xlink:href="#DejaVuSans-72" x="819.970703"/>
      <use xlink:href="#DejaVuSans-6f" x="858.833984"/>
      <use xlink:href="#DejaVuSans-75" x="920.015625"/>
      <use xlink:href="#DejaVuSans-6e" x="983.394531"/>
      <use xlink:href="#DejaVuSans-64" x="1046.773438"/>
      <use xlink:href="#DejaVuSans-73" x="1110.25"/>
     </g>
    </g>
   </g>
   <g id="matplotlib.axis_2">
    <g id="ytick_1">
     <g id="line2d_13">
      <path d="M 72 360.4 
L 518.4 360.4 
" clip-path="url(#p5c485bd62e)" style="fill: none; stroke: #b0b0b0; stroke-opacity: 0.5; stroke-width: 0.8; stroke-linecap: square"/>
     </g>
     <g id="line2d_14">
      <defs>
       <path id="mebb9c82ff3" d="M 0 0 
L -3.5 0 
" style="stroke: #000000; stroke-width: 0.8"/>
      </defs>
      <g>
       <use xlink:href="#mebb9c82ff3" x="72" y="360.4" style="stroke: #000000; stroke-width: 0.8"/>
      </g>
     </g>
     <g id="text_8">
      <!-- 0.3 -->
      <g transform="translate(49.096875 364.199219)scale(0.1 -0.1)">
       <defs>
        <path id="DejaVuSans-2e" d="M 684 794 
L 1344 794 
L 1344 0 
L 684 0 
L 684 794 
z
" transform="scale(0.015625)"/>
        <path id="DejaVuSans-33" d="M 2597 2516 
Q 3050 2419 3304 2112 
Q 3559 1806 3559 1356 
Q 3559 666 3084 287 
Q 2609 -91 1734 -91 
Q 1441 -91 1130 -33 
Q 819 25 488 141 
L 488 750 
Q 750 597 1062 519 
Q 1375 441 1716 441 
Q 2309 441 2620 675 
Q 2931 909 2931 1356 
Q 2931 1769 2642 2001 
Q 2353 2234 1838 2234 
L 1294 2234 
L 1294 2753 
L 1863 2753 
Q 2328 2753 2575 2939 
Q 2822 3125 2822 3475 
Q 2822 3834 2567 4026 
Q 2313 4219 1838 4219 
Q 1578 4219 1281 4162 
Q 984 4106 628 3988 
L 628 4550 
Q 988 4650 1302 4700 
Q 1616 4750 1894 4750 
Q 2613 4750 3031 4423 
Q 3450 4097 3450 3541 
Q 3450 3153 3228 2886 
Q 3006 2619 2597 2516 
z
" transform="scale(0.015625)"/>
       </defs>
       <use xlink:href="#DejaVuSans-30"/>
       <use xlink:href="#DejaVuSans-2e" x="63.623047"/>
       <use xlink:href="#DejaVuSans-33" x="95.410156"/>
      </g>
     </g>
    </g>
    <g id="ytick_2">
     <g id="line2d_15">
      <path d="M 72 304.4 
L 518.4 304.4 
" clip-path="url(#p5c485bd62e)" style="fill: none; stroke: #b0b0b0; stroke-opacity: 0.5; stroke-width: 0.8; stroke-linecap: square"/>
     </g>
     <g id="line2d_16">
      <g>
       <use xlink:href="#mebb9c82ff3" x="72" y="304.4" style="stroke: #000000; stroke-width: 0.8"/>
      </g>
     </g>
     <g id="text_9">
      <!-- 0.4 -->
      <g transform="translate(49.096875 308.199219)scale(0.1 -0.1)">
       <defs>
        <path id="DejaVuSans-34" d="M 2419 4116 
L 825 1625 
L 2419 1625 
L 2419 4116 
z
M 2253 4666 
L 3047 4666 
L 3047 1625 
L 3713 1625 
L 3713 1100 
L 3047 1100 
L 3047 0 
L 2419 0 
L 2419 1100 
L 313 1100 
L 313 1709 
L 2253 4666 
z
" transform="scale(0.015625)"/>
       </defs>
       <use xlink:href="#DejaVuSans-30"/>
       <use xlink:href="#DejaVuSans-2e" x="63.623047"/>
       <use xlink:href="#DejaVuSans-34" x="95.410156"/>
      </g>
     </g>
    </g>
    <g id="ytick_3">
     <g id="line2d_17">
      <path d="M 72 248.4 
L 518.4 248.4 
" clip-path="url(#p5c485bd62e)" style="fill: none; stroke: #b0b0b0; stroke-opacity: 0.5; stroke-width: 0.8; stroke-linecap: square"/>
     </g>
     <g id="line2d_18">
      <g>
       <use xlink:href="#mebb9c82ff3" x="72" y="248.4" style="stroke: #000000; stroke-width: 0.8"/>
      </g>
     </g>
     <g id="text_10">
      <!-- 0.5 -->
      <g transform="translate(49.096875 252.199219)scale(0.1 -0.1)">
       <use xlink:href="#DejaVuSans-30"/>
       <use xlink:href="#DejaVuSans-2e" x="63.623047"/>
       <use xlink:href="#DejaVuSans-35" x="95.410156"/>
      </g>
     </g>
    </g>
    <g id="ytick_4">
     <g id="line2d_19">
      <path d="M 72 192.4 
L 518.4 192.4 
" clip-path="url(#p5c485bd62e)" style="fill: none; stroke: #b0b0b0; stroke-opacity: 0.5; stroke-width: 0.8; stroke-linecap: square"/>
     </g>
     <g id="line2d_20">
      <g>
       <use xlink:href="#mebb9c82ff3" x="72" y="192.4" style="stroke: #000000; stroke-width: 0.8"/>
      </g>
     </g>
     <g id="text_11">
      <!-- 0.6 -->
      <g transform="translate(49.096875 196.199219)scale(0.1 -0.1)">
       <defs>
        <path id="DejaVuSans-36" d="M 2113 2584 
Q 1688 2584 1439 2293 
Q 1191 2003 1191 1497 
Q 1191 994 1439 701 
Q 1688 409 2113 409 
Q 2538 409 2786 701 
Q 3034 994 3034 1497 
Q 3034 2003 2786 2293 
Q 2538 2584 2113 2584 
z
M 3366 4563 
L 3366 3988 
Q 3128 4100 2886 4159 
Q 2644 4219 2406 4219 
Q 1781 4219 1451 3797 
Q 1122 3375 1075 2522 
Q 1259 2794 1537 2939 
Q 1816 3084 2150 3084 
Q 2853 3084 3261 2657 
Q 3669 2231 3669 1497 
Q 3669 778 3244 343 
Q 2819 -91 2113 -91 
Q 1303 -91 875 529 
Q 447 1150 447 2328 
Q 447 3434 972 4092 
Q 1497 4750 2381 4750 
Q 2619 4750 2861 4703 
Q 3103 4656 3366 4563 
z
" transform="scale(0.015625)"/>
       </defs>
       <use xlink:href="#DejaVuSans-30"/>
       <use xlink:href="#DejaVuSans-2e" x="63.623047"/>
       <use xlink:href="#DejaVuSans-36" x="95.410156"/>
      </g>
     </g>
    </g>
    <g id="ytick_5">
     <g id="line2d_21">
      <path d="M 72 136.4 
L 518.4 136.4 
" clip-path="url(#p5c485bd62e)" style="fill: none; stroke: #b0b0b0; stroke-opacity: 0.5; stroke-width: 0.8; stroke-linecap: square"/>
     </g>
     <g id="line2d_22">
      <g>
       <use xlink:href="#mebb9c82ff3" x="72" y="136.4" style="stroke: #000000; stroke-width: 0.8"/>
      </g>
     </g>
     <g id="text_12">
      <!-- 0.7 -->
      <g transform="translate(49.096875 140.199219)scale(0.1 -0.1)">
       <defs>
        <path id="DejaVuSans-37" d="M 525 4666 
L 3525 4666 
L 3525 4397 
L 1831 0 
L 1172 0 
L 2766 4134 
L 525 4134 
L 525 4666 
z
" transform="scale(0.015625)"/>
       </defs>
       <use xlink:href="#DejaVuSans-30"/>
       <use xlink:href="#DejaVuSans-2e" x="63.623047"/>
       <use xlink:href="#DejaVuSans-37" x="95.410156"/>
      </g>
     </g>
    </g>
    <g id="ytick_6">
     <g id="line2d_23">
      <path d="M 72 80.4 
L 518.4 80.4 
" clip-path="url(#p5c485bd62e)" style="fill: none; stroke: #b0b0b0; stroke-opacity: 0.5; stroke-width: 0.8; stroke-linecap: square"/>
     </g>
     <g id="line2d_24">
      <g>
       <use xlink:href="#mebb9c82ff3" x="72" y="80.4" style="stroke: #000000; stroke-width: 0.8"/>
      </g>
     </g>
     <g id="text_13">
      <!-- 0.8 -->
      <g transform="translate(49.096875 84.199219)scale(0.1 -0.1)">
       <defs>
        <path id="DejaVuSans-38" d="M 2034 2216 
Q 1584 2216 1326 1975 
Q 1069 1734 1069 1313 
Q 1069 891 1326 650 
Q 1584 409 2034 409 
Q 2484 409 2743 651 
Q 3003 894 3003 1313 
Q 3003 1734 2745 1975 
Q 2488 2216 2034 2216 
z
M 1403 2484 
Q 997 2584 770 2862 
Q 544 3141 544 3541 
Q 544 4100 942 4425 
Q 1341 4750 2034 4750 
Q 2731 4750 3128 4425 
Q 3525 4100 3525 3541 
Q 3525 3141 3298 2862 
Q 3072 2584 2669 2484 
Q 3125 2378 3379 2068 
Q 3634 1759 3634 1313 
Q 3634 634 3220 271 
Q 2806 -91 2034 -91 
Q 1263 -91 848 271 
Q 434 634 434 1313 
Q 434 1759 690 2068 
Q 947 2378 1403 2484 
z
M 1172 3481 
Q 1172 3119 1398 2916 
Q 1625 2713 2034 2713 
Q 2441 2713 2670 2916 
Q 2900 3119 2900 3481 
Q 2900 3844 2670 4047 
Q 2441 4250 2034 4250 
Q 1625 4250 1398 4047 
Q 1172 3844 1172 3481 
z
" transform="scale(0.015625)"/>
       </defs>
       <use xlink:href="#DejaVuSans-30"/>
       <use xlink:href="#DejaVuSans-2e" x="63.623047"/>
       <use xlink:href="#DejaVuSans-38" x="95.410156"/>
      </g>
     </g>
    </g>
    <g id="text_14">
     <!-- Accuracy -->
     <g transform="translate(43.017187 240.988125)rotate(-90)scale(0.1 -0.1)">
      <defs>
       <path id="DejaVuSans-41" d="M 2188 4044 
L 1331 1722 
L 3047 1722 
L 2188 4044 
z
M 1831 4666 
L 2547 4666 
L 4325 0 
L 3669 0 
L 3244 1197 
L 1141 1197 
L 716 0 
L 50 0 
L 1831 4666 
z
" transform="scale(0.015625)"/>
       <path id="DejaVuSans-79" d="M 2059 -325 
Q 1816 -950 1584 -1140 
Q 1353 -1331 966 -1331 
L 506 -1331 
L 506 -850 
L 844 -850 
Q 1081 -850 1212 -737 
Q 1344 -625 1503 -206 
L 1606 56 
L 191 3500 
L 800 3500 
L 1894 763 
L 2988 3500 
L 3597 3500 
L 2059 -325 
z
" transform="scale(0.015625)"/>
      </defs>
      <use xlink:href="#DejaVuSans-41"/>
      <use xlink:href="#DejaVuSans-63" x="66.658203"/>
      <use xlink:href="#DejaVuSans-63" x="121.638672"/>
      <use xlink:href="#DejaVuSans-75" x="176.619141"/>
      <use xlink:href="#DejaVuSans-72" x="239.998047"/>
      <use xlink:href="#DejaVuSans-61" x="281.111328"/>
      <use xlink:href="#DejaVuSans-63" x="342.390625"/>
      <use xlink:href="#DejaVuSans-79" x="397.371094"/>
     </g>
    </g>
   </g>
   <g id="line2d_25">
    <path d="M 92.290909 337.104 
L 93.914182 350.096 
L 95.537455 325.456 
L 97.160727 333.968 
L 98.784 293.2 
L 100.407273 267.664 
L 102.030545 274.832 
L 103.653818 275.28 
L 105.277091 247.504 
L 106.900364 240.336 
L 108.523636 269.904 
L 110.146909 237.648 
L 111.770182 237.2 
L 113.393455 222.416 
L 115.016727 220.624 
L 116.64 217.936 
L 118.263273 210.768 
L 119.886545 195.088 
L 121.509818 207.632 
L 123.133091 191.952 
L 124.756364 193.296 
L 126.379636 185.68 
L 128.002909 168.208 
L 129.626182 167.76 
L 131.249455 170.896 
L 132.872727 165.52 
L 134.496 172.24 
L 136.119273 164.624 
L 137.742545 152.528 
L 139.365818 161.936 
L 140.989091 159.248 
L 142.612364 142.224 
L 144.235636 142.672 
L 145.858909 147.6 
L 147.482182 150.736 
L 149.105455 142.672 
L 150.728727 139.984 
L 152.352 147.6 
L 153.975273 143.12 
L 155.598545 143.568 
L 157.221818 144.912 
L 158.845091 134.608 
L 160.468364 129.68 
L 162.091636 139.984 
L 163.714909 133.264 
L 165.338182 140.88 
L 166.961455 136.4 
L 168.584727 123.408 
L 170.208 125.648 
L 171.831273 139.088 
L 173.454545 136.4 
L 175.077818 126.992 
L 176.701091 118.48 
L 178.324364 126.992 
L 179.947636 123.856 
L 181.570909 127.44 
L 183.194182 118.032 
L 184.817455 119.376 
L 186.440727 118.48 
L 188.064 127.888 
L 189.687273 116.24 
L 191.310545 121.616 
L 192.933818 121.616 
L 194.557091 122.96 
L 196.180364 121.168 
L 197.803636 114.896 
L 199.426909 114.448 
L 201.050182 111.76 
L 202.673455 121.168 
L 204.296727 118.48 
L 205.92 109.52 
L 207.543273 113.104 
L 209.166545 105.936 
L 210.789818 108.624 
L 212.413091 121.616 
L 214.036364 116.24 
L 215.659636 105.488 
L 217.282909 111.76 
L 218.906182 98.768 
L 220.529455 116.24 
L 222.152727 106.384 
L 225.399273 108.176 
L 227.022545 105.936 
L 228.645818 104.592 
L 230.269091 120.272 
L 231.892364 103.696 
L 233.515636 110.864 
L 235.138909 109.072 
L 236.762182 111.312 
L 238.385455 96.528 
L 240.008727 94.288 
L 241.632 101.904 
L 243.255273 105.04 
L 244.878545 107.28 
L 246.501818 105.488 
L 248.125091 106.384 
L 249.748364 103.248 
L 251.371636 99.664 
L 252.994909 111.76 
L 254.618182 95.184 
L 256.241455 109.072 
L 257.864727 100.112 
L 259.488 105.04 
L 261.111273 101.008 
L 262.734545 107.728 
L 264.357818 108.176 
L 265.981091 96.528 
L 267.604364 96.528 
L 269.227636 106.832 
L 270.850909 93.84 
L 272.474182 97.424 
L 274.097455 89.808 
L 275.720727 98.768 
L 277.344 102.352 
L 278.967273 95.632 
L 280.590545 95.184 
L 282.213818 109.968 
L 283.837091 97.872 
L 285.460364 92.496 
L 287.083636 94.736 
L 288.706909 101.008 
L 290.330182 97.872 
L 291.953455 115.344 
L 293.576727 88.464 
L 295.2 103.696 
L 296.823273 107.728 
L 298.446545 95.632 
L 300.069818 92.496 
L 301.693091 93.392 
L 303.316364 92.048 
L 304.939636 95.184 
L 306.562909 96.08 
L 308.186182 111.76 
L 309.809455 110.416 
L 311.432727 98.768 
L 313.056 98.32 
L 314.679273 100.56 
L 316.302545 98.768 
L 317.925818 102.8 
L 321.172364 98.32 
L 322.795636 107.28 
L 324.418909 79.056 
L 326.042182 96.976 
L 327.665455 95.184 
L 329.288727 94.736 
L 330.912 93.84 
L 332.535273 99.216 
L 334.158545 91.6 
L 335.781818 100.112 
L 337.405091 99.664 
L 339.028364 89.808 
L 340.651636 96.08 
L 342.274909 106.384 
L 343.898182 100.112 
L 345.521455 97.424 
L 347.144727 77.712 
L 348.768 96.08 
L 350.391273 91.6 
L 352.014545 83.536 
L 353.637818 85.328 
L 355.261091 89.36 
L 356.884364 90.704 
L 358.507636 94.736 
L 360.130909 88.464 
L 361.754182 84.432 
L 363.377455 96.08 
L 365.000727 109.968 
L 366.624 96.08 
L 368.247273 93.84 
L 369.870545 93.392 
L 371.493818 88.912 
L 373.117091 78.16 
L 374.740364 91.6 
L 376.363636 89.808 
L 377.986909 90.256 
L 379.610182 85.776 
L 381.233455 88.912 
L 382.856727 99.664 
L 384.48 83.088 
L 386.103273 85.776 
L 387.726545 77.712 
L 389.349818 103.696 
L 390.973091 92.944 
L 392.596364 91.152 
L 394.219636 91.152 
L 395.842909 94.736 
L 397.466182 85.328 
L 399.089455 96.976 
L 400.712727 88.016 
L 402.336 90.704 
L 403.959273 94.288 
L 405.582545 92.944 
L 407.205818 82.64 
L 408.829091 92.048 
L 410.452364 80.848 
L 412.075636 89.808 
L 413.698909 82.64 
L 415.322182 86.224 
L 416.945455 82.192 
L 418.568727 95.632 
L 420.192 92.496 
L 421.815273 91.6 
L 423.438545 84.432 
L 425.061818 86.224 
L 426.685091 91.152 
L 428.308364 96.976 
L 429.931636 92.048 
L 431.554909 92.048 
L 433.178182 90.256 
L 434.801455 83.536 
L 436.424727 83.984 
L 438.048 82.64 
L 439.671273 93.84 
L 441.294545 92.944 
L 442.917818 88.464 
L 444.541091 88.464 
L 446.164364 94.288 
L 447.787636 89.808 
L 449.410909 88.464 
L 451.034182 84.432 
L 452.657455 97.872 
L 454.280727 80.848 
L 455.904 87.12 
L 457.527273 85.328 
L 459.150545 83.088 
L 460.773818 93.84 
L 462.397091 93.84 
L 464.020364 88.464 
L 465.643636 85.328 
L 467.266909 74.128 
L 468.890182 79.056 
L 470.513455 84.88 
L 472.136727 82.192 
L 473.76 90.704 
L 475.383273 97.424 
L 477.006545 85.776 
L 478.629818 83.536 
L 480.253091 88.016 
L 481.876364 82.64 
L 483.499636 89.36 
L 485.122909 89.808 
L 486.746182 95.632 
L 488.369455 83.088 
L 489.992727 93.392 
L 491.616 87.12 
L 493.239273 92.944 
L 494.862545 95.184 
L 496.485818 87.12 
L 498.109091 96.528 
L 498.109091 96.528 
" clip-path="url(#p5c485bd62e)" style="fill: none; stroke: #1f77b4; stroke-width: 1.5; stroke-linecap: square"/>
   </g>
   <g id="line2d_26">
    <path d="M 92.290909 348.304 
L 93.914182 363.984 
L 95.537455 359.952 
L 97.160727 315.152 
L 98.784 309.776 
L 100.407273 315.152 
L 102.030545 304.848 
L 103.653818 278.416 
L 105.277091 260.048 
L 106.900364 267.664 
L 108.523636 254.672 
L 110.146909 256.016 
L 111.770182 254.672 
L 115.016727 219.728 
L 116.64 219.728 
L 118.263273 210.32 
L 119.886545 221.968 
L 121.509818 192.848 
L 123.133091 191.056 
L 124.756364 192.848 
L 126.379636 202.704 
L 128.002909 173.584 
L 129.626182 182.544 
L 131.249455 182.096 
L 132.872727 159.696 
L 134.496 180.304 
L 136.119273 170.448 
L 137.742545 163.28 
L 139.365818 162.384 
L 140.989091 151.184 
L 142.612364 155.664 
L 144.235636 141.776 
L 145.858909 159.696 
L 147.482182 140.432 
L 149.105455 150.736 
L 150.728727 145.36 
L 152.352 139.088 
L 153.975273 122.96 
L 155.598545 133.264 
L 157.221818 135.056 
L 158.845091 128.336 
L 160.468364 136.848 
L 162.091636 123.408 
L 163.714909 137.744 
L 165.338182 141.328 
L 166.961455 113.104 
L 168.584727 134.608 
L 170.208 135.952 
L 171.831273 121.616 
L 173.454545 133.712 
L 175.077818 111.76 
L 176.701091 115.792 
L 178.324364 116.688 
L 179.947636 127.888 
L 181.570909 112.656 
L 183.194182 117.584 
L 184.817455 113.104 
L 186.440727 114.448 
L 188.064 114.896 
L 189.687273 111.312 
L 191.310545 122.96 
L 192.933818 113.552 
L 194.557091 110.416 
L 196.180364 105.04 
L 197.803636 105.936 
L 199.426909 120.72 
L 201.050182 112.208 
L 202.673455 112.208 
L 204.296727 113.104 
L 205.92 104.144 
L 207.543273 118.032 
L 209.166545 128.336 
L 210.789818 118.928 
L 212.413091 110.416 
L 214.036364 118.48 
L 215.659636 99.216 
L 217.282909 94.288 
L 218.906182 103.248 
L 220.529455 114.448 
L 222.152727 109.072 
L 223.776 111.312 
L 225.399273 118.032 
L 227.022545 101.008 
L 228.645818 101.008 
L 230.269091 101.904 
L 231.892364 114.448 
L 233.515636 102.352 
L 235.138909 106.384 
L 236.762182 106.832 
L 238.385455 96.976 
L 240.008727 90.704 
L 243.255273 91.6 
L 244.878545 87.568 
L 246.501818 95.632 
L 248.125091 112.208 
L 249.748364 109.968 
L 251.371636 106.384 
L 252.994909 96.976 
L 254.618182 100.56 
L 256.241455 99.216 
L 257.864727 104.592 
L 259.488 100.56 
L 261.111273 95.184 
L 262.734545 92.944 
L 264.357818 101.008 
L 265.981091 106.832 
L 267.604364 106.832 
L 269.227636 84.432 
L 270.850909 81.744 
L 272.474182 91.152 
L 274.097455 90.704 
L 275.720727 101.008 
L 277.344 95.632 
L 278.967273 101.904 
L 280.590545 86.672 
L 282.213818 99.664 
L 283.837091 105.936 
L 285.460364 84.88 
L 287.083636 89.36 
L 288.706909 100.56 
L 290.330182 104.144 
L 291.953455 105.04 
L 293.576727 97.872 
L 295.2 96.528 
L 296.823273 94.288 
L 298.446545 100.112 
L 300.069818 93.84 
L 301.693091 101.904 
L 303.316364 81.296 
L 304.939636 83.984 
L 306.562909 92.944 
L 308.186182 93.84 
L 309.809455 78.608 
L 311.432727 84.88 
L 313.056 84.432 
L 314.679273 89.808 
L 316.302545 98.32 
L 317.925818 102.8 
L 319.549091 88.464 
L 321.172364 97.424 
L 322.795636 90.256 
L 324.418909 96.08 
L 326.042182 93.84 
L 327.665455 89.36 
L 329.288727 78.608 
L 330.912 84.432 
L 332.535273 89.36 
L 334.158545 85.776 
L 335.781818 91.6 
L 337.405091 102.8 
L 339.028364 84.88 
L 340.651636 82.192 
L 342.274909 88.016 
L 343.898182 89.36 
L 345.521455 89.808 
L 347.144727 88.016 
L 348.768 103.696 
L 350.391273 91.6 
L 352.014545 90.704 
L 353.637818 90.256 
L 355.261091 93.84 
L 356.884364 94.736 
L 358.507636 84.88 
L 360.130909 90.704 
L 361.754182 83.088 
L 363.377455 87.12 
L 365.000727 79.504 
L 366.624 86.672 
L 368.247273 87.12 
L 369.870545 89.36 
L 371.493818 84.432 
L 373.117091 88.912 
L 374.740364 92.048 
L 376.363636 100.56 
L 377.986909 75.472 
L 379.610182 75.024 
L 381.233455 75.024 
L 382.856727 94.736 
L 384.48 81.296 
L 386.103273 79.504 
L 387.726545 83.536 
L 389.349818 88.912 
L 390.973091 76.816 
L 392.596364 91.152 
L 394.219636 86.672 
L 395.842909 94.288 
L 397.466182 91.152 
L 399.089455 92.496 
L 400.712727 81.296 
L 402.336 80.4 
L 403.959273 84.88 
L 405.582545 75.472 
L 407.205818 83.088 
L 408.829091 80.4 
L 410.452364 82.64 
L 412.075636 86.672 
L 413.698909 80.4 
L 415.322182 83.984 
L 416.945455 84.432 
L 418.568727 85.328 
L 420.192 81.744 
L 421.815273 89.808 
L 423.438545 81.744 
L 425.061818 93.392 
L 426.685091 84.432 
L 428.308364 85.776 
L 429.931636 77.712 
L 431.554909 92.944 
L 433.178182 75.92 
L 434.801455 95.632 
L 436.424727 86.224 
L 438.048 80.848 
L 439.671273 83.088 
L 441.294545 85.776 
L 442.917818 86.672 
L 444.541091 86.224 
L 446.164364 89.808 
L 447.787636 89.36 
L 449.410909 88.016 
L 451.034182 78.608 
L 452.657455 84.432 
L 454.280727 88.016 
L 455.904 92.048 
L 457.527273 69.648 
L 459.150545 83.088 
L 460.773818 78.16 
L 462.397091 100.56 
L 464.020364 97.872 
L 465.643636 73.68 
L 467.266909 81.744 
L 468.890182 79.952 
L 470.513455 71.44 
L 472.136727 79.504 
L 473.76 82.192 
L 475.383273 79.056 
L 477.006545 82.64 
L 478.629818 79.952 
L 480.253091 83.088 
L 481.876364 77.712 
L 483.499636 83.536 
L 485.122909 86.224 
L 486.746182 83.536 
L 488.369455 75.92 
L 489.992727 88.016 
L 491.616 79.952 
L 493.239273 72.784 
L 494.862545 75.024 
L 496.485818 86.224 
L 498.109091 91.152 
L 498.109091 91.152 
" clip-path="url(#p5c485bd62e)" style="fill: none; stroke: #ff7f0e; stroke-width: 1.5; stroke-linecap: square"/>
   </g>
   <g id="line2d_27">
    <path d="M 92.290909 356.816 
L 93.914182 351.888 
L 95.537455 337.552 
L 97.160727 344.272 
L 98.784 338.448 
L 100.407273 322.768 
L 102.030545 298.128 
L 103.653818 306.192 
L 105.277091 277.968 
L 106.900364 269.008 
L 108.523636 279.312 
L 110.146909 248.848 
L 111.770182 259.152 
L 113.393455 247.952 
L 115.016727 249.744 
L 116.64 218.832 
L 118.263273 217.04 
L 119.886545 210.32 
L 121.509818 212.112 
L 123.133091 213.008 
L 124.756364 187.024 
L 126.379636 196.88 
L 128.002909 172.24 
L 129.626182 193.744 
L 131.249455 164.176 
L 132.872727 187.472 
L 134.496 174.032 
L 136.119273 165.072 
L 137.742545 171.792 
L 139.365818 157.456 
L 140.989091 164.176 
L 142.612364 161.936 
L 144.235636 138.192 
L 145.858909 149.84 
L 147.482182 160.592 
L 149.105455 136.848 
L 150.728727 148.944 
L 152.352 125.648 
L 153.975273 132.816 
L 155.598545 145.808 
L 157.221818 128.784 
L 158.845091 136.848 
L 160.468364 149.392 
L 162.091636 141.328 
L 163.714909 141.776 
L 165.338182 129.68 
L 166.961455 123.856 
L 168.584727 138.192 
L 170.208 115.792 
L 173.454545 136.848 
L 175.077818 118.032 
L 176.701091 125.648 
L 178.324364 118.928 
L 179.947636 125.2 
L 181.570909 130.128 
L 183.194182 120.72 
L 184.817455 119.824 
L 186.440727 114.896 
L 188.064 118.032 
L 189.687273 115.792 
L 191.310545 117.136 
L 192.933818 120.72 
L 194.557091 115.344 
L 196.180364 116.24 
L 197.803636 119.824 
L 199.426909 118.928 
L 201.050182 103.248 
L 202.673455 113.552 
L 204.296727 108.624 
L 205.92 118.032 
L 207.543273 107.728 
L 209.166545 121.168 
L 210.789818 120.272 
L 212.413091 106.384 
L 214.036364 110.864 
L 215.659636 109.52 
L 217.282909 114.448 
L 218.906182 101.008 
L 220.529455 114 
L 222.152727 130.576 
L 223.776 123.408 
L 225.399273 108.624 
L 227.022545 98.32 
L 228.645818 109.968 
L 230.269091 112.208 
L 231.892364 111.312 
L 233.515636 109.52 
L 235.138909 113.104 
L 236.762182 98.32 
L 238.385455 110.416 
L 240.008727 112.656 
L 241.632 112.208 
L 243.255273 108.176 
L 244.878545 108.176 
L 246.501818 99.216 
L 248.125091 99.664 
L 249.748364 101.456 
L 251.371636 101.456 
L 252.994909 94.736 
L 254.618182 113.552 
L 256.241455 115.792 
L 257.864727 97.872 
L 259.488 102.352 
L 261.111273 109.072 
L 262.734545 112.656 
L 264.357818 102.352 
L 265.981091 105.488 
L 267.604364 106.384 
L 269.227636 106.384 
L 270.850909 107.28 
L 272.474182 109.072 
L 274.097455 102.8 
L 275.720727 100.112 
L 277.344 88.016 
L 278.967273 116.688 
L 280.590545 103.696 
L 282.213818 95.632 
L 283.837091 105.488 
L 285.460364 100.56 
L 287.083636 91.6 
L 288.706909 100.112 
L 290.330182 98.768 
L 291.953455 102.352 
L 293.576727 96.976 
L 295.2 107.28 
L 296.823273 101.904 
L 298.446545 104.144 
L 300.069818 101.904 
L 301.693091 90.256 
L 303.316364 107.28 
L 304.939636 93.392 
L 306.562909 103.248 
L 308.186182 95.632 
L 309.809455 91.6 
L 311.432727 86.672 
L 313.056 94.288 
L 314.679273 104.144 
L 316.302545 86.224 
L 317.925818 105.488 
L 319.549091 108.176 
L 321.172364 94.288 
L 322.795636 98.768 
L 324.418909 97.424 
L 326.042182 98.32 
L 327.665455 89.808 
L 329.288727 83.984 
L 330.912 96.08 
L 332.535273 91.6 
L 334.158545 96.528 
L 335.781818 89.36 
L 337.405091 99.664 
L 339.028364 84.88 
L 340.651636 88.016 
L 342.274909 100.56 
L 343.898182 97.872 
L 345.521455 109.072 
L 347.144727 91.6 
L 348.768 92.496 
L 350.391273 96.08 
L 352.014545 87.12 
L 353.637818 85.776 
L 355.261091 83.536 
L 356.884364 87.12 
L 358.507636 84.432 
L 360.130909 82.64 
L 361.754182 92.496 
L 363.377455 98.32 
L 365.000727 101.904 
L 366.624 97.424 
L 368.247273 83.984 
L 369.870545 99.664 
L 371.493818 91.6 
L 373.117091 97.424 
L 374.740364 101.008 
L 376.363636 95.632 
L 377.986909 92.048 
L 379.610182 98.32 
L 381.233455 103.248 
L 382.856727 82.192 
L 384.48 92.048 
L 386.103273 88.464 
L 387.726545 89.36 
L 389.349818 94.736 
L 392.596364 90.256 
L 394.219636 80.4 
L 395.842909 101.008 
L 397.466182 88.912 
L 399.089455 80.848 
L 400.712727 87.568 
L 402.336 82.64 
L 403.959273 96.976 
L 405.582545 93.392 
L 407.205818 83.536 
L 408.829091 82.192 
L 410.452364 87.568 
L 412.075636 92.048 
L 413.698909 87.568 
L 415.322182 81.744 
L 416.945455 88.912 
L 418.568727 80.4 
L 420.192 96.976 
L 421.815273 90.256 
L 423.438545 86.224 
L 425.061818 84.88 
L 426.685091 91.6 
L 428.308364 75.472 
L 429.931636 91.6 
L 431.554909 91.152 
L 433.178182 94.288 
L 434.801455 89.36 
L 436.424727 92.048 
L 438.048 104.144 
L 439.671273 81.296 
L 441.294545 96.976 
L 442.917818 98.768 
L 444.541091 81.744 
L 446.164364 94.288 
L 447.787636 83.088 
L 449.410909 91.6 
L 451.034182 82.192 
L 452.657455 100.112 
L 454.280727 99.664 
L 455.904 94.736 
L 457.527273 75.024 
L 459.150545 89.36 
L 462.397091 82.192 
L 464.020364 92.496 
L 465.643636 79.056 
L 467.266909 84.88 
L 468.890182 91.152 
L 470.513455 87.568 
L 472.136727 88.912 
L 473.76 92.048 
L 475.383273 94.736 
L 477.006545 83.984 
L 478.629818 76.368 
L 480.253091 88.912 
L 481.876364 84.432 
L 483.499636 80.4 
L 485.122909 71.44 
L 486.746182 96.08 
L 488.369455 87.568 
L 489.992727 86.672 
L 491.616 89.808 
L 493.239273 97.424 
L 494.862545 104.144 
L 496.485818 101.008 
L 498.109091 94.288 
L 498.109091 94.288 
" clip-path="url(#p5c485bd62e)" style="fill: none; stroke: #2ca02c; stroke-width: 1.5; stroke-linecap: square"/>
   </g>
   <g id="line2d_28">
    <path d="M 92.290909 366.224 
L 93.914182 369.36 
L 95.537455 346.96 
L 97.160727 342.928 
L 98.784 320.08 
L 100.407273 322.32 
L 102.030545 342.032 
L 103.653818 306.192 
L 105.277091 306.192 
L 106.900364 275.728 
L 108.523636 296.336 
L 110.146909 248.848 
L 111.770182 273.488 
L 113.393455 254.672 
L 115.016727 252.432 
L 116.64 230.928 
L 118.263273 226 
L 119.886545 238.096 
L 121.509818 221.968 
L 123.133091 235.856 
L 124.756364 193.744 
L 126.379636 206.288 
L 128.002909 192.4 
L 129.626182 205.392 
L 131.249455 195.984 
L 132.872727 184.336 
L 134.496 179.856 
L 136.119273 170.448 
L 137.742545 174.928 
L 139.365818 156.112 
L 140.989091 138.64 
L 142.612364 145.36 
L 144.235636 144.464 
L 145.858909 150.288 
L 147.482182 140.432 
L 149.105455 160.592 
L 150.728727 135.952 
L 152.352 148.944 
L 153.975273 139.536 
L 155.598545 151.184 
L 157.221818 132.816 
L 158.845091 120.72 
L 160.468364 133.264 
L 162.091636 139.088 
L 163.714909 130.576 
L 165.338182 139.536 
L 166.961455 133.712 
L 168.584727 134.16 
L 170.208 114 
L 171.831273 126.544 
L 173.454545 144.016 
L 175.077818 122.512 
L 176.701091 116.24 
L 178.324364 121.616 
L 179.947636 111.312 
L 181.570909 124.752 
L 183.194182 105.936 
L 184.817455 126.992 
L 186.440727 107.728 
L 188.064 113.104 
L 189.687273 109.072 
L 191.310545 99.664 
L 192.933818 109.968 
L 194.557091 113.552 
L 196.180364 116.688 
L 197.803636 118.032 
L 199.426909 131.92 
L 201.050182 111.76 
L 202.673455 117.584 
L 204.296727 110.416 
L 205.92 117.584 
L 207.543273 114.448 
L 209.166545 114 
L 210.789818 103.696 
L 212.413091 102.352 
L 214.036364 97.872 
L 215.659636 107.728 
L 217.282909 104.592 
L 218.906182 99.216 
L 220.529455 115.344 
L 222.152727 100.112 
L 223.776 98.32 
L 225.399273 112.656 
L 227.022545 105.04 
L 228.645818 108.176 
L 230.269091 99.664 
L 231.892364 109.072 
L 233.515636 99.216 
L 235.138909 100.56 
L 236.762182 98.32 
L 238.385455 91.6 
L 240.008727 105.04 
L 241.632 97.424 
L 243.255273 91.152 
L 244.878545 96.976 
L 246.501818 91.152 
L 248.125091 93.392 
L 249.748364 93.392 
L 252.994909 101.456 
L 254.618182 98.32 
L 256.241455 100.112 
L 257.864727 92.944 
L 259.488 91.6 
L 261.111273 83.088 
L 262.734545 88.912 
L 264.357818 93.84 
L 267.604364 79.056 
L 269.227636 86.224 
L 270.850909 99.216 
L 272.474182 96.528 
L 274.097455 88.912 
L 275.720727 93.84 
L 277.344 90.704 
L 278.967273 90.256 
L 280.590545 81.296 
L 282.213818 100.112 
L 283.837091 84.432 
L 285.460364 90.256 
L 287.083636 104.144 
L 288.706909 81.744 
L 290.330182 95.632 
L 291.953455 88.016 
L 293.576727 88.912 
L 295.2 87.568 
L 296.823273 96.976 
L 298.446545 90.704 
L 300.069818 88.464 
L 301.693091 81.296 
L 303.316364 86.672 
L 304.939636 87.568 
L 306.562909 90.704 
L 308.186182 85.776 
L 309.809455 92.048 
L 311.432727 83.984 
L 313.056 80.4 
L 314.679273 80.4 
L 316.302545 92.048 
L 317.925818 85.776 
L 319.549091 88.464 
L 321.172364 102.352 
L 322.795636 92.944 
L 324.418909 99.664 
L 326.042182 84.432 
L 327.665455 91.6 
L 329.288727 83.088 
L 330.912 89.808 
L 332.535273 86.672 
L 334.158545 83.984 
L 335.781818 86.672 
L 337.405091 83.536 
L 339.028364 79.952 
L 340.651636 88.464 
L 342.274909 97.872 
L 343.898182 95.184 
L 345.521455 89.808 
L 347.144727 82.192 
L 348.768 95.184 
L 350.391273 80.4 
L 352.014545 94.288 
L 353.637818 86.672 
L 355.261091 82.192 
L 356.884364 83.536 
L 358.507636 85.328 
L 360.130909 75.92 
L 361.754182 69.648 
L 363.377455 91.152 
L 365.000727 76.816 
L 366.624 95.184 
L 368.247273 94.288 
L 369.870545 84.432 
L 371.493818 93.392 
L 373.117091 88.912 
L 374.740364 86.224 
L 376.363636 88.016 
L 377.986909 67.856 
L 379.610182 87.568 
L 381.233455 79.504 
L 382.856727 91.152 
L 384.48 87.568 
L 386.103273 95.184 
L 387.726545 86.224 
L 389.349818 90.704 
L 390.973091 86.224 
L 394.219636 86.224 
L 395.842909 100.56 
L 397.466182 93.392 
L 399.089455 79.504 
L 400.712727 81.744 
L 402.336 88.464 
L 403.959273 90.256 
L 405.582545 79.504 
L 407.205818 85.328 
L 408.829091 82.192 
L 410.452364 101.456 
L 412.075636 84.432 
L 413.698909 85.776 
L 415.322182 88.464 
L 416.945455 94.288 
L 418.568727 87.12 
L 420.192 85.328 
L 421.815273 81.744 
L 423.438545 75.024 
L 425.061818 80.4 
L 426.685091 83.536 
L 428.308364 88.912 
L 429.931636 81.296 
L 431.554909 98.32 
L 433.178182 80.4 
L 434.801455 90.256 
L 436.424727 73.68 
L 438.048 83.536 
L 439.671273 84.432 
L 441.294545 96.528 
L 442.917818 79.952 
L 444.541091 82.192 
L 446.164364 83.536 
L 447.787636 82.192 
L 449.410909 73.68 
L 451.034182 84.88 
L 452.657455 70.544 
L 454.280727 92.496 
L 455.904 79.952 
L 457.527273 89.808 
L 459.150545 77.712 
L 460.773818 90.704 
L 462.397091 80.848 
L 464.020364 83.984 
L 465.643636 66.96 
L 467.266909 73.68 
L 468.890182 92.944 
L 470.513455 84.432 
L 472.136727 79.504 
L 473.76 80.848 
L 475.383273 78.608 
L 477.006545 82.64 
L 478.629818 89.36 
L 480.253091 90.256 
L 481.876364 72.784 
L 483.499636 83.088 
L 485.122909 75.472 
L 486.746182 79.952 
L 488.369455 77.712 
L 489.992727 88.016 
L 491.616 88.912 
L 493.239273 79.504 
L 494.862545 74.576 
L 496.485818 88.016 
L 498.109091 83.984 
L 498.109091 83.984 
" clip-path="url(#p5c485bd62e)" style="fill: none; stroke: #d62728; stroke-width: 1.5; stroke-linecap: square"/>
   </g>
   <g id="patch_3">
    <path d="M 72 384.48 
L 72 51.84 
" style="fill: none; stroke: #000000; stroke-width: 0.8; stroke-linejoin: miter; stroke-linecap: square"/>
   </g>
   <g id="patch_4">
    <path d="M 518.4 384.48 
L 518.4 51.84 
" style="fill: none; stroke: #000000; stroke-width: 0.8; stroke-linejoin: miter; stroke-linecap: square"/>
   </g>
   <g id="patch_5">
    <path d="M 72 384.48 
L 518.4 384.48 
" style="fill: none; stroke: #000000; stroke-width: 0.8; stroke-linejoin: miter; stroke-linecap: square"/>
   </g>
   <g id="patch_6">
    <path d="M 72 51.84 
L 518.4 51.84 
" style="fill: none; stroke: #000000; stroke-width: 0.8; stroke-linejoin: miter; stroke-linecap: square"/>
   </g>
   <g id="text_15">
    <!-- Max-Common -->
    <g transform="translate(253.606875 45.84)scale(0.12 -0.12)">
     <defs>
      <path id="DejaVuSans-4d" d="M 628 4666 
L 1569 4666 
L 2759 1491 
L 3956 4666 
L 4897 4666 
L 4897 0 
L 4281 0 
L 4281 4097 
L 3078 897 
L 2444 897 
L 1241 4097 
L 1241 0 
L 628 0 
L 628 4666 
z
" transform="scale(0.015625)"/>
      <path id="DejaVuSans-78" d="M 3513 3500 
L 2247 1797 
L 3578 0 
L 2900 0 
L 1881 1375 
L 863 0 
L 184 0 
L 1544 1831 
L 300 3500 
L 978 3500 
L 1906 2253 
L 2834 3500 
L 3513 3500 
z
" transform="scale(0.015625)"/>
      <path id="DejaVuSans-2d" d="M 313 2009 
L 1997 2009 
L 1997 1497 
L 313 1497 
L 313 2009 
z
" transform="scale(0.015625)"/>
     </defs>
     <use xlink:href="#DejaVuSans-4d"/>
     <use xlink:href="#DejaVuSans-61" x="86.279297"/>
     <use xlink:href="#DejaVuSans-78" x="147.558594"/>
     <use xlink:href="#DejaVuSans-2d" x="206.738281"/>
     <use xlink:href="#DejaVuSans-43" x="242.822266"/>
     <use xlink:href="#DejaVuSans-6f" x="312.646484"/>
     <use xlink:href="#DejaVuSans-6d" x="373.828125"/>
     <use xlink:href="#DejaVuSans-6d" x="471.240234"/>
     <use xlink:href="#DejaVuSans-6f" x="568.652344"/>
     <use xlink:href="#DejaVuSans-6e" x="629.833984"/>
    </g>
   </g>
   <g id="legend_1">
    <g id="patch_7">
     <path d="M 79 118.5525 
L 124.203125 118.5525 
Q 126.203125 118.5525 126.203125 116.5525 
L 126.203125 58.84 
Q 126.203125 56.84 124.203125 56.84 
L 79 56.84 
Q 77 56.84 77 58.84 
L 77 116.5525 
Q 77 118.5525 79 118.5525 
z
" style="fill: #ffffff; opacity: 0.8; stroke: #cccccc; stroke-linejoin: miter"/>
    </g>
    <g id="line2d_29">
     <path d="M 81 64.938438 
L 91 64.938438 
L 101 64.938438 
" style="fill: none; stroke: #1f77b4; stroke-width: 1.5; stroke-linecap: square"/>
    </g>
    <g id="text_16">
     <!-- V1 -->
     <g transform="translate(109 68.438438)scale(0.1 -0.1)">
      <defs>
       <path id="DejaVuSans-56" d="M 1831 0 
L 50 4666 
L 709 4666 
L 2188 738 
L 3669 4666 
L 4325 4666 
L 2547 0 
L 1831 0 
z
" transform="scale(0.015625)"/>
      </defs>
      <use xlink:href="#DejaVuSans-56"/>
      <use xlink:href="#DejaVuSans-31" x="68.408203"/>
     </g>
    </g>
    <g id="line2d_30">
     <path d="M 81 79.616563 
L 91 79.616563 
L 101 79.616563 
" style="fill: none; stroke: #ff7f0e; stroke-width: 1.5; stroke-linecap: square"/>
    </g>
    <g id="text_17">
     <!-- V2 -->
     <g transform="translate(109 83.116563)scale(0.1 -0.1)">
      <use xlink:href="#DejaVuSans-56"/>
      <use xlink:href="#DejaVuSans-32" x="68.408203"/>
     </g>
    </g>
    <g id="line2d_31">
     <path d="M 81 94.294688 
L 91 94.294688 
L 101 94.294688 
" style="fill: none; stroke: #2ca02c; stroke-width: 1.5; stroke-linecap: square"/>
    </g>
    <g id="text_18">
     <!-- V3 -->
     <g transform="translate(109 97.794688)scale(0.1 -0.1)">
      <use xlink:href="#DejaVuSans-56"/>
      <use xlink:href="#DejaVuSans-33" x="68.408203"/>
     </g>
    </g>
    <g id="line2d_32">
     <path d="M 81 108.972813 
L 91 108.972813 
L 101 108.972813 
" style="fill: none; stroke: #d62728; stroke-width: 1.5; stroke-linecap: square"/>
    </g>
    <g id="text_19">
     <!-- V4 -->
     <g transform="translate(109 112.472813)scale(0.1 -0.1)">
      <use xlink:href="#DejaVuSans-56"/>
      <use xlink:href="#DejaVuSans-34" x="68.408203"/>
     </g>
    </g>
   </g>
  </g>
 </g>
 <defs>
  <clipPath id="p5c485bd62e">
   <rect x="72" y="51.84" width="446.4" height="332.64"/>
  </clipPath>
 </defs>
</svg>
