<?xml version="1.0" encoding="utf-8" standalone="no"?>
<!DOCTYPE svg PUBLIC "-//W3C//DTD SVG 1.1//EN"
  "http://www.w3.org/Graphics/SVG/1.1/DTD/svg11.dtd">
<svg xmlns:xlink="http://www.w3.org/1999/xlink" width="576pt" height="432pt" viewBox="0 0 576 432" xmlns="http://www.w3.org/2000/svg" version="1.1">
 <metadata>
  <rdf:RDF xmlns:dc="http://purl.org/dc/elements/1.1/" xmlns:cc="http://creativecommons.org/ns#" xmlns:rdf="http://www.w3.org/1999/02/22-rdf-syntax-ns#">
   <cc:Work>
    <dc:type rdf:resource="http://purl.org/dc/dcmitype/StillImage"/>
    <dc:date>2023-08-07T19:56:32.062099</dc:date>
    <dc:format>image/svg+xml</dc:format>
    <dc:creator>
     <cc:Agent>
      <dc:title>Matplotlib v3.5.2, https://matplotlib.org/</dc:title>
     </cc:Agent>
    </dc:creator>
   </cc:Work>
  </rdf:RDF>
 </metadata>
 <defs>
  <style type="text/css">*{stroke-linejoin: round; stroke-linecap: butt}</style>
 </defs>
 <g id="figure_1">
  <g id="patch_1">
   <path d="M 0 432 
L 576 432 
L 576 0 
L 0 0 
z
" style="fill: #ffffff"/>
  </g>
  <g id="axes_1">
   <g id="patch_2">
    <path d="M 72 384.48 
L 518.4 384.48 
L 518.4 51.84 
L 72 51.84 
z
" style="fill: #ffffff"/>
   </g>
   <g id="matplotlib.axis_1">
    <g id="xtick_1">
     <g id="line2d_1">
      <path d="M 92.290909 384.48 
L 92.290909 51.84 
" clip-path="url(#p6749dccb07)" style="fill: none; stroke: #b0b0b0; stroke-opacity: 0.5; stroke-width: 0.8; stroke-linecap: square"/>
     </g>
     <g id="line2d_2">
      <defs>
       <path id="mb014599ccb" d="M 0 0 
L 0 3.5 
" style="stroke: #000000; stroke-width: 0.8"/>
      </defs>
      <g>
       <use xlink:href="#mb014599ccb" x="92.290909" y="384.48" style="stroke: #000000; stroke-width: 0.8"/>
      </g>
     </g>
     <g id="text_1">
      <!-- 0 -->
      <g transform="translate(89.109659 399.078438)scale(0.1 -0.1)">
       <defs>
        <path id="DejaVuSans-30" d="M 2034 4250 
Q 1547 4250 1301 3770 
Q 1056 3291 1056 2328 
Q 1056 1369 1301 889 
Q 1547 409 2034 409 
Q 2525 409 2770 889 
Q 3016 1369 3016 2328 
Q 3016 3291 2770 3770 
Q 2525 4250 2034 4250 
z
M 2034 4750 
Q 2819 4750 3233 4129 
Q 3647 3509 3647 2328 
Q 3647 1150 3233 529 
Q 2819 -91 2034 -91 
Q 1250 -91 836 529 
Q 422 1150 422 2328 
Q 422 3509 836 4129 
Q 1250 4750 2034 4750 
z
" transform="scale(0.015625)"/>
       </defs>
       <use xlink:href="#DejaVuSans-30"/>
      </g>
     </g>
    </g>
    <g id="xtick_2">
     <g id="line2d_3">
      <path d="M 143.018182 384.48 
L 143.018182 51.84 
" clip-path="url(#p6749dccb07)" style="fill: none; stroke: #b0b0b0; stroke-opacity: 0.5; stroke-width: 0.8; stroke-linecap: square"/>
     </g>
     <g id="line2d_4">
      <g>
       <use xlink:href="#mb014599ccb" x="143.018182" y="384.48" style="stroke: #000000; stroke-width: 0.8"/>
      </g>
     </g>
     <g id="text_2">
      <!-- 25 -->
      <g transform="translate(136.655682 399.078438)scale(0.1 -0.1)">
       <defs>
        <path id="DejaVuSans-32" d="M 1228 531 
L 3431 531 
L 3431 0 
L 469 0 
L 469 531 
Q 828 903 1448 1529 
Q 2069 2156 2228 2338 
Q 2531 2678 2651 2914 
Q 2772 3150 2772 3378 
Q 2772 3750 2511 3984 
Q 2250 4219 1831 4219 
Q 1534 4219 1204 4116 
Q 875 4013 500 3803 
L 500 4441 
Q 881 4594 1212 4672 
Q 1544 4750 1819 4750 
Q 2544 4750 2975 4387 
Q 3406 4025 3406 3419 
Q 3406 3131 3298 2873 
Q 3191 2616 2906 2266 
Q 2828 2175 2409 1742 
Q 1991 1309 1228 531 
z
" transform="scale(0.015625)"/>
        <path id="DejaVuSans-35" d="M 691 4666 
L 3169 4666 
L 3169 4134 
L 1269 4134 
L 1269 2991 
Q 1406 3038 1543 3061 
Q 1681 3084 1819 3084 
Q 2600 3084 3056 2656 
Q 3513 2228 3513 1497 
Q 3513 744 3044 326 
Q 2575 -91 1722 -91 
Q 1428 -91 1123 -41 
Q 819 9 494 109 
L 494 744 
Q 775 591 1075 516 
Q 1375 441 1709 441 
Q 2250 441 2565 725 
Q 2881 1009 2881 1497 
Q 2881 1984 2565 2268 
Q 2250 2553 1709 2553 
Q 1456 2553 1204 2497 
Q 953 2441 691 2322 
L 691 4666 
z
" transform="scale(0.015625)"/>
       </defs>
       <use xlink:href="#DejaVuSans-32"/>
       <use xlink:href="#DejaVuSans-35" x="63.623047"/>
      </g>
     </g>
    </g>
    <g id="xtick_3">
     <g id="line2d_5">
      <path d="M 193.745455 384.48 
L 193.745455 51.84 
" clip-path="url(#p6749dccb07)" style="fill: none; stroke: #b0b0b0; stroke-opacity: 0.5; stroke-width: 0.8; stroke-linecap: square"/>
     </g>
     <g id="line2d_6">
      <g>
       <use xlink:href="#mb014599ccb" x="193.745455" y="384.48" style="stroke: #000000; stroke-width: 0.8"/>
      </g>
     </g>
     <g id="text_3">
      <!-- 50 -->
      <g transform="translate(187.382955 399.078438)scale(0.1 -0.1)">
       <use xlink:href="#DejaVuSans-35"/>
       <use xlink:href="#DejaVuSans-30" x="63.623047"/>
      </g>
     </g>
    </g>
    <g id="xtick_4">
     <g id="line2d_7">
      <path d="M 244.472727 384.48 
L 244.472727 51.84 
" clip-path="url(#p6749dccb07)" style="fill: none; stroke: #b0b0b0; stroke-opacity: 0.5; stroke-width: 0.8; stroke-linecap: square"/>
     </g>
     <g id="line2d_8">
      <g>
       <use xlink:href="#mb014599ccb" x="244.472727" y="384.48" style="stroke: #000000; stroke-width: 0.8"/>
      </g>
     </g>
     <g id="text_4">
      <!-- 75 -->
      <g transform="translate(238.110227 399.078438)scale(0.1 -0.1)">
       <defs>
        <path id="DejaVuSans-37" d="M 525 4666 
L 3525 4666 
L 3525 4397 
L 1831 0 
L 1172 0 
L 2766 4134 
L 525 4134 
L 525 4666 
z
" transform="scale(0.015625)"/>
       </defs>
       <use xlink:href="#DejaVuSans-37"/>
       <use xlink:href="#DejaVuSans-35" x="63.623047"/>
      </g>
     </g>
    </g>
    <g id="xtick_5">
     <g id="line2d_9">
      <path d="M 295.2 384.48 
L 295.2 51.84 
" clip-path="url(#p6749dccb07)" style="fill: none; stroke: #b0b0b0; stroke-opacity: 0.5; stroke-width: 0.8; stroke-linecap: square"/>
     </g>
     <g id="line2d_10">
      <g>
       <use xlink:href="#mb014599ccb" x="295.2" y="384.48" style="stroke: #000000; stroke-width: 0.8"/>
      </g>
     </g>
     <g id="text_5">
      <!-- 100 -->
      <g transform="translate(285.65625 399.078438)scale(0.1 -0.1)">
       <defs>
        <path id="DejaVuSans-31" d="M 794 531 
L 1825 531 
L 1825 4091 
L 703 3866 
L 703 4441 
L 1819 4666 
L 2450 4666 
L 2450 531 
L 3481 531 
L 3481 0 
L 794 0 
L 794 531 
z
" transform="scale(0.015625)"/>
       </defs>
       <use xlink:href="#DejaVuSans-31"/>
       <use xlink:href="#DejaVuSans-30" x="63.623047"/>
       <use xlink:href="#DejaVuSans-30" x="127.246094"/>
      </g>
     </g>
    </g>
    <g id="xtick_6">
     <g id="line2d_11">
      <path d="M 345.927273 384.48 
L 345.927273 51.84 
" clip-path="url(#p6749dccb07)" style="fill: none; stroke: #b0b0b0; stroke-opacity: 0.5; stroke-width: 0.8; stroke-linecap: square"/>
     </g>
     <g id="line2d_12">
      <g>
       <use xlink:href="#mb014599ccb" x="345.927273" y="384.48" style="stroke: #000000; stroke-width: 0.8"/>
      </g>
     </g>
     <g id="text_6">
      <!-- 125 -->
      <g transform="translate(336.383523 399.078438)scale(0.1 -0.1)">
       <use xlink:href="#DejaVuSans-31"/>
       <use xlink:href="#DejaVuSans-32" x="63.623047"/>
       <use xlink:href="#DejaVuSans-35" x="127.246094"/>
      </g>
     </g>
    </g>
    <g id="xtick_7">
     <g id="line2d_13">
      <path d="M 396.654545 384.48 
L 396.654545 51.84 
" clip-path="url(#p6749dccb07)" style="fill: none; stroke: #b0b0b0; stroke-opacity: 0.5; stroke-width: 0.8; stroke-linecap: square"/>
     </g>
     <g id="line2d_14">
      <g>
       <use xlink:href="#mb014599ccb" x="396.654545" y="384.48" style="stroke: #000000; stroke-width: 0.8"/>
      </g>
     </g>
     <g id="text_7">
      <!-- 150 -->
      <g transform="translate(387.110795 399.078438)scale(0.1 -0.1)">
       <use xlink:href="#DejaVuSans-31"/>
       <use xlink:href="#DejaVuSans-35" x="63.623047"/>
       <use xlink:href="#DejaVuSans-30" x="127.246094"/>
      </g>
     </g>
    </g>
    <g id="xtick_8">
     <g id="line2d_15">
      <path d="M 447.381818 384.48 
L 447.381818 51.84 
" clip-path="url(#p6749dccb07)" style="fill: none; stroke: #b0b0b0; stroke-opacity: 0.5; stroke-width: 0.8; stroke-linecap: square"/>
     </g>
     <g id="line2d_16">
      <g>
       <use xlink:href="#mb014599ccb" x="447.381818" y="384.48" style="stroke: #000000; stroke-width: 0.8"/>
      </g>
     </g>
     <g id="text_8">
      <!-- 175 -->
      <g transform="translate(437.838068 399.078438)scale(0.1 -0.1)">
       <use xlink:href="#DejaVuSans-31"/>
       <use xlink:href="#DejaVuSans-37" x="63.623047"/>
       <use xlink:href="#DejaVuSans-35" x="127.246094"/>
      </g>
     </g>
    </g>
    <g id="xtick_9">
     <g id="line2d_17">
      <path d="M 498.109091 384.48 
L 498.109091 51.84 
" clip-path="url(#p6749dccb07)" style="fill: none; stroke: #b0b0b0; stroke-opacity: 0.5; stroke-width: 0.8; stroke-linecap: square"/>
     </g>
     <g id="line2d_18">
      <g>
       <use xlink:href="#mb014599ccb" x="498.109091" y="384.48" style="stroke: #000000; stroke-width: 0.8"/>
      </g>
     </g>
     <g id="text_9">
      <!-- 200 -->
      <g transform="translate(488.565341 399.078438)scale(0.1 -0.1)">
       <use xlink:href="#DejaVuSans-32"/>
       <use xlink:href="#DejaVuSans-30" x="63.623047"/>
       <use xlink:href="#DejaVuSans-30" x="127.246094"/>
      </g>
     </g>
    </g>
    <g id="text_10">
     <!-- Communication rounds -->
     <g transform="translate(237.083594 412.756563)scale(0.1 -0.1)">
      <defs>
       <path id="DejaVuSans-43" d="M 4122 4306 
L 4122 3641 
Q 3803 3938 3442 4084 
Q 3081 4231 2675 4231 
Q 1875 4231 1450 3742 
Q 1025 3253 1025 2328 
Q 1025 1406 1450 917 
Q 1875 428 2675 428 
Q 3081 428 3442 575 
Q 3803 722 4122 1019 
L 4122 359 
Q 3791 134 3420 21 
Q 3050 -91 2638 -91 
Q 1578 -91 968 557 
Q 359 1206 359 2328 
Q 359 3453 968 4101 
Q 1578 4750 2638 4750 
Q 3056 4750 3426 4639 
Q 3797 4528 4122 4306 
z
" transform="scale(0.015625)"/>
       <path id="DejaVuSans-6f" d="M 1959 3097 
Q 1497 3097 1228 2736 
Q 959 2375 959 1747 
Q 959 1119 1226 758 
Q 1494 397 1959 397 
Q 2419 397 2687 759 
Q 2956 1122 2956 1747 
Q 2956 2369 2687 2733 
Q 2419 3097 1959 3097 
z
M 1959 3584 
Q 2709 3584 3137 3096 
Q 3566 2609 3566 1747 
Q 3566 888 3137 398 
Q 2709 -91 1959 -91 
Q 1206 -91 779 398 
Q 353 888 353 1747 
Q 353 2609 779 3096 
Q 1206 3584 1959 3584 
z
" transform="scale(0.015625)"/>
       <path id="DejaVuSans-6d" d="M 3328 2828 
Q 3544 3216 3844 3400 
Q 4144 3584 4550 3584 
Q 5097 3584 5394 3201 
Q 5691 2819 5691 2113 
L 5691 0 
L 5113 0 
L 5113 2094 
Q 5113 2597 4934 2840 
Q 4756 3084 4391 3084 
Q 3944 3084 3684 2787 
Q 3425 2491 3425 1978 
L 3425 0 
L 2847 0 
L 2847 2094 
Q 2847 2600 2669 2842 
Q 2491 3084 2119 3084 
Q 1678 3084 1418 2786 
Q 1159 2488 1159 1978 
L 1159 0 
L 581 0 
L 581 3500 
L 1159 3500 
L 1159 2956 
Q 1356 3278 1631 3431 
Q 1906 3584 2284 3584 
Q 2666 3584 2933 3390 
Q 3200 3197 3328 2828 
z
" transform="scale(0.015625)"/>
       <path id="DejaVuSans-75" d="M 544 1381 
L 544 3500 
L 1119 3500 
L 1119 1403 
Q 1119 906 1312 657 
Q 1506 409 1894 409 
Q 2359 409 2629 706 
Q 2900 1003 2900 1516 
L 2900 3500 
L 3475 3500 
L 3475 0 
L 2900 0 
L 2900 538 
Q 2691 219 2414 64 
Q 2138 -91 1772 -91 
Q 1169 -91 856 284 
Q 544 659 544 1381 
z
M 1991 3584 
L 1991 3584 
z
" transform="scale(0.015625)"/>
       <path id="DejaVuSans-6e" d="M 3513 2113 
L 3513 0 
L 2938 0 
L 2938 2094 
Q 2938 2591 2744 2837 
Q 2550 3084 2163 3084 
Q 1697 3084 1428 2787 
Q 1159 2491 1159 1978 
L 1159 0 
L 581 0 
L 581 3500 
L 1159 3500 
L 1159 2956 
Q 1366 3272 1645 3428 
Q 1925 3584 2291 3584 
Q 2894 3584 3203 3211 
Q 3513 2838 3513 2113 
z
" transform="scale(0.015625)"/>
       <path id="DejaVuSans-69" d="M 603 3500 
L 1178 3500 
L 1178 0 
L 603 0 
L 603 3500 
z
M 603 4863 
L 1178 4863 
L 1178 4134 
L 603 4134 
L 603 4863 
z
" transform="scale(0.015625)"/>
       <path id="DejaVuSans-63" d="M 3122 3366 
L 3122 2828 
Q 2878 2963 2633 3030 
Q 2388 3097 2138 3097 
Q 1578 3097 1268 2742 
Q 959 2388 959 1747 
Q 959 1106 1268 751 
Q 1578 397 2138 397 
Q 2388 397 2633 464 
Q 2878 531 3122 666 
L 3122 134 
Q 2881 22 2623 -34 
Q 2366 -91 2075 -91 
Q 1284 -91 818 406 
Q 353 903 353 1747 
Q 353 2603 823 3093 
Q 1294 3584 2113 3584 
Q 2378 3584 2631 3529 
Q 2884 3475 3122 3366 
z
" transform="scale(0.015625)"/>
       <path id="DejaVuSans-61" d="M 2194 1759 
Q 1497 1759 1228 1600 
Q 959 1441 959 1056 
Q 959 750 1161 570 
Q 1363 391 1709 391 
Q 2188 391 2477 730 
Q 2766 1069 2766 1631 
L 2766 1759 
L 2194 1759 
z
M 3341 1997 
L 3341 0 
L 2766 0 
L 2766 531 
Q 2569 213 2275 61 
Q 1981 -91 1556 -91 
Q 1019 -91 701 211 
Q 384 513 384 1019 
Q 384 1609 779 1909 
Q 1175 2209 1959 2209 
L 2766 2209 
L 2766 2266 
Q 2766 2663 2505 2880 
Q 2244 3097 1772 3097 
Q 1472 3097 1187 3025 
Q 903 2953 641 2809 
L 641 3341 
Q 956 3463 1253 3523 
Q 1550 3584 1831 3584 
Q 2591 3584 2966 3190 
Q 3341 2797 3341 1997 
z
" transform="scale(0.015625)"/>
       <path id="DejaVuSans-74" d="M 1172 4494 
L 1172 3500 
L 2356 3500 
L 2356 3053 
L 1172 3053 
L 1172 1153 
Q 1172 725 1289 603 
Q 1406 481 1766 481 
L 2356 481 
L 2356 0 
L 1766 0 
Q 1100 0 847 248 
Q 594 497 594 1153 
L 594 3053 
L 172 3053 
L 172 3500 
L 594 3500 
L 594 4494 
L 1172 4494 
z
" transform="scale(0.015625)"/>
       <path id="DejaVuSans-20" transform="scale(0.015625)"/>
       <path id="DejaVuSans-72" d="M 2631 2963 
Q 2534 3019 2420 3045 
Q 2306 3072 2169 3072 
Q 1681 3072 1420 2755 
Q 1159 2438 1159 1844 
L 1159 0 
L 581 0 
L 581 3500 
L 1159 3500 
L 1159 2956 
Q 1341 3275 1631 3429 
Q 1922 3584 2338 3584 
Q 2397 3584 2469 3576 
Q 2541 3569 2628 3553 
L 2631 2963 
z
" transform="scale(0.015625)"/>
       <path id="DejaVuSans-64" d="M 2906 2969 
L 2906 4863 
L 3481 4863 
L 3481 0 
L 2906 0 
L 2906 525 
Q 2725 213 2448 61 
Q 2172 -91 1784 -91 
Q 1150 -91 751 415 
Q 353 922 353 1747 
Q 353 2572 751 3078 
Q 1150 3584 1784 3584 
Q 2172 3584 2448 3432 
Q 2725 3281 2906 2969 
z
M 947 1747 
Q 947 1113 1208 752 
Q 1469 391 1925 391 
Q 2381 391 2643 752 
Q 2906 1113 2906 1747 
Q 2906 2381 2643 2742 
Q 2381 3103 1925 3103 
Q 1469 3103 1208 2742 
Q 947 2381 947 1747 
z
" transform="scale(0.015625)"/>
       <path id="DejaVuSans-73" d="M 2834 3397 
L 2834 2853 
Q 2591 2978 2328 3040 
Q 2066 3103 1784 3103 
Q 1356 3103 1142 2972 
Q 928 2841 928 2578 
Q 928 2378 1081 2264 
Q 1234 2150 1697 2047 
L 1894 2003 
Q 2506 1872 2764 1633 
Q 3022 1394 3022 966 
Q 3022 478 2636 193 
Q 2250 -91 1575 -91 
Q 1294 -91 989 -36 
Q 684 19 347 128 
L 347 722 
Q 666 556 975 473 
Q 1284 391 1588 391 
Q 1994 391 2212 530 
Q 2431 669 2431 922 
Q 2431 1156 2273 1281 
Q 2116 1406 1581 1522 
L 1381 1569 
Q 847 1681 609 1914 
Q 372 2147 372 2553 
Q 372 3047 722 3315 
Q 1072 3584 1716 3584 
Q 2034 3584 2315 3537 
Q 2597 3491 2834 3397 
z
" transform="scale(0.015625)"/>
      </defs>
      <use xlink:href="#DejaVuSans-43"/>
      <use xlink:href="#DejaVuSans-6f" x="69.824219"/>
      <use xlink:href="#DejaVuSans-6d" x="131.005859"/>
      <use xlink:href="#DejaVuSans-6d" x="228.417969"/>
      <use xlink:href="#DejaVuSans-75" x="325.830078"/>
      <use xlink:href="#DejaVuSans-6e" x="389.208984"/>
      <use xlink:href="#DejaVuSans-69" x="452.587891"/>
      <use xlink:href="#DejaVuSans-63" x="480.371094"/>
      <use xlink:href="#DejaVuSans-61" x="535.351562"/>
      <use xlink:href="#DejaVuSans-74" x="596.630859"/>
      <use xlink:href="#DejaVuSans-69" x="635.839844"/>
      <use xlink:href="#DejaVuSans-6f" x="663.623047"/>
      <use xlink:href="#DejaVuSans-6e" x="724.804688"/>
      <use xlink:href="#DejaVuSans-20" x="788.183594"/>
      <use xlink:href="#DejaVuSans-72" x="819.970703"/>
      <use xlink:href="#DejaVuSans-6f" x="858.833984"/>
      <use xlink:href="#DejaVuSans-75" x="920.015625"/>
      <use xlink:href="#DejaVuSans-6e" x="983.394531"/>
      <use xlink:href="#DejaVuSans-64" x="1046.773438"/>
      <use xlink:href="#DejaVuSans-73" x="1110.25"/>
     </g>
    </g>
   </g>
   <g id="matplotlib.axis_2">
    <g id="ytick_1">
     <g id="line2d_19">
      <path d="M 72 318.457214 
L 518.4 318.457214 
" clip-path="url(#p6749dccb07)" style="fill: none; stroke: #b0b0b0; stroke-opacity: 0.5; stroke-width: 0.8; stroke-linecap: square"/>
     </g>
     <g id="line2d_20">
      <defs>
       <path id="m853e701255" d="M 0 0 
L -3.5 0 
" style="stroke: #000000; stroke-width: 0.8"/>
      </defs>
      <g>
       <use xlink:href="#m853e701255" x="72" y="318.457214" style="stroke: #000000; stroke-width: 0.8"/>
      </g>
     </g>
     <g id="text_11">
      <!-- 0.2 -->
      <g transform="translate(49.096875 322.256432)scale(0.1 -0.1)">
       <defs>
        <path id="DejaVuSans-2e" d="M 684 794 
L 1344 794 
L 1344 0 
L 684 0 
L 684 794 
z
" transform="scale(0.015625)"/>
       </defs>
       <use xlink:href="#DejaVuSans-30"/>
       <use xlink:href="#DejaVuSans-2e" x="63.623047"/>
       <use xlink:href="#DejaVuSans-32" x="95.410156"/>
      </g>
     </g>
    </g>
    <g id="ytick_2">
     <g id="line2d_21">
      <path d="M 72 249.107368 
L 518.4 249.107368 
" clip-path="url(#p6749dccb07)" style="fill: none; stroke: #b0b0b0; stroke-opacity: 0.5; stroke-width: 0.8; stroke-linecap: square"/>
     </g>
     <g id="line2d_22">
      <g>
       <use xlink:href="#m853e701255" x="72" y="249.107368" style="stroke: #000000; stroke-width: 0.8"/>
      </g>
     </g>
     <g id="text_12">
      <!-- 0.4 -->
      <g transform="translate(49.096875 252.906587)scale(0.1 -0.1)">
       <defs>
        <path id="DejaVuSans-34" d="M 2419 4116 
L 825 1625 
L 2419 1625 
L 2419 4116 
z
M 2253 4666 
L 3047 4666 
L 3047 1625 
L 3713 1625 
L 3713 1100 
L 3047 1100 
L 3047 0 
L 2419 0 
L 2419 1100 
L 313 1100 
L 313 1709 
L 2253 4666 
z
" transform="scale(0.015625)"/>
       </defs>
       <use xlink:href="#DejaVuSans-30"/>
       <use xlink:href="#DejaVuSans-2e" x="63.623047"/>
       <use xlink:href="#DejaVuSans-34" x="95.410156"/>
      </g>
     </g>
    </g>
    <g id="ytick_3">
     <g id="line2d_23">
      <path d="M 72 179.757523 
L 518.4 179.757523 
" clip-path="url(#p6749dccb07)" style="fill: none; stroke: #b0b0b0; stroke-opacity: 0.5; stroke-width: 0.8; stroke-linecap: square"/>
     </g>
     <g id="line2d_24">
      <g>
       <use xlink:href="#m853e701255" x="72" y="179.757523" style="stroke: #000000; stroke-width: 0.8"/>
      </g>
     </g>
     <g id="text_13">
      <!-- 0.6 -->
      <g transform="translate(49.096875 183.556742)scale(0.1 -0.1)">
       <defs>
        <path id="DejaVuSans-36" d="M 2113 2584 
Q 1688 2584 1439 2293 
Q 1191 2003 1191 1497 
Q 1191 994 1439 701 
Q 1688 409 2113 409 
Q 2538 409 2786 701 
Q 3034 994 3034 1497 
Q 3034 2003 2786 2293 
Q 2538 2584 2113 2584 
z
M 3366 4563 
L 3366 3988 
Q 3128 4100 2886 4159 
Q 2644 4219 2406 4219 
Q 1781 4219 1451 3797 
Q 1122 3375 1075 2522 
Q 1259 2794 1537 2939 
Q 1816 3084 2150 3084 
Q 2853 3084 3261 2657 
Q 3669 2231 3669 1497 
Q 3669 778 3244 343 
Q 2819 -91 2113 -91 
Q 1303 -91 875 529 
Q 447 1150 447 2328 
Q 447 3434 972 4092 
Q 1497 4750 2381 4750 
Q 2619 4750 2861 4703 
Q 3103 4656 3366 4563 
z
" transform="scale(0.015625)"/>
       </defs>
       <use xlink:href="#DejaVuSans-30"/>
       <use xlink:href="#DejaVuSans-2e" x="63.623047"/>
       <use xlink:href="#DejaVuSans-36" x="95.410156"/>
      </g>
     </g>
    </g>
    <g id="ytick_4">
     <g id="line2d_25">
      <path d="M 72 110.407678 
L 518.4 110.407678 
" clip-path="url(#p6749dccb07)" style="fill: none; stroke: #b0b0b0; stroke-opacity: 0.5; stroke-width: 0.8; stroke-linecap: square"/>
     </g>
     <g id="line2d_26">
      <g>
       <use xlink:href="#m853e701255" x="72" y="110.407678" style="stroke: #000000; stroke-width: 0.8"/>
      </g>
     </g>
     <g id="text_14">
      <!-- 0.8 -->
      <g transform="translate(49.096875 114.206897)scale(0.1 -0.1)">
       <defs>
        <path id="DejaVuSans-38" d="M 2034 2216 
Q 1584 2216 1326 1975 
Q 1069 1734 1069 1313 
Q 1069 891 1326 650 
Q 1584 409 2034 409 
Q 2484 409 2743 651 
Q 3003 894 3003 1313 
Q 3003 1734 2745 1975 
Q 2488 2216 2034 2216 
z
M 1403 2484 
Q 997 2584 770 2862 
Q 544 3141 544 3541 
Q 544 4100 942 4425 
Q 1341 4750 2034 4750 
Q 2731 4750 3128 4425 
Q 3525 4100 3525 3541 
Q 3525 3141 3298 2862 
Q 3072 2584 2669 2484 
Q 3125 2378 3379 2068 
Q 3634 1759 3634 1313 
Q 3634 634 3220 271 
Q 2806 -91 2034 -91 
Q 1263 -91 848 271 
Q 434 634 434 1313 
Q 434 1759 690 2068 
Q 947 2378 1403 2484 
z
M 1172 3481 
Q 1172 3119 1398 2916 
Q 1625 2713 2034 2713 
Q 2441 2713 2670 2916 
Q 2900 3119 2900 3481 
Q 2900 3844 2670 4047 
Q 2441 4250 2034 4250 
Q 1625 4250 1398 4047 
Q 1172 3844 1172 3481 
z
" transform="scale(0.015625)"/>
       </defs>
       <use xlink:href="#DejaVuSans-30"/>
       <use xlink:href="#DejaVuSans-2e" x="63.623047"/>
       <use xlink:href="#DejaVuSans-38" x="95.410156"/>
      </g>
     </g>
    </g>
    <g id="text_15">
     <!-- Accuracy -->
     <g transform="translate(43.017187 240.988125)rotate(-90)scale(0.1 -0.1)">
      <defs>
       <path id="DejaVuSans-41" d="M 2188 4044 
L 1331 1722 
L 3047 1722 
L 2188 4044 
z
M 1831 4666 
L 2547 4666 
L 4325 0 
L 3669 0 
L 3244 1197 
L 1141 1197 
L 716 0 
L 50 0 
L 1831 4666 
z
" transform="scale(0.015625)"/>
       <path id="DejaVuSans-79" d="M 2059 -325 
Q 1816 -950 1584 -1140 
Q 1353 -1331 966 -1331 
L 506 -1331 
L 506 -850 
L 844 -850 
Q 1081 -850 1212 -737 
Q 1344 -625 1503 -206 
L 1606 56 
L 191 3500 
L 800 3500 
L 1894 763 
L 2988 3500 
L 3597 3500 
L 2059 -325 
z
" transform="scale(0.015625)"/>
      </defs>
      <use xlink:href="#DejaVuSans-41"/>
      <use xlink:href="#DejaVuSans-63" x="66.658203"/>
      <use xlink:href="#DejaVuSans-63" x="121.638672"/>
      <use xlink:href="#DejaVuSans-75" x="176.619141"/>
      <use xlink:href="#DejaVuSans-72" x="239.998047"/>
      <use xlink:href="#DejaVuSans-61" x="281.111328"/>
      <use xlink:href="#DejaVuSans-63" x="342.390625"/>
      <use xlink:href="#DejaVuSans-79" x="397.371094"/>
     </g>
    </g>
   </g>
   <g id="line2d_27">
    <path d="M 92.290909 365.094985 
L 94.32 366.169907 
L 96.349091 358.680124 
L 98.378182 347.514799 
L 100.407273 352.230588 
L 102.436364 337.042972 
L 104.465455 323.727802 
L 106.494545 318.353189 
L 108.523636 301.466502 
L 110.552727 292.867121 
L 112.581818 277.64483 
L 114.610909 268.872074 
L 116.64 262.00644 
L 120.698182 233.503653 
L 122.727273 222.997152 
L 124.756364 205.208916 
L 126.785455 200.285077 
L 128.814545 186.380433 
L 130.843636 183.363715 
L 132.872727 175.873932 
L 134.901818 164.084458 
L 136.930909 160.85969 
L 138.96 149.72904 
L 140.989091 149.070217 
L 143.018182 143.695604 
L 145.047273 136.448545 
L 147.076364 146.296223 
L 149.105455 133.431827 
L 151.134545 136.20582 
L 153.163636 124.832446 
L 155.192727 125.040495 
L 157.221818 113.077647 
L 159.250909 126.566192 
L 161.28 114.360619 
L 163.309091 117.585387 
L 165.338182 111.794675 
L 167.367273 116.475789 
L 169.396364 109.402105 
L 171.425455 115.851641 
L 173.454545 103.438019 
L 175.483636 106.420062 
L 177.512727 113.285697 
L 179.541818 115.192817 
L 181.570909 114.776718 
L 183.6 102.328421 
L 185.629091 103.438019 
L 187.658182 103.229969 
L 189.687273 94.422539 
L 191.716364 105.13709 
L 193.745455 112.834923 
L 195.774545 96.780433 
L 197.803636 100.837399 
L 199.832727 105.761238 
L 201.861818 100.178576 
L 203.890909 98.063406 
L 205.92 93.347616 
L 207.949091 94.873313 
L 209.978182 96.745759 
L 212.007273 97.855356 
L 214.036364 96.572384 
L 216.065455 100.837399 
L 220.123636 94.630588 
L 222.152727 88.215728 
L 224.181818 93.971765 
L 226.210909 85.615108 
L 228.24 93.763715 
L 230.269091 92.480743 
L 232.298182 90.989721 
L 234.327273 98.722229 
L 236.356364 87.556904 
L 238.385455 86.481981 
L 240.414545 91.648545 
L 242.443636 84.748235 
L 244.472727 94.179814 
L 246.501818 84.366811 
L 248.530909 91.197771 
L 250.56 89.047926 
L 252.589091 89.29065 
L 254.618182 88.007678 
L 256.647273 89.914799 
L 258.676364 94.00644 
L 260.705455 87.348854 
L 262.734545 94.214489 
L 264.763636 86.89808 
L 266.792727 89.4987 
L 268.821818 90.330898 
L 270.850909 89.047926 
L 272.88 86.89808 
L 274.909091 99.554427 
L 276.938182 84.78291 
L 278.967273 94.179814 
L 280.996364 85.823158 
L 283.025455 88.631827 
L 285.054545 95.705511 
L 287.083636 89.29065 
L 289.112727 87.348854 
L 291.141818 88.389102 
L 293.170909 88.423777 
L 295.2 84.99096 
L 297.229091 89.29065 
L 299.258182 84.366811 
L 301.287273 86.724706 
L 303.316364 89.4987 
L 305.345455 90.122848 
L 307.374545 84.574861 
L 309.403636 81.974241 
L 313.461818 85.407059 
L 315.490909 83.049164 
L 317.52 87.556904 
L 319.549091 82.216966 
L 321.578182 86.724706 
L 323.607273 85.233684 
L 325.636364 87.348854 
L 327.665455 88.423777 
L 329.694545 90.157523 
L 331.723636 89.949474 
L 333.752727 84.574861 
L 335.781818 81.974241 
L 337.810909 86.89808 
L 339.84 83.083839 
L 341.869091 86.724706 
L 343.898182 83.916037 
L 345.927273 91.648545 
L 347.956364 84.366811 
L 352.014545 86.065882 
L 354.043636 81.142043 
L 356.072727 88.874551 
L 358.101818 88.631827 
L 360.130909 79.859071 
L 362.16 92.896842 
L 364.189091 82.841115 
L 366.218182 92.480743 
L 368.247273 83.916037 
L 370.276364 81.592817 
L 372.305455 83.291889 
L 374.334545 83.291889 
L 376.363636 86.273932 
L 378.392727 86.481981 
L 380.421818 86.932755 
L 382.450909 83.291889 
L 384.48 85.199009 
L 386.509091 81.974241 
L 388.538182 81.592817 
L 390.567273 82.841115 
L 392.596364 86.724706 
L 394.625455 78.992198 
L 396.654545 80.899319 
L 398.683636 93.971765 
L 400.712727 86.065882 
L 402.741818 83.499938 
L 404.770909 82.425015 
L 406.8 83.291889 
L 408.829091 83.707988 
L 410.858182 82.425015 
L 412.887273 77.917276 
L 414.916364 77.917276 
L 416.945455 79.442972 
L 418.974545 85.615108 
L 421.003636 88.423777 
L 423.032727 82.841115 
L 427.090909 83.707988 
L 429.12 85.441734 
L 431.149091 85.441734 
L 433.178182 86.481981 
L 435.207273 80.067121 
L 437.236364 80.27517 
L 439.265455 89.255975 
L 441.294545 79.200248 
L 443.323636 82.390341 
L 445.352727 78.125325 
L 447.381818 81.142043 
L 449.410909 81.142043 
L 451.44 82.182291 
L 455.498182 77.050402 
L 457.527273 83.916037 
L 459.556364 83.707988 
L 461.585455 80.27517 
L 463.614545 87.764954 
L 465.643636 80.067121 
L 467.672727 82.390341 
L 469.701818 79.651022 
L 471.730909 77.258452 
L 473.76 80.899319 
L 475.789091 82.390341 
L 477.818182 80.691269 
L 479.847273 78.784149 
L 481.876364 75.97548 
L 483.905455 78.784149 
L 485.934545 84.574861 
L 487.963636 78.36805 
L 489.992727 80.899319 
L 492.021818 86.690031 
L 494.050909 83.465263 
L 496.08 78.576099 
L 498.109091 83.049164 
L 498.109091 83.049164 
" clip-path="url(#p6749dccb07)" style="fill: none; stroke: #1f77b4; stroke-width: 1.5; stroke-linecap: square"/>
   </g>
   <g id="line2d_28">
    <path d="M 92.290909 364.470836 
L 94.32 361.870217 
L 96.349091 350.739567 
L 98.378182 350.739567 
L 102.436364 336.384149 
L 104.465455 326.709845 
L 106.494545 314.746997 
L 108.523636 305.696842 
L 110.552727 286.45226 
L 112.581818 279.794675 
L 116.64 260.064644 
L 118.669091 248.725944 
L 120.698182 234.370526 
L 122.727273 228.12904 
L 124.756364 223.864025 
L 126.785455 211.658452 
L 128.814545 197.06031 
L 130.843636 186.796533 
L 134.901818 161.06774 
L 136.930909 158.085697 
L 138.96 151.428111 
L 140.989091 152.294985 
L 143.018182 140.92161 
L 145.047273 133.189102 
L 147.076364 138.355666 
L 149.105455 132.322229 
L 151.134545 147.579195 
L 153.163636 125.28322 
L 155.192727 116.05969 
L 157.221818 127.641115 
L 159.250909 112.002724 
L 161.28 103.646068 
L 163.309091 112.626873 
L 165.338182 103.611393 
L 167.367273 104.92904 
L 169.396364 102.571146 
L 171.425455 109.228731 
L 173.454545 111.586625 
L 175.483636 104.686316 
L 177.512727 99.554427 
L 179.541818 98.479505 
L 181.570909 102.155046 
L 183.6 105.345139 
L 185.629091 95.91356 
L 187.658182 98.063406 
L 189.687273 96.12161 
L 191.716364 92.688793 
L 193.745455 97.855356 
L 195.774545 108.777957 
L 197.803636 89.29065 
L 201.861818 100.213251 
L 203.890909 88.423777 
L 205.92 98.479505 
L 207.949091 91.648545 
L 209.978182 94.179814 
L 212.007273 88.839876 
L 214.036364 92.480743 
L 216.065455 85.441734 
L 218.094545 92.272693 
L 220.123636 86.89808 
L 222.152727 102.328421 
L 224.181818 83.916037 
L 226.210909 92.723467 
L 228.24 86.273932 
L 230.269091 84.124087 
L 232.298182 90.573622 
L 234.327273 85.615108 
L 236.356364 88.631827 
L 238.385455 85.233684 
L 240.414545 90.330898 
L 244.472727 81.558142 
L 246.501818 83.049164 
L 248.530909 86.89808 
L 250.56 87.764954 
L 252.589091 79.408297 
L 254.618182 77.466502 
L 256.647273 84.574861 
L 258.676364 81.350093 
L 260.705455 78.784149 
L 262.734545 80.691269 
L 264.763636 82.841115 
L 266.792727 86.481981 
L 268.821818 77.258452 
L 270.850909 79.859071 
L 272.88 77.709226 
L 274.909091 80.032446 
L 276.938182 77.050402 
L 278.967273 80.899319 
L 280.996364 83.950712 
L 283.025455 81.350093 
L 285.054545 79.616347 
L 287.083636 83.707988 
L 289.112727 81.142043 
L 291.141818 77.258452 
L 293.170909 84.332136 
L 295.2 76.010155 
L 297.229091 80.691269 
L 299.258182 78.541424 
L 301.287273 74.935232 
L 303.316364 79.200248 
L 305.345455 81.350093 
L 307.374545 74.484458 
L 309.403636 80.899319 
L 311.432727 77.917276 
L 313.461818 78.541424 
L 315.490909 77.258452 
L 317.52 76.877028 
L 319.549091 75.97548 
L 321.578182 74.935232 
L 323.607273 74.692508 
L 325.636364 74.276409 
L 327.665455 84.574861 
L 329.694545 74.935232 
L 331.723636 84.124087 
L 333.752727 72.126563 
L 335.781818 74.484458 
L 337.810909 70.843591 
L 339.84 77.709226 
L 341.869091 74.068359 
L 343.898182 74.692508 
L 345.927273 72.126563 
L 347.956364 73.617585 
L 349.985455 76.426254 
L 352.014545 71.918514 
L 354.043636 80.691269 
L 356.072727 73.825635 
L 358.101818 74.692508 
L 360.130909 70.011393 
L 362.16 76.391579 
L 364.189091 72.993437 
L 366.218182 71.918514 
L 368.247273 76.010155 
L 370.276364 84.99096 
L 372.305455 74.935232 
L 374.334545 81.142043 
L 376.363636 74.276409 
L 378.392727 77.050402 
L 380.421818 70.184768 
L 382.450909 80.517895 
L 384.48 79.200248 
L 386.509091 75.143282 
L 388.538182 77.466502 
L 390.567273 73.617585 
L 392.596364 83.499938 
L 394.625455 74.068359 
L 396.654545 85.857833 
L 398.683636 73.617585 
L 400.712727 72.993437 
L 402.741818 73.444211 
L 404.770909 72.785387 
L 406.8 74.484458 
L 408.829091 73.617585 
L 410.858182 73.201486 
L 412.887273 74.276409 
L 414.916364 74.276409 
L 416.945455 71.051641 
L 418.974545 72.161238 
L 421.003636 72.542663 
L 423.032727 71.918514 
L 425.061818 85.649783 
L 427.090909 75.108607 
L 429.12 72.993437 
L 431.149091 76.426254 
L 433.178182 76.010155 
L 435.207273 76.010155 
L 437.236364 82.182291 
L 439.265455 71.675789 
L 441.294545 71.086316 
L 443.323636 74.935232 
L 445.352727 67.202724 
L 447.381818 76.877028 
L 449.410909 74.935232 
L 451.44 81.350093 
L 453.469091 71.294365 
L 455.498182 74.935232 
L 457.527273 80.899319 
L 459.556364 67.861548 
L 461.585455 76.426254 
L 463.614545 70.635542 
L 465.643636 74.033684 
L 467.672727 80.48322 
L 469.701818 73.201486 
L 471.730909 69.14452 
L 473.76 77.258452 
L 475.789091 70.184768 
L 477.818182 72.161238 
L 479.847273 70.427492 
L 481.876364 71.086316 
L 483.905455 77.709226 
L 485.934545 70.843591 
L 487.963636 73.201486 
L 489.992727 66.96 
L 492.021818 70.843591 
L 494.050909 71.710464 
L 496.08 76.877028 
L 498.109091 71.051641 
L 498.109091 71.051641 
" clip-path="url(#p6749dccb07)" style="fill: none; stroke: #ff7f0e; stroke-width: 1.5; stroke-linecap: square"/>
   </g>
   <g id="line2d_29">
    <path d="M 92.290909 369.36 
L 94.32 358.0213 
L 96.349091 363.153189 
L 98.378182 353.305511 
L 100.407273 350.739567 
L 102.436364 347.514799 
L 104.465455 335.066502 
L 106.494545 326.95257 
L 108.523636 303.997771 
L 110.552727 299.281981 
L 112.581818 280.453498 
L 114.610909 281.077647 
L 116.64 269.288173 
L 118.669091 260.515418 
L 120.698182 245.258452 
L 122.727273 240.334613 
L 124.756364 224.072074 
L 126.785455 220.431207 
L 128.814545 212.906749 
L 130.843636 182.288793 
L 132.872727 168.141424 
L 134.901818 157.426873 
L 136.930909 154.860929 
L 138.96 149.72904 
L 140.989091 140.505511 
L 143.018182 138.979814 
L 145.047273 134.922848 
L 147.076364 119.700557 
L 149.105455 131.524706 
L 151.134545 130.623158 
L 153.163636 116.475789 
L 155.192727 131.940805 
L 157.221818 106.420062 
L 159.250909 119.700557 
L 161.28 102.779195 
L 163.309091 104.478266 
L 165.338182 104.720991 
L 167.367273 104.686316 
L 169.396364 100.4213 
L 171.425455 101.288173 
L 173.454545 97.647307 
L 175.483636 102.571146 
L 177.512727 101.045449 
L 179.541818 99.138328 
L 181.570909 92.688793 
L 183.6 93.555666 
L 185.629091 107.494985 
L 187.658182 88.839876 
L 189.687273 92.064644 
L 191.716364 89.29065 
L 193.745455 95.705511 
L 195.774545 86.481981 
L 197.803636 95.254737 
L 199.832727 88.631827 
L 201.861818 89.914799 
L 203.890909 91.648545 
L 205.92 93.139567 
L 207.949091 99.346378 
L 209.978182 93.79839 
L 212.007273 80.899319 
L 214.036364 81.558142 
L 216.065455 88.215728 
L 218.094545 86.932755 
L 220.123636 88.215728 
L 222.152727 90.157523 
L 224.181818 87.140805 
L 226.210909 82.390341 
L 228.24 79.442972 
L 230.269091 87.348854 
L 232.298182 98.479505 
L 234.327273 84.78291 
L 236.356364 85.615108 
L 238.385455 80.691269 
L 240.414545 83.291889 
L 242.443636 82.841115 
L 244.472727 86.273932 
L 246.501818 90.538947 
L 248.530909 89.4987 
L 250.56 83.049164 
L 252.589091 84.99096 
L 254.618182 90.573622 
L 256.647273 81.766192 
L 258.676364 79.200248 
L 260.705455 83.291889 
L 262.734545 80.032446 
L 264.763636 83.049164 
L 266.792727 84.124087 
L 270.850909 78.541424 
L 272.88 79.408297 
L 274.909091 78.125325 
L 276.938182 76.391579 
L 278.967273 76.391579 
L 280.996364 81.558142 
L 283.025455 80.691269 
L 285.054545 81.142043 
L 287.083636 82.216966 
L 289.112727 81.350093 
L 291.141818 80.899319 
L 293.170909 86.481981 
L 295.2 82.633065 
L 297.229091 89.29065 
L 299.258182 81.800867 
L 301.287273 75.351331 
L 303.316364 76.426254 
L 305.345455 78.992198 
L 307.374545 80.27517 
L 309.403636 74.935232 
L 311.432727 80.27517 
L 313.461818 79.442972 
L 315.490909 80.27517 
L 317.52 74.727183 
L 319.549091 79.651022 
L 321.578182 89.255975 
L 323.607273 74.276409 
L 325.636364 74.727183 
L 327.665455 73.201486 
L 329.694545 76.634303 
L 331.723636 70.427492 
L 333.752727 80.48322 
L 335.781818 73.825635 
L 337.810909 71.086316 
L 339.84 73.409536 
L 341.869091 76.391579 
L 343.898182 78.992198 
L 345.927273 76.842353 
L 347.956364 73.617585 
L 349.985455 71.051641 
L 352.014545 77.050402 
L 354.043636 74.484458 
L 356.072727 73.617585 
L 358.101818 75.559381 
L 360.130909 75.108607 
L 362.16 74.935232 
L 364.189091 70.184768 
L 366.218182 72.161238 
L 368.247273 71.710464 
L 370.276364 70.184768 
L 372.305455 75.97548 
L 376.363636 71.675789 
L 378.392727 68.069598 
L 380.421818 73.617585 
L 382.450909 77.293127 
L 384.48 79.200248 
L 386.509091 74.276409 
L 390.567273 74.276409 
L 392.596364 70.219443 
L 394.625455 74.692508 
L 396.654545 76.634303 
L 398.683636 76.426254 
L 400.712727 76.010155 
L 404.770909 73.409536 
L 406.8 71.051641 
L 408.829091 77.258452 
L 410.858182 73.617585 
L 412.887273 74.935232 
L 414.916364 74.276409 
L 416.945455 74.935232 
L 418.974545 69.976718 
L 421.003636 73.201486 
L 423.032727 70.843591 
L 425.061818 79.200248 
L 427.090909 76.218204 
L 429.12 75.143282 
L 431.149091 76.877028 
L 433.178182 80.27517 
L 435.207273 71.46774 
L 437.236364 73.444211 
L 439.265455 71.051641 
L 441.294545 74.068359 
L 443.323636 74.484458 
L 445.352727 70.635542 
L 447.381818 71.675789 
L 449.410909 76.634303 
L 451.44 75.108607 
L 453.469091 75.351331 
L 455.498182 74.068359 
L 457.527273 69.14452 
L 459.556364 71.46774 
L 461.585455 68.693746 
L 463.614545 76.634303 
L 465.643636 75.559381 
L 467.672727 72.785387 
L 469.701818 71.051641 
L 471.730909 68.901796 
L 473.76 74.484458 
L 475.789091 69.560619 
L 477.818182 71.25969 
L 479.847273 73.201486 
L 481.876364 68.034923 
L 483.905455 70.635542 
L 485.934545 76.634303 
L 487.963636 70.427492 
L 489.992727 73.444211 
L 492.021818 71.46774 
L 494.050909 71.25969 
L 496.08 68.901796 
L 498.109091 75.76743 
L 498.109091 75.76743 
" clip-path="url(#p6749dccb07)" style="fill: none; stroke: #2ca02c; stroke-width: 1.5; stroke-linecap: square"/>
   </g>
   <g id="line2d_30">
    <path d="M 92.290909 366.828731 
L 94.32 363.395913 
L 96.349091 367.03678 
L 98.378182 357.154427 
L 100.407273 356.287554 
L 102.436364 344.532755 
L 104.465455 340.683839 
L 106.494545 335.933375 
L 108.523636 319.636161 
L 110.552727 314.504272 
L 112.581818 296.057214 
L 114.610909 282.776718 
L 116.64 270.779195 
L 118.669091 292.416347 
L 120.698182 276.604582 
L 122.727273 253.649783 
L 124.756364 229.203963 
L 126.785455 218.281362 
L 128.814545 208.225635 
L 130.843636 186.553808 
L 132.872727 176.948854 
L 134.901818 172.649164 
L 136.930909 159.784768 
L 138.96 152.919133 
L 140.989091 149.902415 
L 143.018182 168.592198 
L 145.047273 135.997771 
L 147.076364 141.788483 
L 149.105455 133.639876 
L 151.134545 131.490031 
L 153.163636 120.359381 
L 155.192727 121.191579 
L 157.221818 118.417585 
L 159.250909 126.358142 
L 161.28 119.492508 
L 163.309091 114.568669 
L 165.338182 107.703034 
L 167.367273 111.76 
L 169.396364 103.854118 
L 171.425455 110.927802 
L 173.454545 116.926563 
L 175.483636 94.873313 
L 177.512727 96.572384 
L 179.541818 98.930279 
L 181.570909 96.780433 
L 183.6 99.138328 
L 185.629091 109.852879 
L 187.658182 104.478266 
L 189.687273 103.229969 
L 191.716364 104.686316 
L 193.745455 98.271455 
L 195.774545 110.511703 
L 197.803636 111.55195 
L 199.832727 85.407059 
L 201.861818 98.51418 
L 203.890909 88.839876 
L 205.92 93.139567 
L 207.949091 96.572384 
L 209.978182 90.989721 
L 212.007273 87.140805 
L 214.036364 94.630588 
L 216.065455 93.971765 
L 218.094545 89.29065 
L 220.123636 92.480743 
L 222.152727 86.724706 
L 224.181818 93.139567 
L 226.210909 92.931517 
L 228.24 90.330898 
L 230.269091 83.291889 
L 232.298182 87.764954 
L 234.327273 85.823158 
L 236.356364 86.932755 
L 238.385455 88.215728 
L 240.414545 88.215728 
L 242.443636 85.441734 
L 244.472727 78.36805 
L 246.501818 85.233684 
L 248.530909 83.049164 
L 250.56 85.615108 
L 252.589091 85.615108 
L 254.618182 84.78291 
L 256.647273 80.517895 
L 258.676364 81.142043 
L 260.705455 83.291889 
L 262.734545 75.76743 
L 264.763636 87.140805 
L 266.792727 81.350093 
L 268.821818 78.576099 
L 270.850909 84.124087 
L 272.88 82.841115 
L 274.909091 86.481981 
L 276.938182 79.859071 
L 278.967273 83.291889 
L 280.996364 83.465263 
L 283.025455 81.350093 
L 285.054545 99.554427 
L 287.083636 78.784149 
L 289.112727 76.391579 
L 291.141818 84.99096 
L 293.170909 85.823158 
L 295.2 78.992198 
L 297.229091 82.633065 
L 299.258182 80.899319 
L 301.287273 74.935232 
L 303.316364 74.935232 
L 305.345455 89.706749 
L 307.374545 79.859071 
L 309.403636 77.501176 
L 311.432727 76.218204 
L 313.461818 74.484458 
L 315.490909 78.749474 
L 317.52 76.842353 
L 319.549091 85.615108 
L 321.578182 74.276409 
L 323.607273 80.899319 
L 325.636364 88.666502 
L 327.665455 73.201486 
L 329.694545 75.143282 
L 331.723636 78.125325 
L 333.752727 83.291889 
L 335.781818 78.36805 
L 337.810909 72.785387 
L 339.84 81.800867 
L 341.869091 71.46774 
L 343.898182 77.709226 
L 345.927273 76.391579 
L 347.956364 77.293127 
L 349.985455 83.916037 
L 352.014545 77.258452 
L 354.043636 77.501176 
L 356.072727 78.125325 
L 358.101818 78.36805 
L 360.130909 73.617585 
L 362.16 77.258452 
L 364.189091 76.010155 
L 366.218182 74.068359 
L 368.247273 72.334613 
L 370.276364 76.218204 
L 372.305455 83.291889 
L 374.334545 75.594056 
L 376.363636 74.068359 
L 378.392727 77.709226 
L 380.421818 77.709226 
L 382.450909 75.108607 
L 384.48 73.617585 
L 386.509091 76.218204 
L 388.538182 73.617585 
L 390.567273 84.574861 
L 392.596364 78.36805 
L 394.625455 78.784149 
L 396.654545 71.918514 
L 398.683636 72.126563 
L 400.712727 73.444211 
L 402.741818 74.484458 
L 404.770909 75.351331 
L 406.8 78.16 
L 408.829091 70.635542 
L 410.858182 80.067121 
L 412.887273 72.334613 
L 414.916364 88.666502 
L 416.945455 73.201486 
L 418.974545 75.559381 
L 421.003636 72.126563 
L 423.032727 75.108607 
L 425.061818 72.161238 
L 427.090909 79.200248 
L 429.12 72.542663 
L 431.149091 71.918514 
L 433.178182 70.427492 
L 435.207273 76.218204 
L 437.236364 78.36805 
L 439.265455 74.484458 
L 441.294545 79.408297 
L 443.323636 74.276409 
L 445.352727 73.617585 
L 447.381818 69.35257 
L 449.410909 78.992198 
L 451.44 71.675789 
L 453.469091 76.218204 
L 455.498182 79.200248 
L 457.527273 70.843591 
L 459.556364 75.108607 
L 461.585455 71.710464 
L 463.614545 78.784149 
L 465.643636 71.710464 
L 467.672727 72.542663 
L 469.701818 71.918514 
L 471.730909 71.710464 
L 473.76 70.184768 
L 475.789091 68.936471 
L 477.818182 72.126563 
L 479.847273 80.067121 
L 481.876364 75.76743 
L 483.905455 68.901796 
L 485.934545 76.218204 
L 487.963636 72.161238 
L 489.992727 72.334613 
L 492.021818 76.634303 
L 494.050909 72.785387 
L 496.08 80.067121 
L 498.109091 79.859071 
L 498.109091 79.859071 
" clip-path="url(#p6749dccb07)" style="fill: none; stroke: #d62728; stroke-width: 1.5; stroke-linecap: square"/>
   </g>
   <g id="patch_3">
    <path d="M 72 384.48 
L 72 51.84 
" style="fill: none; stroke: #000000; stroke-width: 0.8; stroke-linejoin: miter; stroke-linecap: square"/>
   </g>
   <g id="patch_4">
    <path d="M 518.4 384.48 
L 518.4 51.84 
" style="fill: none; stroke: #000000; stroke-width: 0.8; stroke-linejoin: miter; stroke-linecap: square"/>
   </g>
   <g id="patch_5">
    <path d="M 72 384.48 
L 518.4 384.48 
" style="fill: none; stroke: #000000; stroke-width: 0.8; stroke-linejoin: miter; stroke-linecap: square"/>
   </g>
   <g id="patch_6">
    <path d="M 72 51.84 
L 518.4 51.84 
" style="fill: none; stroke: #000000; stroke-width: 0.8; stroke-linejoin: miter; stroke-linecap: square"/>
   </g>
   <g id="text_16">
    <!-- Max-Common -->
    <g transform="translate(253.606875 45.84)scale(0.12 -0.12)">
     <defs>
      <path id="DejaVuSans-4d" d="M 628 4666 
L 1569 4666 
L 2759 1491 
L 3956 4666 
L 4897 4666 
L 4897 0 
L 4281 0 
L 4281 4097 
L 3078 897 
L 2444 897 
L 1241 4097 
L 1241 0 
L 628 0 
L 628 4666 
z
" transform="scale(0.015625)"/>
      <path id="DejaVuSans-78" d="M 3513 3500 
L 2247 1797 
L 3578 0 
L 2900 0 
L 1881 1375 
L 863 0 
L 184 0 
L 1544 1831 
L 300 3500 
L 978 3500 
L 1906 2253 
L 2834 3500 
L 3513 3500 
z
" transform="scale(0.015625)"/>
      <path id="DejaVuSans-2d" d="M 313 2009 
L 1997 2009 
L 1997 1497 
L 313 1497 
L 313 2009 
z
" transform="scale(0.015625)"/>
     </defs>
     <use xlink:href="#DejaVuSans-4d"/>
     <use xlink:href="#DejaVuSans-61" x="86.279297"/>
     <use xlink:href="#DejaVuSans-78" x="147.558594"/>
     <use xlink:href="#DejaVuSans-2d" x="206.738281"/>
     <use xlink:href="#DejaVuSans-43" x="242.822266"/>
     <use xlink:href="#DejaVuSans-6f" x="312.646484"/>
     <use xlink:href="#DejaVuSans-6d" x="373.828125"/>
     <use xlink:href="#DejaVuSans-6d" x="471.240234"/>
     <use xlink:href="#DejaVuSans-6f" x="568.652344"/>
     <use xlink:href="#DejaVuSans-6e" x="629.833984"/>
    </g>
   </g>
   <g id="legend_1">
    <g id="patch_7">
     <path d="M 79 118.5525 
L 124.203125 118.5525 
Q 126.203125 118.5525 126.203125 116.5525 
L 126.203125 58.84 
Q 126.203125 56.84 124.203125 56.84 
L 79 56.84 
Q 77 56.84 77 58.84 
L 77 116.5525 
Q 77 118.5525 79 118.5525 
z
" style="fill: #ffffff; opacity: 0.8; stroke: #cccccc; stroke-linejoin: miter"/>
    </g>
    <g id="line2d_31">
     <path d="M 81 64.938438 
L 91 64.938438 
L 101 64.938438 
" style="fill: none; stroke: #1f77b4; stroke-width: 1.5; stroke-linecap: square"/>
    </g>
    <g id="text_17">
     <!-- V1 -->
     <g transform="translate(109 68.438438)scale(0.1 -0.1)">
      <defs>
       <path id="DejaVuSans-56" d="M 1831 0 
L 50 4666 
L 709 4666 
L 2188 738 
L 3669 4666 
L 4325 4666 
L 2547 0 
L 1831 0 
z
" transform="scale(0.015625)"/>
      </defs>
      <use xlink:href="#DejaVuSans-56"/>
      <use xlink:href="#DejaVuSans-31" x="68.408203"/>
     </g>
    </g>
    <g id="line2d_32">
     <path d="M 81 79.616563 
L 91 79.616563 
L 101 79.616563 
" style="fill: none; stroke: #ff7f0e; stroke-width: 1.5; stroke-linecap: square"/>
    </g>
    <g id="text_18">
     <!-- V2 -->
     <g transform="translate(109 83.116563)scale(0.1 -0.1)">
      <use xlink:href="#DejaVuSans-56"/>
      <use xlink:href="#DejaVuSans-32" x="68.408203"/>
     </g>
    </g>
    <g id="line2d_33">
     <path d="M 81 94.294688 
L 91 94.294688 
L 101 94.294688 
" style="fill: none; stroke: #2ca02c; stroke-width: 1.5; stroke-linecap: square"/>
    </g>
    <g id="text_19">
     <!-- V3 -->
     <g transform="translate(109 97.794688)scale(0.1 -0.1)">
      <defs>
       <path id="DejaVuSans-33" d="M 2597 2516 
Q 3050 2419 3304 2112 
Q 3559 1806 3559 1356 
Q 3559 666 3084 287 
Q 2609 -91 1734 -91 
Q 1441 -91 1130 -33 
Q 819 25 488 141 
L 488 750 
Q 750 597 1062 519 
Q 1375 441 1716 441 
Q 2309 441 2620 675 
Q 2931 909 2931 1356 
Q 2931 1769 2642 2001 
Q 2353 2234 1838 2234 
L 1294 2234 
L 1294 2753 
L 1863 2753 
Q 2328 2753 2575 2939 
Q 2822 3125 2822 3475 
Q 2822 3834 2567 4026 
Q 2313 4219 1838 4219 
Q 1578 4219 1281 4162 
Q 984 4106 628 3988 
L 628 4550 
Q 988 4650 1302 4700 
Q 1616 4750 1894 4750 
Q 2613 4750 3031 4423 
Q 3450 4097 3450 3541 
Q 3450 3153 3228 2886 
Q 3006 2619 2597 2516 
z
" transform="scale(0.015625)"/>
      </defs>
      <use xlink:href="#DejaVuSans-56"/>
      <use xlink:href="#DejaVuSans-33" x="68.408203"/>
     </g>
    </g>
    <g id="line2d_34">
     <path d="M 81 108.972813 
L 91 108.972813 
L 101 108.972813 
" style="fill: none; stroke: #d62728; stroke-width: 1.5; stroke-linecap: square"/>
    </g>
    <g id="text_20">
     <!-- V4 -->
     <g transform="translate(109 112.472813)scale(0.1 -0.1)">
      <use xlink:href="#DejaVuSans-56"/>
      <use xlink:href="#DejaVuSans-34" x="68.408203"/>
     </g>
    </g>
   </g>
  </g>
 </g>
 <defs>
  <clipPath id="p6749dccb07">
   <rect x="72" y="51.84" width="446.4" height="332.64"/>
  </clipPath>
 </defs>
</svg>
