<?xml version="1.0" encoding="utf-8" standalone="no"?>
<!DOCTYPE svg PUBLIC "-//W3C//DTD SVG 1.1//EN"
  "http://www.w3.org/Graphics/SVG/1.1/DTD/svg11.dtd">
<svg xmlns:xlink="http://www.w3.org/1999/xlink" width="576pt" height="432pt" viewBox="0 0 576 432" xmlns="http://www.w3.org/2000/svg" version="1.1">
 <metadata>
  <rdf:RDF xmlns:dc="http://purl.org/dc/elements/1.1/" xmlns:cc="http://creativecommons.org/ns#" xmlns:rdf="http://www.w3.org/1999/02/22-rdf-syntax-ns#">
   <cc:Work>
    <dc:type rdf:resource="http://purl.org/dc/dcmitype/StillImage"/>
    <dc:date>2023-08-04T11:15:02.293220</dc:date>
    <dc:format>image/svg+xml</dc:format>
    <dc:creator>
     <cc:Agent>
      <dc:title>Matplotlib v3.5.2, https://matplotlib.org/</dc:title>
     </cc:Agent>
    </dc:creator>
   </cc:Work>
  </rdf:RDF>
 </metadata>
 <defs>
  <style type="text/css">*{stroke-linejoin: round; stroke-linecap: butt}</style>
 </defs>
 <g id="figure_1">
  <g id="patch_1">
   <path d="M 0 432 
L 576 432 
L 576 0 
L 0 0 
L 0 432 
z
" style="fill: none"/>
  </g>
  <g id="axes_1">
   <g id="patch_2">
    <path d="M 72 378 
L 518.4 378 
L 518.4 51.84 
L 72 51.84 
z
" style="fill: #ffffff"/>
   </g>
   <g id="matplotlib.axis_1">
    <g id="xtick_1">
     <g id="line2d_1">
      <path d="M 92.290909 378 
L 92.290909 51.84 
" clip-path="url(#pab7d1c2f04)" style="fill: none; stroke: #b0b0b0; stroke-opacity: 0.5; stroke-width: 0.8; stroke-linecap: square"/>
     </g>
     <g id="line2d_2">
      <defs>
       <path id="m79f47073b8" d="M 0 0 
L 0 3.5 
" style="stroke: #000000; stroke-width: 0.8"/>
      </defs>
      <g>
       <use xlink:href="#m79f47073b8" x="92.290909" y="378" style="stroke: #000000; stroke-width: 0.8"/>
      </g>
     </g>
     <g id="text_1">
      <!-- 0 -->
      <g transform="translate(89.109659 392.598437)scale(0.1 -0.1)">
       <defs>
        <path id="DejaVuSans-30" d="M 2034 4250 
Q 1547 4250 1301 3770 
Q 1056 3291 1056 2328 
Q 1056 1369 1301 889 
Q 1547 409 2034 409 
Q 2525 409 2770 889 
Q 3016 1369 3016 2328 
Q 3016 3291 2770 3770 
Q 2525 4250 2034 4250 
z
M 2034 4750 
Q 2819 4750 3233 4129 
Q 3647 3509 3647 2328 
Q 3647 1150 3233 529 
Q 2819 -91 2034 -91 
Q 1250 -91 836 529 
Q 422 1150 422 2328 
Q 422 3509 836 4129 
Q 1250 4750 2034 4750 
z
" transform="scale(0.015625)"/>
       </defs>
       <use xlink:href="#DejaVuSans-30"/>
      </g>
     </g>
    </g>
    <g id="xtick_2">
     <g id="line2d_3">
      <path d="M 173.454545 378 
L 173.454545 51.84 
" clip-path="url(#pab7d1c2f04)" style="fill: none; stroke: #b0b0b0; stroke-opacity: 0.5; stroke-width: 0.8; stroke-linecap: square"/>
     </g>
     <g id="line2d_4">
      <g>
       <use xlink:href="#m79f47073b8" x="173.454545" y="378" style="stroke: #000000; stroke-width: 0.8"/>
      </g>
     </g>
     <g id="text_2">
      <!-- 50 -->
      <g transform="translate(167.092045 392.598437)scale(0.1 -0.1)">
       <defs>
        <path id="DejaVuSans-35" d="M 691 4666 
L 3169 4666 
L 3169 4134 
L 1269 4134 
L 1269 2991 
Q 1406 3038 1543 3061 
Q 1681 3084 1819 3084 
Q 2600 3084 3056 2656 
Q 3513 2228 3513 1497 
Q 3513 744 3044 326 
Q 2575 -91 1722 -91 
Q 1428 -91 1123 -41 
Q 819 9 494 109 
L 494 744 
Q 775 591 1075 516 
Q 1375 441 1709 441 
Q 2250 441 2565 725 
Q 2881 1009 2881 1497 
Q 2881 1984 2565 2268 
Q 2250 2553 1709 2553 
Q 1456 2553 1204 2497 
Q 953 2441 691 2322 
L 691 4666 
z
" transform="scale(0.015625)"/>
       </defs>
       <use xlink:href="#DejaVuSans-35"/>
       <use xlink:href="#DejaVuSans-30" x="63.623047"/>
      </g>
     </g>
    </g>
    <g id="xtick_3">
     <g id="line2d_5">
      <path d="M 254.618182 378 
L 254.618182 51.84 
" clip-path="url(#pab7d1c2f04)" style="fill: none; stroke: #b0b0b0; stroke-opacity: 0.5; stroke-width: 0.8; stroke-linecap: square"/>
     </g>
     <g id="line2d_6">
      <g>
       <use xlink:href="#m79f47073b8" x="254.618182" y="378" style="stroke: #000000; stroke-width: 0.8"/>
      </g>
     </g>
     <g id="text_3">
      <!-- 100 -->
      <g transform="translate(245.074432 392.598437)scale(0.1 -0.1)">
       <defs>
        <path id="DejaVuSans-31" d="M 794 531 
L 1825 531 
L 1825 4091 
L 703 3866 
L 703 4441 
L 1819 4666 
L 2450 4666 
L 2450 531 
L 3481 531 
L 3481 0 
L 794 0 
L 794 531 
z
" transform="scale(0.015625)"/>
       </defs>
       <use xlink:href="#DejaVuSans-31"/>
       <use xlink:href="#DejaVuSans-30" x="63.623047"/>
       <use xlink:href="#DejaVuSans-30" x="127.246094"/>
      </g>
     </g>
    </g>
    <g id="xtick_4">
     <g id="line2d_7">
      <path d="M 335.781818 378 
L 335.781818 51.84 
" clip-path="url(#pab7d1c2f04)" style="fill: none; stroke: #b0b0b0; stroke-opacity: 0.5; stroke-width: 0.8; stroke-linecap: square"/>
     </g>
     <g id="line2d_8">
      <g>
       <use xlink:href="#m79f47073b8" x="335.781818" y="378" style="stroke: #000000; stroke-width: 0.8"/>
      </g>
     </g>
     <g id="text_4">
      <!-- 150 -->
      <g transform="translate(326.238068 392.598437)scale(0.1 -0.1)">
       <use xlink:href="#DejaVuSans-31"/>
       <use xlink:href="#DejaVuSans-35" x="63.623047"/>
       <use xlink:href="#DejaVuSans-30" x="127.246094"/>
      </g>
     </g>
    </g>
    <g id="xtick_5">
     <g id="line2d_9">
      <path d="M 416.945455 378 
L 416.945455 51.84 
" clip-path="url(#pab7d1c2f04)" style="fill: none; stroke: #b0b0b0; stroke-opacity: 0.5; stroke-width: 0.8; stroke-linecap: square"/>
     </g>
     <g id="line2d_10">
      <g>
       <use xlink:href="#m79f47073b8" x="416.945455" y="378" style="stroke: #000000; stroke-width: 0.8"/>
      </g>
     </g>
     <g id="text_5">
      <!-- 200 -->
      <g transform="translate(407.401705 392.598437)scale(0.1 -0.1)">
       <defs>
        <path id="DejaVuSans-32" d="M 1228 531 
L 3431 531 
L 3431 0 
L 469 0 
L 469 531 
Q 828 903 1448 1529 
Q 2069 2156 2228 2338 
Q 2531 2678 2651 2914 
Q 2772 3150 2772 3378 
Q 2772 3750 2511 3984 
Q 2250 4219 1831 4219 
Q 1534 4219 1204 4116 
Q 875 4013 500 3803 
L 500 4441 
Q 881 4594 1212 4672 
Q 1544 4750 1819 4750 
Q 2544 4750 2975 4387 
Q 3406 4025 3406 3419 
Q 3406 3131 3298 2873 
Q 3191 2616 2906 2266 
Q 2828 2175 2409 1742 
Q 1991 1309 1228 531 
z
" transform="scale(0.015625)"/>
       </defs>
       <use xlink:href="#DejaVuSans-32"/>
       <use xlink:href="#DejaVuSans-30" x="63.623047"/>
       <use xlink:href="#DejaVuSans-30" x="127.246094"/>
      </g>
     </g>
    </g>
    <g id="xtick_6">
     <g id="line2d_11">
      <path d="M 498.109091 378 
L 498.109091 51.84 
" clip-path="url(#pab7d1c2f04)" style="fill: none; stroke: #b0b0b0; stroke-opacity: 0.5; stroke-width: 0.8; stroke-linecap: square"/>
     </g>
     <g id="line2d_12">
      <g>
       <use xlink:href="#m79f47073b8" x="498.109091" y="378" style="stroke: #000000; stroke-width: 0.8"/>
      </g>
     </g>
     <g id="text_6">
      <!-- 250 -->
      <g transform="translate(488.565341 392.598437)scale(0.1 -0.1)">
       <use xlink:href="#DejaVuSans-32"/>
       <use xlink:href="#DejaVuSans-35" x="63.623047"/>
       <use xlink:href="#DejaVuSans-30" x="127.246094"/>
      </g>
     </g>
    </g>
    <g id="text_7">
     <!-- Communication rounds -->
     <g transform="translate(237.083594 406.276563)scale(0.1 -0.1)">
      <defs>
       <path id="DejaVuSans-43" d="M 4122 4306 
L 4122 3641 
Q 3803 3938 3442 4084 
Q 3081 4231 2675 4231 
Q 1875 4231 1450 3742 
Q 1025 3253 1025 2328 
Q 1025 1406 1450 917 
Q 1875 428 2675 428 
Q 3081 428 3442 575 
Q 3803 722 4122 1019 
L 4122 359 
Q 3791 134 3420 21 
Q 3050 -91 2638 -91 
Q 1578 -91 968 557 
Q 359 1206 359 2328 
Q 359 3453 968 4101 
Q 1578 4750 2638 4750 
Q 3056 4750 3426 4639 
Q 3797 4528 4122 4306 
z
" transform="scale(0.015625)"/>
       <path id="DejaVuSans-6f" d="M 1959 3097 
Q 1497 3097 1228 2736 
Q 959 2375 959 1747 
Q 959 1119 1226 758 
Q 1494 397 1959 397 
Q 2419 397 2687 759 
Q 2956 1122 2956 1747 
Q 2956 2369 2687 2733 
Q 2419 3097 1959 3097 
z
M 1959 3584 
Q 2709 3584 3137 3096 
Q 3566 2609 3566 1747 
Q 3566 888 3137 398 
Q 2709 -91 1959 -91 
Q 1206 -91 779 398 
Q 353 888 353 1747 
Q 353 2609 779 3096 
Q 1206 3584 1959 3584 
z
" transform="scale(0.015625)"/>
       <path id="DejaVuSans-6d" d="M 3328 2828 
Q 3544 3216 3844 3400 
Q 4144 3584 4550 3584 
Q 5097 3584 5394 3201 
Q 5691 2819 5691 2113 
L 5691 0 
L 5113 0 
L 5113 2094 
Q 5113 2597 4934 2840 
Q 4756 3084 4391 3084 
Q 3944 3084 3684 2787 
Q 3425 2491 3425 1978 
L 3425 0 
L 2847 0 
L 2847 2094 
Q 2847 2600 2669 2842 
Q 2491 3084 2119 3084 
Q 1678 3084 1418 2786 
Q 1159 2488 1159 1978 
L 1159 0 
L 581 0 
L 581 3500 
L 1159 3500 
L 1159 2956 
Q 1356 3278 1631 3431 
Q 1906 3584 2284 3584 
Q 2666 3584 2933 3390 
Q 3200 3197 3328 2828 
z
" transform="scale(0.015625)"/>
       <path id="DejaVuSans-75" d="M 544 1381 
L 544 3500 
L 1119 3500 
L 1119 1403 
Q 1119 906 1312 657 
Q 1506 409 1894 409 
Q 2359 409 2629 706 
Q 2900 1003 2900 1516 
L 2900 3500 
L 3475 3500 
L 3475 0 
L 2900 0 
L 2900 538 
Q 2691 219 2414 64 
Q 2138 -91 1772 -91 
Q 1169 -91 856 284 
Q 544 659 544 1381 
z
M 1991 3584 
L 1991 3584 
z
" transform="scale(0.015625)"/>
       <path id="DejaVuSans-6e" d="M 3513 2113 
L 3513 0 
L 2938 0 
L 2938 2094 
Q 2938 2591 2744 2837 
Q 2550 3084 2163 3084 
Q 1697 3084 1428 2787 
Q 1159 2491 1159 1978 
L 1159 0 
L 581 0 
L 581 3500 
L 1159 3500 
L 1159 2956 
Q 1366 3272 1645 3428 
Q 1925 3584 2291 3584 
Q 2894 3584 3203 3211 
Q 3513 2838 3513 2113 
z
" transform="scale(0.015625)"/>
       <path id="DejaVuSans-69" d="M 603 3500 
L 1178 3500 
L 1178 0 
L 603 0 
L 603 3500 
z
M 603 4863 
L 1178 4863 
L 1178 4134 
L 603 4134 
L 603 4863 
z
" transform="scale(0.015625)"/>
       <path id="DejaVuSans-63" d="M 3122 3366 
L 3122 2828 
Q 2878 2963 2633 3030 
Q 2388 3097 2138 3097 
Q 1578 3097 1268 2742 
Q 959 2388 959 1747 
Q 959 1106 1268 751 
Q 1578 397 2138 397 
Q 2388 397 2633 464 
Q 2878 531 3122 666 
L 3122 134 
Q 2881 22 2623 -34 
Q 2366 -91 2075 -91 
Q 1284 -91 818 406 
Q 353 903 353 1747 
Q 353 2603 823 3093 
Q 1294 3584 2113 3584 
Q 2378 3584 2631 3529 
Q 2884 3475 3122 3366 
z
" transform="scale(0.015625)"/>
       <path id="DejaVuSans-61" d="M 2194 1759 
Q 1497 1759 1228 1600 
Q 959 1441 959 1056 
Q 959 750 1161 570 
Q 1363 391 1709 391 
Q 2188 391 2477 730 
Q 2766 1069 2766 1631 
L 2766 1759 
L 2194 1759 
z
M 3341 1997 
L 3341 0 
L 2766 0 
L 2766 531 
Q 2569 213 2275 61 
Q 1981 -91 1556 -91 
Q 1019 -91 701 211 
Q 384 513 384 1019 
Q 384 1609 779 1909 
Q 1175 2209 1959 2209 
L 2766 2209 
L 2766 2266 
Q 2766 2663 2505 2880 
Q 2244 3097 1772 3097 
Q 1472 3097 1187 3025 
Q 903 2953 641 2809 
L 641 3341 
Q 956 3463 1253 3523 
Q 1550 3584 1831 3584 
Q 2591 3584 2966 3190 
Q 3341 2797 3341 1997 
z
" transform="scale(0.015625)"/>
       <path id="DejaVuSans-74" d="M 1172 4494 
L 1172 3500 
L 2356 3500 
L 2356 3053 
L 1172 3053 
L 1172 1153 
Q 1172 725 1289 603 
Q 1406 481 1766 481 
L 2356 481 
L 2356 0 
L 1766 0 
Q 1100 0 847 248 
Q 594 497 594 1153 
L 594 3053 
L 172 3053 
L 172 3500 
L 594 3500 
L 594 4494 
L 1172 4494 
z
" transform="scale(0.015625)"/>
       <path id="DejaVuSans-20" transform="scale(0.015625)"/>
       <path id="DejaVuSans-72" d="M 2631 2963 
Q 2534 3019 2420 3045 
Q 2306 3072 2169 3072 
Q 1681 3072 1420 2755 
Q 1159 2438 1159 1844 
L 1159 0 
L 581 0 
L 581 3500 
L 1159 3500 
L 1159 2956 
Q 1341 3275 1631 3429 
Q 1922 3584 2338 3584 
Q 2397 3584 2469 3576 
Q 2541 3569 2628 3553 
L 2631 2963 
z
" transform="scale(0.015625)"/>
       <path id="DejaVuSans-64" d="M 2906 2969 
L 2906 4863 
L 3481 4863 
L 3481 0 
L 2906 0 
L 2906 525 
Q 2725 213 2448 61 
Q 2172 -91 1784 -91 
Q 1150 -91 751 415 
Q 353 922 353 1747 
Q 353 2572 751 3078 
Q 1150 3584 1784 3584 
Q 2172 3584 2448 3432 
Q 2725 3281 2906 2969 
z
M 947 1747 
Q 947 1113 1208 752 
Q 1469 391 1925 391 
Q 2381 391 2643 752 
Q 2906 1113 2906 1747 
Q 2906 2381 2643 2742 
Q 2381 3103 1925 3103 
Q 1469 3103 1208 2742 
Q 947 2381 947 1747 
z
" transform="scale(0.015625)"/>
       <path id="DejaVuSans-73" d="M 2834 3397 
L 2834 2853 
Q 2591 2978 2328 3040 
Q 2066 3103 1784 3103 
Q 1356 3103 1142 2972 
Q 928 2841 928 2578 
Q 928 2378 1081 2264 
Q 1234 2150 1697 2047 
L 1894 2003 
Q 2506 1872 2764 1633 
Q 3022 1394 3022 966 
Q 3022 478 2636 193 
Q 2250 -91 1575 -91 
Q 1294 -91 989 -36 
Q 684 19 347 128 
L 347 722 
Q 666 556 975 473 
Q 1284 391 1588 391 
Q 1994 391 2212 530 
Q 2431 669 2431 922 
Q 2431 1156 2273 1281 
Q 2116 1406 1581 1522 
L 1381 1569 
Q 847 1681 609 1914 
Q 372 2147 372 2553 
Q 372 3047 722 3315 
Q 1072 3584 1716 3584 
Q 2034 3584 2315 3537 
Q 2597 3491 2834 3397 
z
" transform="scale(0.015625)"/>
      </defs>
      <use xlink:href="#DejaVuSans-43"/>
      <use xlink:href="#DejaVuSans-6f" x="69.824219"/>
      <use xlink:href="#DejaVuSans-6d" x="131.005859"/>
      <use xlink:href="#DejaVuSans-6d" x="228.417969"/>
      <use xlink:href="#DejaVuSans-75" x="325.830078"/>
      <use xlink:href="#DejaVuSans-6e" x="389.208984"/>
      <use xlink:href="#DejaVuSans-69" x="452.587891"/>
      <use xlink:href="#DejaVuSans-63" x="480.371094"/>
      <use xlink:href="#DejaVuSans-61" x="535.351562"/>
      <use xlink:href="#DejaVuSans-74" x="596.630859"/>
      <use xlink:href="#DejaVuSans-69" x="635.839844"/>
      <use xlink:href="#DejaVuSans-6f" x="663.623047"/>
      <use xlink:href="#DejaVuSans-6e" x="724.804688"/>
      <use xlink:href="#DejaVuSans-20" x="788.183594"/>
      <use xlink:href="#DejaVuSans-72" x="819.970703"/>
      <use xlink:href="#DejaVuSans-6f" x="858.833984"/>
      <use xlink:href="#DejaVuSans-75" x="920.015625"/>
      <use xlink:href="#DejaVuSans-6e" x="983.394531"/>
      <use xlink:href="#DejaVuSans-64" x="1046.773438"/>
      <use xlink:href="#DejaVuSans-73" x="1110.25"/>
     </g>
    </g>
   </g>
   <g id="matplotlib.axis_2">
    <g id="ytick_1">
     <g id="line2d_13">
      <path d="M 72 371.168051 
L 518.4 371.168051 
" clip-path="url(#pab7d1c2f04)" style="fill: none; stroke: #b0b0b0; stroke-opacity: 0.5; stroke-width: 0.8; stroke-linecap: square"/>
     </g>
     <g id="line2d_14">
      <defs>
       <path id="mc7c0eff9cb" d="M 0 0 
L -3.5 0 
" style="stroke: #000000; stroke-width: 0.8"/>
      </defs>
      <g>
       <use xlink:href="#mc7c0eff9cb" x="72" y="371.168051" style="stroke: #000000; stroke-width: 0.8"/>
      </g>
     </g>
     <g id="text_8">
      <!-- 0.3 -->
      <g transform="translate(49.096875 374.96727)scale(0.1 -0.1)">
       <defs>
        <path id="DejaVuSans-2e" d="M 684 794 
L 1344 794 
L 1344 0 
L 684 0 
L 684 794 
z
" transform="scale(0.015625)"/>
        <path id="DejaVuSans-33" d="M 2597 2516 
Q 3050 2419 3304 2112 
Q 3559 1806 3559 1356 
Q 3559 666 3084 287 
Q 2609 -91 1734 -91 
Q 1441 -91 1130 -33 
Q 819 25 488 141 
L 488 750 
Q 750 597 1062 519 
Q 1375 441 1716 441 
Q 2309 441 2620 675 
Q 2931 909 2931 1356 
Q 2931 1769 2642 2001 
Q 2353 2234 1838 2234 
L 1294 2234 
L 1294 2753 
L 1863 2753 
Q 2328 2753 2575 2939 
Q 2822 3125 2822 3475 
Q 2822 3834 2567 4026 
Q 2313 4219 1838 4219 
Q 1578 4219 1281 4162 
Q 984 4106 628 3988 
L 628 4550 
Q 988 4650 1302 4700 
Q 1616 4750 1894 4750 
Q 2613 4750 3031 4423 
Q 3450 4097 3450 3541 
Q 3450 3153 3228 2886 
Q 3006 2619 2597 2516 
z
" transform="scale(0.015625)"/>
       </defs>
       <use xlink:href="#DejaVuSans-30"/>
       <use xlink:href="#DejaVuSans-2e" x="63.623047"/>
       <use xlink:href="#DejaVuSans-33" x="95.410156"/>
      </g>
     </g>
    </g>
    <g id="ytick_2">
     <g id="line2d_15">
      <path d="M 72 308.71879 
L 518.4 308.71879 
" clip-path="url(#pab7d1c2f04)" style="fill: none; stroke: #b0b0b0; stroke-opacity: 0.5; stroke-width: 0.8; stroke-linecap: square"/>
     </g>
     <g id="line2d_16">
      <g>
       <use xlink:href="#mc7c0eff9cb" x="72" y="308.71879" style="stroke: #000000; stroke-width: 0.8"/>
      </g>
     </g>
     <g id="text_9">
      <!-- 0.4 -->
      <g transform="translate(49.096875 312.518009)scale(0.1 -0.1)">
       <defs>
        <path id="DejaVuSans-34" d="M 2419 4116 
L 825 1625 
L 2419 1625 
L 2419 4116 
z
M 2253 4666 
L 3047 4666 
L 3047 1625 
L 3713 1625 
L 3713 1100 
L 3047 1100 
L 3047 0 
L 2419 0 
L 2419 1100 
L 313 1100 
L 313 1709 
L 2253 4666 
z
" transform="scale(0.015625)"/>
       </defs>
       <use xlink:href="#DejaVuSans-30"/>
       <use xlink:href="#DejaVuSans-2e" x="63.623047"/>
       <use xlink:href="#DejaVuSans-34" x="95.410156"/>
      </g>
     </g>
    </g>
    <g id="ytick_3">
     <g id="line2d_17">
      <path d="M 72 246.269529 
L 518.4 246.269529 
" clip-path="url(#pab7d1c2f04)" style="fill: none; stroke: #b0b0b0; stroke-opacity: 0.5; stroke-width: 0.8; stroke-linecap: square"/>
     </g>
     <g id="line2d_18">
      <g>
       <use xlink:href="#mc7c0eff9cb" x="72" y="246.269529" style="stroke: #000000; stroke-width: 0.8"/>
      </g>
     </g>
     <g id="text_10">
      <!-- 0.5 -->
      <g transform="translate(49.096875 250.068748)scale(0.1 -0.1)">
       <use xlink:href="#DejaVuSans-30"/>
       <use xlink:href="#DejaVuSans-2e" x="63.623047"/>
       <use xlink:href="#DejaVuSans-35" x="95.410156"/>
      </g>
     </g>
    </g>
    <g id="ytick_4">
     <g id="line2d_19">
      <path d="M 72 183.820268 
L 518.4 183.820268 
" clip-path="url(#pab7d1c2f04)" style="fill: none; stroke: #b0b0b0; stroke-opacity: 0.5; stroke-width: 0.8; stroke-linecap: square"/>
     </g>
     <g id="line2d_20">
      <g>
       <use xlink:href="#mc7c0eff9cb" x="72" y="183.820268" style="stroke: #000000; stroke-width: 0.8"/>
      </g>
     </g>
     <g id="text_11">
      <!-- 0.6 -->
      <g transform="translate(49.096875 187.619487)scale(0.1 -0.1)">
       <defs>
        <path id="DejaVuSans-36" d="M 2113 2584 
Q 1688 2584 1439 2293 
Q 1191 2003 1191 1497 
Q 1191 994 1439 701 
Q 1688 409 2113 409 
Q 2538 409 2786 701 
Q 3034 994 3034 1497 
Q 3034 2003 2786 2293 
Q 2538 2584 2113 2584 
z
M 3366 4563 
L 3366 3988 
Q 3128 4100 2886 4159 
Q 2644 4219 2406 4219 
Q 1781 4219 1451 3797 
Q 1122 3375 1075 2522 
Q 1259 2794 1537 2939 
Q 1816 3084 2150 3084 
Q 2853 3084 3261 2657 
Q 3669 2231 3669 1497 
Q 3669 778 3244 343 
Q 2819 -91 2113 -91 
Q 1303 -91 875 529 
Q 447 1150 447 2328 
Q 447 3434 972 4092 
Q 1497 4750 2381 4750 
Q 2619 4750 2861 4703 
Q 3103 4656 3366 4563 
z
" transform="scale(0.015625)"/>
       </defs>
       <use xlink:href="#DejaVuSans-30"/>
       <use xlink:href="#DejaVuSans-2e" x="63.623047"/>
       <use xlink:href="#DejaVuSans-36" x="95.410156"/>
      </g>
     </g>
    </g>
    <g id="ytick_5">
     <g id="line2d_21">
      <path d="M 72 121.371007 
L 518.4 121.371007 
" clip-path="url(#pab7d1c2f04)" style="fill: none; stroke: #b0b0b0; stroke-opacity: 0.5; stroke-width: 0.8; stroke-linecap: square"/>
     </g>
     <g id="line2d_22">
      <g>
       <use xlink:href="#mc7c0eff9cb" x="72" y="121.371007" style="stroke: #000000; stroke-width: 0.8"/>
      </g>
     </g>
     <g id="text_12">
      <!-- 0.7 -->
      <g transform="translate(49.096875 125.170226)scale(0.1 -0.1)">
       <defs>
        <path id="DejaVuSans-37" d="M 525 4666 
L 3525 4666 
L 3525 4397 
L 1831 0 
L 1172 0 
L 2766 4134 
L 525 4134 
L 525 4666 
z
" transform="scale(0.015625)"/>
       </defs>
       <use xlink:href="#DejaVuSans-30"/>
       <use xlink:href="#DejaVuSans-2e" x="63.623047"/>
       <use xlink:href="#DejaVuSans-37" x="95.410156"/>
      </g>
     </g>
    </g>
    <g id="ytick_6">
     <g id="line2d_23">
      <path d="M 72 58.921746 
L 518.4 58.921746 
" clip-path="url(#pab7d1c2f04)" style="fill: none; stroke: #b0b0b0; stroke-opacity: 0.5; stroke-width: 0.8; stroke-linecap: square"/>
     </g>
     <g id="line2d_24">
      <g>
       <use xlink:href="#mc7c0eff9cb" x="72" y="58.921746" style="stroke: #000000; stroke-width: 0.8"/>
      </g>
     </g>
     <g id="text_13">
      <!-- 0.8 -->
      <g transform="translate(49.096875 62.720965)scale(0.1 -0.1)">
       <defs>
        <path id="DejaVuSans-38" d="M 2034 2216 
Q 1584 2216 1326 1975 
Q 1069 1734 1069 1313 
Q 1069 891 1326 650 
Q 1584 409 2034 409 
Q 2484 409 2743 651 
Q 3003 894 3003 1313 
Q 3003 1734 2745 1975 
Q 2488 2216 2034 2216 
z
M 1403 2484 
Q 997 2584 770 2862 
Q 544 3141 544 3541 
Q 544 4100 942 4425 
Q 1341 4750 2034 4750 
Q 2731 4750 3128 4425 
Q 3525 4100 3525 3541 
Q 3525 3141 3298 2862 
Q 3072 2584 2669 2484 
Q 3125 2378 3379 2068 
Q 3634 1759 3634 1313 
Q 3634 634 3220 271 
Q 2806 -91 2034 -91 
Q 1263 -91 848 271 
Q 434 634 434 1313 
Q 434 1759 690 2068 
Q 947 2378 1403 2484 
z
M 1172 3481 
Q 1172 3119 1398 2916 
Q 1625 2713 2034 2713 
Q 2441 2713 2670 2916 
Q 2900 3119 2900 3481 
Q 2900 3844 2670 4047 
Q 2441 4250 2034 4250 
Q 1625 4250 1398 4047 
Q 1172 3844 1172 3481 
z
" transform="scale(0.015625)"/>
       </defs>
       <use xlink:href="#DejaVuSans-30"/>
       <use xlink:href="#DejaVuSans-2e" x="63.623047"/>
       <use xlink:href="#DejaVuSans-38" x="95.410156"/>
      </g>
     </g>
    </g>
    <g id="text_14">
     <!-- Accuracy -->
     <g transform="translate(43.017187 237.748125)rotate(-90)scale(0.1 -0.1)">
      <defs>
       <path id="DejaVuSans-41" d="M 2188 4044 
L 1331 1722 
L 3047 1722 
L 2188 4044 
z
M 1831 4666 
L 2547 4666 
L 4325 0 
L 3669 0 
L 3244 1197 
L 1141 1197 
L 716 0 
L 50 0 
L 1831 4666 
z
" transform="scale(0.015625)"/>
       <path id="DejaVuSans-79" d="M 2059 -325 
Q 1816 -950 1584 -1140 
Q 1353 -1331 966 -1331 
L 506 -1331 
L 506 -850 
L 844 -850 
Q 1081 -850 1212 -737 
Q 1344 -625 1503 -206 
L 1606 56 
L 191 3500 
L 800 3500 
L 1894 763 
L 2988 3500 
L 3597 3500 
L 2059 -325 
z
" transform="scale(0.015625)"/>
      </defs>
      <use xlink:href="#DejaVuSans-41"/>
      <use xlink:href="#DejaVuSans-63" x="66.658203"/>
      <use xlink:href="#DejaVuSans-63" x="121.638672"/>
      <use xlink:href="#DejaVuSans-75" x="176.619141"/>
      <use xlink:href="#DejaVuSans-72" x="239.998047"/>
      <use xlink:href="#DejaVuSans-61" x="281.111328"/>
      <use xlink:href="#DejaVuSans-63" x="342.390625"/>
      <use xlink:href="#DejaVuSans-79" x="397.371094"/>
     </g>
    </g>
   </g>
   <g id="line2d_25">
    <path d="M 92.290909 363.174545 
L 93.914182 328.202959 
L 95.537455 302.224067 
L 97.160727 302.973458 
L 98.784 288.735026 
L 100.407273 259.258975 
L 102.030545 253.263846 
L 103.653818 243.771559 
L 105.277091 220.040839 
L 106.900364 231.281706 
L 108.523636 233.52988 
L 110.146909 214.795101 
L 111.770182 208.050581 
L 113.393455 207.30119 
L 116.64 197.559105 
L 118.263273 176.326357 
L 119.886545 188.816209 
L 121.509818 198.808091 
L 123.133091 190.814585 
L 124.756364 173.078995 
L 126.379636 164.835693 
L 128.002909 161.588331 
L 129.626182 165.834881 
L 131.249455 154.594014 
L 132.872727 173.078995 
L 134.496 145.60132 
L 136.119273 168.083054 
L 137.742545 153.594826 
L 139.365818 152.595638 
L 140.989091 173.828386 
L 142.612364 164.585896 
L 144.235636 157.341781 
L 145.858909 149.348276 
L 147.482182 139.356394 
L 149.105455 150.597261 
L 150.728727 149.84787 
L 152.352 154.594014 
L 153.975273 140.855177 
L 155.598545 141.854365 
L 157.221818 135.109845 
L 158.845091 141.604568 
L 160.468364 129.114715 
L 162.091636 141.604568 
L 163.714909 126.866542 
L 165.338182 129.61431 
L 166.961455 120.371819 
L 168.584727 135.359642 
L 170.208 134.61025 
L 171.831273 134.110656 
L 173.454545 131.113092 
L 175.077818 128.864918 
L 176.701091 131.362889 
L 178.324364 124.618369 
L 179.947636 127.615933 
L 181.570909 125.867354 
L 183.194182 125.617557 
L 184.817455 139.356394 
L 186.440727 117.624051 
L 188.064 134.360453 
L 189.687273 127.366136 
L 191.310545 135.609439 
L 192.933818 125.867354 
L 194.557091 119.372631 
L 196.180364 119.122834 
L 197.803636 133.860859 
L 199.426909 124.368572 
L 201.050182 122.869789 
L 202.673455 122.619992 
L 204.296727 125.36776 
L 205.92 120.371819 
L 207.543273 121.870601 
L 209.166545 133.860859 
L 210.789818 115.875472 
L 212.413091 111.379125 
L 214.036364 113.127705 
L 215.659636 106.383184 
L 217.282909 127.615933 
L 218.906182 120.621616 
L 220.529455 121.12121 
L 222.152727 123.369383 
L 223.776 115.625675 
L 225.399273 109.630546 
L 227.022545 115.625675 
L 228.645818 102.386432 
L 230.269091 111.379125 
L 231.892364 114.126893 
L 233.515636 125.867354 
L 235.138909 113.627299 
L 236.762182 115.625675 
L 238.385455 107.881967 
L 240.008727 113.627299 
L 241.632 114.37669 
L 243.255273 108.881155 
L 244.878545 104.384808 
L 246.501818 107.881967 
L 248.125091 109.880343 
L 249.748364 113.127705 
L 251.371636 103.885214 
L 252.994909 111.878719 
L 254.618182 113.377502 
L 256.241455 113.127705 
L 257.864727 104.384808 
L 259.488 112.628111 
L 261.111273 104.884402 
L 262.734545 108.881155 
L 264.357818 112.128517 
L 265.981091 117.374254 
L 267.604364 121.12121 
L 269.227636 114.126893 
L 270.850909 117.624051 
L 272.474182 107.382373 
L 274.097455 108.631358 
L 275.720727 110.879531 
L 277.344 106.133387 
L 278.967273 117.374254 
L 280.590545 106.133387 
L 282.213818 117.873849 
L 283.837091 112.877908 
L 285.460364 109.630546 
L 287.083636 104.135011 
L 288.706909 111.129328 
L 290.330182 109.880343 
L 291.953455 112.877908 
L 293.576727 108.381561 
L 295.2 109.880343 
L 296.823273 100.388055 
L 298.446545 111.379125 
L 300.069818 109.130952 
L 301.693091 107.881967 
L 303.316364 103.885214 
L 304.939636 107.881967 
L 308.186182 101.387244 
L 309.809455 113.127705 
L 311.432727 104.884402 
L 313.056 105.633793 
L 314.679273 116.624863 
L 316.302545 99.13907 
L 317.925818 99.388867 
L 319.549091 101.637041 
L 321.172364 111.129328 
L 322.795636 108.631358 
L 324.418909 121.12121 
L 326.042182 94.642723 
L 327.665455 105.633793 
L 329.288727 98.389679 
L 330.912 117.624051 
L 332.535273 106.383184 
L 334.158545 112.628111 
L 335.781818 109.880343 
L 337.405091 102.636229 
L 339.028364 109.380749 
L 342.274909 112.877908 
L 343.898182 112.128517 
L 345.521455 106.632982 
L 347.144727 92.39455 
L 348.768 109.630546 
L 350.391273 106.632982 
L 352.014545 103.885214 
L 353.637818 105.633793 
L 355.261091 108.131764 
L 356.884364 101.387244 
L 358.507636 102.386432 
L 360.130909 107.881967 
L 361.754182 107.382373 
L 363.377455 110.629734 
L 365.000727 107.63217 
L 366.624 107.63217 
L 368.247273 104.384808 
L 369.870545 111.878719 
L 371.493818 103.135823 
L 373.117091 103.38562 
L 374.740364 103.38562 
L 376.363636 100.637852 
L 377.986909 105.633793 
L 379.610182 104.135011 
L 381.233455 104.135011 
L 382.856727 106.882779 
L 384.48 103.885214 
L 386.103273 104.884402 
L 387.726545 102.136635 
L 389.349818 110.629734 
L 390.973091 102.136635 
L 392.596364 102.636229 
L 394.219636 104.135011 
L 395.842909 96.6411 
L 397.466182 104.384808 
L 399.089455 100.138258 
L 400.712727 104.634605 
L 402.336 102.636229 
L 403.959273 101.387244 
L 405.582545 105.88359 
L 407.205818 102.636229 
L 408.829091 102.386432 
L 410.452364 106.882779 
L 412.075636 98.639476 
L 413.698909 101.137447 
L 415.322182 96.890897 
L 416.945455 101.387244 
L 418.568727 104.884402 
L 420.192 100.388055 
L 421.815273 100.388055 
L 423.438545 95.641912 
L 425.061818 99.388867 
L 426.685091 101.387244 
L 428.308364 112.378314 
L 429.931636 96.6411 
L 431.554909 109.880343 
L 433.178182 107.881967 
L 434.801455 100.637852 
L 436.424727 103.38562 
L 438.048 110.13014 
L 439.671273 98.389679 
L 441.294545 101.137447 
L 442.917818 99.888461 
L 444.541091 105.383996 
L 446.164364 98.139882 
L 447.787636 97.390491 
L 449.410909 99.888461 
L 451.034182 105.633793 
L 452.657455 110.879531 
L 454.280727 90.645971 
L 455.904 98.389679 
L 457.527273 110.379937 
L 459.150545 101.637041 
L 460.773818 100.138258 
L 462.397091 111.379125 
L 464.020364 114.37669 
L 465.643636 92.144753 
L 467.266909 99.638664 
L 468.890182 110.879531 
L 470.513455 106.133387 
L 472.136727 94.642723 
L 473.76 104.384808 
L 475.383273 103.635417 
L 477.006545 103.885214 
L 478.629818 97.140694 
L 480.253091 96.6411 
L 481.876364 97.390491 
L 483.499636 97.390491 
L 485.122909 102.636229 
L 486.746182 104.135011 
L 488.369455 108.381561 
L 489.992727 92.144753 
L 491.616 103.38562 
L 493.239273 109.130952 
L 494.862545 97.140694 
L 496.485818 101.387244 
L 498.109091 101.137447 
L 498.109091 101.137447 
" clip-path="url(#pab7d1c2f04)" style="fill: none; stroke: #1f77b4; stroke-width: 1.5; stroke-linecap: square"/>
   </g>
   <g id="line2d_26">
    <path d="M 92.290909 350.93449 
L 93.914182 339.693623 
L 95.537455 314.214325 
L 97.160727 292.481982 
L 98.784 280.241927 
L 100.407273 257.260599 
L 102.030545 273.997001 
L 103.653818 237.77643 
L 105.277091 221.040028 
L 106.900364 212.796725 
L 108.523636 216.543681 
L 110.146909 193.562353 
L 111.770182 195.560729 
L 113.393455 179.323921 
L 115.016727 188.316615 
L 118.263273 159.839752 
L 119.886545 162.337722 
L 121.509818 164.086302 
L 123.133091 154.594014 
L 124.756364 158.840564 
L 126.379636 155.093608 
L 128.002909 152.345841 
L 129.626182 152.595638 
L 131.249455 140.605379 
L 132.872727 148.598885 
L 134.496 157.591578 
L 136.119273 137.857612 
L 137.742545 150.097667 
L 139.365818 131.113092 
L 140.989091 138.107409 
L 142.612364 124.618369 
L 144.235636 138.107409 
L 145.858909 123.619181 
L 147.482182 131.113092 
L 149.105455 120.871413 
L 150.728727 125.117963 
L 152.352 131.862483 
L 153.975273 125.617557 
L 155.598545 120.371819 
L 157.221818 121.620804 
L 158.845091 118.62324 
L 162.091636 122.619992 
L 163.714909 131.113092 
L 165.338182 119.622428 
L 166.961455 122.120398 
L 168.584727 116.87466 
L 170.208 112.877908 
L 171.831273 124.868166 
L 173.454545 115.375878 
L 175.077818 109.130952 
L 176.701091 122.120398 
L 178.324364 110.629734 
L 179.947636 111.129328 
L 181.570909 114.126893 
L 183.194182 105.134199 
L 184.817455 106.383184 
L 186.440727 119.122834 
L 188.064 106.882779 
L 189.687273 100.388055 
L 191.310545 109.380749 
L 192.933818 103.885214 
L 194.557091 100.637852 
L 196.180364 102.636229 
L 197.803636 102.136635 
L 199.426909 94.143129 
L 201.050182 95.891709 
L 202.673455 110.629734 
L 204.296727 93.643535 
L 205.92 104.634605 
L 207.543273 98.639476 
L 209.166545 104.634605 
L 210.789818 102.136635 
L 212.413091 102.386432 
L 214.036364 101.886838 
L 215.659636 99.638664 
L 217.282909 95.891709 
L 218.906182 98.389679 
L 220.529455 102.136635 
L 222.152727 102.636229 
L 223.776 98.639476 
L 225.399273 106.133387 
L 227.022545 104.884402 
L 228.645818 103.38562 
L 230.269091 93.393738 
L 231.892364 92.894144 
L 233.515636 93.893332 
L 235.138909 101.637041 
L 236.762182 88.897391 
L 238.385455 90.895768 
L 240.008727 87.898203 
L 241.632 97.140694 
L 243.255273 103.135823 
L 244.878545 102.386432 
L 246.501818 93.393738 
L 248.125091 91.645159 
L 249.748364 94.143129 
L 252.994909 88.148 
L 254.618182 93.643535 
L 256.241455 103.635417 
L 257.864727 101.637041 
L 259.488 92.644347 
L 261.111273 86.399421 
L 262.734545 96.141506 
L 264.357818 86.899015 
L 265.981091 82.652465 
L 267.604364 93.643535 
L 269.227636 92.144753 
L 270.850909 91.395362 
L 274.097455 93.393738 
L 275.720727 93.893332 
L 277.344 89.396986 
L 280.590545 84.900639 
L 282.213818 89.646783 
L 283.837091 95.891709 
L 285.460364 84.650842 
L 287.083636 91.894956 
L 288.706909 88.897391 
L 290.330182 87.148812 
L 291.953455 96.6411 
L 293.576727 91.395362 
L 295.2 81.153683 
L 296.823273 82.402668 
L 298.446545 89.396986 
L 300.069818 94.392926 
L 301.693091 90.396174 
L 303.316364 91.395362 
L 304.939636 90.645971 
L 306.562909 95.392115 
L 308.186182 89.147188 
L 309.809455 86.399421 
L 311.432727 79.155307 
L 313.056 83.651654 
L 314.679273 86.399421 
L 316.302545 87.898203 
L 317.925818 79.155307 
L 319.549091 87.148812 
L 321.172364 87.898203 
L 324.418909 99.13907 
L 326.042182 86.149624 
L 327.665455 95.142318 
L 329.288727 84.401045 
L 330.912 91.395362 
L 332.535273 88.148 
L 334.158545 86.399421 
L 335.781818 91.894956 
L 337.405091 87.898203 
L 339.028364 87.148812 
L 340.651636 89.646783 
L 342.274909 84.900639 
L 343.898182 85.899827 
L 345.521455 85.65003 
L 347.144727 82.152871 
L 348.768 94.143129 
L 350.391273 84.151248 
L 352.014545 90.895768 
L 353.637818 89.89658 
L 355.261091 87.898203 
L 356.884364 88.397797 
L 358.507636 85.400233 
L 360.130909 84.650842 
L 361.754182 87.648406 
L 363.377455 81.653277 
L 365.000727 89.396986 
L 366.624 81.653277 
L 368.247273 85.150436 
L 369.870545 78.655713 
L 371.493818 94.642723 
L 373.117091 87.648406 
L 374.740364 86.899015 
L 376.363636 82.902262 
L 377.986909 85.150436 
L 379.610182 85.899827 
L 381.233455 84.401045 
L 382.856727 83.401856 
L 384.48 75.408351 
L 386.103273 81.903074 
L 387.726545 85.150436 
L 389.349818 83.901451 
L 390.973091 72.410787 
L 392.596364 86.399421 
L 394.219636 92.644347 
L 395.842909 88.647594 
L 397.466182 81.903074 
L 399.089455 85.400233 
L 400.712727 85.899827 
L 402.336 85.400233 
L 403.959273 87.898203 
L 405.582545 91.395362 
L 407.205818 84.650842 
L 408.829091 87.648406 
L 410.452364 92.144753 
L 412.075636 80.154495 
L 413.698909 82.152871 
L 415.322182 76.907133 
L 416.945455 85.899827 
L 418.568727 78.156119 
L 420.192 89.396986 
L 421.815273 92.39455 
L 423.438545 81.653277 
L 425.061818 85.400233 
L 426.685091 87.148812 
L 428.308364 79.155307 
L 429.931636 76.657336 
L 431.554909 80.154495 
L 433.178182 86.149624 
L 434.801455 88.897391 
L 436.424727 85.65003 
L 438.048 80.903886 
L 439.671273 80.903886 
L 441.294545 81.903074 
L 442.917818 74.908757 
L 444.541091 85.150436 
L 446.164364 81.40348 
L 447.787636 91.145565 
L 449.410909 88.647594 
L 451.034182 83.401856 
L 452.657455 82.152871 
L 454.280727 82.152871 
L 455.904 81.653277 
L 457.527273 80.404292 
L 459.150545 79.654901 
L 460.773818 77.406727 
L 462.397091 82.402668 
L 464.020364 72.660584 
L 465.643636 91.395362 
L 467.266909 81.153683 
L 468.890182 80.154495 
L 470.513455 82.652465 
L 472.136727 86.899015 
L 473.76 79.904698 
L 475.383273 82.652465 
L 477.006545 74.65896 
L 478.629818 85.65003 
L 480.253091 76.907133 
L 481.876364 85.65003 
L 483.499636 82.652465 
L 485.122909 75.658148 
L 486.746182 80.154495 
L 488.369455 79.155307 
L 489.992727 83.152059 
L 491.616 77.656524 
L 493.239273 85.65003 
L 494.862545 87.148812 
L 496.485818 85.65003 
L 498.109091 84.401045 
L 498.109091 84.401045 
" clip-path="url(#pab7d1c2f04)" style="fill: none; stroke: #ff7f0e; stroke-width: 1.5; stroke-linecap: square"/>
   </g>
   <g id="line2d_27">
    <path d="M 92.290909 362.175357 
L 93.914182 333.448697 
L 95.537455 319.460063 
L 97.160727 298.477111 
L 98.784 290.483606 
L 100.407273 274.496595 
L 102.030545 271.748827 
L 103.653818 244.271153 
L 105.277091 239.025415 
L 106.900364 226.035968 
L 108.523636 231.281706 
L 110.146909 237.526632 
L 111.770182 214.545304 
L 113.393455 203.554235 
L 115.016727 195.810526 
L 116.64 184.319862 
L 118.263273 174.827574 
L 119.886545 180.572906 
L 121.509818 174.577777 
L 123.133091 162.587519 
L 124.756364 168.332851 
L 126.379636 175.576966 
L 128.002909 170.081431 
L 129.626182 160.589143 
L 131.249455 166.334475 
L 132.872727 162.837316 
L 134.496 154.843811 
L 136.119273 165.08549 
L 137.742545 156.092796 
L 139.365818 136.858424 
L 140.989091 144.602132 
L 142.612364 143.852741 
L 144.235636 147.100103 
L 145.858909 133.611062 
L 147.482182 139.855988 
L 149.105455 135.859236 
L 150.728727 141.854365 
L 152.352 157.591578 
L 153.975273 137.108221 
L 155.598545 133.361265 
L 157.221818 130.113904 
L 158.845091 122.370195 
L 160.468364 148.848682 
L 162.091636 124.868166 
L 163.714909 128.864918 
L 165.338182 126.866542 
L 166.961455 117.374254 
L 168.584727 118.873037 
L 170.208 128.864918 
L 171.831273 114.876284 
L 173.454545 124.118775 
L 175.077818 114.37669 
L 176.701091 118.373443 
L 178.324364 119.122834 
L 179.947636 122.619992 
L 181.570909 118.123646 
L 183.194182 117.873849 
L 184.817455 127.116339 
L 186.440727 108.131764 
L 188.064 110.629734 
L 189.687273 111.379125 
L 191.310545 110.13014 
L 192.933818 118.873037 
L 194.557091 106.882779 
L 196.180364 118.873037 
L 197.803636 113.127705 
L 199.426909 110.379937 
L 201.050182 114.626487 
L 202.673455 113.877096 
L 204.296727 105.88359 
L 205.92 108.631358 
L 207.543273 109.880343 
L 209.166545 108.381561 
L 210.789818 101.137447 
L 212.413091 101.886838 
L 214.036364 114.876284 
L 215.659636 105.134199 
L 217.282909 119.372631 
L 218.906182 106.383184 
L 220.529455 104.634605 
L 222.152727 106.882779 
L 223.776 100.637852 
L 225.399273 107.63217 
L 227.022545 104.384808 
L 228.645818 105.134199 
L 230.269091 99.888461 
L 231.892364 99.888461 
L 233.515636 108.881155 
L 235.138909 103.38562 
L 236.762182 96.890897 
L 238.385455 99.13907 
L 240.008727 96.6411 
L 241.632 101.637041 
L 243.255273 99.13907 
L 244.878545 106.133387 
L 246.501818 89.89658 
L 248.125091 106.383184 
L 249.748364 103.135823 
L 251.371636 107.382373 
L 252.994909 103.38562 
L 254.618182 97.390491 
L 256.241455 96.890897 
L 259.488 103.38562 
L 261.111273 103.885214 
L 262.734545 108.631358 
L 264.357818 95.641912 
L 265.981091 110.879531 
L 267.604364 102.886026 
L 269.227636 88.148 
L 270.850909 94.143129 
L 272.474182 102.386432 
L 274.097455 97.390491 
L 275.720727 101.637041 
L 277.344 103.135823 
L 278.967273 100.88765 
L 280.590545 93.143941 
L 282.213818 101.387244 
L 283.837091 96.6411 
L 285.460364 95.392115 
L 287.083636 97.390491 
L 288.706909 88.897391 
L 290.330182 105.383996 
L 291.953455 94.89252 
L 293.576727 104.135011 
L 295.2 103.38562 
L 296.823273 91.395362 
L 298.446545 102.636229 
L 300.069818 89.147188 
L 301.693091 98.639476 
L 303.316364 99.13907 
L 304.939636 92.144753 
L 306.562909 92.644347 
L 308.186182 97.390491 
L 309.809455 103.635417 
L 311.432727 102.886026 
L 313.056 93.643535 
L 314.679273 95.641912 
L 316.302545 98.639476 
L 317.925818 90.396174 
L 319.549091 93.893332 
L 321.172364 90.146377 
L 322.795636 95.641912 
L 324.418909 86.649218 
L 326.042182 95.641912 
L 327.665455 96.391303 
L 329.288727 94.89252 
L 330.912 96.6411 
L 332.535273 96.6411 
L 334.158545 94.392926 
L 335.781818 88.897391 
L 337.405091 85.65003 
L 339.028364 93.143941 
L 340.651636 90.645971 
L 342.274909 98.889273 
L 343.898182 101.387244 
L 345.521455 83.152059 
L 347.144727 92.894144 
L 348.768 94.392926 
L 350.391273 89.89658 
L 352.014545 93.393738 
L 353.637818 89.147188 
L 355.261091 90.895768 
L 356.884364 97.890085 
L 358.507636 88.897391 
L 360.130909 91.894956 
L 361.754182 88.647594 
L 363.377455 94.89252 
L 365.000727 88.897391 
L 366.624 95.392115 
L 369.870545 89.89658 
L 371.493818 89.396986 
L 373.117091 91.645159 
L 374.740364 99.388867 
L 376.363636 101.886838 
L 377.986909 96.141506 
L 379.610182 99.638664 
L 382.856727 91.395362 
L 384.48 92.894144 
L 386.103273 88.397797 
L 387.726545 94.143129 
L 389.349818 91.395362 
L 390.973091 97.640288 
L 392.596364 97.640288 
L 394.219636 102.136635 
L 395.842909 95.891709 
L 397.466182 99.638664 
L 399.089455 90.146377 
L 402.336 97.890085 
L 403.959273 89.89658 
L 405.582545 97.890085 
L 407.205818 92.144753 
L 408.829091 96.890897 
L 410.452364 86.399421 
L 412.075636 96.6411 
L 413.698909 80.654089 
L 415.322182 89.147188 
L 416.945455 90.396174 
L 418.568727 86.149624 
L 420.192 100.88765 
L 421.815273 89.396986 
L 425.061818 86.399421 
L 428.308364 96.141506 
L 429.931636 93.893332 
L 431.554909 93.643535 
L 433.178182 100.138258 
L 434.801455 89.646783 
L 436.424727 90.396174 
L 438.048 91.645159 
L 439.671273 90.895768 
L 441.294545 90.396174 
L 442.917818 85.899827 
L 444.541091 88.148 
L 446.164364 90.895768 
L 447.787636 88.148 
L 451.034182 90.645971 
L 452.657455 90.396174 
L 454.280727 89.89658 
L 455.904 95.142318 
L 457.527273 96.890897 
L 459.150545 92.644347 
L 460.773818 93.893332 
L 462.397091 97.140694 
L 464.020364 90.645971 
L 465.643636 89.147188 
L 467.266909 85.400233 
L 468.890182 92.894144 
L 470.513455 89.147188 
L 472.136727 93.143941 
L 473.76 92.644347 
L 475.383273 98.139882 
L 477.006545 95.641912 
L 478.629818 96.391303 
L 480.253091 101.137447 
L 481.876364 91.395362 
L 483.499636 87.398609 
L 485.122909 94.392926 
L 486.746182 89.646783 
L 488.369455 95.641912 
L 489.992727 89.89658 
L 491.616 85.400233 
L 493.239273 93.143941 
L 494.862545 83.651654 
L 496.485818 91.145565 
L 498.109091 91.645159 
L 498.109091 91.645159 
" clip-path="url(#pab7d1c2f04)" style="fill: none; stroke: #2ca02c; stroke-width: 1.5; stroke-linecap: square"/>
   </g>
   <g id="line2d_28">
    <path d="M 92.290909 357.67901 
L 93.914182 356.430025 
L 95.537455 316.462498 
L 97.160727 324.955598 
L 98.784 304.47224 
L 100.407273 267.002684 
L 102.030545 261.756946 
L 103.653818 258.259787 
L 105.277091 241.523385 
L 106.900364 235.278459 
L 108.523636 230.532315 
L 110.146909 221.289825 
L 111.770182 229.033533 
L 113.393455 210.048958 
L 115.016727 197.309308 
L 116.64 204.053829 
L 118.263273 196.31012 
L 119.886545 175.826763 
L 121.509818 178.074936 
L 123.133091 172.079807 
L 124.756364 161.088737 
L 126.379636 168.332851 
L 128.002909 154.594014 
L 129.626182 173.828386 
L 131.249455 157.591578 
L 132.872727 147.100103 
L 134.496 138.8568 
L 136.119273 147.849494 
L 137.742545 135.359642 
L 140.989091 146.600509 
L 142.612364 138.107409 
L 144.235636 124.118775 
L 145.858909 128.115527 
L 147.482182 145.101726 
L 149.105455 131.362889 
L 150.728727 120.871413 
L 152.352 134.860047 
L 153.975273 123.868978 
L 155.598545 126.616745 
L 157.221818 120.621616 
L 158.845091 129.864107 
L 160.468364 125.117963 
L 162.091636 107.881967 
L 163.714909 117.624051 
L 165.338182 121.12121 
L 166.961455 118.123646 
L 168.584727 125.36776 
L 170.208 115.126081 
L 171.831273 102.386432 
L 173.454545 109.380749 
L 175.077818 108.881155 
L 176.701091 103.38562 
L 178.324364 104.634605 
L 179.947636 100.388055 
L 181.570909 98.139882 
L 183.194182 96.6411 
L 184.817455 102.636229 
L 186.440727 94.89252 
L 188.064 106.882779 
L 189.687273 114.876284 
L 191.310545 102.636229 
L 192.933818 105.134199 
L 194.557091 102.386432 
L 196.180364 94.143129 
L 197.803636 93.143941 
L 199.426909 98.639476 
L 201.050182 91.395362 
L 202.673455 94.89252 
L 204.296727 93.893332 
L 205.92 94.392926 
L 207.543273 92.644347 
L 209.166545 102.136635 
L 210.789818 102.886026 
L 212.413091 94.392926 
L 214.036364 93.893332 
L 215.659636 100.637852 
L 217.282909 96.391303 
L 218.906182 83.901451 
L 220.529455 85.400233 
L 222.152727 85.899827 
L 223.776 97.890085 
L 225.399273 95.142318 
L 227.022545 96.141506 
L 228.645818 100.388055 
L 230.269091 88.647594 
L 231.892364 84.650842 
L 233.515636 87.148812 
L 235.138909 79.904698 
L 236.762182 99.13907 
L 238.385455 90.146377 
L 240.008727 87.148812 
L 241.632 100.388055 
L 243.255273 91.894956 
L 244.878545 99.638664 
L 246.501818 83.152059 
L 248.125091 88.897391 
L 249.748364 83.651654 
L 251.371636 79.654901 
L 252.994909 83.901451 
L 254.618182 86.149624 
L 256.241455 85.400233 
L 257.864727 85.400233 
L 259.488 92.39455 
L 261.111273 83.401856 
L 262.734545 84.650842 
L 264.357818 84.650842 
L 265.981091 88.897391 
L 267.604364 78.156119 
L 269.227636 92.644347 
L 270.850909 78.156119 
L 274.097455 89.147188 
L 275.720727 87.148812 
L 277.344 83.901451 
L 278.967273 88.897391 
L 280.590545 74.65896 
L 282.213818 86.649218 
L 283.837091 75.408351 
L 285.460364 85.150436 
L 287.083636 77.406727 
L 288.706909 91.645159 
L 290.330182 79.654901 
L 291.953455 82.652465 
L 293.576727 86.649218 
L 295.2 74.159366 
L 296.823273 80.404292 
L 298.446545 80.404292 
L 300.069818 70.662207 
L 301.693091 87.398609 
L 303.316364 85.65003 
L 304.939636 84.900639 
L 306.562909 82.402668 
L 308.186182 82.152871 
L 309.809455 86.149624 
L 311.432727 74.409163 
L 313.056 83.901451 
L 314.679273 84.401045 
L 316.302545 80.903886 
L 317.925818 82.402668 
L 319.549091 77.656524 
L 321.172364 79.654901 
L 322.795636 76.907133 
L 324.418909 74.409163 
L 326.042182 83.651654 
L 327.665455 75.907945 
L 329.288727 83.401856 
L 330.912 78.405916 
L 332.535273 74.908757 
L 334.158545 81.40348 
L 335.781818 84.900639 
L 337.405091 78.90551 
L 339.028364 82.152871 
L 340.651636 83.152059 
L 342.274909 77.656524 
L 343.898182 70.41241 
L 345.521455 83.152059 
L 347.144727 79.405104 
L 348.768 77.656524 
L 350.391273 79.904698 
L 352.014545 81.903074 
L 353.637818 73.160178 
L 355.261091 82.402668 
L 356.884364 87.648406 
L 358.507636 79.904698 
L 360.130909 79.405104 
L 361.754182 77.406727 
L 363.377455 79.654901 
L 365.000727 68.663831 
L 366.624 84.151248 
L 368.247273 74.159366 
L 369.870545 78.655713 
L 371.493818 77.906322 
L 373.117091 85.400233 
L 374.740364 85.400233 
L 376.363636 81.40348 
L 377.986909 80.654089 
L 379.610182 77.906322 
L 381.233455 73.409975 
L 382.856727 80.654089 
L 384.48 88.647594 
L 386.103273 77.15693 
L 387.726545 84.151248 
L 389.349818 76.407539 
L 390.973091 91.145565 
L 392.596364 77.15693 
L 394.219636 77.906322 
L 395.842909 75.408351 
L 397.466182 72.16099 
L 399.089455 78.90551 
L 400.712727 80.154495 
L 402.336 78.90551 
L 403.959273 78.90551 
L 405.582545 78.156119 
L 407.205818 72.410787 
L 408.829091 77.906322 
L 410.452364 72.16099 
L 412.075636 79.405104 
L 413.698909 73.160178 
L 415.322182 78.655713 
L 416.945455 88.647594 
L 418.568727 71.661395 
L 420.192 66.665455 
L 421.815273 91.395362 
L 423.438545 74.409163 
L 426.685091 82.652465 
L 428.308364 78.90551 
L 429.931636 73.659772 
L 431.554909 80.404292 
L 433.178182 71.911192 
L 434.801455 76.657336 
L 436.424727 75.907945 
L 438.048 78.655713 
L 439.671273 80.903886 
L 441.294545 77.656524 
L 442.917818 71.911192 
L 444.541091 75.658148 
L 446.164364 75.408351 
L 447.787636 78.405916 
L 449.410909 86.649218 
L 451.034182 71.161801 
L 452.657455 76.407539 
L 454.280727 79.654901 
L 455.904 77.15693 
L 457.527273 76.407539 
L 459.150545 75.408351 
L 460.773818 71.661395 
L 462.397091 68.913628 
L 464.020364 77.15693 
L 465.643636 81.40348 
L 467.266909 80.404292 
L 468.890182 82.152871 
L 470.513455 82.402668 
L 472.136727 78.90551 
L 473.76 74.65896 
L 475.383273 75.158554 
L 477.006545 71.661395 
L 478.629818 70.912004 
L 480.253091 76.907133 
L 481.876364 80.903886 
L 483.499636 74.65896 
L 485.122909 81.40348 
L 486.746182 76.907133 
L 488.369455 70.912004 
L 489.992727 83.651654 
L 491.616 74.159366 
L 494.862545 83.152059 
L 496.485818 77.406727 
L 498.109091 74.409163 
L 498.109091 74.409163 
" clip-path="url(#pab7d1c2f04)" style="fill: none; stroke: #d62728; stroke-width: 1.5; stroke-linecap: square"/>
   </g>
   <g id="patch_3">
    <path d="M 72 378 
L 72 51.84 
" style="fill: none; stroke: #000000; stroke-width: 0.8; stroke-linejoin: miter; stroke-linecap: square"/>
   </g>
   <g id="patch_4">
    <path d="M 518.4 378 
L 518.4 51.84 
" style="fill: none; stroke: #000000; stroke-width: 0.8; stroke-linejoin: miter; stroke-linecap: square"/>
   </g>
   <g id="patch_5">
    <path d="M 72 378 
L 518.4 378 
" style="fill: none; stroke: #000000; stroke-width: 0.8; stroke-linejoin: miter; stroke-linecap: square"/>
   </g>
   <g id="patch_6">
    <path d="M 72 51.84 
L 518.4 51.84 
" style="fill: none; stroke: #000000; stroke-width: 0.8; stroke-linejoin: miter; stroke-linecap: square"/>
   </g>
   <g id="text_15">
    <!-- Basic-Common -->
    <g transform="translate(250.126875 45.84)scale(0.12 -0.12)">
     <defs>
      <path id="DejaVuSans-42" d="M 1259 2228 
L 1259 519 
L 2272 519 
Q 2781 519 3026 730 
Q 3272 941 3272 1375 
Q 3272 1813 3026 2020 
Q 2781 2228 2272 2228 
L 1259 2228 
z
M 1259 4147 
L 1259 2741 
L 2194 2741 
Q 2656 2741 2882 2914 
Q 3109 3088 3109 3444 
Q 3109 3797 2882 3972 
Q 2656 4147 2194 4147 
L 1259 4147 
z
M 628 4666 
L 2241 4666 
Q 2963 4666 3353 4366 
Q 3744 4066 3744 3513 
Q 3744 3084 3544 2831 
Q 3344 2578 2956 2516 
Q 3422 2416 3680 2098 
Q 3938 1781 3938 1306 
Q 3938 681 3513 340 
Q 3088 0 2303 0 
L 628 0 
L 628 4666 
z
" transform="scale(0.015625)"/>
      <path id="DejaVuSans-2d" d="M 313 2009 
L 1997 2009 
L 1997 1497 
L 313 1497 
L 313 2009 
z
" transform="scale(0.015625)"/>
     </defs>
     <use xlink:href="#DejaVuSans-42"/>
     <use xlink:href="#DejaVuSans-61" x="68.603516"/>
     <use xlink:href="#DejaVuSans-73" x="129.882812"/>
     <use xlink:href="#DejaVuSans-69" x="181.982422"/>
     <use xlink:href="#DejaVuSans-63" x="209.765625"/>
     <use xlink:href="#DejaVuSans-2d" x="264.746094"/>
     <use xlink:href="#DejaVuSans-43" x="300.830078"/>
     <use xlink:href="#DejaVuSans-6f" x="370.654297"/>
     <use xlink:href="#DejaVuSans-6d" x="431.835938"/>
     <use xlink:href="#DejaVuSans-6d" x="529.248047"/>
     <use xlink:href="#DejaVuSans-6f" x="626.660156"/>
     <use xlink:href="#DejaVuSans-6e" x="687.841797"/>
    </g>
   </g>
   <g id="legend_1">
    <g id="patch_7">
     <path d="M 79 118.5525 
L 124.203125 118.5525 
Q 126.203125 118.5525 126.203125 116.5525 
L 126.203125 58.84 
Q 126.203125 56.84 124.203125 56.84 
L 79 56.84 
Q 77 56.84 77 58.84 
L 77 116.5525 
Q 77 118.5525 79 118.5525 
z
" style="fill: #ffffff; opacity: 0.8; stroke: #cccccc; stroke-linejoin: miter"/>
    </g>
    <g id="line2d_29">
     <path d="M 81 64.938438 
L 91 64.938438 
L 101 64.938438 
" style="fill: none; stroke: #1f77b4; stroke-width: 1.5; stroke-linecap: square"/>
    </g>
    <g id="text_16">
     <!-- V1 -->
     <g transform="translate(109 68.438438)scale(0.1 -0.1)">
      <defs>
       <path id="DejaVuSans-56" d="M 1831 0 
L 50 4666 
L 709 4666 
L 2188 738 
L 3669 4666 
L 4325 4666 
L 2547 0 
L 1831 0 
z
" transform="scale(0.015625)"/>
      </defs>
      <use xlink:href="#DejaVuSans-56"/>
      <use xlink:href="#DejaVuSans-31" x="68.408203"/>
     </g>
    </g>
    <g id="line2d_30">
     <path d="M 81 79.616563 
L 91 79.616563 
L 101 79.616563 
" style="fill: none; stroke: #ff7f0e; stroke-width: 1.5; stroke-linecap: square"/>
    </g>
    <g id="text_17">
     <!-- V2 -->
     <g transform="translate(109 83.116563)scale(0.1 -0.1)">
      <use xlink:href="#DejaVuSans-56"/>
      <use xlink:href="#DejaVuSans-32" x="68.408203"/>
     </g>
    </g>
    <g id="line2d_31">
     <path d="M 81 94.294688 
L 91 94.294688 
L 101 94.294688 
" style="fill: none; stroke: #2ca02c; stroke-width: 1.5; stroke-linecap: square"/>
    </g>
    <g id="text_18">
     <!-- V3 -->
     <g transform="translate(109 97.794688)scale(0.1 -0.1)">
      <use xlink:href="#DejaVuSans-56"/>
      <use xlink:href="#DejaVuSans-33" x="68.408203"/>
     </g>
    </g>
    <g id="line2d_32">
     <path d="M 81 108.972813 
L 91 108.972813 
L 101 108.972813 
" style="fill: none; stroke: #d62728; stroke-width: 1.5; stroke-linecap: square"/>
    </g>
    <g id="text_19">
     <!-- V4 -->
     <g transform="translate(109 112.472813)scale(0.1 -0.1)">
      <use xlink:href="#DejaVuSans-56"/>
      <use xlink:href="#DejaVuSans-34" x="68.408203"/>
     </g>
    </g>
   </g>
  </g>
 </g>
 <defs>
  <clipPath id="pab7d1c2f04">
   <rect x="72" y="51.84" width="446.4" height="326.16"/>
  </clipPath>
 </defs>
</svg>
