<?xml version="1.0" encoding="utf-8" standalone="no"?>
<!DOCTYPE svg PUBLIC "-//W3C//DTD SVG 1.1//EN"
  "http://www.w3.org/Graphics/SVG/1.1/DTD/svg11.dtd">
<svg xmlns:xlink="http://www.w3.org/1999/xlink" width="576pt" height="432pt" viewBox="0 0 576 432" xmlns="http://www.w3.org/2000/svg" version="1.1">
 <metadata>
  <rdf:RDF xmlns:dc="http://purl.org/dc/elements/1.1/" xmlns:cc="http://creativecommons.org/ns#" xmlns:rdf="http://www.w3.org/1999/02/22-rdf-syntax-ns#">
   <cc:Work>
    <dc:type rdf:resource="http://purl.org/dc/dcmitype/StillImage"/>
    <dc:date>2023-08-06T12:12:08.680660</dc:date>
    <dc:format>image/svg+xml</dc:format>
    <dc:creator>
     <cc:Agent>
      <dc:title>Matplotlib v3.7.2, https://matplotlib.org/</dc:title>
     </cc:Agent>
    </dc:creator>
   </cc:Work>
  </rdf:RDF>
 </metadata>
 <defs>
  <style type="text/css">*{stroke-linejoin: round; stroke-linecap: butt}</style>
 </defs>
 <g id="figure_1">
  <g id="patch_1">
   <path d="M 0 432 
L 576 432 
L 576 0 
L 0 0 
z
" style="fill: #ffffff"/>
  </g>
  <g id="axes_1">
   <g id="patch_2">
    <path d="M 72 384.48 
L 518.4 384.48 
L 518.4 51.84 
L 72 51.84 
z
" style="fill: #ffffff"/>
   </g>
   <g id="matplotlib.axis_1">
    <g id="xtick_1">
     <g id="line2d_1">
      <path d="M 92.290909 384.48 
L 92.290909 51.84 
" clip-path="url(#pcfd7c9363d)" style="fill: none; stroke: #b0b0b0; stroke-opacity: 0.5; stroke-width: 0.8; stroke-linecap: square"/>
     </g>
     <g id="line2d_2">
      <defs>
       <path id="m83f9b647d9" d="M 0 0 
L 0 3.5 
" style="stroke: #000000; stroke-width: 0.8"/>
      </defs>
      <g>
       <use xlink:href="#m83f9b647d9" x="92.290909" y="384.48" style="stroke: #000000; stroke-width: 0.8"/>
      </g>
     </g>
     <g id="text_1">
      <!-- 0 -->
      <g transform="translate(89.109659 399.078438) scale(0.1 -0.1)">
       <defs>
        <path id="DejaVuSans-30" d="M 2034 4250 
Q 1547 4250 1301 3770 
Q 1056 3291 1056 2328 
Q 1056 1369 1301 889 
Q 1547 409 2034 409 
Q 2525 409 2770 889 
Q 3016 1369 3016 2328 
Q 3016 3291 2770 3770 
Q 2525 4250 2034 4250 
z
M 2034 4750 
Q 2819 4750 3233 4129 
Q 3647 3509 3647 2328 
Q 3647 1150 3233 529 
Q 2819 -91 2034 -91 
Q 1250 -91 836 529 
Q 422 1150 422 2328 
Q 422 3509 836 4129 
Q 1250 4750 2034 4750 
z
" transform="scale(0.015625)"/>
       </defs>
       <use xlink:href="#DejaVuSans-30"/>
      </g>
     </g>
    </g>
    <g id="xtick_2">
     <g id="line2d_3">
      <path d="M 143.018182 384.48 
L 143.018182 51.84 
" clip-path="url(#pcfd7c9363d)" style="fill: none; stroke: #b0b0b0; stroke-opacity: 0.5; stroke-width: 0.8; stroke-linecap: square"/>
     </g>
     <g id="line2d_4">
      <g>
       <use xlink:href="#m83f9b647d9" x="143.018182" y="384.48" style="stroke: #000000; stroke-width: 0.8"/>
      </g>
     </g>
     <g id="text_2">
      <!-- 25 -->
      <g transform="translate(136.655682 399.078438) scale(0.1 -0.1)">
       <defs>
        <path id="DejaVuSans-32" d="M 1228 531 
L 3431 531 
L 3431 0 
L 469 0 
L 469 531 
Q 828 903 1448 1529 
Q 2069 2156 2228 2338 
Q 2531 2678 2651 2914 
Q 2772 3150 2772 3378 
Q 2772 3750 2511 3984 
Q 2250 4219 1831 4219 
Q 1534 4219 1204 4116 
Q 875 4013 500 3803 
L 500 4441 
Q 881 4594 1212 4672 
Q 1544 4750 1819 4750 
Q 2544 4750 2975 4387 
Q 3406 4025 3406 3419 
Q 3406 3131 3298 2873 
Q 3191 2616 2906 2266 
Q 2828 2175 2409 1742 
Q 1991 1309 1228 531 
z
" transform="scale(0.015625)"/>
        <path id="DejaVuSans-35" d="M 691 4666 
L 3169 4666 
L 3169 4134 
L 1269 4134 
L 1269 2991 
Q 1406 3038 1543 3061 
Q 1681 3084 1819 3084 
Q 2600 3084 3056 2656 
Q 3513 2228 3513 1497 
Q 3513 744 3044 326 
Q 2575 -91 1722 -91 
Q 1428 -91 1123 -41 
Q 819 9 494 109 
L 494 744 
Q 775 591 1075 516 
Q 1375 441 1709 441 
Q 2250 441 2565 725 
Q 2881 1009 2881 1497 
Q 2881 1984 2565 2268 
Q 2250 2553 1709 2553 
Q 1456 2553 1204 2497 
Q 953 2441 691 2322 
L 691 4666 
z
" transform="scale(0.015625)"/>
       </defs>
       <use xlink:href="#DejaVuSans-32"/>
       <use xlink:href="#DejaVuSans-35" x="63.623047"/>
      </g>
     </g>
    </g>
    <g id="xtick_3">
     <g id="line2d_5">
      <path d="M 193.745455 384.48 
L 193.745455 51.84 
" clip-path="url(#pcfd7c9363d)" style="fill: none; stroke: #b0b0b0; stroke-opacity: 0.5; stroke-width: 0.8; stroke-linecap: square"/>
     </g>
     <g id="line2d_6">
      <g>
       <use xlink:href="#m83f9b647d9" x="193.745455" y="384.48" style="stroke: #000000; stroke-width: 0.8"/>
      </g>
     </g>
     <g id="text_3">
      <!-- 50 -->
      <g transform="translate(187.382955 399.078438) scale(0.1 -0.1)">
       <use xlink:href="#DejaVuSans-35"/>
       <use xlink:href="#DejaVuSans-30" x="63.623047"/>
      </g>
     </g>
    </g>
    <g id="xtick_4">
     <g id="line2d_7">
      <path d="M 244.472727 384.48 
L 244.472727 51.84 
" clip-path="url(#pcfd7c9363d)" style="fill: none; stroke: #b0b0b0; stroke-opacity: 0.5; stroke-width: 0.8; stroke-linecap: square"/>
     </g>
     <g id="line2d_8">
      <g>
       <use xlink:href="#m83f9b647d9" x="244.472727" y="384.48" style="stroke: #000000; stroke-width: 0.8"/>
      </g>
     </g>
     <g id="text_4">
      <!-- 75 -->
      <g transform="translate(238.110227 399.078438) scale(0.1 -0.1)">
       <defs>
        <path id="DejaVuSans-37" d="M 525 4666 
L 3525 4666 
L 3525 4397 
L 1831 0 
L 1172 0 
L 2766 4134 
L 525 4134 
L 525 4666 
z
" transform="scale(0.015625)"/>
       </defs>
       <use xlink:href="#DejaVuSans-37"/>
       <use xlink:href="#DejaVuSans-35" x="63.623047"/>
      </g>
     </g>
    </g>
    <g id="xtick_5">
     <g id="line2d_9">
      <path d="M 295.2 384.48 
L 295.2 51.84 
" clip-path="url(#pcfd7c9363d)" style="fill: none; stroke: #b0b0b0; stroke-opacity: 0.5; stroke-width: 0.8; stroke-linecap: square"/>
     </g>
     <g id="line2d_10">
      <g>
       <use xlink:href="#m83f9b647d9" x="295.2" y="384.48" style="stroke: #000000; stroke-width: 0.8"/>
      </g>
     </g>
     <g id="text_5">
      <!-- 100 -->
      <g transform="translate(285.65625 399.078438) scale(0.1 -0.1)">
       <defs>
        <path id="DejaVuSans-31" d="M 794 531 
L 1825 531 
L 1825 4091 
L 703 3866 
L 703 4441 
L 1819 4666 
L 2450 4666 
L 2450 531 
L 3481 531 
L 3481 0 
L 794 0 
L 794 531 
z
" transform="scale(0.015625)"/>
       </defs>
       <use xlink:href="#DejaVuSans-31"/>
       <use xlink:href="#DejaVuSans-30" x="63.623047"/>
       <use xlink:href="#DejaVuSans-30" x="127.246094"/>
      </g>
     </g>
    </g>
    <g id="xtick_6">
     <g id="line2d_11">
      <path d="M 345.927273 384.48 
L 345.927273 51.84 
" clip-path="url(#pcfd7c9363d)" style="fill: none; stroke: #b0b0b0; stroke-opacity: 0.5; stroke-width: 0.8; stroke-linecap: square"/>
     </g>
     <g id="line2d_12">
      <g>
       <use xlink:href="#m83f9b647d9" x="345.927273" y="384.48" style="stroke: #000000; stroke-width: 0.8"/>
      </g>
     </g>
     <g id="text_6">
      <!-- 125 -->
      <g transform="translate(336.383523 399.078438) scale(0.1 -0.1)">
       <use xlink:href="#DejaVuSans-31"/>
       <use xlink:href="#DejaVuSans-32" x="63.623047"/>
       <use xlink:href="#DejaVuSans-35" x="127.246094"/>
      </g>
     </g>
    </g>
    <g id="xtick_7">
     <g id="line2d_13">
      <path d="M 396.654545 384.48 
L 396.654545 51.84 
" clip-path="url(#pcfd7c9363d)" style="fill: none; stroke: #b0b0b0; stroke-opacity: 0.5; stroke-width: 0.8; stroke-linecap: square"/>
     </g>
     <g id="line2d_14">
      <g>
       <use xlink:href="#m83f9b647d9" x="396.654545" y="384.48" style="stroke: #000000; stroke-width: 0.8"/>
      </g>
     </g>
     <g id="text_7">
      <!-- 150 -->
      <g transform="translate(387.110795 399.078438) scale(0.1 -0.1)">
       <use xlink:href="#DejaVuSans-31"/>
       <use xlink:href="#DejaVuSans-35" x="63.623047"/>
       <use xlink:href="#DejaVuSans-30" x="127.246094"/>
      </g>
     </g>
    </g>
    <g id="xtick_8">
     <g id="line2d_15">
      <path d="M 447.381818 384.48 
L 447.381818 51.84 
" clip-path="url(#pcfd7c9363d)" style="fill: none; stroke: #b0b0b0; stroke-opacity: 0.5; stroke-width: 0.8; stroke-linecap: square"/>
     </g>
     <g id="line2d_16">
      <g>
       <use xlink:href="#m83f9b647d9" x="447.381818" y="384.48" style="stroke: #000000; stroke-width: 0.8"/>
      </g>
     </g>
     <g id="text_8">
      <!-- 175 -->
      <g transform="translate(437.838068 399.078438) scale(0.1 -0.1)">
       <use xlink:href="#DejaVuSans-31"/>
       <use xlink:href="#DejaVuSans-37" x="63.623047"/>
       <use xlink:href="#DejaVuSans-35" x="127.246094"/>
      </g>
     </g>
    </g>
    <g id="xtick_9">
     <g id="line2d_17">
      <path d="M 498.109091 384.48 
L 498.109091 51.84 
" clip-path="url(#pcfd7c9363d)" style="fill: none; stroke: #b0b0b0; stroke-opacity: 0.5; stroke-width: 0.8; stroke-linecap: square"/>
     </g>
     <g id="line2d_18">
      <g>
       <use xlink:href="#m83f9b647d9" x="498.109091" y="384.48" style="stroke: #000000; stroke-width: 0.8"/>
      </g>
     </g>
     <g id="text_9">
      <!-- 200 -->
      <g transform="translate(488.565341 399.078438) scale(0.1 -0.1)">
       <use xlink:href="#DejaVuSans-32"/>
       <use xlink:href="#DejaVuSans-30" x="63.623047"/>
       <use xlink:href="#DejaVuSans-30" x="127.246094"/>
      </g>
     </g>
    </g>
    <g id="text_10">
     <!-- Communication rounds -->
     <g transform="translate(237.083594 412.756563) scale(0.1 -0.1)">
      <defs>
       <path id="DejaVuSans-43" d="M 4122 4306 
L 4122 3641 
Q 3803 3938 3442 4084 
Q 3081 4231 2675 4231 
Q 1875 4231 1450 3742 
Q 1025 3253 1025 2328 
Q 1025 1406 1450 917 
Q 1875 428 2675 428 
Q 3081 428 3442 575 
Q 3803 722 4122 1019 
L 4122 359 
Q 3791 134 3420 21 
Q 3050 -91 2638 -91 
Q 1578 -91 968 557 
Q 359 1206 359 2328 
Q 359 3453 968 4101 
Q 1578 4750 2638 4750 
Q 3056 4750 3426 4639 
Q 3797 4528 4122 4306 
z
" transform="scale(0.015625)"/>
       <path id="DejaVuSans-6f" d="M 1959 3097 
Q 1497 3097 1228 2736 
Q 959 2375 959 1747 
Q 959 1119 1226 758 
Q 1494 397 1959 397 
Q 2419 397 2687 759 
Q 2956 1122 2956 1747 
Q 2956 2369 2687 2733 
Q 2419 3097 1959 3097 
z
M 1959 3584 
Q 2709 3584 3137 3096 
Q 3566 2609 3566 1747 
Q 3566 888 3137 398 
Q 2709 -91 1959 -91 
Q 1206 -91 779 398 
Q 353 888 353 1747 
Q 353 2609 779 3096 
Q 1206 3584 1959 3584 
z
" transform="scale(0.015625)"/>
       <path id="DejaVuSans-6d" d="M 3328 2828 
Q 3544 3216 3844 3400 
Q 4144 3584 4550 3584 
Q 5097 3584 5394 3201 
Q 5691 2819 5691 2113 
L 5691 0 
L 5113 0 
L 5113 2094 
Q 5113 2597 4934 2840 
Q 4756 3084 4391 3084 
Q 3944 3084 3684 2787 
Q 3425 2491 3425 1978 
L 3425 0 
L 2847 0 
L 2847 2094 
Q 2847 2600 2669 2842 
Q 2491 3084 2119 3084 
Q 1678 3084 1418 2786 
Q 1159 2488 1159 1978 
L 1159 0 
L 581 0 
L 581 3500 
L 1159 3500 
L 1159 2956 
Q 1356 3278 1631 3431 
Q 1906 3584 2284 3584 
Q 2666 3584 2933 3390 
Q 3200 3197 3328 2828 
z
" transform="scale(0.015625)"/>
       <path id="DejaVuSans-75" d="M 544 1381 
L 544 3500 
L 1119 3500 
L 1119 1403 
Q 1119 906 1312 657 
Q 1506 409 1894 409 
Q 2359 409 2629 706 
Q 2900 1003 2900 1516 
L 2900 3500 
L 3475 3500 
L 3475 0 
L 2900 0 
L 2900 538 
Q 2691 219 2414 64 
Q 2138 -91 1772 -91 
Q 1169 -91 856 284 
Q 544 659 544 1381 
z
M 1991 3584 
L 1991 3584 
z
" transform="scale(0.015625)"/>
       <path id="DejaVuSans-6e" d="M 3513 2113 
L 3513 0 
L 2938 0 
L 2938 2094 
Q 2938 2591 2744 2837 
Q 2550 3084 2163 3084 
Q 1697 3084 1428 2787 
Q 1159 2491 1159 1978 
L 1159 0 
L 581 0 
L 581 3500 
L 1159 3500 
L 1159 2956 
Q 1366 3272 1645 3428 
Q 1925 3584 2291 3584 
Q 2894 3584 3203 3211 
Q 3513 2838 3513 2113 
z
" transform="scale(0.015625)"/>
       <path id="DejaVuSans-69" d="M 603 3500 
L 1178 3500 
L 1178 0 
L 603 0 
L 603 3500 
z
M 603 4863 
L 1178 4863 
L 1178 4134 
L 603 4134 
L 603 4863 
z
" transform="scale(0.015625)"/>
       <path id="DejaVuSans-63" d="M 3122 3366 
L 3122 2828 
Q 2878 2963 2633 3030 
Q 2388 3097 2138 3097 
Q 1578 3097 1268 2742 
Q 959 2388 959 1747 
Q 959 1106 1268 751 
Q 1578 397 2138 397 
Q 2388 397 2633 464 
Q 2878 531 3122 666 
L 3122 134 
Q 2881 22 2623 -34 
Q 2366 -91 2075 -91 
Q 1284 -91 818 406 
Q 353 903 353 1747 
Q 353 2603 823 3093 
Q 1294 3584 2113 3584 
Q 2378 3584 2631 3529 
Q 2884 3475 3122 3366 
z
" transform="scale(0.015625)"/>
       <path id="DejaVuSans-61" d="M 2194 1759 
Q 1497 1759 1228 1600 
Q 959 1441 959 1056 
Q 959 750 1161 570 
Q 1363 391 1709 391 
Q 2188 391 2477 730 
Q 2766 1069 2766 1631 
L 2766 1759 
L 2194 1759 
z
M 3341 1997 
L 3341 0 
L 2766 0 
L 2766 531 
Q 2569 213 2275 61 
Q 1981 -91 1556 -91 
Q 1019 -91 701 211 
Q 384 513 384 1019 
Q 384 1609 779 1909 
Q 1175 2209 1959 2209 
L 2766 2209 
L 2766 2266 
Q 2766 2663 2505 2880 
Q 2244 3097 1772 3097 
Q 1472 3097 1187 3025 
Q 903 2953 641 2809 
L 641 3341 
Q 956 3463 1253 3523 
Q 1550 3584 1831 3584 
Q 2591 3584 2966 3190 
Q 3341 2797 3341 1997 
z
" transform="scale(0.015625)"/>
       <path id="DejaVuSans-74" d="M 1172 4494 
L 1172 3500 
L 2356 3500 
L 2356 3053 
L 1172 3053 
L 1172 1153 
Q 1172 725 1289 603 
Q 1406 481 1766 481 
L 2356 481 
L 2356 0 
L 1766 0 
Q 1100 0 847 248 
Q 594 497 594 1153 
L 594 3053 
L 172 3053 
L 172 3500 
L 594 3500 
L 594 4494 
L 1172 4494 
z
" transform="scale(0.015625)"/>
       <path id="DejaVuSans-20" transform="scale(0.015625)"/>
       <path id="DejaVuSans-72" d="M 2631 2963 
Q 2534 3019 2420 3045 
Q 2306 3072 2169 3072 
Q 1681 3072 1420 2755 
Q 1159 2438 1159 1844 
L 1159 0 
L 581 0 
L 581 3500 
L 1159 3500 
L 1159 2956 
Q 1341 3275 1631 3429 
Q 1922 3584 2338 3584 
Q 2397 3584 2469 3576 
Q 2541 3569 2628 3553 
L 2631 2963 
z
" transform="scale(0.015625)"/>
       <path id="DejaVuSans-64" d="M 2906 2969 
L 2906 4863 
L 3481 4863 
L 3481 0 
L 2906 0 
L 2906 525 
Q 2725 213 2448 61 
Q 2172 -91 1784 -91 
Q 1150 -91 751 415 
Q 353 922 353 1747 
Q 353 2572 751 3078 
Q 1150 3584 1784 3584 
Q 2172 3584 2448 3432 
Q 2725 3281 2906 2969 
z
M 947 1747 
Q 947 1113 1208 752 
Q 1469 391 1925 391 
Q 2381 391 2643 752 
Q 2906 1113 2906 1747 
Q 2906 2381 2643 2742 
Q 2381 3103 1925 3103 
Q 1469 3103 1208 2742 
Q 947 2381 947 1747 
z
" transform="scale(0.015625)"/>
       <path id="DejaVuSans-73" d="M 2834 3397 
L 2834 2853 
Q 2591 2978 2328 3040 
Q 2066 3103 1784 3103 
Q 1356 3103 1142 2972 
Q 928 2841 928 2578 
Q 928 2378 1081 2264 
Q 1234 2150 1697 2047 
L 1894 2003 
Q 2506 1872 2764 1633 
Q 3022 1394 3022 966 
Q 3022 478 2636 193 
Q 2250 -91 1575 -91 
Q 1294 -91 989 -36 
Q 684 19 347 128 
L 347 722 
Q 666 556 975 473 
Q 1284 391 1588 391 
Q 1994 391 2212 530 
Q 2431 669 2431 922 
Q 2431 1156 2273 1281 
Q 2116 1406 1581 1522 
L 1381 1569 
Q 847 1681 609 1914 
Q 372 2147 372 2553 
Q 372 3047 722 3315 
Q 1072 3584 1716 3584 
Q 2034 3584 2315 3537 
Q 2597 3491 2834 3397 
z
" transform="scale(0.015625)"/>
      </defs>
      <use xlink:href="#DejaVuSans-43"/>
      <use xlink:href="#DejaVuSans-6f" x="69.824219"/>
      <use xlink:href="#DejaVuSans-6d" x="131.005859"/>
      <use xlink:href="#DejaVuSans-6d" x="228.417969"/>
      <use xlink:href="#DejaVuSans-75" x="325.830078"/>
      <use xlink:href="#DejaVuSans-6e" x="389.208984"/>
      <use xlink:href="#DejaVuSans-69" x="452.587891"/>
      <use xlink:href="#DejaVuSans-63" x="480.371094"/>
      <use xlink:href="#DejaVuSans-61" x="535.351562"/>
      <use xlink:href="#DejaVuSans-74" x="596.630859"/>
      <use xlink:href="#DejaVuSans-69" x="635.839844"/>
      <use xlink:href="#DejaVuSans-6f" x="663.623047"/>
      <use xlink:href="#DejaVuSans-6e" x="724.804688"/>
      <use xlink:href="#DejaVuSans-20" x="788.183594"/>
      <use xlink:href="#DejaVuSans-72" x="819.970703"/>
      <use xlink:href="#DejaVuSans-6f" x="858.833984"/>
      <use xlink:href="#DejaVuSans-75" x="920.015625"/>
      <use xlink:href="#DejaVuSans-6e" x="983.394531"/>
      <use xlink:href="#DejaVuSans-64" x="1046.773438"/>
      <use xlink:href="#DejaVuSans-73" x="1110.25"/>
     </g>
    </g>
   </g>
   <g id="matplotlib.axis_2">
    <g id="ytick_1">
     <g id="line2d_19">
      <path d="M 72 311.555261 
L 518.4 311.555261 
" clip-path="url(#pcfd7c9363d)" style="fill: none; stroke: #b0b0b0; stroke-opacity: 0.5; stroke-width: 0.8; stroke-linecap: square"/>
     </g>
     <g id="line2d_20">
      <defs>
       <path id="m4b7195c808" d="M 0 0 
L -3.5 0 
" style="stroke: #000000; stroke-width: 0.8"/>
      </defs>
      <g>
       <use xlink:href="#m4b7195c808" x="72" y="311.555261" style="stroke: #000000; stroke-width: 0.8"/>
      </g>
     </g>
     <g id="text_11">
      <!-- 0.2 -->
      <g transform="translate(49.096875 315.354479) scale(0.1 -0.1)">
       <defs>
        <path id="DejaVuSans-2e" d="M 684 794 
L 1344 794 
L 1344 0 
L 684 0 
L 684 794 
z
" transform="scale(0.015625)"/>
       </defs>
       <use xlink:href="#DejaVuSans-30"/>
       <use xlink:href="#DejaVuSans-2e" x="63.623047"/>
       <use xlink:href="#DejaVuSans-32" x="95.410156"/>
      </g>
     </g>
    </g>
    <g id="ytick_2">
     <g id="line2d_21">
      <path d="M 72 238.059089 
L 518.4 238.059089 
" clip-path="url(#pcfd7c9363d)" style="fill: none; stroke: #b0b0b0; stroke-opacity: 0.5; stroke-width: 0.8; stroke-linecap: square"/>
     </g>
     <g id="line2d_22">
      <g>
       <use xlink:href="#m4b7195c808" x="72" y="238.059089" style="stroke: #000000; stroke-width: 0.8"/>
      </g>
     </g>
     <g id="text_12">
      <!-- 0.4 -->
      <g transform="translate(49.096875 241.858307) scale(0.1 -0.1)">
       <defs>
        <path id="DejaVuSans-34" d="M 2419 4116 
L 825 1625 
L 2419 1625 
L 2419 4116 
z
M 2253 4666 
L 3047 4666 
L 3047 1625 
L 3713 1625 
L 3713 1100 
L 3047 1100 
L 3047 0 
L 2419 0 
L 2419 1100 
L 313 1100 
L 313 1709 
L 2253 4666 
z
" transform="scale(0.015625)"/>
       </defs>
       <use xlink:href="#DejaVuSans-30"/>
       <use xlink:href="#DejaVuSans-2e" x="63.623047"/>
       <use xlink:href="#DejaVuSans-34" x="95.410156"/>
      </g>
     </g>
    </g>
    <g id="ytick_3">
     <g id="line2d_23">
      <path d="M 72 164.562917 
L 518.4 164.562917 
" clip-path="url(#pcfd7c9363d)" style="fill: none; stroke: #b0b0b0; stroke-opacity: 0.5; stroke-width: 0.8; stroke-linecap: square"/>
     </g>
     <g id="line2d_24">
      <g>
       <use xlink:href="#m4b7195c808" x="72" y="164.562917" style="stroke: #000000; stroke-width: 0.8"/>
      </g>
     </g>
     <g id="text_13">
      <!-- 0.6 -->
      <g transform="translate(49.096875 168.362135) scale(0.1 -0.1)">
       <defs>
        <path id="DejaVuSans-36" d="M 2113 2584 
Q 1688 2584 1439 2293 
Q 1191 2003 1191 1497 
Q 1191 994 1439 701 
Q 1688 409 2113 409 
Q 2538 409 2786 701 
Q 3034 994 3034 1497 
Q 3034 2003 2786 2293 
Q 2538 2584 2113 2584 
z
M 3366 4563 
L 3366 3988 
Q 3128 4100 2886 4159 
Q 2644 4219 2406 4219 
Q 1781 4219 1451 3797 
Q 1122 3375 1075 2522 
Q 1259 2794 1537 2939 
Q 1816 3084 2150 3084 
Q 2853 3084 3261 2657 
Q 3669 2231 3669 1497 
Q 3669 778 3244 343 
Q 2819 -91 2113 -91 
Q 1303 -91 875 529 
Q 447 1150 447 2328 
Q 447 3434 972 4092 
Q 1497 4750 2381 4750 
Q 2619 4750 2861 4703 
Q 3103 4656 3366 4563 
z
" transform="scale(0.015625)"/>
       </defs>
       <use xlink:href="#DejaVuSans-30"/>
       <use xlink:href="#DejaVuSans-2e" x="63.623047"/>
       <use xlink:href="#DejaVuSans-36" x="95.410156"/>
      </g>
     </g>
    </g>
    <g id="ytick_4">
     <g id="line2d_25">
      <path d="M 72 91.066744 
L 518.4 91.066744 
" clip-path="url(#pcfd7c9363d)" style="fill: none; stroke: #b0b0b0; stroke-opacity: 0.5; stroke-width: 0.8; stroke-linecap: square"/>
     </g>
     <g id="line2d_26">
      <g>
       <use xlink:href="#m4b7195c808" x="72" y="91.066744" style="stroke: #000000; stroke-width: 0.8"/>
      </g>
     </g>
     <g id="text_14">
      <!-- 0.8 -->
      <g transform="translate(49.096875 94.865963) scale(0.1 -0.1)">
       <defs>
        <path id="DejaVuSans-38" d="M 2034 2216 
Q 1584 2216 1326 1975 
Q 1069 1734 1069 1313 
Q 1069 891 1326 650 
Q 1584 409 2034 409 
Q 2484 409 2743 651 
Q 3003 894 3003 1313 
Q 3003 1734 2745 1975 
Q 2488 2216 2034 2216 
z
M 1403 2484 
Q 997 2584 770 2862 
Q 544 3141 544 3541 
Q 544 4100 942 4425 
Q 1341 4750 2034 4750 
Q 2731 4750 3128 4425 
Q 3525 4100 3525 3541 
Q 3525 3141 3298 2862 
Q 3072 2584 2669 2484 
Q 3125 2378 3379 2068 
Q 3634 1759 3634 1313 
Q 3634 634 3220 271 
Q 2806 -91 2034 -91 
Q 1263 -91 848 271 
Q 434 634 434 1313 
Q 434 1759 690 2068 
Q 947 2378 1403 2484 
z
M 1172 3481 
Q 1172 3119 1398 2916 
Q 1625 2713 2034 2713 
Q 2441 2713 2670 2916 
Q 2900 3119 2900 3481 
Q 2900 3844 2670 4047 
Q 2441 4250 2034 4250 
Q 1625 4250 1398 4047 
Q 1172 3844 1172 3481 
z
" transform="scale(0.015625)"/>
       </defs>
       <use xlink:href="#DejaVuSans-30"/>
       <use xlink:href="#DejaVuSans-2e" x="63.623047"/>
       <use xlink:href="#DejaVuSans-38" x="95.410156"/>
      </g>
     </g>
    </g>
    <g id="text_15">
     <!-- Accuracy -->
     <g transform="translate(43.017187 240.988125) rotate(-90) scale(0.1 -0.1)">
      <defs>
       <path id="DejaVuSans-41" d="M 2188 4044 
L 1331 1722 
L 3047 1722 
L 2188 4044 
z
M 1831 4666 
L 2547 4666 
L 4325 0 
L 3669 0 
L 3244 1197 
L 1141 1197 
L 716 0 
L 50 0 
L 1831 4666 
z
" transform="scale(0.015625)"/>
       <path id="DejaVuSans-79" d="M 2059 -325 
Q 1816 -950 1584 -1140 
Q 1353 -1331 966 -1331 
L 506 -1331 
L 506 -850 
L 844 -850 
Q 1081 -850 1212 -737 
Q 1344 -625 1503 -206 
L 1606 56 
L 191 3500 
L 800 3500 
L 1894 763 
L 2988 3500 
L 3597 3500 
L 2059 -325 
z
" transform="scale(0.015625)"/>
      </defs>
      <use xlink:href="#DejaVuSans-41"/>
      <use xlink:href="#DejaVuSans-63" x="66.658203"/>
      <use xlink:href="#DejaVuSans-63" x="121.638672"/>
      <use xlink:href="#DejaVuSans-75" x="176.619141"/>
      <use xlink:href="#DejaVuSans-72" x="239.998047"/>
      <use xlink:href="#DejaVuSans-61" x="281.111328"/>
      <use xlink:href="#DejaVuSans-63" x="342.390625"/>
      <use xlink:href="#DejaVuSans-79" x="397.371094"/>
     </g>
    </g>
   </g>
   <g id="line2d_27">
    <path d="M 92.290909 352.45588 
L 94.32 350.765468 
L 96.349091 336.433715 
L 98.378182 331.693212 
L 100.407273 307.182238 
L 102.436364 305.455078 
L 104.465455 285.905097 
L 106.494545 276.938564 
L 108.523636 253.530033 
L 110.552727 240.851943 
L 112.581818 289.432913 
L 114.610909 236.29518 
L 116.64 226.152709 
L 120.698182 195.174072 
L 122.727273 192.123981 
L 124.756364 178.380197 
L 126.785455 176.653037 
L 128.814545 163.938199 
L 130.843636 154.971666 
L 132.872727 176.21206 
L 134.901818 153.060766 
L 136.930909 143.065286 
L 138.96 137.0386 
L 140.989091 134.392738 
L 145.047273 124.287014 
L 147.076364 122.376114 
L 149.105455 113.740314 
L 151.134545 112.417382 
L 153.163636 121.126679 
L 155.192727 110.910711 
L 157.221818 105.582238 
L 159.250909 104.994269 
L 161.28 106.464192 
L 163.309091 104.222559 
L 165.338182 101.13572 
L 167.367273 97.203675 
L 169.396364 97.86514 
L 171.425455 98.857339 
L 173.454545 111.939657 
L 175.483636 97.277171 
L 177.512727 93.528866 
L 179.541818 93.528866 
L 181.570909 89.339584 
L 183.6 90.699264 
L 185.629091 90.478775 
L 187.658182 93.345126 
L 189.687273 91.176989 
L 191.716364 85.701524 
L 193.745455 104.59004 
L 195.774545 88.310638 
L 197.803636 88.898607 
L 199.832727 84.121356 
L 201.861818 86.620226 
L 203.890909 86.069005 
L 205.92 83.202654 
L 207.949091 83.423143 
L 209.978182 82.063463 
L 212.007273 82.063463 
L 214.036364 94.925293 
L 216.065455 82.063463 
L 218.094545 81.842975 
L 220.123636 84.2316 
L 222.152727 79.895326 
L 224.181818 80.373051 
L 226.210909 82.394196 
L 228.24 79.711586 
L 230.269091 79.123616 
L 232.298182 80.703784 
L 234.327273 88.678119 
L 236.356364 79.932074 
L 238.385455 79.895326 
L 240.414545 80.59354 
L 242.443636 77.212716 
L 244.472727 86.840715 
L 246.501818 79.233861 
L 248.530909 85.260547 
L 250.56 76.624747 
L 252.589091 76.404258 
L 254.618182 81.512242 
L 256.647273 77.396456 
L 258.676364 77.506701 
L 260.705455 75.816289 
L 262.734545 75.926533 
L 264.763636 77.286212 
L 266.792727 77.543449 
L 268.821818 75.816289 
L 270.850909 77.763937 
L 272.88 76.404258 
L 274.909091 79.454349 
L 276.938182 75.5958 
L 278.967273 79.564594 
L 280.996364 73.317419 
L 283.025455 74.566854 
L 285.054545 78.315159 
L 287.083636 77.212716 
L 289.112727 75.926533 
L 291.141818 72.655953 
L 293.170909 75.926533 
L 295.2 76.992227 
L 299.258182 76.404258 
L 301.287273 78.682639 
L 303.316364 76.514502 
L 305.345455 73.464411 
L 307.374545 72.986686 
L 309.403636 74.934335 
L 311.432727 74.125877 
L 313.461818 72.435465 
L 315.490909 75.5958 
L 317.52 74.82409 
L 319.549091 74.236121 
L 321.578182 74.015633 
L 323.607273 71.296274 
L 325.636364 71.737251 
L 327.665455 70.377572 
L 329.694545 85.00331 
L 331.723636 69.45887 
L 333.752727 74.236121 
L 335.781818 74.934335 
L 337.810909 71.627007 
L 341.869091 72.398717 
L 343.898182 73.207175 
L 345.927273 72.288472 
L 349.985455 71.296274 
L 352.014545 72.545709 
L 354.043636 70.708305 
L 356.072727 73.354167 
L 358.101818 72.545709 
L 360.130909 71.516763 
L 362.16 77.286212 
L 364.189091 71.296274 
L 366.218182 73.207175 
L 368.247273 70.855297 
L 370.276364 72.655953 
L 372.305455 72.398717 
L 374.334545 69.45887 
L 376.363636 72.067984 
L 378.392727 76.955479 
L 380.421818 70.818549 
L 382.450909 70.855297 
L 384.48 69.679358 
L 386.509091 69.45887 
L 388.538182 72.067984 
L 390.567273 72.986686 
L 392.596364 70.818549 
L 394.625455 70.157083 
L 396.654545 72.067984 
L 398.683636 70.855297 
L 400.712727 72.067984 
L 404.770909 72.288472 
L 406.8 70.855297 
L 408.829091 71.039038 
L 410.858182 69.716106 
L 412.887273 68.797404 
L 414.916364 70.928793 
L 416.945455 72.766198 
L 418.974545 69.716106 
L 421.003636 70.708305 
L 423.032727 72.655953 
L 425.061818 69.128137 
L 427.090909 69.091389 
L 429.12 73.207175 
L 431.149091 81.512242 
L 433.178182 67.768458 
L 435.207273 69.936595 
L 437.236364 71.075786 
L 439.265455 73.758396 
L 441.294545 74.677098 
L 443.323636 69.789603 
L 445.352727 71.95774 
L 447.381818 70.377572 
L 449.410909 69.716106 
L 451.44 69.238381 
L 453.469091 68.576916 
L 455.498182 71.627007 
L 457.527273 71.36977 
L 459.556364 69.128137 
L 461.585455 69.899847 
L 463.614545 72.398717 
L 465.643636 71.36977 
L 467.672727 71.406518 
L 469.701818 70.267328 
L 471.730909 70.010091 
L 473.76 68.135939 
L 475.789091 69.899847 
L 477.818182 70.157083 
L 479.847273 68.68716 
L 481.876364 73.795144 
L 483.905455 69.128137 
L 485.934545 66.96 
L 487.963636 70.487816 
L 489.992727 71.480015 
L 492.021818 69.128137 
L 494.050909 67.070244 
L 496.08 69.605862 
L 498.109091 69.605862 
L 498.109091 69.605862 
" clip-path="url(#pcfd7c9363d)" style="fill: none; stroke: #1f77b4; stroke-width: 1.5; stroke-linecap: square"/>
   </g>
   <g id="line2d_28">
    <path d="M 92.290909 354.403529 
L 94.32 353.374583 
L 100.407273 316.920481 
L 102.436364 307.255735 
L 104.465455 299.979614 
L 106.494545 282.046548 
L 108.523636 271.132366 
L 110.552727 254.485483 
L 112.581818 299.097659 
L 114.610909 239.933241 
L 116.64 231.848662 
L 118.669091 217.774145 
L 120.698182 205.610529 
L 122.727273 198.922377 
L 126.785455 173.71319 
L 128.814545 167.025038 
L 130.843636 158.830215 
L 132.872727 177.461495 
L 134.901818 146.923835 
L 136.930909 136.26689 
L 138.96 132.959563 
L 140.989091 128.292556 
L 143.018182 124.654495 
L 145.047273 117.745855 
L 147.076364 117.26813 
L 149.105455 110.910711 
L 151.134545 110.249245 
L 153.163636 117.856099 
L 155.192727 105.141261 
L 157.221818 103.781582 
L 159.250909 97.975385 
L 161.28 103.083369 
L 163.309091 98.673598 
L 165.338182 97.718148 
L 167.367273 94.925293 
L 169.396364 90.331783 
L 171.425455 93.087889 
L 173.454545 98.306117 
L 175.483636 90.809508 
L 177.512727 86.142501 
L 179.541818 87.171447 
L 181.570909 87.538928 
L 183.6 86.950959 
L 185.629091 88.090149 
L 187.658182 83.533387 
L 189.687273 82.982166 
L 191.716364 84.452089 
L 193.745455 90.00105 
L 195.774545 84.341845 
L 197.803636 81.144761 
L 199.832727 82.210456 
L 203.890909 80.924273 
L 205.92 81.842975 
L 207.949091 82.982166 
L 209.978182 77.763937 
L 212.007273 82.394196 
L 214.036364 84.782822 
L 216.065455 79.564594 
L 218.094545 79.454349 
L 220.123636 78.572395 
L 222.152727 78.756136 
L 224.181818 81.512242 
L 226.210909 76.845235 
L 228.24 76.734991 
L 230.269091 77.396456 
L 232.298182 75.926533 
L 234.327273 80.703784 
L 236.356364 75.632548 
L 238.385455 75.816289 
L 240.414545 80.59354 
L 242.443636 77.763937 
L 244.472727 78.425403 
L 246.501818 74.236121 
L 248.530909 74.82409 
L 250.56 77.653693 
L 252.589091 75.706044 
L 254.618182 76.845235 
L 256.647273 76.734991 
L 258.676364 73.464411 
L 262.734545 76.404258 
L 266.792727 71.994488 
L 268.821818 72.067984 
L 270.850909 76.514502 
L 272.88 74.603602 
L 274.909091 76.294014 
L 276.938182 74.566854 
L 278.967273 72.178228 
L 280.996364 76.514502 
L 283.025455 75.265067 
L 285.054545 74.346365 
L 287.083636 75.007831 
L 289.112727 72.766198 
L 291.141818 74.015633 
L 293.170909 77.874182 
L 295.2 77.175968 
L 297.229091 74.346365 
L 299.258182 71.95774 
L 301.287273 72.178228 
L 303.316364 73.427663 
L 305.345455 76.624747 
L 307.374545 76.845235 
L 309.403636 74.236121 
L 311.432727 74.346365 
L 313.461818 73.905388 
L 315.490909 73.905388 
L 317.52 73.537907 
L 319.549091 75.228319 
L 321.578182 72.178228 
L 323.607273 72.876442 
L 325.636364 71.075786 
L 327.665455 70.267328 
L 329.694545 73.354167 
L 331.723636 74.603602 
L 333.752727 74.015633 
L 335.781818 74.015633 
L 337.810909 70.818549 
L 339.84 70.267328 
L 341.869091 74.677098 
L 343.898182 72.545709 
L 345.927273 73.427663 
L 347.956364 73.464411 
L 349.985455 71.627007 
L 352.014545 71.847495 
L 354.043636 74.346365 
L 356.072727 72.067984 
L 358.101818 71.296274 
L 360.130909 70.928793 
L 362.16 74.015633 
L 364.189091 72.288472 
L 366.218182 71.516763 
L 370.276364 69.238381 
L 372.305455 70.487816 
L 374.334545 73.207175 
L 376.363636 72.655953 
L 378.392727 71.296274 
L 380.421818 69.789603 
L 382.450909 73.317419 
L 384.48 71.884244 
L 388.538182 69.45887 
L 390.567273 70.598061 
L 392.596364 71.18603 
L 394.625455 71.627007 
L 396.654545 70.487816 
L 398.683636 70.598061 
L 400.712727 69.789603 
L 402.741818 70.046839 
L 404.770909 69.017893 
L 406.8 71.075786 
L 408.829091 68.68716 
L 410.858182 70.157083 
L 412.887273 69.45887 
L 414.916364 70.928793 
L 416.945455 70.377572 
L 421.003636 67.621466 
L 423.032727 69.679358 
L 425.061818 69.789603 
L 427.090909 70.928793 
L 429.12 69.128137 
L 431.149091 69.348626 
L 433.178182 70.267328 
L 435.207273 69.238381 
L 437.236364 69.716106 
L 439.265455 68.135939 
L 441.294545 69.826351 
L 443.323636 69.128137 
L 445.352727 69.495618 
L 447.381818 68.797404 
L 449.410909 67.547969 
L 451.44 68.760656 
L 453.469091 69.45887 
L 455.498182 71.075786 
L 457.527273 70.377572 
L 459.556364 70.157083 
L 461.585455 69.017893 
L 463.614545 70.267328 
L 465.643636 69.238381 
L 467.672727 68.68716 
L 469.701818 69.385374 
L 471.730909 73.464411 
L 473.76 69.716106 
L 475.789091 70.377572 
L 477.818182 69.605862 
L 479.847273 67.73171 
L 481.876364 67.070244 
L 483.905455 69.238381 
L 485.934545 68.907649 
L 487.963636 68.907649 
L 489.992727 67.547969 
L 492.021818 68.429923 
L 494.050909 68.319679 
L 496.08 69.348626 
L 498.109091 68.907649 
L 498.109091 68.907649 
" clip-path="url(#pcfd7c9363d)" style="fill: none; stroke: #ff7f0e; stroke-width: 1.5; stroke-linecap: square"/>
   </g>
   <g id="line2d_29">
    <path d="M 92.290909 357.821101 
L 94.32 351.904659 
L 96.349091 348.009362 
L 98.378182 343.709836 
L 100.407273 330.77451 
L 106.494545 283.295983 
L 110.552727 260.144688 
L 112.581818 305.41833 
L 114.610909 248.679285 
L 116.64 240.153729 
L 118.669091 223.580343 
L 120.698182 204.949063 
L 122.727273 198.113919 
L 124.756364 183.708669 
L 126.785455 174.080671 
L 130.843636 152.252308 
L 132.872727 185.766562 
L 134.901818 150.451651 
L 136.930909 137.589821 
L 140.989091 125.352709 
L 143.018182 123.294816 
L 145.047273 117.966343 
L 147.076364 110.579978 
L 149.105455 110.102253 
L 151.134545 107.86062 
L 153.163636 133.290295 
L 155.192727 105.582238 
L 157.221818 97.86514 
L 159.250909 103.781582 
L 161.28 100.474254 
L 165.338182 92.279431 
L 167.367273 92.867401 
L 169.396364 93.308378 
L 171.425455 91.72821 
L 173.454545 101.356209 
L 175.483636 89.008852 
L 179.541818 89.486577 
L 181.570909 92.279431 
L 183.6 89.560073 
L 185.629091 82.761677 
L 187.658182 84.562333 
L 189.687273 83.423143 
L 191.716364 89.22934 
L 193.745455 92.536668 
L 195.774545 90.589019 
L 197.803636 82.394196 
L 199.832727 82.761677 
L 201.861818 82.614685 
L 203.890909 81.291754 
L 205.92 78.756136 
L 207.949091 83.09241 
L 212.007273 79.344105 
L 214.036364 83.423143 
L 216.065455 80.226059 
L 218.094545 78.572395 
L 220.123636 83.202654 
L 222.152727 77.286212 
L 224.181818 77.984426 
L 226.210909 77.286212 
L 228.24 84.011112 
L 230.269091 84.929814 
L 232.298182 79.123616 
L 234.327273 82.871921 
L 236.356364 80.483296 
L 238.385455 80.262807 
L 240.414545 81.842975 
L 242.443636 81.36525 
L 244.472727 78.09467 
L 246.501818 78.792884 
L 248.530909 78.792884 
L 250.56 76.734991 
L 252.589091 81.291754 
L 254.618182 77.984426 
L 256.647273 78.572395 
L 258.676364 75.742793 
L 260.705455 76.036777 
L 262.734545 77.396456 
L 264.763636 77.212716 
L 266.792727 75.816289 
L 268.821818 74.934335 
L 270.850909 79.344105 
L 272.88 75.375312 
L 274.909091 78.756136 
L 276.938182 75.118075 
L 278.967273 76.845235 
L 280.996364 75.926533 
L 283.025455 77.102472 
L 285.054545 75.265067 
L 287.083636 82.063463 
L 289.112727 74.713846 
L 291.141818 77.102472 
L 293.170909 73.317419 
L 295.2 76.404258 
L 297.229091 77.874182 
L 299.258182 74.82409 
L 301.287273 75.154823 
L 303.316364 75.816289 
L 305.345455 75.926533 
L 307.374545 76.404258 
L 309.403636 76.624747 
L 311.432727 74.346365 
L 313.461818 74.236121 
L 315.490909 75.485556 
L 317.52 74.934335 
L 319.549091 76.404258 
L 321.578182 75.118075 
L 323.607273 77.212716 
L 325.636364 77.653693 
L 327.665455 74.82409 
L 329.694545 74.125877 
L 331.723636 80.59354 
L 333.752727 75.375312 
L 335.781818 76.624747 
L 337.810909 74.82409 
L 339.84 73.6849 
L 341.869091 73.905388 
L 343.898182 82.761677 
L 345.927273 78.682639 
L 347.956364 76.404258 
L 349.985455 75.118075 
L 352.014545 77.984426 
L 354.043636 75.816289 
L 356.072727 77.653693 
L 358.101818 73.207175 
L 360.130909 75.265067 
L 362.16 73.648152 
L 364.189091 72.766198 
L 366.218182 73.537907 
L 368.247273 71.516763 
L 370.276364 73.648152 
L 372.305455 71.994488 
L 374.334545 70.487816 
L 376.363636 73.537907 
L 378.392727 73.905388 
L 380.421818 74.82409 
L 382.450909 73.905388 
L 384.48 71.296274 
L 386.509091 72.766198 
L 388.538182 73.133678 
L 390.567273 71.296274 
L 392.596364 72.545709 
L 394.625455 75.742793 
L 396.654545 74.125877 
L 398.683636 70.598061 
L 400.712727 69.128137 
L 402.741818 72.178228 
L 404.770909 81.512242 
L 406.8 71.18603 
L 410.858182 72.178228 
L 412.887273 73.537907 
L 414.916364 70.487816 
L 416.945455 74.603602 
L 418.974545 70.377572 
L 421.003636 69.789603 
L 423.032727 70.267328 
L 425.061818 78.462151 
L 427.090909 73.09693 
L 429.12 69.348626 
L 431.149091 72.178228 
L 433.178182 71.516763 
L 435.207273 69.238381 
L 437.236364 72.876442 
L 439.265455 70.267328 
L 441.294545 84.011112 
L 443.323636 72.655953 
L 445.352727 71.075786 
L 447.381818 72.398717 
L 449.410909 71.296274 
L 453.469091 73.133678 
L 455.498182 101.797186 
L 457.527273 77.396456 
L 459.556364 72.655953 
L 461.585455 73.537907 
L 463.614545 77.984426 
L 465.643636 71.847495 
L 467.672727 70.855297 
L 469.701818 70.157083 
L 471.730909 71.406518 
L 473.76 81.291754 
L 475.789091 69.605862 
L 477.818182 71.516763 
L 479.847273 71.406518 
L 481.876364 71.737251 
L 483.905455 73.537907 
L 485.934545 73.207175 
L 487.963636 70.267328 
L 489.992727 71.296274 
L 492.021818 69.128137 
L 494.050909 69.348626 
L 496.08 68.68716 
L 498.109091 71.296274 
L 498.109091 71.296274 
" clip-path="url(#pcfd7c9363d)" style="fill: none; stroke: #2ca02c; stroke-width: 1.5; stroke-linecap: square"/>
   </g>
   <g id="line2d_30">
    <path d="M 92.290909 369.36 
L 94.32 358.482567 
L 96.349091 351.904659 
L 98.378182 343.121867 
L 100.407273 335.882494 
L 102.436364 325.887014 
L 104.465455 313.87039 
L 106.494545 288.073234 
L 108.523636 284.10444 
L 110.552727 270.250412 
L 112.581818 324.086358 
L 114.610909 257.42533 
L 116.64 241.182676 
L 118.669091 235.266234 
L 120.698182 214.283077 
L 122.727273 202.560437 
L 124.756364 196.643996 
L 126.785455 183.341188 
L 128.814545 166.547313 
L 130.843636 157.470536 
L 132.872727 189.404623 
L 134.901818 150.892629 
L 136.930909 139.978447 
L 138.96 131.599883 
L 140.989091 129.762479 
L 143.018182 122.265869 
L 145.047273 123.956281 
L 147.076364 117.709107 
L 149.105455 113.299336 
L 151.134545 108.522085 
L 153.163636 122.964083 
L 155.192727 108.63233 
L 157.221818 108.889566 
L 159.250909 107.603383 
L 161.28 109.110055 
L 163.309091 98.857339 
L 165.338182 100.694743 
L 167.367273 100.915231 
L 169.396364 96.983186 
L 171.425455 96.027736 
L 173.454545 104.994269 
L 175.483636 97.607904 
L 177.512727 96.064484 
L 179.541818 89.670317 
L 181.570909 92.940897 
L 183.6 93.749355 
L 185.629091 89.780561 
L 187.658182 90.589019 
L 189.687273 88.200394 
L 191.716364 91.838454 
L 193.745455 100.033277 
L 195.774545 90.111294 
L 197.803636 90.148042 
L 199.832727 93.308378 
L 203.890909 87.171447 
L 205.92 93.786103 
L 207.949091 88.090149 
L 209.978182 86.840715 
L 212.007273 92.867401 
L 214.036364 90.148042 
L 216.065455 88.898607 
L 218.094545 89.81731 
L 220.123636 86.399738 
L 222.152727 88.090149 
L 224.181818 84.562333 
L 226.210909 90.037798 
L 228.24 89.890806 
L 230.269091 90.589019 
L 234.327273 93.786103 
L 236.356364 87.281692 
L 238.385455 86.252745 
L 240.414545 88.310638 
L 242.443636 86.069005 
L 244.472727 84.378593 
L 246.501818 85.738272 
L 248.530909 87.281692 
L 250.56 84.782822 
L 252.589091 87.061203 
L 254.618182 87.869661 
L 256.647273 83.423143 
L 258.676364 87.979905 
L 260.705455 85.370791 
L 262.734545 82.982166 
L 264.763636 81.512242 
L 266.792727 90.148042 
L 268.821818 82.3207 
L 270.850909 83.790623 
L 272.88 81.842975 
L 274.909091 84.341845 
L 276.938182 85.701524 
L 278.967273 82.430944 
L 280.996364 92.316179 
L 283.025455 82.761677 
L 285.054545 82.541188 
L 287.083636 85.00331 
L 289.112727 81.732731 
L 291.141818 83.533387 
L 293.170909 83.202654 
L 295.2 84.011112 
L 297.229091 80.042319 
L 299.258182 82.394196 
L 301.287273 83.680379 
L 303.316364 86.069005 
L 305.345455 82.063463 
L 307.374545 82.982166 
L 309.403636 84.452089 
L 313.461818 79.82183 
L 315.490909 82.761677 
L 317.52 79.013372 
L 319.549091 80.850777 
L 321.578182 86.142501 
L 323.607273 82.541188 
L 325.636364 78.315159 
L 327.665455 79.454349 
L 329.694545 80.262807 
L 331.723636 81.953219 
L 333.752727 83.202654 
L 335.781818 87.869661 
L 337.810909 84.562333 
L 339.84 90.00105 
L 341.869091 85.848516 
L 343.898182 92.169187 
L 345.927273 81.401998 
L 347.956364 82.982166 
L 349.985455 81.291754 
L 352.014545 80.850777 
L 354.043636 85.59128 
L 356.072727 84.599081 
L 358.101818 84.2316 
L 360.130909 83.09241 
L 362.16 80.336303 
L 364.189091 78.682639 
L 366.218182 78.315159 
L 368.247273 81.953219 
L 372.305455 79.564594 
L 374.334545 81.842975 
L 376.363636 81.291754 
L 378.392727 78.462151 
L 380.421818 79.123616 
L 382.450909 82.761677 
L 384.48 83.129158 
L 386.509091 78.86638 
L 388.538182 78.756136 
L 392.596364 77.102472 
L 394.625455 85.481035 
L 396.654545 82.173708 
L 398.683636 77.212716 
L 400.712727 101.13572 
L 402.741818 84.562333 
L 404.770909 79.454349 
L 406.8 76.036777 
L 408.829091 78.09467 
L 412.887273 77.984426 
L 414.916364 75.007831 
L 416.945455 76.147022 
L 418.974545 80.042319 
L 421.003636 77.543449 
L 425.061818 80.59354 
L 427.090909 86.069005 
L 429.12 78.572395 
L 431.149091 76.624747 
L 433.178182 76.404258 
L 437.236364 79.82183 
L 439.265455 80.262807 
L 441.294545 76.845235 
L 443.323636 78.903128 
L 445.352727 83.312898 
L 447.381818 76.734991 
L 449.410909 75.375312 
L 451.44 77.212716 
L 453.469091 78.09467 
L 455.498182 80.924273 
L 459.556364 76.477754 
L 461.585455 76.955479 
L 463.614545 77.984426 
L 465.643636 78.315159 
L 467.672727 77.543449 
L 469.701818 78.09467 
L 471.730909 83.202654 
L 473.76 79.564594 
L 475.789091 79.123616 
L 477.818182 79.013372 
L 479.847273 79.82183 
L 481.876364 78.572395 
L 483.905455 79.123616 
L 485.934545 79.013372 
L 487.963636 80.152563 
L 489.992727 78.572395 
L 492.021818 78.572395 
L 494.050909 76.073525 
L 496.08 84.893066 
L 498.109091 80.483296 
L 498.109091 80.483296 
" clip-path="url(#pcfd7c9363d)" style="fill: none; stroke: #d62728; stroke-width: 1.5; stroke-linecap: square"/>
   </g>
   <g id="patch_3">
    <path d="M 72 384.48 
L 72 51.84 
" style="fill: none; stroke: #000000; stroke-width: 0.8; stroke-linejoin: miter; stroke-linecap: square"/>
   </g>
   <g id="patch_4">
    <path d="M 518.4 384.48 
L 518.4 51.84 
" style="fill: none; stroke: #000000; stroke-width: 0.8; stroke-linejoin: miter; stroke-linecap: square"/>
   </g>
   <g id="patch_5">
    <path d="M 72 384.48 
L 518.4 384.48 
" style="fill: none; stroke: #000000; stroke-width: 0.8; stroke-linejoin: miter; stroke-linecap: square"/>
   </g>
   <g id="patch_6">
    <path d="M 72 51.84 
L 518.4 51.84 
" style="fill: none; stroke: #000000; stroke-width: 0.8; stroke-linejoin: miter; stroke-linecap: square"/>
   </g>
   <g id="text_16">
    <!-- Basic-Common -->
    <g transform="translate(250.126875 45.84) scale(0.12 -0.12)">
     <defs>
      <path id="DejaVuSans-42" d="M 1259 2228 
L 1259 519 
L 2272 519 
Q 2781 519 3026 730 
Q 3272 941 3272 1375 
Q 3272 1813 3026 2020 
Q 2781 2228 2272 2228 
L 1259 2228 
z
M 1259 4147 
L 1259 2741 
L 2194 2741 
Q 2656 2741 2882 2914 
Q 3109 3088 3109 3444 
Q 3109 3797 2882 3972 
Q 2656 4147 2194 4147 
L 1259 4147 
z
M 628 4666 
L 2241 4666 
Q 2963 4666 3353 4366 
Q 3744 4066 3744 3513 
Q 3744 3084 3544 2831 
Q 3344 2578 2956 2516 
Q 3422 2416 3680 2098 
Q 3938 1781 3938 1306 
Q 3938 681 3513 340 
Q 3088 0 2303 0 
L 628 0 
L 628 4666 
z
" transform="scale(0.015625)"/>
      <path id="DejaVuSans-2d" d="M 313 2009 
L 1997 2009 
L 1997 1497 
L 313 1497 
L 313 2009 
z
" transform="scale(0.015625)"/>
     </defs>
     <use xlink:href="#DejaVuSans-42"/>
     <use xlink:href="#DejaVuSans-61" x="68.603516"/>
     <use xlink:href="#DejaVuSans-73" x="129.882812"/>
     <use xlink:href="#DejaVuSans-69" x="181.982422"/>
     <use xlink:href="#DejaVuSans-63" x="209.765625"/>
     <use xlink:href="#DejaVuSans-2d" x="264.746094"/>
     <use xlink:href="#DejaVuSans-43" x="300.830078"/>
     <use xlink:href="#DejaVuSans-6f" x="370.654297"/>
     <use xlink:href="#DejaVuSans-6d" x="431.835938"/>
     <use xlink:href="#DejaVuSans-6d" x="529.248047"/>
     <use xlink:href="#DejaVuSans-6f" x="626.660156"/>
     <use xlink:href="#DejaVuSans-6e" x="687.841797"/>
    </g>
   </g>
   <g id="legend_1">
    <g id="patch_7">
     <path d="M 79 118.5525 
L 124.203125 118.5525 
Q 126.203125 118.5525 126.203125 116.5525 
L 126.203125 58.84 
Q 126.203125 56.84 124.203125 56.84 
L 79 56.84 
Q 77 56.84 77 58.84 
L 77 116.5525 
Q 77 118.5525 79 118.5525 
z
" style="fill: #ffffff; opacity: 0.8; stroke: #cccccc; stroke-linejoin: miter"/>
    </g>
    <g id="line2d_31">
     <path d="M 81 64.938438 
L 91 64.938438 
L 101 64.938438 
" style="fill: none; stroke: #1f77b4; stroke-width: 1.5; stroke-linecap: square"/>
    </g>
    <g id="text_17">
     <!-- V1 -->
     <g transform="translate(109 68.438438) scale(0.1 -0.1)">
      <defs>
       <path id="DejaVuSans-56" d="M 1831 0 
L 50 4666 
L 709 4666 
L 2188 738 
L 3669 4666 
L 4325 4666 
L 2547 0 
L 1831 0 
z
" transform="scale(0.015625)"/>
      </defs>
      <use xlink:href="#DejaVuSans-56"/>
      <use xlink:href="#DejaVuSans-31" x="68.408203"/>
     </g>
    </g>
    <g id="line2d_32">
     <path d="M 81 79.616563 
L 91 79.616563 
L 101 79.616563 
" style="fill: none; stroke: #ff7f0e; stroke-width: 1.5; stroke-linecap: square"/>
    </g>
    <g id="text_18">
     <!-- V2 -->
     <g transform="translate(109 83.116563) scale(0.1 -0.1)">
      <use xlink:href="#DejaVuSans-56"/>
      <use xlink:href="#DejaVuSans-32" x="68.408203"/>
     </g>
    </g>
    <g id="line2d_33">
     <path d="M 81 94.294688 
L 91 94.294688 
L 101 94.294688 
" style="fill: none; stroke: #2ca02c; stroke-width: 1.5; stroke-linecap: square"/>
    </g>
    <g id="text_19">
     <!-- V3 -->
     <g transform="translate(109 97.794688) scale(0.1 -0.1)">
      <defs>
       <path id="DejaVuSans-33" d="M 2597 2516 
Q 3050 2419 3304 2112 
Q 3559 1806 3559 1356 
Q 3559 666 3084 287 
Q 2609 -91 1734 -91 
Q 1441 -91 1130 -33 
Q 819 25 488 141 
L 488 750 
Q 750 597 1062 519 
Q 1375 441 1716 441 
Q 2309 441 2620 675 
Q 2931 909 2931 1356 
Q 2931 1769 2642 2001 
Q 2353 2234 1838 2234 
L 1294 2234 
L 1294 2753 
L 1863 2753 
Q 2328 2753 2575 2939 
Q 2822 3125 2822 3475 
Q 2822 3834 2567 4026 
Q 2313 4219 1838 4219 
Q 1578 4219 1281 4162 
Q 984 4106 628 3988 
L 628 4550 
Q 988 4650 1302 4700 
Q 1616 4750 1894 4750 
Q 2613 4750 3031 4423 
Q 3450 4097 3450 3541 
Q 3450 3153 3228 2886 
Q 3006 2619 2597 2516 
z
" transform="scale(0.015625)"/>
      </defs>
      <use xlink:href="#DejaVuSans-56"/>
      <use xlink:href="#DejaVuSans-33" x="68.408203"/>
     </g>
    </g>
    <g id="line2d_34">
     <path d="M 81 108.972813 
L 91 108.972813 
L 101 108.972813 
" style="fill: none; stroke: #d62728; stroke-width: 1.5; stroke-linecap: square"/>
    </g>
    <g id="text_20">
     <!-- V4 -->
     <g transform="translate(109 112.472813) scale(0.1 -0.1)">
      <use xlink:href="#DejaVuSans-56"/>
      <use xlink:href="#DejaVuSans-34" x="68.408203"/>
     </g>
    </g>
   </g>
  </g>
 </g>
 <defs>
  <clipPath id="pcfd7c9363d">
   <rect x="72" y="51.84" width="446.4" height="332.64"/>
  </clipPath>
 </defs>
</svg>
