<?xml version="1.0" encoding="utf-8" standalone="no"?>
<!DOCTYPE svg PUBLIC "-//W3C//DTD SVG 1.1//EN"
  "http://www.w3.org/Graphics/SVG/1.1/DTD/svg11.dtd">
<svg xmlns:xlink="http://www.w3.org/1999/xlink" width="576pt" height="432pt" viewBox="0 0 576 432" xmlns="http://www.w3.org/2000/svg" version="1.1">
 <metadata>
  <rdf:RDF xmlns:dc="http://purl.org/dc/elements/1.1/" xmlns:cc="http://creativecommons.org/ns#" xmlns:rdf="http://www.w3.org/1999/02/22-rdf-syntax-ns#">
   <cc:Work>
    <dc:type rdf:resource="http://purl.org/dc/dcmitype/StillImage"/>
    <dc:date>2023-08-07T17:52:09.754644</dc:date>
    <dc:format>image/svg+xml</dc:format>
    <dc:creator>
     <cc:Agent>
      <dc:title>Matplotlib v3.5.2, https://matplotlib.org/</dc:title>
     </cc:Agent>
    </dc:creator>
   </cc:Work>
  </rdf:RDF>
 </metadata>
 <defs>
  <style type="text/css">*{stroke-linejoin: round; stroke-linecap: butt}</style>
 </defs>
 <g id="figure_1">
  <g id="patch_1">
   <path d="M 0 432 
L 576 432 
L 576 0 
L 0 0 
z
" style="fill: #ffffff"/>
  </g>
  <g id="axes_1">
   <g id="patch_2">
    <path d="M 72 384.48 
L 518.4 384.48 
L 518.4 51.84 
L 72 51.84 
z
" style="fill: #ffffff"/>
   </g>
   <g id="matplotlib.axis_1">
    <g id="xtick_1">
     <g id="line2d_1">
      <path d="M 92.290909 384.48 
L 92.290909 51.84 
" clip-path="url(#pa512e2ca19)" style="fill: none; stroke: #b0b0b0; stroke-opacity: 0.5; stroke-width: 0.8; stroke-linecap: square"/>
     </g>
     <g id="line2d_2">
      <defs>
       <path id="me8d5ec5c6b" d="M 0 0 
L 0 3.5 
" style="stroke: #000000; stroke-width: 0.8"/>
      </defs>
      <g>
       <use xlink:href="#me8d5ec5c6b" x="92.290909" y="384.48" style="stroke: #000000; stroke-width: 0.8"/>
      </g>
     </g>
     <g id="text_1">
      <!-- 0 -->
      <g transform="translate(89.109659 399.078438)scale(0.1 -0.1)">
       <defs>
        <path id="DejaVuSans-30" d="M 2034 4250 
Q 1547 4250 1301 3770 
Q 1056 3291 1056 2328 
Q 1056 1369 1301 889 
Q 1547 409 2034 409 
Q 2525 409 2770 889 
Q 3016 1369 3016 2328 
Q 3016 3291 2770 3770 
Q 2525 4250 2034 4250 
z
M 2034 4750 
Q 2819 4750 3233 4129 
Q 3647 3509 3647 2328 
Q 3647 1150 3233 529 
Q 2819 -91 2034 -91 
Q 1250 -91 836 529 
Q 422 1150 422 2328 
Q 422 3509 836 4129 
Q 1250 4750 2034 4750 
z
" transform="scale(0.015625)"/>
       </defs>
       <use xlink:href="#DejaVuSans-30"/>
      </g>
     </g>
    </g>
    <g id="xtick_2">
     <g id="line2d_3">
      <path d="M 173.454545 384.48 
L 173.454545 51.84 
" clip-path="url(#pa512e2ca19)" style="fill: none; stroke: #b0b0b0; stroke-opacity: 0.5; stroke-width: 0.8; stroke-linecap: square"/>
     </g>
     <g id="line2d_4">
      <g>
       <use xlink:href="#me8d5ec5c6b" x="173.454545" y="384.48" style="stroke: #000000; stroke-width: 0.8"/>
      </g>
     </g>
     <g id="text_2">
      <!-- 50 -->
      <g transform="translate(167.092045 399.078438)scale(0.1 -0.1)">
       <defs>
        <path id="DejaVuSans-35" d="M 691 4666 
L 3169 4666 
L 3169 4134 
L 1269 4134 
L 1269 2991 
Q 1406 3038 1543 3061 
Q 1681 3084 1819 3084 
Q 2600 3084 3056 2656 
Q 3513 2228 3513 1497 
Q 3513 744 3044 326 
Q 2575 -91 1722 -91 
Q 1428 -91 1123 -41 
Q 819 9 494 109 
L 494 744 
Q 775 591 1075 516 
Q 1375 441 1709 441 
Q 2250 441 2565 725 
Q 2881 1009 2881 1497 
Q 2881 1984 2565 2268 
Q 2250 2553 1709 2553 
Q 1456 2553 1204 2497 
Q 953 2441 691 2322 
L 691 4666 
z
" transform="scale(0.015625)"/>
       </defs>
       <use xlink:href="#DejaVuSans-35"/>
       <use xlink:href="#DejaVuSans-30" x="63.623047"/>
      </g>
     </g>
    </g>
    <g id="xtick_3">
     <g id="line2d_5">
      <path d="M 254.618182 384.48 
L 254.618182 51.84 
" clip-path="url(#pa512e2ca19)" style="fill: none; stroke: #b0b0b0; stroke-opacity: 0.5; stroke-width: 0.8; stroke-linecap: square"/>
     </g>
     <g id="line2d_6">
      <g>
       <use xlink:href="#me8d5ec5c6b" x="254.618182" y="384.48" style="stroke: #000000; stroke-width: 0.8"/>
      </g>
     </g>
     <g id="text_3">
      <!-- 100 -->
      <g transform="translate(245.074432 399.078438)scale(0.1 -0.1)">
       <defs>
        <path id="DejaVuSans-31" d="M 794 531 
L 1825 531 
L 1825 4091 
L 703 3866 
L 703 4441 
L 1819 4666 
L 2450 4666 
L 2450 531 
L 3481 531 
L 3481 0 
L 794 0 
L 794 531 
z
" transform="scale(0.015625)"/>
       </defs>
       <use xlink:href="#DejaVuSans-31"/>
       <use xlink:href="#DejaVuSans-30" x="63.623047"/>
       <use xlink:href="#DejaVuSans-30" x="127.246094"/>
      </g>
     </g>
    </g>
    <g id="xtick_4">
     <g id="line2d_7">
      <path d="M 335.781818 384.48 
L 335.781818 51.84 
" clip-path="url(#pa512e2ca19)" style="fill: none; stroke: #b0b0b0; stroke-opacity: 0.5; stroke-width: 0.8; stroke-linecap: square"/>
     </g>
     <g id="line2d_8">
      <g>
       <use xlink:href="#me8d5ec5c6b" x="335.781818" y="384.48" style="stroke: #000000; stroke-width: 0.8"/>
      </g>
     </g>
     <g id="text_4">
      <!-- 150 -->
      <g transform="translate(326.238068 399.078438)scale(0.1 -0.1)">
       <use xlink:href="#DejaVuSans-31"/>
       <use xlink:href="#DejaVuSans-35" x="63.623047"/>
       <use xlink:href="#DejaVuSans-30" x="127.246094"/>
      </g>
     </g>
    </g>
    <g id="xtick_5">
     <g id="line2d_9">
      <path d="M 416.945455 384.48 
L 416.945455 51.84 
" clip-path="url(#pa512e2ca19)" style="fill: none; stroke: #b0b0b0; stroke-opacity: 0.5; stroke-width: 0.8; stroke-linecap: square"/>
     </g>
     <g id="line2d_10">
      <g>
       <use xlink:href="#me8d5ec5c6b" x="416.945455" y="384.48" style="stroke: #000000; stroke-width: 0.8"/>
      </g>
     </g>
     <g id="text_5">
      <!-- 200 -->
      <g transform="translate(407.401705 399.078438)scale(0.1 -0.1)">
       <defs>
        <path id="DejaVuSans-32" d="M 1228 531 
L 3431 531 
L 3431 0 
L 469 0 
L 469 531 
Q 828 903 1448 1529 
Q 2069 2156 2228 2338 
Q 2531 2678 2651 2914 
Q 2772 3150 2772 3378 
Q 2772 3750 2511 3984 
Q 2250 4219 1831 4219 
Q 1534 4219 1204 4116 
Q 875 4013 500 3803 
L 500 4441 
Q 881 4594 1212 4672 
Q 1544 4750 1819 4750 
Q 2544 4750 2975 4387 
Q 3406 4025 3406 3419 
Q 3406 3131 3298 2873 
Q 3191 2616 2906 2266 
Q 2828 2175 2409 1742 
Q 1991 1309 1228 531 
z
" transform="scale(0.015625)"/>
       </defs>
       <use xlink:href="#DejaVuSans-32"/>
       <use xlink:href="#DejaVuSans-30" x="63.623047"/>
       <use xlink:href="#DejaVuSans-30" x="127.246094"/>
      </g>
     </g>
    </g>
    <g id="xtick_6">
     <g id="line2d_11">
      <path d="M 498.109091 384.48 
L 498.109091 51.84 
" clip-path="url(#pa512e2ca19)" style="fill: none; stroke: #b0b0b0; stroke-opacity: 0.5; stroke-width: 0.8; stroke-linecap: square"/>
     </g>
     <g id="line2d_12">
      <g>
       <use xlink:href="#me8d5ec5c6b" x="498.109091" y="384.48" style="stroke: #000000; stroke-width: 0.8"/>
      </g>
     </g>
     <g id="text_6">
      <!-- 250 -->
      <g transform="translate(488.565341 399.078438)scale(0.1 -0.1)">
       <use xlink:href="#DejaVuSans-32"/>
       <use xlink:href="#DejaVuSans-35" x="63.623047"/>
       <use xlink:href="#DejaVuSans-30" x="127.246094"/>
      </g>
     </g>
    </g>
    <g id="text_7">
     <!-- Communication rounds -->
     <g transform="translate(237.083594 412.756563)scale(0.1 -0.1)">
      <defs>
       <path id="DejaVuSans-43" d="M 4122 4306 
L 4122 3641 
Q 3803 3938 3442 4084 
Q 3081 4231 2675 4231 
Q 1875 4231 1450 3742 
Q 1025 3253 1025 2328 
Q 1025 1406 1450 917 
Q 1875 428 2675 428 
Q 3081 428 3442 575 
Q 3803 722 4122 1019 
L 4122 359 
Q 3791 134 3420 21 
Q 3050 -91 2638 -91 
Q 1578 -91 968 557 
Q 359 1206 359 2328 
Q 359 3453 968 4101 
Q 1578 4750 2638 4750 
Q 3056 4750 3426 4639 
Q 3797 4528 4122 4306 
z
" transform="scale(0.015625)"/>
       <path id="DejaVuSans-6f" d="M 1959 3097 
Q 1497 3097 1228 2736 
Q 959 2375 959 1747 
Q 959 1119 1226 758 
Q 1494 397 1959 397 
Q 2419 397 2687 759 
Q 2956 1122 2956 1747 
Q 2956 2369 2687 2733 
Q 2419 3097 1959 3097 
z
M 1959 3584 
Q 2709 3584 3137 3096 
Q 3566 2609 3566 1747 
Q 3566 888 3137 398 
Q 2709 -91 1959 -91 
Q 1206 -91 779 398 
Q 353 888 353 1747 
Q 353 2609 779 3096 
Q 1206 3584 1959 3584 
z
" transform="scale(0.015625)"/>
       <path id="DejaVuSans-6d" d="M 3328 2828 
Q 3544 3216 3844 3400 
Q 4144 3584 4550 3584 
Q 5097 3584 5394 3201 
Q 5691 2819 5691 2113 
L 5691 0 
L 5113 0 
L 5113 2094 
Q 5113 2597 4934 2840 
Q 4756 3084 4391 3084 
Q 3944 3084 3684 2787 
Q 3425 2491 3425 1978 
L 3425 0 
L 2847 0 
L 2847 2094 
Q 2847 2600 2669 2842 
Q 2491 3084 2119 3084 
Q 1678 3084 1418 2786 
Q 1159 2488 1159 1978 
L 1159 0 
L 581 0 
L 581 3500 
L 1159 3500 
L 1159 2956 
Q 1356 3278 1631 3431 
Q 1906 3584 2284 3584 
Q 2666 3584 2933 3390 
Q 3200 3197 3328 2828 
z
" transform="scale(0.015625)"/>
       <path id="DejaVuSans-75" d="M 544 1381 
L 544 3500 
L 1119 3500 
L 1119 1403 
Q 1119 906 1312 657 
Q 1506 409 1894 409 
Q 2359 409 2629 706 
Q 2900 1003 2900 1516 
L 2900 3500 
L 3475 3500 
L 3475 0 
L 2900 0 
L 2900 538 
Q 2691 219 2414 64 
Q 2138 -91 1772 -91 
Q 1169 -91 856 284 
Q 544 659 544 1381 
z
M 1991 3584 
L 1991 3584 
z
" transform="scale(0.015625)"/>
       <path id="DejaVuSans-6e" d="M 3513 2113 
L 3513 0 
L 2938 0 
L 2938 2094 
Q 2938 2591 2744 2837 
Q 2550 3084 2163 3084 
Q 1697 3084 1428 2787 
Q 1159 2491 1159 1978 
L 1159 0 
L 581 0 
L 581 3500 
L 1159 3500 
L 1159 2956 
Q 1366 3272 1645 3428 
Q 1925 3584 2291 3584 
Q 2894 3584 3203 3211 
Q 3513 2838 3513 2113 
z
" transform="scale(0.015625)"/>
       <path id="DejaVuSans-69" d="M 603 3500 
L 1178 3500 
L 1178 0 
L 603 0 
L 603 3500 
z
M 603 4863 
L 1178 4863 
L 1178 4134 
L 603 4134 
L 603 4863 
z
" transform="scale(0.015625)"/>
       <path id="DejaVuSans-63" d="M 3122 3366 
L 3122 2828 
Q 2878 2963 2633 3030 
Q 2388 3097 2138 3097 
Q 1578 3097 1268 2742 
Q 959 2388 959 1747 
Q 959 1106 1268 751 
Q 1578 397 2138 397 
Q 2388 397 2633 464 
Q 2878 531 3122 666 
L 3122 134 
Q 2881 22 2623 -34 
Q 2366 -91 2075 -91 
Q 1284 -91 818 406 
Q 353 903 353 1747 
Q 353 2603 823 3093 
Q 1294 3584 2113 3584 
Q 2378 3584 2631 3529 
Q 2884 3475 3122 3366 
z
" transform="scale(0.015625)"/>
       <path id="DejaVuSans-61" d="M 2194 1759 
Q 1497 1759 1228 1600 
Q 959 1441 959 1056 
Q 959 750 1161 570 
Q 1363 391 1709 391 
Q 2188 391 2477 730 
Q 2766 1069 2766 1631 
L 2766 1759 
L 2194 1759 
z
M 3341 1997 
L 3341 0 
L 2766 0 
L 2766 531 
Q 2569 213 2275 61 
Q 1981 -91 1556 -91 
Q 1019 -91 701 211 
Q 384 513 384 1019 
Q 384 1609 779 1909 
Q 1175 2209 1959 2209 
L 2766 2209 
L 2766 2266 
Q 2766 2663 2505 2880 
Q 2244 3097 1772 3097 
Q 1472 3097 1187 3025 
Q 903 2953 641 2809 
L 641 3341 
Q 956 3463 1253 3523 
Q 1550 3584 1831 3584 
Q 2591 3584 2966 3190 
Q 3341 2797 3341 1997 
z
" transform="scale(0.015625)"/>
       <path id="DejaVuSans-74" d="M 1172 4494 
L 1172 3500 
L 2356 3500 
L 2356 3053 
L 1172 3053 
L 1172 1153 
Q 1172 725 1289 603 
Q 1406 481 1766 481 
L 2356 481 
L 2356 0 
L 1766 0 
Q 1100 0 847 248 
Q 594 497 594 1153 
L 594 3053 
L 172 3053 
L 172 3500 
L 594 3500 
L 594 4494 
L 1172 4494 
z
" transform="scale(0.015625)"/>
       <path id="DejaVuSans-20" transform="scale(0.015625)"/>
       <path id="DejaVuSans-72" d="M 2631 2963 
Q 2534 3019 2420 3045 
Q 2306 3072 2169 3072 
Q 1681 3072 1420 2755 
Q 1159 2438 1159 1844 
L 1159 0 
L 581 0 
L 581 3500 
L 1159 3500 
L 1159 2956 
Q 1341 3275 1631 3429 
Q 1922 3584 2338 3584 
Q 2397 3584 2469 3576 
Q 2541 3569 2628 3553 
L 2631 2963 
z
" transform="scale(0.015625)"/>
       <path id="DejaVuSans-64" d="M 2906 2969 
L 2906 4863 
L 3481 4863 
L 3481 0 
L 2906 0 
L 2906 525 
Q 2725 213 2448 61 
Q 2172 -91 1784 -91 
Q 1150 -91 751 415 
Q 353 922 353 1747 
Q 353 2572 751 3078 
Q 1150 3584 1784 3584 
Q 2172 3584 2448 3432 
Q 2725 3281 2906 2969 
z
M 947 1747 
Q 947 1113 1208 752 
Q 1469 391 1925 391 
Q 2381 391 2643 752 
Q 2906 1113 2906 1747 
Q 2906 2381 2643 2742 
Q 2381 3103 1925 3103 
Q 1469 3103 1208 2742 
Q 947 2381 947 1747 
z
" transform="scale(0.015625)"/>
       <path id="DejaVuSans-73" d="M 2834 3397 
L 2834 2853 
Q 2591 2978 2328 3040 
Q 2066 3103 1784 3103 
Q 1356 3103 1142 2972 
Q 928 2841 928 2578 
Q 928 2378 1081 2264 
Q 1234 2150 1697 2047 
L 1894 2003 
Q 2506 1872 2764 1633 
Q 3022 1394 3022 966 
Q 3022 478 2636 193 
Q 2250 -91 1575 -91 
Q 1294 -91 989 -36 
Q 684 19 347 128 
L 347 722 
Q 666 556 975 473 
Q 1284 391 1588 391 
Q 1994 391 2212 530 
Q 2431 669 2431 922 
Q 2431 1156 2273 1281 
Q 2116 1406 1581 1522 
L 1381 1569 
Q 847 1681 609 1914 
Q 372 2147 372 2553 
Q 372 3047 722 3315 
Q 1072 3584 1716 3584 
Q 2034 3584 2315 3537 
Q 2597 3491 2834 3397 
z
" transform="scale(0.015625)"/>
      </defs>
      <use xlink:href="#DejaVuSans-43"/>
      <use xlink:href="#DejaVuSans-6f" x="69.824219"/>
      <use xlink:href="#DejaVuSans-6d" x="131.005859"/>
      <use xlink:href="#DejaVuSans-6d" x="228.417969"/>
      <use xlink:href="#DejaVuSans-75" x="325.830078"/>
      <use xlink:href="#DejaVuSans-6e" x="389.208984"/>
      <use xlink:href="#DejaVuSans-69" x="452.587891"/>
      <use xlink:href="#DejaVuSans-63" x="480.371094"/>
      <use xlink:href="#DejaVuSans-61" x="535.351562"/>
      <use xlink:href="#DejaVuSans-74" x="596.630859"/>
      <use xlink:href="#DejaVuSans-69" x="635.839844"/>
      <use xlink:href="#DejaVuSans-6f" x="663.623047"/>
      <use xlink:href="#DejaVuSans-6e" x="724.804688"/>
      <use xlink:href="#DejaVuSans-20" x="788.183594"/>
      <use xlink:href="#DejaVuSans-72" x="819.970703"/>
      <use xlink:href="#DejaVuSans-6f" x="858.833984"/>
      <use xlink:href="#DejaVuSans-75" x="920.015625"/>
      <use xlink:href="#DejaVuSans-6e" x="983.394531"/>
      <use xlink:href="#DejaVuSans-64" x="1046.773438"/>
      <use xlink:href="#DejaVuSans-73" x="1110.25"/>
     </g>
    </g>
   </g>
   <g id="matplotlib.axis_2">
    <g id="ytick_1">
     <g id="line2d_13">
      <path d="M 72 381.821732 
L 518.4 381.821732 
" clip-path="url(#pa512e2ca19)" style="fill: none; stroke: #b0b0b0; stroke-opacity: 0.5; stroke-width: 0.8; stroke-linecap: square"/>
     </g>
     <g id="line2d_14">
      <defs>
       <path id="m09c8c78293" d="M 0 0 
L -3.5 0 
" style="stroke: #000000; stroke-width: 0.8"/>
      </defs>
      <g>
       <use xlink:href="#m09c8c78293" x="72" y="381.821732" style="stroke: #000000; stroke-width: 0.8"/>
      </g>
     </g>
     <g id="text_8">
      <!-- 0.0 -->
      <g transform="translate(49.096875 385.620951)scale(0.1 -0.1)">
       <defs>
        <path id="DejaVuSans-2e" d="M 684 794 
L 1344 794 
L 1344 0 
L 684 0 
L 684 794 
z
" transform="scale(0.015625)"/>
       </defs>
       <use xlink:href="#DejaVuSans-30"/>
       <use xlink:href="#DejaVuSans-2e" x="63.623047"/>
       <use xlink:href="#DejaVuSans-30" x="95.410156"/>
      </g>
     </g>
    </g>
    <g id="ytick_2">
     <g id="line2d_15">
      <path d="M 72 311.217016 
L 518.4 311.217016 
" clip-path="url(#pa512e2ca19)" style="fill: none; stroke: #b0b0b0; stroke-opacity: 0.5; stroke-width: 0.8; stroke-linecap: square"/>
     </g>
     <g id="line2d_16">
      <g>
       <use xlink:href="#m09c8c78293" x="72" y="311.217016" style="stroke: #000000; stroke-width: 0.8"/>
      </g>
     </g>
     <g id="text_9">
      <!-- 0.2 -->
      <g transform="translate(49.096875 315.016235)scale(0.1 -0.1)">
       <use xlink:href="#DejaVuSans-30"/>
       <use xlink:href="#DejaVuSans-2e" x="63.623047"/>
       <use xlink:href="#DejaVuSans-32" x="95.410156"/>
      </g>
     </g>
    </g>
    <g id="ytick_3">
     <g id="line2d_17">
      <path d="M 72 240.6123 
L 518.4 240.6123 
" clip-path="url(#pa512e2ca19)" style="fill: none; stroke: #b0b0b0; stroke-opacity: 0.5; stroke-width: 0.8; stroke-linecap: square"/>
     </g>
     <g id="line2d_18">
      <g>
       <use xlink:href="#m09c8c78293" x="72" y="240.6123" style="stroke: #000000; stroke-width: 0.8"/>
      </g>
     </g>
     <g id="text_10">
      <!-- 0.4 -->
      <g transform="translate(49.096875 244.411519)scale(0.1 -0.1)">
       <defs>
        <path id="DejaVuSans-34" d="M 2419 4116 
L 825 1625 
L 2419 1625 
L 2419 4116 
z
M 2253 4666 
L 3047 4666 
L 3047 1625 
L 3713 1625 
L 3713 1100 
L 3047 1100 
L 3047 0 
L 2419 0 
L 2419 1100 
L 313 1100 
L 313 1709 
L 2253 4666 
z
" transform="scale(0.015625)"/>
       </defs>
       <use xlink:href="#DejaVuSans-30"/>
       <use xlink:href="#DejaVuSans-2e" x="63.623047"/>
       <use xlink:href="#DejaVuSans-34" x="95.410156"/>
      </g>
     </g>
    </g>
    <g id="ytick_4">
     <g id="line2d_19">
      <path d="M 72 170.007583 
L 518.4 170.007583 
" clip-path="url(#pa512e2ca19)" style="fill: none; stroke: #b0b0b0; stroke-opacity: 0.5; stroke-width: 0.8; stroke-linecap: square"/>
     </g>
     <g id="line2d_20">
      <g>
       <use xlink:href="#m09c8c78293" x="72" y="170.007583" style="stroke: #000000; stroke-width: 0.8"/>
      </g>
     </g>
     <g id="text_11">
      <!-- 0.6 -->
      <g transform="translate(49.096875 173.806802)scale(0.1 -0.1)">
       <defs>
        <path id="DejaVuSans-36" d="M 2113 2584 
Q 1688 2584 1439 2293 
Q 1191 2003 1191 1497 
Q 1191 994 1439 701 
Q 1688 409 2113 409 
Q 2538 409 2786 701 
Q 3034 994 3034 1497 
Q 3034 2003 2786 2293 
Q 2538 2584 2113 2584 
z
M 3366 4563 
L 3366 3988 
Q 3128 4100 2886 4159 
Q 2644 4219 2406 4219 
Q 1781 4219 1451 3797 
Q 1122 3375 1075 2522 
Q 1259 2794 1537 2939 
Q 1816 3084 2150 3084 
Q 2853 3084 3261 2657 
Q 3669 2231 3669 1497 
Q 3669 778 3244 343 
Q 2819 -91 2113 -91 
Q 1303 -91 875 529 
Q 447 1150 447 2328 
Q 447 3434 972 4092 
Q 1497 4750 2381 4750 
Q 2619 4750 2861 4703 
Q 3103 4656 3366 4563 
z
" transform="scale(0.015625)"/>
       </defs>
       <use xlink:href="#DejaVuSans-30"/>
       <use xlink:href="#DejaVuSans-2e" x="63.623047"/>
       <use xlink:href="#DejaVuSans-36" x="95.410156"/>
      </g>
     </g>
    </g>
    <g id="ytick_5">
     <g id="line2d_21">
      <path d="M 72 99.402867 
L 518.4 99.402867 
" clip-path="url(#pa512e2ca19)" style="fill: none; stroke: #b0b0b0; stroke-opacity: 0.5; stroke-width: 0.8; stroke-linecap: square"/>
     </g>
     <g id="line2d_22">
      <g>
       <use xlink:href="#m09c8c78293" x="72" y="99.402867" style="stroke: #000000; stroke-width: 0.8"/>
      </g>
     </g>
     <g id="text_12">
      <!-- 0.8 -->
      <g transform="translate(49.096875 103.202086)scale(0.1 -0.1)">
       <defs>
        <path id="DejaVuSans-38" d="M 2034 2216 
Q 1584 2216 1326 1975 
Q 1069 1734 1069 1313 
Q 1069 891 1326 650 
Q 1584 409 2034 409 
Q 2484 409 2743 651 
Q 3003 894 3003 1313 
Q 3003 1734 2745 1975 
Q 2488 2216 2034 2216 
z
M 1403 2484 
Q 997 2584 770 2862 
Q 544 3141 544 3541 
Q 544 4100 942 4425 
Q 1341 4750 2034 4750 
Q 2731 4750 3128 4425 
Q 3525 4100 3525 3541 
Q 3525 3141 3298 2862 
Q 3072 2584 2669 2484 
Q 3125 2378 3379 2068 
Q 3634 1759 3634 1313 
Q 3634 634 3220 271 
Q 2806 -91 2034 -91 
Q 1263 -91 848 271 
Q 434 634 434 1313 
Q 434 1759 690 2068 
Q 947 2378 1403 2484 
z
M 1172 3481 
Q 1172 3119 1398 2916 
Q 1625 2713 2034 2713 
Q 2441 2713 2670 2916 
Q 2900 3119 2900 3481 
Q 2900 3844 2670 4047 
Q 2441 4250 2034 4250 
Q 1625 4250 1398 4047 
Q 1172 3844 1172 3481 
z
" transform="scale(0.015625)"/>
       </defs>
       <use xlink:href="#DejaVuSans-30"/>
       <use xlink:href="#DejaVuSans-2e" x="63.623047"/>
       <use xlink:href="#DejaVuSans-38" x="95.410156"/>
      </g>
     </g>
    </g>
    <g id="text_13">
     <!-- Accuracy -->
     <g transform="translate(43.017187 240.988125)rotate(-90)scale(0.1 -0.1)">
      <defs>
       <path id="DejaVuSans-41" d="M 2188 4044 
L 1331 1722 
L 3047 1722 
L 2188 4044 
z
M 1831 4666 
L 2547 4666 
L 4325 0 
L 3669 0 
L 3244 1197 
L 1141 1197 
L 716 0 
L 50 0 
L 1831 4666 
z
" transform="scale(0.015625)"/>
       <path id="DejaVuSans-79" d="M 2059 -325 
Q 1816 -950 1584 -1140 
Q 1353 -1331 966 -1331 
L 506 -1331 
L 506 -850 
L 844 -850 
Q 1081 -850 1212 -737 
Q 1344 -625 1503 -206 
L 1606 56 
L 191 3500 
L 800 3500 
L 1894 763 
L 2988 3500 
L 3597 3500 
L 2059 -325 
z
" transform="scale(0.015625)"/>
      </defs>
      <use xlink:href="#DejaVuSans-41"/>
      <use xlink:href="#DejaVuSans-63" x="66.658203"/>
      <use xlink:href="#DejaVuSans-63" x="121.638672"/>
      <use xlink:href="#DejaVuSans-75" x="176.619141"/>
      <use xlink:href="#DejaVuSans-72" x="239.998047"/>
      <use xlink:href="#DejaVuSans-61" x="281.111328"/>
      <use xlink:href="#DejaVuSans-63" x="342.390625"/>
      <use xlink:href="#DejaVuSans-79" x="397.371094"/>
     </g>
    </g>
   </g>
   <g id="line2d_23">
    <path d="M 92.290909 365.229624 
L 93.914182 362.829064 
L 95.537455 365.688555 
L 97.160727 356.968872 
L 98.784 351.038076 
L 100.407273 358.063245 
L 102.030545 349.308261 
L 103.653818 341.471137 
L 105.277091 342.141882 
L 106.900364 341.259323 
L 108.523636 334.693084 
L 110.146909 334.940201 
L 111.770182 324.879029 
L 113.393455 326.644147 
L 115.016727 318.559907 
L 116.64 315.488601 
L 118.263273 312.664413 
L 119.886545 300.873425 
L 121.509818 303.697614 
L 123.133091 298.472865 
L 124.756364 284.316619 
L 126.379636 288.658809 
L 128.002909 282.127873 
L 129.626182 267.689208 
L 131.249455 268.571767 
L 132.872727 260.063899 
L 134.496 254.627336 
L 136.119273 270.5487 
L 137.742545 250.920588 
L 139.365818 238.035228 
L 140.989091 238.247042 
L 142.612364 233.022293 
L 144.235636 237.611599 
L 145.858909 236.27011 
L 147.482182 246.578398 
L 149.105455 217.065627 
L 150.728727 200.04989 
L 152.352 218.407117 
L 153.975273 208.804875 
L 155.598545 205.521756 
L 157.221818 185.2229 
L 158.845091 189.176764 
L 160.468364 189.812206 
L 162.091636 195.284072 
L 163.714909 184.552155 
L 165.338182 164.500416 
L 166.961455 171.949213 
L 168.584727 161.676227 
L 170.208 179.574523 
L 171.831273 145.507747 
L 173.454545 150.767798 
L 175.077818 169.972281 
L 176.701091 190.90658 
L 179.947636 149.249797 
L 181.570909 136.57625 
L 183.194182 173.679029 
L 184.817455 137.91774 
L 186.440727 141.624488 
L 188.064 135.481877 
L 189.687273 151.862171 
L 191.310545 127.221125 
L 192.933818 133.540247 
L 194.557091 154.050918 
L 196.180364 146.425608 
L 197.803636 119.136885 
L 199.426909 131.563315 
L 201.050182 128.280196 
L 202.673455 127.644754 
L 204.296727 110.840831 
L 205.92 157.969479 
L 207.543273 124.361634 
L 209.166545 153.627289 
L 210.789818 169.089722 
L 212.413091 118.254326 
L 214.036364 139.85937 
L 215.659636 120.019444 
L 217.282909 106.710455 
L 218.906182 116.06558 
L 220.529455 118.713257 
L 222.152727 120.654887 
L 223.776 107.345898 
L 225.399273 110.381901 
L 227.022545 121.325632 
L 228.645818 100.567845 
L 230.269091 128.280196 
L 231.892364 111.052645 
L 233.515636 108.016643 
L 235.138909 130.257128 
L 236.762182 101.450404 
L 238.385455 100.567845 
L 240.008727 103.180219 
L 241.632 106.675153 
L 243.255273 113.029577 
L 244.878545 122.208191 
L 246.501818 104.698221 
L 248.125091 114.759393 
L 249.748364 95.55491 
L 251.371636 123.726192 
L 252.994909 99.508774 
L 254.618182 99.685286 
L 256.241455 102.332963 
L 257.864727 109.534644 
L 259.488 123.726192 
L 261.111273 98.626215 
L 262.734545 134.422806 
L 264.357818 99.685286 
L 265.981091 91.177418 
L 267.604364 96.861097 
L 269.227636 91.636348 
L 270.850909 92.271791 
L 272.474182 91.848163 
L 274.097455 93.825095 
L 275.720727 127.397637 
L 277.344 115.218324 
L 278.967273 102.121149 
L 280.590545 110.840831 
L 282.213818 108.016643 
L 283.837091 127.221125 
L 285.460364 103.003708 
L 287.083636 91.000906 
L 288.706909 96.013841 
L 290.330182 86.411599 
L 291.953455 141.624488 
L 293.576727 96.225655 
L 295.2 99.932403 
L 296.823273 100.603147 
L 298.446545 148.120121 
L 300.069818 87.505972 
L 301.693091 113.241392 
L 303.316364 96.190353 
L 304.939636 99.049844 
L 306.562909 108.016643 
L 308.186182 91.636348 
L 309.809455 83.12848 
L 311.432727 112.147018 
L 313.056 94.284025 
L 314.679273 93.15435 
L 316.302545 100.356031 
L 317.925818 101.23859 
L 319.549091 138.341368 
L 321.172364 98.626215 
L 322.795636 99.508774 
L 324.418909 92.942536 
L 326.042182 92.059977 
L 327.665455 84.222853 
L 329.288727 99.685286 
L 330.912 85.317226 
L 332.535273 86.623413 
L 334.158545 103.63915 
L 335.781818 91.000906 
L 337.405091 89.235788 
L 339.028364 86.623413 
L 340.651636 110.840831 
L 342.274909 78.962802 
L 343.898182 85.52904 
L 345.521455 97.531842 
L 347.144727 82.669549 
L 348.768 100.779659 
L 350.391273 87.047042 
L 352.014545 82.245921 
L 353.637818 92.483605 
L 355.261091 126.762195 
L 356.884364 77.903731 
L 358.507636 81.151548 
L 360.130909 81.822293 
L 361.754182 87.047042 
L 363.377455 79.174616 
L 365.000727 83.799225 
L 366.624 89.235788 
L 368.247273 77.021172 
L 369.870545 82.034107 
L 371.493818 80.480803 
L 373.117091 82.916666 
L 374.740364 84.858296 
L 376.363636 80.304291 
L 377.986909 96.225655 
L 379.610182 86.164483 
L 381.233455 97.531842 
L 382.856727 91.000906 
L 384.48 88.988671 
L 386.103273 80.480803 
L 387.726545 86.835228 
L 389.349818 83.799225 
L 390.973091 84.434667 
L 392.596364 77.021172 
L 394.219636 95.766724 
L 395.842909 104.309895 
L 397.466182 82.245921 
L 399.089455 91.424534 
L 400.712727 83.340294 
L 402.336 106.463339 
L 403.959273 99.29696 
L 405.582545 78.750988 
L 407.205818 83.12848 
L 408.829091 93.189652 
L 410.452364 83.799225 
L 412.075636 91.21272 
L 413.698909 93.577978 
L 415.322182 85.987971 
L 416.945455 88.353229 
L 418.568727 89.87123 
L 420.192 82.493038 
L 421.815273 88.81216 
L 423.438545 91.000906 
L 425.061818 90.118347 
L 426.685091 89.659416 
L 428.308364 84.011039 
L 429.931636 77.021172 
L 431.554909 82.281223 
L 433.178182 94.672351 
L 434.801455 97.95547 
L 436.424727 75.467868 
L 438.048 78.539173 
L 439.671273 78.327359 
L 441.294545 113.029577 
L 442.917818 80.939734 
L 444.541091 75.04424 
L 446.164364 94.036909 
L 447.787636 100.144217 
L 449.410909 82.457735 
L 451.034182 75.926799 
L 452.657455 81.610479 
L 454.280727 82.669549 
L 455.904 108.228457 
L 457.527273 82.881364 
L 459.150545 72.890796 
L 460.773818 87.929601 
L 462.397091 82.916666 
L 464.020364 74.832426 
L 465.643636 74.620612 
L 467.266909 77.021172 
L 468.890182 75.926799 
L 470.513455 123.055447 
L 472.136727 81.398664 
L 473.76 87.682484 
L 475.383273 81.822293 
L 477.006545 81.151548 
L 478.629818 81.398664 
L 480.253091 86.623413 
L 481.876364 90.330161 
L 483.499636 92.942536 
L 485.122909 85.105412 
L 486.746182 73.738053 
L 488.369455 78.327359 
L 489.992727 81.822293 
L 491.616 79.421732 
L 493.239273 74.620612 
L 494.862545 80.72792 
L 496.485818 77.903731 
L 498.109091 76.350427 
L 498.109091 76.350427 
" clip-path="url(#pa512e2ca19)" style="fill: none; stroke: #1f77b4; stroke-width: 1.5; stroke-linecap: square"/>
   </g>
   <g id="line2d_24">
    <path d="M 92.290909 369.36 
L 93.914182 356.509942 
L 95.537455 361.311062 
L 97.160727 359.122316 
L 98.784 353.050311 
L 100.407273 349.731889 
L 102.030545 346.9077 
L 103.653818 337.093645 
L 105.277091 338.82346 
L 106.900364 330.350894 
L 108.523636 324.631912 
L 110.146909 315.064973 
L 111.770182 310.475667 
L 113.393455 307.863292 
L 115.016727 284.740247 
L 116.64 275.138006 
L 118.263273 261.829017 
L 119.886545 259.428457 
L 121.509818 248.061097 
L 123.133091 246.119468 
L 124.756364 235.846481 
L 126.379636 224.514424 
L 128.002909 205.521756 
L 129.626182 202.450451 
L 131.249455 201.144263 
L 132.872727 219.925118 
L 134.496 183.704898 
L 136.119273 188.717833 
L 137.742545 181.516152 
L 139.365818 190.447649 
L 140.989091 221.231305 
L 142.612364 193.30714 
L 144.235636 163.406042 
L 145.858909 181.763269 
L 147.482182 149.885239 
L 149.105455 157.969479 
L 150.728727 183.952015 
L 152.352 161.676227 
L 153.975273 152.2858 
L 155.598545 159.063852 
L 157.221818 140.953743 
L 158.845091 152.956544 
L 160.468364 151.615055 
L 162.091636 143.566117 
L 163.714909 145.754863 
L 165.338182 138.764996 
L 166.961455 158.393108 
L 168.584727 133.081317 
L 170.208 129.586383 
L 171.831273 148.120121 
L 173.454545 123.902704 
L 175.077818 151.862171 
L 176.701091 125.456007 
L 178.324364 139.824067 
L 179.947636 162.7706 
L 181.570909 116.06558 
L 183.194182 120.654887 
L 184.817455 117.40707 
L 186.440727 113.453206 
L 188.064 114.971207 
L 189.687273 140.741929 
L 191.310545 133.752062 
L 192.933818 119.80763 
L 194.557091 116.06558 
L 196.180364 109.32283 
L 197.803636 108.652085 
L 199.426909 101.23859 
L 201.050182 111.264459 
L 202.673455 111.511576 
L 204.296727 112.570647 
L 205.92 104.698221 
L 209.166545 110.381901 
L 210.789818 117.159953 
L 212.413091 104.945337 
L 214.036364 105.368966 
L 215.659636 102.332963 
L 217.282909 111.052645 
L 218.906182 110.205389 
L 220.529455 94.919468 
L 222.152727 102.121149 
L 223.776 103.427336 
L 225.399273 99.508774 
L 227.022545 100.356031 
L 228.645818 132.869503 
L 230.269091 120.019444 
L 231.892364 105.368966 
L 233.515636 106.03971 
L 235.138909 126.762195 
L 236.762182 103.63915 
L 238.385455 93.825095 
L 240.008727 95.55491 
L 241.632 97.531842 
L 243.255273 103.392034 
L 244.878545 91.177418 
L 246.501818 88.353229 
L 248.125091 100.814961 
L 249.748364 92.483605 
L 251.371636 95.095979 
L 252.994909 93.189652 
L 254.618182 93.189652 
L 256.241455 90.330161 
L 257.864727 98.167285 
L 259.488 104.062778 
L 261.111273 90.083045 
L 262.734545 106.251525 
L 264.357818 104.062778 
L 265.981091 97.743656 
L 267.604364 100.356031 
L 269.227636 87.082344 
L 270.850909 85.952669 
L 272.474182 85.317226 
L 274.097455 87.047042 
L 275.720727 92.518907 
L 277.344 90.541975 
L 278.967273 89.235788 
L 280.590545 101.69752 
L 282.213818 90.541975 
L 283.837091 94.248723 
L 285.460364 91.424534 
L 287.083636 94.672351 
L 288.706909 90.789092 
L 290.330182 85.740855 
L 291.953455 86.164483 
L 293.576727 104.274593 
L 295.2 85.317226 
L 296.823273 103.63915 
L 298.446545 86.376297 
L 300.069818 87.505972 
L 301.693091 93.577978 
L 303.316364 86.835228 
L 304.939636 85.52904 
L 306.562909 85.317226 
L 308.186182 89.235788 
L 309.809455 96.437469 
L 311.432727 97.95547 
L 313.056 86.164483 
L 314.679273 95.343096 
L 316.302545 101.23859 
L 317.925818 89.023974 
L 319.549091 87.505972 
L 321.172364 86.623413 
L 322.795636 119.560514 
L 324.418909 89.659416 
L 326.042182 95.131282 
L 327.665455 86.164483 
L 329.288727 83.552108 
L 330.912 84.858296 
L 332.535273 89.482905 
L 334.158545 85.52904 
L 335.781818 89.482905 
L 337.405091 89.659416 
L 339.028364 83.12848 
L 340.651636 85.740855 
L 342.274909 89.447602 
L 343.898182 87.258856 
L 345.521455 81.363362 
L 348.768 81.822293 
L 350.391273 85.740855 
L 352.014545 84.434667 
L 353.637818 78.78629 
L 355.261091 94.672351 
L 356.884364 79.845361 
L 358.507636 85.740855 
L 360.130909 82.704852 
L 361.754182 85.740855 
L 363.377455 84.222853 
L 365.000727 85.52904 
L 366.624 83.12848 
L 368.247273 108.193154 
L 369.870545 81.363362 
L 371.493818 83.799225 
L 373.117091 85.952669 
L 374.740364 88.81216 
L 376.363636 85.740855 
L 377.986909 90.330161 
L 379.610182 89.482905 
L 381.233455 84.187551 
L 382.856727 81.822293 
L 384.48 77.480103 
L 386.103273 79.633547 
L 387.726545 93.366164 
L 389.349818 79.38643 
L 390.973091 134.599318 
L 392.596364 86.164483 
L 394.219636 86.835228 
L 395.842909 84.858296 
L 397.466182 89.659416 
L 399.089455 83.975737 
L 400.712727 87.294158 
L 402.336 82.034107 
L 403.959273 83.340294 
L 405.582545 141.412673 
L 407.205818 83.552108 
L 408.829091 85.987971 
L 410.452364 88.81216 
L 412.075636 79.209918 
L 413.698909 85.52904 
L 415.322182 78.962802 
L 416.945455 78.962802 
L 418.568727 90.753789 
L 420.192 92.059977 
L 421.815273 79.633547 
L 423.438545 82.669549 
L 425.061818 87.505972 
L 426.685091 78.962802 
L 428.308364 83.552108 
L 429.931636 78.115545 
L 431.554909 86.164483 
L 433.178182 80.304291 
L 434.801455 96.861097 
L 436.424727 83.799225 
L 438.048 96.190353 
L 439.671273 85.952669 
L 441.294545 89.906533 
L 442.917818 98.202587 
L 444.541091 93.15435 
L 446.164364 77.903731 
L 447.787636 82.034107 
L 449.410909 82.281223 
L 451.034182 77.903731 
L 452.657455 80.057175 
L 454.280727 89.235788 
L 455.904 85.740855 
L 457.527273 86.623413 
L 459.150545 84.646481 
L 460.773818 103.180219 
L 462.397091 88.81216 
L 464.020364 84.222853 
L 465.643636 83.12848 
L 467.266909 85.952669 
L 468.890182 91.000906 
L 470.513455 83.587411 
L 472.136727 83.975737 
L 473.76 85.740855 
L 475.383273 80.939734 
L 477.006545 82.245921 
L 478.629818 97.531842 
L 480.253091 79.845361 
L 481.876364 94.672351 
L 483.499636 86.623413 
L 485.122909 90.753789 
L 486.746182 78.115545 
L 488.369455 81.151548 
L 489.992727 79.845361 
L 491.616 76.98587 
L 493.239273 77.232986 
L 494.862545 82.245921 
L 496.485818 81.398664 
L 498.109091 82.669549 
L 498.109091 82.669549 
" clip-path="url(#pa512e2ca19)" style="fill: none; stroke: #ff7f0e; stroke-width: 1.5; stroke-linecap: square"/>
   </g>
   <g id="line2d_25">
    <path d="M 92.290909 365.229624 
L 93.914182 368.724558 
L 95.537455 359.581247 
L 97.160727 360.216689 
L 98.784 349.979005 
L 100.407273 347.119514 
L 102.030545 345.389699 
L 105.277091 324.243586 
L 106.900364 321.595909 
L 108.523636 313.511669 
L 110.146909 308.322223 
L 111.770182 305.462732 
L 113.393455 296.072304 
L 115.016727 279.480196 
L 116.64 284.493131 
L 118.263273 263.770647 
L 119.886545 255.686407 
L 121.509818 241.07123 
L 123.133091 243.718907 
L 124.756364 240.223974 
L 126.379636 229.280243 
L 128.002909 209.899248 
L 129.626182 199.626262 
L 131.249455 203.33301 
L 132.872727 199.873378 
L 134.496 183.245968 
L 136.119273 187.199832 
L 137.742545 180.209965 
L 139.365818 178.021219 
L 140.989091 159.063852 
L 142.612364 166.265534 
L 144.235636 151.862171 
L 145.858909 149.037983 
L 147.482182 138.553182 
L 149.105455 152.497614 
L 150.728727 160.793668 
L 152.352 152.2858 
L 153.975273 132.657689 
L 155.598545 141.800999 
L 157.221818 134.846435 
L 158.845091 141.800999 
L 160.468364 136.57625 
L 162.091636 129.586383 
L 163.714909 127.43294 
L 165.338182 129.374569 
L 166.961455 124.573449 
L 168.584727 119.3487 
L 170.208 121.325632 
L 171.831273 123.726192 
L 173.454545 121.74926 
L 175.077818 112.570647 
L 176.701091 118.466141 
L 178.324364 123.726192 
L 179.947636 109.075713 
L 183.194182 124.785263 
L 184.817455 107.134084 
L 186.440727 115.183021 
L 188.064 106.03971 
L 189.687273 107.769526 
L 191.310545 107.134084 
L 192.933818 104.945337 
L 194.557091 106.886967 
L 196.180364 102.544777 
L 197.803636 102.544777 
L 199.426909 103.427336 
L 201.050182 102.756591 
L 202.673455 104.698221 
L 205.92 96.684586 
L 207.543273 106.498641 
L 209.166545 103.850964 
L 210.789818 102.756591 
L 212.413091 101.874032 
L 214.036364 98.414401 
L 215.659636 97.108214 
L 217.282909 97.320028 
L 218.906182 91.424534 
L 220.529455 98.202587 
L 222.152727 93.577978 
L 223.776 88.600346 
L 225.399273 91.424534 
L 227.022545 93.577978 
L 228.645818 89.447602 
L 230.269091 94.919468 
L 231.892364 95.131282 
L 233.515636 91.000906 
L 235.138909 93.61328 
L 236.762182 87.929601 
L 238.385455 94.284025 
L 240.008727 99.508774 
L 241.632 103.392034 
L 243.255273 83.975737 
L 244.878545 90.541975 
L 246.501818 92.942536 
L 248.125091 88.353229 
L 249.748364 86.588111 
L 251.371636 88.600346 
L 252.994909 85.987971 
L 254.618182 113.876834 
L 256.241455 92.942536 
L 257.864727 83.340294 
L 259.488 90.753789 
L 261.111273 96.649283 
L 262.734545 89.659416 
L 264.357818 84.858296 
L 265.981091 91.636348 
L 267.604364 103.427336 
L 269.227636 86.411599 
L 270.850909 87.505972 
L 272.474182 85.317226 
L 274.097455 98.379099 
L 275.720727 81.363362 
L 277.344 83.340294 
L 278.967273 83.552108 
L 280.590545 84.011039 
L 282.213818 83.587411 
L 283.837091 86.835228 
L 285.460364 92.059977 
L 288.706909 80.939734 
L 290.330182 89.235788 
L 291.953455 90.541975 
L 293.576727 81.398664 
L 295.2 94.495839 
L 296.823273 77.232986 
L 298.446545 83.552108 
L 300.069818 93.366164 
L 301.693091 83.340294 
L 303.316364 87.682484 
L 304.939636 81.610479 
L 306.562909 84.858296 
L 308.186182 82.245921 
L 309.809455 92.059977 
L 311.432727 79.421732 
L 313.056 89.235788 
L 314.679273 87.294158 
L 316.302545 85.987971 
L 317.925818 77.232986 
L 319.549091 82.669549 
L 321.172364 78.539173 
L 322.795636 85.07011 
L 324.418909 86.835228 
L 326.042182 87.717787 
L 327.665455 87.258856 
L 329.288727 84.434667 
L 330.912 84.434667 
L 332.535273 84.011039 
L 334.158545 85.952669 
L 335.781818 84.858296 
L 337.405091 88.141415 
L 339.028364 80.975036 
L 340.651636 82.245921 
L 342.274909 91.000906 
L 343.898182 77.232986 
L 345.521455 81.363362 
L 348.768 82.245921 
L 350.391273 82.034107 
L 352.014545 84.681784 
L 353.637818 82.245921 
L 355.261091 84.222853 
L 356.884364 79.845361 
L 358.507636 88.600346 
L 360.130909 80.057175 
L 361.754182 78.327359 
L 363.377455 106.710455 
L 365.000727 83.12848 
L 366.624 81.610479 
L 369.870545 85.52904 
L 371.493818 84.858296 
L 373.117091 80.72792 
L 374.740364 79.633547 
L 376.363636 77.656615 
L 377.986909 83.552108 
L 379.610182 70.454933 
L 381.233455 75.04424 
L 382.856727 78.962802 
L 384.48 89.482905 
L 386.103273 81.822293 
L 387.726545 77.480103 
L 389.349818 93.15435 
L 390.973091 80.057175 
L 392.596364 84.434667 
L 394.219636 83.975737 
L 395.842909 84.858296 
L 397.466182 81.151548 
L 399.089455 74.196983 
L 400.712727 78.327359 
L 402.336 87.717787 
L 403.959273 69.36056 
L 405.582545 82.034107 
L 407.205818 75.291357 
L 408.829091 89.447602 
L 410.452364 90.541975 
L 412.075636 82.457735 
L 413.698909 84.011039 
L 415.322182 82.916666 
L 416.945455 78.539173 
L 418.568727 88.141415 
L 420.192 80.304291 
L 421.815273 75.04424 
L 423.438545 87.505972 
L 425.061818 78.327359 
L 426.685091 76.138613 
L 428.308364 82.916666 
L 429.931636 86.835228 
L 431.554909 77.232986 
L 433.178182 82.034107 
L 434.801455 74.373495 
L 436.424727 77.232986 
L 438.048 81.151548 
L 439.671273 81.610479 
L 441.294545 76.350427 
L 442.917818 72.431866 
L 444.541091 74.832426 
L 446.164364 75.926799 
L 447.787636 76.597544 
L 449.410909 75.467868 
L 451.034182 71.125678 
L 452.657455 82.669549 
L 454.280727 71.972935 
L 455.904 75.926799 
L 457.527273 78.962802 
L 459.150545 77.480103 
L 460.773818 87.505972 
L 462.397091 78.998104 
L 464.020364 75.04424 
L 465.643636 77.656615 
L 467.266909 83.12848 
L 470.513455 76.350427 
L 472.136727 76.350427 
L 473.76 75.291357 
L 475.383273 75.503171 
L 477.006545 79.38643 
L 478.629818 73.314424 
L 481.876364 79.174616 
L 483.499636 86.164483 
L 485.122909 89.659416 
L 486.746182 72.220051 
L 488.369455 79.845361 
L 489.992727 96.861097 
L 491.616 92.695419 
L 493.239273 75.291357 
L 494.862545 80.057175 
L 496.485818 88.988671 
L 498.109091 74.620612 
L 498.109091 74.620612 
" clip-path="url(#pa512e2ca19)" style="fill: none; stroke: #2ca02c; stroke-width: 1.5; stroke-linecap: square"/>
   </g>
   <g id="line2d_26">
    <path d="M 92.290909 363.711623 
L 93.914182 356.545244 
L 95.537455 350.826262 
L 97.160727 347.119514 
L 98.784 344.930768 
L 100.407273 337.517273 
L 102.030545 326.644147 
L 103.653818 319.442466 
L 106.900364 295.648676 
L 108.523636 284.952062 
L 110.146909 276.867822 
L 111.770182 264.017763 
L 113.393455 249.614401 
L 115.016727 239.129601 
L 116.64 226.24424 
L 118.263273 209.652132 
L 119.886545 214.241438 
L 121.509818 214.241438 
L 124.756364 178.903778 
L 126.379636 168.207163 
L 128.002909 176.044287 
L 129.626182 169.51335 
L 131.249455 155.568919 
L 132.872727 159.063852 
L 134.496 160.37004 
L 136.119273 151.615055 
L 137.742545 163.653159 
L 139.365818 151.403241 
L 140.989091 142.048116 
L 142.612364 145.295933 
L 144.235636 135.905505 
L 145.858909 136.57625 
L 147.482182 130.045314 
L 149.105455 136.999879 
L 150.728727 126.09145 
L 152.352 128.739127 
L 153.975273 139.188625 
L 155.598545 129.374569 
L 157.221818 128.527313 
L 158.845091 118.466141 
L 160.468364 114.794695 
L 162.091636 109.287527 
L 163.714909 118.042512 
L 165.338182 120.654887 
L 166.961455 107.557712 
L 168.584727 105.192454 
L 170.208 111.72339 
L 171.831273 110.381901 
L 173.454545 106.463339 
L 175.077818 104.945337 
L 176.701091 102.332963 
L 178.324364 104.309895 
L 179.947636 103.215522 
L 181.570909 108.193154 
L 183.194182 108.652085 
L 184.817455 104.274593 
L 186.440727 106.498641 
L 188.064 104.945337 
L 189.687273 103.603848 
L 191.310545 103.850964 
L 192.933818 104.274593 
L 194.557091 102.544777 
L 196.180364 96.437469 
L 197.803636 94.884165 
L 199.426909 99.261658 
L 201.050182 95.131282 
L 202.673455 103.427336 
L 204.296727 98.626215 
L 205.92 95.131282 
L 207.543273 103.427336 
L 209.166545 101.026776 
L 210.789818 96.437469 
L 212.413091 95.766724 
L 214.036364 117.159953 
L 215.659636 93.366164 
L 217.282909 90.541975 
L 218.906182 118.254326 
L 220.529455 88.353229 
L 222.152727 102.121149 
L 223.776 97.108214 
L 225.399273 88.81216 
L 227.022545 93.189652 
L 228.645818 92.307093 
L 230.269091 92.095279 
L 231.892364 87.047042 
L 233.515636 93.577978 
L 235.138909 88.600346 
L 236.762182 106.463339 
L 238.385455 104.274593 
L 240.008727 89.023974 
L 241.632 88.81216 
L 243.255273 88.141415 
L 244.878545 87.894298 
L 246.501818 93.366164 
L 248.125091 83.12848 
L 249.748364 91.848163 
L 251.371636 87.505972 
L 252.994909 91.21272 
L 254.618182 89.87123 
L 256.241455 88.141415 
L 257.864727 85.987971 
L 259.488 86.835228 
L 261.111273 89.023974 
L 262.734545 92.730721 
L 264.357818 86.835228 
L 265.981091 87.294158 
L 267.604364 100.567845 
L 269.227636 92.059977 
L 270.850909 87.505972 
L 272.474182 88.988671 
L 274.097455 86.623413 
L 275.720727 89.659416 
L 277.344 86.164483 
L 278.967273 96.013841 
L 280.590545 87.929601 
L 282.213818 91.636348 
L 283.837091 88.353229 
L 285.460364 87.682484 
L 287.083636 80.480803 
L 288.706909 90.330161 
L 290.330182 79.421732 
L 291.953455 84.434667 
L 293.576727 88.600346 
L 295.2 90.541975 
L 296.823273 87.682484 
L 298.446545 81.822293 
L 300.069818 85.317226 
L 301.693091 85.317226 
L 303.316364 85.987971 
L 304.939636 81.822293 
L 306.562909 82.245921 
L 308.186182 83.587411 
L 309.809455 85.52904 
L 311.432727 88.141415 
L 313.056 85.740855 
L 314.679273 92.095279 
L 316.302545 96.013841 
L 317.925818 78.539173 
L 319.549091 83.340294 
L 321.172364 83.975737 
L 322.795636 90.541975 
L 324.418909 86.164483 
L 326.042182 89.659416 
L 327.665455 87.047042 
L 329.288727 80.72792 
L 330.912 88.81216 
L 332.535273 86.588111 
L 334.158545 85.740855 
L 335.781818 97.531842 
L 337.405091 80.72792 
L 339.028364 92.518907 
L 340.651636 83.799225 
L 342.274909 81.398664 
L 343.898182 86.835228 
L 345.521455 89.482905 
L 347.144727 82.245921 
L 348.768 81.398664 
L 350.391273 82.493038 
L 352.014545 87.717787 
L 353.637818 86.376297 
L 355.261091 94.036909 
L 356.884364 86.835228 
L 358.507636 82.916666 
L 360.130909 80.939734 
L 361.754182 80.516106 
L 363.377455 81.610479 
L 365.000727 84.434667 
L 366.624 79.174616 
L 368.247273 84.187551 
L 369.870545 80.304291 
L 371.493818 81.151548 
L 373.117091 78.962802 
L 374.740364 74.373495 
L 376.363636 74.620612 
L 377.986909 80.304291 
L 379.610182 76.597544 
L 381.233455 85.52904 
L 382.856727 80.057175 
L 384.48 90.541975 
L 386.103273 74.408798 
L 387.726545 93.189652 
L 389.349818 84.011039 
L 392.596364 75.926799 
L 394.219636 73.985169 
L 395.842909 78.539173 
L 397.466182 84.434667 
L 399.089455 80.304291 
L 400.712727 80.304291 
L 402.336 78.327359 
L 403.959273 77.903731 
L 405.582545 78.574476 
L 407.205818 78.78629 
L 408.829091 83.587411 
L 412.075636 77.656615 
L 413.698909 96.190353 
L 415.322182 88.353229 
L 416.945455 77.232986 
L 418.568727 77.232986 
L 420.192 74.832426 
L 421.815273 79.421732 
L 423.438545 85.317226 
L 425.061818 80.975036 
L 426.685091 84.222853 
L 428.308364 78.78629 
L 429.931636 90.541975 
L 431.554909 80.516106 
L 433.178182 77.903731 
L 434.801455 78.574476 
L 436.424727 81.610479 
L 438.048 82.881364 
L 439.671273 77.021172 
L 441.294545 80.304291 
L 442.917818 80.72792 
L 444.541091 80.304291 
L 446.164364 80.72792 
L 447.787636 77.656615 
L 449.410909 79.421732 
L 451.034182 94.248723 
L 452.657455 88.81216 
L 454.280727 77.4448 
L 455.904 77.656615 
L 457.527273 75.291357 
L 459.150545 86.588111 
L 460.773818 78.962802 
L 462.397091 77.480103 
L 464.020364 77.656615 
L 465.643636 72.64368 
L 467.266909 78.115545 
L 468.890182 73.314424 
L 472.136727 73.279122 
L 473.76 74.620612 
L 475.383273 77.656615 
L 477.006545 87.929601 
L 478.629818 70.278422 
L 480.253091 75.04424 
L 481.876364 82.916666 
L 483.499636 77.903731 
L 485.122909 82.457735 
L 486.746182 73.10261 
L 488.369455 79.845361 
L 489.992727 74.620612 
L 491.616 83.12848 
L 493.239273 96.649283 
L 494.862545 73.526239 
L 496.485818 73.526239 
L 498.109091 66.96 
L 498.109091 66.96 
" clip-path="url(#pa512e2ca19)" style="fill: none; stroke: #d62728; stroke-width: 1.5; stroke-linecap: square"/>
   </g>
   <g id="patch_3">
    <path d="M 72 384.48 
L 72 51.84 
" style="fill: none; stroke: #000000; stroke-width: 0.8; stroke-linejoin: miter; stroke-linecap: square"/>
   </g>
   <g id="patch_4">
    <path d="M 518.4 384.48 
L 518.4 51.84 
" style="fill: none; stroke: #000000; stroke-width: 0.8; stroke-linejoin: miter; stroke-linecap: square"/>
   </g>
   <g id="patch_5">
    <path d="M 72 384.48 
L 518.4 384.48 
" style="fill: none; stroke: #000000; stroke-width: 0.8; stroke-linejoin: miter; stroke-linecap: square"/>
   </g>
   <g id="patch_6">
    <path d="M 72 51.84 
L 518.4 51.84 
" style="fill: none; stroke: #000000; stroke-width: 0.8; stroke-linejoin: miter; stroke-linecap: square"/>
   </g>
   <g id="text_14">
    <!-- Max-Common -->
    <g transform="translate(253.606875 45.84)scale(0.12 -0.12)">
     <defs>
      <path id="DejaVuSans-4d" d="M 628 4666 
L 1569 4666 
L 2759 1491 
L 3956 4666 
L 4897 4666 
L 4897 0 
L 4281 0 
L 4281 4097 
L 3078 897 
L 2444 897 
L 1241 4097 
L 1241 0 
L 628 0 
L 628 4666 
z
" transform="scale(0.015625)"/>
      <path id="DejaVuSans-78" d="M 3513 3500 
L 2247 1797 
L 3578 0 
L 2900 0 
L 1881 1375 
L 863 0 
L 184 0 
L 1544 1831 
L 300 3500 
L 978 3500 
L 1906 2253 
L 2834 3500 
L 3513 3500 
z
" transform="scale(0.015625)"/>
      <path id="DejaVuSans-2d" d="M 313 2009 
L 1997 2009 
L 1997 1497 
L 313 1497 
L 313 2009 
z
" transform="scale(0.015625)"/>
     </defs>
     <use xlink:href="#DejaVuSans-4d"/>
     <use xlink:href="#DejaVuSans-61" x="86.279297"/>
     <use xlink:href="#DejaVuSans-78" x="147.558594"/>
     <use xlink:href="#DejaVuSans-2d" x="206.738281"/>
     <use xlink:href="#DejaVuSans-43" x="242.822266"/>
     <use xlink:href="#DejaVuSans-6f" x="312.646484"/>
     <use xlink:href="#DejaVuSans-6d" x="373.828125"/>
     <use xlink:href="#DejaVuSans-6d" x="471.240234"/>
     <use xlink:href="#DejaVuSans-6f" x="568.652344"/>
     <use xlink:href="#DejaVuSans-6e" x="629.833984"/>
    </g>
   </g>
   <g id="legend_1">
    <g id="patch_7">
     <path d="M 79 118.5525 
L 124.203125 118.5525 
Q 126.203125 118.5525 126.203125 116.5525 
L 126.203125 58.84 
Q 126.203125 56.84 124.203125 56.84 
L 79 56.84 
Q 77 56.84 77 58.84 
L 77 116.5525 
Q 77 118.5525 79 118.5525 
z
" style="fill: #ffffff; opacity: 0.8; stroke: #cccccc; stroke-linejoin: miter"/>
    </g>
    <g id="line2d_27">
     <path d="M 81 64.938438 
L 91 64.938438 
L 101 64.938438 
" style="fill: none; stroke: #1f77b4; stroke-width: 1.5; stroke-linecap: square"/>
    </g>
    <g id="text_15">
     <!-- V1 -->
     <g transform="translate(109 68.438438)scale(0.1 -0.1)">
      <defs>
       <path id="DejaVuSans-56" d="M 1831 0 
L 50 4666 
L 709 4666 
L 2188 738 
L 3669 4666 
L 4325 4666 
L 2547 0 
L 1831 0 
z
" transform="scale(0.015625)"/>
      </defs>
      <use xlink:href="#DejaVuSans-56"/>
      <use xlink:href="#DejaVuSans-31" x="68.408203"/>
     </g>
    </g>
    <g id="line2d_28">
     <path d="M 81 79.616563 
L 91 79.616563 
L 101 79.616563 
" style="fill: none; stroke: #ff7f0e; stroke-width: 1.5; stroke-linecap: square"/>
    </g>
    <g id="text_16">
     <!-- V2 -->
     <g transform="translate(109 83.116563)scale(0.1 -0.1)">
      <use xlink:href="#DejaVuSans-56"/>
      <use xlink:href="#DejaVuSans-32" x="68.408203"/>
     </g>
    </g>
    <g id="line2d_29">
     <path d="M 81 94.294688 
L 91 94.294688 
L 101 94.294688 
" style="fill: none; stroke: #2ca02c; stroke-width: 1.5; stroke-linecap: square"/>
    </g>
    <g id="text_17">
     <!-- V3 -->
     <g transform="translate(109 97.794688)scale(0.1 -0.1)">
      <defs>
       <path id="DejaVuSans-33" d="M 2597 2516 
Q 3050 2419 3304 2112 
Q 3559 1806 3559 1356 
Q 3559 666 3084 287 
Q 2609 -91 1734 -91 
Q 1441 -91 1130 -33 
Q 819 25 488 141 
L 488 750 
Q 750 597 1062 519 
Q 1375 441 1716 441 
Q 2309 441 2620 675 
Q 2931 909 2931 1356 
Q 2931 1769 2642 2001 
Q 2353 2234 1838 2234 
L 1294 2234 
L 1294 2753 
L 1863 2753 
Q 2328 2753 2575 2939 
Q 2822 3125 2822 3475 
Q 2822 3834 2567 4026 
Q 2313 4219 1838 4219 
Q 1578 4219 1281 4162 
Q 984 4106 628 3988 
L 628 4550 
Q 988 4650 1302 4700 
Q 1616 4750 1894 4750 
Q 2613 4750 3031 4423 
Q 3450 4097 3450 3541 
Q 3450 3153 3228 2886 
Q 3006 2619 2597 2516 
z
" transform="scale(0.015625)"/>
      </defs>
      <use xlink:href="#DejaVuSans-56"/>
      <use xlink:href="#DejaVuSans-33" x="68.408203"/>
     </g>
    </g>
    <g id="line2d_30">
     <path d="M 81 108.972813 
L 91 108.972813 
L 101 108.972813 
" style="fill: none; stroke: #d62728; stroke-width: 1.5; stroke-linecap: square"/>
    </g>
    <g id="text_18">
     <!-- V4 -->
     <g transform="translate(109 112.472813)scale(0.1 -0.1)">
      <use xlink:href="#DejaVuSans-56"/>
      <use xlink:href="#DejaVuSans-34" x="68.408203"/>
     </g>
    </g>
   </g>
  </g>
 </g>
 <defs>
  <clipPath id="pa512e2ca19">
   <rect x="72" y="51.84" width="446.4" height="332.64"/>
  </clipPath>
 </defs>
</svg>
