<?xml version="1.0" encoding="utf-8" standalone="no"?>
<!DOCTYPE svg PUBLIC "-//W3C//DTD SVG 1.1//EN"
  "http://www.w3.org/Graphics/SVG/1.1/DTD/svg11.dtd">
<svg xmlns:xlink="http://www.w3.org/1999/xlink" width="576pt" height="432pt" viewBox="0 0 576 432" xmlns="http://www.w3.org/2000/svg" version="1.1">
 <metadata>
  <rdf:RDF xmlns:dc="http://purl.org/dc/elements/1.1/" xmlns:cc="http://creativecommons.org/ns#" xmlns:rdf="http://www.w3.org/1999/02/22-rdf-syntax-ns#">
   <cc:Work>
    <dc:type rdf:resource="http://purl.org/dc/dcmitype/StillImage"/>
    <dc:date>2023-08-08T03:24:42.892120</dc:date>
    <dc:format>image/svg+xml</dc:format>
    <dc:creator>
     <cc:Agent>
      <dc:title>Matplotlib v3.5.2, https://matplotlib.org/</dc:title>
     </cc:Agent>
    </dc:creator>
   </cc:Work>
  </rdf:RDF>
 </metadata>
 <defs>
  <style type="text/css">*{stroke-linejoin: round; stroke-linecap: butt}</style>
 </defs>
 <g id="figure_1">
  <g id="patch_1">
   <path d="M 0 432 
L 576 432 
L 576 0 
L 0 0 
z
" style="fill: #ffffff"/>
  </g>
  <g id="axes_1">
   <g id="patch_2">
    <path d="M 72 384.48 
L 518.4 384.48 
L 518.4 51.84 
L 72 51.84 
z
" style="fill: #ffffff"/>
   </g>
   <g id="matplotlib.axis_1">
    <g id="xtick_1">
     <g id="line2d_1">
      <path d="M 92.290909 384.48 
L 92.290909 51.84 
" clip-path="url(#pa9f4276c58)" style="fill: none; stroke: #b0b0b0; stroke-opacity: 0.5; stroke-width: 0.8; stroke-linecap: square"/>
     </g>
     <g id="line2d_2">
      <defs>
       <path id="m70f4eb6272" d="M 0 0 
L 0 3.5 
" style="stroke: #000000; stroke-width: 0.8"/>
      </defs>
      <g>
       <use xlink:href="#m70f4eb6272" x="92.290909" y="384.48" style="stroke: #000000; stroke-width: 0.8"/>
      </g>
     </g>
     <g id="text_1">
      <!-- 0 -->
      <g transform="translate(89.109659 399.078438)scale(0.1 -0.1)">
       <defs>
        <path id="DejaVuSans-30" d="M 2034 4250 
Q 1547 4250 1301 3770 
Q 1056 3291 1056 2328 
Q 1056 1369 1301 889 
Q 1547 409 2034 409 
Q 2525 409 2770 889 
Q 3016 1369 3016 2328 
Q 3016 3291 2770 3770 
Q 2525 4250 2034 4250 
z
M 2034 4750 
Q 2819 4750 3233 4129 
Q 3647 3509 3647 2328 
Q 3647 1150 3233 529 
Q 2819 -91 2034 -91 
Q 1250 -91 836 529 
Q 422 1150 422 2328 
Q 422 3509 836 4129 
Q 1250 4750 2034 4750 
z
" transform="scale(0.015625)"/>
       </defs>
       <use xlink:href="#DejaVuSans-30"/>
      </g>
     </g>
    </g>
    <g id="xtick_2">
     <g id="line2d_3">
      <path d="M 173.454545 384.48 
L 173.454545 51.84 
" clip-path="url(#pa9f4276c58)" style="fill: none; stroke: #b0b0b0; stroke-opacity: 0.5; stroke-width: 0.8; stroke-linecap: square"/>
     </g>
     <g id="line2d_4">
      <g>
       <use xlink:href="#m70f4eb6272" x="173.454545" y="384.48" style="stroke: #000000; stroke-width: 0.8"/>
      </g>
     </g>
     <g id="text_2">
      <!-- 50 -->
      <g transform="translate(167.092045 399.078438)scale(0.1 -0.1)">
       <defs>
        <path id="DejaVuSans-35" d="M 691 4666 
L 3169 4666 
L 3169 4134 
L 1269 4134 
L 1269 2991 
Q 1406 3038 1543 3061 
Q 1681 3084 1819 3084 
Q 2600 3084 3056 2656 
Q 3513 2228 3513 1497 
Q 3513 744 3044 326 
Q 2575 -91 1722 -91 
Q 1428 -91 1123 -41 
Q 819 9 494 109 
L 494 744 
Q 775 591 1075 516 
Q 1375 441 1709 441 
Q 2250 441 2565 725 
Q 2881 1009 2881 1497 
Q 2881 1984 2565 2268 
Q 2250 2553 1709 2553 
Q 1456 2553 1204 2497 
Q 953 2441 691 2322 
L 691 4666 
z
" transform="scale(0.015625)"/>
       </defs>
       <use xlink:href="#DejaVuSans-35"/>
       <use xlink:href="#DejaVuSans-30" x="63.623047"/>
      </g>
     </g>
    </g>
    <g id="xtick_3">
     <g id="line2d_5">
      <path d="M 254.618182 384.48 
L 254.618182 51.84 
" clip-path="url(#pa9f4276c58)" style="fill: none; stroke: #b0b0b0; stroke-opacity: 0.5; stroke-width: 0.8; stroke-linecap: square"/>
     </g>
     <g id="line2d_6">
      <g>
       <use xlink:href="#m70f4eb6272" x="254.618182" y="384.48" style="stroke: #000000; stroke-width: 0.8"/>
      </g>
     </g>
     <g id="text_3">
      <!-- 100 -->
      <g transform="translate(245.074432 399.078438)scale(0.1 -0.1)">
       <defs>
        <path id="DejaVuSans-31" d="M 794 531 
L 1825 531 
L 1825 4091 
L 703 3866 
L 703 4441 
L 1819 4666 
L 2450 4666 
L 2450 531 
L 3481 531 
L 3481 0 
L 794 0 
L 794 531 
z
" transform="scale(0.015625)"/>
       </defs>
       <use xlink:href="#DejaVuSans-31"/>
       <use xlink:href="#DejaVuSans-30" x="63.623047"/>
       <use xlink:href="#DejaVuSans-30" x="127.246094"/>
      </g>
     </g>
    </g>
    <g id="xtick_4">
     <g id="line2d_7">
      <path d="M 335.781818 384.48 
L 335.781818 51.84 
" clip-path="url(#pa9f4276c58)" style="fill: none; stroke: #b0b0b0; stroke-opacity: 0.5; stroke-width: 0.8; stroke-linecap: square"/>
     </g>
     <g id="line2d_8">
      <g>
       <use xlink:href="#m70f4eb6272" x="335.781818" y="384.48" style="stroke: #000000; stroke-width: 0.8"/>
      </g>
     </g>
     <g id="text_4">
      <!-- 150 -->
      <g transform="translate(326.238068 399.078438)scale(0.1 -0.1)">
       <use xlink:href="#DejaVuSans-31"/>
       <use xlink:href="#DejaVuSans-35" x="63.623047"/>
       <use xlink:href="#DejaVuSans-30" x="127.246094"/>
      </g>
     </g>
    </g>
    <g id="xtick_5">
     <g id="line2d_9">
      <path d="M 416.945455 384.48 
L 416.945455 51.84 
" clip-path="url(#pa9f4276c58)" style="fill: none; stroke: #b0b0b0; stroke-opacity: 0.5; stroke-width: 0.8; stroke-linecap: square"/>
     </g>
     <g id="line2d_10">
      <g>
       <use xlink:href="#m70f4eb6272" x="416.945455" y="384.48" style="stroke: #000000; stroke-width: 0.8"/>
      </g>
     </g>
     <g id="text_5">
      <!-- 200 -->
      <g transform="translate(407.401705 399.078438)scale(0.1 -0.1)">
       <defs>
        <path id="DejaVuSans-32" d="M 1228 531 
L 3431 531 
L 3431 0 
L 469 0 
L 469 531 
Q 828 903 1448 1529 
Q 2069 2156 2228 2338 
Q 2531 2678 2651 2914 
Q 2772 3150 2772 3378 
Q 2772 3750 2511 3984 
Q 2250 4219 1831 4219 
Q 1534 4219 1204 4116 
Q 875 4013 500 3803 
L 500 4441 
Q 881 4594 1212 4672 
Q 1544 4750 1819 4750 
Q 2544 4750 2975 4387 
Q 3406 4025 3406 3419 
Q 3406 3131 3298 2873 
Q 3191 2616 2906 2266 
Q 2828 2175 2409 1742 
Q 1991 1309 1228 531 
z
" transform="scale(0.015625)"/>
       </defs>
       <use xlink:href="#DejaVuSans-32"/>
       <use xlink:href="#DejaVuSans-30" x="63.623047"/>
       <use xlink:href="#DejaVuSans-30" x="127.246094"/>
      </g>
     </g>
    </g>
    <g id="xtick_6">
     <g id="line2d_11">
      <path d="M 498.109091 384.48 
L 498.109091 51.84 
" clip-path="url(#pa9f4276c58)" style="fill: none; stroke: #b0b0b0; stroke-opacity: 0.5; stroke-width: 0.8; stroke-linecap: square"/>
     </g>
     <g id="line2d_12">
      <g>
       <use xlink:href="#m70f4eb6272" x="498.109091" y="384.48" style="stroke: #000000; stroke-width: 0.8"/>
      </g>
     </g>
     <g id="text_6">
      <!-- 250 -->
      <g transform="translate(488.565341 399.078438)scale(0.1 -0.1)">
       <use xlink:href="#DejaVuSans-32"/>
       <use xlink:href="#DejaVuSans-35" x="63.623047"/>
       <use xlink:href="#DejaVuSans-30" x="127.246094"/>
      </g>
     </g>
    </g>
    <g id="text_7">
     <!-- Communication rounds -->
     <g transform="translate(237.083594 412.756563)scale(0.1 -0.1)">
      <defs>
       <path id="DejaVuSans-43" d="M 4122 4306 
L 4122 3641 
Q 3803 3938 3442 4084 
Q 3081 4231 2675 4231 
Q 1875 4231 1450 3742 
Q 1025 3253 1025 2328 
Q 1025 1406 1450 917 
Q 1875 428 2675 428 
Q 3081 428 3442 575 
Q 3803 722 4122 1019 
L 4122 359 
Q 3791 134 3420 21 
Q 3050 -91 2638 -91 
Q 1578 -91 968 557 
Q 359 1206 359 2328 
Q 359 3453 968 4101 
Q 1578 4750 2638 4750 
Q 3056 4750 3426 4639 
Q 3797 4528 4122 4306 
z
" transform="scale(0.015625)"/>
       <path id="DejaVuSans-6f" d="M 1959 3097 
Q 1497 3097 1228 2736 
Q 959 2375 959 1747 
Q 959 1119 1226 758 
Q 1494 397 1959 397 
Q 2419 397 2687 759 
Q 2956 1122 2956 1747 
Q 2956 2369 2687 2733 
Q 2419 3097 1959 3097 
z
M 1959 3584 
Q 2709 3584 3137 3096 
Q 3566 2609 3566 1747 
Q 3566 888 3137 398 
Q 2709 -91 1959 -91 
Q 1206 -91 779 398 
Q 353 888 353 1747 
Q 353 2609 779 3096 
Q 1206 3584 1959 3584 
z
" transform="scale(0.015625)"/>
       <path id="DejaVuSans-6d" d="M 3328 2828 
Q 3544 3216 3844 3400 
Q 4144 3584 4550 3584 
Q 5097 3584 5394 3201 
Q 5691 2819 5691 2113 
L 5691 0 
L 5113 0 
L 5113 2094 
Q 5113 2597 4934 2840 
Q 4756 3084 4391 3084 
Q 3944 3084 3684 2787 
Q 3425 2491 3425 1978 
L 3425 0 
L 2847 0 
L 2847 2094 
Q 2847 2600 2669 2842 
Q 2491 3084 2119 3084 
Q 1678 3084 1418 2786 
Q 1159 2488 1159 1978 
L 1159 0 
L 581 0 
L 581 3500 
L 1159 3500 
L 1159 2956 
Q 1356 3278 1631 3431 
Q 1906 3584 2284 3584 
Q 2666 3584 2933 3390 
Q 3200 3197 3328 2828 
z
" transform="scale(0.015625)"/>
       <path id="DejaVuSans-75" d="M 544 1381 
L 544 3500 
L 1119 3500 
L 1119 1403 
Q 1119 906 1312 657 
Q 1506 409 1894 409 
Q 2359 409 2629 706 
Q 2900 1003 2900 1516 
L 2900 3500 
L 3475 3500 
L 3475 0 
L 2900 0 
L 2900 538 
Q 2691 219 2414 64 
Q 2138 -91 1772 -91 
Q 1169 -91 856 284 
Q 544 659 544 1381 
z
M 1991 3584 
L 1991 3584 
z
" transform="scale(0.015625)"/>
       <path id="DejaVuSans-6e" d="M 3513 2113 
L 3513 0 
L 2938 0 
L 2938 2094 
Q 2938 2591 2744 2837 
Q 2550 3084 2163 3084 
Q 1697 3084 1428 2787 
Q 1159 2491 1159 1978 
L 1159 0 
L 581 0 
L 581 3500 
L 1159 3500 
L 1159 2956 
Q 1366 3272 1645 3428 
Q 1925 3584 2291 3584 
Q 2894 3584 3203 3211 
Q 3513 2838 3513 2113 
z
" transform="scale(0.015625)"/>
       <path id="DejaVuSans-69" d="M 603 3500 
L 1178 3500 
L 1178 0 
L 603 0 
L 603 3500 
z
M 603 4863 
L 1178 4863 
L 1178 4134 
L 603 4134 
L 603 4863 
z
" transform="scale(0.015625)"/>
       <path id="DejaVuSans-63" d="M 3122 3366 
L 3122 2828 
Q 2878 2963 2633 3030 
Q 2388 3097 2138 3097 
Q 1578 3097 1268 2742 
Q 959 2388 959 1747 
Q 959 1106 1268 751 
Q 1578 397 2138 397 
Q 2388 397 2633 464 
Q 2878 531 3122 666 
L 3122 134 
Q 2881 22 2623 -34 
Q 2366 -91 2075 -91 
Q 1284 -91 818 406 
Q 353 903 353 1747 
Q 353 2603 823 3093 
Q 1294 3584 2113 3584 
Q 2378 3584 2631 3529 
Q 2884 3475 3122 3366 
z
" transform="scale(0.015625)"/>
       <path id="DejaVuSans-61" d="M 2194 1759 
Q 1497 1759 1228 1600 
Q 959 1441 959 1056 
Q 959 750 1161 570 
Q 1363 391 1709 391 
Q 2188 391 2477 730 
Q 2766 1069 2766 1631 
L 2766 1759 
L 2194 1759 
z
M 3341 1997 
L 3341 0 
L 2766 0 
L 2766 531 
Q 2569 213 2275 61 
Q 1981 -91 1556 -91 
Q 1019 -91 701 211 
Q 384 513 384 1019 
Q 384 1609 779 1909 
Q 1175 2209 1959 2209 
L 2766 2209 
L 2766 2266 
Q 2766 2663 2505 2880 
Q 2244 3097 1772 3097 
Q 1472 3097 1187 3025 
Q 903 2953 641 2809 
L 641 3341 
Q 956 3463 1253 3523 
Q 1550 3584 1831 3584 
Q 2591 3584 2966 3190 
Q 3341 2797 3341 1997 
z
" transform="scale(0.015625)"/>
       <path id="DejaVuSans-74" d="M 1172 4494 
L 1172 3500 
L 2356 3500 
L 2356 3053 
L 1172 3053 
L 1172 1153 
Q 1172 725 1289 603 
Q 1406 481 1766 481 
L 2356 481 
L 2356 0 
L 1766 0 
Q 1100 0 847 248 
Q 594 497 594 1153 
L 594 3053 
L 172 3053 
L 172 3500 
L 594 3500 
L 594 4494 
L 1172 4494 
z
" transform="scale(0.015625)"/>
       <path id="DejaVuSans-20" transform="scale(0.015625)"/>
       <path id="DejaVuSans-72" d="M 2631 2963 
Q 2534 3019 2420 3045 
Q 2306 3072 2169 3072 
Q 1681 3072 1420 2755 
Q 1159 2438 1159 1844 
L 1159 0 
L 581 0 
L 581 3500 
L 1159 3500 
L 1159 2956 
Q 1341 3275 1631 3429 
Q 1922 3584 2338 3584 
Q 2397 3584 2469 3576 
Q 2541 3569 2628 3553 
L 2631 2963 
z
" transform="scale(0.015625)"/>
       <path id="DejaVuSans-64" d="M 2906 2969 
L 2906 4863 
L 3481 4863 
L 3481 0 
L 2906 0 
L 2906 525 
Q 2725 213 2448 61 
Q 2172 -91 1784 -91 
Q 1150 -91 751 415 
Q 353 922 353 1747 
Q 353 2572 751 3078 
Q 1150 3584 1784 3584 
Q 2172 3584 2448 3432 
Q 2725 3281 2906 2969 
z
M 947 1747 
Q 947 1113 1208 752 
Q 1469 391 1925 391 
Q 2381 391 2643 752 
Q 2906 1113 2906 1747 
Q 2906 2381 2643 2742 
Q 2381 3103 1925 3103 
Q 1469 3103 1208 2742 
Q 947 2381 947 1747 
z
" transform="scale(0.015625)"/>
       <path id="DejaVuSans-73" d="M 2834 3397 
L 2834 2853 
Q 2591 2978 2328 3040 
Q 2066 3103 1784 3103 
Q 1356 3103 1142 2972 
Q 928 2841 928 2578 
Q 928 2378 1081 2264 
Q 1234 2150 1697 2047 
L 1894 2003 
Q 2506 1872 2764 1633 
Q 3022 1394 3022 966 
Q 3022 478 2636 193 
Q 2250 -91 1575 -91 
Q 1294 -91 989 -36 
Q 684 19 347 128 
L 347 722 
Q 666 556 975 473 
Q 1284 391 1588 391 
Q 1994 391 2212 530 
Q 2431 669 2431 922 
Q 2431 1156 2273 1281 
Q 2116 1406 1581 1522 
L 1381 1569 
Q 847 1681 609 1914 
Q 372 2147 372 2553 
Q 372 3047 722 3315 
Q 1072 3584 1716 3584 
Q 2034 3584 2315 3537 
Q 2597 3491 2834 3397 
z
" transform="scale(0.015625)"/>
      </defs>
      <use xlink:href="#DejaVuSans-43"/>
      <use xlink:href="#DejaVuSans-6f" x="69.824219"/>
      <use xlink:href="#DejaVuSans-6d" x="131.005859"/>
      <use xlink:href="#DejaVuSans-6d" x="228.417969"/>
      <use xlink:href="#DejaVuSans-75" x="325.830078"/>
      <use xlink:href="#DejaVuSans-6e" x="389.208984"/>
      <use xlink:href="#DejaVuSans-69" x="452.587891"/>
      <use xlink:href="#DejaVuSans-63" x="480.371094"/>
      <use xlink:href="#DejaVuSans-61" x="535.351562"/>
      <use xlink:href="#DejaVuSans-74" x="596.630859"/>
      <use xlink:href="#DejaVuSans-69" x="635.839844"/>
      <use xlink:href="#DejaVuSans-6f" x="663.623047"/>
      <use xlink:href="#DejaVuSans-6e" x="724.804688"/>
      <use xlink:href="#DejaVuSans-20" x="788.183594"/>
      <use xlink:href="#DejaVuSans-72" x="819.970703"/>
      <use xlink:href="#DejaVuSans-6f" x="858.833984"/>
      <use xlink:href="#DejaVuSans-75" x="920.015625"/>
      <use xlink:href="#DejaVuSans-6e" x="983.394531"/>
      <use xlink:href="#DejaVuSans-64" x="1046.773438"/>
      <use xlink:href="#DejaVuSans-73" x="1110.25"/>
     </g>
    </g>
   </g>
   <g id="matplotlib.axis_2">
    <g id="ytick_1">
     <g id="line2d_13">
      <path d="M 72 352.08 
L 518.4 352.08 
" clip-path="url(#pa9f4276c58)" style="fill: none; stroke: #b0b0b0; stroke-opacity: 0.5; stroke-width: 0.8; stroke-linecap: square"/>
     </g>
     <g id="line2d_14">
      <defs>
       <path id="m338d3a3eb2" d="M 0 0 
L -3.5 0 
" style="stroke: #000000; stroke-width: 0.8"/>
      </defs>
      <g>
       <use xlink:href="#m338d3a3eb2" x="72" y="352.08" style="stroke: #000000; stroke-width: 0.8"/>
      </g>
     </g>
     <g id="text_8">
      <!-- 0.3 -->
      <g transform="translate(49.096875 355.879219)scale(0.1 -0.1)">
       <defs>
        <path id="DejaVuSans-2e" d="M 684 794 
L 1344 794 
L 1344 0 
L 684 0 
L 684 794 
z
" transform="scale(0.015625)"/>
        <path id="DejaVuSans-33" d="M 2597 2516 
Q 3050 2419 3304 2112 
Q 3559 1806 3559 1356 
Q 3559 666 3084 287 
Q 2609 -91 1734 -91 
Q 1441 -91 1130 -33 
Q 819 25 488 141 
L 488 750 
Q 750 597 1062 519 
Q 1375 441 1716 441 
Q 2309 441 2620 675 
Q 2931 909 2931 1356 
Q 2931 1769 2642 2001 
Q 2353 2234 1838 2234 
L 1294 2234 
L 1294 2753 
L 1863 2753 
Q 2328 2753 2575 2939 
Q 2822 3125 2822 3475 
Q 2822 3834 2567 4026 
Q 2313 4219 1838 4219 
Q 1578 4219 1281 4162 
Q 984 4106 628 3988 
L 628 4550 
Q 988 4650 1302 4700 
Q 1616 4750 1894 4750 
Q 2613 4750 3031 4423 
Q 3450 4097 3450 3541 
Q 3450 3153 3228 2886 
Q 3006 2619 2597 2516 
z
" transform="scale(0.015625)"/>
       </defs>
       <use xlink:href="#DejaVuSans-30"/>
       <use xlink:href="#DejaVuSans-2e" x="63.623047"/>
       <use xlink:href="#DejaVuSans-33" x="95.410156"/>
      </g>
     </g>
    </g>
    <g id="ytick_2">
     <g id="line2d_15">
      <path d="M 72 298.08 
L 518.4 298.08 
" clip-path="url(#pa9f4276c58)" style="fill: none; stroke: #b0b0b0; stroke-opacity: 0.5; stroke-width: 0.8; stroke-linecap: square"/>
     </g>
     <g id="line2d_16">
      <g>
       <use xlink:href="#m338d3a3eb2" x="72" y="298.08" style="stroke: #000000; stroke-width: 0.8"/>
      </g>
     </g>
     <g id="text_9">
      <!-- 0.4 -->
      <g transform="translate(49.096875 301.879219)scale(0.1 -0.1)">
       <defs>
        <path id="DejaVuSans-34" d="M 2419 4116 
L 825 1625 
L 2419 1625 
L 2419 4116 
z
M 2253 4666 
L 3047 4666 
L 3047 1625 
L 3713 1625 
L 3713 1100 
L 3047 1100 
L 3047 0 
L 2419 0 
L 2419 1100 
L 313 1100 
L 313 1709 
L 2253 4666 
z
" transform="scale(0.015625)"/>
       </defs>
       <use xlink:href="#DejaVuSans-30"/>
       <use xlink:href="#DejaVuSans-2e" x="63.623047"/>
       <use xlink:href="#DejaVuSans-34" x="95.410156"/>
      </g>
     </g>
    </g>
    <g id="ytick_3">
     <g id="line2d_17">
      <path d="M 72 244.08 
L 518.4 244.08 
" clip-path="url(#pa9f4276c58)" style="fill: none; stroke: #b0b0b0; stroke-opacity: 0.5; stroke-width: 0.8; stroke-linecap: square"/>
     </g>
     <g id="line2d_18">
      <g>
       <use xlink:href="#m338d3a3eb2" x="72" y="244.08" style="stroke: #000000; stroke-width: 0.8"/>
      </g>
     </g>
     <g id="text_10">
      <!-- 0.5 -->
      <g transform="translate(49.096875 247.879219)scale(0.1 -0.1)">
       <use xlink:href="#DejaVuSans-30"/>
       <use xlink:href="#DejaVuSans-2e" x="63.623047"/>
       <use xlink:href="#DejaVuSans-35" x="95.410156"/>
      </g>
     </g>
    </g>
    <g id="ytick_4">
     <g id="line2d_19">
      <path d="M 72 190.08 
L 518.4 190.08 
" clip-path="url(#pa9f4276c58)" style="fill: none; stroke: #b0b0b0; stroke-opacity: 0.5; stroke-width: 0.8; stroke-linecap: square"/>
     </g>
     <g id="line2d_20">
      <g>
       <use xlink:href="#m338d3a3eb2" x="72" y="190.08" style="stroke: #000000; stroke-width: 0.8"/>
      </g>
     </g>
     <g id="text_11">
      <!-- 0.6 -->
      <g transform="translate(49.096875 193.879219)scale(0.1 -0.1)">
       <defs>
        <path id="DejaVuSans-36" d="M 2113 2584 
Q 1688 2584 1439 2293 
Q 1191 2003 1191 1497 
Q 1191 994 1439 701 
Q 1688 409 2113 409 
Q 2538 409 2786 701 
Q 3034 994 3034 1497 
Q 3034 2003 2786 2293 
Q 2538 2584 2113 2584 
z
M 3366 4563 
L 3366 3988 
Q 3128 4100 2886 4159 
Q 2644 4219 2406 4219 
Q 1781 4219 1451 3797 
Q 1122 3375 1075 2522 
Q 1259 2794 1537 2939 
Q 1816 3084 2150 3084 
Q 2853 3084 3261 2657 
Q 3669 2231 3669 1497 
Q 3669 778 3244 343 
Q 2819 -91 2113 -91 
Q 1303 -91 875 529 
Q 447 1150 447 2328 
Q 447 3434 972 4092 
Q 1497 4750 2381 4750 
Q 2619 4750 2861 4703 
Q 3103 4656 3366 4563 
z
" transform="scale(0.015625)"/>
       </defs>
       <use xlink:href="#DejaVuSans-30"/>
       <use xlink:href="#DejaVuSans-2e" x="63.623047"/>
       <use xlink:href="#DejaVuSans-36" x="95.410156"/>
      </g>
     </g>
    </g>
    <g id="ytick_5">
     <g id="line2d_21">
      <path d="M 72 136.08 
L 518.4 136.08 
" clip-path="url(#pa9f4276c58)" style="fill: none; stroke: #b0b0b0; stroke-opacity: 0.5; stroke-width: 0.8; stroke-linecap: square"/>
     </g>
     <g id="line2d_22">
      <g>
       <use xlink:href="#m338d3a3eb2" x="72" y="136.08" style="stroke: #000000; stroke-width: 0.8"/>
      </g>
     </g>
     <g id="text_12">
      <!-- 0.7 -->
      <g transform="translate(49.096875 139.879219)scale(0.1 -0.1)">
       <defs>
        <path id="DejaVuSans-37" d="M 525 4666 
L 3525 4666 
L 3525 4397 
L 1831 0 
L 1172 0 
L 2766 4134 
L 525 4134 
L 525 4666 
z
" transform="scale(0.015625)"/>
       </defs>
       <use xlink:href="#DejaVuSans-30"/>
       <use xlink:href="#DejaVuSans-2e" x="63.623047"/>
       <use xlink:href="#DejaVuSans-37" x="95.410156"/>
      </g>
     </g>
    </g>
    <g id="ytick_6">
     <g id="line2d_23">
      <path d="M 72 82.08 
L 518.4 82.08 
" clip-path="url(#pa9f4276c58)" style="fill: none; stroke: #b0b0b0; stroke-opacity: 0.5; stroke-width: 0.8; stroke-linecap: square"/>
     </g>
     <g id="line2d_24">
      <g>
       <use xlink:href="#m338d3a3eb2" x="72" y="82.08" style="stroke: #000000; stroke-width: 0.8"/>
      </g>
     </g>
     <g id="text_13">
      <!-- 0.8 -->
      <g transform="translate(49.096875 85.879219)scale(0.1 -0.1)">
       <defs>
        <path id="DejaVuSans-38" d="M 2034 2216 
Q 1584 2216 1326 1975 
Q 1069 1734 1069 1313 
Q 1069 891 1326 650 
Q 1584 409 2034 409 
Q 2484 409 2743 651 
Q 3003 894 3003 1313 
Q 3003 1734 2745 1975 
Q 2488 2216 2034 2216 
z
M 1403 2484 
Q 997 2584 770 2862 
Q 544 3141 544 3541 
Q 544 4100 942 4425 
Q 1341 4750 2034 4750 
Q 2731 4750 3128 4425 
Q 3525 4100 3525 3541 
Q 3525 3141 3298 2862 
Q 3072 2584 2669 2484 
Q 3125 2378 3379 2068 
Q 3634 1759 3634 1313 
Q 3634 634 3220 271 
Q 2806 -91 2034 -91 
Q 1263 -91 848 271 
Q 434 634 434 1313 
Q 434 1759 690 2068 
Q 947 2378 1403 2484 
z
M 1172 3481 
Q 1172 3119 1398 2916 
Q 1625 2713 2034 2713 
Q 2441 2713 2670 2916 
Q 2900 3119 2900 3481 
Q 2900 3844 2670 4047 
Q 2441 4250 2034 4250 
Q 1625 4250 1398 4047 
Q 1172 3844 1172 3481 
z
" transform="scale(0.015625)"/>
       </defs>
       <use xlink:href="#DejaVuSans-30"/>
       <use xlink:href="#DejaVuSans-2e" x="63.623047"/>
       <use xlink:href="#DejaVuSans-38" x="95.410156"/>
      </g>
     </g>
    </g>
    <g id="text_14">
     <!-- Accuracy -->
     <g transform="translate(43.017187 240.988125)rotate(-90)scale(0.1 -0.1)">
      <defs>
       <path id="DejaVuSans-41" d="M 2188 4044 
L 1331 1722 
L 3047 1722 
L 2188 4044 
z
M 1831 4666 
L 2547 4666 
L 4325 0 
L 3669 0 
L 3244 1197 
L 1141 1197 
L 716 0 
L 50 0 
L 1831 4666 
z
" transform="scale(0.015625)"/>
       <path id="DejaVuSans-79" d="M 2059 -325 
Q 1816 -950 1584 -1140 
Q 1353 -1331 966 -1331 
L 506 -1331 
L 506 -850 
L 844 -850 
Q 1081 -850 1212 -737 
Q 1344 -625 1503 -206 
L 1606 56 
L 191 3500 
L 800 3500 
L 1894 763 
L 2988 3500 
L 3597 3500 
L 2059 -325 
z
" transform="scale(0.015625)"/>
      </defs>
      <use xlink:href="#DejaVuSans-41"/>
      <use xlink:href="#DejaVuSans-63" x="66.658203"/>
      <use xlink:href="#DejaVuSans-63" x="121.638672"/>
      <use xlink:href="#DejaVuSans-75" x="176.619141"/>
      <use xlink:href="#DejaVuSans-72" x="239.998047"/>
      <use xlink:href="#DejaVuSans-61" x="281.111328"/>
      <use xlink:href="#DejaVuSans-63" x="342.390625"/>
      <use xlink:href="#DejaVuSans-79" x="397.371094"/>
     </g>
    </g>
   </g>
   <g id="line2d_25">
    <path d="M 92.290909 320.112 
L 93.914182 331.344 
L 95.537455 330.048 
L 97.160727 310.176 
L 98.784 302.832 
L 100.407273 307.152 
L 102.030545 297.216 
L 103.653818 270 
L 105.277091 258.768 
L 106.900364 225.072 
L 108.523636 267.84 
L 110.146909 216.432 
L 111.770182 228.096 
L 113.393455 228.528 
L 115.016727 209.52 
L 116.64 203.904 
L 118.263273 205.632 
L 119.886545 193.536 
L 121.509818 194.832 
L 123.133091 195.264 
L 124.756364 186.624 
L 126.379636 165.024 
L 128.002909 177.12 
L 129.626182 171.504 
L 131.249455 175.824 
L 132.872727 175.824 
L 134.496 154.224 
L 136.119273 165.888 
L 137.742545 162 
L 139.365818 149.04 
L 140.989091 160.704 
L 142.612364 138.672 
L 144.235636 164.592 
L 145.858909 141.696 
L 147.482182 162.432 
L 149.105455 144.72 
L 150.728727 148.176 
L 152.352 140.4 
L 153.975273 136.08 
L 155.598545 121.392 
L 157.221818 130.464 
L 158.845091 129.6 
L 160.468364 129.168 
L 162.091636 132.192 
L 163.714909 136.944 
L 165.338182 133.92 
L 166.961455 127.44 
L 168.584727 128.736 
L 170.208 125.712 
L 171.831273 116.208 
L 173.454545 124.416 
L 175.077818 119.232 
L 176.701091 117.504 
L 178.324364 131.76 
L 179.947636 123.12 
L 181.570909 126.576 
L 183.194182 115.344 
L 184.817455 120.96 
L 186.440727 106.704 
L 188.064 117.936 
L 189.687273 123.552 
L 191.310545 109.728 
L 192.933818 108.432 
L 194.557091 119.664 
L 196.180364 108.864 
L 197.803636 116.208 
L 199.426909 114.048 
L 201.050182 118.8 
L 202.673455 111.888 
L 204.296727 111.888 
L 205.92 108 
L 207.543273 126.576 
L 209.166545 103.68 
L 210.789818 109.728 
L 212.413091 118.8 
L 214.036364 114.048 
L 215.659636 100.656 
L 217.282909 106.704 
L 218.906182 108.864 
L 220.529455 114.912 
L 222.152727 103.248 
L 223.776 105.84 
L 225.399273 113.616 
L 228.645818 103.248 
L 230.269091 100.656 
L 231.892364 109.728 
L 233.515636 111.888 
L 235.138909 101.088 
L 236.762182 101.952 
L 238.385455 108.432 
L 240.008727 106.704 
L 241.632 103.248 
L 243.255273 110.592 
L 244.878545 103.68 
L 246.501818 110.16 
L 248.125091 108 
L 249.748364 110.16 
L 251.371636 84.24 
L 252.994909 94.176 
L 254.618182 98.496 
L 256.241455 106.272 
L 257.864727 87.696 
L 259.488 99.792 
L 261.111273 107.136 
L 262.734545 109.728 
L 264.357818 102.816 
L 265.981091 97.632 
L 267.604364 107.136 
L 269.227636 98.496 
L 270.850909 103.68 
L 272.474182 97.632 
L 274.097455 109.296 
L 275.720727 96.768 
L 277.344 93.312 
L 278.967273 91.584 
L 280.590545 101.088 
L 282.213818 99.792 
L 283.837091 93.312 
L 287.083636 101.088 
L 288.706909 92.016 
L 290.330182 96.336 
L 291.953455 104.112 
L 293.576727 100.224 
L 295.2 101.52 
L 296.823273 88.128 
L 298.446545 101.52 
L 300.069818 95.04 
L 301.693091 104.976 
L 303.316364 99.792 
L 304.939636 95.904 
L 306.562909 98.064 
L 308.186182 103.68 
L 309.809455 96.768 
L 311.432727 103.248 
L 313.056 107.136 
L 314.679273 104.112 
L 316.302545 93.744 
L 317.925818 100.656 
L 319.549091 94.608 
L 321.172364 103.68 
L 322.795636 91.152 
L 324.418909 105.84 
L 326.042182 109.728 
L 327.665455 94.176 
L 329.288727 94.176 
L 330.912 102.384 
L 332.535273 88.992 
L 334.158545 98.928 
L 335.781818 91.584 
L 337.405091 101.088 
L 339.028364 107.136 
L 340.651636 95.904 
L 342.274909 102.384 
L 343.898182 93.312 
L 345.521455 100.224 
L 347.144727 85.536 
L 348.768 95.04 
L 350.391273 99.792 
L 352.014545 98.064 
L 353.637818 92.448 
L 355.261091 94.176 
L 356.884364 91.584 
L 358.507636 100.224 
L 360.130909 101.952 
L 361.754182 88.128 
L 363.377455 105.84 
L 365.000727 88.128 
L 366.624 90.72 
L 368.247273 90.288 
L 369.870545 103.68 
L 371.493818 98.064 
L 373.117091 93.744 
L 374.740364 102.816 
L 376.363636 91.152 
L 377.986909 101.52 
L 379.610182 93.744 
L 381.233455 93.312 
L 382.856727 104.112 
L 384.48 96.336 
L 386.103273 96.768 
L 387.726545 98.496 
L 389.349818 98.064 
L 390.973091 98.496 
L 392.596364 88.992 
L 394.219636 102.384 
L 395.842909 75.168 
L 397.466182 97.2 
L 399.089455 93.312 
L 400.712727 84.672 
L 402.336 98.496 
L 403.959273 98.496 
L 405.582545 100.224 
L 407.205818 113.184 
L 408.829091 95.04 
L 410.452364 103.248 
L 412.075636 95.04 
L 413.698909 89.856 
L 415.322182 85.968 
L 416.945455 96.768 
L 418.568727 85.104 
L 420.192 88.128 
L 421.815273 95.904 
L 423.438545 99.36 
L 425.061818 82.08 
L 426.685091 94.608 
L 428.308364 96.336 
L 429.931636 90.72 
L 431.554909 92.88 
L 433.178182 88.56 
L 434.801455 101.088 
L 436.424727 85.536 
L 438.048 90.72 
L 439.671273 92.016 
L 441.294545 88.56 
L 442.917818 88.56 
L 444.541091 90.72 
L 446.164364 98.064 
L 447.787636 92.016 
L 449.410909 90.72 
L 451.034182 94.176 
L 452.657455 90.72 
L 454.280727 84.24 
L 455.904 95.904 
L 457.527273 94.608 
L 459.150545 94.176 
L 460.773818 97.2 
L 462.397091 104.544 
L 464.020364 85.536 
L 465.643636 90.72 
L 467.266909 98.496 
L 468.890182 97.632 
L 470.513455 86.832 
L 472.136727 88.992 
L 473.76 100.656 
L 475.383273 86.832 
L 477.006545 92.016 
L 478.629818 79.056 
L 480.253091 102.384 
L 481.876364 82.08 
L 483.499636 98.928 
L 485.122909 84.24 
L 486.746182 93.312 
L 488.369455 92.448 
L 489.992727 87.696 
L 491.616 91.152 
L 493.239273 85.968 
L 494.862545 93.744 
L 496.485818 82.512 
L 498.109091 92.016 
L 498.109091 92.016 
" clip-path="url(#pa9f4276c58)" style="fill: none; stroke: #1f77b4; stroke-width: 1.5; stroke-linecap: square"/>
   </g>
   <g id="line2d_26">
    <path d="M 92.290909 369.36 
L 93.914182 358.992 
L 95.537455 328.752 
L 97.160727 317.52 
L 98.784 319.68 
L 100.407273 298.944 
L 102.030545 311.472 
L 103.653818 301.536 
L 105.277091 289.008 
L 106.900364 251.856 
L 108.523636 271.728 
L 110.146909 268.704 
L 111.770182 227.232 
L 113.393455 240.624 
L 115.016727 222.912 
L 116.64 216.432 
L 118.263273 212.112 
L 119.886545 216 
L 121.509818 215.568 
L 123.133091 194.832 
L 124.756364 188.352 
L 126.379636 178.848 
L 128.002909 186.192 
L 129.626182 174.528 
L 131.249455 176.256 
L 132.872727 172.368 
L 134.496 167.184 
L 136.119273 162.432 
L 137.742545 157.248 
L 139.365818 154.656 
L 140.989091 153.36 
L 142.612364 162.432 
L 144.235636 151.2 
L 145.858909 149.04 
L 147.482182 145.584 
L 149.105455 138.24 
L 150.728727 147.312 
L 152.352 167.616 
L 155.598545 136.512 
L 157.221818 133.056 
L 158.845091 133.488 
L 160.468364 137.808 
L 162.091636 129.168 
L 163.714909 143.856 
L 165.338182 130.032 
L 166.961455 123.12 
L 168.584727 123.984 
L 170.208 128.736 
L 171.831273 120.096 
L 173.454545 119.664 
L 175.077818 141.696 
L 176.701091 124.416 
L 178.324364 124.416 
L 179.947636 123.552 
L 181.570909 134.352 
L 183.194182 120.528 
L 184.817455 116.208 
L 186.440727 125.28 
L 188.064 109.728 
L 189.687273 105.84 
L 191.310545 122.688 
L 192.933818 109.296 
L 194.557091 116.64 
L 197.803636 114.912 
L 201.050182 106.272 
L 202.673455 111.456 
L 204.296727 116.208 
L 205.92 110.16 
L 207.543273 99.36 
L 209.166545 112.752 
L 210.789818 94.176 
L 212.413091 110.16 
L 214.036364 110.592 
L 215.659636 103.68 
L 217.282909 108.864 
L 218.906182 101.088 
L 220.529455 108 
L 222.152727 98.928 
L 223.776 115.344 
L 225.399273 102.384 
L 227.022545 100.224 
L 228.645818 105.408 
L 230.269091 101.088 
L 231.892364 117.072 
L 233.515636 104.544 
L 235.138909 102.384 
L 236.762182 111.888 
L 238.385455 113.616 
L 240.008727 98.496 
L 241.632 106.704 
L 243.255273 105.84 
L 244.878545 104.112 
L 248.125091 105.84 
L 249.748364 109.296 
L 251.371636 101.52 
L 252.994909 106.272 
L 254.618182 98.064 
L 256.241455 102.384 
L 257.864727 107.136 
L 259.488 102.384 
L 261.111273 98.928 
L 262.734545 92.88 
L 264.357818 93.312 
L 265.981091 85.104 
L 267.604364 95.04 
L 269.227636 95.472 
L 270.850909 88.128 
L 272.474182 101.52 
L 274.097455 95.04 
L 275.720727 92.88 
L 277.344 88.56 
L 278.967273 95.04 
L 280.590545 98.064 
L 282.213818 103.68 
L 283.837091 90.72 
L 285.460364 99.36 
L 287.083636 86.832 
L 290.330182 86.832 
L 291.953455 94.608 
L 295.2 92.016 
L 296.823273 96.768 
L 298.446545 101.088 
L 300.069818 93.312 
L 301.693091 106.272 
L 303.316364 95.904 
L 304.939636 94.176 
L 306.562909 95.472 
L 308.186182 96.336 
L 309.809455 88.128 
L 311.432727 97.632 
L 313.056 93.312 
L 314.679273 93.312 
L 316.302545 92.016 
L 317.925818 89.424 
L 319.549091 98.064 
L 321.172364 94.176 
L 322.795636 81.648 
L 324.418909 96.768 
L 326.042182 94.608 
L 329.288727 85.104 
L 330.912 111.456 
L 332.535273 100.656 
L 334.158545 101.088 
L 335.781818 92.448 
L 337.405091 98.064 
L 339.028364 89.424 
L 340.651636 94.608 
L 342.274909 94.608 
L 343.898182 101.52 
L 345.521455 88.56 
L 348.768 107.568 
L 350.391273 93.744 
L 352.014545 96.768 
L 353.637818 101.088 
L 355.261091 83.376 
L 356.884364 85.104 
L 358.507636 105.408 
L 360.130909 87.696 
L 361.754182 84.672 
L 363.377455 98.928 
L 365.000727 84.24 
L 366.624 104.544 
L 368.247273 96.336 
L 369.870545 104.112 
L 371.493818 88.992 
L 373.117091 107.568 
L 374.740364 70.848 
L 376.363636 93.312 
L 377.986909 88.56 
L 379.610182 98.064 
L 381.233455 91.152 
L 382.856727 97.632 
L 384.48 85.536 
L 386.103273 88.56 
L 387.726545 89.856 
L 390.973091 105.408 
L 392.596364 87.264 
L 394.219636 96.336 
L 395.842909 87.696 
L 397.466182 80.784 
L 399.089455 83.808 
L 400.712727 92.016 
L 402.336 96.336 
L 403.959273 102.816 
L 405.582545 98.064 
L 407.205818 75.6 
L 408.829091 84.24 
L 410.452364 80.352 
L 412.075636 95.04 
L 413.698909 86.4 
L 415.322182 75.168 
L 416.945455 89.856 
L 418.568727 95.472 
L 420.192 92.88 
L 421.815273 102.384 
L 423.438545 87.696 
L 425.061818 87.264 
L 426.685091 85.968 
L 428.308364 87.696 
L 429.931636 94.608 
L 431.554909 80.352 
L 433.178182 79.488 
L 434.801455 90.288 
L 436.424727 86.832 
L 438.048 87.264 
L 439.671273 93.312 
L 441.294545 85.536 
L 442.917818 101.952 
L 444.541091 95.472 
L 446.164364 77.328 
L 447.787636 90.288 
L 449.410909 99.36 
L 451.034182 80.784 
L 452.657455 90.288 
L 454.280727 106.272 
L 455.904 98.928 
L 457.527273 86.4 
L 459.150545 85.536 
L 460.773818 90.288 
L 462.397091 89.856 
L 464.020364 93.312 
L 465.643636 85.536 
L 467.266909 90.72 
L 468.890182 87.696 
L 470.513455 90.288 
L 472.136727 86.4 
L 473.76 85.104 
L 475.383273 79.488 
L 477.006545 77.76 
L 478.629818 88.128 
L 480.253091 89.424 
L 481.876364 79.056 
L 483.499636 92.88 
L 485.122909 93.744 
L 486.746182 86.832 
L 488.369455 91.152 
L 491.616 92.016 
L 493.239273 79.056 
L 494.862545 94.608 
L 496.485818 87.696 
L 498.109091 85.104 
L 498.109091 85.104 
" clip-path="url(#pa9f4276c58)" style="fill: none; stroke: #ff7f0e; stroke-width: 1.5; stroke-linecap: square"/>
   </g>
   <g id="line2d_27">
    <path d="M 92.290909 366.768 
L 93.914182 339.552 
L 95.537455 332.64 
L 97.160727 295.056 
L 98.784 300.24 
L 100.407273 297.216 
L 102.030545 307.584 
L 103.653818 302.4 
L 105.277091 279.504 
L 106.900364 259.2 
L 108.523636 244.944 
L 110.146909 272.592 
L 111.770182 247.104 
L 113.393455 267.408 
L 115.016727 229.824 
L 116.64 212.544 
L 118.263273 206.496 
L 119.886545 209.088 
L 121.509818 214.704 
L 123.133091 199.152 
L 124.756364 186.624 
L 126.379636 182.736 
L 128.002909 177.12 
L 129.626182 163.728 
L 131.249455 180.144 
L 132.872727 186.624 
L 134.496 184.896 
L 136.119273 156.384 
L 137.742545 169.776 
L 139.365818 147.744 
L 140.989091 159.408 
L 142.612364 138.24 
L 144.235636 146.016 
L 145.858909 144.288 
L 147.482182 152.928 
L 149.105455 138.672 
L 150.728727 130.032 
L 152.352 132.192 
L 153.975273 148.608 
L 155.598545 137.808 
L 157.221818 136.512 
L 158.845091 123.984 
L 160.468364 124.416 
L 162.091636 129.6 
L 163.714909 121.392 
L 165.338182 126.144 
L 166.961455 121.392 
L 168.584727 127.44 
L 170.208 113.616 
L 171.831273 130.032 
L 173.454545 120.96 
L 175.077818 127.008 
L 176.701091 111.888 
L 178.324364 112.32 
L 179.947636 125.712 
L 181.570909 123.552 
L 183.194182 117.936 
L 184.817455 115.776 
L 186.440727 116.64 
L 188.064 97.2 
L 189.687273 114.48 
L 191.310545 105.84 
L 192.933818 103.68 
L 194.557091 105.84 
L 196.180364 112.32 
L 197.803636 98.064 
L 199.426909 101.088 
L 201.050182 93.312 
L 202.673455 115.776 
L 204.296727 111.456 
L 205.92 105.84 
L 207.543273 108.864 
L 209.166545 109.728 
L 210.789818 108.864 
L 212.413091 95.04 
L 214.036364 95.472 
L 215.659636 123.552 
L 217.282909 93.744 
L 218.906182 110.16 
L 220.529455 94.176 
L 222.152727 94.608 
L 223.776 98.064 
L 225.399273 98.496 
L 227.022545 104.976 
L 228.645818 99.36 
L 230.269091 88.128 
L 231.892364 93.744 
L 233.515636 101.952 
L 235.138909 94.608 
L 236.762182 85.104 
L 238.385455 98.064 
L 240.008727 103.68 
L 241.632 97.2 
L 243.255273 99.792 
L 244.878545 86.4 
L 246.501818 102.816 
L 248.125091 102.816 
L 249.748364 108 
L 251.371636 90.72 
L 252.994909 101.088 
L 254.618182 96.336 
L 256.241455 98.064 
L 257.864727 82.08 
L 259.488 93.312 
L 261.111273 93.312 
L 262.734545 88.56 
L 264.357818 85.536 
L 265.981091 88.128 
L 267.604364 95.472 
L 269.227636 89.424 
L 270.850909 91.584 
L 272.474182 98.928 
L 274.097455 89.424 
L 275.720727 87.264 
L 277.344 84.672 
L 278.967273 89.856 
L 280.590545 82.08 
L 282.213818 85.968 
L 283.837091 95.04 
L 285.460364 87.264 
L 287.083636 92.88 
L 288.706909 82.512 
L 290.330182 87.264 
L 291.953455 79.92 
L 293.576727 88.992 
L 295.2 84.672 
L 296.823273 86.832 
L 298.446545 79.92 
L 300.069818 88.128 
L 301.693091 73.872 
L 303.316364 78.192 
L 304.939636 89.856 
L 306.562909 89.856 
L 308.186182 88.128 
L 309.809455 80.784 
L 311.432727 93.312 
L 313.056 91.152 
L 314.679273 82.512 
L 316.302545 82.944 
L 317.925818 98.928 
L 319.549091 90.72 
L 321.172364 88.56 
L 322.795636 84.672 
L 324.418909 90.72 
L 326.042182 90.288 
L 329.288727 85.104 
L 330.912 89.424 
L 332.535273 91.584 
L 334.158545 86.4 
L 337.405091 86.4 
L 339.028364 88.992 
L 340.651636 89.856 
L 342.274909 89.424 
L 343.898182 92.448 
L 345.521455 81.648 
L 347.144727 95.904 
L 348.768 95.904 
L 350.391273 82.08 
L 352.014545 88.128 
L 353.637818 80.784 
L 355.261091 82.944 
L 356.884364 82.512 
L 358.507636 89.424 
L 360.130909 78.624 
L 361.754182 98.064 
L 363.377455 80.784 
L 365.000727 87.264 
L 366.624 87.264 
L 368.247273 82.08 
L 369.870545 91.584 
L 371.493818 89.856 
L 373.117091 72.144 
L 374.740364 75.168 
L 376.363636 92.016 
L 377.986909 99.36 
L 379.610182 88.992 
L 381.233455 71.28 
L 382.856727 72.576 
L 384.48 70.848 
L 386.103273 77.328 
L 387.726545 92.016 
L 389.349818 87.264 
L 390.973091 89.856 
L 392.596364 85.968 
L 394.219636 75.6 
L 397.466182 85.968 
L 399.089455 84.24 
L 400.712727 75.168 
L 402.336 79.056 
L 403.959273 78.192 
L 405.582545 88.992 
L 407.205818 91.152 
L 408.829091 76.464 
L 410.452364 76.464 
L 412.075636 87.264 
L 413.698909 89.424 
L 415.322182 79.92 
L 416.945455 86.4 
L 418.568727 97.2 
L 420.192 88.128 
L 421.815273 84.672 
L 423.438545 90.288 
L 425.061818 86.832 
L 426.685091 95.04 
L 428.308364 92.016 
L 429.931636 75.6 
L 433.178182 89.856 
L 434.801455 80.784 
L 436.424727 77.328 
L 438.048 78.624 
L 439.671273 85.104 
L 441.294545 79.92 
L 442.917818 84.672 
L 444.541091 73.44 
L 446.164364 78.624 
L 447.787636 95.472 
L 449.410909 92.88 
L 451.034182 79.488 
L 452.657455 83.808 
L 454.280727 82.08 
L 455.904 95.472 
L 457.527273 80.352 
L 459.150545 76.464 
L 460.773818 91.152 
L 462.397091 86.4 
L 464.020364 81.216 
L 465.643636 82.512 
L 467.266909 102.384 
L 468.890182 79.92 
L 470.513455 85.968 
L 472.136727 87.264 
L 473.76 73.872 
L 475.383273 79.488 
L 477.006545 88.992 
L 478.629818 88.128 
L 480.253091 88.128 
L 481.876364 84.672 
L 483.499636 82.08 
L 485.122909 89.856 
L 486.746182 79.488 
L 488.369455 75.168 
L 489.992727 84.24 
L 491.616 85.104 
L 493.239273 71.28 
L 494.862545 71.28 
L 496.485818 77.328 
L 498.109091 71.712 
L 498.109091 71.712 
" clip-path="url(#pa9f4276c58)" style="fill: none; stroke: #2ca02c; stroke-width: 1.5; stroke-linecap: square"/>
   </g>
   <g id="line2d_28">
    <path d="M 92.290909 341.712 
L 93.914182 343.008 
L 95.537455 350.352 
L 97.160727 367.2 
L 98.784 327.024 
L 100.407273 296.352 
L 102.030545 286.848 
L 103.653818 281.664 
L 105.277091 296.784 
L 106.900364 317.088 
L 108.523636 273.888 
L 110.146909 261.36 
L 111.770182 229.824 
L 113.393455 260.496 
L 115.016727 226.368 
L 116.64 219.024 
L 118.263273 190.944 
L 119.886545 232.848 
L 121.509818 206.496 
L 123.133091 202.176 
L 124.756364 188.352 
L 126.379636 192.24 
L 128.002909 178.848 
L 129.626182 183.168 
L 131.249455 184.464 
L 132.872727 177.552 
L 134.496 175.392 
L 136.119273 176.688 
L 137.742545 165.888 
L 139.365818 145.584 
L 140.989091 152.496 
L 142.612364 148.608 
L 144.235636 157.68 
L 145.858909 151.2 
L 149.105455 143.424 
L 150.728727 125.712 
L 152.352 132.192 
L 153.975273 124.416 
L 155.598545 136.944 
L 157.221818 130.032 
L 158.845091 142.56 
L 160.468364 132.624 
L 162.091636 121.824 
L 163.714909 123.552 
L 165.338182 127.872 
L 166.961455 113.184 
L 168.584727 117.504 
L 170.208 114.048 
L 171.831273 124.848 
L 173.454545 120.528 
L 175.077818 126.144 
L 176.701091 125.712 
L 178.324364 121.824 
L 179.947636 112.752 
L 181.570909 110.16 
L 183.194182 121.824 
L 184.817455 127.008 
L 186.440727 105.84 
L 188.064 120.96 
L 189.687273 115.776 
L 191.310545 116.208 
L 192.933818 111.456 
L 194.557091 114.48 
L 196.180364 103.68 
L 197.803636 109.296 
L 199.426909 107.136 
L 201.050182 105.408 
L 202.673455 100.656 
L 204.296727 115.776 
L 205.92 103.68 
L 207.543273 100.224 
L 209.166545 108.864 
L 210.789818 111.456 
L 212.413091 106.272 
L 214.036364 103.68 
L 215.659636 112.32 
L 217.282909 98.928 
L 218.906182 97.632 
L 220.529455 93.744 
L 222.152727 98.496 
L 225.399273 87.264 
L 227.022545 99.36 
L 228.645818 96.768 
L 230.269091 99.792 
L 231.892364 105.408 
L 233.515636 97.632 
L 235.138909 97.632 
L 236.762182 94.608 
L 238.385455 95.04 
L 240.008727 99.792 
L 241.632 88.128 
L 243.255273 96.336 
L 244.878545 90.72 
L 246.501818 98.496 
L 248.125091 95.904 
L 249.748364 92.448 
L 251.371636 91.584 
L 252.994909 91.584 
L 254.618182 102.384 
L 256.241455 92.88 
L 257.864727 84.672 
L 259.488 82.944 
L 261.111273 97.2 
L 262.734545 97.2 
L 264.357818 83.376 
L 265.981091 88.128 
L 267.604364 102.384 
L 269.227636 104.976 
L 270.850909 91.152 
L 272.474182 95.04 
L 274.097455 96.768 
L 275.720727 93.312 
L 277.344 89.424 
L 278.967273 89.856 
L 280.590545 92.448 
L 282.213818 82.944 
L 283.837091 79.92 
L 285.460364 107.568 
L 287.083636 84.672 
L 288.706909 92.88 
L 290.330182 98.928 
L 291.953455 79.92 
L 293.576727 99.36 
L 295.2 83.376 
L 296.823273 94.608 
L 298.446545 95.472 
L 300.069818 78.192 
L 301.693091 89.856 
L 303.316364 88.128 
L 304.939636 96.768 
L 306.562909 81.648 
L 308.186182 88.128 
L 309.809455 85.968 
L 311.432727 89.424 
L 313.056 84.24 
L 314.679273 93.744 
L 316.302545 95.472 
L 317.925818 96.336 
L 319.549091 95.04 
L 321.172364 88.56 
L 322.795636 88.992 
L 324.418909 88.128 
L 326.042182 91.584 
L 327.665455 89.856 
L 329.288727 89.424 
L 330.912 75.168 
L 332.535273 84.672 
L 334.158545 82.944 
L 335.781818 97.2 
L 337.405091 82.512 
L 339.028364 83.808 
L 340.651636 81.648 
L 342.274909 91.152 
L 343.898182 83.376 
L 345.521455 90.72 
L 347.144727 82.08 
L 348.768 89.424 
L 350.391273 93.312 
L 352.014545 76.896 
L 353.637818 85.104 
L 355.261091 89.856 
L 356.884364 84.24 
L 358.507636 83.376 
L 360.130909 86.4 
L 361.754182 86.4 
L 363.377455 92.448 
L 365.000727 90.72 
L 366.624 93.744 
L 368.247273 75.168 
L 369.870545 69.552 
L 371.493818 84.672 
L 373.117091 79.92 
L 374.740364 85.536 
L 376.363636 82.944 
L 377.986909 82.944 
L 379.610182 77.328 
L 381.233455 88.128 
L 382.856727 95.904 
L 384.48 92.016 
L 386.103273 82.08 
L 387.726545 81.216 
L 389.349818 93.744 
L 390.973091 76.464 
L 392.596364 89.424 
L 394.219636 83.376 
L 395.842909 86.4 
L 397.466182 80.352 
L 399.089455 79.056 
L 400.712727 90.72 
L 402.336 71.28 
L 403.959273 76.032 
L 405.582545 79.92 
L 407.205818 81.648 
L 408.829091 84.24 
L 410.452364 77.76 
L 412.075636 78.192 
L 413.698909 66.96 
L 415.322182 84.672 
L 416.945455 77.328 
L 418.568727 82.944 
L 420.192 74.736 
L 421.815273 75.6 
L 423.438545 71.712 
L 425.061818 77.328 
L 426.685091 75.6 
L 428.308364 88.128 
L 429.931636 82.08 
L 431.554909 89.424 
L 433.178182 83.376 
L 434.801455 81.648 
L 436.424727 86.832 
L 438.048 92.88 
L 439.671273 85.536 
L 441.294545 82.08 
L 442.917818 85.968 
L 444.541091 73.44 
L 446.164364 73.872 
L 447.787636 90.72 
L 449.410909 77.328 
L 451.034182 87.696 
L 452.657455 75.6 
L 454.280727 70.848 
L 455.904 81.216 
L 457.527273 69.552 
L 459.150545 87.264 
L 460.773818 67.824 
L 462.397091 91.584 
L 464.020364 83.808 
L 465.643636 95.472 
L 467.266909 85.968 
L 470.513455 85.104 
L 472.136727 79.92 
L 473.76 84.672 
L 475.383273 84.24 
L 477.006545 82.944 
L 478.629818 75.6 
L 480.253091 74.736 
L 481.876364 86.4 
L 483.499636 73.44 
L 485.122909 85.536 
L 486.746182 73.008 
L 488.369455 79.056 
L 489.992727 75.168 
L 491.616 88.128 
L 493.239273 82.944 
L 494.862545 78.624 
L 496.485818 79.056 
L 498.109091 75.168 
L 498.109091 75.168 
" clip-path="url(#pa9f4276c58)" style="fill: none; stroke: #d62728; stroke-width: 1.5; stroke-linecap: square"/>
   </g>
   <g id="patch_3">
    <path d="M 72 384.48 
L 72 51.84 
" style="fill: none; stroke: #000000; stroke-width: 0.8; stroke-linejoin: miter; stroke-linecap: square"/>
   </g>
   <g id="patch_4">
    <path d="M 518.4 384.48 
L 518.4 51.84 
" style="fill: none; stroke: #000000; stroke-width: 0.8; stroke-linejoin: miter; stroke-linecap: square"/>
   </g>
   <g id="patch_5">
    <path d="M 72 384.48 
L 518.4 384.48 
" style="fill: none; stroke: #000000; stroke-width: 0.8; stroke-linejoin: miter; stroke-linecap: square"/>
   </g>
   <g id="patch_6">
    <path d="M 72 51.84 
L 518.4 51.84 
" style="fill: none; stroke: #000000; stroke-width: 0.8; stroke-linejoin: miter; stroke-linecap: square"/>
   </g>
   <g id="text_15">
    <!-- Clustered-Common -->
    <g transform="translate(237.350625 45.84)scale(0.12 -0.12)">
     <defs>
      <path id="DejaVuSans-6c" d="M 603 4863 
L 1178 4863 
L 1178 0 
L 603 0 
L 603 4863 
z
" transform="scale(0.015625)"/>
      <path id="DejaVuSans-65" d="M 3597 1894 
L 3597 1613 
L 953 1613 
Q 991 1019 1311 708 
Q 1631 397 2203 397 
Q 2534 397 2845 478 
Q 3156 559 3463 722 
L 3463 178 
Q 3153 47 2828 -22 
Q 2503 -91 2169 -91 
Q 1331 -91 842 396 
Q 353 884 353 1716 
Q 353 2575 817 3079 
Q 1281 3584 2069 3584 
Q 2775 3584 3186 3129 
Q 3597 2675 3597 1894 
z
M 3022 2063 
Q 3016 2534 2758 2815 
Q 2500 3097 2075 3097 
Q 1594 3097 1305 2825 
Q 1016 2553 972 2059 
L 3022 2063 
z
" transform="scale(0.015625)"/>
      <path id="DejaVuSans-2d" d="M 313 2009 
L 1997 2009 
L 1997 1497 
L 313 1497 
L 313 2009 
z
" transform="scale(0.015625)"/>
     </defs>
     <use xlink:href="#DejaVuSans-43"/>
     <use xlink:href="#DejaVuSans-6c" x="69.824219"/>
     <use xlink:href="#DejaVuSans-75" x="97.607422"/>
     <use xlink:href="#DejaVuSans-73" x="160.986328"/>
     <use xlink:href="#DejaVuSans-74" x="213.085938"/>
     <use xlink:href="#DejaVuSans-65" x="252.294922"/>
     <use xlink:href="#DejaVuSans-72" x="313.818359"/>
     <use xlink:href="#DejaVuSans-65" x="352.681641"/>
     <use xlink:href="#DejaVuSans-64" x="414.205078"/>
     <use xlink:href="#DejaVuSans-2d" x="477.681641"/>
     <use xlink:href="#DejaVuSans-43" x="513.765625"/>
     <use xlink:href="#DejaVuSans-6f" x="583.589844"/>
     <use xlink:href="#DejaVuSans-6d" x="644.771484"/>
     <use xlink:href="#DejaVuSans-6d" x="742.183594"/>
     <use xlink:href="#DejaVuSans-6f" x="839.595703"/>
     <use xlink:href="#DejaVuSans-6e" x="900.777344"/>
    </g>
   </g>
   <g id="legend_1">
    <g id="patch_7">
     <path d="M 79 118.5525 
L 124.203125 118.5525 
Q 126.203125 118.5525 126.203125 116.5525 
L 126.203125 58.84 
Q 126.203125 56.84 124.203125 56.84 
L 79 56.84 
Q 77 56.84 77 58.84 
L 77 116.5525 
Q 77 118.5525 79 118.5525 
z
" style="fill: #ffffff; opacity: 0.8; stroke: #cccccc; stroke-linejoin: miter"/>
    </g>
    <g id="line2d_29">
     <path d="M 81 64.938438 
L 91 64.938438 
L 101 64.938438 
" style="fill: none; stroke: #1f77b4; stroke-width: 1.5; stroke-linecap: square"/>
    </g>
    <g id="text_16">
     <!-- V1 -->
     <g transform="translate(109 68.438438)scale(0.1 -0.1)">
      <defs>
       <path id="DejaVuSans-56" d="M 1831 0 
L 50 4666 
L 709 4666 
L 2188 738 
L 3669 4666 
L 4325 4666 
L 2547 0 
L 1831 0 
z
" transform="scale(0.015625)"/>
      </defs>
      <use xlink:href="#DejaVuSans-56"/>
      <use xlink:href="#DejaVuSans-31" x="68.408203"/>
     </g>
    </g>
    <g id="line2d_30">
     <path d="M 81 79.616563 
L 91 79.616563 
L 101 79.616563 
" style="fill: none; stroke: #ff7f0e; stroke-width: 1.5; stroke-linecap: square"/>
    </g>
    <g id="text_17">
     <!-- V2 -->
     <g transform="translate(109 83.116563)scale(0.1 -0.1)">
      <use xlink:href="#DejaVuSans-56"/>
      <use xlink:href="#DejaVuSans-32" x="68.408203"/>
     </g>
    </g>
    <g id="line2d_31">
     <path d="M 81 94.294688 
L 91 94.294688 
L 101 94.294688 
" style="fill: none; stroke: #2ca02c; stroke-width: 1.5; stroke-linecap: square"/>
    </g>
    <g id="text_18">
     <!-- V3 -->
     <g transform="translate(109 97.794688)scale(0.1 -0.1)">
      <use xlink:href="#DejaVuSans-56"/>
      <use xlink:href="#DejaVuSans-33" x="68.408203"/>
     </g>
    </g>
    <g id="line2d_32">
     <path d="M 81 108.972813 
L 91 108.972813 
L 101 108.972813 
" style="fill: none; stroke: #d62728; stroke-width: 1.5; stroke-linecap: square"/>
    </g>
    <g id="text_19">
     <!-- V4 -->
     <g transform="translate(109 112.472813)scale(0.1 -0.1)">
      <use xlink:href="#DejaVuSans-56"/>
      <use xlink:href="#DejaVuSans-34" x="68.408203"/>
     </g>
    </g>
   </g>
  </g>
 </g>
 <defs>
  <clipPath id="pa9f4276c58">
   <rect x="72" y="51.84" width="446.4" height="332.64"/>
  </clipPath>
 </defs>
</svg>
