<?xml version="1.0" encoding="utf-8" standalone="no"?>
<!DOCTYPE svg PUBLIC "-//W3C//DTD SVG 1.1//EN"
  "http://www.w3.org/Graphics/SVG/1.1/DTD/svg11.dtd">
<svg xmlns:xlink="http://www.w3.org/1999/xlink" width="576pt" height="432pt" viewBox="0 0 576 432" xmlns="http://www.w3.org/2000/svg" version="1.1">
 <metadata>
  <rdf:RDF xmlns:dc="http://purl.org/dc/elements/1.1/" xmlns:cc="http://creativecommons.org/ns#" xmlns:rdf="http://www.w3.org/1999/02/22-rdf-syntax-ns#">
   <cc:Work>
    <dc:type rdf:resource="http://purl.org/dc/dcmitype/StillImage"/>
    <dc:date>2023-08-07T11:27:59.889529</dc:date>
    <dc:format>image/svg+xml</dc:format>
    <dc:creator>
     <cc:Agent>
      <dc:title>Matplotlib v3.5.2, https://matplotlib.org/</dc:title>
     </cc:Agent>
    </dc:creator>
   </cc:Work>
  </rdf:RDF>
 </metadata>
 <defs>
  <style type="text/css">*{stroke-linejoin: round; stroke-linecap: butt}</style>
 </defs>
 <g id="figure_1">
  <g id="patch_1">
   <path d="M 0 432 
L 576 432 
L 576 0 
L 0 0 
z
" style="fill: #ffffff"/>
  </g>
  <g id="axes_1">
   <g id="patch_2">
    <path d="M 72 384.48 
L 518.4 384.48 
L 518.4 51.84 
L 72 51.84 
z
" style="fill: #ffffff"/>
   </g>
   <g id="matplotlib.axis_1">
    <g id="xtick_1">
     <g id="line2d_1">
      <path d="M 92.290909 384.48 
L 92.290909 51.84 
" clip-path="url(#p181045d538)" style="fill: none; stroke: #b0b0b0; stroke-opacity: 0.5; stroke-width: 0.8; stroke-linecap: square"/>
     </g>
     <g id="line2d_2">
      <defs>
       <path id="m0600a0cae7" d="M 0 0 
L 0 3.5 
" style="stroke: #000000; stroke-width: 0.8"/>
      </defs>
      <g>
       <use xlink:href="#m0600a0cae7" x="92.290909" y="384.48" style="stroke: #000000; stroke-width: 0.8"/>
      </g>
     </g>
     <g id="text_1">
      <!-- 0 -->
      <g transform="translate(89.109659 399.078438)scale(0.1 -0.1)">
       <defs>
        <path id="DejaVuSans-30" d="M 2034 4250 
Q 1547 4250 1301 3770 
Q 1056 3291 1056 2328 
Q 1056 1369 1301 889 
Q 1547 409 2034 409 
Q 2525 409 2770 889 
Q 3016 1369 3016 2328 
Q 3016 3291 2770 3770 
Q 2525 4250 2034 4250 
z
M 2034 4750 
Q 2819 4750 3233 4129 
Q 3647 3509 3647 2328 
Q 3647 1150 3233 529 
Q 2819 -91 2034 -91 
Q 1250 -91 836 529 
Q 422 1150 422 2328 
Q 422 3509 836 4129 
Q 1250 4750 2034 4750 
z
" transform="scale(0.015625)"/>
       </defs>
       <use xlink:href="#DejaVuSans-30"/>
      </g>
     </g>
    </g>
    <g id="xtick_2">
     <g id="line2d_3">
      <path d="M 173.454545 384.48 
L 173.454545 51.84 
" clip-path="url(#p181045d538)" style="fill: none; stroke: #b0b0b0; stroke-opacity: 0.5; stroke-width: 0.8; stroke-linecap: square"/>
     </g>
     <g id="line2d_4">
      <g>
       <use xlink:href="#m0600a0cae7" x="173.454545" y="384.48" style="stroke: #000000; stroke-width: 0.8"/>
      </g>
     </g>
     <g id="text_2">
      <!-- 50 -->
      <g transform="translate(167.092045 399.078438)scale(0.1 -0.1)">
       <defs>
        <path id="DejaVuSans-35" d="M 691 4666 
L 3169 4666 
L 3169 4134 
L 1269 4134 
L 1269 2991 
Q 1406 3038 1543 3061 
Q 1681 3084 1819 3084 
Q 2600 3084 3056 2656 
Q 3513 2228 3513 1497 
Q 3513 744 3044 326 
Q 2575 -91 1722 -91 
Q 1428 -91 1123 -41 
Q 819 9 494 109 
L 494 744 
Q 775 591 1075 516 
Q 1375 441 1709 441 
Q 2250 441 2565 725 
Q 2881 1009 2881 1497 
Q 2881 1984 2565 2268 
Q 2250 2553 1709 2553 
Q 1456 2553 1204 2497 
Q 953 2441 691 2322 
L 691 4666 
z
" transform="scale(0.015625)"/>
       </defs>
       <use xlink:href="#DejaVuSans-35"/>
       <use xlink:href="#DejaVuSans-30" x="63.623047"/>
      </g>
     </g>
    </g>
    <g id="xtick_3">
     <g id="line2d_5">
      <path d="M 254.618182 384.48 
L 254.618182 51.84 
" clip-path="url(#p181045d538)" style="fill: none; stroke: #b0b0b0; stroke-opacity: 0.5; stroke-width: 0.8; stroke-linecap: square"/>
     </g>
     <g id="line2d_6">
      <g>
       <use xlink:href="#m0600a0cae7" x="254.618182" y="384.48" style="stroke: #000000; stroke-width: 0.8"/>
      </g>
     </g>
     <g id="text_3">
      <!-- 100 -->
      <g transform="translate(245.074432 399.078438)scale(0.1 -0.1)">
       <defs>
        <path id="DejaVuSans-31" d="M 794 531 
L 1825 531 
L 1825 4091 
L 703 3866 
L 703 4441 
L 1819 4666 
L 2450 4666 
L 2450 531 
L 3481 531 
L 3481 0 
L 794 0 
L 794 531 
z
" transform="scale(0.015625)"/>
       </defs>
       <use xlink:href="#DejaVuSans-31"/>
       <use xlink:href="#DejaVuSans-30" x="63.623047"/>
       <use xlink:href="#DejaVuSans-30" x="127.246094"/>
      </g>
     </g>
    </g>
    <g id="xtick_4">
     <g id="line2d_7">
      <path d="M 335.781818 384.48 
L 335.781818 51.84 
" clip-path="url(#p181045d538)" style="fill: none; stroke: #b0b0b0; stroke-opacity: 0.5; stroke-width: 0.8; stroke-linecap: square"/>
     </g>
     <g id="line2d_8">
      <g>
       <use xlink:href="#m0600a0cae7" x="335.781818" y="384.48" style="stroke: #000000; stroke-width: 0.8"/>
      </g>
     </g>
     <g id="text_4">
      <!-- 150 -->
      <g transform="translate(326.238068 399.078438)scale(0.1 -0.1)">
       <use xlink:href="#DejaVuSans-31"/>
       <use xlink:href="#DejaVuSans-35" x="63.623047"/>
       <use xlink:href="#DejaVuSans-30" x="127.246094"/>
      </g>
     </g>
    </g>
    <g id="xtick_5">
     <g id="line2d_9">
      <path d="M 416.945455 384.48 
L 416.945455 51.84 
" clip-path="url(#p181045d538)" style="fill: none; stroke: #b0b0b0; stroke-opacity: 0.5; stroke-width: 0.8; stroke-linecap: square"/>
     </g>
     <g id="line2d_10">
      <g>
       <use xlink:href="#m0600a0cae7" x="416.945455" y="384.48" style="stroke: #000000; stroke-width: 0.8"/>
      </g>
     </g>
     <g id="text_5">
      <!-- 200 -->
      <g transform="translate(407.401705 399.078438)scale(0.1 -0.1)">
       <defs>
        <path id="DejaVuSans-32" d="M 1228 531 
L 3431 531 
L 3431 0 
L 469 0 
L 469 531 
Q 828 903 1448 1529 
Q 2069 2156 2228 2338 
Q 2531 2678 2651 2914 
Q 2772 3150 2772 3378 
Q 2772 3750 2511 3984 
Q 2250 4219 1831 4219 
Q 1534 4219 1204 4116 
Q 875 4013 500 3803 
L 500 4441 
Q 881 4594 1212 4672 
Q 1544 4750 1819 4750 
Q 2544 4750 2975 4387 
Q 3406 4025 3406 3419 
Q 3406 3131 3298 2873 
Q 3191 2616 2906 2266 
Q 2828 2175 2409 1742 
Q 1991 1309 1228 531 
z
" transform="scale(0.015625)"/>
       </defs>
       <use xlink:href="#DejaVuSans-32"/>
       <use xlink:href="#DejaVuSans-30" x="63.623047"/>
       <use xlink:href="#DejaVuSans-30" x="127.246094"/>
      </g>
     </g>
    </g>
    <g id="xtick_6">
     <g id="line2d_11">
      <path d="M 498.109091 384.48 
L 498.109091 51.84 
" clip-path="url(#p181045d538)" style="fill: none; stroke: #b0b0b0; stroke-opacity: 0.5; stroke-width: 0.8; stroke-linecap: square"/>
     </g>
     <g id="line2d_12">
      <g>
       <use xlink:href="#m0600a0cae7" x="498.109091" y="384.48" style="stroke: #000000; stroke-width: 0.8"/>
      </g>
     </g>
     <g id="text_6">
      <!-- 250 -->
      <g transform="translate(488.565341 399.078438)scale(0.1 -0.1)">
       <use xlink:href="#DejaVuSans-32"/>
       <use xlink:href="#DejaVuSans-35" x="63.623047"/>
       <use xlink:href="#DejaVuSans-30" x="127.246094"/>
      </g>
     </g>
    </g>
    <g id="text_7">
     <!-- Communication rounds -->
     <g transform="translate(237.083594 412.756563)scale(0.1 -0.1)">
      <defs>
       <path id="DejaVuSans-43" d="M 4122 4306 
L 4122 3641 
Q 3803 3938 3442 4084 
Q 3081 4231 2675 4231 
Q 1875 4231 1450 3742 
Q 1025 3253 1025 2328 
Q 1025 1406 1450 917 
Q 1875 428 2675 428 
Q 3081 428 3442 575 
Q 3803 722 4122 1019 
L 4122 359 
Q 3791 134 3420 21 
Q 3050 -91 2638 -91 
Q 1578 -91 968 557 
Q 359 1206 359 2328 
Q 359 3453 968 4101 
Q 1578 4750 2638 4750 
Q 3056 4750 3426 4639 
Q 3797 4528 4122 4306 
z
" transform="scale(0.015625)"/>
       <path id="DejaVuSans-6f" d="M 1959 3097 
Q 1497 3097 1228 2736 
Q 959 2375 959 1747 
Q 959 1119 1226 758 
Q 1494 397 1959 397 
Q 2419 397 2687 759 
Q 2956 1122 2956 1747 
Q 2956 2369 2687 2733 
Q 2419 3097 1959 3097 
z
M 1959 3584 
Q 2709 3584 3137 3096 
Q 3566 2609 3566 1747 
Q 3566 888 3137 398 
Q 2709 -91 1959 -91 
Q 1206 -91 779 398 
Q 353 888 353 1747 
Q 353 2609 779 3096 
Q 1206 3584 1959 3584 
z
" transform="scale(0.015625)"/>
       <path id="DejaVuSans-6d" d="M 3328 2828 
Q 3544 3216 3844 3400 
Q 4144 3584 4550 3584 
Q 5097 3584 5394 3201 
Q 5691 2819 5691 2113 
L 5691 0 
L 5113 0 
L 5113 2094 
Q 5113 2597 4934 2840 
Q 4756 3084 4391 3084 
Q 3944 3084 3684 2787 
Q 3425 2491 3425 1978 
L 3425 0 
L 2847 0 
L 2847 2094 
Q 2847 2600 2669 2842 
Q 2491 3084 2119 3084 
Q 1678 3084 1418 2786 
Q 1159 2488 1159 1978 
L 1159 0 
L 581 0 
L 581 3500 
L 1159 3500 
L 1159 2956 
Q 1356 3278 1631 3431 
Q 1906 3584 2284 3584 
Q 2666 3584 2933 3390 
Q 3200 3197 3328 2828 
z
" transform="scale(0.015625)"/>
       <path id="DejaVuSans-75" d="M 544 1381 
L 544 3500 
L 1119 3500 
L 1119 1403 
Q 1119 906 1312 657 
Q 1506 409 1894 409 
Q 2359 409 2629 706 
Q 2900 1003 2900 1516 
L 2900 3500 
L 3475 3500 
L 3475 0 
L 2900 0 
L 2900 538 
Q 2691 219 2414 64 
Q 2138 -91 1772 -91 
Q 1169 -91 856 284 
Q 544 659 544 1381 
z
M 1991 3584 
L 1991 3584 
z
" transform="scale(0.015625)"/>
       <path id="DejaVuSans-6e" d="M 3513 2113 
L 3513 0 
L 2938 0 
L 2938 2094 
Q 2938 2591 2744 2837 
Q 2550 3084 2163 3084 
Q 1697 3084 1428 2787 
Q 1159 2491 1159 1978 
L 1159 0 
L 581 0 
L 581 3500 
L 1159 3500 
L 1159 2956 
Q 1366 3272 1645 3428 
Q 1925 3584 2291 3584 
Q 2894 3584 3203 3211 
Q 3513 2838 3513 2113 
z
" transform="scale(0.015625)"/>
       <path id="DejaVuSans-69" d="M 603 3500 
L 1178 3500 
L 1178 0 
L 603 0 
L 603 3500 
z
M 603 4863 
L 1178 4863 
L 1178 4134 
L 603 4134 
L 603 4863 
z
" transform="scale(0.015625)"/>
       <path id="DejaVuSans-63" d="M 3122 3366 
L 3122 2828 
Q 2878 2963 2633 3030 
Q 2388 3097 2138 3097 
Q 1578 3097 1268 2742 
Q 959 2388 959 1747 
Q 959 1106 1268 751 
Q 1578 397 2138 397 
Q 2388 397 2633 464 
Q 2878 531 3122 666 
L 3122 134 
Q 2881 22 2623 -34 
Q 2366 -91 2075 -91 
Q 1284 -91 818 406 
Q 353 903 353 1747 
Q 353 2603 823 3093 
Q 1294 3584 2113 3584 
Q 2378 3584 2631 3529 
Q 2884 3475 3122 3366 
z
" transform="scale(0.015625)"/>
       <path id="DejaVuSans-61" d="M 2194 1759 
Q 1497 1759 1228 1600 
Q 959 1441 959 1056 
Q 959 750 1161 570 
Q 1363 391 1709 391 
Q 2188 391 2477 730 
Q 2766 1069 2766 1631 
L 2766 1759 
L 2194 1759 
z
M 3341 1997 
L 3341 0 
L 2766 0 
L 2766 531 
Q 2569 213 2275 61 
Q 1981 -91 1556 -91 
Q 1019 -91 701 211 
Q 384 513 384 1019 
Q 384 1609 779 1909 
Q 1175 2209 1959 2209 
L 2766 2209 
L 2766 2266 
Q 2766 2663 2505 2880 
Q 2244 3097 1772 3097 
Q 1472 3097 1187 3025 
Q 903 2953 641 2809 
L 641 3341 
Q 956 3463 1253 3523 
Q 1550 3584 1831 3584 
Q 2591 3584 2966 3190 
Q 3341 2797 3341 1997 
z
" transform="scale(0.015625)"/>
       <path id="DejaVuSans-74" d="M 1172 4494 
L 1172 3500 
L 2356 3500 
L 2356 3053 
L 1172 3053 
L 1172 1153 
Q 1172 725 1289 603 
Q 1406 481 1766 481 
L 2356 481 
L 2356 0 
L 1766 0 
Q 1100 0 847 248 
Q 594 497 594 1153 
L 594 3053 
L 172 3053 
L 172 3500 
L 594 3500 
L 594 4494 
L 1172 4494 
z
" transform="scale(0.015625)"/>
       <path id="DejaVuSans-20" transform="scale(0.015625)"/>
       <path id="DejaVuSans-72" d="M 2631 2963 
Q 2534 3019 2420 3045 
Q 2306 3072 2169 3072 
Q 1681 3072 1420 2755 
Q 1159 2438 1159 1844 
L 1159 0 
L 581 0 
L 581 3500 
L 1159 3500 
L 1159 2956 
Q 1341 3275 1631 3429 
Q 1922 3584 2338 3584 
Q 2397 3584 2469 3576 
Q 2541 3569 2628 3553 
L 2631 2963 
z
" transform="scale(0.015625)"/>
       <path id="DejaVuSans-64" d="M 2906 2969 
L 2906 4863 
L 3481 4863 
L 3481 0 
L 2906 0 
L 2906 525 
Q 2725 213 2448 61 
Q 2172 -91 1784 -91 
Q 1150 -91 751 415 
Q 353 922 353 1747 
Q 353 2572 751 3078 
Q 1150 3584 1784 3584 
Q 2172 3584 2448 3432 
Q 2725 3281 2906 2969 
z
M 947 1747 
Q 947 1113 1208 752 
Q 1469 391 1925 391 
Q 2381 391 2643 752 
Q 2906 1113 2906 1747 
Q 2906 2381 2643 2742 
Q 2381 3103 1925 3103 
Q 1469 3103 1208 2742 
Q 947 2381 947 1747 
z
" transform="scale(0.015625)"/>
       <path id="DejaVuSans-73" d="M 2834 3397 
L 2834 2853 
Q 2591 2978 2328 3040 
Q 2066 3103 1784 3103 
Q 1356 3103 1142 2972 
Q 928 2841 928 2578 
Q 928 2378 1081 2264 
Q 1234 2150 1697 2047 
L 1894 2003 
Q 2506 1872 2764 1633 
Q 3022 1394 3022 966 
Q 3022 478 2636 193 
Q 2250 -91 1575 -91 
Q 1294 -91 989 -36 
Q 684 19 347 128 
L 347 722 
Q 666 556 975 473 
Q 1284 391 1588 391 
Q 1994 391 2212 530 
Q 2431 669 2431 922 
Q 2431 1156 2273 1281 
Q 2116 1406 1581 1522 
L 1381 1569 
Q 847 1681 609 1914 
Q 372 2147 372 2553 
Q 372 3047 722 3315 
Q 1072 3584 1716 3584 
Q 2034 3584 2315 3537 
Q 2597 3491 2834 3397 
z
" transform="scale(0.015625)"/>
      </defs>
      <use xlink:href="#DejaVuSans-43"/>
      <use xlink:href="#DejaVuSans-6f" x="69.824219"/>
      <use xlink:href="#DejaVuSans-6d" x="131.005859"/>
      <use xlink:href="#DejaVuSans-6d" x="228.417969"/>
      <use xlink:href="#DejaVuSans-75" x="325.830078"/>
      <use xlink:href="#DejaVuSans-6e" x="389.208984"/>
      <use xlink:href="#DejaVuSans-69" x="452.587891"/>
      <use xlink:href="#DejaVuSans-63" x="480.371094"/>
      <use xlink:href="#DejaVuSans-61" x="535.351562"/>
      <use xlink:href="#DejaVuSans-74" x="596.630859"/>
      <use xlink:href="#DejaVuSans-69" x="635.839844"/>
      <use xlink:href="#DejaVuSans-6f" x="663.623047"/>
      <use xlink:href="#DejaVuSans-6e" x="724.804688"/>
      <use xlink:href="#DejaVuSans-20" x="788.183594"/>
      <use xlink:href="#DejaVuSans-72" x="819.970703"/>
      <use xlink:href="#DejaVuSans-6f" x="858.833984"/>
      <use xlink:href="#DejaVuSans-75" x="920.015625"/>
      <use xlink:href="#DejaVuSans-6e" x="983.394531"/>
      <use xlink:href="#DejaVuSans-64" x="1046.773438"/>
      <use xlink:href="#DejaVuSans-73" x="1110.25"/>
     </g>
    </g>
   </g>
   <g id="matplotlib.axis_2">
    <g id="ytick_1">
     <g id="line2d_13">
      <path d="M 72 340.962581 
L 518.4 340.962581 
" clip-path="url(#p181045d538)" style="fill: none; stroke: #b0b0b0; stroke-opacity: 0.5; stroke-width: 0.8; stroke-linecap: square"/>
     </g>
     <g id="line2d_14">
      <defs>
       <path id="m2d059db420" d="M 0 0 
L -3.5 0 
" style="stroke: #000000; stroke-width: 0.8"/>
      </defs>
      <g>
       <use xlink:href="#m2d059db420" x="72" y="340.962581" style="stroke: #000000; stroke-width: 0.8"/>
      </g>
     </g>
     <g id="text_8">
      <!-- 0.3 -->
      <g transform="translate(49.096875 344.761799)scale(0.1 -0.1)">
       <defs>
        <path id="DejaVuSans-2e" d="M 684 794 
L 1344 794 
L 1344 0 
L 684 0 
L 684 794 
z
" transform="scale(0.015625)"/>
        <path id="DejaVuSans-33" d="M 2597 2516 
Q 3050 2419 3304 2112 
Q 3559 1806 3559 1356 
Q 3559 666 3084 287 
Q 2609 -91 1734 -91 
Q 1441 -91 1130 -33 
Q 819 25 488 141 
L 488 750 
Q 750 597 1062 519 
Q 1375 441 1716 441 
Q 2309 441 2620 675 
Q 2931 909 2931 1356 
Q 2931 1769 2642 2001 
Q 2353 2234 1838 2234 
L 1294 2234 
L 1294 2753 
L 1863 2753 
Q 2328 2753 2575 2939 
Q 2822 3125 2822 3475 
Q 2822 3834 2567 4026 
Q 2313 4219 1838 4219 
Q 1578 4219 1281 4162 
Q 984 4106 628 3988 
L 628 4550 
Q 988 4650 1302 4700 
Q 1616 4750 1894 4750 
Q 2613 4750 3031 4423 
Q 3450 4097 3450 3541 
Q 3450 3153 3228 2886 
Q 3006 2619 2597 2516 
z
" transform="scale(0.015625)"/>
       </defs>
       <use xlink:href="#DejaVuSans-30"/>
       <use xlink:href="#DejaVuSans-2e" x="63.623047"/>
       <use xlink:href="#DejaVuSans-33" x="95.410156"/>
      </g>
     </g>
    </g>
    <g id="ytick_2">
     <g id="line2d_15">
      <path d="M 72 268.704516 
L 518.4 268.704516 
" clip-path="url(#p181045d538)" style="fill: none; stroke: #b0b0b0; stroke-opacity: 0.5; stroke-width: 0.8; stroke-linecap: square"/>
     </g>
     <g id="line2d_16">
      <g>
       <use xlink:href="#m2d059db420" x="72" y="268.704516" style="stroke: #000000; stroke-width: 0.8"/>
      </g>
     </g>
     <g id="text_9">
      <!-- 0.4 -->
      <g transform="translate(49.096875 272.503735)scale(0.1 -0.1)">
       <defs>
        <path id="DejaVuSans-34" d="M 2419 4116 
L 825 1625 
L 2419 1625 
L 2419 4116 
z
M 2253 4666 
L 3047 4666 
L 3047 1625 
L 3713 1625 
L 3713 1100 
L 3047 1100 
L 3047 0 
L 2419 0 
L 2419 1100 
L 313 1100 
L 313 1709 
L 2253 4666 
z
" transform="scale(0.015625)"/>
       </defs>
       <use xlink:href="#DejaVuSans-30"/>
       <use xlink:href="#DejaVuSans-2e" x="63.623047"/>
       <use xlink:href="#DejaVuSans-34" x="95.410156"/>
      </g>
     </g>
    </g>
    <g id="ytick_3">
     <g id="line2d_17">
      <path d="M 72 196.446452 
L 518.4 196.446452 
" clip-path="url(#p181045d538)" style="fill: none; stroke: #b0b0b0; stroke-opacity: 0.5; stroke-width: 0.8; stroke-linecap: square"/>
     </g>
     <g id="line2d_18">
      <g>
       <use xlink:href="#m2d059db420" x="72" y="196.446452" style="stroke: #000000; stroke-width: 0.8"/>
      </g>
     </g>
     <g id="text_10">
      <!-- 0.5 -->
      <g transform="translate(49.096875 200.24567)scale(0.1 -0.1)">
       <use xlink:href="#DejaVuSans-30"/>
       <use xlink:href="#DejaVuSans-2e" x="63.623047"/>
       <use xlink:href="#DejaVuSans-35" x="95.410156"/>
      </g>
     </g>
    </g>
    <g id="ytick_4">
     <g id="line2d_19">
      <path d="M 72 124.188387 
L 518.4 124.188387 
" clip-path="url(#p181045d538)" style="fill: none; stroke: #b0b0b0; stroke-opacity: 0.5; stroke-width: 0.8; stroke-linecap: square"/>
     </g>
     <g id="line2d_20">
      <g>
       <use xlink:href="#m2d059db420" x="72" y="124.188387" style="stroke: #000000; stroke-width: 0.8"/>
      </g>
     </g>
     <g id="text_11">
      <!-- 0.6 -->
      <g transform="translate(49.096875 127.987606)scale(0.1 -0.1)">
       <defs>
        <path id="DejaVuSans-36" d="M 2113 2584 
Q 1688 2584 1439 2293 
Q 1191 2003 1191 1497 
Q 1191 994 1439 701 
Q 1688 409 2113 409 
Q 2538 409 2786 701 
Q 3034 994 3034 1497 
Q 3034 2003 2786 2293 
Q 2538 2584 2113 2584 
z
M 3366 4563 
L 3366 3988 
Q 3128 4100 2886 4159 
Q 2644 4219 2406 4219 
Q 1781 4219 1451 3797 
Q 1122 3375 1075 2522 
Q 1259 2794 1537 2939 
Q 1816 3084 2150 3084 
Q 2853 3084 3261 2657 
Q 3669 2231 3669 1497 
Q 3669 778 3244 343 
Q 2819 -91 2113 -91 
Q 1303 -91 875 529 
Q 447 1150 447 2328 
Q 447 3434 972 4092 
Q 1497 4750 2381 4750 
Q 2619 4750 2861 4703 
Q 3103 4656 3366 4563 
z
" transform="scale(0.015625)"/>
       </defs>
       <use xlink:href="#DejaVuSans-30"/>
       <use xlink:href="#DejaVuSans-2e" x="63.623047"/>
       <use xlink:href="#DejaVuSans-36" x="95.410156"/>
      </g>
     </g>
    </g>
    <g id="ytick_5">
     <g id="line2d_21">
      <path d="M 72 51.930323 
L 518.4 51.930323 
" clip-path="url(#p181045d538)" style="fill: none; stroke: #b0b0b0; stroke-opacity: 0.5; stroke-width: 0.8; stroke-linecap: square"/>
     </g>
     <g id="line2d_22">
      <g>
       <use xlink:href="#m2d059db420" x="72" y="51.930323" style="stroke: #000000; stroke-width: 0.8"/>
      </g>
     </g>
     <g id="text_12">
      <!-- 0.7 -->
      <g transform="translate(49.096875 55.729541)scale(0.1 -0.1)">
       <defs>
        <path id="DejaVuSans-37" d="M 525 4666 
L 3525 4666 
L 3525 4397 
L 1831 0 
L 1172 0 
L 2766 4134 
L 525 4134 
L 525 4666 
z
" transform="scale(0.015625)"/>
       </defs>
       <use xlink:href="#DejaVuSans-30"/>
       <use xlink:href="#DejaVuSans-2e" x="63.623047"/>
       <use xlink:href="#DejaVuSans-37" x="95.410156"/>
      </g>
     </g>
    </g>
    <g id="text_13">
     <!-- Accuracy -->
     <g transform="translate(43.017187 240.988125)rotate(-90)scale(0.1 -0.1)">
      <defs>
       <path id="DejaVuSans-41" d="M 2188 4044 
L 1331 1722 
L 3047 1722 
L 2188 4044 
z
M 1831 4666 
L 2547 4666 
L 4325 0 
L 3669 0 
L 3244 1197 
L 1141 1197 
L 716 0 
L 50 0 
L 1831 4666 
z
" transform="scale(0.015625)"/>
       <path id="DejaVuSans-79" d="M 2059 -325 
Q 1816 -950 1584 -1140 
Q 1353 -1331 966 -1331 
L 506 -1331 
L 506 -850 
L 844 -850 
Q 1081 -850 1212 -737 
Q 1344 -625 1503 -206 
L 1606 56 
L 191 3500 
L 800 3500 
L 1894 763 
L 2988 3500 
L 3597 3500 
L 2059 -325 
z
" transform="scale(0.015625)"/>
      </defs>
      <use xlink:href="#DejaVuSans-41"/>
      <use xlink:href="#DejaVuSans-63" x="66.658203"/>
      <use xlink:href="#DejaVuSans-63" x="121.638672"/>
      <use xlink:href="#DejaVuSans-75" x="176.619141"/>
      <use xlink:href="#DejaVuSans-72" x="239.998047"/>
      <use xlink:href="#DejaVuSans-61" x="281.111328"/>
      <use xlink:href="#DejaVuSans-63" x="342.390625"/>
      <use xlink:href="#DejaVuSans-79" x="397.371094"/>
     </g>
    </g>
   </g>
   <g id="line2d_23">
    <path d="M 92.290909 348.043871 
L 93.914182 325.282581 
L 95.537455 315.744516 
L 97.160727 321.019355 
L 98.784 291.971613 
L 100.407273 295.223226 
L 102.030545 281.060645 
L 103.653818 282.505806 
L 105.277091 262.923871 
L 106.900364 263.935484 
L 108.523636 242.330323 
L 110.146909 228.529032 
L 111.770182 254.036129 
L 113.393455 239.367742 
L 115.016727 218.774194 
L 116.64 231.852903 
L 118.263273 218.268387 
L 119.886545 213.788387 
L 121.509818 198.830968 
L 123.133091 245.220645 
L 124.756364 200.492903 
L 126.379636 202.516129 
L 128.002909 192.255484 
L 129.626182 184.379355 
L 131.249455 184.090323 
L 132.872727 184.957419 
L 134.496 182.428387 
L 136.119273 170.722581 
L 137.742545 164.219355 
L 139.365818 177.370323 
L 140.989091 163.713548 
L 142.612364 174.696774 
L 144.235636 160.534194 
L 145.858909 159.956129 
L 147.482182 153.669677 
L 149.105455 167.904516 
L 150.728727 156.343226 
L 152.352 163.785806 
L 153.975273 148.322581 
L 155.598545 151.646452 
L 157.221818 161.04 
L 158.845091 136.833548 
L 160.468364 152.369032 
L 163.714909 140.085161 
L 165.338182 141.24129 
L 166.961455 138.567742 
L 168.584727 135.243871 
L 170.208 137.917419 
L 171.831273 138.64 
L 173.454545 130.474839 
L 175.077818 144.565161 
L 176.701091 122.526452 
L 178.324364 129.463226 
L 179.947636 126.934194 
L 181.570909 126.500645 
L 183.194182 134.449032 
L 184.817455 129.390968 
L 186.440727 121.225806 
L 188.064 125.922581 
L 189.687273 127.367742 
L 191.310545 134.954839 
L 192.933818 116.384516 
L 194.557091 126.356129 
L 196.180364 115.589677 
L 197.803636 119.419355 
L 199.426909 120.214194 
L 201.050182 116.456774 
L 202.673455 119.780645 
L 204.296727 113.566452 
L 205.92 116.312258 
L 207.543273 118.769032 
L 209.166545 120.792258 
L 210.789818 114.433548 
L 212.413091 115.950968 
L 214.036364 118.696774 
L 215.659636 128.523871 
L 217.282909 119.925161 
L 218.906182 117.901935 
L 220.529455 114.072258 
L 222.152727 105.112258 
L 223.776 109.809032 
L 225.399273 108.725161 
L 227.022545 108.580645 
L 228.645818 114.939355 
L 230.269091 110.676129 
L 231.892364 105.04 
L 233.515636 109.953548 
L 235.138909 107.64129 
L 236.762182 115.950968 
L 238.385455 104.534194 
L 240.008727 109.52 
L 241.632 106.846452 
L 243.255273 107.207742 
L 244.878545 104.895484 
L 246.501818 107.858065 
L 248.125091 104.172903 
L 249.748364 103.667097 
L 251.371636 112.627097 
L 252.994909 103.089032 
L 254.618182 103.956129 
L 256.241455 101.282581 
L 257.864727 107.135484 
L 259.488 103.594839 
L 261.111273 102.43871 
L 262.734545 100.849032 
L 264.357818 100.054194 
L 265.981091 112.699355 
L 267.604364 108.363871 
L 269.227636 104.823226 
L 270.850909 102.655484 
L 272.474182 107.424516 
L 274.097455 105.473548 
L 275.720727 99.692903 
L 277.344 108.580645 
L 278.967273 96.44129 
L 280.590545 110.531613 
L 282.213818 99.114839 
L 283.837091 101.427097 
L 285.460364 97.741935 
L 287.083636 100.849032 
L 288.706909 97.091613 
L 290.330182 100.56 
L 291.953455 102.8 
L 293.576727 100.270968 
L 295.2 103.739355 
L 296.823273 91.527742 
L 298.446545 98.103226 
L 300.069818 105.907097 
L 301.693091 101.065806 
L 303.316364 98.392258 
L 304.939636 101.138065 
L 306.562909 93.767742 
L 308.186182 97.163871 
L 309.809455 100.126452 
L 311.432727 101.716129 
L 313.056 92.467097 
L 314.679273 90.154839 
L 316.302545 97.525161 
L 317.925818 102.872258 
L 319.549091 93.984516 
L 321.172364 94.996129 
L 322.795636 94.923871 
L 324.418909 99.187097 
L 326.042182 101.499355 
L 327.665455 99.837419 
L 329.288727 100.343226 
L 330.912 88.348387 
L 332.535273 98.68129 
L 334.158545 87.987097 
L 335.781818 95.068387 
L 337.405091 97.308387 
L 339.028364 105.40129 
L 340.651636 94.851613 
L 342.274909 95.429677 
L 343.898182 101.788387 
L 345.521455 94.20129 
L 347.144727 96.658065 
L 348.768 90.443871 
L 350.391273 88.203871 
L 352.014545 91.455484 
L 353.637818 95.790968 
L 356.884364 92.105806 
L 358.507636 93.912258 
L 360.130909 98.68129 
L 361.754182 99.259355 
L 363.377455 92.467097 
L 365.000727 93.695484 
L 366.624 92.178065 
L 368.247273 101.932903 
L 369.870545 86.252903 
L 371.493818 92.178065 
L 373.117091 94.779355 
L 374.740364 87.047742 
L 376.363636 88.709677 
L 377.986909 94.562581 
L 379.610182 96.658065 
L 381.233455 95.646452 
L 382.856727 91.816774 
L 384.48 89.070968 
L 386.103273 92.322581 
L 387.726545 94.490323 
L 389.349818 89.576774 
L 390.973091 82.423226 
L 392.596364 95.71871 
L 394.219636 91.455484 
L 395.842909 83.434839 
L 397.466182 88.203871 
L 399.089455 90.949677 
L 400.712727 89.36 
L 402.336 98.247742 
L 403.959273 97.95871 
L 405.582545 95.935484 
L 407.205818 89.865806 
L 408.829091 89.576774 
L 410.452364 94.851613 
L 412.075636 89.143226 
L 413.698909 90.805161 
L 415.322182 86.469677 
L 416.945455 87.553548 
L 418.568727 88.854194 
L 420.192 89.432258 
L 421.815273 91.094194 
L 423.438545 91.889032 
L 425.061818 94.20129 
L 426.685091 90.805161 
L 428.308364 93.045161 
L 429.931636 89.576774 
L 431.554909 84.51871 
L 433.178182 88.059355 
L 434.801455 86.397419 
L 436.424727 94.634839 
L 438.048 89.287742 
L 439.671273 90.227097 
L 441.294545 89.865806 
L 442.917818 95.285161 
L 444.541091 85.819355 
L 446.164364 90.588387 
L 447.787636 90.299355 
L 449.410909 85.819355 
L 451.034182 85.024516 
L 452.657455 88.203871 
L 454.280727 92.250323 
L 455.904 86.686452 
L 457.527273 88.854194 
L 459.150545 92.467097 
L 460.773818 95.140645 
L 462.397091 93.767742 
L 464.020364 86.975484 
L 465.643636 84.807742 
L 467.266909 92.756129 
L 468.890182 86.975484 
L 470.513455 84.735484 
L 472.136727 94.779355 
L 473.76 84.51871 
L 475.383273 92.683871 
L 477.006545 86.180645 
L 478.629818 94.20129 
L 480.253091 86.614194 
L 481.876364 92.105806 
L 483.499636 86.686452 
L 485.122909 90.877419 
L 486.746182 88.348387 
L 488.369455 88.854194 
L 489.992727 80.110968 
L 491.616 88.059355 
L 493.239273 86.614194 
L 494.862545 89.576774 
L 496.485818 85.024516 
L 498.109091 87.12 
L 498.109091 87.12 
" clip-path="url(#p181045d538)" style="fill: none; stroke: #1f77b4; stroke-width: 1.5; stroke-linecap: square"/>
   </g>
   <g id="line2d_24">
    <path d="M 92.290909 361.628387 
L 93.914182 339.517419 
L 95.537455 349.416774 
L 97.160727 302.304516 
L 98.784 296.957419 
L 100.407273 314.877419 
L 102.030545 289.009032 
L 103.653818 288.141935 
L 105.277091 294.283871 
L 106.900364 261.47871 
L 108.523636 259.527742 
L 110.146909 234.092903 
L 111.770182 232.575484 
L 113.393455 244.931613 
L 115.016727 220.363871 
L 116.64 214.221935 
L 118.263273 229.685161 
L 119.886545 203.094194 
L 121.509818 214.077419 
L 123.133091 214.655484 
L 124.756364 189.581935 
L 126.379636 200.131613 
L 128.002909 198.325161 
L 129.626182 170 
L 131.249455 205.550968 
L 132.872727 183.223226 
L 134.496 175.997419 
L 136.119273 181.127742 
L 137.742545 188.570323 
L 139.365818 164.074839 
L 140.989091 171.300645 
L 142.612364 166.025806 
L 144.235636 155.114839 
L 145.858909 156.993548 
L 147.482182 173.685161 
L 149.105455 151.790968 
L 150.728727 152.44129 
L 152.352 161.618065 
L 153.975273 153.019355 
L 155.598545 160.172903 
L 157.221818 134.376774 
L 158.845091 148.322581 
L 160.468364 150.923871 
L 162.091636 140.229677 
L 163.714909 138.27871 
L 165.338182 144.565161 
L 166.961455 130.836129 
L 168.584727 143.409032 
L 170.208 123.610323 
L 171.831273 135.894194 
L 173.454545 137.917419 
L 175.077818 132.064516 
L 176.701091 132.425806 
L 178.324364 125.127742 
L 179.947636 124.260645 
L 181.570909 132.28129 
L 183.194182 137.989677 
L 184.817455 121.876129 
L 186.440727 124.116129 
L 188.064 116.095484 
L 189.687273 122.237419 
L 191.310545 124.549677 
L 192.933818 120.286452 
L 194.557091 121.009032 
L 196.180364 114.939355 
L 197.803636 115.300645 
L 199.426909 112.049032 
L 201.050182 111.109677 
L 202.673455 116.384516 
L 204.296727 119.563871 
L 205.92 111.832258 
L 207.543273 112.627097 
L 209.166545 106.268387 
L 210.789818 117.034839 
L 212.413091 118.624516 
L 214.036364 129.463226 
L 215.659636 106.557419 
L 217.282909 118.913548 
L 218.906182 119.130323 
L 220.529455 111.037419 
L 222.152727 108.291613 
L 223.776 111.254194 
L 225.399273 113.855484 
L 227.022545 99.403871 
L 228.645818 104.172903 
L 230.269091 107.424516 
L 231.892364 106.91871 
L 233.515636 111.543226 
L 235.138909 109.592258 
L 236.762182 107.352258 
L 238.385455 99.620645 
L 240.008727 109.014194 
L 241.632 109.953548 
L 243.255273 106.990968 
L 244.878545 105.545806 
L 246.501818 100.415484 
L 248.125091 108.291613 
L 249.748364 103.450323 
L 251.371636 100.776774 
L 252.994909 108.869677 
L 254.618182 107.64129 
L 256.241455 101.643871 
L 257.864727 96.44129 
L 259.488 93.334194 
L 261.111273 111.037419 
L 262.734545 102.294194 
L 264.357818 102.872258 
L 265.981091 96.08 
L 267.604364 95.212903 
L 269.227636 100.270968 
L 270.850909 97.669677 
L 272.474182 101.860645 
L 274.097455 97.525161 
L 275.720727 87.914839 
L 277.344 92.900645 
L 278.967273 94.851613 
L 280.590545 99.620645 
L 282.213818 104.028387 
L 283.837091 102.583226 
L 285.460364 88.926452 
L 287.083636 102.366452 
L 288.706909 95.212903 
L 290.330182 99.042581 
L 291.953455 98.392258 
L 293.576727 95.068387 
L 295.2 91.310968 
L 296.823273 93.117419 
L 298.446545 89.504516 
L 300.069818 94.996129 
L 301.693091 93.261935 
L 303.316364 88.420645 
L 304.939636 92.250323 
L 306.562909 95.285161 
L 308.186182 95.935484 
L 309.809455 89.36 
L 311.432727 98.103226 
L 313.056 96.08 
L 314.679273 93.767742 
L 316.302545 93.84 
L 317.925818 87.336774 
L 319.549091 93.623226 
L 321.172364 89.215484 
L 322.795636 86.75871 
L 324.418909 96.947097 
L 326.042182 96.658065 
L 327.665455 93.84 
L 329.288727 86.325161 
L 330.912 90.227097 
L 332.535273 88.926452 
L 334.158545 87.987097 
L 335.781818 96.007742 
L 339.028364 92.250323 
L 340.651636 90.082581 
L 342.274909 90.732903 
L 343.898182 85.891613 
L 345.521455 86.252903 
L 347.144727 98.392258 
L 348.768 99.042581 
L 350.391273 91.23871 
L 352.014545 84.157419 
L 353.637818 90.516129 
L 355.261091 81.917419 
L 356.884364 94.20129 
L 358.507636 80.689032 
L 360.130909 92.900645 
L 361.754182 85.819355 
L 363.377455 90.877419 
L 365.000727 92.033548 
L 366.624 93.406452 
L 368.247273 85.096774 
L 369.870545 92.683871 
L 371.493818 89.504516 
L 373.117091 96.513548 
L 374.740364 88.637419 
L 376.363636 93.406452 
L 377.986909 82.929032 
L 379.610182 84.229677 
L 381.233455 96.369032 
L 382.856727 84.301935 
L 384.48 77.870968 
L 386.103273 83.073548 
L 387.726545 89.793548 
L 389.349818 83.507097 
L 390.973091 93.261935 
L 392.596364 87.698065 
L 394.219636 88.854194 
L 395.842909 85.24129 
L 397.466182 85.385806 
L 399.089455 81.628387 
L 402.336 83.651613 
L 403.959273 90.082581 
L 405.582545 92.322581 
L 407.205818 86.397419 
L 408.829091 84.085161 
L 410.452364 85.602581 
L 412.075636 90.732903 
L 413.698909 82.350968 
L 415.322182 86.75871 
L 416.945455 84.157419 
L 418.568727 81.772903 
L 420.192 91.383226 
L 421.815273 83.651613 
L 423.438545 85.602581 
L 425.061818 82.495484 
L 426.685091 83.651613 
L 428.308364 82.64 
L 429.931636 92.828387 
L 431.554909 79.532903 
L 433.178182 80.327742 
L 434.801455 77.003871 
L 436.424727 79.099355 
L 438.048 83.723871 
L 439.671273 100.993548 
L 441.294545 78.015484 
L 442.917818 79.027097 
L 444.541091 83.073548 
L 446.164364 81.411613 
L 447.787636 79.099355 
L 449.410909 82.27871 
L 451.034182 76.425806 
L 452.657455 80.544516 
L 454.280727 81.194839 
L 455.904 87.770323 
L 457.527273 81.339355 
L 459.150545 80.616774 
L 460.773818 73.390968 
L 462.397091 85.385806 
L 464.020364 79.388387 
L 465.643636 77.943226 
L 467.266909 79.749677 
L 468.890182 76.714839 
L 470.513455 82.567742 
L 472.136727 82.206452 
L 473.76 84.51871 
L 475.383273 85.747097 
L 478.629818 80.544516 
L 480.253091 76.498065 
L 481.876364 81.989677 
L 483.499636 79.171613 
L 485.122909 80.4 
L 486.746182 76.209032 
L 488.369455 85.458065 
L 489.992727 82.784516 
L 491.616 83.796129 
L 493.239273 81.194839 
L 494.862545 74.836129 
L 496.485818 77.220645 
L 498.109091 71.150968 
L 498.109091 71.150968 
" clip-path="url(#p181045d538)" style="fill: none; stroke: #ff7f0e; stroke-width: 1.5; stroke-linecap: square"/>
   </g>
   <g id="line2d_25">
    <path d="M 92.290909 365.169032 
L 93.914182 359.749677 
L 95.537455 342.190968 
L 97.160727 316.322581 
L 98.784 323.476129 
L 102.030545 298.908387 
L 103.653818 274.340645 
L 105.277091 286.552258 
L 106.900364 271.378065 
L 108.523636 262.345806 
L 110.146909 258.227097 
L 111.770182 236.116129 
L 113.393455 240.451613 
L 115.016727 239.584516 
L 116.64 234.743226 
L 118.263273 260.105806 
L 119.886545 225.349677 
L 121.509818 208.08 
L 123.133091 210.103226 
L 124.756364 220.869677 
L 126.379636 203.744516 
L 128.002909 184.885161 
L 129.626182 196.374194 
L 131.249455 203.383226 
L 132.872727 204.322581 
L 134.496 202.588387 
L 136.119273 176.069677 
L 137.742545 182.356129 
L 139.365818 166.531613 
L 140.989091 166.965161 
L 142.612364 173.540645 
L 144.235636 158.583226 
L 145.858909 160.317419 
L 147.482182 175.636129 
L 149.105455 163.858065 
L 150.728727 148.394839 
L 152.352 152.152258 
L 153.975273 160.317419 
L 155.598545 141.819355 
L 157.221818 152.730323 
L 158.845091 158.872258 
L 160.468364 153.814194 
L 162.091636 136.255484 
L 163.714909 131.197419 
L 165.338182 142.903226 
L 166.961455 140.590968 
L 168.584727 140.663226 
L 170.208 135.821935 
L 171.831273 140.012903 
L 173.454545 128.379355 
L 175.077818 127.584516 
L 176.701091 127.656774 
L 178.324364 134.665806 
L 179.947636 135.027097 
L 181.570909 123.682581 
L 183.194182 121.659355 
L 184.817455 123.249032 
L 186.440727 126.789677 
L 188.064 129.31871 
L 189.687273 110.603871 
L 191.310545 124.405161 
L 192.933818 123.393548 
L 194.557091 108.147097 
L 196.180364 118.624516 
L 197.803636 115.372903 
L 199.426909 112.843871 
L 201.050182 114 
L 202.673455 116.890323 
L 204.296727 113.927742 
L 205.92 117.179355 
L 207.543273 103.739355 
L 209.166545 115.011613 
L 212.413091 120.430968 
L 214.036364 114.939355 
L 215.659636 111.976774 
L 217.282909 107.207742 
L 218.906182 110.459355 
L 220.529455 111.76 
L 222.152727 102.583226 
L 223.776 99.331613 
L 225.399273 95.646452 
L 227.022545 108.436129 
L 228.645818 111.976774 
L 230.269091 104.750968 
L 231.892364 108.219355 
L 233.515636 112.916129 
L 235.138909 96.007742 
L 236.762182 111.326452 
L 238.385455 104.895484 
L 240.008727 107.496774 
L 241.632 99.259355 
L 243.255273 102.221935 
L 244.878545 92.611613 
L 246.501818 95.646452 
L 248.125091 96.513548 
L 249.748364 99.476129 
L 251.371636 99.692903 
L 252.994909 94.490323 
L 254.618182 92.900645 
L 256.241455 91.527742 
L 257.864727 99.548387 
L 259.488 101.571613 
L 261.111273 95.357419 
L 262.734545 94.20129 
L 264.357818 101.643871 
L 265.981091 95.357419 
L 267.604364 93.84 
L 269.227636 102.366452 
L 270.850909 95.501935 
L 272.474182 91.744516 
L 274.097455 93.117419 
L 275.720727 96.658065 
L 277.344 98.392258 
L 278.967273 92.683871 
L 280.590545 97.597419 
L 282.213818 87.409032 
L 283.837091 100.415484 
L 287.083636 87.625806 
L 288.706909 84.446452 
L 290.330182 91.744516 
L 291.953455 88.709677 
L 293.576727 98.030968 
L 295.2 94.273548 
L 296.823273 93.045161 
L 298.446545 93.84 
L 300.069818 92.539355 
L 301.693091 93.406452 
L 303.316364 86.252903 
L 304.939636 90.877419 
L 306.562909 94.634839 
L 308.186182 89.287742 
L 309.809455 98.32 
L 311.432727 81.411613 
L 313.056 81.556129 
L 314.679273 83.868387 
L 316.302545 89.36 
L 317.925818 83.434839 
L 319.549091 97.95871 
L 321.172364 87.625806 
L 322.795636 83.723871 
L 324.418909 83.00129 
L 326.042182 84.807742 
L 327.665455 92.322581 
L 329.288727 90.516129 
L 330.912 94.20129 
L 332.535273 93.334194 
L 334.158545 88.709677 
L 335.781818 88.348387 
L 337.405091 84.446452 
L 339.028364 90.010323 
L 340.651636 82.061935 
L 342.274909 78.449032 
L 343.898182 86.397419 
L 345.521455 83.434839 
L 347.144727 90.660645 
L 348.768 81.989677 
L 350.391273 80.327742 
L 352.014545 86.541935 
L 353.637818 87.914839 
L 355.261091 82.350968 
L 356.884364 91.166452 
L 358.507636 81.917419 
L 360.130909 87.409032 
L 361.754182 84.301935 
L 363.377455 84.590968 
L 365.000727 77.726452 
L 366.624 82.784516 
L 368.247273 84.590968 
L 369.870545 81.628387 
L 371.493818 85.313548 
L 373.117091 83.362581 
L 374.740364 83.940645 
L 376.363636 95.863226 
L 377.986909 84.374194 
L 379.610182 82.061935 
L 381.233455 77.292903 
L 382.856727 84.229677 
L 384.48 78.449032 
L 386.103273 81.483871 
L 387.726545 79.460645 
L 389.349818 83.651613 
L 390.973091 86.036129 
L 392.596364 78.376774 
L 394.219636 84.51871 
L 395.842909 77.292903 
L 397.466182 75.630968 
L 399.089455 85.819355 
L 400.712727 88.781935 
L 402.336 82.784516 
L 403.959273 87.914839 
L 405.582545 74.330323 
L 407.205818 73.969032 
L 408.829091 74.691613 
L 410.452364 76.425806 
L 412.075636 84.446452 
L 413.698909 76.425806 
L 415.322182 75.125161 
L 416.945455 79.966452 
L 418.568727 85.891613 
L 420.192 80.327742 
L 421.815273 80.03871 
L 423.438545 75.414194 
L 425.061818 79.243871 
L 426.685091 87.264516 
L 428.308364 83.579355 
L 429.931636 82.061935 
L 431.554909 87.192258 
L 433.178182 80.110968 
L 434.801455 85.530323 
L 436.424727 83.145806 
L 438.048 71.729032 
L 439.671273 78.015484 
L 441.294545 80.544516 
L 442.917818 79.099355 
L 444.541091 85.024516 
L 446.164364 74.04129 
L 447.787636 77.437419 
L 449.410909 79.966452 
L 451.034182 76.136774 
L 452.657455 78.954839 
L 454.280727 80.616774 
L 455.904 76.931613 
L 457.527273 80.616774 
L 459.150545 74.113548 
L 460.773818 71.006452 
L 462.397091 81.917419 
L 464.020364 81.772903 
L 465.643636 92.105806 
L 467.266909 81.700645 
L 468.890182 76.353548 
L 470.513455 77.509677 
L 472.136727 75.55871 
L 473.76 79.027097 
L 475.383273 79.316129 
L 477.006545 69.344516 
L 478.629818 78.954839 
L 480.253091 75.92 
L 481.876364 76.28129 
L 483.499636 80.472258 
L 485.122909 79.460645 
L 486.746182 69.2 
L 489.992727 83.723871 
L 491.616 66.96 
L 493.239273 72.451613 
L 494.862545 73.029677 
L 496.485818 74.908387 
L 498.109091 70.789677 
L 498.109091 70.789677 
" clip-path="url(#p181045d538)" style="fill: none; stroke: #2ca02c; stroke-width: 1.5; stroke-linecap: square"/>
   </g>
   <g id="line2d_26">
    <path d="M 92.290909 369.36 
L 93.914182 365.385806 
L 95.537455 343.563871 
L 97.160727 339.87871 
L 98.784 327.016774 
L 100.407273 330.051613 
L 102.030545 295.150968 
L 103.653818 275.352258 
L 105.277091 274.340645 
L 106.900364 251.290323 
L 108.523636 255.264516 
L 111.770182 269.354839 
L 113.393455 239.223226 
L 115.016727 244.064516 
L 116.64 237.489032 
L 118.263273 229.396129 
L 119.886545 229.540645 
L 121.509818 221.15871 
L 123.133091 209.525161 
L 124.756364 202.227097 
L 126.379636 207.863226 
L 128.002909 197.458065 
L 129.626182 189.654194 
L 131.249455 209.741935 
L 132.872727 191.749677 
L 134.496 186.04129 
L 136.119273 190.16 
L 137.742545 183.80129 
L 139.365818 182.645161 
L 140.989091 176.647742 
L 142.612364 166.098065 
L 144.235636 167.976774 
L 145.858909 175.058065 
L 147.482182 176.35871 
L 149.105455 181.055484 
L 150.728727 158.294194 
L 152.352 151.863226 
L 153.975273 164.291613 
L 155.598545 157.860645 
L 157.221818 156.270968 
L 158.845091 153.669677 
L 160.468364 151.790968 
L 162.091636 143.12 
L 163.714909 135.749677 
L 165.338182 141.530323 
L 166.961455 143.770323 
L 168.584727 134.665806 
L 170.208 132.859355 
L 171.831273 133.220645 
L 173.454545 123.104516 
L 175.077818 134.449032 
L 176.701091 139.290323 
L 178.324364 138.206452 
L 179.947636 133.943226 
L 181.570909 117.179355 
L 183.194182 124.405161 
L 184.817455 118.335484 
L 186.440727 120.430968 
L 188.064 132.209032 
L 189.687273 120.069677 
L 191.310545 127.223226 
L 192.933818 115.950968 
L 194.557091 135.966452 
L 196.180364 117.829677 
L 197.803636 119.347097 
L 199.426909 119.274839 
L 201.050182 117.757419 
L 202.673455 108.219355 
L 204.296727 119.419355 
L 205.92 112.410323 
L 207.543273 117.107097 
L 209.166545 108.291613 
L 210.789818 120.430968 
L 212.413091 111.109677 
L 214.036364 110.965161 
L 215.659636 107.858065 
L 217.282909 105.256774 
L 218.906182 103.883871 
L 220.529455 114.144516 
L 222.152727 116.24 
L 225.399273 106.774194 
L 227.022545 96.224516 
L 228.645818 97.525161 
L 230.269091 101.138065 
L 231.892364 105.04 
L 233.515636 106.123871 
L 235.138909 107.352258 
L 236.762182 109.303226 
L 238.385455 95.574194 
L 240.008727 103.016774 
L 241.632 106.123871 
L 243.255273 95.790968 
L 244.878545 98.753548 
L 246.501818 105.04 
L 248.125091 104.750968 
L 249.748364 91.383226 
L 251.371636 100.704516 
L 252.994909 95.212903 
L 254.618182 87.625806 
L 256.241455 100.343226 
L 257.864727 96.224516 
L 259.488 100.993548 
L 261.111273 95.71871 
L 262.734545 94.779355 
L 264.357818 89.287742 
L 265.981091 106.990968 
L 267.604364 88.565161 
L 269.227636 87.698065 
L 270.850909 94.996129 
L 272.474182 87.192258 
L 274.097455 86.469677 
L 275.720727 91.816774 
L 277.344 92.611613 
L 278.967273 94.707097 
L 280.590545 88.99871 
L 282.213818 94.707097 
L 283.837091 84.590968 
L 285.460364 91.96129 
L 287.083636 88.492903 
L 288.706909 90.516129 
L 290.330182 98.247742 
L 291.953455 90.949677 
L 293.576727 89.72129 
L 295.2 97.163871 
L 296.823273 94.779355 
L 298.446545 93.623226 
L 300.069818 85.313548 
L 301.693091 93.623226 
L 303.316364 90.732903 
L 304.939636 92.322581 
L 306.562909 87.047742 
L 308.186182 89.504516 
L 309.809455 84.735484 
L 311.432727 85.024516 
L 313.056 91.23871 
L 314.679273 96.369032 
L 316.302545 88.131613 
L 317.925818 83.940645 
L 319.549091 84.807742 
L 321.172364 82.061935 
L 322.795636 86.975484 
L 324.418909 84.446452 
L 326.042182 93.47871 
L 327.665455 87.770323 
L 329.288727 86.75871 
L 330.912 84.012903 
L 332.535273 87.553548 
L 334.158545 84.88 
L 335.781818 88.565161 
L 337.405091 84.157419 
L 339.028364 87.770323 
L 340.651636 82.134194 
L 342.274909 81.772903 
L 343.898182 81.917419 
L 345.521455 81.411613 
L 347.144727 78.810323 
L 348.768 79.388387 
L 350.391273 80.616774 
L 352.014545 88.059355 
L 353.637818 84.085161 
L 355.261091 87.914839 
L 356.884364 83.723871 
L 358.507636 84.229677 
L 360.130909 78.015484 
L 361.754182 75.052903 
L 363.377455 86.397419 
L 365.000727 78.16 
L 366.624 91.455484 
L 368.247273 78.882581 
L 369.870545 82.784516 
L 371.493818 81.556129 
L 373.117091 80.833548 
L 374.740364 85.313548 
L 376.363636 81.194839 
L 377.986909 84.807742 
L 379.610182 78.954839 
L 381.233455 83.073548 
L 382.856727 83.218065 
L 384.48 74.691613 
L 386.103273 87.914839 
L 387.726545 79.243871 
L 389.349818 76.064516 
L 390.973091 78.810323 
L 392.596364 76.136774 
L 394.219636 74.330323 
L 395.842909 76.28129 
L 397.466182 85.747097 
L 399.089455 76.642581 
L 400.712727 79.027097 
L 402.336 71.006452 
L 403.959273 73.824516 
L 405.582545 79.532903 
L 407.205818 73.174194 
L 408.829091 73.896774 
L 410.452364 76.064516 
L 412.075636 73.029677 
L 413.698909 80.472258 
L 415.322182 82.423226 
L 416.945455 77.79871 
L 418.568727 77.148387 
L 420.192 80.110968 
L 421.815273 72.885161 
L 423.438545 76.931613 
L 425.061818 71.873548 
L 426.685091 79.532903 
L 428.308364 73.463226 
L 429.931636 75.486452 
L 431.554909 79.243871 
L 433.178182 74.908387 
L 434.801455 68.116129 
L 436.424727 79.532903 
L 438.048 84.301935 
L 439.671273 75.052903 
L 441.294545 73.607742 
L 442.917818 69.705806 
L 444.541091 71.873548 
L 446.164364 77.79871 
L 447.787636 78.232258 
L 449.410909 75.486452 
L 451.034182 76.425806 
L 452.657455 74.402581 
L 454.280727 79.821935 
L 455.904 78.304516 
L 457.527273 73.68 
L 459.150545 70.500645 
L 460.773818 71.367742 
L 462.397091 79.821935 
L 464.020364 72.957419 
L 465.643636 68.983226 
L 467.266909 71.729032 
L 468.890182 72.451613 
L 470.513455 75.55871 
L 472.136727 72.451613 
L 473.76 68.694194 
L 475.383273 73.824516 
L 477.006545 80.978065 
L 478.629818 82.64 
L 480.253091 75.052903 
L 481.876364 80.689032 
L 483.499636 70.428387 
L 485.122909 74.691613 
L 486.746182 73.969032 
L 488.369455 83.073548 
L 489.992727 75.630968 
L 491.616 80.544516 
L 493.239273 68.332903 
L 494.862545 70.211613 
L 496.485818 70.428387 
L 498.109091 68.188387 
L 498.109091 68.188387 
" clip-path="url(#p181045d538)" style="fill: none; stroke: #d62728; stroke-width: 1.5; stroke-linecap: square"/>
   </g>
   <g id="patch_3">
    <path d="M 72 384.48 
L 72 51.84 
" style="fill: none; stroke: #000000; stroke-width: 0.8; stroke-linejoin: miter; stroke-linecap: square"/>
   </g>
   <g id="patch_4">
    <path d="M 518.4 384.48 
L 518.4 51.84 
" style="fill: none; stroke: #000000; stroke-width: 0.8; stroke-linejoin: miter; stroke-linecap: square"/>
   </g>
   <g id="patch_5">
    <path d="M 72 384.48 
L 518.4 384.48 
" style="fill: none; stroke: #000000; stroke-width: 0.8; stroke-linejoin: miter; stroke-linecap: square"/>
   </g>
   <g id="patch_6">
    <path d="M 72 51.84 
L 518.4 51.84 
" style="fill: none; stroke: #000000; stroke-width: 0.8; stroke-linejoin: miter; stroke-linecap: square"/>
   </g>
   <g id="text_14">
    <!-- Max-Common -->
    <g transform="translate(253.606875 45.84)scale(0.12 -0.12)">
     <defs>
      <path id="DejaVuSans-4d" d="M 628 4666 
L 1569 4666 
L 2759 1491 
L 3956 4666 
L 4897 4666 
L 4897 0 
L 4281 0 
L 4281 4097 
L 3078 897 
L 2444 897 
L 1241 4097 
L 1241 0 
L 628 0 
L 628 4666 
z
" transform="scale(0.015625)"/>
      <path id="DejaVuSans-78" d="M 3513 3500 
L 2247 1797 
L 3578 0 
L 2900 0 
L 1881 1375 
L 863 0 
L 184 0 
L 1544 1831 
L 300 3500 
L 978 3500 
L 1906 2253 
L 2834 3500 
L 3513 3500 
z
" transform="scale(0.015625)"/>
      <path id="DejaVuSans-2d" d="M 313 2009 
L 1997 2009 
L 1997 1497 
L 313 1497 
L 313 2009 
z
" transform="scale(0.015625)"/>
     </defs>
     <use xlink:href="#DejaVuSans-4d"/>
     <use xlink:href="#DejaVuSans-61" x="86.279297"/>
     <use xlink:href="#DejaVuSans-78" x="147.558594"/>
     <use xlink:href="#DejaVuSans-2d" x="206.738281"/>
     <use xlink:href="#DejaVuSans-43" x="242.822266"/>
     <use xlink:href="#DejaVuSans-6f" x="312.646484"/>
     <use xlink:href="#DejaVuSans-6d" x="373.828125"/>
     <use xlink:href="#DejaVuSans-6d" x="471.240234"/>
     <use xlink:href="#DejaVuSans-6f" x="568.652344"/>
     <use xlink:href="#DejaVuSans-6e" x="629.833984"/>
    </g>
   </g>
   <g id="legend_1">
    <g id="patch_7">
     <path d="M 79 118.5525 
L 124.203125 118.5525 
Q 126.203125 118.5525 126.203125 116.5525 
L 126.203125 58.84 
Q 126.203125 56.84 124.203125 56.84 
L 79 56.84 
Q 77 56.84 77 58.84 
L 77 116.5525 
Q 77 118.5525 79 118.5525 
z
" style="fill: #ffffff; opacity: 0.8; stroke: #cccccc; stroke-linejoin: miter"/>
    </g>
    <g id="line2d_27">
     <path d="M 81 64.938438 
L 91 64.938438 
L 101 64.938438 
" style="fill: none; stroke: #1f77b4; stroke-width: 1.5; stroke-linecap: square"/>
    </g>
    <g id="text_15">
     <!-- V1 -->
     <g transform="translate(109 68.438438)scale(0.1 -0.1)">
      <defs>
       <path id="DejaVuSans-56" d="M 1831 0 
L 50 4666 
L 709 4666 
L 2188 738 
L 3669 4666 
L 4325 4666 
L 2547 0 
L 1831 0 
z
" transform="scale(0.015625)"/>
      </defs>
      <use xlink:href="#DejaVuSans-56"/>
      <use xlink:href="#DejaVuSans-31" x="68.408203"/>
     </g>
    </g>
    <g id="line2d_28">
     <path d="M 81 79.616563 
L 91 79.616563 
L 101 79.616563 
" style="fill: none; stroke: #ff7f0e; stroke-width: 1.5; stroke-linecap: square"/>
    </g>
    <g id="text_16">
     <!-- V2 -->
     <g transform="translate(109 83.116563)scale(0.1 -0.1)">
      <use xlink:href="#DejaVuSans-56"/>
      <use xlink:href="#DejaVuSans-32" x="68.408203"/>
     </g>
    </g>
    <g id="line2d_29">
     <path d="M 81 94.294688 
L 91 94.294688 
L 101 94.294688 
" style="fill: none; stroke: #2ca02c; stroke-width: 1.5; stroke-linecap: square"/>
    </g>
    <g id="text_17">
     <!-- V3 -->
     <g transform="translate(109 97.794688)scale(0.1 -0.1)">
      <use xlink:href="#DejaVuSans-56"/>
      <use xlink:href="#DejaVuSans-33" x="68.408203"/>
     </g>
    </g>
    <g id="line2d_30">
     <path d="M 81 108.972813 
L 91 108.972813 
L 101 108.972813 
" style="fill: none; stroke: #d62728; stroke-width: 1.5; stroke-linecap: square"/>
    </g>
    <g id="text_18">
     <!-- V4 -->
     <g transform="translate(109 112.472813)scale(0.1 -0.1)">
      <use xlink:href="#DejaVuSans-56"/>
      <use xlink:href="#DejaVuSans-34" x="68.408203"/>
     </g>
    </g>
   </g>
  </g>
 </g>
 <defs>
  <clipPath id="p181045d538">
   <rect x="72" y="51.84" width="446.4" height="332.64"/>
  </clipPath>
 </defs>
</svg>
