<?xml version="1.0" encoding="utf-8" standalone="no"?>
<!DOCTYPE svg PUBLIC "-//W3C//DTD SVG 1.1//EN"
  "http://www.w3.org/Graphics/SVG/1.1/DTD/svg11.dtd">
<svg xmlns:xlink="http://www.w3.org/1999/xlink" width="576pt" height="432pt" viewBox="0 0 576 432" xmlns="http://www.w3.org/2000/svg" version="1.1">
 <metadata>
  <rdf:RDF xmlns:dc="http://purl.org/dc/elements/1.1/" xmlns:cc="http://creativecommons.org/ns#" xmlns:rdf="http://www.w3.org/1999/02/22-rdf-syntax-ns#">
   <cc:Work>
    <dc:type rdf:resource="http://purl.org/dc/dcmitype/StillImage"/>
    <dc:date>2023-08-08T15:58:13.247246</dc:date>
    <dc:format>image/svg+xml</dc:format>
    <dc:creator>
     <cc:Agent>
      <dc:title>Matplotlib v3.5.2, https://matplotlib.org/</dc:title>
     </cc:Agent>
    </dc:creator>
   </cc:Work>
  </rdf:RDF>
 </metadata>
 <defs>
  <style type="text/css">*{stroke-linejoin: round; stroke-linecap: butt}</style>
 </defs>
 <g id="figure_1">
  <g id="patch_1">
   <path d="M 0 432 
L 576 432 
L 576 0 
L 0 0 
z
" style="fill: #ffffff"/>
  </g>
  <g id="axes_1">
   <g id="patch_2">
    <path d="M 72 384.48 
L 518.4 384.48 
L 518.4 51.84 
L 72 51.84 
z
" style="fill: #ffffff"/>
   </g>
   <g id="matplotlib.axis_1">
    <g id="xtick_1">
     <g id="line2d_1">
      <path d="M 92.290909 384.48 
L 92.290909 51.84 
" clip-path="url(#pf5d9b5cfca)" style="fill: none; stroke: #b0b0b0; stroke-opacity: 0.5; stroke-width: 0.8; stroke-linecap: square"/>
     </g>
     <g id="line2d_2">
      <defs>
       <path id="m8b87a266e9" d="M 0 0 
L 0 3.5 
" style="stroke: #000000; stroke-width: 0.8"/>
      </defs>
      <g>
       <use xlink:href="#m8b87a266e9" x="92.290909" y="384.48" style="stroke: #000000; stroke-width: 0.8"/>
      </g>
     </g>
     <g id="text_1">
      <!-- 0 -->
      <g transform="translate(89.109659 399.078438)scale(0.1 -0.1)">
       <defs>
        <path id="DejaVuSans-30" d="M 2034 4250 
Q 1547 4250 1301 3770 
Q 1056 3291 1056 2328 
Q 1056 1369 1301 889 
Q 1547 409 2034 409 
Q 2525 409 2770 889 
Q 3016 1369 3016 2328 
Q 3016 3291 2770 3770 
Q 2525 4250 2034 4250 
z
M 2034 4750 
Q 2819 4750 3233 4129 
Q 3647 3509 3647 2328 
Q 3647 1150 3233 529 
Q 2819 -91 2034 -91 
Q 1250 -91 836 529 
Q 422 1150 422 2328 
Q 422 3509 836 4129 
Q 1250 4750 2034 4750 
z
" transform="scale(0.015625)"/>
       </defs>
       <use xlink:href="#DejaVuSans-30"/>
      </g>
     </g>
    </g>
    <g id="xtick_2">
     <g id="line2d_3">
      <path d="M 173.454545 384.48 
L 173.454545 51.84 
" clip-path="url(#pf5d9b5cfca)" style="fill: none; stroke: #b0b0b0; stroke-opacity: 0.5; stroke-width: 0.8; stroke-linecap: square"/>
     </g>
     <g id="line2d_4">
      <g>
       <use xlink:href="#m8b87a266e9" x="173.454545" y="384.48" style="stroke: #000000; stroke-width: 0.8"/>
      </g>
     </g>
     <g id="text_2">
      <!-- 50 -->
      <g transform="translate(167.092045 399.078438)scale(0.1 -0.1)">
       <defs>
        <path id="DejaVuSans-35" d="M 691 4666 
L 3169 4666 
L 3169 4134 
L 1269 4134 
L 1269 2991 
Q 1406 3038 1543 3061 
Q 1681 3084 1819 3084 
Q 2600 3084 3056 2656 
Q 3513 2228 3513 1497 
Q 3513 744 3044 326 
Q 2575 -91 1722 -91 
Q 1428 -91 1123 -41 
Q 819 9 494 109 
L 494 744 
Q 775 591 1075 516 
Q 1375 441 1709 441 
Q 2250 441 2565 725 
Q 2881 1009 2881 1497 
Q 2881 1984 2565 2268 
Q 2250 2553 1709 2553 
Q 1456 2553 1204 2497 
Q 953 2441 691 2322 
L 691 4666 
z
" transform="scale(0.015625)"/>
       </defs>
       <use xlink:href="#DejaVuSans-35"/>
       <use xlink:href="#DejaVuSans-30" x="63.623047"/>
      </g>
     </g>
    </g>
    <g id="xtick_3">
     <g id="line2d_5">
      <path d="M 254.618182 384.48 
L 254.618182 51.84 
" clip-path="url(#pf5d9b5cfca)" style="fill: none; stroke: #b0b0b0; stroke-opacity: 0.5; stroke-width: 0.8; stroke-linecap: square"/>
     </g>
     <g id="line2d_6">
      <g>
       <use xlink:href="#m8b87a266e9" x="254.618182" y="384.48" style="stroke: #000000; stroke-width: 0.8"/>
      </g>
     </g>
     <g id="text_3">
      <!-- 100 -->
      <g transform="translate(245.074432 399.078438)scale(0.1 -0.1)">
       <defs>
        <path id="DejaVuSans-31" d="M 794 531 
L 1825 531 
L 1825 4091 
L 703 3866 
L 703 4441 
L 1819 4666 
L 2450 4666 
L 2450 531 
L 3481 531 
L 3481 0 
L 794 0 
L 794 531 
z
" transform="scale(0.015625)"/>
       </defs>
       <use xlink:href="#DejaVuSans-31"/>
       <use xlink:href="#DejaVuSans-30" x="63.623047"/>
       <use xlink:href="#DejaVuSans-30" x="127.246094"/>
      </g>
     </g>
    </g>
    <g id="xtick_4">
     <g id="line2d_7">
      <path d="M 335.781818 384.48 
L 335.781818 51.84 
" clip-path="url(#pf5d9b5cfca)" style="fill: none; stroke: #b0b0b0; stroke-opacity: 0.5; stroke-width: 0.8; stroke-linecap: square"/>
     </g>
     <g id="line2d_8">
      <g>
       <use xlink:href="#m8b87a266e9" x="335.781818" y="384.48" style="stroke: #000000; stroke-width: 0.8"/>
      </g>
     </g>
     <g id="text_4">
      <!-- 150 -->
      <g transform="translate(326.238068 399.078438)scale(0.1 -0.1)">
       <use xlink:href="#DejaVuSans-31"/>
       <use xlink:href="#DejaVuSans-35" x="63.623047"/>
       <use xlink:href="#DejaVuSans-30" x="127.246094"/>
      </g>
     </g>
    </g>
    <g id="xtick_5">
     <g id="line2d_9">
      <path d="M 416.945455 384.48 
L 416.945455 51.84 
" clip-path="url(#pf5d9b5cfca)" style="fill: none; stroke: #b0b0b0; stroke-opacity: 0.5; stroke-width: 0.8; stroke-linecap: square"/>
     </g>
     <g id="line2d_10">
      <g>
       <use xlink:href="#m8b87a266e9" x="416.945455" y="384.48" style="stroke: #000000; stroke-width: 0.8"/>
      </g>
     </g>
     <g id="text_5">
      <!-- 200 -->
      <g transform="translate(407.401705 399.078438)scale(0.1 -0.1)">
       <defs>
        <path id="DejaVuSans-32" d="M 1228 531 
L 3431 531 
L 3431 0 
L 469 0 
L 469 531 
Q 828 903 1448 1529 
Q 2069 2156 2228 2338 
Q 2531 2678 2651 2914 
Q 2772 3150 2772 3378 
Q 2772 3750 2511 3984 
Q 2250 4219 1831 4219 
Q 1534 4219 1204 4116 
Q 875 4013 500 3803 
L 500 4441 
Q 881 4594 1212 4672 
Q 1544 4750 1819 4750 
Q 2544 4750 2975 4387 
Q 3406 4025 3406 3419 
Q 3406 3131 3298 2873 
Q 3191 2616 2906 2266 
Q 2828 2175 2409 1742 
Q 1991 1309 1228 531 
z
" transform="scale(0.015625)"/>
       </defs>
       <use xlink:href="#DejaVuSans-32"/>
       <use xlink:href="#DejaVuSans-30" x="63.623047"/>
       <use xlink:href="#DejaVuSans-30" x="127.246094"/>
      </g>
     </g>
    </g>
    <g id="xtick_6">
     <g id="line2d_11">
      <path d="M 498.109091 384.48 
L 498.109091 51.84 
" clip-path="url(#pf5d9b5cfca)" style="fill: none; stroke: #b0b0b0; stroke-opacity: 0.5; stroke-width: 0.8; stroke-linecap: square"/>
     </g>
     <g id="line2d_12">
      <g>
       <use xlink:href="#m8b87a266e9" x="498.109091" y="384.48" style="stroke: #000000; stroke-width: 0.8"/>
      </g>
     </g>
     <g id="text_6">
      <!-- 250 -->
      <g transform="translate(488.565341 399.078438)scale(0.1 -0.1)">
       <use xlink:href="#DejaVuSans-32"/>
       <use xlink:href="#DejaVuSans-35" x="63.623047"/>
       <use xlink:href="#DejaVuSans-30" x="127.246094"/>
      </g>
     </g>
    </g>
    <g id="text_7">
     <!-- Communication rounds -->
     <g transform="translate(237.083594 412.756563)scale(0.1 -0.1)">
      <defs>
       <path id="DejaVuSans-43" d="M 4122 4306 
L 4122 3641 
Q 3803 3938 3442 4084 
Q 3081 4231 2675 4231 
Q 1875 4231 1450 3742 
Q 1025 3253 1025 2328 
Q 1025 1406 1450 917 
Q 1875 428 2675 428 
Q 3081 428 3442 575 
Q 3803 722 4122 1019 
L 4122 359 
Q 3791 134 3420 21 
Q 3050 -91 2638 -91 
Q 1578 -91 968 557 
Q 359 1206 359 2328 
Q 359 3453 968 4101 
Q 1578 4750 2638 4750 
Q 3056 4750 3426 4639 
Q 3797 4528 4122 4306 
z
" transform="scale(0.015625)"/>
       <path id="DejaVuSans-6f" d="M 1959 3097 
Q 1497 3097 1228 2736 
Q 959 2375 959 1747 
Q 959 1119 1226 758 
Q 1494 397 1959 397 
Q 2419 397 2687 759 
Q 2956 1122 2956 1747 
Q 2956 2369 2687 2733 
Q 2419 3097 1959 3097 
z
M 1959 3584 
Q 2709 3584 3137 3096 
Q 3566 2609 3566 1747 
Q 3566 888 3137 398 
Q 2709 -91 1959 -91 
Q 1206 -91 779 398 
Q 353 888 353 1747 
Q 353 2609 779 3096 
Q 1206 3584 1959 3584 
z
" transform="scale(0.015625)"/>
       <path id="DejaVuSans-6d" d="M 3328 2828 
Q 3544 3216 3844 3400 
Q 4144 3584 4550 3584 
Q 5097 3584 5394 3201 
Q 5691 2819 5691 2113 
L 5691 0 
L 5113 0 
L 5113 2094 
Q 5113 2597 4934 2840 
Q 4756 3084 4391 3084 
Q 3944 3084 3684 2787 
Q 3425 2491 3425 1978 
L 3425 0 
L 2847 0 
L 2847 2094 
Q 2847 2600 2669 2842 
Q 2491 3084 2119 3084 
Q 1678 3084 1418 2786 
Q 1159 2488 1159 1978 
L 1159 0 
L 581 0 
L 581 3500 
L 1159 3500 
L 1159 2956 
Q 1356 3278 1631 3431 
Q 1906 3584 2284 3584 
Q 2666 3584 2933 3390 
Q 3200 3197 3328 2828 
z
" transform="scale(0.015625)"/>
       <path id="DejaVuSans-75" d="M 544 1381 
L 544 3500 
L 1119 3500 
L 1119 1403 
Q 1119 906 1312 657 
Q 1506 409 1894 409 
Q 2359 409 2629 706 
Q 2900 1003 2900 1516 
L 2900 3500 
L 3475 3500 
L 3475 0 
L 2900 0 
L 2900 538 
Q 2691 219 2414 64 
Q 2138 -91 1772 -91 
Q 1169 -91 856 284 
Q 544 659 544 1381 
z
M 1991 3584 
L 1991 3584 
z
" transform="scale(0.015625)"/>
       <path id="DejaVuSans-6e" d="M 3513 2113 
L 3513 0 
L 2938 0 
L 2938 2094 
Q 2938 2591 2744 2837 
Q 2550 3084 2163 3084 
Q 1697 3084 1428 2787 
Q 1159 2491 1159 1978 
L 1159 0 
L 581 0 
L 581 3500 
L 1159 3500 
L 1159 2956 
Q 1366 3272 1645 3428 
Q 1925 3584 2291 3584 
Q 2894 3584 3203 3211 
Q 3513 2838 3513 2113 
z
" transform="scale(0.015625)"/>
       <path id="DejaVuSans-69" d="M 603 3500 
L 1178 3500 
L 1178 0 
L 603 0 
L 603 3500 
z
M 603 4863 
L 1178 4863 
L 1178 4134 
L 603 4134 
L 603 4863 
z
" transform="scale(0.015625)"/>
       <path id="DejaVuSans-63" d="M 3122 3366 
L 3122 2828 
Q 2878 2963 2633 3030 
Q 2388 3097 2138 3097 
Q 1578 3097 1268 2742 
Q 959 2388 959 1747 
Q 959 1106 1268 751 
Q 1578 397 2138 397 
Q 2388 397 2633 464 
Q 2878 531 3122 666 
L 3122 134 
Q 2881 22 2623 -34 
Q 2366 -91 2075 -91 
Q 1284 -91 818 406 
Q 353 903 353 1747 
Q 353 2603 823 3093 
Q 1294 3584 2113 3584 
Q 2378 3584 2631 3529 
Q 2884 3475 3122 3366 
z
" transform="scale(0.015625)"/>
       <path id="DejaVuSans-61" d="M 2194 1759 
Q 1497 1759 1228 1600 
Q 959 1441 959 1056 
Q 959 750 1161 570 
Q 1363 391 1709 391 
Q 2188 391 2477 730 
Q 2766 1069 2766 1631 
L 2766 1759 
L 2194 1759 
z
M 3341 1997 
L 3341 0 
L 2766 0 
L 2766 531 
Q 2569 213 2275 61 
Q 1981 -91 1556 -91 
Q 1019 -91 701 211 
Q 384 513 384 1019 
Q 384 1609 779 1909 
Q 1175 2209 1959 2209 
L 2766 2209 
L 2766 2266 
Q 2766 2663 2505 2880 
Q 2244 3097 1772 3097 
Q 1472 3097 1187 3025 
Q 903 2953 641 2809 
L 641 3341 
Q 956 3463 1253 3523 
Q 1550 3584 1831 3584 
Q 2591 3584 2966 3190 
Q 3341 2797 3341 1997 
z
" transform="scale(0.015625)"/>
       <path id="DejaVuSans-74" d="M 1172 4494 
L 1172 3500 
L 2356 3500 
L 2356 3053 
L 1172 3053 
L 1172 1153 
Q 1172 725 1289 603 
Q 1406 481 1766 481 
L 2356 481 
L 2356 0 
L 1766 0 
Q 1100 0 847 248 
Q 594 497 594 1153 
L 594 3053 
L 172 3053 
L 172 3500 
L 594 3500 
L 594 4494 
L 1172 4494 
z
" transform="scale(0.015625)"/>
       <path id="DejaVuSans-20" transform="scale(0.015625)"/>
       <path id="DejaVuSans-72" d="M 2631 2963 
Q 2534 3019 2420 3045 
Q 2306 3072 2169 3072 
Q 1681 3072 1420 2755 
Q 1159 2438 1159 1844 
L 1159 0 
L 581 0 
L 581 3500 
L 1159 3500 
L 1159 2956 
Q 1341 3275 1631 3429 
Q 1922 3584 2338 3584 
Q 2397 3584 2469 3576 
Q 2541 3569 2628 3553 
L 2631 2963 
z
" transform="scale(0.015625)"/>
       <path id="DejaVuSans-64" d="M 2906 2969 
L 2906 4863 
L 3481 4863 
L 3481 0 
L 2906 0 
L 2906 525 
Q 2725 213 2448 61 
Q 2172 -91 1784 -91 
Q 1150 -91 751 415 
Q 353 922 353 1747 
Q 353 2572 751 3078 
Q 1150 3584 1784 3584 
Q 2172 3584 2448 3432 
Q 2725 3281 2906 2969 
z
M 947 1747 
Q 947 1113 1208 752 
Q 1469 391 1925 391 
Q 2381 391 2643 752 
Q 2906 1113 2906 1747 
Q 2906 2381 2643 2742 
Q 2381 3103 1925 3103 
Q 1469 3103 1208 2742 
Q 947 2381 947 1747 
z
" transform="scale(0.015625)"/>
       <path id="DejaVuSans-73" d="M 2834 3397 
L 2834 2853 
Q 2591 2978 2328 3040 
Q 2066 3103 1784 3103 
Q 1356 3103 1142 2972 
Q 928 2841 928 2578 
Q 928 2378 1081 2264 
Q 1234 2150 1697 2047 
L 1894 2003 
Q 2506 1872 2764 1633 
Q 3022 1394 3022 966 
Q 3022 478 2636 193 
Q 2250 -91 1575 -91 
Q 1294 -91 989 -36 
Q 684 19 347 128 
L 347 722 
Q 666 556 975 473 
Q 1284 391 1588 391 
Q 1994 391 2212 530 
Q 2431 669 2431 922 
Q 2431 1156 2273 1281 
Q 2116 1406 1581 1522 
L 1381 1569 
Q 847 1681 609 1914 
Q 372 2147 372 2553 
Q 372 3047 722 3315 
Q 1072 3584 1716 3584 
Q 2034 3584 2315 3537 
Q 2597 3491 2834 3397 
z
" transform="scale(0.015625)"/>
      </defs>
      <use xlink:href="#DejaVuSans-43"/>
      <use xlink:href="#DejaVuSans-6f" x="69.824219"/>
      <use xlink:href="#DejaVuSans-6d" x="131.005859"/>
      <use xlink:href="#DejaVuSans-6d" x="228.417969"/>
      <use xlink:href="#DejaVuSans-75" x="325.830078"/>
      <use xlink:href="#DejaVuSans-6e" x="389.208984"/>
      <use xlink:href="#DejaVuSans-69" x="452.587891"/>
      <use xlink:href="#DejaVuSans-63" x="480.371094"/>
      <use xlink:href="#DejaVuSans-61" x="535.351562"/>
      <use xlink:href="#DejaVuSans-74" x="596.630859"/>
      <use xlink:href="#DejaVuSans-69" x="635.839844"/>
      <use xlink:href="#DejaVuSans-6f" x="663.623047"/>
      <use xlink:href="#DejaVuSans-6e" x="724.804688"/>
      <use xlink:href="#DejaVuSans-20" x="788.183594"/>
      <use xlink:href="#DejaVuSans-72" x="819.970703"/>
      <use xlink:href="#DejaVuSans-6f" x="858.833984"/>
      <use xlink:href="#DejaVuSans-75" x="920.015625"/>
      <use xlink:href="#DejaVuSans-6e" x="983.394531"/>
      <use xlink:href="#DejaVuSans-64" x="1046.773438"/>
      <use xlink:href="#DejaVuSans-73" x="1110.25"/>
     </g>
    </g>
   </g>
   <g id="matplotlib.axis_2">
    <g id="ytick_1">
     <g id="line2d_13">
      <path d="M 72 381.831564 
L 518.4 381.831564 
" clip-path="url(#pf5d9b5cfca)" style="fill: none; stroke: #b0b0b0; stroke-opacity: 0.5; stroke-width: 0.8; stroke-linecap: square"/>
     </g>
     <g id="line2d_14">
      <defs>
       <path id="mb32d06a1a7" d="M 0 0 
L -3.5 0 
" style="stroke: #000000; stroke-width: 0.8"/>
      </defs>
      <g>
       <use xlink:href="#mb32d06a1a7" x="72" y="381.831564" style="stroke: #000000; stroke-width: 0.8"/>
      </g>
     </g>
     <g id="text_8">
      <!-- 0.0 -->
      <g transform="translate(49.096875 385.630783)scale(0.1 -0.1)">
       <defs>
        <path id="DejaVuSans-2e" d="M 684 794 
L 1344 794 
L 1344 0 
L 684 0 
L 684 794 
z
" transform="scale(0.015625)"/>
       </defs>
       <use xlink:href="#DejaVuSans-30"/>
       <use xlink:href="#DejaVuSans-2e" x="63.623047"/>
       <use xlink:href="#DejaVuSans-30" x="95.410156"/>
      </g>
     </g>
    </g>
    <g id="ytick_2">
     <g id="line2d_15">
      <path d="M 72 310.970404 
L 518.4 310.970404 
" clip-path="url(#pf5d9b5cfca)" style="fill: none; stroke: #b0b0b0; stroke-opacity: 0.5; stroke-width: 0.8; stroke-linecap: square"/>
     </g>
     <g id="line2d_16">
      <g>
       <use xlink:href="#mb32d06a1a7" x="72" y="310.970404" style="stroke: #000000; stroke-width: 0.8"/>
      </g>
     </g>
     <g id="text_9">
      <!-- 0.2 -->
      <g transform="translate(49.096875 314.769623)scale(0.1 -0.1)">
       <use xlink:href="#DejaVuSans-30"/>
       <use xlink:href="#DejaVuSans-2e" x="63.623047"/>
       <use xlink:href="#DejaVuSans-32" x="95.410156"/>
      </g>
     </g>
    </g>
    <g id="ytick_3">
     <g id="line2d_17">
      <path d="M 72 240.109244 
L 518.4 240.109244 
" clip-path="url(#pf5d9b5cfca)" style="fill: none; stroke: #b0b0b0; stroke-opacity: 0.5; stroke-width: 0.8; stroke-linecap: square"/>
     </g>
     <g id="line2d_18">
      <g>
       <use xlink:href="#mb32d06a1a7" x="72" y="240.109244" style="stroke: #000000; stroke-width: 0.8"/>
      </g>
     </g>
     <g id="text_10">
      <!-- 0.4 -->
      <g transform="translate(49.096875 243.908463)scale(0.1 -0.1)">
       <defs>
        <path id="DejaVuSans-34" d="M 2419 4116 
L 825 1625 
L 2419 1625 
L 2419 4116 
z
M 2253 4666 
L 3047 4666 
L 3047 1625 
L 3713 1625 
L 3713 1100 
L 3047 1100 
L 3047 0 
L 2419 0 
L 2419 1100 
L 313 1100 
L 313 1709 
L 2253 4666 
z
" transform="scale(0.015625)"/>
       </defs>
       <use xlink:href="#DejaVuSans-30"/>
       <use xlink:href="#DejaVuSans-2e" x="63.623047"/>
       <use xlink:href="#DejaVuSans-34" x="95.410156"/>
      </g>
     </g>
    </g>
    <g id="ytick_4">
     <g id="line2d_19">
      <path d="M 72 169.248084 
L 518.4 169.248084 
" clip-path="url(#pf5d9b5cfca)" style="fill: none; stroke: #b0b0b0; stroke-opacity: 0.5; stroke-width: 0.8; stroke-linecap: square"/>
     </g>
     <g id="line2d_20">
      <g>
       <use xlink:href="#mb32d06a1a7" x="72" y="169.248084" style="stroke: #000000; stroke-width: 0.8"/>
      </g>
     </g>
     <g id="text_11">
      <!-- 0.6 -->
      <g transform="translate(49.096875 173.047303)scale(0.1 -0.1)">
       <defs>
        <path id="DejaVuSans-36" d="M 2113 2584 
Q 1688 2584 1439 2293 
Q 1191 2003 1191 1497 
Q 1191 994 1439 701 
Q 1688 409 2113 409 
Q 2538 409 2786 701 
Q 3034 994 3034 1497 
Q 3034 2003 2786 2293 
Q 2538 2584 2113 2584 
z
M 3366 4563 
L 3366 3988 
Q 3128 4100 2886 4159 
Q 2644 4219 2406 4219 
Q 1781 4219 1451 3797 
Q 1122 3375 1075 2522 
Q 1259 2794 1537 2939 
Q 1816 3084 2150 3084 
Q 2853 3084 3261 2657 
Q 3669 2231 3669 1497 
Q 3669 778 3244 343 
Q 2819 -91 2113 -91 
Q 1303 -91 875 529 
Q 447 1150 447 2328 
Q 447 3434 972 4092 
Q 1497 4750 2381 4750 
Q 2619 4750 2861 4703 
Q 3103 4656 3366 4563 
z
" transform="scale(0.015625)"/>
       </defs>
       <use xlink:href="#DejaVuSans-30"/>
       <use xlink:href="#DejaVuSans-2e" x="63.623047"/>
       <use xlink:href="#DejaVuSans-36" x="95.410156"/>
      </g>
     </g>
    </g>
    <g id="ytick_5">
     <g id="line2d_21">
      <path d="M 72 98.386924 
L 518.4 98.386924 
" clip-path="url(#pf5d9b5cfca)" style="fill: none; stroke: #b0b0b0; stroke-opacity: 0.5; stroke-width: 0.8; stroke-linecap: square"/>
     </g>
     <g id="line2d_22">
      <g>
       <use xlink:href="#mb32d06a1a7" x="72" y="98.386924" style="stroke: #000000; stroke-width: 0.8"/>
      </g>
     </g>
     <g id="text_12">
      <!-- 0.8 -->
      <g transform="translate(49.096875 102.186143)scale(0.1 -0.1)">
       <defs>
        <path id="DejaVuSans-38" d="M 2034 2216 
Q 1584 2216 1326 1975 
Q 1069 1734 1069 1313 
Q 1069 891 1326 650 
Q 1584 409 2034 409 
Q 2484 409 2743 651 
Q 3003 894 3003 1313 
Q 3003 1734 2745 1975 
Q 2488 2216 2034 2216 
z
M 1403 2484 
Q 997 2584 770 2862 
Q 544 3141 544 3541 
Q 544 4100 942 4425 
Q 1341 4750 2034 4750 
Q 2731 4750 3128 4425 
Q 3525 4100 3525 3541 
Q 3525 3141 3298 2862 
Q 3072 2584 2669 2484 
Q 3125 2378 3379 2068 
Q 3634 1759 3634 1313 
Q 3634 634 3220 271 
Q 2806 -91 2034 -91 
Q 1263 -91 848 271 
Q 434 634 434 1313 
Q 434 1759 690 2068 
Q 947 2378 1403 2484 
z
M 1172 3481 
Q 1172 3119 1398 2916 
Q 1625 2713 2034 2713 
Q 2441 2713 2670 2916 
Q 2900 3119 2900 3481 
Q 2900 3844 2670 4047 
Q 2441 4250 2034 4250 
Q 1625 4250 1398 4047 
Q 1172 3844 1172 3481 
z
" transform="scale(0.015625)"/>
       </defs>
       <use xlink:href="#DejaVuSans-30"/>
       <use xlink:href="#DejaVuSans-2e" x="63.623047"/>
       <use xlink:href="#DejaVuSans-38" x="95.410156"/>
      </g>
     </g>
    </g>
    <g id="text_13">
     <!-- Accuracy -->
     <g transform="translate(43.017187 240.988125)rotate(-90)scale(0.1 -0.1)">
      <defs>
       <path id="DejaVuSans-41" d="M 2188 4044 
L 1331 1722 
L 3047 1722 
L 2188 4044 
z
M 1831 4666 
L 2547 4666 
L 4325 0 
L 3669 0 
L 3244 1197 
L 1141 1197 
L 716 0 
L 50 0 
L 1831 4666 
z
" transform="scale(0.015625)"/>
       <path id="DejaVuSans-79" d="M 2059 -325 
Q 1816 -950 1584 -1140 
Q 1353 -1331 966 -1331 
L 506 -1331 
L 506 -850 
L 844 -850 
Q 1081 -850 1212 -737 
Q 1344 -625 1503 -206 
L 1606 56 
L 191 3500 
L 800 3500 
L 1894 763 
L 2988 3500 
L 3597 3500 
L 2059 -325 
z
" transform="scale(0.015625)"/>
      </defs>
      <use xlink:href="#DejaVuSans-41"/>
      <use xlink:href="#DejaVuSans-63" x="66.658203"/>
      <use xlink:href="#DejaVuSans-63" x="121.638672"/>
      <use xlink:href="#DejaVuSans-75" x="176.619141"/>
      <use xlink:href="#DejaVuSans-72" x="239.998047"/>
      <use xlink:href="#DejaVuSans-61" x="281.111328"/>
      <use xlink:href="#DejaVuSans-63" x="342.390625"/>
      <use xlink:href="#DejaVuSans-79" x="397.371094"/>
     </g>
    </g>
   </g>
   <g id="line2d_23">
    <path d="M 92.290909 362.344745 
L 93.914182 361.033814 
L 95.537455 360.573216 
L 97.160727 351.821863 
L 98.784 350.546362 
L 100.407273 348.526819 
L 102.030545 338.889701 
L 103.653818 334.956907 
L 105.277091 328.189666 
L 106.900364 325.780387 
L 108.523636 325.567803 
L 110.146909 321.812162 
L 111.770182 315.044921 
L 113.393455 316.81645 
L 115.016727 309.553181 
L 116.64 303.246538 
L 118.263273 302.998524 
L 119.886545 300.128647 
L 121.509818 292.900808 
L 123.133091 280.216661 
L 124.756364 279.330896 
L 126.379636 278.267979 
L 128.002909 276.283866 
L 129.626182 259.844077 
L 131.249455 259.454341 
L 132.872727 241.243023 
L 134.496 246.274165 
L 136.119273 237.097645 
L 137.742545 242.801968 
L 139.365818 238.869174 
L 140.989091 213.890615 
L 142.612364 215.839297 
L 144.235636 213.890615 
L 145.858909 208.859473 
L 147.482182 224.803234 
L 149.105455 205.564429 
L 150.728727 188.238875 
L 152.352 187.813708 
L 153.975273 189.12464 
L 155.598545 174.668963 
L 157.221818 174.243796 
L 158.845091 174.668963 
L 160.468364 162.87058 
L 163.714909 167.689139 
L 165.338182 163.295747 
L 166.961455 155.819895 
L 168.584727 169.212654 
L 170.208 169.885835 
L 171.831273 157.37884 
L 173.454545 148.592056 
L 175.077818 156.493076 
L 176.701091 136.793673 
L 178.324364 136.829104 
L 179.947636 135.907909 
L 181.570909 137.679438 
L 183.194182 132.187698 
L 184.817455 135.907909 
L 186.440727 135.022144 
L 188.064 150.151002 
L 189.687273 130.664183 
L 191.310545 128.928084 
L 192.933818 131.337364 
L 194.557091 117.094271 
L 196.180364 122.337996 
L 197.803636 119.078383 
L 199.426909 122.55058 
L 201.050182 114.436977 
L 202.673455 138.990369 
L 204.296727 116.208506 
L 205.92 126.943972 
L 207.543273 155.182144 
L 209.166545 114.684991 
L 210.789818 114.436977 
L 212.413091 128.006889 
L 214.036364 108.732654 
L 215.659636 111.815114 
L 217.282909 103.701511 
L 218.906182 112.913462 
L 220.529455 128.04232 
L 222.152727 113.37406 
L 223.776 114.436977 
L 225.399273 106.146221 
L 227.022545 109.228682 
L 228.645818 103.949525 
L 230.269091 105.260457 
L 231.892364 110.752197 
L 233.515636 139.66355 
L 235.138909 105.260457 
L 236.762182 102.638594 
L 238.385455 102.39058 
L 240.008727 131.975114 
L 241.632 103.063761 
L 243.255273 114.436977 
L 244.878545 93.426643 
L 246.501818 121.062496 
L 248.125091 97.359438 
L 249.748364 95.835923 
L 251.371636 99.130967 
L 252.994909 111.815114 
L 254.618182 102.177996 
L 256.241455 96.721687 
L 257.864727 103.063761 
L 259.488 97.572021 
L 261.111273 96.509104 
L 262.734545 92.540879 
L 264.357818 90.131599 
L 265.981091 109.228682 
L 267.604364 100.477329 
L 269.227636 101.327663 
L 270.850909 102.426011 
L 272.474182 89.281265 
L 274.097455 103.063761 
L 275.720727 91.265378 
L 277.344 111.815114 
L 278.967273 86.836555 
L 280.590545 105.260457 
L 282.213818 93.001476 
L 285.460364 87.084569 
L 287.083636 89.493849 
L 288.706909 87.934903 
L 290.330182 89.033251 
L 291.953455 89.954446 
L 293.576727 85.100457 
L 295.2 79.431564 
L 296.823273 101.327663 
L 298.446545 86.659402 
L 300.069818 82.903761 
L 301.693091 95.835923 
L 303.316364 86.021652 
L 304.939636 92.151142 
L 306.562909 85.773638 
L 308.186182 80.955079 
L 309.809455 82.266011 
L 311.432727 82.726608 
L 314.679273 85.348471 
L 316.302545 88.608084 
L 317.925818 91.477961 
L 319.549091 81.415677 
L 321.172364 86.836555 
L 322.795636 86.623972 
L 324.418909 85.986221 
L 326.042182 91.903128 
L 327.665455 77.695466 
L 329.288727 82.266011 
L 330.912 78.758383 
L 332.535273 83.151775 
L 334.158545 84.250123 
L 335.781818 80.742496 
L 337.405091 89.068682 
L 339.028364 93.24949 
L 340.651636 83.364359 
L 342.274909 87.545167 
L 343.898182 95.623339 
L 345.521455 82.266011 
L 347.144727 84.67529 
L 348.768 86.836555 
L 350.391273 89.954446 
L 352.014545 80.955079 
L 353.637818 118.405202 
L 355.261091 77.660035 
L 356.884364 86.446819 
L 358.507636 77.447452 
L 360.130909 82.726608 
L 361.754182 79.892162 
L 363.377455 85.986221 
L 365.000727 78.5458 
L 366.624 84.002109 
L 368.247273 88.182917 
L 369.870545 90.592197 
L 371.493818 85.348471 
L 373.117091 95.375325 
L 374.740364 98.245202 
L 376.363636 88.182917 
L 377.986909 75.923937 
L 379.610182 76.561687 
L 381.233455 78.758383 
L 382.856727 91.903128 
L 384.48 89.954446 
L 386.103273 74.825589 
L 387.726545 86.446819 
L 389.349818 82.726608 
L 390.973091 81.380246 
L 392.596364 76.171951 
L 394.219636 77.695466 
L 395.842909 84.002109 
L 397.466182 77.447452 
L 399.089455 82.514025 
L 400.712727 79.644148 
L 402.336 92.788893 
L 403.959273 97.182285 
L 405.582545 74.400422 
L 407.205818 79.608717 
L 408.829091 76.561687 
L 410.452364 86.659402 
L 412.075636 76.561687 
L 413.698909 77.234868 
L 415.322182 80.955079 
L 416.945455 74.613005 
L 418.568727 75.888506 
L 420.192 75.250756 
L 421.815273 75.711353 
L 423.438545 83.576942 
L 425.061818 77.022285 
L 426.685091 77.022285 
L 428.308364 90.344183 
L 429.931636 75.923937 
L 431.554909 80.069315 
L 433.178182 93.21406 
L 434.801455 74.825589 
L 436.424727 80.494482 
L 438.048 76.561687 
L 439.671273 70.680211 
L 441.294545 73.727241 
L 442.917818 73.939824 
L 444.541091 76.349104 
L 446.164364 91.052794 
L 447.787636 71.530545 
L 449.410909 78.120633 
L 451.034182 76.809701 
L 452.657455 74.825589 
L 454.280727 75.711353 
L 455.904 84.002109 
L 457.527273 82.726608 
L 459.150545 76.349104 
L 460.773818 73.302074 
L 462.397091 74.825589 
L 464.020364 91.903128 
L 465.643636 72.841476 
L 467.266909 73.939824 
L 468.890182 76.809701 
L 470.513455 73.302074 
L 472.136727 73.05406 
L 473.76 72.416309 
L 475.383273 75.711353 
L 477.006545 78.5458 
L 478.629818 82.266011 
L 480.253091 73.727241 
L 481.876364 82.726608 
L 483.499636 85.986221 
L 485.122909 73.05406 
L 486.746182 72.876907 
L 488.369455 73.514657 
L 489.992727 74.613005 
L 491.616 79.431564 
L 493.239273 80.955079 
L 494.862545 72.168295 
L 496.485818 74.364991 
L 498.109091 77.447452 
L 498.109091 77.447452 
" clip-path="url(#pf5d9b5cfca)" style="fill: none; stroke: #1f77b4; stroke-width: 1.5; stroke-linecap: square"/>
   </g>
   <g id="line2d_24">
    <path d="M 92.290909 364.966608 
L 93.914182 357.73877 
L 95.537455 354.231142 
L 97.160727 349.873181 
L 98.784 351.148682 
L 100.407273 344.806608 
L 102.030545 341.334411 
L 103.653818 332.335044 
L 105.277091 329.925764 
L 106.900364 324.682039 
L 108.523636 318.091951 
L 110.146909 310.864112 
L 111.770182 307.356485 
L 115.016727 290.52696 
L 116.64 288.578278 
L 118.263273 277.842812 
L 119.886545 270.579543 
L 123.133091 249.356626 
L 124.756364 240.144675 
L 126.379636 242.766538 
L 128.002909 227.673111 
L 129.626182 222.606538 
L 131.249455 237.735395 
L 132.872727 224.378067 
L 134.496 205.564429 
L 136.119273 209.036626 
L 137.742545 210.134974 
L 139.365818 193.518032 
L 140.989091 186.042179 
L 142.612364 179.487522 
L 144.235636 217.362812 
L 145.858909 169.425237 
L 147.482182 165.031845 
L 149.105455 161.099051 
L 150.728727 153.871213 
L 152.352 164.819262 
L 153.975273 156.067909 
L 155.598545 150.611599 
L 157.221818 141.612232 
L 158.845091 142.249982 
L 160.468364 140.301301 
L 163.714909 162.622566 
L 165.338182 144.446678 
L 166.961455 133.286046 
L 168.584727 128.928084 
L 170.208 125.385026 
L 171.831273 130.664183 
L 173.454545 117.306854 
L 175.077818 149.690404 
L 176.701091 121.452232 
L 178.324364 113.586643 
L 179.947636 115.995923 
L 181.570909 122.337996 
L 183.194182 116.42109 
L 184.817455 114.01181 
L 186.440727 113.586643 
L 188.064 135.482742 
L 189.687273 114.047241 
L 191.310545 105.898207 
L 192.933818 107.457153 
L 194.557091 100.867065 
L 196.180364 106.358805 
L 197.803636 120.389315 
L 199.426909 115.747909 
L 201.050182 116.208506 
L 204.296727 102.426011 
L 205.92 116.633673 
L 207.543273 103.524359 
L 209.166545 116.45652 
L 210.789818 104.622707 
L 212.413091 101.965413 
L 214.036364 98.493216 
L 215.659636 105.047873 
L 217.282909 101.965413 
L 218.906182 102.39058 
L 220.529455 109.405835 
L 222.152727 99.556134 
L 223.776 96.934271 
L 225.399273 99.591564 
L 227.022545 94.099824 
L 228.645818 102.213427 
L 230.269091 121.700246 
L 231.892364 95.162742 
L 233.515636 94.099824 
L 235.138909 96.721687 
L 236.762182 100.016731 
L 238.385455 92.540879 
L 240.008727 100.689912 
L 241.632 101.327663 
L 243.255273 101.327663 
L 244.878545 94.099824 
L 246.501818 95.835923 
L 248.125091 92.576309 
L 249.748364 89.033251 
L 251.371636 86.021652 
L 252.994909 96.969701 
L 254.618182 97.820035 
L 256.241455 91.442531 
L 257.864727 92.115712 
L 259.488 91.017364 
L 261.111273 93.462074 
L 262.734545 101.115079 
L 264.357818 90.379613 
L 265.981091 90.592197 
L 267.604364 85.348471 
L 269.227636 95.835923 
L 270.850909 88.856098 
L 272.474182 89.706432 
L 274.097455 104.622707 
L 275.720727 95.65877 
L 277.344 91.017364 
L 278.967273 98.670369 
L 280.590545 91.690545 
L 282.213818 99.556134 
L 283.837091 81.415677 
L 285.460364 87.75775 
L 287.083636 90.131599 
L 288.706909 86.659402 
L 290.330182 104.374692 
L 291.953455 85.773638 
L 293.576727 90.592197 
L 295.2 89.954446 
L 296.823273 96.083937 
L 298.446545 88.820668 
L 300.069818 87.75775 
L 301.693091 84.67529 
L 303.316364 87.297153 
L 304.939636 85.100457 
L 306.562909 92.328295 
L 308.186182 81.840844 
L 309.809455 80.317329 
L 311.432727 84.887873 
L 313.056 84.462707 
L 314.679273 82.903761 
L 316.302545 90.379613 
L 317.925818 87.545167 
L 319.549091 85.773638 
L 321.172364 82.726608 
L 322.795636 103.949525 
L 324.418909 86.234236 
L 326.042182 83.151775 
L 327.665455 87.297153 
L 329.288727 84.250123 
L 330.912 80.317329 
L 332.535273 81.415677 
L 334.158545 81.59283 
L 335.781818 78.970967 
L 337.405091 80.494482 
L 339.028364 82.903761 
L 340.651636 74.187838 
L 342.274909 87.545167 
L 343.898182 81.840844 
L 345.521455 86.871986 
L 347.144727 85.986221 
L 348.768 82.053427 
L 350.391273 75.038172 
L 352.014545 89.281265 
L 353.637818 85.986221 
L 355.261091 79.856731 
L 356.884364 81.805413 
L 358.507636 78.5458 
L 360.130909 82.266011 
L 361.754182 80.281898 
L 363.377455 75.711353 
L 365.000727 79.856731 
L 366.624 90.379613 
L 368.247273 77.234868 
L 369.870545 88.820668 
L 371.493818 77.022285 
L 373.117091 76.384534 
L 374.740364 80.317329 
L 376.363636 81.167663 
L 377.986909 70.432197 
L 379.610182 79.431564 
L 381.233455 73.939824 
L 382.856727 86.198805 
L 384.48 86.234236 
L 386.103273 81.167663 
L 387.726545 97.182285 
L 389.349818 76.13652 
L 390.973091 81.167663 
L 392.596364 81.840844 
L 394.219636 79.396134 
L 395.842909 82.726608 
L 397.466182 74.613005 
L 399.089455 83.612373 
L 400.712727 79.396134 
L 402.336 85.525624 
L 403.959273 83.116344 
L 405.582545 78.297786 
L 407.205818 75.711353 
L 408.829091 78.333216 
L 410.452364 81.380246 
L 412.075636 80.494482 
L 413.698909 77.695466 
L 415.322182 80.955079 
L 416.945455 76.13652 
L 418.568727 84.03754 
L 420.192 79.396134 
L 421.815273 82.053427 
L 423.438545 97.607452 
L 425.061818 74.825589 
L 426.685091 70.219613 
L 428.308364 80.317329 
L 429.931636 75.49877 
L 431.554909 77.872619 
L 433.178182 86.871986 
L 434.801455 72.628893 
L 436.424727 79.218981 
L 438.048 82.266011 
L 441.294545 75.038172 
L 442.917818 81.840844 
L 444.541091 79.644148 
L 446.164364 78.758383 
L 447.787636 81.415677 
L 449.410909 81.840844 
L 451.034182 77.660035 
L 452.657455 84.002109 
L 454.280727 74.152408 
L 455.904 75.923937 
L 457.527273 79.006397 
L 459.150545 77.695466 
L 460.773818 73.939824 
L 462.397091 74.613005 
L 464.020364 76.384534 
L 465.643636 74.613005 
L 467.266909 78.085202 
L 468.890182 76.13652 
L 470.513455 70.219613 
L 472.136727 81.840844 
L 473.76 69.794446 
L 475.383273 82.726608 
L 477.006545 79.218981 
L 478.629818 79.644148 
L 480.253091 79.644148 
L 483.499636 75.711353 
L 485.122909 80.955079 
L 486.746182 82.903761 
L 488.369455 86.659402 
L 489.992727 76.809701 
L 491.616 72.416309 
L 493.239273 81.415677 
L 494.862545 75.923937 
L 496.485818 83.399789 
L 498.109091 79.218981 
L 498.109091 79.218981 
" clip-path="url(#pf5d9b5cfca)" style="fill: none; stroke: #ff7f0e; stroke-width: 1.5; stroke-linecap: square"/>
   </g>
   <g id="line2d_25">
    <path d="M 92.290909 367.623902 
L 93.914182 366.702707 
L 95.537455 365.002039 
L 97.160727 365.852373 
L 98.784 350.758946 
L 100.407273 354.904323 
L 102.030545 354.868893 
L 103.653818 341.546995 
L 105.277091 338.712548 
L 106.900364 328.40225 
L 108.523636 323.583691 
L 110.146909 315.505518 
L 111.770182 303.211107 
L 113.393455 297.2942 
L 115.016727 284.362039 
L 116.64 275.646116 
L 118.263273 269.056028 
L 119.886545 263.812302 
L 121.509818 253.750018 
L 123.133091 254.175185 
L 124.756364 235.361547 
L 126.379636 232.49167 
L 128.002909 219.134341 
L 129.626182 209.497223 
L 131.249455 209.497223 
L 132.872727 195.89188 
L 134.496 189.12464 
L 136.119273 177.290826 
L 137.742545 185.404429 
L 139.365818 174.243796 
L 140.989091 177.964007 
L 142.612364 153.658629 
L 144.235636 152.985448 
L 145.858909 155.819895 
L 147.482182 137.679438 
L 149.105455 137.466854 
L 150.728727 147.741722 
L 152.352 147.281125 
L 153.975273 139.202953 
L 155.598545 147.741722 
L 157.221818 134.596977 
L 158.845091 125.845624 
L 160.468364 123.223761 
L 162.091636 130.451599 
L 163.714909 119.680703 
L 165.338182 114.897575 
L 166.961455 123.223761 
L 168.584727 138.990369 
L 170.208 106.571388 
L 171.831273 112.063128 
L 173.454545 113.338629 
L 175.077818 127.156555 
L 176.701091 114.436977 
L 178.324364 115.110158 
L 179.947636 114.259824 
L 181.570909 124.322109 
L 183.194182 117.767452 
L 184.817455 107.88232 
L 186.440727 107.88232 
L 188.064 107.031986 
L 189.687273 101.115079 
L 191.310545 92.328295 
L 192.933818 100.689912 
L 194.557091 102.000844 
L 196.180364 107.031986 
L 197.803636 97.359438 
L 199.426909 114.259824 
L 201.050182 111.815114 
L 202.673455 95.835923 
L 204.296727 107.457153 
L 205.92 95.162742 
L 207.543273 100.229315 
L 209.166545 100.654482 
L 210.789818 103.276344 
L 212.413091 100.867065 
L 214.036364 100.441898 
L 215.659636 102.638594 
L 217.282909 94.985589 
L 218.906182 93.426643 
L 220.529455 93.21406 
L 222.152727 89.954446 
L 223.776 91.017364 
L 225.399273 98.032619 
L 227.022545 97.146854 
L 228.645818 92.788893 
L 230.269091 93.21406 
L 231.892364 89.954446 
L 233.515636 89.493849 
L 235.138909 90.379613 
L 236.762182 99.130967 
L 238.385455 92.328295 
L 240.008727 96.083937 
L 241.632 92.328295 
L 243.255273 84.923304 
L 244.878545 100.229315 
L 246.501818 92.115712 
L 248.125091 100.867065 
L 249.748364 93.001476 
L 251.371636 89.954446 
L 252.994909 94.312408 
L 254.618182 87.545167 
L 256.241455 96.721687 
L 257.864727 90.80478 
L 259.488 90.379613 
L 261.111273 92.540879 
L 262.734545 107.031986 
L 264.357818 84.250123 
L 265.981091 100.654482 
L 267.604364 90.80478 
L 269.227636 98.245202 
L 270.850909 87.084569 
L 272.474182 87.297153 
L 274.097455 84.923304 
L 275.720727 91.229947 
L 277.344 94.064394 
L 280.590545 88.856098 
L 282.213818 83.151775 
L 283.837091 87.12 
L 285.460364 80.955079 
L 287.083636 83.364359 
L 288.706909 88.608084 
L 290.330182 88.182917 
L 291.953455 91.903128 
L 293.576727 86.871986 
L 295.2 86.234236 
L 296.823273 84.887873 
L 298.446545 85.561054 
L 300.069818 92.328295 
L 301.693091 89.706432 
L 303.316364 89.281265 
L 304.939636 82.939192 
L 306.562909 82.053427 
L 308.186182 82.266011 
L 309.809455 89.954446 
L 311.432727 88.608084 
L 313.056 88.608084 
L 314.679273 81.167663 
L 316.302545 86.234236 
L 317.925818 95.410756 
L 319.549091 89.068682 
L 321.172364 96.29652 
L 322.795636 82.726608 
L 324.418909 89.493849 
L 326.042182 97.820035 
L 327.665455 84.67529 
L 329.288727 99.768717 
L 330.912 83.116344 
L 332.535273 81.59283 
L 334.158545 87.297153 
L 335.781818 75.463339 
L 337.405091 79.644148 
L 339.028364 84.462707 
L 340.651636 80.281898 
L 342.274909 89.493849 
L 343.898182 81.805413 
L 345.521455 80.742496 
L 347.144727 83.789525 
L 348.768 79.396134 
L 350.391273 80.069315 
L 352.014545 76.809701 
L 353.637818 78.5458 
L 355.261091 81.167663 
L 356.884364 84.002109 
L 358.507636 80.955079 
L 360.130909 79.644148 
L 361.754182 85.986221 
L 363.377455 77.447452 
L 365.000727 77.872619 
L 366.624 77.022285 
L 368.247273 82.903761 
L 369.870545 86.446819 
L 371.493818 86.659402 
L 373.117091 77.447452 
L 374.740364 78.970967 
L 376.363636 88.182917 
L 377.986909 87.75775 
L 379.610182 79.006397 
L 381.233455 74.364991 
L 382.856727 78.758383 
L 384.48 82.478594 
L 386.103273 84.250123 
L 387.726545 86.871986 
L 389.349818 80.494482 
L 390.973091 78.970967 
L 392.596364 82.726608 
L 395.842909 74.613005 
L 397.466182 73.302074 
L 399.089455 95.835923 
L 400.712727 80.281898 
L 402.336 91.903128 
L 403.959273 93.001476 
L 405.582545 76.561687 
L 407.205818 75.711353 
L 408.829091 81.840844 
L 410.452364 76.349104 
L 412.075636 83.364359 
L 413.698909 82.903761 
L 415.322182 77.908049 
L 416.945455 87.297153 
L 418.568727 86.871986 
L 420.192 78.970967 
L 421.815273 82.903761 
L 423.438545 83.576942 
L 425.061818 76.384534 
L 426.685091 75.711353 
L 428.308364 83.364359 
L 429.931636 78.970967 
L 431.554909 73.939824 
L 433.178182 75.49877 
L 434.801455 73.514657 
L 436.424727 88.182917 
L 438.048 85.773638 
L 439.671273 80.494482 
L 441.294545 76.809701 
L 442.917818 75.711353 
L 444.541091 78.333216 
L 446.164364 84.002109 
L 447.787636 77.234868 
L 449.410909 75.463339 
L 451.034182 76.809701 
L 452.657455 85.986221 
L 454.280727 80.955079 
L 455.904 72.168295 
L 457.527273 83.151775 
L 459.150545 80.955079 
L 460.773818 68.696098 
L 462.397091 77.695466 
L 464.020364 77.199438 
L 465.643636 73.05406 
L 467.266909 80.529912 
L 468.890182 77.872619 
L 470.513455 80.955079 
L 472.136727 72.416309 
L 475.383273 81.415677 
L 477.006545 74.187838 
L 478.629818 80.069315 
L 480.253091 77.022285 
L 481.876364 80.069315 
L 483.499636 81.415677 
L 485.122909 72.203726 
L 486.746182 84.67529 
L 488.369455 76.171951 
L 489.992727 77.660035 
L 491.616 75.038172 
L 493.239273 95.835923 
L 494.862545 74.400422 
L 496.485818 94.524991 
L 498.109091 78.297786 
L 498.109091 78.297786 
" clip-path="url(#pf5d9b5cfca)" style="fill: none; stroke: #2ca02c; stroke-width: 1.5; stroke-linecap: square"/>
   </g>
   <g id="line2d_26">
    <path d="M 92.290909 367.801054 
L 93.914182 369.36 
L 97.160727 355.32949 
L 98.784 362.132162 
L 100.407273 357.526186 
L 102.030545 348.137083 
L 103.653818 344.594025 
L 105.277091 332.12246 
L 106.900364 323.796274 
L 108.523636 311.32471 
L 111.770182 305.19522 
L 113.393455 282.873954 
L 115.016727 276.744464 
L 116.64 268.382847 
L 118.263273 254.600351 
L 121.509818 231.818489 
L 123.133091 231.393322 
L 124.756364 203.155149 
L 126.379636 205.777012 
L 128.002909 194.191213 
L 129.626182 190.471002 
L 131.249455 177.53884 
L 132.872727 181.011037 
L 134.496 170.523585 
L 136.119273 168.752056 
L 137.742545 163.968928 
L 139.365818 150.788752 
L 140.989091 173.358032 
L 142.612364 140.301301 
L 144.235636 136.793673 
L 145.858909 122.337996 
L 147.482182 127.369139 
L 149.105455 135.022144 
L 150.728727 132.860879 
L 152.352 129.813849 
L 153.975273 113.586643 
L 155.598545 116.846257 
L 157.221818 118.405202 
L 158.845091 113.37406 
L 160.468364 121.877399 
L 162.091636 117.944605 
L 163.714909 115.570756 
L 165.338182 117.519438 
L 166.961455 107.031986 
L 168.584727 113.799227 
L 170.208 100.016731 
L 171.831273 102.851178 
L 173.454545 116.208506 
L 175.077818 111.177364 
L 176.701091 106.571388 
L 178.324364 110.539613 
L 179.947636 100.689912 
L 181.570909 102.177996 
L 183.194182 105.508471 
L 184.817455 98.245202 
L 186.440727 93.639227 
L 188.064 94.312408 
L 189.687273 91.477961 
L 191.310545 105.933638 
L 192.933818 98.245202 
L 194.557091 110.539613 
L 196.180364 101.327663 
L 197.803636 107.88232 
L 199.426909 89.281265 
L 201.050182 92.788893 
L 202.673455 91.690545 
L 204.296727 93.462074 
L 205.92 90.379613 
L 207.543273 107.031986 
L 209.166545 88.608084 
L 210.789818 85.100457 
L 212.413091 91.477961 
L 214.036364 88.430931 
L 215.659636 87.545167 
L 217.282909 88.608084 
L 218.906182 85.773638 
L 220.529455 98.245202 
L 222.152727 83.151775 
L 223.776 96.29652 
L 225.399273 89.493849 
L 227.022545 85.100457 
L 228.645818 92.540879 
L 230.269091 85.348471 
L 231.892364 84.923304 
L 233.515636 81.59283 
L 235.138909 106.146221 
L 236.762182 86.021652 
L 238.385455 90.131599 
L 240.008727 87.970334 
L 241.632 88.182917 
L 243.255273 91.477961 
L 244.878545 82.903761 
L 246.501818 84.03754 
L 248.125091 89.493849 
L 249.748364 82.478594 
L 251.371636 82.726608 
L 252.994909 87.934903 
L 254.618182 89.281265 
L 256.241455 85.348471 
L 257.864727 82.903761 
L 259.488 77.022285 
L 261.111273 83.576942 
L 262.734545 84.887873 
L 264.357818 88.608084 
L 265.981091 85.561054 
L 267.604364 79.856731 
L 269.227636 80.955079 
L 270.850909 83.789525 
L 272.474182 84.462707 
L 274.097455 77.908049 
L 275.720727 84.462707 
L 277.344 83.824956 
L 278.967273 89.281265 
L 280.590545 83.364359 
L 282.213818 87.75775 
L 283.837091 78.5458 
L 285.460364 72.628893 
L 287.083636 80.742496 
L 288.706909 90.80478 
L 290.330182 84.03754 
L 291.953455 81.59283 
L 293.576727 77.234868 
L 295.2 84.03754 
L 296.823273 79.218981 
L 298.446545 81.840844 
L 300.069818 72.168295 
L 301.693091 78.085202 
L 303.316364 83.116344 
L 304.939636 75.250756 
L 306.562909 85.100457 
L 308.186182 76.561687 
L 309.809455 82.514025 
L 311.432727 96.083937 
L 313.056 77.234868 
L 314.679273 79.644148 
L 316.302545 81.59283 
L 317.925818 75.463339 
L 319.549091 76.171951 
L 321.172364 77.872619 
L 322.795636 80.069315 
L 324.418909 80.069315 
L 326.042182 73.302074 
L 327.665455 73.05406 
L 329.288727 75.038172 
L 330.912 84.03754 
L 332.535273 72.841476 
L 334.158545 82.939192 
L 335.781818 79.218981 
L 337.405091 78.333216 
L 339.028364 71.778559 
L 340.651636 76.561687 
L 342.274909 78.5458 
L 343.898182 79.218981 
L 345.521455 75.038172 
L 347.144727 76.13652 
L 348.768 81.59283 
L 350.391273 76.384534 
L 352.014545 79.396134 
L 353.637818 80.317329 
L 356.884364 69.581863 
L 358.507636 78.758383 
L 360.130909 75.038172 
L 361.754182 75.038172 
L 363.377455 76.13652 
L 365.000727 93.21406 
L 366.624 76.13652 
L 368.247273 73.939824 
L 369.870545 78.120633 
L 371.493818 71.105378 
L 373.117091 75.923937 
L 374.740364 89.741863 
L 376.363636 80.742496 
L 377.986909 74.825589 
L 379.610182 75.49877 
L 381.233455 74.825589 
L 382.856727 69.333849 
L 384.48 71.743128 
L 386.103273 81.59283 
L 387.726545 73.939824 
L 389.349818 94.099824 
L 390.973091 73.05406 
L 392.596364 70.680211 
L 394.219636 77.660035 
L 395.842909 83.364359 
L 397.466182 73.514657 
L 399.089455 85.986221 
L 400.712727 76.561687 
L 402.336 73.08949 
L 403.959273 78.5458 
L 405.582545 73.266643 
L 407.205818 76.561687 
L 408.829091 80.742496 
L 410.452364 87.545167 
L 412.075636 79.396134 
L 413.698909 72.416309 
L 415.322182 76.349104 
L 416.945455 77.022285 
L 418.568727 79.892162 
L 420.192 75.038172 
L 421.815273 71.530545 
L 423.438545 74.577575 
L 425.061818 76.561687 
L 426.685091 83.364359 
L 428.308364 71.778559 
L 429.931636 76.349104 
L 431.554909 68.022917 
L 433.178182 69.794446 
L 434.801455 75.463339 
L 436.424727 70.432197 
L 438.048 71.105378 
L 439.671273 82.514025 
L 441.294545 75.250756 
L 442.917818 74.400422 
L 444.541091 80.494482 
L 446.164364 70.432197 
L 447.787636 72.664323 
L 449.410909 68.483515 
L 451.034182 72.628893 
L 452.657455 75.711353 
L 454.280727 74.364991 
L 455.904 78.758383 
L 457.527273 73.266643 
L 459.150545 74.613005 
L 460.773818 70.857364 
L 462.397091 81.59283 
L 464.020364 72.203726 
L 465.643636 73.939824 
L 467.266909 73.302074 
L 468.890182 67.385167 
L 470.513455 81.415677 
L 472.136727 77.482882 
L 473.76 80.955079 
L 475.383273 74.825589 
L 477.006545 66.96 
L 478.629818 73.939824 
L 480.253091 74.613005 
L 481.876364 78.58123 
L 483.499636 70.432197 
L 486.746182 77.234868 
L 489.992727 69.794446 
L 491.616 70.857364 
L 493.239273 78.5458 
L 494.862545 72.416309 
L 496.485818 75.923937 
L 498.109091 71.778559 
L 498.109091 71.778559 
" clip-path="url(#pf5d9b5cfca)" style="fill: none; stroke: #d62728; stroke-width: 1.5; stroke-linecap: square"/>
   </g>
   <g id="patch_3">
    <path d="M 72 384.48 
L 72 51.84 
" style="fill: none; stroke: #000000; stroke-width: 0.8; stroke-linejoin: miter; stroke-linecap: square"/>
   </g>
   <g id="patch_4">
    <path d="M 518.4 384.48 
L 518.4 51.84 
" style="fill: none; stroke: #000000; stroke-width: 0.8; stroke-linejoin: miter; stroke-linecap: square"/>
   </g>
   <g id="patch_5">
    <path d="M 72 384.48 
L 518.4 384.48 
" style="fill: none; stroke: #000000; stroke-width: 0.8; stroke-linejoin: miter; stroke-linecap: square"/>
   </g>
   <g id="patch_6">
    <path d="M 72 51.84 
L 518.4 51.84 
" style="fill: none; stroke: #000000; stroke-width: 0.8; stroke-linejoin: miter; stroke-linecap: square"/>
   </g>
   <g id="text_14">
    <!-- Max-Common -->
    <g transform="translate(253.606875 45.84)scale(0.12 -0.12)">
     <defs>
      <path id="DejaVuSans-4d" d="M 628 4666 
L 1569 4666 
L 2759 1491 
L 3956 4666 
L 4897 4666 
L 4897 0 
L 4281 0 
L 4281 4097 
L 3078 897 
L 2444 897 
L 1241 4097 
L 1241 0 
L 628 0 
L 628 4666 
z
" transform="scale(0.015625)"/>
      <path id="DejaVuSans-78" d="M 3513 3500 
L 2247 1797 
L 3578 0 
L 2900 0 
L 1881 1375 
L 863 0 
L 184 0 
L 1544 1831 
L 300 3500 
L 978 3500 
L 1906 2253 
L 2834 3500 
L 3513 3500 
z
" transform="scale(0.015625)"/>
      <path id="DejaVuSans-2d" d="M 313 2009 
L 1997 2009 
L 1997 1497 
L 313 1497 
L 313 2009 
z
" transform="scale(0.015625)"/>
     </defs>
     <use xlink:href="#DejaVuSans-4d"/>
     <use xlink:href="#DejaVuSans-61" x="86.279297"/>
     <use xlink:href="#DejaVuSans-78" x="147.558594"/>
     <use xlink:href="#DejaVuSans-2d" x="206.738281"/>
     <use xlink:href="#DejaVuSans-43" x="242.822266"/>
     <use xlink:href="#DejaVuSans-6f" x="312.646484"/>
     <use xlink:href="#DejaVuSans-6d" x="373.828125"/>
     <use xlink:href="#DejaVuSans-6d" x="471.240234"/>
     <use xlink:href="#DejaVuSans-6f" x="568.652344"/>
     <use xlink:href="#DejaVuSans-6e" x="629.833984"/>
    </g>
   </g>
   <g id="legend_1">
    <g id="patch_7">
     <path d="M 79 118.5525 
L 124.203125 118.5525 
Q 126.203125 118.5525 126.203125 116.5525 
L 126.203125 58.84 
Q 126.203125 56.84 124.203125 56.84 
L 79 56.84 
Q 77 56.84 77 58.84 
L 77 116.5525 
Q 77 118.5525 79 118.5525 
z
" style="fill: #ffffff; opacity: 0.8; stroke: #cccccc; stroke-linejoin: miter"/>
    </g>
    <g id="line2d_27">
     <path d="M 81 64.938438 
L 91 64.938438 
L 101 64.938438 
" style="fill: none; stroke: #1f77b4; stroke-width: 1.5; stroke-linecap: square"/>
    </g>
    <g id="text_15">
     <!-- V1 -->
     <g transform="translate(109 68.438438)scale(0.1 -0.1)">
      <defs>
       <path id="DejaVuSans-56" d="M 1831 0 
L 50 4666 
L 709 4666 
L 2188 738 
L 3669 4666 
L 4325 4666 
L 2547 0 
L 1831 0 
z
" transform="scale(0.015625)"/>
      </defs>
      <use xlink:href="#DejaVuSans-56"/>
      <use xlink:href="#DejaVuSans-31" x="68.408203"/>
     </g>
    </g>
    <g id="line2d_28">
     <path d="M 81 79.616563 
L 91 79.616563 
L 101 79.616563 
" style="fill: none; stroke: #ff7f0e; stroke-width: 1.5; stroke-linecap: square"/>
    </g>
    <g id="text_16">
     <!-- V2 -->
     <g transform="translate(109 83.116563)scale(0.1 -0.1)">
      <use xlink:href="#DejaVuSans-56"/>
      <use xlink:href="#DejaVuSans-32" x="68.408203"/>
     </g>
    </g>
    <g id="line2d_29">
     <path d="M 81 94.294688 
L 91 94.294688 
L 101 94.294688 
" style="fill: none; stroke: #2ca02c; stroke-width: 1.5; stroke-linecap: square"/>
    </g>
    <g id="text_17">
     <!-- V3 -->
     <g transform="translate(109 97.794688)scale(0.1 -0.1)">
      <defs>
       <path id="DejaVuSans-33" d="M 2597 2516 
Q 3050 2419 3304 2112 
Q 3559 1806 3559 1356 
Q 3559 666 3084 287 
Q 2609 -91 1734 -91 
Q 1441 -91 1130 -33 
Q 819 25 488 141 
L 488 750 
Q 750 597 1062 519 
Q 1375 441 1716 441 
Q 2309 441 2620 675 
Q 2931 909 2931 1356 
Q 2931 1769 2642 2001 
Q 2353 2234 1838 2234 
L 1294 2234 
L 1294 2753 
L 1863 2753 
Q 2328 2753 2575 2939 
Q 2822 3125 2822 3475 
Q 2822 3834 2567 4026 
Q 2313 4219 1838 4219 
Q 1578 4219 1281 4162 
Q 984 4106 628 3988 
L 628 4550 
Q 988 4650 1302 4700 
Q 1616 4750 1894 4750 
Q 2613 4750 3031 4423 
Q 3450 4097 3450 3541 
Q 3450 3153 3228 2886 
Q 3006 2619 2597 2516 
z
" transform="scale(0.015625)"/>
      </defs>
      <use xlink:href="#DejaVuSans-56"/>
      <use xlink:href="#DejaVuSans-33" x="68.408203"/>
     </g>
    </g>
    <g id="line2d_30">
     <path d="M 81 108.972813 
L 91 108.972813 
L 101 108.972813 
" style="fill: none; stroke: #d62728; stroke-width: 1.5; stroke-linecap: square"/>
    </g>
    <g id="text_18">
     <!-- V4 -->
     <g transform="translate(109 112.472813)scale(0.1 -0.1)">
      <use xlink:href="#DejaVuSans-56"/>
      <use xlink:href="#DejaVuSans-34" x="68.408203"/>
     </g>
    </g>
   </g>
  </g>
 </g>
 <defs>
  <clipPath id="pf5d9b5cfca">
   <rect x="72" y="51.84" width="446.4" height="332.64"/>
  </clipPath>
 </defs>
</svg>
