<?xml version="1.0" encoding="utf-8" standalone="no"?>
<!DOCTYPE svg PUBLIC "-//W3C//DTD SVG 1.1//EN"
  "http://www.w3.org/Graphics/SVG/1.1/DTD/svg11.dtd">
<svg xmlns:xlink="http://www.w3.org/1999/xlink" width="576pt" height="432pt" viewBox="0 0 576 432" xmlns="http://www.w3.org/2000/svg" version="1.1">
 <metadata>
  <rdf:RDF xmlns:dc="http://purl.org/dc/elements/1.1/" xmlns:cc="http://creativecommons.org/ns#" xmlns:rdf="http://www.w3.org/1999/02/22-rdf-syntax-ns#">
   <cc:Work>
    <dc:type rdf:resource="http://purl.org/dc/dcmitype/StillImage"/>
    <dc:date>2023-08-06T20:14:03.350044</dc:date>
    <dc:format>image/svg+xml</dc:format>
    <dc:creator>
     <cc:Agent>
      <dc:title>Matplotlib v3.5.2, https://matplotlib.org/</dc:title>
     </cc:Agent>
    </dc:creator>
   </cc:Work>
  </rdf:RDF>
 </metadata>
 <defs>
  <style type="text/css">*{stroke-linejoin: round; stroke-linecap: butt}</style>
 </defs>
 <g id="figure_1">
  <g id="patch_1">
   <path d="M 0 432 
L 576 432 
L 576 0 
L 0 0 
z
" style="fill: #ffffff"/>
  </g>
  <g id="axes_1">
   <g id="patch_2">
    <path d="M 72 384.48 
L 518.4 384.48 
L 518.4 51.84 
L 72 51.84 
z
" style="fill: #ffffff"/>
   </g>
   <g id="matplotlib.axis_1">
    <g id="xtick_1">
     <g id="line2d_1">
      <path d="M 92.290909 384.48 
L 92.290909 51.84 
" clip-path="url(#pae9a250673)" style="fill: none; stroke: #b0b0b0; stroke-opacity: 0.5; stroke-width: 0.8; stroke-linecap: square"/>
     </g>
     <g id="line2d_2">
      <defs>
       <path id="m3f15e8ee8e" d="M 0 0 
L 0 3.5 
" style="stroke: #000000; stroke-width: 0.8"/>
      </defs>
      <g>
       <use xlink:href="#m3f15e8ee8e" x="92.290909" y="384.48" style="stroke: #000000; stroke-width: 0.8"/>
      </g>
     </g>
     <g id="text_1">
      <!-- 0 -->
      <g transform="translate(89.109659 399.078438)scale(0.1 -0.1)">
       <defs>
        <path id="DejaVuSans-30" d="M 2034 4250 
Q 1547 4250 1301 3770 
Q 1056 3291 1056 2328 
Q 1056 1369 1301 889 
Q 1547 409 2034 409 
Q 2525 409 2770 889 
Q 3016 1369 3016 2328 
Q 3016 3291 2770 3770 
Q 2525 4250 2034 4250 
z
M 2034 4750 
Q 2819 4750 3233 4129 
Q 3647 3509 3647 2328 
Q 3647 1150 3233 529 
Q 2819 -91 2034 -91 
Q 1250 -91 836 529 
Q 422 1150 422 2328 
Q 422 3509 836 4129 
Q 1250 4750 2034 4750 
z
" transform="scale(0.015625)"/>
       </defs>
       <use xlink:href="#DejaVuSans-30"/>
      </g>
     </g>
    </g>
    <g id="xtick_2">
     <g id="line2d_3">
      <path d="M 173.454545 384.48 
L 173.454545 51.84 
" clip-path="url(#pae9a250673)" style="fill: none; stroke: #b0b0b0; stroke-opacity: 0.5; stroke-width: 0.8; stroke-linecap: square"/>
     </g>
     <g id="line2d_4">
      <g>
       <use xlink:href="#m3f15e8ee8e" x="173.454545" y="384.48" style="stroke: #000000; stroke-width: 0.8"/>
      </g>
     </g>
     <g id="text_2">
      <!-- 50 -->
      <g transform="translate(167.092045 399.078438)scale(0.1 -0.1)">
       <defs>
        <path id="DejaVuSans-35" d="M 691 4666 
L 3169 4666 
L 3169 4134 
L 1269 4134 
L 1269 2991 
Q 1406 3038 1543 3061 
Q 1681 3084 1819 3084 
Q 2600 3084 3056 2656 
Q 3513 2228 3513 1497 
Q 3513 744 3044 326 
Q 2575 -91 1722 -91 
Q 1428 -91 1123 -41 
Q 819 9 494 109 
L 494 744 
Q 775 591 1075 516 
Q 1375 441 1709 441 
Q 2250 441 2565 725 
Q 2881 1009 2881 1497 
Q 2881 1984 2565 2268 
Q 2250 2553 1709 2553 
Q 1456 2553 1204 2497 
Q 953 2441 691 2322 
L 691 4666 
z
" transform="scale(0.015625)"/>
       </defs>
       <use xlink:href="#DejaVuSans-35"/>
       <use xlink:href="#DejaVuSans-30" x="63.623047"/>
      </g>
     </g>
    </g>
    <g id="xtick_3">
     <g id="line2d_5">
      <path d="M 254.618182 384.48 
L 254.618182 51.84 
" clip-path="url(#pae9a250673)" style="fill: none; stroke: #b0b0b0; stroke-opacity: 0.5; stroke-width: 0.8; stroke-linecap: square"/>
     </g>
     <g id="line2d_6">
      <g>
       <use xlink:href="#m3f15e8ee8e" x="254.618182" y="384.48" style="stroke: #000000; stroke-width: 0.8"/>
      </g>
     </g>
     <g id="text_3">
      <!-- 100 -->
      <g transform="translate(245.074432 399.078438)scale(0.1 -0.1)">
       <defs>
        <path id="DejaVuSans-31" d="M 794 531 
L 1825 531 
L 1825 4091 
L 703 3866 
L 703 4441 
L 1819 4666 
L 2450 4666 
L 2450 531 
L 3481 531 
L 3481 0 
L 794 0 
L 794 531 
z
" transform="scale(0.015625)"/>
       </defs>
       <use xlink:href="#DejaVuSans-31"/>
       <use xlink:href="#DejaVuSans-30" x="63.623047"/>
       <use xlink:href="#DejaVuSans-30" x="127.246094"/>
      </g>
     </g>
    </g>
    <g id="xtick_4">
     <g id="line2d_7">
      <path d="M 335.781818 384.48 
L 335.781818 51.84 
" clip-path="url(#pae9a250673)" style="fill: none; stroke: #b0b0b0; stroke-opacity: 0.5; stroke-width: 0.8; stroke-linecap: square"/>
     </g>
     <g id="line2d_8">
      <g>
       <use xlink:href="#m3f15e8ee8e" x="335.781818" y="384.48" style="stroke: #000000; stroke-width: 0.8"/>
      </g>
     </g>
     <g id="text_4">
      <!-- 150 -->
      <g transform="translate(326.238068 399.078438)scale(0.1 -0.1)">
       <use xlink:href="#DejaVuSans-31"/>
       <use xlink:href="#DejaVuSans-35" x="63.623047"/>
       <use xlink:href="#DejaVuSans-30" x="127.246094"/>
      </g>
     </g>
    </g>
    <g id="xtick_5">
     <g id="line2d_9">
      <path d="M 416.945455 384.48 
L 416.945455 51.84 
" clip-path="url(#pae9a250673)" style="fill: none; stroke: #b0b0b0; stroke-opacity: 0.5; stroke-width: 0.8; stroke-linecap: square"/>
     </g>
     <g id="line2d_10">
      <g>
       <use xlink:href="#m3f15e8ee8e" x="416.945455" y="384.48" style="stroke: #000000; stroke-width: 0.8"/>
      </g>
     </g>
     <g id="text_5">
      <!-- 200 -->
      <g transform="translate(407.401705 399.078438)scale(0.1 -0.1)">
       <defs>
        <path id="DejaVuSans-32" d="M 1228 531 
L 3431 531 
L 3431 0 
L 469 0 
L 469 531 
Q 828 903 1448 1529 
Q 2069 2156 2228 2338 
Q 2531 2678 2651 2914 
Q 2772 3150 2772 3378 
Q 2772 3750 2511 3984 
Q 2250 4219 1831 4219 
Q 1534 4219 1204 4116 
Q 875 4013 500 3803 
L 500 4441 
Q 881 4594 1212 4672 
Q 1544 4750 1819 4750 
Q 2544 4750 2975 4387 
Q 3406 4025 3406 3419 
Q 3406 3131 3298 2873 
Q 3191 2616 2906 2266 
Q 2828 2175 2409 1742 
Q 1991 1309 1228 531 
z
" transform="scale(0.015625)"/>
       </defs>
       <use xlink:href="#DejaVuSans-32"/>
       <use xlink:href="#DejaVuSans-30" x="63.623047"/>
       <use xlink:href="#DejaVuSans-30" x="127.246094"/>
      </g>
     </g>
    </g>
    <g id="xtick_6">
     <g id="line2d_11">
      <path d="M 498.109091 384.48 
L 498.109091 51.84 
" clip-path="url(#pae9a250673)" style="fill: none; stroke: #b0b0b0; stroke-opacity: 0.5; stroke-width: 0.8; stroke-linecap: square"/>
     </g>
     <g id="line2d_12">
      <g>
       <use xlink:href="#m3f15e8ee8e" x="498.109091" y="384.48" style="stroke: #000000; stroke-width: 0.8"/>
      </g>
     </g>
     <g id="text_6">
      <!-- 250 -->
      <g transform="translate(488.565341 399.078438)scale(0.1 -0.1)">
       <use xlink:href="#DejaVuSans-32"/>
       <use xlink:href="#DejaVuSans-35" x="63.623047"/>
       <use xlink:href="#DejaVuSans-30" x="127.246094"/>
      </g>
     </g>
    </g>
    <g id="text_7">
     <!-- Communication rounds -->
     <g transform="translate(237.083594 412.756563)scale(0.1 -0.1)">
      <defs>
       <path id="DejaVuSans-43" d="M 4122 4306 
L 4122 3641 
Q 3803 3938 3442 4084 
Q 3081 4231 2675 4231 
Q 1875 4231 1450 3742 
Q 1025 3253 1025 2328 
Q 1025 1406 1450 917 
Q 1875 428 2675 428 
Q 3081 428 3442 575 
Q 3803 722 4122 1019 
L 4122 359 
Q 3791 134 3420 21 
Q 3050 -91 2638 -91 
Q 1578 -91 968 557 
Q 359 1206 359 2328 
Q 359 3453 968 4101 
Q 1578 4750 2638 4750 
Q 3056 4750 3426 4639 
Q 3797 4528 4122 4306 
z
" transform="scale(0.015625)"/>
       <path id="DejaVuSans-6f" d="M 1959 3097 
Q 1497 3097 1228 2736 
Q 959 2375 959 1747 
Q 959 1119 1226 758 
Q 1494 397 1959 397 
Q 2419 397 2687 759 
Q 2956 1122 2956 1747 
Q 2956 2369 2687 2733 
Q 2419 3097 1959 3097 
z
M 1959 3584 
Q 2709 3584 3137 3096 
Q 3566 2609 3566 1747 
Q 3566 888 3137 398 
Q 2709 -91 1959 -91 
Q 1206 -91 779 398 
Q 353 888 353 1747 
Q 353 2609 779 3096 
Q 1206 3584 1959 3584 
z
" transform="scale(0.015625)"/>
       <path id="DejaVuSans-6d" d="M 3328 2828 
Q 3544 3216 3844 3400 
Q 4144 3584 4550 3584 
Q 5097 3584 5394 3201 
Q 5691 2819 5691 2113 
L 5691 0 
L 5113 0 
L 5113 2094 
Q 5113 2597 4934 2840 
Q 4756 3084 4391 3084 
Q 3944 3084 3684 2787 
Q 3425 2491 3425 1978 
L 3425 0 
L 2847 0 
L 2847 2094 
Q 2847 2600 2669 2842 
Q 2491 3084 2119 3084 
Q 1678 3084 1418 2786 
Q 1159 2488 1159 1978 
L 1159 0 
L 581 0 
L 581 3500 
L 1159 3500 
L 1159 2956 
Q 1356 3278 1631 3431 
Q 1906 3584 2284 3584 
Q 2666 3584 2933 3390 
Q 3200 3197 3328 2828 
z
" transform="scale(0.015625)"/>
       <path id="DejaVuSans-75" d="M 544 1381 
L 544 3500 
L 1119 3500 
L 1119 1403 
Q 1119 906 1312 657 
Q 1506 409 1894 409 
Q 2359 409 2629 706 
Q 2900 1003 2900 1516 
L 2900 3500 
L 3475 3500 
L 3475 0 
L 2900 0 
L 2900 538 
Q 2691 219 2414 64 
Q 2138 -91 1772 -91 
Q 1169 -91 856 284 
Q 544 659 544 1381 
z
M 1991 3584 
L 1991 3584 
z
" transform="scale(0.015625)"/>
       <path id="DejaVuSans-6e" d="M 3513 2113 
L 3513 0 
L 2938 0 
L 2938 2094 
Q 2938 2591 2744 2837 
Q 2550 3084 2163 3084 
Q 1697 3084 1428 2787 
Q 1159 2491 1159 1978 
L 1159 0 
L 581 0 
L 581 3500 
L 1159 3500 
L 1159 2956 
Q 1366 3272 1645 3428 
Q 1925 3584 2291 3584 
Q 2894 3584 3203 3211 
Q 3513 2838 3513 2113 
z
" transform="scale(0.015625)"/>
       <path id="DejaVuSans-69" d="M 603 3500 
L 1178 3500 
L 1178 0 
L 603 0 
L 603 3500 
z
M 603 4863 
L 1178 4863 
L 1178 4134 
L 603 4134 
L 603 4863 
z
" transform="scale(0.015625)"/>
       <path id="DejaVuSans-63" d="M 3122 3366 
L 3122 2828 
Q 2878 2963 2633 3030 
Q 2388 3097 2138 3097 
Q 1578 3097 1268 2742 
Q 959 2388 959 1747 
Q 959 1106 1268 751 
Q 1578 397 2138 397 
Q 2388 397 2633 464 
Q 2878 531 3122 666 
L 3122 134 
Q 2881 22 2623 -34 
Q 2366 -91 2075 -91 
Q 1284 -91 818 406 
Q 353 903 353 1747 
Q 353 2603 823 3093 
Q 1294 3584 2113 3584 
Q 2378 3584 2631 3529 
Q 2884 3475 3122 3366 
z
" transform="scale(0.015625)"/>
       <path id="DejaVuSans-61" d="M 2194 1759 
Q 1497 1759 1228 1600 
Q 959 1441 959 1056 
Q 959 750 1161 570 
Q 1363 391 1709 391 
Q 2188 391 2477 730 
Q 2766 1069 2766 1631 
L 2766 1759 
L 2194 1759 
z
M 3341 1997 
L 3341 0 
L 2766 0 
L 2766 531 
Q 2569 213 2275 61 
Q 1981 -91 1556 -91 
Q 1019 -91 701 211 
Q 384 513 384 1019 
Q 384 1609 779 1909 
Q 1175 2209 1959 2209 
L 2766 2209 
L 2766 2266 
Q 2766 2663 2505 2880 
Q 2244 3097 1772 3097 
Q 1472 3097 1187 3025 
Q 903 2953 641 2809 
L 641 3341 
Q 956 3463 1253 3523 
Q 1550 3584 1831 3584 
Q 2591 3584 2966 3190 
Q 3341 2797 3341 1997 
z
" transform="scale(0.015625)"/>
       <path id="DejaVuSans-74" d="M 1172 4494 
L 1172 3500 
L 2356 3500 
L 2356 3053 
L 1172 3053 
L 1172 1153 
Q 1172 725 1289 603 
Q 1406 481 1766 481 
L 2356 481 
L 2356 0 
L 1766 0 
Q 1100 0 847 248 
Q 594 497 594 1153 
L 594 3053 
L 172 3053 
L 172 3500 
L 594 3500 
L 594 4494 
L 1172 4494 
z
" transform="scale(0.015625)"/>
       <path id="DejaVuSans-20" transform="scale(0.015625)"/>
       <path id="DejaVuSans-72" d="M 2631 2963 
Q 2534 3019 2420 3045 
Q 2306 3072 2169 3072 
Q 1681 3072 1420 2755 
Q 1159 2438 1159 1844 
L 1159 0 
L 581 0 
L 581 3500 
L 1159 3500 
L 1159 2956 
Q 1341 3275 1631 3429 
Q 1922 3584 2338 3584 
Q 2397 3584 2469 3576 
Q 2541 3569 2628 3553 
L 2631 2963 
z
" transform="scale(0.015625)"/>
       <path id="DejaVuSans-64" d="M 2906 2969 
L 2906 4863 
L 3481 4863 
L 3481 0 
L 2906 0 
L 2906 525 
Q 2725 213 2448 61 
Q 2172 -91 1784 -91 
Q 1150 -91 751 415 
Q 353 922 353 1747 
Q 353 2572 751 3078 
Q 1150 3584 1784 3584 
Q 2172 3584 2448 3432 
Q 2725 3281 2906 2969 
z
M 947 1747 
Q 947 1113 1208 752 
Q 1469 391 1925 391 
Q 2381 391 2643 752 
Q 2906 1113 2906 1747 
Q 2906 2381 2643 2742 
Q 2381 3103 1925 3103 
Q 1469 3103 1208 2742 
Q 947 2381 947 1747 
z
" transform="scale(0.015625)"/>
       <path id="DejaVuSans-73" d="M 2834 3397 
L 2834 2853 
Q 2591 2978 2328 3040 
Q 2066 3103 1784 3103 
Q 1356 3103 1142 2972 
Q 928 2841 928 2578 
Q 928 2378 1081 2264 
Q 1234 2150 1697 2047 
L 1894 2003 
Q 2506 1872 2764 1633 
Q 3022 1394 3022 966 
Q 3022 478 2636 193 
Q 2250 -91 1575 -91 
Q 1294 -91 989 -36 
Q 684 19 347 128 
L 347 722 
Q 666 556 975 473 
Q 1284 391 1588 391 
Q 1994 391 2212 530 
Q 2431 669 2431 922 
Q 2431 1156 2273 1281 
Q 2116 1406 1581 1522 
L 1381 1569 
Q 847 1681 609 1914 
Q 372 2147 372 2553 
Q 372 3047 722 3315 
Q 1072 3584 1716 3584 
Q 2034 3584 2315 3537 
Q 2597 3491 2834 3397 
z
" transform="scale(0.015625)"/>
      </defs>
      <use xlink:href="#DejaVuSans-43"/>
      <use xlink:href="#DejaVuSans-6f" x="69.824219"/>
      <use xlink:href="#DejaVuSans-6d" x="131.005859"/>
      <use xlink:href="#DejaVuSans-6d" x="228.417969"/>
      <use xlink:href="#DejaVuSans-75" x="325.830078"/>
      <use xlink:href="#DejaVuSans-6e" x="389.208984"/>
      <use xlink:href="#DejaVuSans-69" x="452.587891"/>
      <use xlink:href="#DejaVuSans-63" x="480.371094"/>
      <use xlink:href="#DejaVuSans-61" x="535.351562"/>
      <use xlink:href="#DejaVuSans-74" x="596.630859"/>
      <use xlink:href="#DejaVuSans-69" x="635.839844"/>
      <use xlink:href="#DejaVuSans-6f" x="663.623047"/>
      <use xlink:href="#DejaVuSans-6e" x="724.804688"/>
      <use xlink:href="#DejaVuSans-20" x="788.183594"/>
      <use xlink:href="#DejaVuSans-72" x="819.970703"/>
      <use xlink:href="#DejaVuSans-6f" x="858.833984"/>
      <use xlink:href="#DejaVuSans-75" x="920.015625"/>
      <use xlink:href="#DejaVuSans-6e" x="983.394531"/>
      <use xlink:href="#DejaVuSans-64" x="1046.773438"/>
      <use xlink:href="#DejaVuSans-73" x="1110.25"/>
     </g>
    </g>
   </g>
   <g id="matplotlib.axis_2">
    <g id="ytick_1">
     <g id="line2d_13">
      <path d="M 72 338.833365 
L 518.4 338.833365 
" clip-path="url(#pae9a250673)" style="fill: none; stroke: #b0b0b0; stroke-opacity: 0.5; stroke-width: 0.8; stroke-linecap: square"/>
     </g>
     <g id="line2d_14">
      <defs>
       <path id="mf08b4fd735" d="M 0 0 
L -3.5 0 
" style="stroke: #000000; stroke-width: 0.8"/>
      </defs>
      <g>
       <use xlink:href="#mf08b4fd735" x="72" y="338.833365" style="stroke: #000000; stroke-width: 0.8"/>
      </g>
     </g>
     <g id="text_8">
      <!-- 0.3 -->
      <g transform="translate(49.096875 342.632584)scale(0.1 -0.1)">
       <defs>
        <path id="DejaVuSans-2e" d="M 684 794 
L 1344 794 
L 1344 0 
L 684 0 
L 684 794 
z
" transform="scale(0.015625)"/>
        <path id="DejaVuSans-33" d="M 2597 2516 
Q 3050 2419 3304 2112 
Q 3559 1806 3559 1356 
Q 3559 666 3084 287 
Q 2609 -91 1734 -91 
Q 1441 -91 1130 -33 
Q 819 25 488 141 
L 488 750 
Q 750 597 1062 519 
Q 1375 441 1716 441 
Q 2309 441 2620 675 
Q 2931 909 2931 1356 
Q 2931 1769 2642 2001 
Q 2353 2234 1838 2234 
L 1294 2234 
L 1294 2753 
L 1863 2753 
Q 2328 2753 2575 2939 
Q 2822 3125 2822 3475 
Q 2822 3834 2567 4026 
Q 2313 4219 1838 4219 
Q 1578 4219 1281 4162 
Q 984 4106 628 3988 
L 628 4550 
Q 988 4650 1302 4700 
Q 1616 4750 1894 4750 
Q 2613 4750 3031 4423 
Q 3450 4097 3450 3541 
Q 3450 3153 3228 2886 
Q 3006 2619 2597 2516 
z
" transform="scale(0.015625)"/>
       </defs>
       <use xlink:href="#DejaVuSans-30"/>
       <use xlink:href="#DejaVuSans-2e" x="63.623047"/>
       <use xlink:href="#DejaVuSans-33" x="95.410156"/>
      </g>
     </g>
    </g>
    <g id="ytick_2">
     <g id="line2d_15">
      <path d="M 72 267.174597 
L 518.4 267.174597 
" clip-path="url(#pae9a250673)" style="fill: none; stroke: #b0b0b0; stroke-opacity: 0.5; stroke-width: 0.8; stroke-linecap: square"/>
     </g>
     <g id="line2d_16">
      <g>
       <use xlink:href="#mf08b4fd735" x="72" y="267.174597" style="stroke: #000000; stroke-width: 0.8"/>
      </g>
     </g>
     <g id="text_9">
      <!-- 0.4 -->
      <g transform="translate(49.096875 270.973816)scale(0.1 -0.1)">
       <defs>
        <path id="DejaVuSans-34" d="M 2419 4116 
L 825 1625 
L 2419 1625 
L 2419 4116 
z
M 2253 4666 
L 3047 4666 
L 3047 1625 
L 3713 1625 
L 3713 1100 
L 3047 1100 
L 3047 0 
L 2419 0 
L 2419 1100 
L 313 1100 
L 313 1709 
L 2253 4666 
z
" transform="scale(0.015625)"/>
       </defs>
       <use xlink:href="#DejaVuSans-30"/>
       <use xlink:href="#DejaVuSans-2e" x="63.623047"/>
       <use xlink:href="#DejaVuSans-34" x="95.410156"/>
      </g>
     </g>
    </g>
    <g id="ytick_3">
     <g id="line2d_17">
      <path d="M 72 195.515829 
L 518.4 195.515829 
" clip-path="url(#pae9a250673)" style="fill: none; stroke: #b0b0b0; stroke-opacity: 0.5; stroke-width: 0.8; stroke-linecap: square"/>
     </g>
     <g id="line2d_18">
      <g>
       <use xlink:href="#mf08b4fd735" x="72" y="195.515829" style="stroke: #000000; stroke-width: 0.8"/>
      </g>
     </g>
     <g id="text_10">
      <!-- 0.5 -->
      <g transform="translate(49.096875 199.315048)scale(0.1 -0.1)">
       <use xlink:href="#DejaVuSans-30"/>
       <use xlink:href="#DejaVuSans-2e" x="63.623047"/>
       <use xlink:href="#DejaVuSans-35" x="95.410156"/>
      </g>
     </g>
    </g>
    <g id="ytick_4">
     <g id="line2d_19">
      <path d="M 72 123.857062 
L 518.4 123.857062 
" clip-path="url(#pae9a250673)" style="fill: none; stroke: #b0b0b0; stroke-opacity: 0.5; stroke-width: 0.8; stroke-linecap: square"/>
     </g>
     <g id="line2d_20">
      <g>
       <use xlink:href="#mf08b4fd735" x="72" y="123.857062" style="stroke: #000000; stroke-width: 0.8"/>
      </g>
     </g>
     <g id="text_11">
      <!-- 0.6 -->
      <g transform="translate(49.096875 127.65628)scale(0.1 -0.1)">
       <defs>
        <path id="DejaVuSans-36" d="M 2113 2584 
Q 1688 2584 1439 2293 
Q 1191 2003 1191 1497 
Q 1191 994 1439 701 
Q 1688 409 2113 409 
Q 2538 409 2786 701 
Q 3034 994 3034 1497 
Q 3034 2003 2786 2293 
Q 2538 2584 2113 2584 
z
M 3366 4563 
L 3366 3988 
Q 3128 4100 2886 4159 
Q 2644 4219 2406 4219 
Q 1781 4219 1451 3797 
Q 1122 3375 1075 2522 
Q 1259 2794 1537 2939 
Q 1816 3084 2150 3084 
Q 2853 3084 3261 2657 
Q 3669 2231 3669 1497 
Q 3669 778 3244 343 
Q 2819 -91 2113 -91 
Q 1303 -91 875 529 
Q 447 1150 447 2328 
Q 447 3434 972 4092 
Q 1497 4750 2381 4750 
Q 2619 4750 2861 4703 
Q 3103 4656 3366 4563 
z
" transform="scale(0.015625)"/>
       </defs>
       <use xlink:href="#DejaVuSans-30"/>
       <use xlink:href="#DejaVuSans-2e" x="63.623047"/>
       <use xlink:href="#DejaVuSans-36" x="95.410156"/>
      </g>
     </g>
    </g>
    <g id="ytick_5">
     <g id="line2d_21">
      <path d="M 72 52.198294 
L 518.4 52.198294 
" clip-path="url(#pae9a250673)" style="fill: none; stroke: #b0b0b0; stroke-opacity: 0.5; stroke-width: 0.8; stroke-linecap: square"/>
     </g>
     <g id="line2d_22">
      <g>
       <use xlink:href="#mf08b4fd735" x="72" y="52.198294" style="stroke: #000000; stroke-width: 0.8"/>
      </g>
     </g>
     <g id="text_12">
      <!-- 0.7 -->
      <g transform="translate(49.096875 55.997513)scale(0.1 -0.1)">
       <defs>
        <path id="DejaVuSans-37" d="M 525 4666 
L 3525 4666 
L 3525 4397 
L 1831 0 
L 1172 0 
L 2766 4134 
L 525 4134 
L 525 4666 
z
" transform="scale(0.015625)"/>
       </defs>
       <use xlink:href="#DejaVuSans-30"/>
       <use xlink:href="#DejaVuSans-2e" x="63.623047"/>
       <use xlink:href="#DejaVuSans-37" x="95.410156"/>
      </g>
     </g>
    </g>
    <g id="text_13">
     <!-- Accuracy -->
     <g transform="translate(43.017187 240.988125)rotate(-90)scale(0.1 -0.1)">
      <defs>
       <path id="DejaVuSans-41" d="M 2188 4044 
L 1331 1722 
L 3047 1722 
L 2188 4044 
z
M 1831 4666 
L 2547 4666 
L 4325 0 
L 3669 0 
L 3244 1197 
L 1141 1197 
L 716 0 
L 50 0 
L 1831 4666 
z
" transform="scale(0.015625)"/>
       <path id="DejaVuSans-79" d="M 2059 -325 
Q 1816 -950 1584 -1140 
Q 1353 -1331 966 -1331 
L 506 -1331 
L 506 -850 
L 844 -850 
Q 1081 -850 1212 -737 
Q 1344 -625 1503 -206 
L 1606 56 
L 191 3500 
L 800 3500 
L 1894 763 
L 2988 3500 
L 3597 3500 
L 2059 -325 
z
" transform="scale(0.015625)"/>
      </defs>
      <use xlink:href="#DejaVuSans-41"/>
      <use xlink:href="#DejaVuSans-63" x="66.658203"/>
      <use xlink:href="#DejaVuSans-63" x="121.638672"/>
      <use xlink:href="#DejaVuSans-75" x="176.619141"/>
      <use xlink:href="#DejaVuSans-72" x="239.998047"/>
      <use xlink:href="#DejaVuSans-61" x="281.111328"/>
      <use xlink:href="#DejaVuSans-63" x="342.390625"/>
      <use xlink:href="#DejaVuSans-79" x="397.371094"/>
     </g>
    </g>
   </g>
   <g id="line2d_23">
    <path d="M 92.290909 345.784265 
L 93.914182 335.60872 
L 95.537455 320.990332 
L 97.160727 318.267299 
L 98.784 295.838104 
L 100.407273 301.714123 
L 102.030545 274.340474 
L 103.653818 286.379147 
L 105.277091 268.392796 
L 106.900364 247.82673 
L 108.523636 273.480569 
L 110.146909 230.628626 
L 111.770182 241.305782 
L 115.016727 217.658389 
L 116.64 216.153555 
L 118.263273 209.9909 
L 119.886545 200.961896 
L 121.509818 211.065782 
L 123.133091 198.453839 
L 124.756364 194.727583 
L 126.379636 197.522275 
L 128.002909 198.525498 
L 129.626182 163.126066 
L 131.249455 171.366825 
L 132.872727 190.499716 
L 134.496 188.779905 
L 136.119273 178.102749 
L 137.742545 177.386161 
L 139.365818 164.989194 
L 140.989091 170.148626 
L 142.612364 163.412701 
L 144.235636 160.904645 
L 145.858909 155.888531 
L 147.482182 156.103507 
L 149.105455 157.10673 
L 150.728727 161.047962 
L 152.352 148.221043 
L 153.975273 131.882844 
L 155.598545 152.663886 
L 157.221818 151.087393 
L 158.845091 145.068057 
L 160.468364 141.556777 
L 162.091636 132.599431 
L 163.714909 146.859526 
L 165.338182 133.889289 
L 166.961455 143.849858 
L 168.584727 136.254028 
L 170.208 139.335355 
L 171.831273 126.436777 
L 173.454545 141.556777 
L 175.077818 127.798294 
L 176.701091 136.970616 
L 178.324364 124.000379 
L 179.947636 120.919052 
L 181.570909 131.52455 
L 183.194182 124.215355 
L 184.817455 125.290237 
L 186.440727 130.521327 
L 188.064 125.576872 
L 189.687273 129.661422 
L 191.310545 134.749194 
L 192.933818 122.280569 
L 194.557091 115.043033 
L 196.180364 115.974597 
L 197.803636 119.844171 
L 199.426909 118.912607 
L 201.050182 116.046256 
L 202.673455 123.140474 
L 204.296727 120.990711 
L 205.92 109.310332 
L 207.543273 117.121137 
L 209.166545 114.254787 
L 210.789818 115.329668 
L 212.413091 118.12436 
L 214.036364 118.69763 
L 215.659636 111.101801 
L 217.282909 134.892512 
L 218.906182 116.046256 
L 220.529455 113.179905 
L 222.152727 111.74673 
L 223.776 113.46654 
L 225.399273 105.584076 
L 227.022545 107.447204 
L 228.645818 120.847393 
L 230.269091 111.961706 
L 231.892364 113.609858 
L 233.515636 108.307109 
L 235.138909 109.525308 
L 236.762182 107.017251 
L 238.385455 108.092133 
L 240.008727 107.805498 
L 241.632 110.671848 
L 243.255273 106.300664 
L 244.878545 104.795829 
L 246.501818 110.098578 
L 248.125091 104.795829 
L 249.748364 106.014028 
L 251.371636 107.877156 
L 252.994909 104.939147 
L 254.618182 103.864265 
L 256.241455 108.80872 
L 257.864727 105.727393 
L 259.488 102.359431 
L 261.111273 97.486635 
L 262.734545 103.792607 
L 264.357818 108.23545 
L 265.981091 103.935924 
L 267.604364 106.014028 
L 269.227636 98.274882 
L 270.850909 103.076019 
L 272.474182 98.704834 
L 274.097455 99.206445 
L 275.720727 101.069573 
L 277.344 101.929479 
L 278.967273 98.203223 
L 280.590545 106.658957 
L 282.213818 91.897251 
L 283.837091 94.906919 
L 285.460364 95.981801 
L 287.083636 96.913365 
L 288.706909 102.43109 
L 290.330182 98.059905 
L 291.953455 99.851374 
L 293.576727 94.906919 
L 295.2 97.988246 
L 296.823273 92.398863 
L 298.446545 93.402085 
L 300.069818 96.770047 
L 301.693091 103.720948 
L 303.316364 104.007583 
L 304.939636 97.988246 
L 306.562909 104.509194 
L 308.186182 97.844929 
L 309.809455 98.561517 
L 311.432727 89.460853 
L 313.056 93.903697 
L 314.679273 103.864265 
L 316.302545 108.450427 
L 317.925818 106.658957 
L 319.549091 93.043791 
L 321.172364 100.639621 
L 322.795636 95.265213 
L 324.418909 102.646066 
L 326.042182 93.832038 
L 327.665455 101.141232 
L 329.288727 95.336872 
L 330.912 91.897251 
L 332.535273 90.392417 
L 334.158545 95.265213 
L 335.781818 90.034123 
L 337.405091 92.900474 
L 339.028364 85.734597 
L 340.651636 103.935924 
L 342.274909 99.278104 
L 343.898182 103.076019 
L 345.521455 95.408531 
L 347.144727 102.646066 
L 348.768 87.31109 
L 350.391273 92.613839 
L 352.014545 91.753934 
L 353.637818 84.946351 
L 355.261091 89.532512 
L 356.884364 92.183886 
L 358.507636 92.757156 
L 360.130909 94.620284 
L 361.754182 94.548626 
L 363.377455 90.535735 
L 365.000727 103.935924 
L 366.624 98.704834 
L 368.247273 85.662938 
L 369.870545 92.183886 
L 371.493818 93.68872 
L 373.117091 95.695166 
L 374.740364 93.760379 
L 376.363636 99.708057 
L 377.986909 93.545403 
L 379.610182 91.825592 
L 381.233455 95.766825 
L 382.856727 97.343318 
L 384.48 95.050237 
L 386.103273 98.776493 
L 387.726545 88.744265 
L 389.349818 96.841706 
L 390.973091 95.981801 
L 392.596364 99.493081 
L 394.219636 85.089668 
L 395.842909 89.317536 
L 397.466182 86.666161 
L 399.089455 95.336872 
L 400.712727 87.024455 
L 402.336 93.975355 
L 403.959273 95.695166 
L 405.582545 86.092891 
L 407.205818 94.763602 
L 408.829091 93.330427 
L 410.452364 88.385972 
L 412.075636 90.392417 
L 413.698909 91.682275 
L 415.322182 97.414976 
L 416.945455 82.868246 
L 418.568727 91.753934 
L 420.192 92.757156 
L 421.815273 87.239431 
L 423.438545 93.832038 
L 425.061818 94.476967 
L 426.685091 83.298199 
L 428.308364 95.193555 
L 429.931636 92.613839 
L 431.554909 87.382749 
L 433.178182 91.467299 
L 434.801455 87.597725 
L 436.424727 91.897251 
L 438.048 96.913365 
L 439.671273 95.695166 
L 441.294545 87.382749 
L 442.917818 89.675829 
L 444.541091 90.105782 
L 446.164364 95.336872 
L 447.787636 91.538957 
L 449.410909 93.545403 
L 451.034182 91.538957 
L 452.657455 84.373081 
L 454.280727 90.965687 
L 455.904 87.31109 
L 457.527273 78.425403 
L 459.150545 85.376303 
L 460.773818 83.79981 
L 462.397091 91.825592 
L 464.020364 85.018009 
L 465.643636 84.014787 
L 467.266909 86.379526 
L 468.890182 87.597725 
L 470.513455 87.024455 
L 472.136727 89.819147 
L 473.76 89.0309 
L 475.383273 93.68872 
L 477.006545 88.45763 
L 478.629818 88.170995 
L 480.253091 91.180664 
L 481.876364 80.288531 
L 483.499636 81.076777 
L 485.122909 82.796588 
L 486.746182 89.819147 
L 488.369455 87.454408 
L 489.992727 90.965687 
L 491.616 92.972133 
L 493.239273 85.59128 
L 494.862545 95.910142 
L 496.485818 86.522844 
L 498.109091 86.307867 
L 498.109091 86.307867 
" clip-path="url(#pae9a250673)" style="fill: none; stroke: #1f77b4; stroke-width: 1.5; stroke-linecap: square"/>
   </g>
   <g id="line2d_24">
    <path d="M 92.290909 354.956588 
L 93.914182 353.021801 
L 95.537455 335.537062 
L 97.160727 335.895355 
L 98.784 300.567583 
L 100.407273 299.349384 
L 102.030545 282.72455 
L 103.653818 273.695545 
L 105.277091 269.610995 
L 106.900364 276.060284 
L 108.523636 267.962844 
L 110.146909 248.901611 
L 111.770182 254.132701 
L 113.393455 219.091564 
L 115.016727 240.302559 
L 116.64 241.520758 
L 118.263273 203.398294 
L 119.886545 192.076209 
L 121.509818 192.649479 
L 123.133091 221.312986 
L 124.756364 187.490047 
L 126.379636 184.40872 
L 128.002909 200.675261 
L 129.626182 178.102749 
L 131.249455 186.128531 
L 132.872727 164.487583 
L 134.496 163.770995 
L 136.119273 171.366825 
L 137.742545 175.809668 
L 139.365818 171.08019 
L 140.989091 154.383697 
L 142.612364 148.36436 
L 144.235636 164.05763 
L 145.858909 162.122844 
L 147.482182 153.165498 
L 149.105455 143.563223 
L 150.728727 160.474692 
L 152.352 156.748436 
L 153.975273 149.725877 
L 155.598545 145.641327 
L 157.221818 140.123602 
L 158.845091 143.778199 
L 160.468364 152.233934 
L 162.091636 135.680758 
L 163.714909 133.24436 
L 165.338182 130.592986 
L 166.961455 139.192038 
L 168.584727 141.270142 
L 170.208 134.247583 
L 171.831273 139.621991 
L 173.454545 125.935166 
L 175.077818 120.130806 
L 176.701091 126.006825 
L 178.324364 127.798294 
L 179.947636 121.277346 
L 181.570909 118.267678 
L 183.194182 119.700853 
L 184.817455 118.482654 
L 186.440727 122.280569 
L 188.064 122.352227 
L 189.687273 123.140474 
L 191.310545 117.336114 
L 192.933818 116.40455 
L 194.557091 113.896493 
L 196.180364 118.912607 
L 197.803636 115.472986 
L 199.426909 111.74673 
L 201.050182 115.401327 
L 202.673455 116.332891 
L 204.296727 111.101801 
L 205.92 112.32 
L 207.543273 109.381991 
L 209.166545 110.671848 
L 210.789818 114.971374 
L 212.413091 108.450427 
L 214.036364 111.388436 
L 215.659636 111.890047 
L 217.282909 108.450427 
L 220.529455 110.815166 
L 222.152727 110.385213 
L 223.776 114.254787 
L 225.399273 101.714502 
L 227.022545 109.740284 
L 228.645818 108.880379 
L 230.269091 106.802275 
L 231.892364 107.66218 
L 233.515636 106.802275 
L 235.138909 109.525308 
L 236.762182 103.935924 
L 238.385455 99.278104 
L 240.008727 107.877156 
L 241.632 105.440758 
L 243.255273 96.340095 
L 244.878545 97.988246 
L 246.501818 104.509194 
L 248.125091 100.066351 
L 249.748364 105.010806 
L 251.371636 99.636398 
L 252.994909 99.063128 
L 254.618182 103.57763 
L 256.241455 100.567962 
L 257.864727 99.994692 
L 259.488 99.994692 
L 261.111273 92.183886 
L 262.734545 103.290995 
L 264.357818 100.926256 
L 265.981091 97.486635 
L 267.604364 88.45763 
L 269.227636 101.929479 
L 270.850909 93.760379 
L 272.474182 91.610616 
L 274.097455 104.580853 
L 275.720727 95.265213 
L 277.344 91.682275 
L 278.967273 104.222559 
L 280.590545 91.323981 
L 282.213818 103.076019 
L 285.460364 89.102559 
L 287.083636 96.196777 
L 288.706909 89.532512 
L 291.953455 97.844929 
L 293.576727 91.109005 
L 295.2 97.844929 
L 296.823273 93.975355 
L 298.446545 91.180664 
L 300.069818 92.685498 
L 301.693091 95.193555 
L 303.316364 93.617062 
L 304.939636 96.555071 
L 306.562909 100.926256 
L 308.186182 89.675829 
L 309.809455 95.121896 
L 311.432727 93.187109 
L 313.056 87.31109 
L 314.679273 95.121896 
L 316.302545 98.274882 
L 317.925818 95.695166 
L 319.549091 93.975355 
L 321.172364 89.532512 
L 322.795636 90.82237 
L 324.418909 99.134787 
L 326.042182 87.167773 
L 327.665455 79.930237 
L 329.288727 92.398863 
L 330.912 99.206445 
L 332.535273 90.2491 
L 334.158545 98.059905 
L 335.781818 88.314313 
L 337.405091 92.757156 
L 339.028364 87.167773 
L 340.651636 91.180664 
L 342.274909 90.105782 
L 343.898182 81.865024 
L 345.521455 94.405308 
L 347.144727 80.503507 
L 348.768 89.747488 
L 350.391273 86.881137 
L 352.014545 89.532512 
L 353.637818 87.812701 
L 355.261091 92.54218 
L 356.884364 87.956019 
L 358.507636 93.11545 
L 360.130909 89.604171 
L 361.754182 93.68872 
L 363.377455 95.050237 
L 365.000727 89.102559 
L 366.624 90.607393 
L 368.247273 92.972133 
L 369.870545 89.890806 
L 371.493818 92.972133 
L 373.117091 82.008341 
L 374.740364 85.161327 
L 376.363636 83.79981 
L 377.986909 92.613839 
L 379.610182 88.600948 
L 381.233455 88.959242 
L 382.856727 84.803033 
L 384.48 85.877915 
L 386.103273 90.464076 
L 387.726545 90.177441 
L 389.349818 89.317536 
L 390.973091 84.874692 
L 392.596364 83.656493 
L 394.219636 88.027678 
L 397.466182 79.571943 
L 399.089455 79.858578 
L 400.712727 91.897251 
L 402.336 80.216872 
L 403.959273 84.874692 
L 405.582545 86.881137 
L 407.205818 80.288531 
L 408.829091 82.151659 
L 410.452364 88.099336 
L 412.075636 85.018009 
L 413.698909 84.803033 
L 415.322182 84.086445 
L 416.945455 82.796588 
L 418.568727 84.803033 
L 420.192 80.288531 
L 421.815273 77.42218 
L 423.438545 82.581611 
L 425.061818 82.008341 
L 426.685091 90.750711 
L 428.308364 77.780474 
L 429.931636 81.865024 
L 431.554909 83.871469 
L 433.178182 84.158104 
L 434.801455 79.141991 
L 438.048 82.294976 
L 439.671273 83.441517 
L 441.294545 85.519621 
L 442.917818 80.861801 
L 444.541091 81.435071 
L 446.164364 84.444739 
L 447.787636 85.949573 
L 449.410909 84.803033 
L 451.034182 82.151659 
L 452.657455 82.223318 
L 454.280727 83.22654 
L 455.904 80.288531 
L 457.527273 83.441517 
L 459.150545 88.314313 
L 460.773818 83.22654 
L 462.397091 82.581611 
L 464.020364 81.650047 
L 465.643636 80.575166 
L 467.266909 82.868246 
L 468.890182 81.865024 
L 470.513455 89.0309 
L 472.136727 90.965687 
L 473.76 86.809479 
L 475.383273 83.154882 
L 477.006545 83.441517 
L 478.629818 79.500284 
L 480.253091 78.497062 
L 481.876364 84.444739 
L 483.499636 82.366635 
L 485.122909 80.646825 
L 486.746182 81.291754 
L 488.369455 76.705592 
L 489.992727 79.428626 
L 491.616 73.624265 
L 493.239273 81.220095 
L 494.862545 82.509953 
L 496.485818 80.431848 
L 498.109091 87.88436 
L 498.109091 87.88436 
" clip-path="url(#pae9a250673)" style="fill: none; stroke: #ff7f0e; stroke-width: 1.5; stroke-linecap: square"/>
   </g>
   <g id="line2d_25">
    <path d="M 92.290909 361.334218 
L 93.914182 353.881706 
L 95.537455 328.65782 
L 98.784 304.938768 
L 100.407273 309.811564 
L 102.030545 272.620664 
L 103.653818 270.4709 
L 105.277091 279.356588 
L 106.900364 297.27128 
L 108.523636 260.868626 
L 110.146909 249.044929 
L 111.770182 232.491754 
L 113.393455 241.879052 
L 115.016727 239.65763 
L 116.64 218.661611 
L 118.263273 215.436967 
L 119.886545 236.934597 
L 121.509818 222.459526 
L 123.133091 216.368531 
L 124.756364 202.395071 
L 126.379636 195.157536 
L 128.002909 198.597156 
L 129.626182 212.35564 
L 131.249455 176.88455 
L 132.872727 184.767014 
L 134.496 180.324171 
L 136.119273 168.71545 
L 137.742545 183.763791 
L 139.365818 180.037536 
L 140.989091 171.725118 
L 142.612364 150.155829 
L 145.858909 187.776682 
L 147.482182 159.758104 
L 149.105455 152.162275 
L 150.728727 161.836209 
L 152.352 155.386919 
L 153.975273 156.820095 
L 155.598545 155.888531 
L 157.221818 145.641327 
L 158.845091 139.836967 
L 160.468364 158.82654 
L 162.091636 144.924739 
L 163.714909 124.215355 
L 165.338182 150.944076 
L 166.961455 132.742749 
L 168.584727 134.605877 
L 170.208 140.625213 
L 171.831273 131.022938 
L 173.454545 127.081706 
L 175.077818 127.368341 
L 176.701091 123.857062 
L 178.324364 124.143697 
L 179.947636 123.713744 
L 181.570909 122.710521 
L 183.194182 130.019716 
L 184.817455 125.935166 
L 186.440727 128.729858 
L 188.064 138.045498 
L 189.687273 119.414218 
L 191.310545 122.925498 
L 192.933818 124.501991 
L 194.557091 115.759621 
L 196.180364 119.987488 
L 197.803636 127.296682 
L 199.426909 121.563981 
L 201.050182 117.694408 
L 202.673455 110.026919 
L 204.296727 115.759621 
L 205.92 113.036588 
L 207.543273 116.762844 
L 209.166545 112.391659 
L 210.789818 114.971374 
L 212.413091 114.183128 
L 214.036364 107.375545 
L 215.659636 112.678294 
L 217.282909 115.544645 
L 218.906182 111.460095 
L 220.529455 115.401327 
L 222.152727 108.737062 
L 223.776 118.69763 
L 225.399273 121.277346 
L 227.022545 101.714502 
L 228.645818 110.743507 
L 230.269091 100.209668 
L 231.892364 106.300664 
L 233.515636 106.51564 
L 235.138909 112.749953 
L 236.762182 105.799052 
L 240.008727 110.528531 
L 241.632 117.121137 
L 243.255273 100.782938 
L 244.878545 105.010806 
L 246.501818 105.225782 
L 248.125091 103.362654 
L 249.748364 103.720948 
L 251.371636 93.832038 
L 252.994909 96.698389 
L 254.618182 102.287773 
L 256.241455 95.336872 
L 257.864727 100.997915 
L 259.488 95.050237 
L 261.111273 106.014028 
L 262.734545 87.812701 
L 264.357818 99.206445 
L 265.981091 96.340095 
L 267.604364 94.548626 
L 269.227636 95.193555 
L 270.850909 96.770047 
L 272.474182 100.281327 
L 274.097455 89.174218 
L 275.720727 97.558294 
L 277.344 86.307867 
L 278.967273 90.034123 
L 280.590545 100.281327 
L 282.213818 96.770047 
L 283.837091 90.82237 
L 285.460364 94.548626 
L 287.083636 92.255545 
L 288.706909 91.825592 
L 290.330182 89.317536 
L 291.953455 95.193555 
L 293.576727 90.392417 
L 295.2 88.027678 
L 296.823273 94.763602 
L 298.446545 97.128341 
L 300.069818 97.988246 
L 301.693091 96.913365 
L 303.316364 96.125118 
L 304.939636 93.043791 
L 306.562909 94.405308 
L 308.186182 94.763602 
L 309.809455 94.548626 
L 311.432727 85.877915 
L 313.056 86.666161 
L 314.679273 91.96891 
L 316.302545 92.327204 
L 317.925818 91.109005 
L 319.549091 91.538957 
L 321.172364 94.548626 
L 322.795636 88.45763 
L 324.418909 92.112227 
L 326.042182 88.170995 
L 327.665455 87.454408 
L 329.288727 91.323981 
L 330.912 90.320758 
L 332.535273 82.366635 
L 334.158545 90.607393 
L 335.781818 92.112227 
L 337.405091 86.16455 
L 339.028364 88.027678 
L 340.651636 84.301422 
L 342.274909 84.659716 
L 343.898182 94.978578 
L 345.521455 91.467299 
L 347.144727 93.68872 
L 348.768 84.516398 
L 350.391273 96.340095 
L 352.014545 87.382749 
L 353.637818 83.513175 
L 355.261091 86.73782 
L 356.884364 83.441517 
L 358.507636 84.659716 
L 360.130909 90.894028 
L 361.754182 90.177441 
L 363.377455 83.943128 
L 365.000727 86.594502 
L 366.624 88.170995 
L 368.247273 85.519621 
L 369.870545 92.972133 
L 371.493818 82.151659 
L 373.117091 88.314313 
L 374.740364 81.363412 
L 376.363636 88.600948 
L 377.986909 83.154882 
L 379.610182 83.656493 
L 381.233455 81.578389 
L 382.856727 85.018009 
L 384.48 89.532512 
L 386.103273 86.809479 
L 387.726545 88.887583 
L 389.349818 82.65327 
L 390.973091 80.431848 
L 392.596364 85.734597 
L 394.219636 84.731374 
L 395.842909 79.715261 
L 397.466182 91.96891 
L 399.089455 82.796588 
L 400.712727 88.027678 
L 402.336 86.522844 
L 403.959273 92.040569 
L 405.582545 81.578389 
L 407.205818 83.154882 
L 408.829091 90.2491 
L 410.452364 95.193555 
L 412.075636 77.852133 
L 413.698909 77.063886 
L 415.322182 84.158104 
L 416.945455 83.011564 
L 418.568727 88.385972 
L 420.192 91.610616 
L 421.815273 83.584834 
L 423.438545 89.890806 
L 425.061818 79.715261 
L 426.685091 78.640379 
L 428.308364 83.728152 
L 429.931636 80.718483 
L 431.554909 78.855355 
L 433.178182 79.141991 
L 434.801455 69.109763 
L 436.424727 88.45763 
L 438.048 88.672607 
L 439.671273 85.519621 
L 441.294545 74.699147 
L 442.917818 87.956019 
L 444.541091 84.014787 
L 446.164364 78.353744 
L 447.787636 79.786919 
L 449.410909 80.861801 
L 451.034182 79.858578 
L 452.657455 86.952796 
L 454.280727 82.796588 
L 455.904 82.939905 
L 457.527273 81.936682 
L 459.150545 78.425403 
L 460.773818 76.992227 
L 462.397091 79.356967 
L 464.020364 76.992227 
L 465.643636 82.08 
L 467.266909 80.575166 
L 468.890182 83.513175 
L 470.513455 80.575166 
L 472.136727 76.705592 
L 473.76 78.425403 
L 475.383273 82.939905 
L 477.006545 72.836019 
L 478.629818 76.418957 
L 480.253091 83.154882 
L 481.876364 79.930237 
L 483.499636 72.262749 
L 485.122909 78.497062 
L 486.746182 78.640379 
L 488.369455 85.232986 
L 489.992727 70.399621 
L 491.616 75.057441 
L 493.239273 83.22654 
L 494.862545 75.845687 
L 496.485818 67.318294 
L 498.109091 82.939905 
L 498.109091 82.939905 
" clip-path="url(#pae9a250673)" style="fill: none; stroke: #2ca02c; stroke-width: 1.5; stroke-linecap: square"/>
   </g>
   <g id="line2d_26">
    <path d="M 92.290909 352.806825 
L 93.914182 369.36 
L 95.537455 345.425972 
L 97.160727 345.354313 
L 98.784 326.006445 
L 100.407273 314.326066 
L 102.030545 295.909763 
L 103.653818 287.812322 
L 105.277091 292.685118 
L 106.900364 268.75109 
L 108.523636 263.949953 
L 110.146909 247.970047 
L 111.770182 233.351659 
L 113.393455 239.012701 
L 115.016727 241.879052 
L 116.64 227.260664 
L 118.263273 213.717156 
L 119.886545 225.540853 
L 121.509818 183.118863 
L 123.133091 202.681706 
L 124.756364 204.903128 
L 126.379636 172.155071 
L 128.002909 209.130995 
L 129.626182 177.959431 
L 131.249455 193.294408 
L 132.872727 178.676019 
L 134.496 179.607583 
L 136.119273 188.421611 
L 137.742545 174.089858 
L 139.365818 180.610806 
L 140.989091 165.347488 
L 142.612364 179.965877 
L 144.235636 170.291943 
L 145.858909 180.324171 
L 147.482182 158.539905 
L 149.105455 153.093839 
L 150.728727 153.59545 
L 152.352 139.550332 
L 153.975273 147.432796 
L 155.598545 149.295924 
L 157.221818 130.879621 
L 158.845091 135.6091 
L 160.468364 146.859526 
L 162.091636 137.472227 
L 163.714909 132.742749 
L 165.338182 135.967393 
L 166.961455 136.110711 
L 168.584727 142.058389 
L 170.208 130.521327 
L 171.831273 125.505213 
L 175.077818 124.430332 
L 176.701091 130.521327 
L 178.324364 117.909384 
L 179.947636 128.944834 
L 181.570909 122.638863 
L 183.194182 125.576872 
L 184.817455 111.531754 
L 186.440727 125.146919 
L 188.064 116.261232 
L 189.687273 113.036588 
L 191.310545 116.834502 
L 192.933818 109.740284 
L 194.557091 128.228246 
L 196.180364 105.584076 
L 197.803636 112.678294 
L 199.426909 119.127583 
L 201.050182 102.861043 
L 202.673455 115.114692 
L 204.296727 101.786161 
L 205.92 114.971374 
L 207.543273 106.658957 
L 209.166545 100.854597 
L 210.789818 107.590521 
L 212.413091 105.655735 
L 214.036364 102.001137 
L 215.659636 111.818389 
L 217.282909 103.935924 
L 218.906182 102.502749 
L 220.529455 104.509194 
L 222.152727 105.440758 
L 223.776 102.646066 
L 225.399273 104.724171 
L 227.022545 94.691943 
L 228.645818 95.408531 
L 230.269091 95.910142 
L 231.892364 100.424645 
L 233.515636 94.906919 
L 235.138909 94.405308 
L 236.762182 99.779716 
L 238.385455 100.782938 
L 240.008727 102.789384 
L 241.632 98.489858 
L 243.255273 90.607393 
L 244.878545 96.841706 
L 246.501818 97.701611 
L 248.125091 95.981801 
L 249.748364 94.620284 
L 251.371636 94.405308 
L 252.994909 91.825592 
L 254.618182 97.271659 
L 256.241455 92.900474 
L 257.864727 97.844929 
L 259.488 90.82237 
L 261.111273 96.483412 
L 262.734545 102.789384 
L 264.357818 88.45763 
L 265.981091 87.669384 
L 267.604364 84.588057 
L 269.227636 92.112227 
L 270.850909 92.040569 
L 272.474182 85.949573 
L 274.097455 86.881137 
L 275.720727 95.050237 
L 277.344 85.447962 
L 278.967273 85.447962 
L 280.590545 87.167773 
L 282.213818 97.414976 
L 283.837091 86.809479 
L 285.460364 79.356967 
L 287.083636 87.812701 
L 288.706909 88.242654 
L 290.330182 82.581611 
L 291.953455 76.490616 
L 293.576727 87.88436 
L 295.2 87.382749 
L 296.823273 90.105782 
L 298.446545 97.629953 
L 300.069818 84.373081 
L 301.693091 82.223318 
L 303.316364 79.858578 
L 304.939636 85.59128 
L 306.562909 82.366635 
L 308.186182 85.018009 
L 309.809455 85.376303 
L 311.432727 88.385972 
L 313.056 84.373081 
L 314.679273 82.438294 
L 317.925818 87.88436 
L 319.549091 86.16455 
L 321.172364 84.803033 
L 322.795636 78.210427 
L 324.418909 87.526066 
L 326.042182 88.027678 
L 327.665455 86.809479 
L 329.288727 90.894028 
L 330.912 87.956019 
L 332.535273 78.353744 
L 334.158545 80.575166 
L 335.781818 74.484171 
L 337.405091 86.522844 
L 339.028364 88.744265 
L 340.651636 80.145213 
L 342.274909 81.435071 
L 343.898182 80.431848 
L 345.521455 76.418957 
L 347.144727 78.425403 
L 348.768 90.177441 
L 350.391273 73.265972 
L 352.014545 75.845687 
L 353.637818 76.633934 
L 355.261091 76.562275 
L 356.884364 76.203981 
L 358.507636 77.207204 
L 360.130909 81.291754 
L 361.754182 76.490616 
L 363.377455 74.412512 
L 365.000727 81.721706 
L 366.624 77.637156 
L 368.247273 87.31109 
L 369.870545 72.836019 
L 371.493818 77.780474 
L 373.117091 79.213649 
L 374.740364 72.262749 
L 376.363636 79.213649 
L 377.986909 79.285308 
L 379.610182 82.438294 
L 381.233455 76.347299 
L 382.856727 78.282085 
L 384.48 79.786919 
L 386.103273 80.216872 
L 387.726545 84.086445 
L 389.349818 77.42218 
L 390.973091 78.353744 
L 392.596364 80.503507 
L 394.219636 74.914123 
L 395.842909 77.99545 
L 397.466182 75.200758 
L 399.089455 75.1291 
L 400.712727 72.907678 
L 402.336 73.552607 
L 403.959273 83.79981 
L 405.582545 77.42218 
L 407.205818 66.96 
L 408.829091 74.914123 
L 410.452364 79.930237 
L 412.075636 79.571943 
L 413.698909 79.715261 
L 415.322182 79.213649 
L 416.945455 78.425403 
L 418.568727 73.050995 
L 420.192 72.692701 
L 421.815273 71.259526 
L 423.438545 77.350521 
L 425.061818 77.135545 
L 426.685091 72.907678 
L 428.308364 69.754692 
L 429.931636 75.272417 
L 431.554909 75.989005 
L 433.178182 72.477725 
L 434.801455 75.70237 
L 436.424727 69.109763 
L 438.048 83.298199 
L 439.671273 79.213649 
L 441.294545 76.132322 
L 442.917818 70.972891 
L 444.541091 75.70237 
L 446.164364 72.907678 
L 447.787636 78.640379 
L 449.410909 79.141991 
L 451.034182 88.672607 
L 452.657455 87.597725 
L 454.280727 72.836019 
L 455.904 79.715261 
L 457.527273 70.829573 
L 459.150545 86.952796 
L 460.773818 78.210427 
L 462.397091 70.112986 
L 464.020364 78.425403 
L 465.643636 72.907678 
L 467.266909 83.154882 
L 470.513455 73.409289 
L 472.136727 71.832796 
L 473.76 75.487393 
L 475.383273 77.493839 
L 477.006545 75.774028 
L 478.629818 81.435071 
L 480.253091 70.829573 
L 481.876364 81.005118 
L 483.499636 70.686256 
L 485.122909 79.070332 
L 486.746182 79.141991 
L 488.369455 74.125877 
L 489.992727 72.979336 
L 491.616 73.9109 
L 493.239273 77.708815 
L 494.862545 70.47128 
L 496.485818 74.914123 
L 498.109091 73.409289 
L 498.109091 73.409289 
" clip-path="url(#pae9a250673)" style="fill: none; stroke: #d62728; stroke-width: 1.5; stroke-linecap: square"/>
   </g>
   <g id="patch_3">
    <path d="M 72 384.48 
L 72 51.84 
" style="fill: none; stroke: #000000; stroke-width: 0.8; stroke-linejoin: miter; stroke-linecap: square"/>
   </g>
   <g id="patch_4">
    <path d="M 518.4 384.48 
L 518.4 51.84 
" style="fill: none; stroke: #000000; stroke-width: 0.8; stroke-linejoin: miter; stroke-linecap: square"/>
   </g>
   <g id="patch_5">
    <path d="M 72 384.48 
L 518.4 384.48 
" style="fill: none; stroke: #000000; stroke-width: 0.8; stroke-linejoin: miter; stroke-linecap: square"/>
   </g>
   <g id="patch_6">
    <path d="M 72 51.84 
L 518.4 51.84 
" style="fill: none; stroke: #000000; stroke-width: 0.8; stroke-linejoin: miter; stroke-linecap: square"/>
   </g>
   <g id="text_14">
    <!-- Clustered-Common -->
    <g transform="translate(237.350625 45.84)scale(0.12 -0.12)">
     <defs>
      <path id="DejaVuSans-6c" d="M 603 4863 
L 1178 4863 
L 1178 0 
L 603 0 
L 603 4863 
z
" transform="scale(0.015625)"/>
      <path id="DejaVuSans-65" d="M 3597 1894 
L 3597 1613 
L 953 1613 
Q 991 1019 1311 708 
Q 1631 397 2203 397 
Q 2534 397 2845 478 
Q 3156 559 3463 722 
L 3463 178 
Q 3153 47 2828 -22 
Q 2503 -91 2169 -91 
Q 1331 -91 842 396 
Q 353 884 353 1716 
Q 353 2575 817 3079 
Q 1281 3584 2069 3584 
Q 2775 3584 3186 3129 
Q 3597 2675 3597 1894 
z
M 3022 2063 
Q 3016 2534 2758 2815 
Q 2500 3097 2075 3097 
Q 1594 3097 1305 2825 
Q 1016 2553 972 2059 
L 3022 2063 
z
" transform="scale(0.015625)"/>
      <path id="DejaVuSans-2d" d="M 313 2009 
L 1997 2009 
L 1997 1497 
L 313 1497 
L 313 2009 
z
" transform="scale(0.015625)"/>
     </defs>
     <use xlink:href="#DejaVuSans-43"/>
     <use xlink:href="#DejaVuSans-6c" x="69.824219"/>
     <use xlink:href="#DejaVuSans-75" x="97.607422"/>
     <use xlink:href="#DejaVuSans-73" x="160.986328"/>
     <use xlink:href="#DejaVuSans-74" x="213.085938"/>
     <use xlink:href="#DejaVuSans-65" x="252.294922"/>
     <use xlink:href="#DejaVuSans-72" x="313.818359"/>
     <use xlink:href="#DejaVuSans-65" x="352.681641"/>
     <use xlink:href="#DejaVuSans-64" x="414.205078"/>
     <use xlink:href="#DejaVuSans-2d" x="477.681641"/>
     <use xlink:href="#DejaVuSans-43" x="513.765625"/>
     <use xlink:href="#DejaVuSans-6f" x="583.589844"/>
     <use xlink:href="#DejaVuSans-6d" x="644.771484"/>
     <use xlink:href="#DejaVuSans-6d" x="742.183594"/>
     <use xlink:href="#DejaVuSans-6f" x="839.595703"/>
     <use xlink:href="#DejaVuSans-6e" x="900.777344"/>
    </g>
   </g>
   <g id="legend_1">
    <g id="patch_7">
     <path d="M 79 118.5525 
L 124.203125 118.5525 
Q 126.203125 118.5525 126.203125 116.5525 
L 126.203125 58.84 
Q 126.203125 56.84 124.203125 56.84 
L 79 56.84 
Q 77 56.84 77 58.84 
L 77 116.5525 
Q 77 118.5525 79 118.5525 
z
" style="fill: #ffffff; opacity: 0.8; stroke: #cccccc; stroke-linejoin: miter"/>
    </g>
    <g id="line2d_27">
     <path d="M 81 64.938438 
L 91 64.938438 
L 101 64.938438 
" style="fill: none; stroke: #1f77b4; stroke-width: 1.5; stroke-linecap: square"/>
    </g>
    <g id="text_15">
     <!-- V1 -->
     <g transform="translate(109 68.438438)scale(0.1 -0.1)">
      <defs>
       <path id="DejaVuSans-56" d="M 1831 0 
L 50 4666 
L 709 4666 
L 2188 738 
L 3669 4666 
L 4325 4666 
L 2547 0 
L 1831 0 
z
" transform="scale(0.015625)"/>
      </defs>
      <use xlink:href="#DejaVuSans-56"/>
      <use xlink:href="#DejaVuSans-31" x="68.408203"/>
     </g>
    </g>
    <g id="line2d_28">
     <path d="M 81 79.616563 
L 91 79.616563 
L 101 79.616563 
" style="fill: none; stroke: #ff7f0e; stroke-width: 1.5; stroke-linecap: square"/>
    </g>
    <g id="text_16">
     <!-- V2 -->
     <g transform="translate(109 83.116563)scale(0.1 -0.1)">
      <use xlink:href="#DejaVuSans-56"/>
      <use xlink:href="#DejaVuSans-32" x="68.408203"/>
     </g>
    </g>
    <g id="line2d_29">
     <path d="M 81 94.294688 
L 91 94.294688 
L 101 94.294688 
" style="fill: none; stroke: #2ca02c; stroke-width: 1.5; stroke-linecap: square"/>
    </g>
    <g id="text_17">
     <!-- V3 -->
     <g transform="translate(109 97.794688)scale(0.1 -0.1)">
      <use xlink:href="#DejaVuSans-56"/>
      <use xlink:href="#DejaVuSans-33" x="68.408203"/>
     </g>
    </g>
    <g id="line2d_30">
     <path d="M 81 108.972813 
L 91 108.972813 
L 101 108.972813 
" style="fill: none; stroke: #d62728; stroke-width: 1.5; stroke-linecap: square"/>
    </g>
    <g id="text_18">
     <!-- V4 -->
     <g transform="translate(109 112.472813)scale(0.1 -0.1)">
      <use xlink:href="#DejaVuSans-56"/>
      <use xlink:href="#DejaVuSans-34" x="68.408203"/>
     </g>
    </g>
   </g>
  </g>
 </g>
 <defs>
  <clipPath id="pae9a250673">
   <rect x="72" y="51.84" width="446.4" height="332.64"/>
  </clipPath>
 </defs>
</svg>
