<?xml version="1.0" encoding="utf-8" standalone="no"?>
<!DOCTYPE svg PUBLIC "-//W3C//DTD SVG 1.1//EN"
  "http://www.w3.org/Graphics/SVG/1.1/DTD/svg11.dtd">
<svg xmlns:xlink="http://www.w3.org/1999/xlink" width="576pt" height="432pt" viewBox="0 0 576 432" xmlns="http://www.w3.org/2000/svg" version="1.1">
 <metadata>
  <rdf:RDF xmlns:dc="http://purl.org/dc/elements/1.1/" xmlns:cc="http://creativecommons.org/ns#" xmlns:rdf="http://www.w3.org/1999/02/22-rdf-syntax-ns#">
   <cc:Work>
    <dc:type rdf:resource="http://purl.org/dc/dcmitype/StillImage"/>
    <dc:date>2023-08-07T15:46:39.549774</dc:date>
    <dc:format>image/svg+xml</dc:format>
    <dc:creator>
     <cc:Agent>
      <dc:title>Matplotlib v3.5.2, https://matplotlib.org/</dc:title>
     </cc:Agent>
    </dc:creator>
   </cc:Work>
  </rdf:RDF>
 </metadata>
 <defs>
  <style type="text/css">*{stroke-linejoin: round; stroke-linecap: butt}</style>
 </defs>
 <g id="figure_1">
  <g id="patch_1">
   <path d="M 0 432 
L 576 432 
L 576 0 
L 0 0 
z
" style="fill: #ffffff"/>
  </g>
  <g id="axes_1">
   <g id="patch_2">
    <path d="M 72 384.48 
L 518.4 384.48 
L 518.4 51.84 
L 72 51.84 
z
" style="fill: #ffffff"/>
   </g>
   <g id="matplotlib.axis_1">
    <g id="xtick_1">
     <g id="line2d_1">
      <path d="M 92.290909 384.48 
L 92.290909 51.84 
" clip-path="url(#pb03d2e0d47)" style="fill: none; stroke: #b0b0b0; stroke-opacity: 0.5; stroke-width: 0.8; stroke-linecap: square"/>
     </g>
     <g id="line2d_2">
      <defs>
       <path id="m7b32be52e1" d="M 0 0 
L 0 3.5 
" style="stroke: #000000; stroke-width: 0.8"/>
      </defs>
      <g>
       <use xlink:href="#m7b32be52e1" x="92.290909" y="384.48" style="stroke: #000000; stroke-width: 0.8"/>
      </g>
     </g>
     <g id="text_1">
      <!-- 0 -->
      <g transform="translate(89.109659 399.078438)scale(0.1 -0.1)">
       <defs>
        <path id="DejaVuSans-30" d="M 2034 4250 
Q 1547 4250 1301 3770 
Q 1056 3291 1056 2328 
Q 1056 1369 1301 889 
Q 1547 409 2034 409 
Q 2525 409 2770 889 
Q 3016 1369 3016 2328 
Q 3016 3291 2770 3770 
Q 2525 4250 2034 4250 
z
M 2034 4750 
Q 2819 4750 3233 4129 
Q 3647 3509 3647 2328 
Q 3647 1150 3233 529 
Q 2819 -91 2034 -91 
Q 1250 -91 836 529 
Q 422 1150 422 2328 
Q 422 3509 836 4129 
Q 1250 4750 2034 4750 
z
" transform="scale(0.015625)"/>
       </defs>
       <use xlink:href="#DejaVuSans-30"/>
      </g>
     </g>
    </g>
    <g id="xtick_2">
     <g id="line2d_3">
      <path d="M 173.454545 384.48 
L 173.454545 51.84 
" clip-path="url(#pb03d2e0d47)" style="fill: none; stroke: #b0b0b0; stroke-opacity: 0.5; stroke-width: 0.8; stroke-linecap: square"/>
     </g>
     <g id="line2d_4">
      <g>
       <use xlink:href="#m7b32be52e1" x="173.454545" y="384.48" style="stroke: #000000; stroke-width: 0.8"/>
      </g>
     </g>
     <g id="text_2">
      <!-- 50 -->
      <g transform="translate(167.092045 399.078438)scale(0.1 -0.1)">
       <defs>
        <path id="DejaVuSans-35" d="M 691 4666 
L 3169 4666 
L 3169 4134 
L 1269 4134 
L 1269 2991 
Q 1406 3038 1543 3061 
Q 1681 3084 1819 3084 
Q 2600 3084 3056 2656 
Q 3513 2228 3513 1497 
Q 3513 744 3044 326 
Q 2575 -91 1722 -91 
Q 1428 -91 1123 -41 
Q 819 9 494 109 
L 494 744 
Q 775 591 1075 516 
Q 1375 441 1709 441 
Q 2250 441 2565 725 
Q 2881 1009 2881 1497 
Q 2881 1984 2565 2268 
Q 2250 2553 1709 2553 
Q 1456 2553 1204 2497 
Q 953 2441 691 2322 
L 691 4666 
z
" transform="scale(0.015625)"/>
       </defs>
       <use xlink:href="#DejaVuSans-35"/>
       <use xlink:href="#DejaVuSans-30" x="63.623047"/>
      </g>
     </g>
    </g>
    <g id="xtick_3">
     <g id="line2d_5">
      <path d="M 254.618182 384.48 
L 254.618182 51.84 
" clip-path="url(#pb03d2e0d47)" style="fill: none; stroke: #b0b0b0; stroke-opacity: 0.5; stroke-width: 0.8; stroke-linecap: square"/>
     </g>
     <g id="line2d_6">
      <g>
       <use xlink:href="#m7b32be52e1" x="254.618182" y="384.48" style="stroke: #000000; stroke-width: 0.8"/>
      </g>
     </g>
     <g id="text_3">
      <!-- 100 -->
      <g transform="translate(245.074432 399.078438)scale(0.1 -0.1)">
       <defs>
        <path id="DejaVuSans-31" d="M 794 531 
L 1825 531 
L 1825 4091 
L 703 3866 
L 703 4441 
L 1819 4666 
L 2450 4666 
L 2450 531 
L 3481 531 
L 3481 0 
L 794 0 
L 794 531 
z
" transform="scale(0.015625)"/>
       </defs>
       <use xlink:href="#DejaVuSans-31"/>
       <use xlink:href="#DejaVuSans-30" x="63.623047"/>
       <use xlink:href="#DejaVuSans-30" x="127.246094"/>
      </g>
     </g>
    </g>
    <g id="xtick_4">
     <g id="line2d_7">
      <path d="M 335.781818 384.48 
L 335.781818 51.84 
" clip-path="url(#pb03d2e0d47)" style="fill: none; stroke: #b0b0b0; stroke-opacity: 0.5; stroke-width: 0.8; stroke-linecap: square"/>
     </g>
     <g id="line2d_8">
      <g>
       <use xlink:href="#m7b32be52e1" x="335.781818" y="384.48" style="stroke: #000000; stroke-width: 0.8"/>
      </g>
     </g>
     <g id="text_4">
      <!-- 150 -->
      <g transform="translate(326.238068 399.078438)scale(0.1 -0.1)">
       <use xlink:href="#DejaVuSans-31"/>
       <use xlink:href="#DejaVuSans-35" x="63.623047"/>
       <use xlink:href="#DejaVuSans-30" x="127.246094"/>
      </g>
     </g>
    </g>
    <g id="xtick_5">
     <g id="line2d_9">
      <path d="M 416.945455 384.48 
L 416.945455 51.84 
" clip-path="url(#pb03d2e0d47)" style="fill: none; stroke: #b0b0b0; stroke-opacity: 0.5; stroke-width: 0.8; stroke-linecap: square"/>
     </g>
     <g id="line2d_10">
      <g>
       <use xlink:href="#m7b32be52e1" x="416.945455" y="384.48" style="stroke: #000000; stroke-width: 0.8"/>
      </g>
     </g>
     <g id="text_5">
      <!-- 200 -->
      <g transform="translate(407.401705 399.078438)scale(0.1 -0.1)">
       <defs>
        <path id="DejaVuSans-32" d="M 1228 531 
L 3431 531 
L 3431 0 
L 469 0 
L 469 531 
Q 828 903 1448 1529 
Q 2069 2156 2228 2338 
Q 2531 2678 2651 2914 
Q 2772 3150 2772 3378 
Q 2772 3750 2511 3984 
Q 2250 4219 1831 4219 
Q 1534 4219 1204 4116 
Q 875 4013 500 3803 
L 500 4441 
Q 881 4594 1212 4672 
Q 1544 4750 1819 4750 
Q 2544 4750 2975 4387 
Q 3406 4025 3406 3419 
Q 3406 3131 3298 2873 
Q 3191 2616 2906 2266 
Q 2828 2175 2409 1742 
Q 1991 1309 1228 531 
z
" transform="scale(0.015625)"/>
       </defs>
       <use xlink:href="#DejaVuSans-32"/>
       <use xlink:href="#DejaVuSans-30" x="63.623047"/>
       <use xlink:href="#DejaVuSans-30" x="127.246094"/>
      </g>
     </g>
    </g>
    <g id="xtick_6">
     <g id="line2d_11">
      <path d="M 498.109091 384.48 
L 498.109091 51.84 
" clip-path="url(#pb03d2e0d47)" style="fill: none; stroke: #b0b0b0; stroke-opacity: 0.5; stroke-width: 0.8; stroke-linecap: square"/>
     </g>
     <g id="line2d_12">
      <g>
       <use xlink:href="#m7b32be52e1" x="498.109091" y="384.48" style="stroke: #000000; stroke-width: 0.8"/>
      </g>
     </g>
     <g id="text_6">
      <!-- 250 -->
      <g transform="translate(488.565341 399.078438)scale(0.1 -0.1)">
       <use xlink:href="#DejaVuSans-32"/>
       <use xlink:href="#DejaVuSans-35" x="63.623047"/>
       <use xlink:href="#DejaVuSans-30" x="127.246094"/>
      </g>
     </g>
    </g>
    <g id="text_7">
     <!-- Communication rounds -->
     <g transform="translate(237.083594 412.756563)scale(0.1 -0.1)">
      <defs>
       <path id="DejaVuSans-43" d="M 4122 4306 
L 4122 3641 
Q 3803 3938 3442 4084 
Q 3081 4231 2675 4231 
Q 1875 4231 1450 3742 
Q 1025 3253 1025 2328 
Q 1025 1406 1450 917 
Q 1875 428 2675 428 
Q 3081 428 3442 575 
Q 3803 722 4122 1019 
L 4122 359 
Q 3791 134 3420 21 
Q 3050 -91 2638 -91 
Q 1578 -91 968 557 
Q 359 1206 359 2328 
Q 359 3453 968 4101 
Q 1578 4750 2638 4750 
Q 3056 4750 3426 4639 
Q 3797 4528 4122 4306 
z
" transform="scale(0.015625)"/>
       <path id="DejaVuSans-6f" d="M 1959 3097 
Q 1497 3097 1228 2736 
Q 959 2375 959 1747 
Q 959 1119 1226 758 
Q 1494 397 1959 397 
Q 2419 397 2687 759 
Q 2956 1122 2956 1747 
Q 2956 2369 2687 2733 
Q 2419 3097 1959 3097 
z
M 1959 3584 
Q 2709 3584 3137 3096 
Q 3566 2609 3566 1747 
Q 3566 888 3137 398 
Q 2709 -91 1959 -91 
Q 1206 -91 779 398 
Q 353 888 353 1747 
Q 353 2609 779 3096 
Q 1206 3584 1959 3584 
z
" transform="scale(0.015625)"/>
       <path id="DejaVuSans-6d" d="M 3328 2828 
Q 3544 3216 3844 3400 
Q 4144 3584 4550 3584 
Q 5097 3584 5394 3201 
Q 5691 2819 5691 2113 
L 5691 0 
L 5113 0 
L 5113 2094 
Q 5113 2597 4934 2840 
Q 4756 3084 4391 3084 
Q 3944 3084 3684 2787 
Q 3425 2491 3425 1978 
L 3425 0 
L 2847 0 
L 2847 2094 
Q 2847 2600 2669 2842 
Q 2491 3084 2119 3084 
Q 1678 3084 1418 2786 
Q 1159 2488 1159 1978 
L 1159 0 
L 581 0 
L 581 3500 
L 1159 3500 
L 1159 2956 
Q 1356 3278 1631 3431 
Q 1906 3584 2284 3584 
Q 2666 3584 2933 3390 
Q 3200 3197 3328 2828 
z
" transform="scale(0.015625)"/>
       <path id="DejaVuSans-75" d="M 544 1381 
L 544 3500 
L 1119 3500 
L 1119 1403 
Q 1119 906 1312 657 
Q 1506 409 1894 409 
Q 2359 409 2629 706 
Q 2900 1003 2900 1516 
L 2900 3500 
L 3475 3500 
L 3475 0 
L 2900 0 
L 2900 538 
Q 2691 219 2414 64 
Q 2138 -91 1772 -91 
Q 1169 -91 856 284 
Q 544 659 544 1381 
z
M 1991 3584 
L 1991 3584 
z
" transform="scale(0.015625)"/>
       <path id="DejaVuSans-6e" d="M 3513 2113 
L 3513 0 
L 2938 0 
L 2938 2094 
Q 2938 2591 2744 2837 
Q 2550 3084 2163 3084 
Q 1697 3084 1428 2787 
Q 1159 2491 1159 1978 
L 1159 0 
L 581 0 
L 581 3500 
L 1159 3500 
L 1159 2956 
Q 1366 3272 1645 3428 
Q 1925 3584 2291 3584 
Q 2894 3584 3203 3211 
Q 3513 2838 3513 2113 
z
" transform="scale(0.015625)"/>
       <path id="DejaVuSans-69" d="M 603 3500 
L 1178 3500 
L 1178 0 
L 603 0 
L 603 3500 
z
M 603 4863 
L 1178 4863 
L 1178 4134 
L 603 4134 
L 603 4863 
z
" transform="scale(0.015625)"/>
       <path id="DejaVuSans-63" d="M 3122 3366 
L 3122 2828 
Q 2878 2963 2633 3030 
Q 2388 3097 2138 3097 
Q 1578 3097 1268 2742 
Q 959 2388 959 1747 
Q 959 1106 1268 751 
Q 1578 397 2138 397 
Q 2388 397 2633 464 
Q 2878 531 3122 666 
L 3122 134 
Q 2881 22 2623 -34 
Q 2366 -91 2075 -91 
Q 1284 -91 818 406 
Q 353 903 353 1747 
Q 353 2603 823 3093 
Q 1294 3584 2113 3584 
Q 2378 3584 2631 3529 
Q 2884 3475 3122 3366 
z
" transform="scale(0.015625)"/>
       <path id="DejaVuSans-61" d="M 2194 1759 
Q 1497 1759 1228 1600 
Q 959 1441 959 1056 
Q 959 750 1161 570 
Q 1363 391 1709 391 
Q 2188 391 2477 730 
Q 2766 1069 2766 1631 
L 2766 1759 
L 2194 1759 
z
M 3341 1997 
L 3341 0 
L 2766 0 
L 2766 531 
Q 2569 213 2275 61 
Q 1981 -91 1556 -91 
Q 1019 -91 701 211 
Q 384 513 384 1019 
Q 384 1609 779 1909 
Q 1175 2209 1959 2209 
L 2766 2209 
L 2766 2266 
Q 2766 2663 2505 2880 
Q 2244 3097 1772 3097 
Q 1472 3097 1187 3025 
Q 903 2953 641 2809 
L 641 3341 
Q 956 3463 1253 3523 
Q 1550 3584 1831 3584 
Q 2591 3584 2966 3190 
Q 3341 2797 3341 1997 
z
" transform="scale(0.015625)"/>
       <path id="DejaVuSans-74" d="M 1172 4494 
L 1172 3500 
L 2356 3500 
L 2356 3053 
L 1172 3053 
L 1172 1153 
Q 1172 725 1289 603 
Q 1406 481 1766 481 
L 2356 481 
L 2356 0 
L 1766 0 
Q 1100 0 847 248 
Q 594 497 594 1153 
L 594 3053 
L 172 3053 
L 172 3500 
L 594 3500 
L 594 4494 
L 1172 4494 
z
" transform="scale(0.015625)"/>
       <path id="DejaVuSans-20" transform="scale(0.015625)"/>
       <path id="DejaVuSans-72" d="M 2631 2963 
Q 2534 3019 2420 3045 
Q 2306 3072 2169 3072 
Q 1681 3072 1420 2755 
Q 1159 2438 1159 1844 
L 1159 0 
L 581 0 
L 581 3500 
L 1159 3500 
L 1159 2956 
Q 1341 3275 1631 3429 
Q 1922 3584 2338 3584 
Q 2397 3584 2469 3576 
Q 2541 3569 2628 3553 
L 2631 2963 
z
" transform="scale(0.015625)"/>
       <path id="DejaVuSans-64" d="M 2906 2969 
L 2906 4863 
L 3481 4863 
L 3481 0 
L 2906 0 
L 2906 525 
Q 2725 213 2448 61 
Q 2172 -91 1784 -91 
Q 1150 -91 751 415 
Q 353 922 353 1747 
Q 353 2572 751 3078 
Q 1150 3584 1784 3584 
Q 2172 3584 2448 3432 
Q 2725 3281 2906 2969 
z
M 947 1747 
Q 947 1113 1208 752 
Q 1469 391 1925 391 
Q 2381 391 2643 752 
Q 2906 1113 2906 1747 
Q 2906 2381 2643 2742 
Q 2381 3103 1925 3103 
Q 1469 3103 1208 2742 
Q 947 2381 947 1747 
z
" transform="scale(0.015625)"/>
       <path id="DejaVuSans-73" d="M 2834 3397 
L 2834 2853 
Q 2591 2978 2328 3040 
Q 2066 3103 1784 3103 
Q 1356 3103 1142 2972 
Q 928 2841 928 2578 
Q 928 2378 1081 2264 
Q 1234 2150 1697 2047 
L 1894 2003 
Q 2506 1872 2764 1633 
Q 3022 1394 3022 966 
Q 3022 478 2636 193 
Q 2250 -91 1575 -91 
Q 1294 -91 989 -36 
Q 684 19 347 128 
L 347 722 
Q 666 556 975 473 
Q 1284 391 1588 391 
Q 1994 391 2212 530 
Q 2431 669 2431 922 
Q 2431 1156 2273 1281 
Q 2116 1406 1581 1522 
L 1381 1569 
Q 847 1681 609 1914 
Q 372 2147 372 2553 
Q 372 3047 722 3315 
Q 1072 3584 1716 3584 
Q 2034 3584 2315 3537 
Q 2597 3491 2834 3397 
z
" transform="scale(0.015625)"/>
      </defs>
      <use xlink:href="#DejaVuSans-43"/>
      <use xlink:href="#DejaVuSans-6f" x="69.824219"/>
      <use xlink:href="#DejaVuSans-6d" x="131.005859"/>
      <use xlink:href="#DejaVuSans-6d" x="228.417969"/>
      <use xlink:href="#DejaVuSans-75" x="325.830078"/>
      <use xlink:href="#DejaVuSans-6e" x="389.208984"/>
      <use xlink:href="#DejaVuSans-69" x="452.587891"/>
      <use xlink:href="#DejaVuSans-63" x="480.371094"/>
      <use xlink:href="#DejaVuSans-61" x="535.351562"/>
      <use xlink:href="#DejaVuSans-74" x="596.630859"/>
      <use xlink:href="#DejaVuSans-69" x="635.839844"/>
      <use xlink:href="#DejaVuSans-6f" x="663.623047"/>
      <use xlink:href="#DejaVuSans-6e" x="724.804688"/>
      <use xlink:href="#DejaVuSans-20" x="788.183594"/>
      <use xlink:href="#DejaVuSans-72" x="819.970703"/>
      <use xlink:href="#DejaVuSans-6f" x="858.833984"/>
      <use xlink:href="#DejaVuSans-75" x="920.015625"/>
      <use xlink:href="#DejaVuSans-6e" x="983.394531"/>
      <use xlink:href="#DejaVuSans-64" x="1046.773438"/>
      <use xlink:href="#DejaVuSans-73" x="1110.25"/>
     </g>
    </g>
   </g>
   <g id="matplotlib.axis_2">
    <g id="ytick_1">
     <g id="line2d_13">
      <path d="M 72 382.523252 
L 518.4 382.523252 
" clip-path="url(#pb03d2e0d47)" style="fill: none; stroke: #b0b0b0; stroke-opacity: 0.5; stroke-width: 0.8; stroke-linecap: square"/>
     </g>
     <g id="line2d_14">
      <defs>
       <path id="me2147624ac" d="M 0 0 
L -3.5 0 
" style="stroke: #000000; stroke-width: 0.8"/>
      </defs>
      <g>
       <use xlink:href="#me2147624ac" x="72" y="382.523252" style="stroke: #000000; stroke-width: 0.8"/>
      </g>
     </g>
     <g id="text_8">
      <!-- 0.0 -->
      <g transform="translate(49.096875 386.322471)scale(0.1 -0.1)">
       <defs>
        <path id="DejaVuSans-2e" d="M 684 794 
L 1344 794 
L 1344 0 
L 684 0 
L 684 794 
z
" transform="scale(0.015625)"/>
       </defs>
       <use xlink:href="#DejaVuSans-30"/>
       <use xlink:href="#DejaVuSans-2e" x="63.623047"/>
       <use xlink:href="#DejaVuSans-30" x="95.410156"/>
      </g>
     </g>
    </g>
    <g id="ytick_2">
     <g id="line2d_15">
      <path d="M 72 311.562323 
L 518.4 311.562323 
" clip-path="url(#pb03d2e0d47)" style="fill: none; stroke: #b0b0b0; stroke-opacity: 0.5; stroke-width: 0.8; stroke-linecap: square"/>
     </g>
     <g id="line2d_16">
      <g>
       <use xlink:href="#me2147624ac" x="72" y="311.562323" style="stroke: #000000; stroke-width: 0.8"/>
      </g>
     </g>
     <g id="text_9">
      <!-- 0.2 -->
      <g transform="translate(49.096875 315.361542)scale(0.1 -0.1)">
       <use xlink:href="#DejaVuSans-30"/>
       <use xlink:href="#DejaVuSans-2e" x="63.623047"/>
       <use xlink:href="#DejaVuSans-32" x="95.410156"/>
      </g>
     </g>
    </g>
    <g id="ytick_3">
     <g id="line2d_17">
      <path d="M 72 240.601394 
L 518.4 240.601394 
" clip-path="url(#pb03d2e0d47)" style="fill: none; stroke: #b0b0b0; stroke-opacity: 0.5; stroke-width: 0.8; stroke-linecap: square"/>
     </g>
     <g id="line2d_18">
      <g>
       <use xlink:href="#me2147624ac" x="72" y="240.601394" style="stroke: #000000; stroke-width: 0.8"/>
      </g>
     </g>
     <g id="text_10">
      <!-- 0.4 -->
      <g transform="translate(49.096875 244.400613)scale(0.1 -0.1)">
       <defs>
        <path id="DejaVuSans-34" d="M 2419 4116 
L 825 1625 
L 2419 1625 
L 2419 4116 
z
M 2253 4666 
L 3047 4666 
L 3047 1625 
L 3713 1625 
L 3713 1100 
L 3047 1100 
L 3047 0 
L 2419 0 
L 2419 1100 
L 313 1100 
L 313 1709 
L 2253 4666 
z
" transform="scale(0.015625)"/>
       </defs>
       <use xlink:href="#DejaVuSans-30"/>
       <use xlink:href="#DejaVuSans-2e" x="63.623047"/>
       <use xlink:href="#DejaVuSans-34" x="95.410156"/>
      </g>
     </g>
    </g>
    <g id="ytick_4">
     <g id="line2d_19">
      <path d="M 72 169.640465 
L 518.4 169.640465 
" clip-path="url(#pb03d2e0d47)" style="fill: none; stroke: #b0b0b0; stroke-opacity: 0.5; stroke-width: 0.8; stroke-linecap: square"/>
     </g>
     <g id="line2d_20">
      <g>
       <use xlink:href="#me2147624ac" x="72" y="169.640465" style="stroke: #000000; stroke-width: 0.8"/>
      </g>
     </g>
     <g id="text_11">
      <!-- 0.6 -->
      <g transform="translate(49.096875 173.439683)scale(0.1 -0.1)">
       <defs>
        <path id="DejaVuSans-36" d="M 2113 2584 
Q 1688 2584 1439 2293 
Q 1191 2003 1191 1497 
Q 1191 994 1439 701 
Q 1688 409 2113 409 
Q 2538 409 2786 701 
Q 3034 994 3034 1497 
Q 3034 2003 2786 2293 
Q 2538 2584 2113 2584 
z
M 3366 4563 
L 3366 3988 
Q 3128 4100 2886 4159 
Q 2644 4219 2406 4219 
Q 1781 4219 1451 3797 
Q 1122 3375 1075 2522 
Q 1259 2794 1537 2939 
Q 1816 3084 2150 3084 
Q 2853 3084 3261 2657 
Q 3669 2231 3669 1497 
Q 3669 778 3244 343 
Q 2819 -91 2113 -91 
Q 1303 -91 875 529 
Q 447 1150 447 2328 
Q 447 3434 972 4092 
Q 1497 4750 2381 4750 
Q 2619 4750 2861 4703 
Q 3103 4656 3366 4563 
z
" transform="scale(0.015625)"/>
       </defs>
       <use xlink:href="#DejaVuSans-30"/>
       <use xlink:href="#DejaVuSans-2e" x="63.623047"/>
       <use xlink:href="#DejaVuSans-36" x="95.410156"/>
      </g>
     </g>
    </g>
    <g id="ytick_5">
     <g id="line2d_21">
      <path d="M 72 98.679535 
L 518.4 98.679535 
" clip-path="url(#pb03d2e0d47)" style="fill: none; stroke: #b0b0b0; stroke-opacity: 0.5; stroke-width: 0.8; stroke-linecap: square"/>
     </g>
     <g id="line2d_22">
      <g>
       <use xlink:href="#me2147624ac" x="72" y="98.679535" style="stroke: #000000; stroke-width: 0.8"/>
      </g>
     </g>
     <g id="text_12">
      <!-- 0.8 -->
      <g transform="translate(49.096875 102.478754)scale(0.1 -0.1)">
       <defs>
        <path id="DejaVuSans-38" d="M 2034 2216 
Q 1584 2216 1326 1975 
Q 1069 1734 1069 1313 
Q 1069 891 1326 650 
Q 1584 409 2034 409 
Q 2484 409 2743 651 
Q 3003 894 3003 1313 
Q 3003 1734 2745 1975 
Q 2488 2216 2034 2216 
z
M 1403 2484 
Q 997 2584 770 2862 
Q 544 3141 544 3541 
Q 544 4100 942 4425 
Q 1341 4750 2034 4750 
Q 2731 4750 3128 4425 
Q 3525 4100 3525 3541 
Q 3525 3141 3298 2862 
Q 3072 2584 2669 2484 
Q 3125 2378 3379 2068 
Q 3634 1759 3634 1313 
Q 3634 634 3220 271 
Q 2806 -91 2034 -91 
Q 1263 -91 848 271 
Q 434 634 434 1313 
Q 434 1759 690 2068 
Q 947 2378 1403 2484 
z
M 1172 3481 
Q 1172 3119 1398 2916 
Q 1625 2713 2034 2713 
Q 2441 2713 2670 2916 
Q 2900 3119 2900 3481 
Q 2900 3844 2670 4047 
Q 2441 4250 2034 4250 
Q 1625 4250 1398 4047 
Q 1172 3844 1172 3481 
z
" transform="scale(0.015625)"/>
       </defs>
       <use xlink:href="#DejaVuSans-30"/>
       <use xlink:href="#DejaVuSans-2e" x="63.623047"/>
       <use xlink:href="#DejaVuSans-38" x="95.410156"/>
      </g>
     </g>
    </g>
    <g id="text_13">
     <!-- Accuracy -->
     <g transform="translate(43.017187 240.988125)rotate(-90)scale(0.1 -0.1)">
      <defs>
       <path id="DejaVuSans-41" d="M 2188 4044 
L 1331 1722 
L 3047 1722 
L 2188 4044 
z
M 1831 4666 
L 2547 4666 
L 4325 0 
L 3669 0 
L 3244 1197 
L 1141 1197 
L 716 0 
L 50 0 
L 1831 4666 
z
" transform="scale(0.015625)"/>
       <path id="DejaVuSans-79" d="M 2059 -325 
Q 1816 -950 1584 -1140 
Q 1353 -1331 966 -1331 
L 506 -1331 
L 506 -850 
L 844 -850 
Q 1081 -850 1212 -737 
Q 1344 -625 1503 -206 
L 1606 56 
L 191 3500 
L 800 3500 
L 1894 763 
L 2988 3500 
L 3597 3500 
L 2059 -325 
z
" transform="scale(0.015625)"/>
      </defs>
      <use xlink:href="#DejaVuSans-41"/>
      <use xlink:href="#DejaVuSans-63" x="66.658203"/>
      <use xlink:href="#DejaVuSans-63" x="121.638672"/>
      <use xlink:href="#DejaVuSans-75" x="176.619141"/>
      <use xlink:href="#DejaVuSans-72" x="239.998047"/>
      <use xlink:href="#DejaVuSans-61" x="281.111328"/>
      <use xlink:href="#DejaVuSans-63" x="342.390625"/>
      <use xlink:href="#DejaVuSans-79" x="397.371094"/>
     </g>
    </g>
   </g>
   <g id="line2d_23">
    <path d="M 92.290909 367.195692 
L 93.914182 368.047223 
L 95.537455 364.534657 
L 97.160727 359.496431 
L 98.784 360.809208 
L 100.407273 361.909102 
L 102.030545 361.69622 
L 103.653818 350.058627 
L 105.277091 348.320084 
L 106.900364 350.27151 
L 108.523636 346.581542 
L 110.146909 334.26982 
L 111.770182 332.992524 
L 113.393455 330.579852 
L 115.016727 325.08038 
L 116.64 313.655671 
L 118.263273 313.655671 
L 119.886545 300.705301 
L 121.509818 301.41491 
L 123.133091 294.141415 
L 126.379636 277.891362 
L 128.002909 274.627159 
L 129.626182 262.350919 
L 131.249455 254.900021 
L 132.872727 263.699176 
L 134.496 245.462218 
L 136.119273 246.774995 
L 137.742545 237.124308 
L 139.365818 235.385766 
L 140.989091 224.848068 
L 142.612364 219.809842 
L 144.235636 221.122619 
L 145.858909 224.422302 
L 147.482182 222.00963 
L 149.105455 204.695164 
L 150.728727 205.333812 
L 152.352 191.531911 
L 153.975273 186.493685 
L 155.598545 183.194002 
L 157.221818 186.493685 
L 158.845091 186.493685 
L 160.468364 175.530222 
L 162.091636 173.543316 
L 165.338182 180.781331 
L 170.208 149.4166 
L 171.831273 148.529588 
L 173.454545 151.403506 
L 175.077818 150.516494 
L 176.701091 147.465174 
L 178.324364 161.728321 
L 183.194182 130.753875 
L 184.817455 135.188933 
L 186.440727 132.350496 
L 188.064 132.315016 
L 189.687273 130.115227 
L 191.310545 132.102133 
L 192.933818 121.599916 
L 194.557091 119.187244 
L 196.180364 129.015333 
L 197.803636 125.112482 
L 199.426909 134.514805 
L 201.050182 114.574784 
L 202.673455 115.000549 
L 204.296727 118.725998 
L 205.92 117.838986 
L 207.543273 120.925787 
L 209.166545 115.887561 
L 210.789818 112.552397 
L 212.413091 120.712904 
L 214.036364 107.123886 
L 215.659636 118.725998 
L 217.282909 122.877212 
L 218.906182 111.913749 
L 220.529455 112.374995 
L 222.152727 112.587878 
L 223.776 112.126631 
L 225.399273 108.1883 
L 227.022545 131.002239 
L 228.645818 113.687772 
L 230.269091 128.341204 
L 231.892364 105.349863 
L 233.515636 100.52452 
L 235.138909 99.850391 
L 236.762182 97.898965 
L 238.385455 110.175206 
L 240.008727 107.975417 
L 241.632 93.499388 
L 243.255273 103.362957 
L 244.878545 111.700866 
L 246.501818 101.411531 
L 248.125091 100.063273 
L 249.748364 113.049124 
L 251.371636 105.349863 
L 252.994909 93.286505 
L 254.618182 93.534868 
L 256.241455 98.785977 
L 257.864727 97.4732 
L 259.488 97.224836 
L 261.111273 92.825259 
L 262.734545 97.650602 
L 264.357818 91.086716 
L 265.981091 91.973728 
L 267.604364 98.324731 
L 269.227636 94.386399 
L 270.850909 88.886927 
L 272.474182 94.812165 
L 274.097455 93.534868 
L 275.720727 92.434974 
L 277.344 94.386399 
L 278.967273 93.073622 
L 280.590545 86.722619 
L 282.213818 105.775628 
L 283.837091 83.422936 
L 285.460364 97.011954 
L 287.083636 90.873833 
L 288.706909 100.098754 
L 290.330182 87.396748 
L 291.953455 107.762534 
L 293.576727 88.212798 
L 295.2 87.787033 
L 296.823273 85.196959 
L 298.446545 87.361267 
L 300.069818 79.236241 
L 301.693091 95.699176 
L 303.316364 100.098754 
L 304.939636 97.4732 
L 306.562909 82.110158 
L 308.186182 84.061584 
L 309.809455 91.335079 
L 311.432727 106.66264 
L 313.056 101.837297 
L 314.679273 84.948596 
L 316.302545 86.935502 
L 317.925818 83.422936 
L 319.549091 91.973728 
L 321.172364 93.925153 
L 322.795636 87.148384 
L 324.418909 93.073622 
L 326.042182 78.597592 
L 327.665455 89.348173 
L 329.288727 90.448068 
L 330.912 78.810475 
L 332.535273 86.261373 
L 334.158545 86.900021 
L 335.781818 84.948596 
L 337.405091 77.923464 
L 339.028364 87.148384 
L 340.651636 105.13698 
L 342.274909 87.822513 
L 343.898182 93.747751 
L 345.521455 80.336135 
L 347.144727 101.837297 
L 348.768 81.010264 
L 350.391273 89.348173 
L 352.014545 79.023358 
L 353.637818 82.535924 
L 355.261091 82.074678 
L 356.884364 82.784287 
L 358.507636 82.323041 
L 360.130909 86.261373 
L 361.754182 84.735713 
L 363.377455 80.549018 
L 365.000727 83.635818 
L 366.624 82.99717 
L 368.247273 79.662006 
L 369.870545 85.196959 
L 371.493818 97.260317 
L 373.117091 107.549652 
L 374.740364 79.484604 
L 376.363636 79.236241 
L 377.986909 81.897276 
L 379.610182 78.136346 
L 381.233455 90.873833 
L 382.856727 82.535924 
L 384.48 83.174572 
L 386.103273 78.810475 
L 387.726545 83.422936 
L 389.349818 81.010264 
L 390.973091 79.91037 
L 392.596364 79.91037 
L 394.219636 88.248279 
L 395.842909 75.085026 
L 397.466182 99.637508 
L 399.089455 76.397804 
L 400.712727 86.261373 
L 402.336 88.674044 
L 403.959273 99.637508 
L 405.582545 79.271721 
L 407.205818 79.236241 
L 408.829091 88.674044 
L 410.452364 83.174572 
L 412.075636 81.010264 
L 413.698909 77.497698 
L 415.322182 89.348173 
L 416.945455 77.284815 
L 418.568727 81.010264 
L 420.192 88.461162 
L 421.815273 75.759155 
L 423.438545 89.09981 
L 425.061818 78.136346 
L 426.685091 87.148384 
L 428.308364 88.248279 
L 429.931636 81.223147 
L 431.554909 84.735713 
L 433.178182 73.559366 
L 434.801455 80.158733 
L 436.424727 90.022302 
L 438.048 76.184921 
L 441.294545 85.622724 
L 442.917818 73.559366 
L 444.541091 84.948596 
L 446.164364 77.036452 
L 447.787636 85.196959 
L 449.410909 81.223147 
L 451.034182 76.823569 
L 452.657455 81.861795 
L 454.280727 82.110158 
L 455.904 75.085026 
L 457.527273 77.071932 
L 459.150545 76.397804 
L 460.773818 79.91037 
L 462.397091 88.461162 
L 464.020364 70.508046 
L 465.643636 79.91037 
L 467.266909 73.985132 
L 468.890182 76.397804 
L 470.513455 75.723675 
L 472.136727 77.923464 
L 473.76 80.549018 
L 475.383273 74.446378 
L 477.006545 76.397804 
L 478.629818 75.759155 
L 480.253091 68.52114 
L 481.876364 74.872144 
L 483.499636 108.862429 
L 485.122909 71.57246 
L 486.746182 75.759155 
L 488.369455 73.772249 
L 489.992727 77.284815 
L 491.616 74.659261 
L 493.239273 76.184921 
L 494.862545 72.459472 
L 496.485818 79.484604 
L 498.109091 76.646167 
L 498.109091 76.646167 
" clip-path="url(#pb03d2e0d47)" style="fill: none; stroke: #1f77b4; stroke-width: 1.5; stroke-linecap: square"/>
   </g>
   <g id="line2d_24">
    <path d="M 92.290909 369.36 
L 93.914182 367.83434 
L 95.537455 362.796114 
L 97.160727 362.370348 
L 98.784 363.896008 
L 100.407273 359.496431 
L 102.030545 358.822302 
L 103.653818 352.045533 
L 105.277091 350.945639 
L 106.900364 344.13339 
L 108.523636 336.682492 
L 110.146909 337.356621 
L 111.770182 325.506146 
L 113.393455 328.344583 
L 115.016727 321.142049 
L 116.64 309.930222 
L 118.263273 305.104879 
L 119.886545 289.103189 
L 121.509818 288.038775 
L 123.133091 279.700866 
L 124.756364 272.675734 
L 126.379636 266.28925 
L 128.002909 262.599282 
L 129.626182 253.800127 
L 132.872727 231.8732 
L 134.496 230.34754 
L 136.119273 224.173939 
L 137.742545 206.894952 
L 139.365818 216.510158 
L 140.989091 199.195692 
L 142.612364 206.220824 
L 144.235636 193.69622 
L 145.858909 188.657994 
L 147.482182 176.842999 
L 149.105455 178.581542 
L 150.728727 174.004562 
L 152.352 172.656304 
L 153.975273 157.754509 
L 155.598545 157.967392 
L 157.221818 151.616389 
L 158.845091 164.744161 
L 160.468364 145.691151 
L 162.091636 143.491362 
L 163.714909 133.41491 
L 165.338182 135.366336 
L 166.961455 143.952608 
L 168.584727 132.315016 
L 170.208 124.438353 
L 171.831273 132.315016 
L 173.454545 135.614699 
L 175.077818 129.263696 
L 176.701091 142.391468 
L 178.324364 122.451447 
L 179.947636 124.438353 
L 181.570909 128.163801 
L 184.817455 111.736346 
L 186.440727 123.551341 
L 188.064 113.900655 
L 189.687273 128.376684 
L 191.310545 127.489673 
L 192.933818 111.487983 
L 194.557091 106.201394 
L 196.180364 109.71396 
L 197.803636 104.249968 
L 199.426909 113.687772 
L 201.050182 118.938881 
L 202.673455 103.362957 
L 204.296727 111.700866 
L 205.92 110.175206 
L 207.543273 104.888617 
L 209.166545 111.487983 
L 210.789818 99.424625 
L 212.413091 100.737402 
L 214.036364 105.101499 
L 215.659636 99.637508 
L 217.282909 104.001605 
L 218.906182 104.924097 
L 220.529455 104.462851 
L 222.152727 97.898965 
L 223.776 102.901711 
L 225.399273 99.211742 
L 227.022545 94.173516 
L 228.645818 93.747751 
L 230.269091 93.073622 
L 231.892364 94.812165 
L 233.515636 97.4732 
L 235.138909 97.686082 
L 236.762182 94.599282 
L 238.385455 95.273411 
L 240.008727 96.373305 
L 241.632 93.534868 
L 243.255273 93.286505 
L 244.878545 95.025048 
L 246.501818 98.99886 
L 248.125091 99.211742 
L 249.748364 92.399493 
L 251.371636 95.699176 
L 252.994909 86.04849 
L 254.618182 89.986822 
L 256.241455 88.674044 
L 257.864727 93.925153 
L 259.488 90.199704 
L 261.111273 92.860739 
L 262.734545 94.599282 
L 264.357818 86.722619 
L 265.981091 84.735713 
L 267.604364 97.4732 
L 269.227636 92.18661 
L 270.850909 92.612376 
L 272.474182 88.461162 
L 274.097455 86.900021 
L 275.720727 90.873833 
L 277.344 91.299599 
L 278.967273 94.812165 
L 280.590545 91.938247 
L 282.213818 83.174572 
L 283.837091 87.148384 
L 285.460364 88.674044 
L 287.083636 104.249968 
L 288.706909 87.148384 
L 290.330182 84.948596 
L 291.953455 90.235185 
L 293.576727 91.086716 
L 295.2 82.110158 
L 296.823273 88.674044 
L 298.446545 97.011954 
L 300.069818 87.822513 
L 301.693091 87.57415 
L 303.316364 84.948596 
L 304.939636 91.973728 
L 306.562909 88.248279 
L 308.186182 99.424625 
L 309.809455 92.612376 
L 311.432727 84.948596 
L 313.056 91.973728 
L 316.302545 83.635818 
L 317.925818 78.136346 
L 319.549091 85.374361 
L 321.172364 79.697487 
L 322.795636 85.622724 
L 324.418909 86.474256 
L 326.042182 96.124942 
L 327.665455 79.023358 
L 329.288727 78.38471 
L 330.912 91.335079 
L 332.535273 83.884182 
L 334.158545 82.99717 
L 335.781818 81.43603 
L 337.405091 92.612376 
L 339.028364 83.635818 
L 340.651636 85.196959 
L 342.274909 87.148384 
L 343.898182 85.374361 
L 345.521455 83.422936 
L 347.144727 81.861795 
L 348.768 82.99717 
L 350.391273 77.497698 
L 352.014545 79.236241 
L 353.637818 82.535924 
L 355.261091 82.784287 
L 356.884364 80.123252 
L 358.507636 82.535924 
L 360.130909 87.148384 
L 361.754182 87.57415 
L 363.377455 89.773939 
L 365.000727 85.835607 
L 366.624 82.99717 
L 368.247273 83.635818 
L 369.870545 81.47151 
L 371.493818 91.973728 
L 374.740364 83.422936 
L 376.363636 95.699176 
L 379.610182 80.123252 
L 381.233455 81.47151 
L 382.856727 87.57415 
L 384.48 80.123252 
L 386.103273 79.91037 
L 387.726545 79.484604 
L 389.349818 81.861795 
L 390.973091 88.212798 
L 392.596364 87.822513 
L 394.219636 91.086716 
L 395.842909 79.484604 
L 397.466182 82.074678 
L 399.089455 75.085026 
L 400.712727 93.073622 
L 402.336 80.123252 
L 403.959273 82.323041 
L 405.582545 85.374361 
L 407.205818 86.935502 
L 408.829091 81.010264 
L 410.452364 79.236241 
L 412.075636 78.136346 
L 413.698909 84.948596 
L 415.322182 77.071932 
L 416.945455 83.422936 
L 418.568727 77.710581 
L 420.192 80.797381 
L 421.815273 79.023358 
L 423.438545 85.835607 
L 425.061818 91.299599 
L 426.685091 76.433284 
L 428.308364 84.735713 
L 429.931636 79.236241 
L 431.554909 81.684393 
L 433.178182 79.023358 
L 434.801455 77.071932 
L 436.424727 77.497698 
L 438.048 80.584498 
L 439.671273 91.086716 
L 441.294545 88.212798 
L 442.917818 79.91037 
L 444.541091 79.484604 
L 446.164364 81.223147 
L 447.787636 80.123252 
L 449.410909 74.198015 
L 451.034182 92.612376 
L 452.657455 81.010264 
L 454.280727 80.584498 
L 455.904 95.450813 
L 457.527273 76.14944 
L 459.150545 79.697487 
L 460.773818 93.925153 
L 462.397091 83.174572 
L 464.020364 81.861795 
L 465.643636 78.597592 
L 467.266909 92.434974 
L 468.890182 83.422936 
L 470.513455 77.071932 
L 472.136727 82.748807 
L 473.76 79.484604 
L 475.383273 77.497698 
L 477.006545 76.610686 
L 478.629818 78.810475 
L 480.253091 77.284815 
L 481.876364 76.397804 
L 483.499636 83.210053 
L 485.122909 80.336135 
L 486.746182 81.223147 
L 488.369455 82.535924 
L 489.992727 85.587244 
L 491.616 74.446378 
L 493.239273 77.497698 
L 494.862545 76.823569 
L 496.485818 79.484604 
L 498.109091 74.836663 
L 498.109091 74.836663 
" clip-path="url(#pb03d2e0d47)" style="fill: none; stroke: #ff7f0e; stroke-width: 1.5; stroke-linecap: square"/>
   </g>
   <g id="line2d_25">
    <path d="M 92.290909 366.521563 
L 93.914182 364.534657 
L 95.537455 366.30868 
L 97.160727 364.321774 
L 98.784 358.822302 
L 100.407273 355.770982 
L 102.030545 356.870876 
L 103.653818 343.459261 
L 105.277091 336.043844 
L 106.900364 334.056938 
L 108.523636 317.806885 
L 110.146909 316.955354 
L 111.770182 305.104879 
L 113.393455 288.464541 
L 115.016727 279.026737 
L 116.64 268.737402 
L 118.263273 262.138036 
L 119.886545 243.475312 
L 121.509818 234.072988 
L 123.133091 216.758522 
L 124.756364 204.056515 
L 126.379636 203.595269 
L 128.002909 188.019345 
L 129.626182 199.195692 
L 131.249455 174.856093 
L 132.872727 176.16887 
L 134.496 164.353875 
L 136.119273 158.854403 
L 137.742545 176.16887 
L 139.365818 155.128955 
L 140.989091 139.553031 
L 142.612364 135.827582 
L 144.235636 142.178585 
L 145.858909 126.425259 
L 147.482182 154.02906 
L 149.105455 127.915438 
L 150.728727 131.002239 
L 152.352 129.228215 
L 153.975273 157.08038 
L 155.598545 131.002239 
L 157.221818 119.61301 
L 158.845091 124.402872 
L 160.468364 118.725998 
L 162.091636 111.913749 
L 163.714909 108.401183 
L 165.338182 127.489673 
L 166.961455 117.838986 
L 168.584727 123.764224 
L 170.208 107.975417 
L 171.831273 109.288194 
L 173.454545 108.401183 
L 175.077818 100.985766 
L 176.701091 100.737402 
L 178.324364 101.837297 
L 179.947636 104.675734 
L 181.570909 103.150074 
L 183.194182 112.126631 
L 184.817455 104.675734 
L 186.440727 105.775628 
L 188.064 93.073622 
L 189.687273 96.373305 
L 191.310545 114.32642 
L 192.933818 103.824203 
L 194.557091 106.414277 
L 196.180364 103.362957 
L 197.803636 104.924097 
L 199.426909 98.324731 
L 201.050182 103.575839 
L 202.673455 100.985766 
L 204.296727 115.000549 
L 205.92 95.025048 
L 207.543273 97.4732 
L 209.166545 97.224836 
L 210.789818 90.873833 
L 212.413091 85.835607 
L 214.036364 89.561056 
L 215.659636 88.709525 
L 217.282909 92.18661 
L 218.906182 93.499388 
L 220.529455 104.462851 
L 222.152727 109.288194 
L 223.776 93.534868 
L 225.399273 91.086716 
L 227.022545 93.960634 
L 228.645818 87.822513 
L 230.269091 90.66095 
L 231.892364 93.073622 
L 233.515636 89.561056 
L 235.138909 95.699176 
L 236.762182 92.612376 
L 238.385455 87.57415 
L 240.008727 85.374361 
L 241.632 81.010264 
L 243.255273 84.061584 
L 244.878545 88.035396 
L 246.501818 88.035396 
L 248.125091 99.885871 
L 249.748364 96.799071 
L 251.371636 109.962323 
L 252.994909 91.547962 
L 256.241455 92.860739 
L 257.864727 84.061584 
L 259.488 82.784287 
L 261.111273 84.061584 
L 262.734545 87.112904 
L 264.357818 82.110158 
L 265.981091 82.99717 
L 267.604364 86.722619 
L 269.227636 82.535924 
L 272.474182 89.773939 
L 274.097455 81.223147 
L 275.720727 87.361267 
L 277.344 83.210053 
L 278.967273 79.662006 
L 280.590545 86.722619 
L 282.213818 86.04849 
L 283.837091 83.387455 
L 285.460364 91.299599 
L 287.083636 88.886927 
L 288.706909 77.923464 
L 290.330182 82.535924 
L 291.953455 85.161478 
L 293.576727 81.648912 
L 295.2 89.561056 
L 296.823273 84.274467 
L 298.446545 87.57415 
L 300.069818 98.785977 
L 301.693091 97.011954 
L 303.316364 77.958944 
L 304.939636 77.497698 
L 306.562909 82.784287 
L 308.186182 81.010264 
L 309.809455 81.010264 
L 311.432727 85.374361 
L 313.056 77.497698 
L 314.679273 82.535924 
L 316.302545 71.146695 
L 317.925818 76.823569 
L 319.549091 76.823569 
L 321.172364 81.861795 
L 322.795636 79.662006 
L 324.418909 90.235185 
L 326.042182 78.810475 
L 327.665455 113.049124 
L 329.288727 82.323041 
L 330.912 87.148384 
L 332.535273 78.38471 
L 334.158545 79.91037 
L 335.781818 75.510792 
L 337.405091 80.797381 
L 339.028364 79.662006 
L 340.651636 82.110158 
L 342.274909 77.284815 
L 343.898182 78.38471 
L 345.521455 80.336135 
L 347.144727 79.023358 
L 348.768 77.923464 
L 350.391273 83.635818 
L 352.014545 84.061584 
L 353.637818 74.446378 
L 355.261091 77.284815 
L 356.884364 78.562112 
L 358.507636 77.497698 
L 360.130909 81.43603 
L 361.754182 92.18661 
L 363.377455 75.759155 
L 365.000727 76.14944 
L 366.624 75.297909 
L 368.247273 84.061584 
L 369.870545 79.236241 
L 371.493818 91.086716 
L 373.117091 86.474256 
L 374.740364 85.835607 
L 376.363636 81.861795 
L 377.986909 74.446378 
L 379.610182 79.236241 
L 381.233455 75.085026 
L 382.856727 78.845956 
L 384.48 78.597592 
L 386.103273 82.535924 
L 387.726545 82.535924 
L 389.349818 72.423992 
L 390.973091 85.374361 
L 392.596364 77.923464 
L 394.219636 80.336135 
L 395.842909 77.071932 
L 397.466182 83.635818 
L 399.089455 81.684393 
L 400.712727 77.284815 
L 402.336 77.710581 
L 403.959273 79.697487 
L 405.582545 80.336135 
L 407.205818 76.610686 
L 408.829091 76.397804 
L 410.452364 77.284815 
L 412.075636 74.659261 
L 413.698909 73.311003 
L 415.322182 102.724308 
L 416.945455 70.933812 
L 418.568727 77.497698 
L 420.192 76.823569 
L 421.815273 77.284815 
L 423.438545 78.810475 
L 425.061818 73.985132 
L 426.685091 72.246589 
L 428.308364 75.972038 
L 429.931636 84.061584 
L 431.554909 77.958944 
L 433.178182 72.459472 
L 434.801455 72.246589 
L 436.424727 79.484604 
L 438.048 72.920718 
L 439.671273 78.597592 
L 441.294545 66.96 
L 442.917818 80.549018 
L 444.541091 77.071932 
L 446.164364 74.62378 
L 447.787636 73.133601 
L 449.410909 75.972038 
L 451.034182 71.607941 
L 452.657455 72.672355 
L 454.280727 80.584498 
L 455.904 80.584498 
L 457.527273 75.297909 
L 459.150545 79.91037 
L 460.773818 71.359578 
L 462.397091 84.52283 
L 464.020364 93.073622 
L 465.643636 89.348173 
L 467.266909 77.071932 
L 468.890182 85.374361 
L 470.513455 75.510792 
L 472.136727 80.584498 
L 473.76 75.972038 
L 475.383273 74.872144 
L 477.006545 74.198015 
L 478.629818 74.872144 
L 480.253091 81.684393 
L 481.876364 82.074678 
L 483.499636 75.085026 
L 485.122909 71.57246 
L 486.746182 75.297909 
L 488.369455 75.049546 
L 489.992727 84.948596 
L 491.616 76.610686 
L 493.239273 73.133601 
L 494.862545 77.284815 
L 496.485818 73.772249 
L 498.109091 71.785343 
L 498.109091 71.785343 
" clip-path="url(#pb03d2e0d47)" style="fill: none; stroke: #2ca02c; stroke-width: 1.5; stroke-linecap: square"/>
   </g>
   <g id="line2d_26">
    <path d="M 92.290909 367.585977 
L 93.914182 364.534657 
L 95.537455 359.709314 
L 97.160727 355.770982 
L 98.784 356.232228 
L 100.407273 345.907413 
L 102.030545 337.569504 
L 103.653818 326.60604 
L 105.277091 314.294319 
L 106.900364 311.030116 
L 108.523636 295.667075 
L 110.146909 287.364646 
L 111.770182 273.349863 
L 113.393455 263.663696 
L 115.016727 259.299599 
L 116.64 243.936558 
L 118.263273 231.411954 
L 119.886545 215.658627 
L 121.509818 213.245956 
L 123.133091 203.134023 
L 124.756364 186.245322 
L 126.379636 185.819556 
L 128.002909 182.555354 
L 129.626182 167.830961 
L 131.249455 165.631172 
L 132.872727 161.692841 
L 134.496 167.830961 
L 136.119273 156.867497 
L 137.742545 150.97774 
L 139.365818 140.440042 
L 140.989091 134.727687 
L 142.612364 135.614699 
L 144.235636 134.053559 
L 145.858909 132.740781 
L 147.482182 131.215121 
L 149.105455 127.063907 
L 150.728727 130.753875 
L 152.352 141.114171 
L 153.975273 126.638141 
L 155.598545 119.400127 
L 157.221818 120.712904 
L 158.845091 117.838986 
L 160.468364 112.126631 
L 162.091636 116.064963 
L 163.714909 114.32642 
L 165.338182 105.13698 
L 166.961455 112.126631 
L 168.584727 108.436663 
L 170.208 115.674678 
L 171.831273 102.937191 
L 173.454545 107.727054 
L 175.077818 102.937191 
L 176.701091 108.614065 
L 178.324364 114.752186 
L 179.947636 104.249968 
L 181.570909 105.349863 
L 183.194182 105.13698 
L 184.817455 112.80076 
L 186.440727 94.599282 
L 189.687273 104.249968 
L 191.310545 105.349863 
L 192.933818 114.574784 
L 194.557091 105.13698 
L 196.180364 103.150074 
L 197.803636 97.686082 
L 199.426909 96.124942 
L 201.050182 103.575839 
L 202.673455 98.99886 
L 204.296727 98.99886 
L 205.92 95.699176 
L 207.543273 94.812165 
L 209.166545 99.424625 
L 210.789818 104.498332 
L 212.413091 101.837297 
L 214.036364 96.373305 
L 215.659636 96.124942 
L 217.282909 95.699176 
L 218.906182 89.773939 
L 220.529455 95.94754 
L 222.152727 97.650602 
L 223.776 94.599282 
L 225.399273 93.747751 
L 227.022545 90.412587 
L 228.645818 107.123886 
L 230.269091 100.772883 
L 231.892364 98.111848 
L 233.515636 97.898965 
L 235.138909 91.547962 
L 236.762182 94.386399 
L 238.385455 101.163168 
L 240.008727 91.973728 
L 241.632 89.348173 
L 243.255273 90.235185 
L 244.878545 94.350919 
L 246.501818 94.173516 
L 248.125091 95.273411 
L 249.748364 81.861795 
L 251.371636 94.350919 
L 252.994909 89.773939 
L 254.618182 93.747751 
L 256.241455 87.361267 
L 257.864727 84.309947 
L 259.488 90.66095 
L 261.111273 82.99717 
L 262.734545 82.110158 
L 264.357818 88.035396 
L 265.981091 90.873833 
L 267.604364 88.248279 
L 269.227636 81.861795 
L 270.850909 81.010264 
L 272.474182 82.99717 
L 274.097455 83.635818 
L 275.720727 86.935502 
L 277.344 91.938247 
L 278.967273 81.684393 
L 280.590545 82.748807 
L 282.213818 92.18661 
L 283.837091 96.76359 
L 285.460364 88.212798 
L 287.083636 87.148384 
L 288.706909 90.235185 
L 290.330182 90.235185 
L 291.953455 84.52283 
L 293.576727 85.374361 
L 295.2 91.547962 
L 298.446545 82.074678 
L 300.069818 86.509736 
L 301.693091 84.061584 
L 303.316364 82.99717 
L 304.939636 91.973728 
L 306.562909 92.612376 
L 308.186182 88.248279 
L 309.809455 82.535924 
L 311.432727 85.374361 
L 313.056 86.722619 
L 314.679273 86.474256 
L 316.302545 89.13529 
L 317.925818 82.535924 
L 319.549091 80.123252 
L 321.172364 81.223147 
L 322.795636 84.735713 
L 324.418909 97.650602 
L 326.042182 85.622724 
L 327.665455 83.174572 
L 329.288727 82.99717 
L 330.912 82.99717 
L 332.535273 84.274467 
L 334.158545 81.684393 
L 335.781818 83.422936 
L 337.405091 78.810475 
L 339.028364 78.136346 
L 340.651636 75.972038 
L 342.274909 85.374361 
L 343.898182 83.884182 
L 345.521455 83.210053 
L 347.144727 85.374361 
L 348.768 83.210053 
L 350.391273 80.336135 
L 352.014545 84.52283 
L 353.637818 86.935502 
L 355.261091 79.697487 
L 356.884364 89.13529 
L 358.507636 80.761901 
L 360.130909 83.884182 
L 361.754182 80.584498 
L 363.377455 82.535924 
L 365.000727 76.397804 
L 366.624 76.610686 
L 368.247273 82.535924 
L 369.870545 78.810475 
L 371.493818 81.684393 
L 373.117091 83.848701 
L 374.740364 77.497698 
L 376.363636 80.584498 
L 377.986909 80.549018 
L 379.610182 83.848701 
L 381.233455 78.349229 
L 382.856727 79.484604 
L 384.48 74.872144 
L 386.103273 85.196959 
L 387.726545 79.91037 
L 389.349818 75.297909 
L 390.973091 84.52283 
L 392.596364 81.684393 
L 394.219636 89.561056 
L 395.842909 84.52283 
L 397.466182 73.772249 
L 399.089455 82.784287 
L 400.712727 81.223147 
L 402.336 76.823569 
L 403.959273 74.872144 
L 405.582545 78.349229 
L 407.205818 96.799071 
L 408.829091 78.810475 
L 410.452364 79.91037 
L 412.075636 84.061584 
L 413.698909 79.023358 
L 415.322182 86.900021 
L 416.945455 81.648912 
L 418.568727 75.085026 
L 420.192 78.136346 
L 421.815273 73.523886 
L 423.438545 77.071932 
L 425.061818 79.91037 
L 426.685091 77.497698 
L 428.308364 78.810475 
L 429.931636 74.446378 
L 431.554909 81.47151 
L 433.178182 84.948596 
L 434.801455 71.57246 
L 436.424727 81.861795 
L 438.048 79.697487 
L 439.671273 81.010264 
L 441.294545 77.710581 
L 442.917818 79.697487 
L 444.541091 89.13529 
L 446.164364 86.261373 
L 447.787636 79.023358 
L 449.410909 80.336135 
L 451.034182 80.761901 
L 452.657455 77.284815 
L 454.280727 77.284815 
L 455.904 81.223147 
L 457.527273 73.772249 
L 459.150545 86.722619 
L 460.773818 90.873833 
L 462.397091 77.071932 
L 464.020364 78.38471 
L 465.643636 75.085026 
L 467.266909 82.323041 
L 468.890182 77.071932 
L 470.513455 73.985132 
L 472.136727 73.311003 
L 473.76 84.52283 
L 475.383273 71.146695 
L 477.006545 74.446378 
L 478.629818 68.734023 
L 480.253091 74.872144 
L 481.876364 73.985132 
L 483.499636 76.610686 
L 485.122909 72.672355 
L 486.746182 78.597592 
L 488.369455 81.861795 
L 489.992727 73.772249 
L 491.616 82.748807 
L 493.239273 69.372672 
L 494.862545 78.597592 
L 496.485818 77.071932 
L 498.109091 76.397804 
L 498.109091 76.397804 
" clip-path="url(#pb03d2e0d47)" style="fill: none; stroke: #d62728; stroke-width: 1.5; stroke-linecap: square"/>
   </g>
   <g id="patch_3">
    <path d="M 72 384.48 
L 72 51.84 
" style="fill: none; stroke: #000000; stroke-width: 0.8; stroke-linejoin: miter; stroke-linecap: square"/>
   </g>
   <g id="patch_4">
    <path d="M 518.4 384.48 
L 518.4 51.84 
" style="fill: none; stroke: #000000; stroke-width: 0.8; stroke-linejoin: miter; stroke-linecap: square"/>
   </g>
   <g id="patch_5">
    <path d="M 72 384.48 
L 518.4 384.48 
" style="fill: none; stroke: #000000; stroke-width: 0.8; stroke-linejoin: miter; stroke-linecap: square"/>
   </g>
   <g id="patch_6">
    <path d="M 72 51.84 
L 518.4 51.84 
" style="fill: none; stroke: #000000; stroke-width: 0.8; stroke-linejoin: miter; stroke-linecap: square"/>
   </g>
   <g id="text_14">
    <!-- Clustered-Common -->
    <g transform="translate(237.350625 45.84)scale(0.12 -0.12)">
     <defs>
      <path id="DejaVuSans-6c" d="M 603 4863 
L 1178 4863 
L 1178 0 
L 603 0 
L 603 4863 
z
" transform="scale(0.015625)"/>
      <path id="DejaVuSans-65" d="M 3597 1894 
L 3597 1613 
L 953 1613 
Q 991 1019 1311 708 
Q 1631 397 2203 397 
Q 2534 397 2845 478 
Q 3156 559 3463 722 
L 3463 178 
Q 3153 47 2828 -22 
Q 2503 -91 2169 -91 
Q 1331 -91 842 396 
Q 353 884 353 1716 
Q 353 2575 817 3079 
Q 1281 3584 2069 3584 
Q 2775 3584 3186 3129 
Q 3597 2675 3597 1894 
z
M 3022 2063 
Q 3016 2534 2758 2815 
Q 2500 3097 2075 3097 
Q 1594 3097 1305 2825 
Q 1016 2553 972 2059 
L 3022 2063 
z
" transform="scale(0.015625)"/>
      <path id="DejaVuSans-2d" d="M 313 2009 
L 1997 2009 
L 1997 1497 
L 313 1497 
L 313 2009 
z
" transform="scale(0.015625)"/>
     </defs>
     <use xlink:href="#DejaVuSans-43"/>
     <use xlink:href="#DejaVuSans-6c" x="69.824219"/>
     <use xlink:href="#DejaVuSans-75" x="97.607422"/>
     <use xlink:href="#DejaVuSans-73" x="160.986328"/>
     <use xlink:href="#DejaVuSans-74" x="213.085938"/>
     <use xlink:href="#DejaVuSans-65" x="252.294922"/>
     <use xlink:href="#DejaVuSans-72" x="313.818359"/>
     <use xlink:href="#DejaVuSans-65" x="352.681641"/>
     <use xlink:href="#DejaVuSans-64" x="414.205078"/>
     <use xlink:href="#DejaVuSans-2d" x="477.681641"/>
     <use xlink:href="#DejaVuSans-43" x="513.765625"/>
     <use xlink:href="#DejaVuSans-6f" x="583.589844"/>
     <use xlink:href="#DejaVuSans-6d" x="644.771484"/>
     <use xlink:href="#DejaVuSans-6d" x="742.183594"/>
     <use xlink:href="#DejaVuSans-6f" x="839.595703"/>
     <use xlink:href="#DejaVuSans-6e" x="900.777344"/>
    </g>
   </g>
   <g id="legend_1">
    <g id="patch_7">
     <path d="M 79 118.5525 
L 124.203125 118.5525 
Q 126.203125 118.5525 126.203125 116.5525 
L 126.203125 58.84 
Q 126.203125 56.84 124.203125 56.84 
L 79 56.84 
Q 77 56.84 77 58.84 
L 77 116.5525 
Q 77 118.5525 79 118.5525 
z
" style="fill: #ffffff; opacity: 0.8; stroke: #cccccc; stroke-linejoin: miter"/>
    </g>
    <g id="line2d_27">
     <path d="M 81 64.938438 
L 91 64.938438 
L 101 64.938438 
" style="fill: none; stroke: #1f77b4; stroke-width: 1.5; stroke-linecap: square"/>
    </g>
    <g id="text_15">
     <!-- V1 -->
     <g transform="translate(109 68.438438)scale(0.1 -0.1)">
      <defs>
       <path id="DejaVuSans-56" d="M 1831 0 
L 50 4666 
L 709 4666 
L 2188 738 
L 3669 4666 
L 4325 4666 
L 2547 0 
L 1831 0 
z
" transform="scale(0.015625)"/>
      </defs>
      <use xlink:href="#DejaVuSans-56"/>
      <use xlink:href="#DejaVuSans-31" x="68.408203"/>
     </g>
    </g>
    <g id="line2d_28">
     <path d="M 81 79.616563 
L 91 79.616563 
L 101 79.616563 
" style="fill: none; stroke: #ff7f0e; stroke-width: 1.5; stroke-linecap: square"/>
    </g>
    <g id="text_16">
     <!-- V2 -->
     <g transform="translate(109 83.116563)scale(0.1 -0.1)">
      <use xlink:href="#DejaVuSans-56"/>
      <use xlink:href="#DejaVuSans-32" x="68.408203"/>
     </g>
    </g>
    <g id="line2d_29">
     <path d="M 81 94.294688 
L 91 94.294688 
L 101 94.294688 
" style="fill: none; stroke: #2ca02c; stroke-width: 1.5; stroke-linecap: square"/>
    </g>
    <g id="text_17">
     <!-- V3 -->
     <g transform="translate(109 97.794688)scale(0.1 -0.1)">
      <defs>
       <path id="DejaVuSans-33" d="M 2597 2516 
Q 3050 2419 3304 2112 
Q 3559 1806 3559 1356 
Q 3559 666 3084 287 
Q 2609 -91 1734 -91 
Q 1441 -91 1130 -33 
Q 819 25 488 141 
L 488 750 
Q 750 597 1062 519 
Q 1375 441 1716 441 
Q 2309 441 2620 675 
Q 2931 909 2931 1356 
Q 2931 1769 2642 2001 
Q 2353 2234 1838 2234 
L 1294 2234 
L 1294 2753 
L 1863 2753 
Q 2328 2753 2575 2939 
Q 2822 3125 2822 3475 
Q 2822 3834 2567 4026 
Q 2313 4219 1838 4219 
Q 1578 4219 1281 4162 
Q 984 4106 628 3988 
L 628 4550 
Q 988 4650 1302 4700 
Q 1616 4750 1894 4750 
Q 2613 4750 3031 4423 
Q 3450 4097 3450 3541 
Q 3450 3153 3228 2886 
Q 3006 2619 2597 2516 
z
" transform="scale(0.015625)"/>
      </defs>
      <use xlink:href="#DejaVuSans-56"/>
      <use xlink:href="#DejaVuSans-33" x="68.408203"/>
     </g>
    </g>
    <g id="line2d_30">
     <path d="M 81 108.972813 
L 91 108.972813 
L 101 108.972813 
" style="fill: none; stroke: #d62728; stroke-width: 1.5; stroke-linecap: square"/>
    </g>
    <g id="text_18">
     <!-- V4 -->
     <g transform="translate(109 112.472813)scale(0.1 -0.1)">
      <use xlink:href="#DejaVuSans-56"/>
      <use xlink:href="#DejaVuSans-34" x="68.408203"/>
     </g>
    </g>
   </g>
  </g>
 </g>
 <defs>
  <clipPath id="pb03d2e0d47">
   <rect x="72" y="51.84" width="446.4" height="332.64"/>
  </clipPath>
 </defs>
</svg>
