<?xml version="1.0" encoding="utf-8" standalone="no"?>
<!DOCTYPE svg PUBLIC "-//W3C//DTD SVG 1.1//EN"
  "http://www.w3.org/Graphics/SVG/1.1/DTD/svg11.dtd">
<svg xmlns:xlink="http://www.w3.org/1999/xlink" width="576pt" height="432pt" viewBox="0 0 576 432" xmlns="http://www.w3.org/2000/svg" version="1.1">
 <metadata>
  <rdf:RDF xmlns:dc="http://purl.org/dc/elements/1.1/" xmlns:cc="http://creativecommons.org/ns#" xmlns:rdf="http://www.w3.org/1999/02/22-rdf-syntax-ns#">
   <cc:Work>
    <dc:type rdf:resource="http://purl.org/dc/dcmitype/StillImage"/>
    <dc:date>2023-08-06T22:09:43.544378</dc:date>
    <dc:format>image/svg+xml</dc:format>
    <dc:creator>
     <cc:Agent>
      <dc:title>Matplotlib v3.5.2, https://matplotlib.org/</dc:title>
     </cc:Agent>
    </dc:creator>
   </cc:Work>
  </rdf:RDF>
 </metadata>
 <defs>
  <style type="text/css">*{stroke-linejoin: round; stroke-linecap: butt}</style>
 </defs>
 <g id="figure_1">
  <g id="patch_1">
   <path d="M 0 432 
L 576 432 
L 576 0 
L 0 0 
z
" style="fill: #ffffff"/>
  </g>
  <g id="axes_1">
   <g id="patch_2">
    <path d="M 72 384.48 
L 518.4 384.48 
L 518.4 51.84 
L 72 51.84 
z
" style="fill: #ffffff"/>
   </g>
   <g id="matplotlib.axis_1">
    <g id="xtick_1">
     <g id="line2d_1">
      <path d="M 92.290909 384.48 
L 92.290909 51.84 
" clip-path="url(#pebb653c94b)" style="fill: none; stroke: #b0b0b0; stroke-opacity: 0.5; stroke-width: 0.8; stroke-linecap: square"/>
     </g>
     <g id="line2d_2">
      <defs>
       <path id="m236170cd96" d="M 0 0 
L 0 3.5 
" style="stroke: #000000; stroke-width: 0.8"/>
      </defs>
      <g>
       <use xlink:href="#m236170cd96" x="92.290909" y="384.48" style="stroke: #000000; stroke-width: 0.8"/>
      </g>
     </g>
     <g id="text_1">
      <!-- 0 -->
      <g transform="translate(89.109659 399.078438)scale(0.1 -0.1)">
       <defs>
        <path id="DejaVuSans-30" d="M 2034 4250 
Q 1547 4250 1301 3770 
Q 1056 3291 1056 2328 
Q 1056 1369 1301 889 
Q 1547 409 2034 409 
Q 2525 409 2770 889 
Q 3016 1369 3016 2328 
Q 3016 3291 2770 3770 
Q 2525 4250 2034 4250 
z
M 2034 4750 
Q 2819 4750 3233 4129 
Q 3647 3509 3647 2328 
Q 3647 1150 3233 529 
Q 2819 -91 2034 -91 
Q 1250 -91 836 529 
Q 422 1150 422 2328 
Q 422 3509 836 4129 
Q 1250 4750 2034 4750 
z
" transform="scale(0.015625)"/>
       </defs>
       <use xlink:href="#DejaVuSans-30"/>
      </g>
     </g>
    </g>
    <g id="xtick_2">
     <g id="line2d_3">
      <path d="M 143.018182 384.48 
L 143.018182 51.84 
" clip-path="url(#pebb653c94b)" style="fill: none; stroke: #b0b0b0; stroke-opacity: 0.5; stroke-width: 0.8; stroke-linecap: square"/>
     </g>
     <g id="line2d_4">
      <g>
       <use xlink:href="#m236170cd96" x="143.018182" y="384.48" style="stroke: #000000; stroke-width: 0.8"/>
      </g>
     </g>
     <g id="text_2">
      <!-- 25 -->
      <g transform="translate(136.655682 399.078438)scale(0.1 -0.1)">
       <defs>
        <path id="DejaVuSans-32" d="M 1228 531 
L 3431 531 
L 3431 0 
L 469 0 
L 469 531 
Q 828 903 1448 1529 
Q 2069 2156 2228 2338 
Q 2531 2678 2651 2914 
Q 2772 3150 2772 3378 
Q 2772 3750 2511 3984 
Q 2250 4219 1831 4219 
Q 1534 4219 1204 4116 
Q 875 4013 500 3803 
L 500 4441 
Q 881 4594 1212 4672 
Q 1544 4750 1819 4750 
Q 2544 4750 2975 4387 
Q 3406 4025 3406 3419 
Q 3406 3131 3298 2873 
Q 3191 2616 2906 2266 
Q 2828 2175 2409 1742 
Q 1991 1309 1228 531 
z
" transform="scale(0.015625)"/>
        <path id="DejaVuSans-35" d="M 691 4666 
L 3169 4666 
L 3169 4134 
L 1269 4134 
L 1269 2991 
Q 1406 3038 1543 3061 
Q 1681 3084 1819 3084 
Q 2600 3084 3056 2656 
Q 3513 2228 3513 1497 
Q 3513 744 3044 326 
Q 2575 -91 1722 -91 
Q 1428 -91 1123 -41 
Q 819 9 494 109 
L 494 744 
Q 775 591 1075 516 
Q 1375 441 1709 441 
Q 2250 441 2565 725 
Q 2881 1009 2881 1497 
Q 2881 1984 2565 2268 
Q 2250 2553 1709 2553 
Q 1456 2553 1204 2497 
Q 953 2441 691 2322 
L 691 4666 
z
" transform="scale(0.015625)"/>
       </defs>
       <use xlink:href="#DejaVuSans-32"/>
       <use xlink:href="#DejaVuSans-35" x="63.623047"/>
      </g>
     </g>
    </g>
    <g id="xtick_3">
     <g id="line2d_5">
      <path d="M 193.745455 384.48 
L 193.745455 51.84 
" clip-path="url(#pebb653c94b)" style="fill: none; stroke: #b0b0b0; stroke-opacity: 0.5; stroke-width: 0.8; stroke-linecap: square"/>
     </g>
     <g id="line2d_6">
      <g>
       <use xlink:href="#m236170cd96" x="193.745455" y="384.48" style="stroke: #000000; stroke-width: 0.8"/>
      </g>
     </g>
     <g id="text_3">
      <!-- 50 -->
      <g transform="translate(187.382955 399.078438)scale(0.1 -0.1)">
       <use xlink:href="#DejaVuSans-35"/>
       <use xlink:href="#DejaVuSans-30" x="63.623047"/>
      </g>
     </g>
    </g>
    <g id="xtick_4">
     <g id="line2d_7">
      <path d="M 244.472727 384.48 
L 244.472727 51.84 
" clip-path="url(#pebb653c94b)" style="fill: none; stroke: #b0b0b0; stroke-opacity: 0.5; stroke-width: 0.8; stroke-linecap: square"/>
     </g>
     <g id="line2d_8">
      <g>
       <use xlink:href="#m236170cd96" x="244.472727" y="384.48" style="stroke: #000000; stroke-width: 0.8"/>
      </g>
     </g>
     <g id="text_4">
      <!-- 75 -->
      <g transform="translate(238.110227 399.078438)scale(0.1 -0.1)">
       <defs>
        <path id="DejaVuSans-37" d="M 525 4666 
L 3525 4666 
L 3525 4397 
L 1831 0 
L 1172 0 
L 2766 4134 
L 525 4134 
L 525 4666 
z
" transform="scale(0.015625)"/>
       </defs>
       <use xlink:href="#DejaVuSans-37"/>
       <use xlink:href="#DejaVuSans-35" x="63.623047"/>
      </g>
     </g>
    </g>
    <g id="xtick_5">
     <g id="line2d_9">
      <path d="M 295.2 384.48 
L 295.2 51.84 
" clip-path="url(#pebb653c94b)" style="fill: none; stroke: #b0b0b0; stroke-opacity: 0.5; stroke-width: 0.8; stroke-linecap: square"/>
     </g>
     <g id="line2d_10">
      <g>
       <use xlink:href="#m236170cd96" x="295.2" y="384.48" style="stroke: #000000; stroke-width: 0.8"/>
      </g>
     </g>
     <g id="text_5">
      <!-- 100 -->
      <g transform="translate(285.65625 399.078438)scale(0.1 -0.1)">
       <defs>
        <path id="DejaVuSans-31" d="M 794 531 
L 1825 531 
L 1825 4091 
L 703 3866 
L 703 4441 
L 1819 4666 
L 2450 4666 
L 2450 531 
L 3481 531 
L 3481 0 
L 794 0 
L 794 531 
z
" transform="scale(0.015625)"/>
       </defs>
       <use xlink:href="#DejaVuSans-31"/>
       <use xlink:href="#DejaVuSans-30" x="63.623047"/>
       <use xlink:href="#DejaVuSans-30" x="127.246094"/>
      </g>
     </g>
    </g>
    <g id="xtick_6">
     <g id="line2d_11">
      <path d="M 345.927273 384.48 
L 345.927273 51.84 
" clip-path="url(#pebb653c94b)" style="fill: none; stroke: #b0b0b0; stroke-opacity: 0.5; stroke-width: 0.8; stroke-linecap: square"/>
     </g>
     <g id="line2d_12">
      <g>
       <use xlink:href="#m236170cd96" x="345.927273" y="384.48" style="stroke: #000000; stroke-width: 0.8"/>
      </g>
     </g>
     <g id="text_6">
      <!-- 125 -->
      <g transform="translate(336.383523 399.078438)scale(0.1 -0.1)">
       <use xlink:href="#DejaVuSans-31"/>
       <use xlink:href="#DejaVuSans-32" x="63.623047"/>
       <use xlink:href="#DejaVuSans-35" x="127.246094"/>
      </g>
     </g>
    </g>
    <g id="xtick_7">
     <g id="line2d_13">
      <path d="M 396.654545 384.48 
L 396.654545 51.84 
" clip-path="url(#pebb653c94b)" style="fill: none; stroke: #b0b0b0; stroke-opacity: 0.5; stroke-width: 0.8; stroke-linecap: square"/>
     </g>
     <g id="line2d_14">
      <g>
       <use xlink:href="#m236170cd96" x="396.654545" y="384.48" style="stroke: #000000; stroke-width: 0.8"/>
      </g>
     </g>
     <g id="text_7">
      <!-- 150 -->
      <g transform="translate(387.110795 399.078438)scale(0.1 -0.1)">
       <use xlink:href="#DejaVuSans-31"/>
       <use xlink:href="#DejaVuSans-35" x="63.623047"/>
       <use xlink:href="#DejaVuSans-30" x="127.246094"/>
      </g>
     </g>
    </g>
    <g id="xtick_8">
     <g id="line2d_15">
      <path d="M 447.381818 384.48 
L 447.381818 51.84 
" clip-path="url(#pebb653c94b)" style="fill: none; stroke: #b0b0b0; stroke-opacity: 0.5; stroke-width: 0.8; stroke-linecap: square"/>
     </g>
     <g id="line2d_16">
      <g>
       <use xlink:href="#m236170cd96" x="447.381818" y="384.48" style="stroke: #000000; stroke-width: 0.8"/>
      </g>
     </g>
     <g id="text_8">
      <!-- 175 -->
      <g transform="translate(437.838068 399.078438)scale(0.1 -0.1)">
       <use xlink:href="#DejaVuSans-31"/>
       <use xlink:href="#DejaVuSans-37" x="63.623047"/>
       <use xlink:href="#DejaVuSans-35" x="127.246094"/>
      </g>
     </g>
    </g>
    <g id="xtick_9">
     <g id="line2d_17">
      <path d="M 498.109091 384.48 
L 498.109091 51.84 
" clip-path="url(#pebb653c94b)" style="fill: none; stroke: #b0b0b0; stroke-opacity: 0.5; stroke-width: 0.8; stroke-linecap: square"/>
     </g>
     <g id="line2d_18">
      <g>
       <use xlink:href="#m236170cd96" x="498.109091" y="384.48" style="stroke: #000000; stroke-width: 0.8"/>
      </g>
     </g>
     <g id="text_9">
      <!-- 200 -->
      <g transform="translate(488.565341 399.078438)scale(0.1 -0.1)">
       <use xlink:href="#DejaVuSans-32"/>
       <use xlink:href="#DejaVuSans-30" x="63.623047"/>
       <use xlink:href="#DejaVuSans-30" x="127.246094"/>
      </g>
     </g>
    </g>
    <g id="text_10">
     <!-- Communication rounds -->
     <g transform="translate(237.083594 412.756563)scale(0.1 -0.1)">
      <defs>
       <path id="DejaVuSans-43" d="M 4122 4306 
L 4122 3641 
Q 3803 3938 3442 4084 
Q 3081 4231 2675 4231 
Q 1875 4231 1450 3742 
Q 1025 3253 1025 2328 
Q 1025 1406 1450 917 
Q 1875 428 2675 428 
Q 3081 428 3442 575 
Q 3803 722 4122 1019 
L 4122 359 
Q 3791 134 3420 21 
Q 3050 -91 2638 -91 
Q 1578 -91 968 557 
Q 359 1206 359 2328 
Q 359 3453 968 4101 
Q 1578 4750 2638 4750 
Q 3056 4750 3426 4639 
Q 3797 4528 4122 4306 
z
" transform="scale(0.015625)"/>
       <path id="DejaVuSans-6f" d="M 1959 3097 
Q 1497 3097 1228 2736 
Q 959 2375 959 1747 
Q 959 1119 1226 758 
Q 1494 397 1959 397 
Q 2419 397 2687 759 
Q 2956 1122 2956 1747 
Q 2956 2369 2687 2733 
Q 2419 3097 1959 3097 
z
M 1959 3584 
Q 2709 3584 3137 3096 
Q 3566 2609 3566 1747 
Q 3566 888 3137 398 
Q 2709 -91 1959 -91 
Q 1206 -91 779 398 
Q 353 888 353 1747 
Q 353 2609 779 3096 
Q 1206 3584 1959 3584 
z
" transform="scale(0.015625)"/>
       <path id="DejaVuSans-6d" d="M 3328 2828 
Q 3544 3216 3844 3400 
Q 4144 3584 4550 3584 
Q 5097 3584 5394 3201 
Q 5691 2819 5691 2113 
L 5691 0 
L 5113 0 
L 5113 2094 
Q 5113 2597 4934 2840 
Q 4756 3084 4391 3084 
Q 3944 3084 3684 2787 
Q 3425 2491 3425 1978 
L 3425 0 
L 2847 0 
L 2847 2094 
Q 2847 2600 2669 2842 
Q 2491 3084 2119 3084 
Q 1678 3084 1418 2786 
Q 1159 2488 1159 1978 
L 1159 0 
L 581 0 
L 581 3500 
L 1159 3500 
L 1159 2956 
Q 1356 3278 1631 3431 
Q 1906 3584 2284 3584 
Q 2666 3584 2933 3390 
Q 3200 3197 3328 2828 
z
" transform="scale(0.015625)"/>
       <path id="DejaVuSans-75" d="M 544 1381 
L 544 3500 
L 1119 3500 
L 1119 1403 
Q 1119 906 1312 657 
Q 1506 409 1894 409 
Q 2359 409 2629 706 
Q 2900 1003 2900 1516 
L 2900 3500 
L 3475 3500 
L 3475 0 
L 2900 0 
L 2900 538 
Q 2691 219 2414 64 
Q 2138 -91 1772 -91 
Q 1169 -91 856 284 
Q 544 659 544 1381 
z
M 1991 3584 
L 1991 3584 
z
" transform="scale(0.015625)"/>
       <path id="DejaVuSans-6e" d="M 3513 2113 
L 3513 0 
L 2938 0 
L 2938 2094 
Q 2938 2591 2744 2837 
Q 2550 3084 2163 3084 
Q 1697 3084 1428 2787 
Q 1159 2491 1159 1978 
L 1159 0 
L 581 0 
L 581 3500 
L 1159 3500 
L 1159 2956 
Q 1366 3272 1645 3428 
Q 1925 3584 2291 3584 
Q 2894 3584 3203 3211 
Q 3513 2838 3513 2113 
z
" transform="scale(0.015625)"/>
       <path id="DejaVuSans-69" d="M 603 3500 
L 1178 3500 
L 1178 0 
L 603 0 
L 603 3500 
z
M 603 4863 
L 1178 4863 
L 1178 4134 
L 603 4134 
L 603 4863 
z
" transform="scale(0.015625)"/>
       <path id="DejaVuSans-63" d="M 3122 3366 
L 3122 2828 
Q 2878 2963 2633 3030 
Q 2388 3097 2138 3097 
Q 1578 3097 1268 2742 
Q 959 2388 959 1747 
Q 959 1106 1268 751 
Q 1578 397 2138 397 
Q 2388 397 2633 464 
Q 2878 531 3122 666 
L 3122 134 
Q 2881 22 2623 -34 
Q 2366 -91 2075 -91 
Q 1284 -91 818 406 
Q 353 903 353 1747 
Q 353 2603 823 3093 
Q 1294 3584 2113 3584 
Q 2378 3584 2631 3529 
Q 2884 3475 3122 3366 
z
" transform="scale(0.015625)"/>
       <path id="DejaVuSans-61" d="M 2194 1759 
Q 1497 1759 1228 1600 
Q 959 1441 959 1056 
Q 959 750 1161 570 
Q 1363 391 1709 391 
Q 2188 391 2477 730 
Q 2766 1069 2766 1631 
L 2766 1759 
L 2194 1759 
z
M 3341 1997 
L 3341 0 
L 2766 0 
L 2766 531 
Q 2569 213 2275 61 
Q 1981 -91 1556 -91 
Q 1019 -91 701 211 
Q 384 513 384 1019 
Q 384 1609 779 1909 
Q 1175 2209 1959 2209 
L 2766 2209 
L 2766 2266 
Q 2766 2663 2505 2880 
Q 2244 3097 1772 3097 
Q 1472 3097 1187 3025 
Q 903 2953 641 2809 
L 641 3341 
Q 956 3463 1253 3523 
Q 1550 3584 1831 3584 
Q 2591 3584 2966 3190 
Q 3341 2797 3341 1997 
z
" transform="scale(0.015625)"/>
       <path id="DejaVuSans-74" d="M 1172 4494 
L 1172 3500 
L 2356 3500 
L 2356 3053 
L 1172 3053 
L 1172 1153 
Q 1172 725 1289 603 
Q 1406 481 1766 481 
L 2356 481 
L 2356 0 
L 1766 0 
Q 1100 0 847 248 
Q 594 497 594 1153 
L 594 3053 
L 172 3053 
L 172 3500 
L 594 3500 
L 594 4494 
L 1172 4494 
z
" transform="scale(0.015625)"/>
       <path id="DejaVuSans-20" transform="scale(0.015625)"/>
       <path id="DejaVuSans-72" d="M 2631 2963 
Q 2534 3019 2420 3045 
Q 2306 3072 2169 3072 
Q 1681 3072 1420 2755 
Q 1159 2438 1159 1844 
L 1159 0 
L 581 0 
L 581 3500 
L 1159 3500 
L 1159 2956 
Q 1341 3275 1631 3429 
Q 1922 3584 2338 3584 
Q 2397 3584 2469 3576 
Q 2541 3569 2628 3553 
L 2631 2963 
z
" transform="scale(0.015625)"/>
       <path id="DejaVuSans-64" d="M 2906 2969 
L 2906 4863 
L 3481 4863 
L 3481 0 
L 2906 0 
L 2906 525 
Q 2725 213 2448 61 
Q 2172 -91 1784 -91 
Q 1150 -91 751 415 
Q 353 922 353 1747 
Q 353 2572 751 3078 
Q 1150 3584 1784 3584 
Q 2172 3584 2448 3432 
Q 2725 3281 2906 2969 
z
M 947 1747 
Q 947 1113 1208 752 
Q 1469 391 1925 391 
Q 2381 391 2643 752 
Q 2906 1113 2906 1747 
Q 2906 2381 2643 2742 
Q 2381 3103 1925 3103 
Q 1469 3103 1208 2742 
Q 947 2381 947 1747 
z
" transform="scale(0.015625)"/>
       <path id="DejaVuSans-73" d="M 2834 3397 
L 2834 2853 
Q 2591 2978 2328 3040 
Q 2066 3103 1784 3103 
Q 1356 3103 1142 2972 
Q 928 2841 928 2578 
Q 928 2378 1081 2264 
Q 1234 2150 1697 2047 
L 1894 2003 
Q 2506 1872 2764 1633 
Q 3022 1394 3022 966 
Q 3022 478 2636 193 
Q 2250 -91 1575 -91 
Q 1294 -91 989 -36 
Q 684 19 347 128 
L 347 722 
Q 666 556 975 473 
Q 1284 391 1588 391 
Q 1994 391 2212 530 
Q 2431 669 2431 922 
Q 2431 1156 2273 1281 
Q 2116 1406 1581 1522 
L 1381 1569 
Q 847 1681 609 1914 
Q 372 2147 372 2553 
Q 372 3047 722 3315 
Q 1072 3584 1716 3584 
Q 2034 3584 2315 3537 
Q 2597 3491 2834 3397 
z
" transform="scale(0.015625)"/>
      </defs>
      <use xlink:href="#DejaVuSans-43"/>
      <use xlink:href="#DejaVuSans-6f" x="69.824219"/>
      <use xlink:href="#DejaVuSans-6d" x="131.005859"/>
      <use xlink:href="#DejaVuSans-6d" x="228.417969"/>
      <use xlink:href="#DejaVuSans-75" x="325.830078"/>
      <use xlink:href="#DejaVuSans-6e" x="389.208984"/>
      <use xlink:href="#DejaVuSans-69" x="452.587891"/>
      <use xlink:href="#DejaVuSans-63" x="480.371094"/>
      <use xlink:href="#DejaVuSans-61" x="535.351562"/>
      <use xlink:href="#DejaVuSans-74" x="596.630859"/>
      <use xlink:href="#DejaVuSans-69" x="635.839844"/>
      <use xlink:href="#DejaVuSans-6f" x="663.623047"/>
      <use xlink:href="#DejaVuSans-6e" x="724.804688"/>
      <use xlink:href="#DejaVuSans-20" x="788.183594"/>
      <use xlink:href="#DejaVuSans-72" x="819.970703"/>
      <use xlink:href="#DejaVuSans-6f" x="858.833984"/>
      <use xlink:href="#DejaVuSans-75" x="920.015625"/>
      <use xlink:href="#DejaVuSans-6e" x="983.394531"/>
      <use xlink:href="#DejaVuSans-64" x="1046.773438"/>
      <use xlink:href="#DejaVuSans-73" x="1110.25"/>
     </g>
    </g>
   </g>
   <g id="matplotlib.axis_2">
    <g id="ytick_1">
     <g id="line2d_19">
      <path d="M 72 316.828598 
L 518.4 316.828598 
" clip-path="url(#pebb653c94b)" style="fill: none; stroke: #b0b0b0; stroke-opacity: 0.5; stroke-width: 0.8; stroke-linecap: square"/>
     </g>
     <g id="line2d_20">
      <defs>
       <path id="m3484acd6d9" d="M 0 0 
L -3.5 0 
" style="stroke: #000000; stroke-width: 0.8"/>
      </defs>
      <g>
       <use xlink:href="#m3484acd6d9" x="72" y="316.828598" style="stroke: #000000; stroke-width: 0.8"/>
      </g>
     </g>
     <g id="text_11">
      <!-- 0.2 -->
      <g transform="translate(49.096875 320.627817)scale(0.1 -0.1)">
       <defs>
        <path id="DejaVuSans-2e" d="M 684 794 
L 1344 794 
L 1344 0 
L 684 0 
L 684 794 
z
" transform="scale(0.015625)"/>
       </defs>
       <use xlink:href="#DejaVuSans-30"/>
       <use xlink:href="#DejaVuSans-2e" x="63.623047"/>
       <use xlink:href="#DejaVuSans-32" x="95.410156"/>
      </g>
     </g>
    </g>
    <g id="ytick_2">
     <g id="line2d_21">
      <path d="M 72 246.174393 
L 518.4 246.174393 
" clip-path="url(#pebb653c94b)" style="fill: none; stroke: #b0b0b0; stroke-opacity: 0.5; stroke-width: 0.8; stroke-linecap: square"/>
     </g>
     <g id="line2d_22">
      <g>
       <use xlink:href="#m3484acd6d9" x="72" y="246.174393" style="stroke: #000000; stroke-width: 0.8"/>
      </g>
     </g>
     <g id="text_12">
      <!-- 0.4 -->
      <g transform="translate(49.096875 249.973611)scale(0.1 -0.1)">
       <defs>
        <path id="DejaVuSans-34" d="M 2419 4116 
L 825 1625 
L 2419 1625 
L 2419 4116 
z
M 2253 4666 
L 3047 4666 
L 3047 1625 
L 3713 1625 
L 3713 1100 
L 3047 1100 
L 3047 0 
L 2419 0 
L 2419 1100 
L 313 1100 
L 313 1709 
L 2253 4666 
z
" transform="scale(0.015625)"/>
       </defs>
       <use xlink:href="#DejaVuSans-30"/>
       <use xlink:href="#DejaVuSans-2e" x="63.623047"/>
       <use xlink:href="#DejaVuSans-34" x="95.410156"/>
      </g>
     </g>
    </g>
    <g id="ytick_3">
     <g id="line2d_23">
      <path d="M 72 175.520187 
L 518.4 175.520187 
" clip-path="url(#pebb653c94b)" style="fill: none; stroke: #b0b0b0; stroke-opacity: 0.5; stroke-width: 0.8; stroke-linecap: square"/>
     </g>
     <g id="line2d_24">
      <g>
       <use xlink:href="#m3484acd6d9" x="72" y="175.520187" style="stroke: #000000; stroke-width: 0.8"/>
      </g>
     </g>
     <g id="text_13">
      <!-- 0.6 -->
      <g transform="translate(49.096875 179.319406)scale(0.1 -0.1)">
       <defs>
        <path id="DejaVuSans-36" d="M 2113 2584 
Q 1688 2584 1439 2293 
Q 1191 2003 1191 1497 
Q 1191 994 1439 701 
Q 1688 409 2113 409 
Q 2538 409 2786 701 
Q 3034 994 3034 1497 
Q 3034 2003 2786 2293 
Q 2538 2584 2113 2584 
z
M 3366 4563 
L 3366 3988 
Q 3128 4100 2886 4159 
Q 2644 4219 2406 4219 
Q 1781 4219 1451 3797 
Q 1122 3375 1075 2522 
Q 1259 2794 1537 2939 
Q 1816 3084 2150 3084 
Q 2853 3084 3261 2657 
Q 3669 2231 3669 1497 
Q 3669 778 3244 343 
Q 2819 -91 2113 -91 
Q 1303 -91 875 529 
Q 447 1150 447 2328 
Q 447 3434 972 4092 
Q 1497 4750 2381 4750 
Q 2619 4750 2861 4703 
Q 3103 4656 3366 4563 
z
" transform="scale(0.015625)"/>
       </defs>
       <use xlink:href="#DejaVuSans-30"/>
       <use xlink:href="#DejaVuSans-2e" x="63.623047"/>
       <use xlink:href="#DejaVuSans-36" x="95.410156"/>
      </g>
     </g>
    </g>
    <g id="ytick_4">
     <g id="line2d_25">
      <path d="M 72 104.865981 
L 518.4 104.865981 
" clip-path="url(#pebb653c94b)" style="fill: none; stroke: #b0b0b0; stroke-opacity: 0.5; stroke-width: 0.8; stroke-linecap: square"/>
     </g>
     <g id="line2d_26">
      <g>
       <use xlink:href="#m3484acd6d9" x="72" y="104.865981" style="stroke: #000000; stroke-width: 0.8"/>
      </g>
     </g>
     <g id="text_14">
      <!-- 0.8 -->
      <g transform="translate(49.096875 108.6652)scale(0.1 -0.1)">
       <defs>
        <path id="DejaVuSans-38" d="M 2034 2216 
Q 1584 2216 1326 1975 
Q 1069 1734 1069 1313 
Q 1069 891 1326 650 
Q 1584 409 2034 409 
Q 2484 409 2743 651 
Q 3003 894 3003 1313 
Q 3003 1734 2745 1975 
Q 2488 2216 2034 2216 
z
M 1403 2484 
Q 997 2584 770 2862 
Q 544 3141 544 3541 
Q 544 4100 942 4425 
Q 1341 4750 2034 4750 
Q 2731 4750 3128 4425 
Q 3525 4100 3525 3541 
Q 3525 3141 3298 2862 
Q 3072 2584 2669 2484 
Q 3125 2378 3379 2068 
Q 3634 1759 3634 1313 
Q 3634 634 3220 271 
Q 2806 -91 2034 -91 
Q 1263 -91 848 271 
Q 434 634 434 1313 
Q 434 1759 690 2068 
Q 947 2378 1403 2484 
z
M 1172 3481 
Q 1172 3119 1398 2916 
Q 1625 2713 2034 2713 
Q 2441 2713 2670 2916 
Q 2900 3119 2900 3481 
Q 2900 3844 2670 4047 
Q 2441 4250 2034 4250 
Q 1625 4250 1398 4047 
Q 1172 3844 1172 3481 
z
" transform="scale(0.015625)"/>
       </defs>
       <use xlink:href="#DejaVuSans-30"/>
       <use xlink:href="#DejaVuSans-2e" x="63.623047"/>
       <use xlink:href="#DejaVuSans-38" x="95.410156"/>
      </g>
     </g>
    </g>
    <g id="text_15">
     <!-- Accuracy -->
     <g transform="translate(43.017187 240.988125)rotate(-90)scale(0.1 -0.1)">
      <defs>
       <path id="DejaVuSans-41" d="M 2188 4044 
L 1331 1722 
L 3047 1722 
L 2188 4044 
z
M 1831 4666 
L 2547 4666 
L 4325 0 
L 3669 0 
L 3244 1197 
L 1141 1197 
L 716 0 
L 50 0 
L 1831 4666 
z
" transform="scale(0.015625)"/>
       <path id="DejaVuSans-79" d="M 2059 -325 
Q 1816 -950 1584 -1140 
Q 1353 -1331 966 -1331 
L 506 -1331 
L 506 -850 
L 844 -850 
Q 1081 -850 1212 -737 
Q 1344 -625 1503 -206 
L 1606 56 
L 191 3500 
L 800 3500 
L 1894 763 
L 2988 3500 
L 3597 3500 
L 2059 -325 
z
" transform="scale(0.015625)"/>
      </defs>
      <use xlink:href="#DejaVuSans-41"/>
      <use xlink:href="#DejaVuSans-63" x="66.658203"/>
      <use xlink:href="#DejaVuSans-63" x="121.638672"/>
      <use xlink:href="#DejaVuSans-75" x="176.619141"/>
      <use xlink:href="#DejaVuSans-72" x="239.998047"/>
      <use xlink:href="#DejaVuSans-61" x="281.111328"/>
      <use xlink:href="#DejaVuSans-63" x="342.390625"/>
      <use xlink:href="#DejaVuSans-79" x="397.371094"/>
     </g>
    </g>
   </g>
   <g id="line2d_27">
    <path d="M 92.290909 366.074579 
L 94.32 359.786355 
L 96.349091 349.294206 
L 98.378182 343.394579 
L 100.407273 340.109159 
L 102.436364 326.755514 
L 104.465455 315.627477 
L 108.523636 296.232897 
L 112.581818 268.501121 
L 114.610909 256.701869 
L 116.64 253.204486 
L 118.669091 235.328972 
L 120.698182 216.287664 
L 122.727273 216.287664 
L 124.756364 193.395701 
L 126.785455 182.479626 
L 128.814545 178.982243 
L 130.843636 163.261682 
L 132.872727 159.305047 
L 134.901818 151.003178 
L 136.930909 138.815327 
L 138.96 144.255701 
L 140.989091 137.260935 
L 143.018182 133.127664 
L 145.047273 136.413084 
L 147.076364 122.635514 
L 149.105455 121.116449 
L 151.134545 113.485794 
L 153.163636 118.254953 
L 155.192727 120.480561 
L 157.221818 108.469346 
L 159.250909 115.00486 
L 161.28 108.222056 
L 163.309091 105.819813 
L 165.338182 103.66486 
L 167.367273 104.51271 
L 169.396364 112.178692 
L 171.425455 100.591402 
L 173.454545 94.26785 
L 175.483636 95.786916 
L 177.512727 97.517944 
L 179.541818 99.955514 
L 181.570909 98.189159 
L 183.6 99.037009 
L 185.629091 96.458131 
L 187.658182 96.634766 
L 189.687273 94.479813 
L 191.716364 100.13215 
L 193.745455 95.539626 
L 195.774545 97.094019 
L 197.803636 92.713458 
L 199.832727 96.210841 
L 201.861818 91.194393 
L 203.890909 89.039439 
L 205.92 95.786916 
L 207.949091 91.441682 
L 209.978182 101.898505 
L 212.007273 92.07757 
L 214.036364 92.07757 
L 216.065455 101.686542 
L 218.094545 85.082804 
L 220.123636 92.713458 
L 222.152727 89.675327 
L 224.181818 87.944299 
L 226.210909 89.039439 
L 228.24 89.463364 
L 230.269091 82.009346 
L 232.298182 87.485047 
L 234.327273 87.485047 
L 236.356364 89.039439 
L 238.385455 87.697009 
L 240.414545 84.658879 
L 242.443636 87.944299 
L 244.472727 89.039439 
L 246.501818 101.898505 
L 248.530909 86.177944 
L 250.56 87.485047 
L 252.589091 90.346542 
L 254.618182 85.294766 
L 256.647273 96.634766 
L 258.676364 84.870841 
L 260.705455 82.92785 
L 262.734545 92.960748 
L 264.763636 82.468598 
L 266.792727 84.411589 
L 270.850909 83.987664 
L 272.88 88.79215 
L 274.909091 80.278318 
L 276.938182 82.892523 
L 278.967273 88.332897 
L 280.996364 78.54729 
L 283.025455 82.468598 
L 285.054545 87.485047 
L 287.083636 80.066355 
L 289.112727 83.104486 
L 291.141818 83.775701 
L 293.170909 80.278318 
L 295.2 83.775701 
L 297.229091 78.971215 
L 299.258182 85.930654 
L 301.287273 82.044673 
L 303.316364 90.134579 
L 305.345455 87.944299 
L 307.374545 86.601869 
L 309.403636 88.120935 
L 311.432727 77.911402 
L 313.461818 75.897757 
L 315.490909 81.797383 
L 317.52 77.45215 
L 319.549091 77.028224 
L 321.578182 84.199626 
L 323.607273 78.971215 
L 325.636364 81.797383 
L 327.665455 82.892523 
L 329.694545 79.430467 
L 331.723636 79.430467 
L 333.752727 78.335327 
L 335.781818 82.256636 
L 337.810909 81.161495 
L 339.84 78.759252 
L 341.869091 83.104486 
L 343.898182 83.316449 
L 345.927273 76.568972 
L 347.956364 78.088037 
L 349.985455 79.183178 
L 352.014545 79.854393 
L 354.043636 96.210841 
L 356.072727 92.748785 
L 358.101818 80.73757 
L 360.130909 80.066355 
L 362.16 82.680561 
L 364.189091 73.919439 
L 366.218182 76.992897 
L 370.276364 82.468598 
L 372.305455 77.664112 
L 374.334545 73.954766 
L 376.363636 85.754019 
L 378.392727 85.082804 
L 380.421818 75.261869 
L 382.450909 74.590654 
L 384.48 76.992897 
L 386.509091 78.335327 
L 388.538182 81.161495 
L 390.567273 85.754019 
L 392.596364 76.357009 
L 394.625455 82.009346 
L 396.654545 75.261869 
L 398.683636 81.83271 
L 400.712727 78.511963 
L 402.741818 84.234953 
L 404.770909 83.351776 
L 406.8 82.044673 
L 408.829091 83.563738 
L 410.858182 78.759252 
L 412.887273 84.411589 
L 414.916364 84.870841 
L 416.945455 78.088037 
L 418.974545 79.607103 
L 421.003636 74.166729 
L 423.032727 75.685794 
L 425.061818 77.876075 
L 427.090909 73.071589 
L 429.12 79.183178 
L 431.149091 74.802617 
L 433.178182 76.992897 
L 435.207273 77.028224 
L 437.236364 76.568972 
L 439.265455 79.430467 
L 441.294545 75.897757 
L 443.323636 78.335327 
L 445.352727 73.530841 
L 447.381818 74.378692 
L 449.410909 79.430467 
L 451.44 76.321682 
L 453.469091 79.183178 
L 455.498182 76.357009 
L 457.527273 80.73757 
L 459.556364 76.145047 
L 461.585455 78.54729 
L 463.614545 76.992897 
L 465.643636 81.373458 
L 467.672727 75.897757 
L 469.701818 78.335327 
L 471.730909 78.971215 
L 473.76 78.971215 
L 475.789091 76.992897 
L 477.818182 76.568972 
L 479.847273 80.278318 
L 481.876364 76.145047 
L 483.905455 76.357009 
L 485.934545 77.240187 
L 487.963636 81.373458 
L 489.992727 90.770467 
L 492.021818 78.54729 
L 494.050909 73.318879 
L 496.08 77.664112 
L 498.109091 76.992897 
L 498.109091 76.992897 
" clip-path="url(#pebb653c94b)" style="fill: none; stroke: #1f77b4; stroke-width: 1.5; stroke-linecap: square"/>
   </g>
   <g id="line2d_28">
    <path d="M 92.290909 362.365234 
L 94.32 364.555514 
L 96.349091 353.215514 
L 98.378182 343.606542 
L 102.436364 321.986355 
L 104.465455 317.817757 
L 106.494545 297.080748 
L 108.523636 285.10486 
L 110.552727 286.623925 
L 112.581818 265.003738 
L 114.610909 252.321308 
L 116.64 246.845607 
L 118.669091 237.06 
L 120.698182 221.127477 
L 122.727273 210.84729 
L 124.756364 203.004673 
L 126.785455 178.982243 
L 128.814545 186.612897 
L 130.843636 160.188224 
L 132.872727 164.99271 
L 134.901818 153.440748 
L 136.930909 147.117196 
L 138.96 137.472897 
L 140.989091 138.78 
L 143.018182 127.016075 
L 145.047273 129.418318 
L 147.076364 122.670841 
L 149.105455 126.34486 
L 151.134545 119.350093 
L 153.163636 110.412336 
L 155.192727 106.491028 
L 157.221818 107.586168 
L 159.250909 103.452897 
L 161.28 114.580935 
L 163.309091 110.624299 
L 165.338182 108.257383 
L 167.367273 101.474579 
L 169.396364 101.262617 
L 171.425455 99.920187 
L 173.454545 97.305981 
L 175.483636 99.955514 
L 177.512727 100.13215 
L 179.541818 95.786916 
L 181.570909 94.055888 
L 183.6 93.808598 
L 185.629091 90.558505 
L 187.658182 98.825047 
L 191.716364 88.79215 
L 193.745455 91.618318 
L 195.774545 92.289533 
L 197.803636 89.004112 
L 199.832727 89.039439 
L 201.861818 91.194393 
L 203.890909 90.947103 
L 205.92 92.713458 
L 207.949091 87.273084 
L 209.978182 86.601869 
L 212.007273 89.428037 
L 214.036364 91.83028 
L 216.065455 81.161495 
L 218.094545 87.485047 
L 220.123636 87.732336 
L 222.152727 81.373458 
L 224.181818 88.332897 
L 226.210909 88.368224 
L 228.24 88.156262 
L 230.269091 83.563738 
L 234.327273 82.256636 
L 236.356364 78.971215 
L 238.385455 89.675327 
L 240.414545 95.115701 
L 242.443636 92.07757 
L 244.472727 83.104486 
L 246.501818 82.256636 
L 248.530909 80.066355 
L 250.56 86.601869 
L 252.589091 84.870841 
L 254.618182 75.897757 
L 256.647273 91.865607 
L 258.676364 81.797383 
L 260.705455 85.118131 
L 262.734545 85.082804 
L 266.792727 77.45215 
L 268.821818 82.468598 
L 270.850909 80.066355 
L 272.88 81.161495 
L 274.909091 83.775701 
L 276.938182 86.813832 
L 278.967273 79.430467 
L 280.996364 79.183178 
L 283.025455 76.780935 
L 285.054545 76.10972 
L 287.083636 76.357009 
L 289.112727 77.240187 
L 291.141818 78.759252 
L 293.170909 82.715888 
L 295.2 78.088037 
L 297.229091 80.702243 
L 299.258182 73.495514 
L 301.287273 77.664112 
L 303.316364 79.819065 
L 305.345455 71.305234 
L 307.374545 75.721121 
L 309.403636 73.742804 
L 311.432727 87.908972 
L 313.461818 76.145047 
L 315.490909 75.685794 
L 317.52 78.723925 
L 319.549091 76.145047 
L 321.578182 78.3 
L 323.607273 71.552523 
L 325.636364 78.088037 
L 327.665455 73.283551 
L 329.694545 88.580187 
L 331.723636 80.278318 
L 333.752727 73.495514 
L 335.781818 74.590654 
L 337.810909 78.511963 
L 339.84 77.240187 
L 341.869091 77.028224 
L 343.898182 80.066355 
L 345.927273 78.54729 
L 347.956364 74.802617 
L 349.985455 74.590654 
L 352.014545 75.897757 
L 354.043636 75.473832 
L 356.072727 76.992897 
L 358.101818 74.837944 
L 360.130909 79.183178 
L 362.16 74.590654 
L 364.189091 73.283551 
L 366.218182 72.647664 
L 368.247273 74.166729 
L 370.276364 81.373458 
L 372.305455 71.340561 
L 374.334545 70.033458 
L 376.363636 74.166729 
L 378.392727 74.378692 
L 380.421818 71.976449 
L 382.450909 72.400374 
L 384.48 70.457383 
L 386.509091 80.278318 
L 388.538182 78.759252 
L 390.567273 74.166729 
L 392.596364 77.45215 
L 394.625455 79.854393 
L 396.654545 79.39514 
L 398.683636 80.914206 
L 400.712727 75.473832 
L 402.741818 72.435701 
L 404.770909 73.954766 
L 406.8 70.704673 
L 408.829091 76.780935 
L 410.858182 70.210093 
L 412.887273 72.400374 
L 414.916364 77.664112 
L 416.945455 72.223738 
L 418.974545 71.764486 
L 421.003636 73.071589 
L 423.032727 76.357009 
L 425.061818 74.166729 
L 427.090909 76.10972 
L 429.12 73.283551 
L 431.149091 75.897757 
L 433.178182 70.210093 
L 437.236364 71.552523 
L 439.265455 86.177944 
L 441.294545 69.362243 
L 443.323636 82.680561 
L 445.352727 75.261869 
L 447.381818 71.764486 
L 449.410909 67.631215 
L 451.44 67.843178 
L 453.469091 66.96 
L 455.498182 71.305234 
L 457.527273 77.240187 
L 459.556364 70.245421 
L 461.585455 77.664112 
L 463.614545 74.166729 
L 465.643636 74.378692 
L 467.672727 71.340561 
L 469.701818 79.607103 
L 471.730909 72.647664 
L 473.76 73.071589 
L 475.789091 67.80785 
L 477.818182 75.049907 
L 479.847273 72.647664 
L 481.876364 78.088037 
L 483.905455 69.821495 
L 485.934545 73.954766 
L 487.963636 72.400374 
L 489.992727 69.114953 
L 492.021818 71.093271 
L 494.050909 82.892523 
L 496.08 72.859626 
L 498.109091 74.590654 
L 498.109091 74.590654 
" clip-path="url(#pebb653c94b)" style="fill: none; stroke: #ff7f0e; stroke-width: 1.5; stroke-linecap: square"/>
   </g>
   <g id="line2d_29">
    <path d="M 92.290909 366.533832 
L 94.32 361.517383 
L 96.349091 348.163738 
L 98.378182 346.008785 
L 100.407273 342.723364 
L 102.436364 325.236449 
L 104.465455 323.081495 
L 106.494545 302.768411 
L 108.523636 298.175888 
L 110.552727 277.014953 
L 112.581818 266.310841 
L 114.610909 257.797009 
L 116.64 244.019439 
L 118.669091 228.546168 
L 120.698182 221.763364 
L 122.727273 211.730467 
L 124.756364 194.879439 
L 126.785455 181.561121 
L 128.814545 175.23757 
L 130.843636 172.199439 
L 132.872727 165.204673 
L 134.901818 148.636262 
L 136.930909 152.981495 
L 138.96 150.155327 
L 140.989091 134.894019 
L 143.018182 128.994393 
L 145.047273 134.434766 
L 147.076364 136.201121 
L 149.105455 122.635514 
L 151.134545 127.863925 
L 153.163636 116.1 
L 155.192727 115.216822 
L 157.221818 120.233271 
L 159.250909 113.697757 
L 161.28 102.958318 
L 163.309091 111.083551 
L 165.338182 116.523925 
L 167.367273 108.010093 
L 169.396364 104.971963 
L 171.425455 103.629533 
L 173.454545 98.189159 
L 175.483636 100.591402 
L 177.512727 112.355327 
L 179.541818 104.088785 
L 181.570909 101.686542 
L 183.6 99.037009 
L 185.629091 109.988411 
L 187.658182 101.898505 
L 189.687273 103.876822 
L 191.716364 98.648411 
L 193.745455 96.210841 
L 195.774545 94.691776 
L 197.803636 90.770467 
L 199.832727 90.558505 
L 203.890909 92.748785 
L 205.92 89.675327 
L 207.949091 90.134579 
L 209.978182 90.770467 
L 212.007273 90.311215 
L 214.036364 90.98243 
L 216.065455 92.748785 
L 218.094545 93.596636 
L 220.123636 90.099252 
L 222.152727 87.908972 
L 224.181818 91.865607 
L 226.210909 93.17271 
L 228.24 91.194393 
L 230.269091 95.115701 
L 232.298182 90.770467 
L 234.327273 92.960748 
L 236.356364 89.675327 
L 238.385455 84.411589 
L 240.414545 90.311215 
L 242.443636 85.506729 
L 244.472727 87.944299 
L 246.501818 89.675327 
L 248.530909 96.210841 
L 250.56 82.468598 
L 252.589091 90.099252 
L 254.618182 91.406355 
L 256.647273 86.425234 
L 258.676364 87.061121 
L 260.705455 85.506729 
L 262.734545 85.506729 
L 264.763636 87.697009 
L 266.792727 87.485047 
L 268.821818 101.651215 
L 270.850909 87.061121 
L 272.88 86.601869 
L 274.909091 89.88729 
L 276.938182 95.362991 
L 278.967273 86.601869 
L 280.996364 91.865607 
L 283.025455 89.251402 
L 285.054545 96.458131 
L 287.083636 84.835514 
L 289.112727 90.947103 
L 291.141818 84.199626 
L 293.170909 82.044673 
L 295.2 82.892523 
L 297.229091 84.411589 
L 299.258182 77.416822 
L 301.287273 87.732336 
L 303.316364 95.115701 
L 305.345455 82.468598 
L 307.374545 78.54729 
L 309.403636 77.240187 
L 311.432727 83.104486 
L 313.461818 77.416822 
L 315.490909 90.099252 
L 317.52 76.568972 
L 319.549091 81.585421 
L 321.578182 89.675327 
L 323.607273 77.416822 
L 325.636364 87.944299 
L 327.665455 90.770467 
L 329.694545 85.082804 
L 331.723636 81.373458 
L 333.752727 84.870841 
L 335.781818 77.876075 
L 339.84 78.723925 
L 341.869091 84.835514 
L 343.898182 78.723925 
L 345.927273 86.601869 
L 347.956364 81.585421 
L 349.985455 91.406355 
L 352.014545 84.199626 
L 354.043636 84.870841 
L 356.072727 81.585421 
L 358.101818 78.723925 
L 360.130909 80.914206 
L 362.16 87.273084 
L 364.189091 82.044673 
L 366.218182 80.49028 
L 368.247273 79.430467 
L 370.276364 78.088037 
L 372.305455 84.658879 
L 374.334545 83.104486 
L 376.363636 75.261869 
L 378.392727 89.251402 
L 380.421818 86.849159 
L 382.450909 78.759252 
L 384.48 93.137383 
L 386.509091 81.161495 
L 388.538182 79.430467 
L 390.567273 75.897757 
L 392.596364 80.914206 
L 394.625455 80.066355 
L 396.654545 81.373458 
L 398.683636 76.992897 
L 400.712727 83.104486 
L 402.741818 75.226542 
L 404.770909 78.971215 
L 406.8 78.3 
L 408.829091 85.294766 
L 410.858182 78.335327 
L 412.887273 81.797383 
L 414.916364 76.568972 
L 416.945455 84.199626 
L 418.974545 87.944299 
L 421.003636 79.607103 
L 423.032727 82.468598 
L 425.061818 80.49028 
L 427.090909 76.357009 
L 429.12 75.473832 
L 431.149091 79.39514 
L 433.178182 79.430467 
L 435.207273 81.373458 
L 437.236364 74.590654 
L 439.265455 85.542056 
L 441.294545 74.378692 
L 443.323636 73.954766 
L 445.352727 78.54729 
L 447.381818 73.071589 
L 449.410909 76.568972 
L 451.44 73.071589 
L 453.469091 75.261869 
L 455.498182 79.218505 
L 457.527273 70.457383 
L 459.556364 79.218505 
L 461.585455 78.088037 
L 463.614545 80.73757 
L 465.643636 82.680561 
L 467.672727 76.780935 
L 469.701818 84.411589 
L 471.730909 84.623551 
L 473.76 78.971215 
L 475.789091 84.870841 
L 477.818182 76.992897 
L 479.847273 77.876075 
L 481.876364 77.45215 
L 483.905455 73.530841 
L 485.934545 79.430467 
L 487.963636 79.218505 
L 489.992727 82.044673 
L 492.021818 82.680561 
L 494.050909 83.775701 
L 496.08 88.120935 
L 498.109091 82.92785 
L 498.109091 82.92785 
" clip-path="url(#pebb653c94b)" style="fill: none; stroke: #2ca02c; stroke-width: 1.5; stroke-linecap: square"/>
   </g>
   <g id="line2d_30">
    <path d="M 92.290909 369.36 
L 94.32 362.365234 
L 96.349091 359.539065 
L 98.378182 354.734579 
L 100.407273 355.617757 
L 102.436364 344.701682 
L 104.465455 343.818505 
L 106.494545 333.114393 
L 108.523636 327.462056 
L 110.552727 320.255327 
L 112.581818 294.466542 
L 114.610909 282.914579 
L 116.64 273.305607 
L 118.669091 254.087664 
L 120.698182 237.90785 
L 122.727273 225.684673 
L 124.756364 211.518505 
L 126.785455 206.042804 
L 128.814545 204.735701 
L 130.843636 178.311028 
L 132.872727 189.01514 
L 134.901818 166.511776 
L 136.930909 147.293832 
L 138.96 154.076636 
L 140.989091 148.177009 
L 143.018182 152.098318 
L 145.047273 141.853458 
L 147.076364 138.144112 
L 149.105455 130.725421 
L 151.134545 132.244486 
L 153.163636 128.747103 
L 155.192727 123.730654 
L 157.221818 121.116449 
L 159.250909 116.311963 
L 161.28 114.121682 
L 163.309091 120.021308 
L 165.338182 118.254953 
L 167.367273 118.042991 
L 169.396364 108.010093 
L 171.425455 113.026542 
L 173.454545 108.645981 
L 175.483636 124.366542 
L 177.512727 108.469346 
L 179.541818 109.988411 
L 181.570909 103.876822 
L 183.6 105.395888 
L 185.629091 112.602617 
L 187.658182 105.148598 
L 189.687273 95.362991 
L 191.716364 106.491028 
L 193.745455 94.055888 
L 195.774545 106.491028 
L 197.803636 102.32243 
L 199.832727 101.686542 
L 201.861818 99.284299 
L 203.890909 94.939065 
L 205.92 101.686542 
L 207.949091 103.205607 
L 209.978182 99.496262 
L 212.007273 101.22729 
L 214.036364 93.596636 
L 216.065455 94.479813 
L 218.094545 97.305981 
L 220.123636 95.115701 
L 222.152727 94.055888 
L 224.181818 105.148598 
L 226.210909 96.882056 
L 228.24 95.786916 
L 230.269091 99.708224 
L 232.298182 99.920187 
L 234.327273 96.210841 
L 236.356364 102.993645 
L 238.385455 93.384673 
L 240.414545 106.702991 
L 242.443636 91.406355 
L 244.472727 92.289533 
L 246.501818 97.765234 
L 248.530909 95.115701 
L 250.56 96.458131 
L 252.589091 93.596636 
L 254.618182 91.441682 
L 256.647273 86.177944 
L 258.676364 92.748785 
L 260.705455 94.903738 
L 262.734545 89.675327 
L 264.763636 89.428037 
L 266.792727 105.395888 
L 268.821818 90.311215 
L 270.850909 84.870841 
L 272.88 87.908972 
L 274.909091 89.675327 
L 276.938182 88.368224 
L 278.967273 96.670093 
L 280.996364 90.523178 
L 283.025455 90.099252 
L 285.054545 87.944299 
L 287.083636 88.368224 
L 289.112727 96.634766 
L 291.141818 90.311215 
L 295.2 90.770467 
L 297.229091 91.441682 
L 299.258182 87.273084 
L 301.287273 85.082804 
L 303.316364 84.870841 
L 305.345455 83.563738 
L 307.374545 87.273084 
L 309.403636 94.26785 
L 311.432727 94.939065 
L 313.461818 90.770467 
L 315.490909 83.775701 
L 317.52 89.675327 
L 319.549091 88.332897 
L 321.578182 91.618318 
L 323.607273 87.485047 
L 325.636364 82.468598 
L 327.665455 93.596636 
L 329.694545 80.949533 
L 331.723636 85.754019 
L 335.781818 80.066355 
L 337.810909 85.082804 
L 341.869091 91.83028 
L 343.898182 82.256636 
L 345.927273 87.485047 
L 347.956364 84.234953 
L 349.985455 88.580187 
L 352.014545 81.373458 
L 354.043636 83.104486 
L 356.072727 80.914206 
L 358.101818 86.849159 
L 360.130909 85.082804 
L 362.16 87.273084 
L 364.189091 91.406355 
L 366.218182 90.98243 
L 368.247273 91.441682 
L 370.276364 87.061121 
L 372.305455 90.311215 
L 374.334545 79.64243 
L 376.363636 79.607103 
L 378.392727 83.104486 
L 380.421818 75.226542 
L 382.450909 85.506729 
L 384.48 80.914206 
L 386.509091 85.082804 
L 388.538182 90.523178 
L 390.567273 87.273084 
L 392.596364 80.49028 
L 394.625455 92.960748 
L 396.654545 80.49028 
L 398.683636 84.022991 
L 400.712727 80.73757 
L 402.741818 86.177944 
L 404.770909 84.623551 
L 406.8 81.83271 
L 408.829091 81.373458 
L 410.858182 79.183178 
L 412.887273 82.256636 
L 414.916364 79.39514 
L 416.945455 77.876075 
L 418.974545 80.73757 
L 421.003636 84.022991 
L 423.032727 80.49028 
L 425.061818 85.294766 
L 427.090909 80.949533 
L 429.12 88.332897 
L 431.149091 84.870841 
L 433.178182 83.351776 
L 435.207273 80.278318 
L 437.236364 81.585421 
L 439.265455 81.373458 
L 441.294545 82.468598 
L 443.323636 82.468598 
L 445.352727 80.066355 
L 447.381818 80.278318 
L 449.410909 87.697009 
L 451.44 89.64 
L 453.469091 78.54729 
L 455.498182 78.971215 
L 457.527273 77.664112 
L 459.556364 74.590654 
L 461.585455 79.39514 
L 463.614545 85.965981 
L 465.643636 83.775701 
L 467.672727 88.580187 
L 469.701818 80.73757 
L 471.730909 82.044673 
L 473.76 88.332897 
L 475.789091 83.775701 
L 477.818182 81.373458 
L 479.847273 81.161495 
L 481.876364 84.870841 
L 483.905455 85.294766 
L 485.934545 80.066355 
L 487.963636 77.664112 
L 489.992727 79.183178 
L 492.021818 80.066355 
L 494.050909 79.819065 
L 496.08 89.251402 
L 498.109091 80.914206 
L 498.109091 80.914206 
" clip-path="url(#pebb653c94b)" style="fill: none; stroke: #d62728; stroke-width: 1.5; stroke-linecap: square"/>
   </g>
   <g id="patch_3">
    <path d="M 72 384.48 
L 72 51.84 
" style="fill: none; stroke: #000000; stroke-width: 0.8; stroke-linejoin: miter; stroke-linecap: square"/>
   </g>
   <g id="patch_4">
    <path d="M 518.4 384.48 
L 518.4 51.84 
" style="fill: none; stroke: #000000; stroke-width: 0.8; stroke-linejoin: miter; stroke-linecap: square"/>
   </g>
   <g id="patch_5">
    <path d="M 72 384.48 
L 518.4 384.48 
" style="fill: none; stroke: #000000; stroke-width: 0.8; stroke-linejoin: miter; stroke-linecap: square"/>
   </g>
   <g id="patch_6">
    <path d="M 72 51.84 
L 518.4 51.84 
" style="fill: none; stroke: #000000; stroke-width: 0.8; stroke-linejoin: miter; stroke-linecap: square"/>
   </g>
   <g id="text_16">
    <!-- Clustered-Common -->
    <g transform="translate(237.350625 45.84)scale(0.12 -0.12)">
     <defs>
      <path id="DejaVuSans-6c" d="M 603 4863 
L 1178 4863 
L 1178 0 
L 603 0 
L 603 4863 
z
" transform="scale(0.015625)"/>
      <path id="DejaVuSans-65" d="M 3597 1894 
L 3597 1613 
L 953 1613 
Q 991 1019 1311 708 
Q 1631 397 2203 397 
Q 2534 397 2845 478 
Q 3156 559 3463 722 
L 3463 178 
Q 3153 47 2828 -22 
Q 2503 -91 2169 -91 
Q 1331 -91 842 396 
Q 353 884 353 1716 
Q 353 2575 817 3079 
Q 1281 3584 2069 3584 
Q 2775 3584 3186 3129 
Q 3597 2675 3597 1894 
z
M 3022 2063 
Q 3016 2534 2758 2815 
Q 2500 3097 2075 3097 
Q 1594 3097 1305 2825 
Q 1016 2553 972 2059 
L 3022 2063 
z
" transform="scale(0.015625)"/>
      <path id="DejaVuSans-2d" d="M 313 2009 
L 1997 2009 
L 1997 1497 
L 313 1497 
L 313 2009 
z
" transform="scale(0.015625)"/>
     </defs>
     <use xlink:href="#DejaVuSans-43"/>
     <use xlink:href="#DejaVuSans-6c" x="69.824219"/>
     <use xlink:href="#DejaVuSans-75" x="97.607422"/>
     <use xlink:href="#DejaVuSans-73" x="160.986328"/>
     <use xlink:href="#DejaVuSans-74" x="213.085938"/>
     <use xlink:href="#DejaVuSans-65" x="252.294922"/>
     <use xlink:href="#DejaVuSans-72" x="313.818359"/>
     <use xlink:href="#DejaVuSans-65" x="352.681641"/>
     <use xlink:href="#DejaVuSans-64" x="414.205078"/>
     <use xlink:href="#DejaVuSans-2d" x="477.681641"/>
     <use xlink:href="#DejaVuSans-43" x="513.765625"/>
     <use xlink:href="#DejaVuSans-6f" x="583.589844"/>
     <use xlink:href="#DejaVuSans-6d" x="644.771484"/>
     <use xlink:href="#DejaVuSans-6d" x="742.183594"/>
     <use xlink:href="#DejaVuSans-6f" x="839.595703"/>
     <use xlink:href="#DejaVuSans-6e" x="900.777344"/>
    </g>
   </g>
   <g id="legend_1">
    <g id="patch_7">
     <path d="M 79 118.5525 
L 124.203125 118.5525 
Q 126.203125 118.5525 126.203125 116.5525 
L 126.203125 58.84 
Q 126.203125 56.84 124.203125 56.84 
L 79 56.84 
Q 77 56.84 77 58.84 
L 77 116.5525 
Q 77 118.5525 79 118.5525 
z
" style="fill: #ffffff; opacity: 0.8; stroke: #cccccc; stroke-linejoin: miter"/>
    </g>
    <g id="line2d_31">
     <path d="M 81 64.938438 
L 91 64.938438 
L 101 64.938438 
" style="fill: none; stroke: #1f77b4; stroke-width: 1.5; stroke-linecap: square"/>
    </g>
    <g id="text_17">
     <!-- V1 -->
     <g transform="translate(109 68.438438)scale(0.1 -0.1)">
      <defs>
       <path id="DejaVuSans-56" d="M 1831 0 
L 50 4666 
L 709 4666 
L 2188 738 
L 3669 4666 
L 4325 4666 
L 2547 0 
L 1831 0 
z
" transform="scale(0.015625)"/>
      </defs>
      <use xlink:href="#DejaVuSans-56"/>
      <use xlink:href="#DejaVuSans-31" x="68.408203"/>
     </g>
    </g>
    <g id="line2d_32">
     <path d="M 81 79.616563 
L 91 79.616563 
L 101 79.616563 
" style="fill: none; stroke: #ff7f0e; stroke-width: 1.5; stroke-linecap: square"/>
    </g>
    <g id="text_18">
     <!-- V2 -->
     <g transform="translate(109 83.116563)scale(0.1 -0.1)">
      <use xlink:href="#DejaVuSans-56"/>
      <use xlink:href="#DejaVuSans-32" x="68.408203"/>
     </g>
    </g>
    <g id="line2d_33">
     <path d="M 81 94.294688 
L 91 94.294688 
L 101 94.294688 
" style="fill: none; stroke: #2ca02c; stroke-width: 1.5; stroke-linecap: square"/>
    </g>
    <g id="text_19">
     <!-- V3 -->
     <g transform="translate(109 97.794688)scale(0.1 -0.1)">
      <defs>
       <path id="DejaVuSans-33" d="M 2597 2516 
Q 3050 2419 3304 2112 
Q 3559 1806 3559 1356 
Q 3559 666 3084 287 
Q 2609 -91 1734 -91 
Q 1441 -91 1130 -33 
Q 819 25 488 141 
L 488 750 
Q 750 597 1062 519 
Q 1375 441 1716 441 
Q 2309 441 2620 675 
Q 2931 909 2931 1356 
Q 2931 1769 2642 2001 
Q 2353 2234 1838 2234 
L 1294 2234 
L 1294 2753 
L 1863 2753 
Q 2328 2753 2575 2939 
Q 2822 3125 2822 3475 
Q 2822 3834 2567 4026 
Q 2313 4219 1838 4219 
Q 1578 4219 1281 4162 
Q 984 4106 628 3988 
L 628 4550 
Q 988 4650 1302 4700 
Q 1616 4750 1894 4750 
Q 2613 4750 3031 4423 
Q 3450 4097 3450 3541 
Q 3450 3153 3228 2886 
Q 3006 2619 2597 2516 
z
" transform="scale(0.015625)"/>
      </defs>
      <use xlink:href="#DejaVuSans-56"/>
      <use xlink:href="#DejaVuSans-33" x="68.408203"/>
     </g>
    </g>
    <g id="line2d_34">
     <path d="M 81 108.972813 
L 91 108.972813 
L 101 108.972813 
" style="fill: none; stroke: #d62728; stroke-width: 1.5; stroke-linecap: square"/>
    </g>
    <g id="text_20">
     <!-- V4 -->
     <g transform="translate(109 112.472813)scale(0.1 -0.1)">
      <use xlink:href="#DejaVuSans-56"/>
      <use xlink:href="#DejaVuSans-34" x="68.408203"/>
     </g>
    </g>
   </g>
  </g>
 </g>
 <defs>
  <clipPath id="pebb653c94b">
   <rect x="72" y="51.84" width="446.4" height="332.64"/>
  </clipPath>
 </defs>
</svg>
