<?xml version="1.0" encoding="utf-8" standalone="no"?>
<!DOCTYPE svg PUBLIC "-//W3C//DTD SVG 1.1//EN"
  "http://www.w3.org/Graphics/SVG/1.1/DTD/svg11.dtd">
<svg xmlns:xlink="http://www.w3.org/1999/xlink" width="576pt" height="432pt" viewBox="0 0 576 432" xmlns="http://www.w3.org/2000/svg" version="1.1">
 <metadata>
  <rdf:RDF xmlns:dc="http://purl.org/dc/elements/1.1/" xmlns:cc="http://creativecommons.org/ns#" xmlns:rdf="http://www.w3.org/1999/02/22-rdf-syntax-ns#">
   <cc:Work>
    <dc:type rdf:resource="http://purl.org/dc/dcmitype/StillImage"/>
    <dc:date>2023-08-06T13:21:17.190079</dc:date>
    <dc:format>image/svg+xml</dc:format>
    <dc:creator>
     <cc:Agent>
      <dc:title>Matplotlib v3.5.2, https://matplotlib.org/</dc:title>
     </cc:Agent>
    </dc:creator>
   </cc:Work>
  </rdf:RDF>
 </metadata>
 <defs>
  <style type="text/css">*{stroke-linejoin: round; stroke-linecap: butt}</style>
 </defs>
 <g id="figure_1">
  <g id="patch_1">
   <path d="M 0 432 
L 576 432 
L 576 0 
L 0 0 
z
" style="fill: #ffffff"/>
  </g>
  <g id="axes_1">
   <g id="patch_2">
    <path d="M 72 384.48 
L 518.4 384.48 
L 518.4 51.84 
L 72 51.84 
z
" style="fill: #ffffff"/>
   </g>
   <g id="matplotlib.axis_1">
    <g id="xtick_1">
     <g id="line2d_1">
      <path d="M 92.290909 384.48 
L 92.290909 51.84 
" clip-path="url(#p7cbef96e2c)" style="fill: none; stroke: #b0b0b0; stroke-opacity: 0.5; stroke-width: 0.8; stroke-linecap: square"/>
     </g>
     <g id="line2d_2">
      <defs>
       <path id="m100e6944d3" d="M 0 0 
L 0 3.5 
" style="stroke: #000000; stroke-width: 0.8"/>
      </defs>
      <g>
       <use xlink:href="#m100e6944d3" x="92.290909" y="384.48" style="stroke: #000000; stroke-width: 0.8"/>
      </g>
     </g>
     <g id="text_1">
      <!-- 0 -->
      <g transform="translate(89.109659 399.078438)scale(0.1 -0.1)">
       <defs>
        <path id="DejaVuSans-30" d="M 2034 4250 
Q 1547 4250 1301 3770 
Q 1056 3291 1056 2328 
Q 1056 1369 1301 889 
Q 1547 409 2034 409 
Q 2525 409 2770 889 
Q 3016 1369 3016 2328 
Q 3016 3291 2770 3770 
Q 2525 4250 2034 4250 
z
M 2034 4750 
Q 2819 4750 3233 4129 
Q 3647 3509 3647 2328 
Q 3647 1150 3233 529 
Q 2819 -91 2034 -91 
Q 1250 -91 836 529 
Q 422 1150 422 2328 
Q 422 3509 836 4129 
Q 1250 4750 2034 4750 
z
" transform="scale(0.015625)"/>
       </defs>
       <use xlink:href="#DejaVuSans-30"/>
      </g>
     </g>
    </g>
    <g id="xtick_2">
     <g id="line2d_3">
      <path d="M 173.454545 384.48 
L 173.454545 51.84 
" clip-path="url(#p7cbef96e2c)" style="fill: none; stroke: #b0b0b0; stroke-opacity: 0.5; stroke-width: 0.8; stroke-linecap: square"/>
     </g>
     <g id="line2d_4">
      <g>
       <use xlink:href="#m100e6944d3" x="173.454545" y="384.48" style="stroke: #000000; stroke-width: 0.8"/>
      </g>
     </g>
     <g id="text_2">
      <!-- 50 -->
      <g transform="translate(167.092045 399.078438)scale(0.1 -0.1)">
       <defs>
        <path id="DejaVuSans-35" d="M 691 4666 
L 3169 4666 
L 3169 4134 
L 1269 4134 
L 1269 2991 
Q 1406 3038 1543 3061 
Q 1681 3084 1819 3084 
Q 2600 3084 3056 2656 
Q 3513 2228 3513 1497 
Q 3513 744 3044 326 
Q 2575 -91 1722 -91 
Q 1428 -91 1123 -41 
Q 819 9 494 109 
L 494 744 
Q 775 591 1075 516 
Q 1375 441 1709 441 
Q 2250 441 2565 725 
Q 2881 1009 2881 1497 
Q 2881 1984 2565 2268 
Q 2250 2553 1709 2553 
Q 1456 2553 1204 2497 
Q 953 2441 691 2322 
L 691 4666 
z
" transform="scale(0.015625)"/>
       </defs>
       <use xlink:href="#DejaVuSans-35"/>
       <use xlink:href="#DejaVuSans-30" x="63.623047"/>
      </g>
     </g>
    </g>
    <g id="xtick_3">
     <g id="line2d_5">
      <path d="M 254.618182 384.48 
L 254.618182 51.84 
" clip-path="url(#p7cbef96e2c)" style="fill: none; stroke: #b0b0b0; stroke-opacity: 0.5; stroke-width: 0.8; stroke-linecap: square"/>
     </g>
     <g id="line2d_6">
      <g>
       <use xlink:href="#m100e6944d3" x="254.618182" y="384.48" style="stroke: #000000; stroke-width: 0.8"/>
      </g>
     </g>
     <g id="text_3">
      <!-- 100 -->
      <g transform="translate(245.074432 399.078438)scale(0.1 -0.1)">
       <defs>
        <path id="DejaVuSans-31" d="M 794 531 
L 1825 531 
L 1825 4091 
L 703 3866 
L 703 4441 
L 1819 4666 
L 2450 4666 
L 2450 531 
L 3481 531 
L 3481 0 
L 794 0 
L 794 531 
z
" transform="scale(0.015625)"/>
       </defs>
       <use xlink:href="#DejaVuSans-31"/>
       <use xlink:href="#DejaVuSans-30" x="63.623047"/>
       <use xlink:href="#DejaVuSans-30" x="127.246094"/>
      </g>
     </g>
    </g>
    <g id="xtick_4">
     <g id="line2d_7">
      <path d="M 335.781818 384.48 
L 335.781818 51.84 
" clip-path="url(#p7cbef96e2c)" style="fill: none; stroke: #b0b0b0; stroke-opacity: 0.5; stroke-width: 0.8; stroke-linecap: square"/>
     </g>
     <g id="line2d_8">
      <g>
       <use xlink:href="#m100e6944d3" x="335.781818" y="384.48" style="stroke: #000000; stroke-width: 0.8"/>
      </g>
     </g>
     <g id="text_4">
      <!-- 150 -->
      <g transform="translate(326.238068 399.078438)scale(0.1 -0.1)">
       <use xlink:href="#DejaVuSans-31"/>
       <use xlink:href="#DejaVuSans-35" x="63.623047"/>
       <use xlink:href="#DejaVuSans-30" x="127.246094"/>
      </g>
     </g>
    </g>
    <g id="xtick_5">
     <g id="line2d_9">
      <path d="M 416.945455 384.48 
L 416.945455 51.84 
" clip-path="url(#p7cbef96e2c)" style="fill: none; stroke: #b0b0b0; stroke-opacity: 0.5; stroke-width: 0.8; stroke-linecap: square"/>
     </g>
     <g id="line2d_10">
      <g>
       <use xlink:href="#m100e6944d3" x="416.945455" y="384.48" style="stroke: #000000; stroke-width: 0.8"/>
      </g>
     </g>
     <g id="text_5">
      <!-- 200 -->
      <g transform="translate(407.401705 399.078438)scale(0.1 -0.1)">
       <defs>
        <path id="DejaVuSans-32" d="M 1228 531 
L 3431 531 
L 3431 0 
L 469 0 
L 469 531 
Q 828 903 1448 1529 
Q 2069 2156 2228 2338 
Q 2531 2678 2651 2914 
Q 2772 3150 2772 3378 
Q 2772 3750 2511 3984 
Q 2250 4219 1831 4219 
Q 1534 4219 1204 4116 
Q 875 4013 500 3803 
L 500 4441 
Q 881 4594 1212 4672 
Q 1544 4750 1819 4750 
Q 2544 4750 2975 4387 
Q 3406 4025 3406 3419 
Q 3406 3131 3298 2873 
Q 3191 2616 2906 2266 
Q 2828 2175 2409 1742 
Q 1991 1309 1228 531 
z
" transform="scale(0.015625)"/>
       </defs>
       <use xlink:href="#DejaVuSans-32"/>
       <use xlink:href="#DejaVuSans-30" x="63.623047"/>
       <use xlink:href="#DejaVuSans-30" x="127.246094"/>
      </g>
     </g>
    </g>
    <g id="xtick_6">
     <g id="line2d_11">
      <path d="M 498.109091 384.48 
L 498.109091 51.84 
" clip-path="url(#p7cbef96e2c)" style="fill: none; stroke: #b0b0b0; stroke-opacity: 0.5; stroke-width: 0.8; stroke-linecap: square"/>
     </g>
     <g id="line2d_12">
      <g>
       <use xlink:href="#m100e6944d3" x="498.109091" y="384.48" style="stroke: #000000; stroke-width: 0.8"/>
      </g>
     </g>
     <g id="text_6">
      <!-- 250 -->
      <g transform="translate(488.565341 399.078438)scale(0.1 -0.1)">
       <use xlink:href="#DejaVuSans-32"/>
       <use xlink:href="#DejaVuSans-35" x="63.623047"/>
       <use xlink:href="#DejaVuSans-30" x="127.246094"/>
      </g>
     </g>
    </g>
    <g id="text_7">
     <!-- Communication rounds -->
     <g transform="translate(237.083594 412.756563)scale(0.1 -0.1)">
      <defs>
       <path id="DejaVuSans-43" d="M 4122 4306 
L 4122 3641 
Q 3803 3938 3442 4084 
Q 3081 4231 2675 4231 
Q 1875 4231 1450 3742 
Q 1025 3253 1025 2328 
Q 1025 1406 1450 917 
Q 1875 428 2675 428 
Q 3081 428 3442 575 
Q 3803 722 4122 1019 
L 4122 359 
Q 3791 134 3420 21 
Q 3050 -91 2638 -91 
Q 1578 -91 968 557 
Q 359 1206 359 2328 
Q 359 3453 968 4101 
Q 1578 4750 2638 4750 
Q 3056 4750 3426 4639 
Q 3797 4528 4122 4306 
z
" transform="scale(0.015625)"/>
       <path id="DejaVuSans-6f" d="M 1959 3097 
Q 1497 3097 1228 2736 
Q 959 2375 959 1747 
Q 959 1119 1226 758 
Q 1494 397 1959 397 
Q 2419 397 2687 759 
Q 2956 1122 2956 1747 
Q 2956 2369 2687 2733 
Q 2419 3097 1959 3097 
z
M 1959 3584 
Q 2709 3584 3137 3096 
Q 3566 2609 3566 1747 
Q 3566 888 3137 398 
Q 2709 -91 1959 -91 
Q 1206 -91 779 398 
Q 353 888 353 1747 
Q 353 2609 779 3096 
Q 1206 3584 1959 3584 
z
" transform="scale(0.015625)"/>
       <path id="DejaVuSans-6d" d="M 3328 2828 
Q 3544 3216 3844 3400 
Q 4144 3584 4550 3584 
Q 5097 3584 5394 3201 
Q 5691 2819 5691 2113 
L 5691 0 
L 5113 0 
L 5113 2094 
Q 5113 2597 4934 2840 
Q 4756 3084 4391 3084 
Q 3944 3084 3684 2787 
Q 3425 2491 3425 1978 
L 3425 0 
L 2847 0 
L 2847 2094 
Q 2847 2600 2669 2842 
Q 2491 3084 2119 3084 
Q 1678 3084 1418 2786 
Q 1159 2488 1159 1978 
L 1159 0 
L 581 0 
L 581 3500 
L 1159 3500 
L 1159 2956 
Q 1356 3278 1631 3431 
Q 1906 3584 2284 3584 
Q 2666 3584 2933 3390 
Q 3200 3197 3328 2828 
z
" transform="scale(0.015625)"/>
       <path id="DejaVuSans-75" d="M 544 1381 
L 544 3500 
L 1119 3500 
L 1119 1403 
Q 1119 906 1312 657 
Q 1506 409 1894 409 
Q 2359 409 2629 706 
Q 2900 1003 2900 1516 
L 2900 3500 
L 3475 3500 
L 3475 0 
L 2900 0 
L 2900 538 
Q 2691 219 2414 64 
Q 2138 -91 1772 -91 
Q 1169 -91 856 284 
Q 544 659 544 1381 
z
M 1991 3584 
L 1991 3584 
z
" transform="scale(0.015625)"/>
       <path id="DejaVuSans-6e" d="M 3513 2113 
L 3513 0 
L 2938 0 
L 2938 2094 
Q 2938 2591 2744 2837 
Q 2550 3084 2163 3084 
Q 1697 3084 1428 2787 
Q 1159 2491 1159 1978 
L 1159 0 
L 581 0 
L 581 3500 
L 1159 3500 
L 1159 2956 
Q 1366 3272 1645 3428 
Q 1925 3584 2291 3584 
Q 2894 3584 3203 3211 
Q 3513 2838 3513 2113 
z
" transform="scale(0.015625)"/>
       <path id="DejaVuSans-69" d="M 603 3500 
L 1178 3500 
L 1178 0 
L 603 0 
L 603 3500 
z
M 603 4863 
L 1178 4863 
L 1178 4134 
L 603 4134 
L 603 4863 
z
" transform="scale(0.015625)"/>
       <path id="DejaVuSans-63" d="M 3122 3366 
L 3122 2828 
Q 2878 2963 2633 3030 
Q 2388 3097 2138 3097 
Q 1578 3097 1268 2742 
Q 959 2388 959 1747 
Q 959 1106 1268 751 
Q 1578 397 2138 397 
Q 2388 397 2633 464 
Q 2878 531 3122 666 
L 3122 134 
Q 2881 22 2623 -34 
Q 2366 -91 2075 -91 
Q 1284 -91 818 406 
Q 353 903 353 1747 
Q 353 2603 823 3093 
Q 1294 3584 2113 3584 
Q 2378 3584 2631 3529 
Q 2884 3475 3122 3366 
z
" transform="scale(0.015625)"/>
       <path id="DejaVuSans-61" d="M 2194 1759 
Q 1497 1759 1228 1600 
Q 959 1441 959 1056 
Q 959 750 1161 570 
Q 1363 391 1709 391 
Q 2188 391 2477 730 
Q 2766 1069 2766 1631 
L 2766 1759 
L 2194 1759 
z
M 3341 1997 
L 3341 0 
L 2766 0 
L 2766 531 
Q 2569 213 2275 61 
Q 1981 -91 1556 -91 
Q 1019 -91 701 211 
Q 384 513 384 1019 
Q 384 1609 779 1909 
Q 1175 2209 1959 2209 
L 2766 2209 
L 2766 2266 
Q 2766 2663 2505 2880 
Q 2244 3097 1772 3097 
Q 1472 3097 1187 3025 
Q 903 2953 641 2809 
L 641 3341 
Q 956 3463 1253 3523 
Q 1550 3584 1831 3584 
Q 2591 3584 2966 3190 
Q 3341 2797 3341 1997 
z
" transform="scale(0.015625)"/>
       <path id="DejaVuSans-74" d="M 1172 4494 
L 1172 3500 
L 2356 3500 
L 2356 3053 
L 1172 3053 
L 1172 1153 
Q 1172 725 1289 603 
Q 1406 481 1766 481 
L 2356 481 
L 2356 0 
L 1766 0 
Q 1100 0 847 248 
Q 594 497 594 1153 
L 594 3053 
L 172 3053 
L 172 3500 
L 594 3500 
L 594 4494 
L 1172 4494 
z
" transform="scale(0.015625)"/>
       <path id="DejaVuSans-20" transform="scale(0.015625)"/>
       <path id="DejaVuSans-72" d="M 2631 2963 
Q 2534 3019 2420 3045 
Q 2306 3072 2169 3072 
Q 1681 3072 1420 2755 
Q 1159 2438 1159 1844 
L 1159 0 
L 581 0 
L 581 3500 
L 1159 3500 
L 1159 2956 
Q 1341 3275 1631 3429 
Q 1922 3584 2338 3584 
Q 2397 3584 2469 3576 
Q 2541 3569 2628 3553 
L 2631 2963 
z
" transform="scale(0.015625)"/>
       <path id="DejaVuSans-64" d="M 2906 2969 
L 2906 4863 
L 3481 4863 
L 3481 0 
L 2906 0 
L 2906 525 
Q 2725 213 2448 61 
Q 2172 -91 1784 -91 
Q 1150 -91 751 415 
Q 353 922 353 1747 
Q 353 2572 751 3078 
Q 1150 3584 1784 3584 
Q 2172 3584 2448 3432 
Q 2725 3281 2906 2969 
z
M 947 1747 
Q 947 1113 1208 752 
Q 1469 391 1925 391 
Q 2381 391 2643 752 
Q 2906 1113 2906 1747 
Q 2906 2381 2643 2742 
Q 2381 3103 1925 3103 
Q 1469 3103 1208 2742 
Q 947 2381 947 1747 
z
" transform="scale(0.015625)"/>
       <path id="DejaVuSans-73" d="M 2834 3397 
L 2834 2853 
Q 2591 2978 2328 3040 
Q 2066 3103 1784 3103 
Q 1356 3103 1142 2972 
Q 928 2841 928 2578 
Q 928 2378 1081 2264 
Q 1234 2150 1697 2047 
L 1894 2003 
Q 2506 1872 2764 1633 
Q 3022 1394 3022 966 
Q 3022 478 2636 193 
Q 2250 -91 1575 -91 
Q 1294 -91 989 -36 
Q 684 19 347 128 
L 347 722 
Q 666 556 975 473 
Q 1284 391 1588 391 
Q 1994 391 2212 530 
Q 2431 669 2431 922 
Q 2431 1156 2273 1281 
Q 2116 1406 1581 1522 
L 1381 1569 
Q 847 1681 609 1914 
Q 372 2147 372 2553 
Q 372 3047 722 3315 
Q 1072 3584 1716 3584 
Q 2034 3584 2315 3537 
Q 2597 3491 2834 3397 
z
" transform="scale(0.015625)"/>
      </defs>
      <use xlink:href="#DejaVuSans-43"/>
      <use xlink:href="#DejaVuSans-6f" x="69.824219"/>
      <use xlink:href="#DejaVuSans-6d" x="131.005859"/>
      <use xlink:href="#DejaVuSans-6d" x="228.417969"/>
      <use xlink:href="#DejaVuSans-75" x="325.830078"/>
      <use xlink:href="#DejaVuSans-6e" x="389.208984"/>
      <use xlink:href="#DejaVuSans-69" x="452.587891"/>
      <use xlink:href="#DejaVuSans-63" x="480.371094"/>
      <use xlink:href="#DejaVuSans-61" x="535.351562"/>
      <use xlink:href="#DejaVuSans-74" x="596.630859"/>
      <use xlink:href="#DejaVuSans-69" x="635.839844"/>
      <use xlink:href="#DejaVuSans-6f" x="663.623047"/>
      <use xlink:href="#DejaVuSans-6e" x="724.804688"/>
      <use xlink:href="#DejaVuSans-20" x="788.183594"/>
      <use xlink:href="#DejaVuSans-72" x="819.970703"/>
      <use xlink:href="#DejaVuSans-6f" x="858.833984"/>
      <use xlink:href="#DejaVuSans-75" x="920.015625"/>
      <use xlink:href="#DejaVuSans-6e" x="983.394531"/>
      <use xlink:href="#DejaVuSans-64" x="1046.773438"/>
      <use xlink:href="#DejaVuSans-73" x="1110.25"/>
     </g>
    </g>
   </g>
   <g id="matplotlib.axis_2">
    <g id="ytick_1">
     <g id="line2d_13">
      <path d="M 72 364.734093 
L 518.4 364.734093 
" clip-path="url(#p7cbef96e2c)" style="fill: none; stroke: #b0b0b0; stroke-opacity: 0.5; stroke-width: 0.8; stroke-linecap: square"/>
     </g>
     <g id="line2d_14">
      <defs>
       <path id="me1a0f7d1f1" d="M 0 0 
L -3.5 0 
" style="stroke: #000000; stroke-width: 0.8"/>
      </defs>
      <g>
       <use xlink:href="#me1a0f7d1f1" x="72" y="364.734093" style="stroke: #000000; stroke-width: 0.8"/>
      </g>
     </g>
     <g id="text_8">
      <!-- 0.25 -->
      <g transform="translate(42.734375 368.533312)scale(0.1 -0.1)">
       <defs>
        <path id="DejaVuSans-2e" d="M 684 794 
L 1344 794 
L 1344 0 
L 684 0 
L 684 794 
z
" transform="scale(0.015625)"/>
       </defs>
       <use xlink:href="#DejaVuSans-30"/>
       <use xlink:href="#DejaVuSans-2e" x="63.623047"/>
       <use xlink:href="#DejaVuSans-32" x="95.410156"/>
       <use xlink:href="#DejaVuSans-35" x="159.033203"/>
      </g>
     </g>
    </g>
    <g id="ytick_2">
     <g id="line2d_15">
      <path d="M 72 327.428394 
L 518.4 327.428394 
" clip-path="url(#p7cbef96e2c)" style="fill: none; stroke: #b0b0b0; stroke-opacity: 0.5; stroke-width: 0.8; stroke-linecap: square"/>
     </g>
     <g id="line2d_16">
      <g>
       <use xlink:href="#me1a0f7d1f1" x="72" y="327.428394" style="stroke: #000000; stroke-width: 0.8"/>
      </g>
     </g>
     <g id="text_9">
      <!-- 0.30 -->
      <g transform="translate(42.734375 331.227613)scale(0.1 -0.1)">
       <defs>
        <path id="DejaVuSans-33" d="M 2597 2516 
Q 3050 2419 3304 2112 
Q 3559 1806 3559 1356 
Q 3559 666 3084 287 
Q 2609 -91 1734 -91 
Q 1441 -91 1130 -33 
Q 819 25 488 141 
L 488 750 
Q 750 597 1062 519 
Q 1375 441 1716 441 
Q 2309 441 2620 675 
Q 2931 909 2931 1356 
Q 2931 1769 2642 2001 
Q 2353 2234 1838 2234 
L 1294 2234 
L 1294 2753 
L 1863 2753 
Q 2328 2753 2575 2939 
Q 2822 3125 2822 3475 
Q 2822 3834 2567 4026 
Q 2313 4219 1838 4219 
Q 1578 4219 1281 4162 
Q 984 4106 628 3988 
L 628 4550 
Q 988 4650 1302 4700 
Q 1616 4750 1894 4750 
Q 2613 4750 3031 4423 
Q 3450 4097 3450 3541 
Q 3450 3153 3228 2886 
Q 3006 2619 2597 2516 
z
" transform="scale(0.015625)"/>
       </defs>
       <use xlink:href="#DejaVuSans-30"/>
       <use xlink:href="#DejaVuSans-2e" x="63.623047"/>
       <use xlink:href="#DejaVuSans-33" x="95.410156"/>
       <use xlink:href="#DejaVuSans-30" x="159.033203"/>
      </g>
     </g>
    </g>
    <g id="ytick_3">
     <g id="line2d_17">
      <path d="M 72 290.122694 
L 518.4 290.122694 
" clip-path="url(#p7cbef96e2c)" style="fill: none; stroke: #b0b0b0; stroke-opacity: 0.5; stroke-width: 0.8; stroke-linecap: square"/>
     </g>
     <g id="line2d_18">
      <g>
       <use xlink:href="#me1a0f7d1f1" x="72" y="290.122694" style="stroke: #000000; stroke-width: 0.8"/>
      </g>
     </g>
     <g id="text_10">
      <!-- 0.35 -->
      <g transform="translate(42.734375 293.921913)scale(0.1 -0.1)">
       <use xlink:href="#DejaVuSans-30"/>
       <use xlink:href="#DejaVuSans-2e" x="63.623047"/>
       <use xlink:href="#DejaVuSans-33" x="95.410156"/>
       <use xlink:href="#DejaVuSans-35" x="159.033203"/>
      </g>
     </g>
    </g>
    <g id="ytick_4">
     <g id="line2d_19">
      <path d="M 72 252.816995 
L 518.4 252.816995 
" clip-path="url(#p7cbef96e2c)" style="fill: none; stroke: #b0b0b0; stroke-opacity: 0.5; stroke-width: 0.8; stroke-linecap: square"/>
     </g>
     <g id="line2d_20">
      <g>
       <use xlink:href="#me1a0f7d1f1" x="72" y="252.816995" style="stroke: #000000; stroke-width: 0.8"/>
      </g>
     </g>
     <g id="text_11">
      <!-- 0.40 -->
      <g transform="translate(42.734375 256.616214)scale(0.1 -0.1)">
       <defs>
        <path id="DejaVuSans-34" d="M 2419 4116 
L 825 1625 
L 2419 1625 
L 2419 4116 
z
M 2253 4666 
L 3047 4666 
L 3047 1625 
L 3713 1625 
L 3713 1100 
L 3047 1100 
L 3047 0 
L 2419 0 
L 2419 1100 
L 313 1100 
L 313 1709 
L 2253 4666 
z
" transform="scale(0.015625)"/>
       </defs>
       <use xlink:href="#DejaVuSans-30"/>
       <use xlink:href="#DejaVuSans-2e" x="63.623047"/>
       <use xlink:href="#DejaVuSans-34" x="95.410156"/>
       <use xlink:href="#DejaVuSans-30" x="159.033203"/>
      </g>
     </g>
    </g>
    <g id="ytick_5">
     <g id="line2d_21">
      <path d="M 72 215.511295 
L 518.4 215.511295 
" clip-path="url(#p7cbef96e2c)" style="fill: none; stroke: #b0b0b0; stroke-opacity: 0.5; stroke-width: 0.8; stroke-linecap: square"/>
     </g>
     <g id="line2d_22">
      <g>
       <use xlink:href="#me1a0f7d1f1" x="72" y="215.511295" style="stroke: #000000; stroke-width: 0.8"/>
      </g>
     </g>
     <g id="text_12">
      <!-- 0.45 -->
      <g transform="translate(42.734375 219.310514)scale(0.1 -0.1)">
       <use xlink:href="#DejaVuSans-30"/>
       <use xlink:href="#DejaVuSans-2e" x="63.623047"/>
       <use xlink:href="#DejaVuSans-34" x="95.410156"/>
       <use xlink:href="#DejaVuSans-35" x="159.033203"/>
      </g>
     </g>
    </g>
    <g id="ytick_6">
     <g id="line2d_23">
      <path d="M 72 178.205596 
L 518.4 178.205596 
" clip-path="url(#p7cbef96e2c)" style="fill: none; stroke: #b0b0b0; stroke-opacity: 0.5; stroke-width: 0.8; stroke-linecap: square"/>
     </g>
     <g id="line2d_24">
      <g>
       <use xlink:href="#me1a0f7d1f1" x="72" y="178.205596" style="stroke: #000000; stroke-width: 0.8"/>
      </g>
     </g>
     <g id="text_13">
      <!-- 0.50 -->
      <g transform="translate(42.734375 182.004815)scale(0.1 -0.1)">
       <use xlink:href="#DejaVuSans-30"/>
       <use xlink:href="#DejaVuSans-2e" x="63.623047"/>
       <use xlink:href="#DejaVuSans-35" x="95.410156"/>
       <use xlink:href="#DejaVuSans-30" x="159.033203"/>
      </g>
     </g>
    </g>
    <g id="ytick_7">
     <g id="line2d_25">
      <path d="M 72 140.899896 
L 518.4 140.899896 
" clip-path="url(#p7cbef96e2c)" style="fill: none; stroke: #b0b0b0; stroke-opacity: 0.5; stroke-width: 0.8; stroke-linecap: square"/>
     </g>
     <g id="line2d_26">
      <g>
       <use xlink:href="#me1a0f7d1f1" x="72" y="140.899896" style="stroke: #000000; stroke-width: 0.8"/>
      </g>
     </g>
     <g id="text_14">
      <!-- 0.55 -->
      <g transform="translate(42.734375 144.699115)scale(0.1 -0.1)">
       <use xlink:href="#DejaVuSans-30"/>
       <use xlink:href="#DejaVuSans-2e" x="63.623047"/>
       <use xlink:href="#DejaVuSans-35" x="95.410156"/>
       <use xlink:href="#DejaVuSans-35" x="159.033203"/>
      </g>
     </g>
    </g>
    <g id="ytick_8">
     <g id="line2d_27">
      <path d="M 72 103.594197 
L 518.4 103.594197 
" clip-path="url(#p7cbef96e2c)" style="fill: none; stroke: #b0b0b0; stroke-opacity: 0.5; stroke-width: 0.8; stroke-linecap: square"/>
     </g>
     <g id="line2d_28">
      <g>
       <use xlink:href="#me1a0f7d1f1" x="72" y="103.594197" style="stroke: #000000; stroke-width: 0.8"/>
      </g>
     </g>
     <g id="text_15">
      <!-- 0.60 -->
      <g transform="translate(42.734375 107.393416)scale(0.1 -0.1)">
       <defs>
        <path id="DejaVuSans-36" d="M 2113 2584 
Q 1688 2584 1439 2293 
Q 1191 2003 1191 1497 
Q 1191 994 1439 701 
Q 1688 409 2113 409 
Q 2538 409 2786 701 
Q 3034 994 3034 1497 
Q 3034 2003 2786 2293 
Q 2538 2584 2113 2584 
z
M 3366 4563 
L 3366 3988 
Q 3128 4100 2886 4159 
Q 2644 4219 2406 4219 
Q 1781 4219 1451 3797 
Q 1122 3375 1075 2522 
Q 1259 2794 1537 2939 
Q 1816 3084 2150 3084 
Q 2853 3084 3261 2657 
Q 3669 2231 3669 1497 
Q 3669 778 3244 343 
Q 2819 -91 2113 -91 
Q 1303 -91 875 529 
Q 447 1150 447 2328 
Q 447 3434 972 4092 
Q 1497 4750 2381 4750 
Q 2619 4750 2861 4703 
Q 3103 4656 3366 4563 
z
" transform="scale(0.015625)"/>
       </defs>
       <use xlink:href="#DejaVuSans-30"/>
       <use xlink:href="#DejaVuSans-2e" x="63.623047"/>
       <use xlink:href="#DejaVuSans-36" x="95.410156"/>
       <use xlink:href="#DejaVuSans-30" x="159.033203"/>
      </g>
     </g>
    </g>
    <g id="ytick_9">
     <g id="line2d_29">
      <path d="M 72 66.288497 
L 518.4 66.288497 
" clip-path="url(#p7cbef96e2c)" style="fill: none; stroke: #b0b0b0; stroke-opacity: 0.5; stroke-width: 0.8; stroke-linecap: square"/>
     </g>
     <g id="line2d_30">
      <g>
       <use xlink:href="#me1a0f7d1f1" x="72" y="66.288497" style="stroke: #000000; stroke-width: 0.8"/>
      </g>
     </g>
     <g id="text_16">
      <!-- 0.65 -->
      <g transform="translate(42.734375 70.087716)scale(0.1 -0.1)">
       <use xlink:href="#DejaVuSans-30"/>
       <use xlink:href="#DejaVuSans-2e" x="63.623047"/>
       <use xlink:href="#DejaVuSans-36" x="95.410156"/>
       <use xlink:href="#DejaVuSans-35" x="159.033203"/>
      </g>
     </g>
    </g>
    <g id="text_17">
     <!-- Accuracy -->
     <g transform="translate(36.654687 240.988125)rotate(-90)scale(0.1 -0.1)">
      <defs>
       <path id="DejaVuSans-41" d="M 2188 4044 
L 1331 1722 
L 3047 1722 
L 2188 4044 
z
M 1831 4666 
L 2547 4666 
L 4325 0 
L 3669 0 
L 3244 1197 
L 1141 1197 
L 716 0 
L 50 0 
L 1831 4666 
z
" transform="scale(0.015625)"/>
       <path id="DejaVuSans-79" d="M 2059 -325 
Q 1816 -950 1584 -1140 
Q 1353 -1331 966 -1331 
L 506 -1331 
L 506 -850 
L 844 -850 
Q 1081 -850 1212 -737 
Q 1344 -625 1503 -206 
L 1606 56 
L 191 3500 
L 800 3500 
L 1894 763 
L 2988 3500 
L 3597 3500 
L 2059 -325 
z
" transform="scale(0.015625)"/>
      </defs>
      <use xlink:href="#DejaVuSans-41"/>
      <use xlink:href="#DejaVuSans-63" x="66.658203"/>
      <use xlink:href="#DejaVuSans-63" x="121.638672"/>
      <use xlink:href="#DejaVuSans-75" x="176.619141"/>
      <use xlink:href="#DejaVuSans-72" x="239.998047"/>
      <use xlink:href="#DejaVuSans-61" x="281.111328"/>
      <use xlink:href="#DejaVuSans-63" x="342.390625"/>
      <use xlink:href="#DejaVuSans-79" x="397.371094"/>
     </g>
    </g>
   </g>
   <g id="line2d_31">
    <path d="M 92.290909 322.056373 
L 93.914182 314.819067 
L 95.537455 300.642902 
L 97.160727 295.718549 
L 100.407273 256.249119 
L 102.030545 258.785907 
L 103.653818 246.848083 
L 105.277091 224.091606 
L 106.900364 213.571399 
L 108.523636 212.452228 
L 110.146909 217.451192 
L 111.770182 211.556891 
L 113.393455 217.152746 
L 115.016727 195.739275 
L 116.64 204.468808 
L 118.263273 187.755855 
L 119.886545 199.992124 
L 121.509818 172.460518 
L 123.133091 164.402487 
L 124.756364 166.491606 
L 126.379636 192.083316 
L 128.002909 167.461554 
L 129.626182 169.028394 
L 131.249455 158.881244 
L 132.872727 154.926839 
L 134.496 157.239793 
L 136.119273 165.148601 
L 137.742545 150.15171 
L 139.365818 148.734093 
L 140.989091 155.225285 
L 142.612364 151.121658 
L 144.235636 144.182798 
L 145.858909 142.69057 
L 147.482182 146.048083 
L 149.105455 147.167254 
L 150.728727 133.886425 
L 152.352 143.958964 
L 153.975273 136.423212 
L 155.598545 137.243938 
L 157.221818 135.677098 
L 158.845091 127.022176 
L 160.468364 135.080207 
L 162.091636 125.156891 
L 163.714909 135.378653 
L 165.338182 135.22943 
L 166.961455 115.755855 
L 168.584727 127.395233 
L 170.208 127.693679 
L 171.831273 115.979689 
L 173.454545 130.155855 
L 175.077818 125.156891 
L 176.701091 118.218031 
L 178.324364 121.799378 
L 179.947636 124.03772 
L 181.570909 119.337202 
L 183.194182 122.396269 
L 186.440727 108.145492 
L 188.064 107.996269 
L 189.687273 109.264663 
L 191.310545 112.771399 
L 192.933818 116.651192 
L 194.557091 111.726839 
L 196.180364 110.085389 
L 197.803636 107.250155 
L 199.426909 123.813886 
L 201.050182 106.877098 
L 202.673455 117.62114 
L 204.296727 109.786943 
L 205.92 110.458446 
L 207.543273 107.697824 
L 209.166545 103.594197 
L 210.789818 103.519585 
L 212.413091 99.789016 
L 214.036364 106.877098 
L 215.659636 106.727876 
L 217.282909 102.475026 
L 218.906182 104.489534 
L 220.529455 102.325803 
L 222.152727 99.863627 
L 223.776 101.952746 
L 225.399273 95.76 
L 227.022545 103.74342 
L 228.645818 106.653264 
L 230.269091 102.251192 
L 231.892364 99.789016 
L 233.515636 100.236684 
L 235.138909 93.223212 
L 236.762182 103.668808 
L 238.385455 103.370363 
L 240.008727 102.027358 
L 241.632 109.413886 
L 243.255273 98.819067 
L 244.878545 95.23772 
L 246.501818 100.01285 
L 248.125091 97.028394 
L 249.748364 99.565181 
L 251.371636 94.640829 
L 252.994909 97.401451 
L 254.618182 93.670881 
L 256.241455 95.386943 
L 257.864727 99.639793 
L 259.488 91.730984 
L 261.111273 92.477098 
L 262.734545 94.118549 
L 264.357818 102.251192 
L 265.981091 92.999378 
L 267.604364 98.296788 
L 269.227636 90.910259 
L 270.850909 89.940311 
L 272.474182 94.640829 
L 274.097455 90.462591 
L 275.720727 103.071917 
L 277.344 94.71544 
L 278.967273 91.954819 
L 280.590545 93.223212 
L 282.213818 98.893679 
L 283.837091 97.401451 
L 285.460364 94.566218 
L 287.083636 92.327876 
L 288.706909 97.550674 
L 290.330182 95.834611 
L 291.953455 93.596269 
L 293.576727 86.582798 
L 295.2 99.49057 
L 296.823273 95.536166 
L 298.446545 93.223212 
L 300.069818 93.297824 
L 301.693091 96.207668 
L 303.316364 101.728912 
L 304.939636 98.44601 
L 306.562909 85.911295 
L 308.186182 86.955855 
L 309.809455 98.893679 
L 311.432727 87.254301 
L 313.056 84.195233 
L 314.679273 91.581762 
L 316.302545 89.567254 
L 317.925818 85.09057 
L 319.549091 99.789016 
L 321.172364 99.341347 
L 322.795636 97.923731 
L 324.418909 85.015959 
L 326.042182 89.940311 
L 327.665455 87.254301 
L 329.288727 82.479171 
L 330.912 92.327876 
L 332.535273 87.851192 
L 334.158545 81.509223 
L 335.781818 90.387979 
L 337.405091 90.462591 
L 339.028364 94.043938 
L 340.651636 85.762073 
L 342.274909 84.195233 
L 343.898182 87.552746 
L 345.521455 91.730984 
L 347.144727 92.253264 
L 348.768 88.149637 
L 350.391273 86.881244 
L 353.637818 92.924767 
L 355.261091 91.283316 
L 356.884364 84.642902 
L 358.507636 95.834611 
L 360.130909 88.522694 
L 361.754182 82.479171 
L 363.377455 86.732021 
L 365.000727 86.433575 
L 366.624 82.926839 
L 368.247273 90.387979 
L 369.870545 89.418031 
L 371.493818 96.580725 
L 373.117091 84.120622 
L 374.740364 97.699896 
L 376.363636 90.611813 
L 377.986909 87.478135 
L 379.610182 83.150674 
L 381.233455 84.941347 
L 382.856727 84.493679 
L 384.48 85.538238 
L 386.103273 85.61285 
L 387.726545 81.956891 
L 389.349818 76.883316 
L 390.973091 86.060518 
L 392.596364 94.491606 
L 394.219636 87.627358 
L 395.842909 82.777617 
L 397.466182 82.553782 
L 399.089455 85.09057 
L 400.712727 92.104041 
L 402.336 81.956891 
L 403.959273 91.059482 
L 405.582545 88.970363 
L 407.205818 81.583834 
L 408.829091 88.82114 
L 410.452364 87.403523 
L 412.075636 89.418031 
L 413.698909 83.299896 
L 415.322182 83.449119 
L 416.945455 88.29886 
L 418.568727 82.255337 
L 420.192 91.656373 
L 421.815273 76.734093 
L 423.438545 79.121658 
L 425.061818 83.449119 
L 426.685091 84.195233 
L 428.308364 88.597306 
L 429.931636 81.210777 
L 431.554909 76.808705 
L 433.178182 82.703005 
L 434.801455 87.179689 
L 436.424727 82.479171 
L 438.048 82.628394 
L 439.671273 83.523731 
L 441.294545 86.209741 
L 442.917818 78.450155 
L 444.541091 82.703005 
L 446.164364 83.076062 
L 447.787636 88.000415 
L 449.410909 85.61285 
L 451.034182 81.807668 
L 452.657455 84.642902 
L 454.280727 82.852228 
L 455.904 83.374508 
L 457.527273 81.36 
L 459.150545 82.031503 
L 460.773818 81.956891 
L 462.397091 77.330984 
L 464.020364 88.970363 
L 465.643636 76.808705 
L 467.266909 82.628394 
L 468.890182 84.269845 
L 470.513455 83.150674 
L 472.136727 80.539275 
L 473.76 83.150674 
L 475.383273 77.032539 
L 477.006545 73.525803 
L 478.629818 79.345492 
L 480.253091 81.956891 
L 481.876364 81.583834 
L 483.499636 81.509223 
L 485.122909 81.210777 
L 486.746182 78.823212 
L 488.369455 77.480207 
L 489.992727 81.583834 
L 491.616 88.671917 
L 494.862545 74.271917 
L 496.485818 83.523731 
L 498.109091 79.121658 
L 498.109091 79.121658 
" clip-path="url(#p7cbef96e2c)" style="fill: none; stroke: #1f77b4; stroke-width: 1.5; stroke-linecap: square"/>
   </g>
   <g id="line2d_32">
    <path d="M 92.290909 369.36 
L 93.914182 341.455337 
L 95.537455 309.596269 
L 97.160727 284.601451 
L 98.784 265.948601 
L 100.407273 261.695751 
L 102.030545 260.949637 
L 103.653818 237.447047 
L 105.277091 247.370363 
L 106.900364 227.449119 
L 108.523636 222.823212 
L 110.146909 225.061554 
L 111.770182 220.286425 
L 113.393455 210.586943 
L 115.016727 216.108187 
L 116.64 201.111295 
L 118.263273 201.708187 
L 119.886545 179.324767 
L 121.509818 194.620104 
L 123.133091 190.441865 
L 124.756364 187.979689 
L 126.379636 179.996269 
L 128.002909 176.638756 
L 129.626182 180.966218 
L 131.249455 167.23772 
L 132.872727 169.177617 
L 134.496 162.537202 
L 136.119273 160.149637 
L 137.742545 163.059482 
L 139.365818 171.266736 
L 140.989091 159.851192 
L 142.612364 145.600415 
L 144.235636 150.300933 
L 145.858909 146.94342 
L 147.482182 140.153782 
L 149.105455 156.04601 
L 150.728727 136.796269 
L 152.352 134.781762 
L 153.975273 140.303005 
L 155.598545 137.990052 
L 157.221818 138.139275 
L 158.845091 140.974508 
L 160.468364 137.542383 
L 162.091636 135.304041 
L 165.338182 119.262591 
L 166.961455 130.081244 
L 168.584727 123.664663 
L 170.208 121.87399 
L 171.831273 128.887461 
L 173.454545 121.426321 
L 175.077818 128.514404 
L 176.701091 130.379689 
L 178.324364 121.799378 
L 179.947636 121.799378 
L 181.570909 113.442902 
L 183.194182 119.337202 
L 184.817455 132.394197 
L 186.440727 116.949637 
L 188.064 118.441865 
L 189.687273 123.366218 
L 191.310545 121.426321 
L 192.933818 117.173472 
L 194.557091 111.20456 
L 196.180364 115.532021 
L 197.803636 108.145492 
L 199.426909 119.113368 
L 201.050182 121.127876 
L 202.673455 111.20456 
L 204.296727 104.191088 
L 205.92 104.862591 
L 207.543273 117.173472 
L 209.166545 107.100933 
L 210.789818 101.206632 
L 212.413091 107.847047 
L 214.036364 100.311295 
L 215.659636 107.399378 
L 217.282909 109.040829 
L 218.906182 100.385907 
L 220.529455 105.534093 
L 222.152727 102.549637 
L 223.776 102.400415 
L 227.022545 111.503005 
L 228.645818 102.922694 
L 230.269091 101.803523 
L 231.892364 102.17658 
L 233.515636 97.699896 
L 235.138909 99.266736 
L 236.762182 95.461554 
L 238.385455 99.192124 
L 240.008727 85.762073 
L 241.632 93.297824 
L 243.255273 93.447047 
L 244.878545 99.565181 
L 246.501818 98.072953 
L 248.125091 100.833575 
L 249.748364 91.208705 
L 251.371636 100.236684 
L 252.994909 105.981762 
L 254.618182 90.014922 
L 256.241455 101.952746 
L 257.864727 105.38487 
L 259.488 103.370363 
L 261.111273 103.74342 
L 262.734545 94.491606 
L 264.357818 90.835648 
L 265.981091 92.850155 
L 267.604364 89.044974 
L 269.227636 87.925803 
L 270.850909 85.762073 
L 272.474182 97.103005 
L 274.097455 96.207668 
L 277.344 91.880207 
L 278.967273 101.878135 
L 280.590545 87.627358 
L 282.213818 93.07399 
L 283.837091 102.475026 
L 285.460364 95.834611 
L 287.083636 96.506114 
L 288.706909 84.792124 
L 290.330182 95.386943 
L 291.953455 86.508187 
L 293.576727 88.373472 
L 295.2 89.34342 
L 296.823273 93.521658 
L 298.446545 94.342383 
L 300.069818 83.672953 
L 301.693091 88.746528 
L 303.316364 93.297824 
L 304.939636 92.55171 
L 306.562909 89.044974 
L 308.186182 84.56829 
L 309.809455 87.403523 
L 311.432727 90.537202 
L 313.056 94.491606 
L 314.679273 93.820104 
L 316.302545 85.314404 
L 317.925818 85.165181 
L 319.549091 80.83772 
L 321.172364 83.449119 
L 322.795636 81.434611 
L 324.418909 88.895751 
L 326.042182 86.433575 
L 327.665455 90.835648 
L 329.288727 87.030466 
L 330.912 85.165181 
L 332.535273 88.597306 
L 334.158545 89.194197 
L 335.781818 83.822176 
L 337.405091 83.001451 
L 339.028364 87.77658 
L 340.651636 90.98487 
L 342.274909 83.299896 
L 343.898182 89.119585 
L 345.521455 85.09057 
L 347.144727 91.432539 
L 348.768 82.329948 
L 350.391273 94.790052 
L 352.014545 85.985907 
L 353.637818 86.955855 
L 355.261091 85.314404 
L 356.884364 84.195233 
L 358.507636 82.479171 
L 360.130909 92.477098 
L 361.754182 83.523731 
L 363.377455 88.970363 
L 365.000727 81.434611 
L 366.624 84.419067 
L 368.247273 81.061554 
L 369.870545 84.195233 
L 371.493818 92.402487 
L 373.117091 81.509223 
L 374.740364 82.628394 
L 376.363636 87.478135 
L 377.986909 85.687461 
L 381.233455 79.942383 
L 382.856727 91.50715 
L 384.48 87.179689 
L 386.103273 84.493679 
L 387.726545 85.836684 
L 389.349818 88.82114 
L 390.973091 87.179689 
L 392.596364 79.718549 
L 394.219636 81.136166 
L 395.842909 84.642902 
L 397.466182 85.61285 
L 399.089455 78.524767 
L 400.712727 84.941347 
L 402.336 75.689534 
L 403.959273 87.77658 
L 405.582545 80.091606 
L 407.205818 88.522694 
L 408.829091 87.179689 
L 410.452364 89.119585 
L 412.075636 85.762073 
L 413.698909 80.091606 
L 415.322182 83.747565 
L 416.945455 80.166218 
L 418.568727 80.091606 
L 420.192 87.701969 
L 421.815273 87.701969 
L 423.438545 77.62943 
L 425.061818 78.450155 
L 426.685091 86.508187 
L 428.308364 79.643938 
L 429.931636 82.40456 
L 431.554909 86.657409 
L 433.178182 74.122694 
L 434.801455 85.985907 
L 436.424727 82.329948 
L 438.048 84.493679 
L 439.671273 86.881244 
L 441.294545 82.703005 
L 442.917818 82.553782 
L 444.541091 83.672953 
L 446.164364 83.001451 
L 447.787636 84.642902 
L 449.410909 85.09057 
L 451.034182 80.688497 
L 452.657455 75.167254 
L 454.280727 83.374508 
L 455.904 77.256373 
L 457.527273 80.83772 
L 459.150545 76.808705 
L 460.773818 84.493679 
L 462.397091 87.627358 
L 465.643636 80.763109 
L 467.266909 79.942383 
L 468.890182 84.195233 
L 470.513455 75.764145 
L 473.76 79.718549 
L 475.383273 87.478135 
L 477.006545 83.971399 
L 478.629818 78.375544 
L 480.253091 79.569326 
L 481.876364 83.299896 
L 483.499636 77.330984 
L 485.122909 73.078135 
L 486.746182 76.734093 
L 488.369455 81.956891 
L 489.992727 73.973472 
L 491.616 82.031503 
L 493.239273 81.583834 
L 494.862545 83.299896 
L 496.485818 78.897824 
L 498.109091 79.643938 
L 498.109091 79.643938 
" clip-path="url(#p7cbef96e2c)" style="fill: none; stroke: #ff7f0e; stroke-width: 1.5; stroke-linecap: square"/>
   </g>
   <g id="line2d_33">
    <path d="M 92.290909 345.036684 
L 93.914182 344.589016 
L 95.537455 304.29886 
L 97.160727 298.106114 
L 98.784 284.452228 
L 100.407273 246.69886 
L 102.030545 246.848083 
L 103.653818 251.921658 
L 105.277091 236.700933 
L 108.523636 253.786943 
L 110.146909 235.134093 
L 111.770182 209.393161 
L 113.393455 201.185907 
L 115.016727 208.870881 
L 116.64 210.661554 
L 118.263273 183.503005 
L 119.886545 186.860518 
L 123.133091 202.379689 
L 124.756364 197.156891 
L 126.379636 181.936166 
L 128.002909 192.157927 
L 129.626182 191.337202 
L 131.249455 177.534093 
L 132.872727 190.591088 
L 136.119273 167.23772 
L 137.742545 169.699896 
L 139.365818 171.266736 
L 140.989091 152.464663 
L 142.612364 160.82114 
L 144.235636 153.36 
L 145.858909 153.36 
L 147.482182 155.374508 
L 149.105455 189.994197 
L 150.728727 148.659482 
L 152.352 140.00456 
L 153.975273 154.255337 
L 155.598545 143.809741 
L 157.221818 150.375544 
L 158.845091 144.705078 
L 160.468364 127.096788 
L 162.091636 136.796269 
L 163.714909 135.975544 
L 165.338182 135.453264 
L 166.961455 127.544456 
L 168.584727 125.679171 
L 170.208 122.172435 
L 171.831273 135.005596 
L 173.454545 131.49886 
L 175.077818 129.33513 
L 178.324364 110.68228 
L 179.947636 119.710259 
L 181.570909 124.186943 
L 183.194182 116.57658 
L 184.817455 118.068808 
L 186.440727 108.070881 
L 188.064 113.517513 
L 189.687273 111.801451 
L 191.310545 102.325803 
L 192.933818 113.293679 
L 194.557091 117.09886 
L 196.180364 104.787979 
L 197.803636 111.279171 
L 199.426909 107.175544 
L 201.050182 110.085389 
L 202.673455 105.608705 
L 204.296727 102.848083 
L 205.92 107.026321 
L 207.543273 107.100933 
L 209.166545 111.801451 
L 210.789818 111.129948 
L 212.413091 106.354819 
L 214.036364 105.161036 
L 215.659636 103.146528 
L 217.282909 105.608705 
L 218.906182 110.533057 
L 220.529455 126.425285 
L 222.152727 108.593161 
L 223.776 102.325803 
L 225.399273 98.96829 
L 227.022545 96.133057 
L 228.645818 101.505078 
L 230.269091 101.728912 
L 231.892364 107.847047 
L 233.515636 94.790052 
L 235.138909 102.922694 
L 236.762182 97.923731 
L 238.385455 97.476062 
L 240.008727 85.762073 
L 241.632 97.699896 
L 243.255273 98.222176 
L 244.878545 99.49057 
L 246.501818 90.164145 
L 248.125091 92.850155 
L 249.748364 90.537202 
L 251.371636 97.998342 
L 252.994909 90.014922 
L 254.618182 98.296788 
L 256.241455 92.850155 
L 257.864727 86.955855 
L 259.488 93.670881 
L 261.111273 94.566218 
L 262.734545 87.328912 
L 264.357818 95.312332 
L 265.981091 91.432539 
L 267.604364 94.566218 
L 269.227636 88.522694 
L 270.850909 97.476062 
L 272.474182 94.640829 
L 274.097455 94.640829 
L 275.720727 93.297824 
L 277.344 88.373472 
L 278.967273 85.015959 
L 280.590545 90.089534 
L 282.213818 87.851192 
L 283.837091 101.579689 
L 285.460364 95.685389 
L 287.083636 86.582798 
L 288.706909 97.923731 
L 290.330182 88.224249 
L 291.953455 86.209741 
L 293.576727 88.970363 
L 295.2 92.999378 
L 296.823273 81.434611 
L 298.446545 91.880207 
L 300.069818 82.40456 
L 301.693091 93.596269 
L 303.316364 91.730984 
L 304.939636 87.925803 
L 306.562909 91.880207 
L 308.186182 85.538238 
L 309.809455 91.805596 
L 311.432727 81.509223 
L 313.056 92.55171 
L 314.679273 84.866736 
L 316.302545 83.971399 
L 317.925818 87.105078 
L 319.549091 87.627358 
L 321.172364 97.550674 
L 322.795636 84.195233 
L 324.418909 89.716477 
L 326.042182 85.463627 
L 327.665455 86.582798 
L 329.288727 86.732021 
L 330.912 81.36 
L 332.535273 88.82114 
L 334.158545 84.56829 
L 335.781818 89.194197 
L 337.405091 88.522694 
L 339.028364 83.374508 
L 340.651636 84.269845 
L 342.274909 77.62943 
L 343.898182 78.599378 
L 345.521455 83.299896 
L 347.144727 90.238756 
L 348.768 85.687461 
L 350.391273 83.001451 
L 352.014545 82.479171 
L 353.637818 77.704041 
L 355.261091 88.82114 
L 356.884364 78.15171 
L 360.130909 82.777617 
L 361.754182 75.018031 
L 363.377455 80.464663 
L 365.000727 78.15171 
L 366.624 73.37658 
L 368.247273 79.494715 
L 369.870545 83.672953 
L 371.493818 84.04601 
L 373.117091 75.316477 
L 374.740364 88.224249 
L 376.363636 89.194197 
L 377.986909 80.613886 
L 379.610182 75.391088 
L 381.233455 76.808705 
L 382.856727 81.210777 
L 384.48 81.583834 
L 386.103273 80.688497 
L 387.726545 91.730984 
L 389.349818 77.256373 
L 390.973091 88.075026 
L 392.596364 88.448083 
L 394.219636 75.764145 
L 395.842909 80.464663 
L 397.466182 76.435648 
L 399.089455 81.956891 
L 400.712727 90.611813 
L 402.336 74.794197 
L 403.959273 76.510259 
L 405.582545 80.390052 
L 407.205818 76.062591 
L 408.829091 75.689534 
L 410.452364 86.657409 
L 412.075636 89.268808 
L 415.322182 72.928912 
L 416.945455 89.119585 
L 418.568727 76.734093 
L 420.192 75.540311 
L 421.815273 72.406632 
L 423.438545 75.316477 
L 425.061818 77.853264 
L 426.685091 84.941347 
L 428.308364 84.120622 
L 429.931636 75.316477 
L 431.554909 86.881244 
L 433.178182 87.552746 
L 434.801455 80.912332 
L 436.424727 80.31544 
L 438.048 76.286425 
L 439.671273 76.435648 
L 441.294545 78.897824 
L 442.917818 75.167254 
L 444.541091 75.167254 
L 446.164364 80.986943 
L 447.787636 80.166218 
L 449.410909 70.69057 
L 451.034182 78.002487 
L 452.657455 77.330984 
L 455.904 81.136166 
L 457.527273 83.598342 
L 459.150545 79.867772 
L 460.773818 82.180725 
L 462.397091 73.003523 
L 464.020364 81.36 
L 465.643636 88.000415 
L 467.266909 75.689534 
L 468.890182 72.928912 
L 470.513455 71.138238 
L 472.136727 77.480207 
L 473.76 83.001451 
L 475.383273 78.897824 
L 477.006545 78.226321 
L 478.629818 77.853264 
L 480.253091 89.044974 
L 481.876364 83.971399 
L 483.499636 77.927876 
L 485.122909 79.569326 
L 486.746182 74.42114 
L 488.369455 79.569326 
L 489.992727 71.511295 
L 491.616 75.689534 
L 493.239273 83.374508 
L 494.862545 74.644974 
L 496.485818 81.210777 
L 498.109091 74.570363 
L 498.109091 74.570363 
" clip-path="url(#p7cbef96e2c)" style="fill: none; stroke: #2ca02c; stroke-width: 1.5; stroke-linecap: square"/>
   </g>
   <g id="line2d_34">
    <path d="M 92.290909 349.140311 
L 93.914182 326.458446 
L 95.537455 317.654301 
L 97.160727 286.615959 
L 98.784 285.795233 
L 100.407273 271.992124 
L 102.030545 264.978653 
L 103.653818 268.186943 
L 105.277091 244.236684 
L 106.900364 225.583834 
L 108.523636 238.71544 
L 110.146909 242.819067 
L 111.770182 232.149637 
L 113.393455 223.718549 
L 115.016727 218.794197 
L 116.64 223.942383 
L 118.263273 199.917513 
L 119.886545 197.007668 
L 121.509818 196.485389 
L 123.133091 196.261554 
L 124.756364 184.995233 
L 126.379636 186.562073 
L 128.002909 191.262591 
L 129.626182 182.68228 
L 131.249455 184.547565 
L 132.872727 178.130984 
L 134.496 156.419067 
L 136.119273 198.574508 
L 137.742545 176.191088 
L 139.365818 166.342383 
L 140.989091 163.581762 
L 142.612364 149.181762 
L 144.235636 159.925803 
L 145.858909 160.671917 
L 147.482182 156.493679 
L 149.105455 156.419067 
L 150.728727 150.897824 
L 152.352 143.660518 
L 153.975273 150.67399 
L 155.598545 144.705078 
L 157.221818 138.139275 
L 158.845091 142.392124 
L 160.468364 130.827358 
L 162.091636 145.525803 
L 163.714909 138.512332 
L 165.338182 132.394197 
L 166.961455 140.526839 
L 168.584727 140.526839 
L 170.208 134.18487 
L 171.831273 125.231503 
L 173.454545 120.381762 
L 175.077818 114.487461 
L 176.701091 123.590052 
L 179.947636 126.126839 
L 181.570909 134.781762 
L 183.194182 120.456373 
L 184.817455 118.740311 
L 186.440727 130.752746 
L 188.064 115.158964 
L 189.687273 115.755855 
L 191.310545 121.127876 
L 192.933818 114.189016 
L 194.557091 110.234611 
L 197.803636 115.681244 
L 201.050182 110.906114 
L 202.673455 107.548601 
L 204.296727 111.353782 
L 205.92 106.727876 
L 207.543273 108.742383 
L 209.166545 119.710259 
L 210.789818 106.653264 
L 212.413091 117.173472 
L 214.036364 105.608705 
L 215.659636 110.533057 
L 217.282909 97.476062 
L 218.906182 100.684352 
L 220.529455 105.38487 
L 222.152727 99.042902 
L 225.399273 114.93513 
L 227.022545 106.280207 
L 228.645818 107.623212 
L 230.269091 108.220104 
L 231.892364 106.727876 
L 233.515636 98.44601 
L 235.138909 98.371399 
L 236.762182 90.910259 
L 238.385455 95.610777 
L 240.008727 98.893679 
L 241.632 97.699896 
L 243.255273 98.96829 
L 244.878545 103.444974 
L 246.501818 103.668808 
L 248.125091 99.938238 
L 249.748364 97.401451 
L 251.371636 95.610777 
L 252.994909 106.056373 
L 254.618182 93.372435 
L 256.241455 88.000415 
L 257.864727 90.686425 
L 259.488 95.76 
L 261.111273 103.594197 
L 262.734545 95.23772 
L 264.357818 94.790052 
L 265.981091 82.40456 
L 267.604364 89.716477 
L 269.227636 92.178653 
L 270.850909 88.671917 
L 272.474182 90.313368 
L 274.097455 90.761036 
L 275.720727 90.686425 
L 277.344 85.389016 
L 278.967273 96.133057 
L 280.590545 97.177617 
L 282.213818 87.77658 
L 283.837091 91.432539 
L 285.460364 92.850155 
L 287.083636 88.149637 
L 288.706909 87.925803 
L 290.330182 101.057409 
L 291.953455 87.552746 
L 293.576727 88.970363 
L 295.2 82.255337 
L 296.823273 88.448083 
L 298.446545 89.044974 
L 300.069818 83.299896 
L 301.693091 88.671917 
L 303.316364 89.791088 
L 304.939636 87.478135 
L 306.562909 86.732021 
L 308.186182 93.223212 
L 309.809455 81.583834 
L 311.432727 85.61285 
L 313.056 85.687461 
L 314.679273 84.04601 
L 316.302545 86.284352 
L 317.925818 85.687461 
L 319.549091 79.643938 
L 321.172364 91.730984 
L 322.795636 90.238756 
L 324.418909 87.328912 
L 326.042182 81.136166 
L 327.665455 83.225285 
L 329.288727 87.254301 
L 330.912 88.29886 
L 332.535273 89.492642 
L 334.158545 79.047047 
L 337.405091 87.403523 
L 339.028364 94.193161 
L 340.651636 88.671917 
L 342.274909 83.822176 
L 343.898182 80.688497 
L 345.521455 87.627358 
L 347.144727 81.88228 
L 348.768 90.164145 
L 350.391273 91.581762 
L 352.014545 87.552746 
L 353.637818 78.972435 
L 355.261091 93.670881 
L 356.884364 84.493679 
L 358.507636 82.106114 
L 360.130909 86.358964 
L 361.754182 81.583834 
L 363.377455 88.224249 
L 365.000727 81.733057 
L 366.624 79.643938 
L 368.247273 86.060518 
L 369.870545 81.36 
L 371.493818 78.897824 
L 373.117091 87.328912 
L 374.740364 88.671917 
L 376.363636 85.165181 
L 377.986909 72.182798 
L 379.610182 78.897824 
L 381.233455 78.15171 
L 382.856727 78.897824 
L 384.48 79.047047 
L 386.103273 83.449119 
L 387.726545 80.091606 
L 389.349818 83.672953 
L 390.973091 85.015959 
L 392.596364 81.285389 
L 394.219636 80.016995 
L 395.842909 72.854301 
L 397.466182 75.764145 
L 399.089455 85.463627 
L 400.712727 76.659482 
L 402.336 77.554819 
L 403.959273 85.239793 
L 405.582545 73.824249 
L 407.205818 83.076062 
L 408.829091 79.494715 
L 410.452364 81.88228 
L 412.075636 87.77658 
L 413.698909 74.570363 
L 415.322182 73.227358 
L 416.945455 79.718549 
L 418.568727 79.867772 
L 420.192 79.793161 
L 421.815273 81.807668 
L 423.438545 81.136166 
L 425.061818 76.734093 
L 426.685091 77.480207 
L 428.308364 84.120622 
L 429.931636 78.823212 
L 431.554909 78.450155 
L 433.178182 78.823212 
L 434.801455 88.970363 
L 436.424727 71.73513 
L 438.048 79.270881 
L 439.671273 77.704041 
L 441.294545 74.495751 
L 442.917818 75.987979 
L 444.541091 73.078135 
L 447.787636 78.524767 
L 449.410909 73.89886 
L 451.034182 75.689534 
L 452.657455 66.96 
L 454.280727 77.330984 
L 455.904 74.868808 
L 457.527273 79.718549 
L 459.150545 78.897824 
L 460.773818 74.271917 
L 462.397091 75.465699 
L 464.020364 72.630466 
L 465.643636 79.121658 
L 467.266909 77.256373 
L 468.890182 69.198342 
L 470.513455 72.928912 
L 472.136727 82.40456 
L 473.76 73.451192 
L 475.383273 73.301969 
L 477.006545 75.316477 
L 478.629818 79.643938 
L 480.253091 76.883316 
L 481.876364 75.614922 
L 483.499636 76.510259 
L 485.122909 70.839793 
L 486.746182 76.808705 
L 488.369455 76.361036 
L 489.992727 73.600415 
L 491.616 77.032539 
L 493.239273 76.808705 
L 494.862545 72.481244 
L 496.485818 74.271917 
L 498.109091 73.152746 
L 498.109091 73.152746 
" clip-path="url(#p7cbef96e2c)" style="fill: none; stroke: #d62728; stroke-width: 1.5; stroke-linecap: square"/>
   </g>
   <g id="patch_3">
    <path d="M 72 384.48 
L 72 51.84 
" style="fill: none; stroke: #000000; stroke-width: 0.8; stroke-linejoin: miter; stroke-linecap: square"/>
   </g>
   <g id="patch_4">
    <path d="M 518.4 384.48 
L 518.4 51.84 
" style="fill: none; stroke: #000000; stroke-width: 0.8; stroke-linejoin: miter; stroke-linecap: square"/>
   </g>
   <g id="patch_5">
    <path d="M 72 384.48 
L 518.4 384.48 
" style="fill: none; stroke: #000000; stroke-width: 0.8; stroke-linejoin: miter; stroke-linecap: square"/>
   </g>
   <g id="patch_6">
    <path d="M 72 51.84 
L 518.4 51.84 
" style="fill: none; stroke: #000000; stroke-width: 0.8; stroke-linejoin: miter; stroke-linecap: square"/>
   </g>
   <g id="text_18">
    <!-- Basic-Common -->
    <g transform="translate(250.126875 45.84)scale(0.12 -0.12)">
     <defs>
      <path id="DejaVuSans-42" d="M 1259 2228 
L 1259 519 
L 2272 519 
Q 2781 519 3026 730 
Q 3272 941 3272 1375 
Q 3272 1813 3026 2020 
Q 2781 2228 2272 2228 
L 1259 2228 
z
M 1259 4147 
L 1259 2741 
L 2194 2741 
Q 2656 2741 2882 2914 
Q 3109 3088 3109 3444 
Q 3109 3797 2882 3972 
Q 2656 4147 2194 4147 
L 1259 4147 
z
M 628 4666 
L 2241 4666 
Q 2963 4666 3353 4366 
Q 3744 4066 3744 3513 
Q 3744 3084 3544 2831 
Q 3344 2578 2956 2516 
Q 3422 2416 3680 2098 
Q 3938 1781 3938 1306 
Q 3938 681 3513 340 
Q 3088 0 2303 0 
L 628 0 
L 628 4666 
z
" transform="scale(0.015625)"/>
      <path id="DejaVuSans-2d" d="M 313 2009 
L 1997 2009 
L 1997 1497 
L 313 1497 
L 313 2009 
z
" transform="scale(0.015625)"/>
     </defs>
     <use xlink:href="#DejaVuSans-42"/>
     <use xlink:href="#DejaVuSans-61" x="68.603516"/>
     <use xlink:href="#DejaVuSans-73" x="129.882812"/>
     <use xlink:href="#DejaVuSans-69" x="181.982422"/>
     <use xlink:href="#DejaVuSans-63" x="209.765625"/>
     <use xlink:href="#DejaVuSans-2d" x="264.746094"/>
     <use xlink:href="#DejaVuSans-43" x="300.830078"/>
     <use xlink:href="#DejaVuSans-6f" x="370.654297"/>
     <use xlink:href="#DejaVuSans-6d" x="431.835938"/>
     <use xlink:href="#DejaVuSans-6d" x="529.248047"/>
     <use xlink:href="#DejaVuSans-6f" x="626.660156"/>
     <use xlink:href="#DejaVuSans-6e" x="687.841797"/>
    </g>
   </g>
   <g id="legend_1">
    <g id="patch_7">
     <path d="M 79 118.5525 
L 124.203125 118.5525 
Q 126.203125 118.5525 126.203125 116.5525 
L 126.203125 58.84 
Q 126.203125 56.84 124.203125 56.84 
L 79 56.84 
Q 77 56.84 77 58.84 
L 77 116.5525 
Q 77 118.5525 79 118.5525 
z
" style="fill: #ffffff; opacity: 0.8; stroke: #cccccc; stroke-linejoin: miter"/>
    </g>
    <g id="line2d_35">
     <path d="M 81 64.938438 
L 91 64.938438 
L 101 64.938438 
" style="fill: none; stroke: #1f77b4; stroke-width: 1.5; stroke-linecap: square"/>
    </g>
    <g id="text_19">
     <!-- V1 -->
     <g transform="translate(109 68.438438)scale(0.1 -0.1)">
      <defs>
       <path id="DejaVuSans-56" d="M 1831 0 
L 50 4666 
L 709 4666 
L 2188 738 
L 3669 4666 
L 4325 4666 
L 2547 0 
L 1831 0 
z
" transform="scale(0.015625)"/>
      </defs>
      <use xlink:href="#DejaVuSans-56"/>
      <use xlink:href="#DejaVuSans-31" x="68.408203"/>
     </g>
    </g>
    <g id="line2d_36">
     <path d="M 81 79.616563 
L 91 79.616563 
L 101 79.616563 
" style="fill: none; stroke: #ff7f0e; stroke-width: 1.5; stroke-linecap: square"/>
    </g>
    <g id="text_20">
     <!-- V2 -->
     <g transform="translate(109 83.116563)scale(0.1 -0.1)">
      <use xlink:href="#DejaVuSans-56"/>
      <use xlink:href="#DejaVuSans-32" x="68.408203"/>
     </g>
    </g>
    <g id="line2d_37">
     <path d="M 81 94.294688 
L 91 94.294688 
L 101 94.294688 
" style="fill: none; stroke: #2ca02c; stroke-width: 1.5; stroke-linecap: square"/>
    </g>
    <g id="text_21">
     <!-- V3 -->
     <g transform="translate(109 97.794688)scale(0.1 -0.1)">
      <use xlink:href="#DejaVuSans-56"/>
      <use xlink:href="#DejaVuSans-33" x="68.408203"/>
     </g>
    </g>
    <g id="line2d_38">
     <path d="M 81 108.972813 
L 91 108.972813 
L 101 108.972813 
" style="fill: none; stroke: #d62728; stroke-width: 1.5; stroke-linecap: square"/>
    </g>
    <g id="text_22">
     <!-- V4 -->
     <g transform="translate(109 112.472813)scale(0.1 -0.1)">
      <use xlink:href="#DejaVuSans-56"/>
      <use xlink:href="#DejaVuSans-34" x="68.408203"/>
     </g>
    </g>
   </g>
  </g>
 </g>
 <defs>
  <clipPath id="p7cbef96e2c">
   <rect x="72" y="51.84" width="446.4" height="332.64"/>
  </clipPath>
 </defs>
</svg>
