<?xml version="1.0" encoding="utf-8" standalone="no"?>
<!DOCTYPE svg PUBLIC "-//W3C//DTD SVG 1.1//EN"
  "http://www.w3.org/Graphics/SVG/1.1/DTD/svg11.dtd">
<svg xmlns:xlink="http://www.w3.org/1999/xlink" width="576pt" height="432pt" viewBox="0 0 576 432" xmlns="http://www.w3.org/2000/svg" version="1.1">
 <metadata>
  <rdf:RDF xmlns:dc="http://purl.org/dc/elements/1.1/" xmlns:cc="http://creativecommons.org/ns#" xmlns:rdf="http://www.w3.org/1999/02/22-rdf-syntax-ns#">
   <cc:Work>
    <dc:type rdf:resource="http://purl.org/dc/dcmitype/StillImage"/>
    <dc:date>2023-08-06T11:42:23.954942</dc:date>
    <dc:format>image/svg+xml</dc:format>
    <dc:creator>
     <cc:Agent>
      <dc:title>Matplotlib v3.7.2, https://matplotlib.org/</dc:title>
     </cc:Agent>
    </dc:creator>
   </cc:Work>
  </rdf:RDF>
 </metadata>
 <defs>
  <style type="text/css">*{stroke-linejoin: round; stroke-linecap: butt}</style>
 </defs>
 <g id="figure_1">
  <g id="patch_1">
   <path d="M 0 432 
L 576 432 
L 576 0 
L 0 0 
z
" style="fill: #ffffff"/>
  </g>
  <g id="axes_1">
   <g id="patch_2">
    <path d="M 72 384.48 
L 518.4 384.48 
L 518.4 51.84 
L 72 51.84 
z
" style="fill: #ffffff"/>
   </g>
   <g id="matplotlib.axis_1">
    <g id="xtick_1">
     <g id="line2d_1">
      <path d="M 92.290909 384.48 
L 92.290909 51.84 
" clip-path="url(#p90494d8758)" style="fill: none; stroke: #b0b0b0; stroke-opacity: 0.5; stroke-width: 0.8; stroke-linecap: square"/>
     </g>
     <g id="line2d_2">
      <defs>
       <path id="m2335d3aaf1" d="M 0 0 
L 0 3.5 
" style="stroke: #000000; stroke-width: 0.8"/>
      </defs>
      <g>
       <use xlink:href="#m2335d3aaf1" x="92.290909" y="384.48" style="stroke: #000000; stroke-width: 0.8"/>
      </g>
     </g>
     <g id="text_1">
      <!-- 0 -->
      <g transform="translate(89.109659 399.078438) scale(0.1 -0.1)">
       <defs>
        <path id="DejaVuSans-30" d="M 2034 4250 
Q 1547 4250 1301 3770 
Q 1056 3291 1056 2328 
Q 1056 1369 1301 889 
Q 1547 409 2034 409 
Q 2525 409 2770 889 
Q 3016 1369 3016 2328 
Q 3016 3291 2770 3770 
Q 2525 4250 2034 4250 
z
M 2034 4750 
Q 2819 4750 3233 4129 
Q 3647 3509 3647 2328 
Q 3647 1150 3233 529 
Q 2819 -91 2034 -91 
Q 1250 -91 836 529 
Q 422 1150 422 2328 
Q 422 3509 836 4129 
Q 1250 4750 2034 4750 
z
" transform="scale(0.015625)"/>
       </defs>
       <use xlink:href="#DejaVuSans-30"/>
      </g>
     </g>
    </g>
    <g id="xtick_2">
     <g id="line2d_3">
      <path d="M 152.680519 384.48 
L 152.680519 51.84 
" clip-path="url(#p90494d8758)" style="fill: none; stroke: #b0b0b0; stroke-opacity: 0.5; stroke-width: 0.8; stroke-linecap: square"/>
     </g>
     <g id="line2d_4">
      <g>
       <use xlink:href="#m2335d3aaf1" x="152.680519" y="384.48" style="stroke: #000000; stroke-width: 0.8"/>
      </g>
     </g>
     <g id="text_2">
      <!-- 25 -->
      <g transform="translate(146.318019 399.078438) scale(0.1 -0.1)">
       <defs>
        <path id="DejaVuSans-32" d="M 1228 531 
L 3431 531 
L 3431 0 
L 469 0 
L 469 531 
Q 828 903 1448 1529 
Q 2069 2156 2228 2338 
Q 2531 2678 2651 2914 
Q 2772 3150 2772 3378 
Q 2772 3750 2511 3984 
Q 2250 4219 1831 4219 
Q 1534 4219 1204 4116 
Q 875 4013 500 3803 
L 500 4441 
Q 881 4594 1212 4672 
Q 1544 4750 1819 4750 
Q 2544 4750 2975 4387 
Q 3406 4025 3406 3419 
Q 3406 3131 3298 2873 
Q 3191 2616 2906 2266 
Q 2828 2175 2409 1742 
Q 1991 1309 1228 531 
z
" transform="scale(0.015625)"/>
        <path id="DejaVuSans-35" d="M 691 4666 
L 3169 4666 
L 3169 4134 
L 1269 4134 
L 1269 2991 
Q 1406 3038 1543 3061 
Q 1681 3084 1819 3084 
Q 2600 3084 3056 2656 
Q 3513 2228 3513 1497 
Q 3513 744 3044 326 
Q 2575 -91 1722 -91 
Q 1428 -91 1123 -41 
Q 819 9 494 109 
L 494 744 
Q 775 591 1075 516 
Q 1375 441 1709 441 
Q 2250 441 2565 725 
Q 2881 1009 2881 1497 
Q 2881 1984 2565 2268 
Q 2250 2553 1709 2553 
Q 1456 2553 1204 2497 
Q 953 2441 691 2322 
L 691 4666 
z
" transform="scale(0.015625)"/>
       </defs>
       <use xlink:href="#DejaVuSans-32"/>
       <use xlink:href="#DejaVuSans-35" x="63.623047"/>
      </g>
     </g>
    </g>
    <g id="xtick_3">
     <g id="line2d_5">
      <path d="M 213.07013 384.48 
L 213.07013 51.84 
" clip-path="url(#p90494d8758)" style="fill: none; stroke: #b0b0b0; stroke-opacity: 0.5; stroke-width: 0.8; stroke-linecap: square"/>
     </g>
     <g id="line2d_6">
      <g>
       <use xlink:href="#m2335d3aaf1" x="213.07013" y="384.48" style="stroke: #000000; stroke-width: 0.8"/>
      </g>
     </g>
     <g id="text_3">
      <!-- 50 -->
      <g transform="translate(206.70763 399.078438) scale(0.1 -0.1)">
       <use xlink:href="#DejaVuSans-35"/>
       <use xlink:href="#DejaVuSans-30" x="63.623047"/>
      </g>
     </g>
    </g>
    <g id="xtick_4">
     <g id="line2d_7">
      <path d="M 273.45974 384.48 
L 273.45974 51.84 
" clip-path="url(#p90494d8758)" style="fill: none; stroke: #b0b0b0; stroke-opacity: 0.5; stroke-width: 0.8; stroke-linecap: square"/>
     </g>
     <g id="line2d_8">
      <g>
       <use xlink:href="#m2335d3aaf1" x="273.45974" y="384.48" style="stroke: #000000; stroke-width: 0.8"/>
      </g>
     </g>
     <g id="text_4">
      <!-- 75 -->
      <g transform="translate(267.09724 399.078438) scale(0.1 -0.1)">
       <defs>
        <path id="DejaVuSans-37" d="M 525 4666 
L 3525 4666 
L 3525 4397 
L 1831 0 
L 1172 0 
L 2766 4134 
L 525 4134 
L 525 4666 
z
" transform="scale(0.015625)"/>
       </defs>
       <use xlink:href="#DejaVuSans-37"/>
       <use xlink:href="#DejaVuSans-35" x="63.623047"/>
      </g>
     </g>
    </g>
    <g id="xtick_5">
     <g id="line2d_9">
      <path d="M 333.849351 384.48 
L 333.849351 51.84 
" clip-path="url(#p90494d8758)" style="fill: none; stroke: #b0b0b0; stroke-opacity: 0.5; stroke-width: 0.8; stroke-linecap: square"/>
     </g>
     <g id="line2d_10">
      <g>
       <use xlink:href="#m2335d3aaf1" x="333.849351" y="384.48" style="stroke: #000000; stroke-width: 0.8"/>
      </g>
     </g>
     <g id="text_5">
      <!-- 100 -->
      <g transform="translate(324.305601 399.078438) scale(0.1 -0.1)">
       <defs>
        <path id="DejaVuSans-31" d="M 794 531 
L 1825 531 
L 1825 4091 
L 703 3866 
L 703 4441 
L 1819 4666 
L 2450 4666 
L 2450 531 
L 3481 531 
L 3481 0 
L 794 0 
L 794 531 
z
" transform="scale(0.015625)"/>
       </defs>
       <use xlink:href="#DejaVuSans-31"/>
       <use xlink:href="#DejaVuSans-30" x="63.623047"/>
       <use xlink:href="#DejaVuSans-30" x="127.246094"/>
      </g>
     </g>
    </g>
    <g id="xtick_6">
     <g id="line2d_11">
      <path d="M 394.238961 384.48 
L 394.238961 51.84 
" clip-path="url(#p90494d8758)" style="fill: none; stroke: #b0b0b0; stroke-opacity: 0.5; stroke-width: 0.8; stroke-linecap: square"/>
     </g>
     <g id="line2d_12">
      <g>
       <use xlink:href="#m2335d3aaf1" x="394.238961" y="384.48" style="stroke: #000000; stroke-width: 0.8"/>
      </g>
     </g>
     <g id="text_6">
      <!-- 125 -->
      <g transform="translate(384.695211 399.078438) scale(0.1 -0.1)">
       <use xlink:href="#DejaVuSans-31"/>
       <use xlink:href="#DejaVuSans-32" x="63.623047"/>
       <use xlink:href="#DejaVuSans-35" x="127.246094"/>
      </g>
     </g>
    </g>
    <g id="xtick_7">
     <g id="line2d_13">
      <path d="M 454.628571 384.48 
L 454.628571 51.84 
" clip-path="url(#p90494d8758)" style="fill: none; stroke: #b0b0b0; stroke-opacity: 0.5; stroke-width: 0.8; stroke-linecap: square"/>
     </g>
     <g id="line2d_14">
      <g>
       <use xlink:href="#m2335d3aaf1" x="454.628571" y="384.48" style="stroke: #000000; stroke-width: 0.8"/>
      </g>
     </g>
     <g id="text_7">
      <!-- 150 -->
      <g transform="translate(445.084821 399.078438) scale(0.1 -0.1)">
       <use xlink:href="#DejaVuSans-31"/>
       <use xlink:href="#DejaVuSans-35" x="63.623047"/>
       <use xlink:href="#DejaVuSans-30" x="127.246094"/>
      </g>
     </g>
    </g>
    <g id="xtick_8">
     <g id="line2d_15">
      <path d="M 515.018182 384.48 
L 515.018182 51.84 
" clip-path="url(#p90494d8758)" style="fill: none; stroke: #b0b0b0; stroke-opacity: 0.5; stroke-width: 0.8; stroke-linecap: square"/>
     </g>
     <g id="line2d_16">
      <g>
       <use xlink:href="#m2335d3aaf1" x="515.018182" y="384.48" style="stroke: #000000; stroke-width: 0.8"/>
      </g>
     </g>
     <g id="text_8">
      <!-- 175 -->
      <g transform="translate(505.474432 399.078438) scale(0.1 -0.1)">
       <use xlink:href="#DejaVuSans-31"/>
       <use xlink:href="#DejaVuSans-37" x="63.623047"/>
       <use xlink:href="#DejaVuSans-35" x="127.246094"/>
      </g>
     </g>
    </g>
    <g id="text_9">
     <!-- Communication rounds -->
     <g transform="translate(237.083594 412.756563) scale(0.1 -0.1)">
      <defs>
       <path id="DejaVuSans-43" d="M 4122 4306 
L 4122 3641 
Q 3803 3938 3442 4084 
Q 3081 4231 2675 4231 
Q 1875 4231 1450 3742 
Q 1025 3253 1025 2328 
Q 1025 1406 1450 917 
Q 1875 428 2675 428 
Q 3081 428 3442 575 
Q 3803 722 4122 1019 
L 4122 359 
Q 3791 134 3420 21 
Q 3050 -91 2638 -91 
Q 1578 -91 968 557 
Q 359 1206 359 2328 
Q 359 3453 968 4101 
Q 1578 4750 2638 4750 
Q 3056 4750 3426 4639 
Q 3797 4528 4122 4306 
z
" transform="scale(0.015625)"/>
       <path id="DejaVuSans-6f" d="M 1959 3097 
Q 1497 3097 1228 2736 
Q 959 2375 959 1747 
Q 959 1119 1226 758 
Q 1494 397 1959 397 
Q 2419 397 2687 759 
Q 2956 1122 2956 1747 
Q 2956 2369 2687 2733 
Q 2419 3097 1959 3097 
z
M 1959 3584 
Q 2709 3584 3137 3096 
Q 3566 2609 3566 1747 
Q 3566 888 3137 398 
Q 2709 -91 1959 -91 
Q 1206 -91 779 398 
Q 353 888 353 1747 
Q 353 2609 779 3096 
Q 1206 3584 1959 3584 
z
" transform="scale(0.015625)"/>
       <path id="DejaVuSans-6d" d="M 3328 2828 
Q 3544 3216 3844 3400 
Q 4144 3584 4550 3584 
Q 5097 3584 5394 3201 
Q 5691 2819 5691 2113 
L 5691 0 
L 5113 0 
L 5113 2094 
Q 5113 2597 4934 2840 
Q 4756 3084 4391 3084 
Q 3944 3084 3684 2787 
Q 3425 2491 3425 1978 
L 3425 0 
L 2847 0 
L 2847 2094 
Q 2847 2600 2669 2842 
Q 2491 3084 2119 3084 
Q 1678 3084 1418 2786 
Q 1159 2488 1159 1978 
L 1159 0 
L 581 0 
L 581 3500 
L 1159 3500 
L 1159 2956 
Q 1356 3278 1631 3431 
Q 1906 3584 2284 3584 
Q 2666 3584 2933 3390 
Q 3200 3197 3328 2828 
z
" transform="scale(0.015625)"/>
       <path id="DejaVuSans-75" d="M 544 1381 
L 544 3500 
L 1119 3500 
L 1119 1403 
Q 1119 906 1312 657 
Q 1506 409 1894 409 
Q 2359 409 2629 706 
Q 2900 1003 2900 1516 
L 2900 3500 
L 3475 3500 
L 3475 0 
L 2900 0 
L 2900 538 
Q 2691 219 2414 64 
Q 2138 -91 1772 -91 
Q 1169 -91 856 284 
Q 544 659 544 1381 
z
M 1991 3584 
L 1991 3584 
z
" transform="scale(0.015625)"/>
       <path id="DejaVuSans-6e" d="M 3513 2113 
L 3513 0 
L 2938 0 
L 2938 2094 
Q 2938 2591 2744 2837 
Q 2550 3084 2163 3084 
Q 1697 3084 1428 2787 
Q 1159 2491 1159 1978 
L 1159 0 
L 581 0 
L 581 3500 
L 1159 3500 
L 1159 2956 
Q 1366 3272 1645 3428 
Q 1925 3584 2291 3584 
Q 2894 3584 3203 3211 
Q 3513 2838 3513 2113 
z
" transform="scale(0.015625)"/>
       <path id="DejaVuSans-69" d="M 603 3500 
L 1178 3500 
L 1178 0 
L 603 0 
L 603 3500 
z
M 603 4863 
L 1178 4863 
L 1178 4134 
L 603 4134 
L 603 4863 
z
" transform="scale(0.015625)"/>
       <path id="DejaVuSans-63" d="M 3122 3366 
L 3122 2828 
Q 2878 2963 2633 3030 
Q 2388 3097 2138 3097 
Q 1578 3097 1268 2742 
Q 959 2388 959 1747 
Q 959 1106 1268 751 
Q 1578 397 2138 397 
Q 2388 397 2633 464 
Q 2878 531 3122 666 
L 3122 134 
Q 2881 22 2623 -34 
Q 2366 -91 2075 -91 
Q 1284 -91 818 406 
Q 353 903 353 1747 
Q 353 2603 823 3093 
Q 1294 3584 2113 3584 
Q 2378 3584 2631 3529 
Q 2884 3475 3122 3366 
z
" transform="scale(0.015625)"/>
       <path id="DejaVuSans-61" d="M 2194 1759 
Q 1497 1759 1228 1600 
Q 959 1441 959 1056 
Q 959 750 1161 570 
Q 1363 391 1709 391 
Q 2188 391 2477 730 
Q 2766 1069 2766 1631 
L 2766 1759 
L 2194 1759 
z
M 3341 1997 
L 3341 0 
L 2766 0 
L 2766 531 
Q 2569 213 2275 61 
Q 1981 -91 1556 -91 
Q 1019 -91 701 211 
Q 384 513 384 1019 
Q 384 1609 779 1909 
Q 1175 2209 1959 2209 
L 2766 2209 
L 2766 2266 
Q 2766 2663 2505 2880 
Q 2244 3097 1772 3097 
Q 1472 3097 1187 3025 
Q 903 2953 641 2809 
L 641 3341 
Q 956 3463 1253 3523 
Q 1550 3584 1831 3584 
Q 2591 3584 2966 3190 
Q 3341 2797 3341 1997 
z
" transform="scale(0.015625)"/>
       <path id="DejaVuSans-74" d="M 1172 4494 
L 1172 3500 
L 2356 3500 
L 2356 3053 
L 1172 3053 
L 1172 1153 
Q 1172 725 1289 603 
Q 1406 481 1766 481 
L 2356 481 
L 2356 0 
L 1766 0 
Q 1100 0 847 248 
Q 594 497 594 1153 
L 594 3053 
L 172 3053 
L 172 3500 
L 594 3500 
L 594 4494 
L 1172 4494 
z
" transform="scale(0.015625)"/>
       <path id="DejaVuSans-20" transform="scale(0.015625)"/>
       <path id="DejaVuSans-72" d="M 2631 2963 
Q 2534 3019 2420 3045 
Q 2306 3072 2169 3072 
Q 1681 3072 1420 2755 
Q 1159 2438 1159 1844 
L 1159 0 
L 581 0 
L 581 3500 
L 1159 3500 
L 1159 2956 
Q 1341 3275 1631 3429 
Q 1922 3584 2338 3584 
Q 2397 3584 2469 3576 
Q 2541 3569 2628 3553 
L 2631 2963 
z
" transform="scale(0.015625)"/>
       <path id="DejaVuSans-64" d="M 2906 2969 
L 2906 4863 
L 3481 4863 
L 3481 0 
L 2906 0 
L 2906 525 
Q 2725 213 2448 61 
Q 2172 -91 1784 -91 
Q 1150 -91 751 415 
Q 353 922 353 1747 
Q 353 2572 751 3078 
Q 1150 3584 1784 3584 
Q 2172 3584 2448 3432 
Q 2725 3281 2906 2969 
z
M 947 1747 
Q 947 1113 1208 752 
Q 1469 391 1925 391 
Q 2381 391 2643 752 
Q 2906 1113 2906 1747 
Q 2906 2381 2643 2742 
Q 2381 3103 1925 3103 
Q 1469 3103 1208 2742 
Q 947 2381 947 1747 
z
" transform="scale(0.015625)"/>
       <path id="DejaVuSans-73" d="M 2834 3397 
L 2834 2853 
Q 2591 2978 2328 3040 
Q 2066 3103 1784 3103 
Q 1356 3103 1142 2972 
Q 928 2841 928 2578 
Q 928 2378 1081 2264 
Q 1234 2150 1697 2047 
L 1894 2003 
Q 2506 1872 2764 1633 
Q 3022 1394 3022 966 
Q 3022 478 2636 193 
Q 2250 -91 1575 -91 
Q 1294 -91 989 -36 
Q 684 19 347 128 
L 347 722 
Q 666 556 975 473 
Q 1284 391 1588 391 
Q 1994 391 2212 530 
Q 2431 669 2431 922 
Q 2431 1156 2273 1281 
Q 2116 1406 1581 1522 
L 1381 1569 
Q 847 1681 609 1914 
Q 372 2147 372 2553 
Q 372 3047 722 3315 
Q 1072 3584 1716 3584 
Q 2034 3584 2315 3537 
Q 2597 3491 2834 3397 
z
" transform="scale(0.015625)"/>
      </defs>
      <use xlink:href="#DejaVuSans-43"/>
      <use xlink:href="#DejaVuSans-6f" x="69.824219"/>
      <use xlink:href="#DejaVuSans-6d" x="131.005859"/>
      <use xlink:href="#DejaVuSans-6d" x="228.417969"/>
      <use xlink:href="#DejaVuSans-75" x="325.830078"/>
      <use xlink:href="#DejaVuSans-6e" x="389.208984"/>
      <use xlink:href="#DejaVuSans-69" x="452.587891"/>
      <use xlink:href="#DejaVuSans-63" x="480.371094"/>
      <use xlink:href="#DejaVuSans-61" x="535.351562"/>
      <use xlink:href="#DejaVuSans-74" x="596.630859"/>
      <use xlink:href="#DejaVuSans-69" x="635.839844"/>
      <use xlink:href="#DejaVuSans-6f" x="663.623047"/>
      <use xlink:href="#DejaVuSans-6e" x="724.804688"/>
      <use xlink:href="#DejaVuSans-20" x="788.183594"/>
      <use xlink:href="#DejaVuSans-72" x="819.970703"/>
      <use xlink:href="#DejaVuSans-6f" x="858.833984"/>
      <use xlink:href="#DejaVuSans-75" x="920.015625"/>
      <use xlink:href="#DejaVuSans-6e" x="983.394531"/>
      <use xlink:href="#DejaVuSans-64" x="1046.773438"/>
      <use xlink:href="#DejaVuSans-73" x="1110.25"/>
     </g>
    </g>
   </g>
   <g id="matplotlib.axis_2">
    <g id="ytick_1">
     <g id="line2d_17">
      <path d="M 72 327.436364 
L 518.4 327.436364 
" clip-path="url(#p90494d8758)" style="fill: none; stroke: #b0b0b0; stroke-opacity: 0.5; stroke-width: 0.8; stroke-linecap: square"/>
     </g>
     <g id="line2d_18">
      <defs>
       <path id="m7d3f8e0e64" d="M 0 0 
L -3.5 0 
" style="stroke: #000000; stroke-width: 0.8"/>
      </defs>
      <g>
       <use xlink:href="#m7d3f8e0e64" x="72" y="327.436364" style="stroke: #000000; stroke-width: 0.8"/>
      </g>
     </g>
     <g id="text_10">
      <!-- 0.4 -->
      <g transform="translate(49.096875 331.235582) scale(0.1 -0.1)">
       <defs>
        <path id="DejaVuSans-2e" d="M 684 794 
L 1344 794 
L 1344 0 
L 684 0 
L 684 794 
z
" transform="scale(0.015625)"/>
        <path id="DejaVuSans-34" d="M 2419 4116 
L 825 1625 
L 2419 1625 
L 2419 4116 
z
M 2253 4666 
L 3047 4666 
L 3047 1625 
L 3713 1625 
L 3713 1100 
L 3047 1100 
L 3047 0 
L 2419 0 
L 2419 1100 
L 313 1100 
L 313 1709 
L 2253 4666 
z
" transform="scale(0.015625)"/>
       </defs>
       <use xlink:href="#DejaVuSans-30"/>
       <use xlink:href="#DejaVuSans-2e" x="63.623047"/>
       <use xlink:href="#DejaVuSans-34" x="95.410156"/>
      </g>
     </g>
    </g>
    <g id="ytick_2">
     <g id="line2d_19">
      <path d="M 72 270.163636 
L 518.4 270.163636 
" clip-path="url(#p90494d8758)" style="fill: none; stroke: #b0b0b0; stroke-opacity: 0.5; stroke-width: 0.8; stroke-linecap: square"/>
     </g>
     <g id="line2d_20">
      <g>
       <use xlink:href="#m7d3f8e0e64" x="72" y="270.163636" style="stroke: #000000; stroke-width: 0.8"/>
      </g>
     </g>
     <g id="text_11">
      <!-- 0.5 -->
      <g transform="translate(49.096875 273.962855) scale(0.1 -0.1)">
       <use xlink:href="#DejaVuSans-30"/>
       <use xlink:href="#DejaVuSans-2e" x="63.623047"/>
       <use xlink:href="#DejaVuSans-35" x="95.410156"/>
      </g>
     </g>
    </g>
    <g id="ytick_3">
     <g id="line2d_21">
      <path d="M 72 212.890909 
L 518.4 212.890909 
" clip-path="url(#p90494d8758)" style="fill: none; stroke: #b0b0b0; stroke-opacity: 0.5; stroke-width: 0.8; stroke-linecap: square"/>
     </g>
     <g id="line2d_22">
      <g>
       <use xlink:href="#m7d3f8e0e64" x="72" y="212.890909" style="stroke: #000000; stroke-width: 0.8"/>
      </g>
     </g>
     <g id="text_12">
      <!-- 0.6 -->
      <g transform="translate(49.096875 216.690128) scale(0.1 -0.1)">
       <defs>
        <path id="DejaVuSans-36" d="M 2113 2584 
Q 1688 2584 1439 2293 
Q 1191 2003 1191 1497 
Q 1191 994 1439 701 
Q 1688 409 2113 409 
Q 2538 409 2786 701 
Q 3034 994 3034 1497 
Q 3034 2003 2786 2293 
Q 2538 2584 2113 2584 
z
M 3366 4563 
L 3366 3988 
Q 3128 4100 2886 4159 
Q 2644 4219 2406 4219 
Q 1781 4219 1451 3797 
Q 1122 3375 1075 2522 
Q 1259 2794 1537 2939 
Q 1816 3084 2150 3084 
Q 2853 3084 3261 2657 
Q 3669 2231 3669 1497 
Q 3669 778 3244 343 
Q 2819 -91 2113 -91 
Q 1303 -91 875 529 
Q 447 1150 447 2328 
Q 447 3434 972 4092 
Q 1497 4750 2381 4750 
Q 2619 4750 2861 4703 
Q 3103 4656 3366 4563 
z
" transform="scale(0.015625)"/>
       </defs>
       <use xlink:href="#DejaVuSans-30"/>
       <use xlink:href="#DejaVuSans-2e" x="63.623047"/>
       <use xlink:href="#DejaVuSans-36" x="95.410156"/>
      </g>
     </g>
    </g>
    <g id="ytick_4">
     <g id="line2d_23">
      <path d="M 72 155.618182 
L 518.4 155.618182 
" clip-path="url(#p90494d8758)" style="fill: none; stroke: #b0b0b0; stroke-opacity: 0.5; stroke-width: 0.8; stroke-linecap: square"/>
     </g>
     <g id="line2d_24">
      <g>
       <use xlink:href="#m7d3f8e0e64" x="72" y="155.618182" style="stroke: #000000; stroke-width: 0.8"/>
      </g>
     </g>
     <g id="text_13">
      <!-- 0.7 -->
      <g transform="translate(49.096875 159.417401) scale(0.1 -0.1)">
       <use xlink:href="#DejaVuSans-30"/>
       <use xlink:href="#DejaVuSans-2e" x="63.623047"/>
       <use xlink:href="#DejaVuSans-37" x="95.410156"/>
      </g>
     </g>
    </g>
    <g id="ytick_5">
     <g id="line2d_25">
      <path d="M 72 98.345455 
L 518.4 98.345455 
" clip-path="url(#p90494d8758)" style="fill: none; stroke: #b0b0b0; stroke-opacity: 0.5; stroke-width: 0.8; stroke-linecap: square"/>
     </g>
     <g id="line2d_26">
      <g>
       <use xlink:href="#m7d3f8e0e64" x="72" y="98.345455" style="stroke: #000000; stroke-width: 0.8"/>
      </g>
     </g>
     <g id="text_14">
      <!-- 0.8 -->
      <g transform="translate(49.096875 102.144673) scale(0.1 -0.1)">
       <defs>
        <path id="DejaVuSans-38" d="M 2034 2216 
Q 1584 2216 1326 1975 
Q 1069 1734 1069 1313 
Q 1069 891 1326 650 
Q 1584 409 2034 409 
Q 2484 409 2743 651 
Q 3003 894 3003 1313 
Q 3003 1734 2745 1975 
Q 2488 2216 2034 2216 
z
M 1403 2484 
Q 997 2584 770 2862 
Q 544 3141 544 3541 
Q 544 4100 942 4425 
Q 1341 4750 2034 4750 
Q 2731 4750 3128 4425 
Q 3525 4100 3525 3541 
Q 3525 3141 3298 2862 
Q 3072 2584 2669 2484 
Q 3125 2378 3379 2068 
Q 3634 1759 3634 1313 
Q 3634 634 3220 271 
Q 2806 -91 2034 -91 
Q 1263 -91 848 271 
Q 434 634 434 1313 
Q 434 1759 690 2068 
Q 947 2378 1403 2484 
z
M 1172 3481 
Q 1172 3119 1398 2916 
Q 1625 2713 2034 2713 
Q 2441 2713 2670 2916 
Q 2900 3119 2900 3481 
Q 2900 3844 2670 4047 
Q 2441 4250 2034 4250 
Q 1625 4250 1398 4047 
Q 1172 3844 1172 3481 
z
" transform="scale(0.015625)"/>
       </defs>
       <use xlink:href="#DejaVuSans-30"/>
       <use xlink:href="#DejaVuSans-2e" x="63.623047"/>
       <use xlink:href="#DejaVuSans-38" x="95.410156"/>
      </g>
     </g>
    </g>
    <g id="text_15">
     <!-- Accuracy -->
     <g transform="translate(43.017187 240.988125) rotate(-90) scale(0.1 -0.1)">
      <defs>
       <path id="DejaVuSans-41" d="M 2188 4044 
L 1331 1722 
L 3047 1722 
L 2188 4044 
z
M 1831 4666 
L 2547 4666 
L 4325 0 
L 3669 0 
L 3244 1197 
L 1141 1197 
L 716 0 
L 50 0 
L 1831 4666 
z
" transform="scale(0.015625)"/>
       <path id="DejaVuSans-79" d="M 2059 -325 
Q 1816 -950 1584 -1140 
Q 1353 -1331 966 -1331 
L 506 -1331 
L 506 -850 
L 844 -850 
Q 1081 -850 1212 -737 
Q 1344 -625 1503 -206 
L 1606 56 
L 191 3500 
L 800 3500 
L 1894 763 
L 2988 3500 
L 3597 3500 
L 2059 -325 
z
" transform="scale(0.015625)"/>
      </defs>
      <use xlink:href="#DejaVuSans-41"/>
      <use xlink:href="#DejaVuSans-63" x="66.658203"/>
      <use xlink:href="#DejaVuSans-63" x="121.638672"/>
      <use xlink:href="#DejaVuSans-75" x="176.619141"/>
      <use xlink:href="#DejaVuSans-72" x="239.998047"/>
      <use xlink:href="#DejaVuSans-61" x="281.111328"/>
      <use xlink:href="#DejaVuSans-63" x="342.390625"/>
      <use xlink:href="#DejaVuSans-79" x="397.371094"/>
     </g>
    </g>
   </g>
   <g id="line2d_27">
    <path d="M 92.290909 330.414545 
L 94.706494 307.219091 
L 97.122078 217.071818 
L 99.537662 238.835455 
L 101.953247 269.877273 
L 104.368831 186.66 
L 106.784416 194.22 
L 109.2 226.808182 
L 111.615584 233.967273 
L 114.031169 190.898182 
L 116.446753 225.548182 
L 118.862338 149.318182 
L 121.277922 161.631818 
L 123.693506 133.625455 
L 126.109091 157.737273 
L 128.524675 167.072727 
L 130.94026 129.100909 
L 133.355844 130.59 
L 135.771429 133.568182 
L 138.187013 180.073636 
L 140.602597 121.254545 
L 143.018182 212.604545 
L 145.433766 154.701818 
L 147.849351 126.409091 
L 150.264935 161.345455 
L 152.680519 117.302727 
L 155.096104 159.856364 
L 157.511688 142.388182 
L 159.927273 155.274545 
L 162.342857 160.772727 
L 164.758442 163.750909 
L 167.174026 156.534545 
L 169.58961 158.31 
L 172.005195 129.96 
L 174.420779 143.590909 
L 176.836364 178.813636 
L 179.251948 155.904545 
L 181.667532 100.750909 
L 184.083117 105.275455 
L 186.498701 97.715455 
L 188.914286 117.646364 
L 191.32987 158.023636 
L 193.745455 105.619091 
L 196.161039 107.738182 
L 198.576623 125.435455 
L 200.992208 139.982727 
L 203.407792 100.120909 
L 205.823377 92.331818 
L 210.654545 111.002727 
L 213.07013 94.737273 
L 215.485714 112.549091 
L 217.901299 112.778182 
L 220.316883 93.477273 
L 222.732468 104.072727 
L 225.148052 90.785455 
L 227.563636 93.534545 
L 229.979221 104.989091 
L 232.394805 109.17 
L 234.81039 102.87 
L 237.225974 106.478182 
L 239.641558 139.066364 
L 242.057143 92.904545 
L 244.472727 98.689091 
L 246.888312 94.68 
L 249.303896 91.129091 
L 251.719481 102.87 
L 254.135065 95.94 
L 256.550649 103.442727 
L 258.966234 113.121818 
L 261.381818 104.645455 
L 263.797403 120.051818 
L 266.212987 96.856364 
L 268.628571 119.479091 
L 271.044156 121.598182 
L 273.45974 92.331818 
L 275.875325 126.409091 
L 278.290909 89.926364 
L 280.706494 104.072727 
L 283.122078 99.834545 
L 285.537662 101.667273 
L 287.953247 103.786364 
L 290.368831 93.820909 
L 292.784416 101.667273 
L 297.615584 80.82 
L 300.031169 92.618182 
L 302.446753 114.610909 
L 304.862338 90.785455 
L 307.277922 92.618182 
L 309.693506 88.666364 
L 312.109091 88.38 
L 314.524675 91.071818 
L 316.94026 117.932727 
L 319.355844 116.443636 
L 321.771429 91.129091 
L 324.187013 137.52 
L 326.602597 86.260909 
L 329.018182 86.890909 
L 331.433766 99.548182 
L 333.849351 85.974545 
L 336.264935 116.157273 
L 338.680519 103.786364 
L 341.096104 96.512727 
L 343.511688 115.870909 
L 345.927273 91.701818 
L 348.342857 119.135455 
L 350.758442 92.618182 
L 353.174026 140.555455 
L 355.58961 98.345455 
L 358.005195 129.96 
L 360.420779 90.785455 
L 362.836364 92.331818 
L 365.251948 101.953636 
L 367.667532 109.8 
L 370.083117 94.107273 
L 372.498701 131.162727 
L 374.914286 103.442727 
L 377.32987 99.605455 
L 379.745455 106.764545 
L 382.161039 107.394545 
L 384.576623 122.113636 
L 386.992208 90.785455 
L 389.407792 93.820909 
L 391.823377 90.212727 
L 394.238961 87.807273 
L 396.654545 90.499091 
L 399.07013 101.037273 
L 401.485714 102.87 
L 403.901299 96.512727 
L 406.316883 135.687273 
L 408.732468 89.582727 
L 411.148052 91.415455 
L 413.563636 85.344545 
L 415.979221 87.807273 
L 418.394805 110.716364 
L 420.81039 90.499091 
L 423.225974 94.393636 
L 425.641558 90.785455 
L 428.057143 95.94 
L 430.472727 94.737273 
L 432.888312 91.129091 
L 435.303896 90.212727 
L 437.719481 126.122727 
L 440.135065 95.653636 
L 442.550649 82.366364 
L 444.966234 146.912727 
L 447.381818 88.093636 
L 449.797403 89.869091 
L 452.212987 97.429091 
L 454.628571 94.393636 
L 457.044156 99.548182 
L 459.45974 107.394545 
L 461.875325 106.478182 
L 464.290909 91.415455 
L 466.706494 101.323636 
L 469.122078 92.904545 
L 471.537662 91.759091 
L 473.953247 133.911818 
L 476.368831 93.878182 
L 478.784416 89.296364 
L 481.2 82.366364 
L 483.615584 89.296364 
L 486.031169 92.618182 
L 488.446753 93.534545 
L 490.862338 92.904545 
L 493.277922 99.834545 
L 495.693506 110.372727 
L 498.109091 88.093636 
L 498.109091 88.093636 
" clip-path="url(#p90494d8758)" style="fill: none; stroke: #1f77b4; stroke-width: 1.5; stroke-linecap: square"/>
   </g>
   <g id="line2d_28">
    <path d="M 92.290909 281.618182 
L 94.706494 369.36 
L 97.122078 338.318182 
L 99.537662 295.134545 
L 101.953247 227.380909 
L 104.368831 274.115455 
L 106.784416 237.289091 
L 109.2 167.702727 
L 111.615584 226.178182 
L 114.031169 262.030909 
L 116.446753 182.994545 
L 118.862338 191.184545 
L 121.277922 188.492727 
L 123.693506 160.486364 
L 126.109091 164.953636 
L 128.524675 168.275455 
L 130.94026 126.695455 
L 133.355844 125.779091 
L 135.771429 192.730909 
L 138.187013 117.073636 
L 140.602597 101.323636 
L 143.018182 153.212727 
L 145.433766 178.813636 
L 147.849351 202.639091 
L 150.264935 95.31 
L 152.680519 130.303636 
L 155.096104 119.479091 
L 157.511688 128.184545 
L 159.927273 154.129091 
L 162.342857 108.253636 
L 164.758442 205.960909 
L 167.174026 105.619091 
L 169.58961 132.995455 
L 172.005195 117.302727 
L 174.420779 182.421818 
L 176.836364 140.841818 
L 179.251948 107.108182 
L 181.667532 113.694545 
L 184.083117 101.037273 
L 186.498701 95.94 
L 188.914286 111.002727 
L 191.32987 94.107273 
L 193.745455 123.717273 
L 196.161039 112.205455 
L 198.576623 111.346364 
L 200.992208 117.932727 
L 203.407792 118.219091 
L 205.823377 101.953636 
L 208.238961 156.534545 
L 210.654545 87.807273 
L 213.07013 137.577273 
L 215.485714 88.38 
L 217.901299 91.129091 
L 220.316883 123.03 
L 222.732468 97.715455 
L 225.148052 111.919091 
L 227.563636 115.813636 
L 229.979221 100.120909 
L 232.394805 112.205455 
L 234.81039 126.409091 
L 237.225974 128.528182 
L 239.641558 108.597273 
L 242.057143 91.988182 
L 244.472727 120.051818 
L 246.888312 93.190909 
L 249.303896 133.911818 
L 251.719481 79.674545 
L 254.135065 171.883636 
L 256.550649 112.549091 
L 258.966234 67.876364 
L 261.381818 87.807273 
L 263.797403 150.520909 
L 266.212987 117.073636 
L 268.628571 89.926364 
L 271.044156 98.345455 
L 273.45974 91.415455 
L 275.875325 76.639091 
L 278.290909 147.771818 
L 280.706494 79.330909 
L 283.122078 79.044545 
L 285.537662 93.190909 
L 287.953247 114.038182 
L 290.368831 219.534545 
L 292.784416 152.296364 
L 295.2 98.345455 
L 297.615584 109.513636 
L 300.031169 98.345455 
L 302.446753 92.331818 
L 304.862338 82.08 
L 307.277922 75.15 
L 309.693506 82.939091 
L 312.109091 77.555455 
L 314.524675 94.107273 
L 316.94026 128.757273 
L 319.355844 96.856364 
L 321.771429 120.051818 
L 324.187013 86.547273 
L 326.602597 76.009091 
L 329.018182 99.261818 
L 331.433766 90.212727 
L 333.849351 108.883636 
L 336.264935 71.541818 
L 338.680519 82.08 
L 341.096104 75.436364 
L 343.511688 72.687273 
L 345.927273 73.89 
L 348.342857 107.967273 
L 350.758442 81.163636 
L 353.174026 130.59 
L 355.58961 73.603636 
L 358.005195 118.505455 
L 360.420779 123.66 
L 362.836364 76.696364 
L 365.251948 78.471818 
L 367.667532 93.477273 
L 370.083117 99.261818 
L 374.914286 82.08 
L 377.32987 75.436364 
L 379.745455 69.365455 
L 382.161039 74.233636 
L 384.576623 71.828182 
L 386.992208 135.114545 
L 389.407792 81.736364 
L 391.823377 74.806364 
L 394.238961 71.828182 
L 396.654545 76.295455 
L 399.07013 82.366364 
L 401.485714 85.401818 
L 403.901299 131.792727 
L 406.316883 85.688182 
L 408.732468 79.960909 
L 411.148052 106.191818 
L 413.563636 96.226364 
L 415.979221 78.128182 
L 418.394805 78.758182 
L 420.81039 71.198182 
L 423.225974 80.82 
L 425.641558 72.114545 
L 428.057143 72.400909 
L 430.472727 75.436364 
L 432.888312 147.199091 
L 435.303896 73.603636 
L 437.719481 91.988182 
L 440.135065 78.128182 
L 442.550649 77.555455 
L 444.966234 76.352727 
L 447.381818 90.785455 
L 449.797403 69.995455 
L 452.212987 69.079091 
L 454.628571 134.484545 
L 457.044156 81.163636 
L 459.45974 125.435455 
L 461.875325 71.541818 
L 464.290909 73.947273 
L 466.706494 87.177273 
L 469.122078 73.030909 
L 471.537662 81.45 
L 473.953247 82.366364 
L 476.368831 66.96 
L 478.784416 71.541818 
L 481.2 101.953636 
L 483.615584 87.807273 
L 486.031169 106.478182 
L 488.446753 73.030909 
L 490.862338 78.128182 
L 493.277922 151.093636 
L 495.693506 68.22 
L 498.109091 72.400909 
L 498.109091 72.400909 
" clip-path="url(#p90494d8758)" style="fill: none; stroke: #ff7f0e; stroke-width: 1.5; stroke-linecap: square"/>
   </g>
   <g id="line2d_29">
    <path d="M 92.290909 312.717273 
L 94.706494 350.975455 
L 97.122078 334.939091 
L 99.537662 273.141818 
L 101.953247 316.611818 
L 104.368831 318.387273 
L 106.784416 246.624545 
L 109.2 214.093636 
L 111.615584 152.64 
L 114.031169 192.100909 
L 116.446753 135.114545 
L 118.862338 200.863636 
L 121.277922 188.492727 
L 123.693506 190.898182 
L 126.109091 208.08 
L 128.524675 183.624545 
L 130.94026 178.240909 
L 133.355844 150.75 
L 135.771429 136.947273 
L 138.187013 130.017273 
L 140.602597 150.75 
L 143.018182 168.275455 
L 145.433766 148.974545 
L 147.849351 252.695455 
L 150.264935 177.267273 
L 152.680519 149.031818 
L 155.096104 214.38 
L 157.511688 108.940909 
L 159.927273 159.512727 
L 162.342857 134.484545 
L 164.758442 160.142727 
L 167.174026 113.465455 
L 169.58961 117.646364 
L 172.005195 155.618182 
L 174.420779 117.932727 
L 176.836364 174.632727 
L 179.251948 100.750909 
L 181.667532 153.785455 
L 184.083117 133.625455 
L 186.498701 143.877273 
L 188.914286 133.911818 
L 191.32987 147.199091 
L 193.745455 129.100909 
L 196.161039 122.457273 
L 198.576623 151.38 
L 200.992208 106.535455 
L 203.407792 151.952727 
L 205.823377 104.645455 
L 208.238961 150.177273 
L 210.654545 124.92 
L 213.07013 141.185455 
L 215.485714 111.346364 
L 217.901299 117.36 
L 220.316883 123.946364 
L 222.732468 121.827273 
L 225.148052 116.443636 
L 227.563636 114.610909 
L 229.979221 91.759091 
L 232.394805 102.010909 
L 234.81039 166.156364 
L 237.225974 144.793636 
L 239.641558 96.512727 
L 242.057143 154.129091 
L 244.472727 120.051818 
L 246.888312 120.968182 
L 249.303896 126.981818 
L 251.719481 85.974545 
L 254.135065 112.549091 
L 256.550649 112.778182 
L 258.966234 100.178182 
L 261.381818 108.940909 
L 263.797403 110.716364 
L 266.212987 119.479091 
L 268.628571 105.275455 
L 271.044156 121.827273 
L 273.45974 111.919091 
L 275.875325 199.317273 
L 278.290909 82.652727 
L 280.706494 94.107273 
L 283.122078 126.695455 
L 285.537662 109.8 
L 287.953247 148.688182 
L 290.368831 125.779091 
L 292.784416 97.486364 
L 295.2 149.318182 
L 297.615584 114.038182 
L 300.031169 167.072727 
L 302.446753 82.022727 
L 304.862338 86.890909 
L 307.277922 117.36 
L 309.693506 142.044545 
L 312.109091 87.177273 
L 314.524675 103.156364 
L 316.94026 78.700909 
L 319.355844 85.344545 
L 321.771429 112.778182 
L 324.187013 102.87 
L 326.602597 101.037273 
L 329.018182 90.785455 
L 331.433766 85.688182 
L 333.849351 98.345455 
L 336.264935 90.499091 
L 338.680519 125.435455 
L 341.096104 191.757273 
L 343.511688 80.533636 
L 345.927273 92.904545 
L 348.342857 87.75 
L 350.758442 77.211818 
L 353.174026 89.582727 
L 355.58961 130.933636 
L 358.005195 79.330909 
L 360.420779 151.38 
L 362.836364 81.736364 
L 365.251948 104.989091 
L 367.667532 80.533636 
L 370.083117 114.324545 
L 372.498701 151.723636 
L 374.914286 96.226364 
L 377.32987 107.967273 
L 379.745455 85.401818 
L 382.161039 75.722727 
L 384.576623 85.688182 
L 386.992208 84.199091 
L 389.407792 83.569091 
L 391.823377 76.352727 
L 394.238961 90.212727 
L 396.654545 127.840909 
L 399.07013 85.058182 
L 401.485714 89.869091 
L 403.901299 86.260909 
L 406.316883 80.533636 
L 408.732468 89.582727 
L 411.148052 100.750909 
L 413.563636 76.352727 
L 415.979221 89.582727 
L 418.394805 84.771818 
L 420.81039 92.904545 
L 423.225974 80.533636 
L 425.641558 79.960909 
L 428.057143 84.485455 
L 430.472727 122.800909 
L 432.888312 83.855455 
L 435.303896 81.163636 
L 437.719481 86.604545 
L 440.135065 79.330909 
L 442.550649 79.044545 
L 444.966234 78.471818 
L 447.381818 100.464545 
L 449.797403 85.688182 
L 452.212987 94.737273 
L 454.628571 99.834545 
L 457.044156 83.569091 
L 459.45974 78.414545 
L 461.875325 79.960909 
L 464.290909 77.211818 
L 466.706494 78.758182 
L 469.122078 83.855455 
L 471.537662 81.736364 
L 473.953247 73.947273 
L 476.368831 82.022727 
L 478.784416 78.128182 
L 481.2 78.758182 
L 483.615584 103.156364 
L 486.031169 82.08 
L 488.446753 79.960909 
L 490.862338 87.463636 
L 493.277922 76.295455 
L 495.693506 72.687273 
L 498.109091 74.52 
L 498.109091 74.52 
" clip-path="url(#p90494d8758)" style="fill: none; stroke: #2ca02c; stroke-width: 1.5; stroke-linecap: square"/>
   </g>
   <g id="line2d_30">
    <path d="M 92.290909 366.954545 
L 94.706494 345.534545 
L 97.122078 328.352727 
L 99.537662 252.065455 
L 101.953247 282.248182 
L 104.368831 238.778182 
L 106.784416 271.71 
L 109.2 331.388182 
L 111.615584 270.163636 
L 114.031169 237.06 
L 116.446753 279.499091 
L 118.862338 289.464545 
L 121.277922 215.296364 
L 123.693506 169.821818 
L 126.109091 183.051818 
L 128.524675 189.065455 
L 133.355844 156.534545 
L 135.771429 180.073636 
L 138.187013 182.421818 
L 140.602597 161.345455 
L 143.018182 195.709091 
L 145.433766 158.653636 
L 147.849351 152.582727 
L 150.264935 190.325455 
L 152.680519 124.862727 
L 155.096104 185.457273 
L 157.511688 136.030909 
L 159.927273 148.974545 
L 162.342857 154.129091 
L 164.758442 145.996364 
L 167.174026 135.458182 
L 169.58961 120.624545 
L 172.005195 112.778182 
L 174.420779 148.344545 
L 176.836364 139.295455 
L 179.251948 113.465455 
L 181.667532 111.919091 
L 184.083117 179.443636 
L 186.498701 133.625455 
L 188.914286 141.758182 
L 191.32987 131.792727 
L 193.745455 125.435455 
L 196.161039 122.800909 
L 198.576623 121.827273 
L 200.992208 102.24 
L 203.407792 105.619091 
L 205.823377 114.897273 
L 208.238961 109.17 
L 210.654545 134.828182 
L 213.07013 117.016364 
L 215.485714 129.043636 
L 217.901299 125.435455 
L 220.316883 123.373636 
L 222.732468 121.540909 
L 225.148052 105.275455 
L 227.563636 91.129091 
L 229.979221 126.981818 
L 232.394805 98.689091 
L 234.81039 137.233636 
L 237.225974 139.352727 
L 239.641558 111.919091 
L 242.057143 122.113636 
L 244.472727 117.932727 
L 246.888312 164.953636 
L 249.303896 105.561818 
L 251.719481 142.960909 
L 254.135065 133.339091 
L 256.550649 146.912727 
L 258.966234 128.757273 
L 261.381818 225.548182 
L 263.797403 110.716364 
L 266.212987 118.849091 
L 268.628571 103.442727 
L 271.044156 135.973636 
L 273.45974 143.304545 
L 275.875325 100.120909 
L 278.290909 89.869091 
L 280.706494 112.835455 
L 283.122078 142.960909 
L 285.537662 131.506364 
L 287.953247 146.282727 
L 290.368831 168.275455 
L 292.784416 110.716364 
L 295.2 86.260909 
L 297.615584 102.24 
L 300.031169 80.533636 
L 302.446753 162.204545 
L 304.862338 107.108182 
L 307.277922 109.8 
L 309.693506 102.24 
L 312.109091 175.491818 
L 314.524675 135.114545 
L 316.94026 87.520909 
L 319.355844 83.569091 
L 321.771429 148.688182 
L 324.187013 174.002727 
L 326.602597 133.052727 
L 329.018182 138.15 
L 331.433766 106.764545 
L 333.849351 111.346364 
L 336.264935 93.477273 
L 338.680519 99.261818 
L 341.096104 119.192727 
L 343.511688 114.897273 
L 345.927273 182.765455 
L 348.342857 104.989091 
L 350.758442 117.932727 
L 353.174026 135.458182 
L 355.58961 95.31 
L 358.005195 113.121818 
L 360.420779 118.849091 
L 362.836364 115.240909 
L 365.251948 115.813636 
L 367.667532 158.653636 
L 370.083117 91.415455 
L 372.498701 148.115455 
L 374.914286 98.345455 
L 377.32987 141.758182 
L 382.161039 92.904545 
L 384.576623 98.059091 
L 386.992208 90.556364 
L 389.407792 102.24 
L 391.823377 91.701818 
L 394.238961 95.882727 
L 396.654545 84.771818 
L 399.07013 117.016364 
L 401.485714 159.856364 
L 403.901299 84.199091 
L 406.316883 104.416364 
L 408.732468 80.247273 
L 411.148052 74.233636 
L 413.563636 82.022727 
L 415.979221 137.863636 
L 418.394805 107.967273 
L 420.81039 89.353636 
L 423.225974 79.044545 
L 425.641558 86.890909 
L 428.057143 90.785455 
L 430.472727 95.882727 
L 432.888312 86.890909 
L 435.303896 92.618182 
L 437.719481 157.164545 
L 440.135065 76.639091 
L 442.550649 101.323636 
L 444.966234 91.701818 
L 447.381818 100.750909 
L 449.797403 105.275455 
L 452.212987 84.428182 
L 454.628571 76.352727 
L 457.044156 99.261818 
L 459.45974 75.15 
L 461.875325 75.15 
L 464.290909 115.527273 
L 466.706494 85.401818 
L 469.122078 91.129091 
L 471.537662 84.485455 
L 473.953247 90.212727 
L 476.368831 76.009091 
L 478.784416 79.044545 
L 481.2 125.779091 
L 483.615584 74.806364 
L 486.031169 76.639091 
L 488.446753 95.31 
L 490.862338 84.199091 
L 493.277922 82.939091 
L 495.693506 83.569091 
L 498.109091 94.107273 
L 498.109091 94.107273 
" clip-path="url(#p90494d8758)" style="fill: none; stroke: #d62728; stroke-width: 1.5; stroke-linecap: square"/>
   </g>
   <g id="patch_3">
    <path d="M 72 384.48 
L 72 51.84 
" style="fill: none; stroke: #000000; stroke-width: 0.8; stroke-linejoin: miter; stroke-linecap: square"/>
   </g>
   <g id="patch_4">
    <path d="M 518.4 384.48 
L 518.4 51.84 
" style="fill: none; stroke: #000000; stroke-width: 0.8; stroke-linejoin: miter; stroke-linecap: square"/>
   </g>
   <g id="patch_5">
    <path d="M 72 384.48 
L 518.4 384.48 
" style="fill: none; stroke: #000000; stroke-width: 0.8; stroke-linejoin: miter; stroke-linecap: square"/>
   </g>
   <g id="patch_6">
    <path d="M 72 51.84 
L 518.4 51.84 
" style="fill: none; stroke: #000000; stroke-width: 0.8; stroke-linejoin: miter; stroke-linecap: square"/>
   </g>
   <g id="text_16">
    <!-- Clustered-Common -->
    <g transform="translate(237.350625 45.84) scale(0.12 -0.12)">
     <defs>
      <path id="DejaVuSans-6c" d="M 603 4863 
L 1178 4863 
L 1178 0 
L 603 0 
L 603 4863 
z
" transform="scale(0.015625)"/>
      <path id="DejaVuSans-65" d="M 3597 1894 
L 3597 1613 
L 953 1613 
Q 991 1019 1311 708 
Q 1631 397 2203 397 
Q 2534 397 2845 478 
Q 3156 559 3463 722 
L 3463 178 
Q 3153 47 2828 -22 
Q 2503 -91 2169 -91 
Q 1331 -91 842 396 
Q 353 884 353 1716 
Q 353 2575 817 3079 
Q 1281 3584 2069 3584 
Q 2775 3584 3186 3129 
Q 3597 2675 3597 1894 
z
M 3022 2063 
Q 3016 2534 2758 2815 
Q 2500 3097 2075 3097 
Q 1594 3097 1305 2825 
Q 1016 2553 972 2059 
L 3022 2063 
z
" transform="scale(0.015625)"/>
      <path id="DejaVuSans-2d" d="M 313 2009 
L 1997 2009 
L 1997 1497 
L 313 1497 
L 313 2009 
z
" transform="scale(0.015625)"/>
     </defs>
     <use xlink:href="#DejaVuSans-43"/>
     <use xlink:href="#DejaVuSans-6c" x="69.824219"/>
     <use xlink:href="#DejaVuSans-75" x="97.607422"/>
     <use xlink:href="#DejaVuSans-73" x="160.986328"/>
     <use xlink:href="#DejaVuSans-74" x="213.085938"/>
     <use xlink:href="#DejaVuSans-65" x="252.294922"/>
     <use xlink:href="#DejaVuSans-72" x="313.818359"/>
     <use xlink:href="#DejaVuSans-65" x="352.681641"/>
     <use xlink:href="#DejaVuSans-64" x="414.205078"/>
     <use xlink:href="#DejaVuSans-2d" x="477.681641"/>
     <use xlink:href="#DejaVuSans-43" x="513.765625"/>
     <use xlink:href="#DejaVuSans-6f" x="583.589844"/>
     <use xlink:href="#DejaVuSans-6d" x="644.771484"/>
     <use xlink:href="#DejaVuSans-6d" x="742.183594"/>
     <use xlink:href="#DejaVuSans-6f" x="839.595703"/>
     <use xlink:href="#DejaVuSans-6e" x="900.777344"/>
    </g>
   </g>
   <g id="legend_1">
    <g id="patch_7">
     <path d="M 79 118.5525 
L 124.203125 118.5525 
Q 126.203125 118.5525 126.203125 116.5525 
L 126.203125 58.84 
Q 126.203125 56.84 124.203125 56.84 
L 79 56.84 
Q 77 56.84 77 58.84 
L 77 116.5525 
Q 77 118.5525 79 118.5525 
z
" style="fill: #ffffff; opacity: 0.8; stroke: #cccccc; stroke-linejoin: miter"/>
    </g>
    <g id="line2d_31">
     <path d="M 81 64.938438 
L 91 64.938438 
L 101 64.938438 
" style="fill: none; stroke: #1f77b4; stroke-width: 1.5; stroke-linecap: square"/>
    </g>
    <g id="text_17">
     <!-- V1 -->
     <g transform="translate(109 68.438438) scale(0.1 -0.1)">
      <defs>
       <path id="DejaVuSans-56" d="M 1831 0 
L 50 4666 
L 709 4666 
L 2188 738 
L 3669 4666 
L 4325 4666 
L 2547 0 
L 1831 0 
z
" transform="scale(0.015625)"/>
      </defs>
      <use xlink:href="#DejaVuSans-56"/>
      <use xlink:href="#DejaVuSans-31" x="68.408203"/>
     </g>
    </g>
    <g id="line2d_32">
     <path d="M 81 79.616563 
L 91 79.616563 
L 101 79.616563 
" style="fill: none; stroke: #ff7f0e; stroke-width: 1.5; stroke-linecap: square"/>
    </g>
    <g id="text_18">
     <!-- V2 -->
     <g transform="translate(109 83.116563) scale(0.1 -0.1)">
      <use xlink:href="#DejaVuSans-56"/>
      <use xlink:href="#DejaVuSans-32" x="68.408203"/>
     </g>
    </g>
    <g id="line2d_33">
     <path d="M 81 94.294688 
L 91 94.294688 
L 101 94.294688 
" style="fill: none; stroke: #2ca02c; stroke-width: 1.5; stroke-linecap: square"/>
    </g>
    <g id="text_19">
     <!-- V3 -->
     <g transform="translate(109 97.794688) scale(0.1 -0.1)">
      <defs>
       <path id="DejaVuSans-33" d="M 2597 2516 
Q 3050 2419 3304 2112 
Q 3559 1806 3559 1356 
Q 3559 666 3084 287 
Q 2609 -91 1734 -91 
Q 1441 -91 1130 -33 
Q 819 25 488 141 
L 488 750 
Q 750 597 1062 519 
Q 1375 441 1716 441 
Q 2309 441 2620 675 
Q 2931 909 2931 1356 
Q 2931 1769 2642 2001 
Q 2353 2234 1838 2234 
L 1294 2234 
L 1294 2753 
L 1863 2753 
Q 2328 2753 2575 2939 
Q 2822 3125 2822 3475 
Q 2822 3834 2567 4026 
Q 2313 4219 1838 4219 
Q 1578 4219 1281 4162 
Q 984 4106 628 3988 
L 628 4550 
Q 988 4650 1302 4700 
Q 1616 4750 1894 4750 
Q 2613 4750 3031 4423 
Q 3450 4097 3450 3541 
Q 3450 3153 3228 2886 
Q 3006 2619 2597 2516 
z
" transform="scale(0.015625)"/>
      </defs>
      <use xlink:href="#DejaVuSans-56"/>
      <use xlink:href="#DejaVuSans-33" x="68.408203"/>
     </g>
    </g>
    <g id="line2d_34">
     <path d="M 81 108.972813 
L 91 108.972813 
L 101 108.972813 
" style="fill: none; stroke: #d62728; stroke-width: 1.5; stroke-linecap: square"/>
    </g>
    <g id="text_20">
     <!-- V4 -->
     <g transform="translate(109 112.472813) scale(0.1 -0.1)">
      <use xlink:href="#DejaVuSans-56"/>
      <use xlink:href="#DejaVuSans-34" x="68.408203"/>
     </g>
    </g>
   </g>
  </g>
 </g>
 <defs>
  <clipPath id="p90494d8758">
   <rect x="72" y="51.84" width="446.4" height="332.64"/>
  </clipPath>
 </defs>
</svg>
