<?xml version="1.0" encoding="utf-8" standalone="no"?>
<!DOCTYPE svg PUBLIC "-//W3C//DTD SVG 1.1//EN"
  "http://www.w3.org/Graphics/SVG/1.1/DTD/svg11.dtd">
<svg xmlns:xlink="http://www.w3.org/1999/xlink" width="576pt" height="432pt" viewBox="0 0 576 432" xmlns="http://www.w3.org/2000/svg" version="1.1">
 <metadata>
  <rdf:RDF xmlns:dc="http://purl.org/dc/elements/1.1/" xmlns:cc="http://creativecommons.org/ns#" xmlns:rdf="http://www.w3.org/1999/02/22-rdf-syntax-ns#">
   <cc:Work>
    <dc:type rdf:resource="http://purl.org/dc/dcmitype/StillImage"/>
    <dc:date>2023-08-07T06:40:54.889111</dc:date>
    <dc:format>image/svg+xml</dc:format>
    <dc:creator>
     <cc:Agent>
      <dc:title>Matplotlib v3.5.1, https://matplotlib.org/</dc:title>
     </cc:Agent>
    </dc:creator>
   </cc:Work>
  </rdf:RDF>
 </metadata>
 <defs>
  <style type="text/css">*{stroke-linejoin: round; stroke-linecap: butt}</style>
 </defs>
 <g id="figure_1">
  <g id="patch_1">
   <path d="M 0 432 
L 576 432 
L 576 0 
L 0 0 
z
" style="fill: #ffffff"/>
  </g>
  <g id="axes_1">
   <g id="patch_2">
    <path d="M 72 384.48 
L 518.4 384.48 
L 518.4 51.84 
L 72 51.84 
z
" style="fill: #ffffff"/>
   </g>
   <g id="matplotlib.axis_1">
    <g id="xtick_1">
     <g id="line2d_1">
      <path d="M 92.290909 384.48 
L 92.290909 51.84 
" clip-path="url(#paa05db3268)" style="fill: none; stroke: #b0b0b0; stroke-opacity: 0.5; stroke-width: 0.8; stroke-linecap: square"/>
     </g>
     <g id="line2d_2">
      <defs>
       <path id="md3897525c3" d="M 0 0 
L 0 3.5 
" style="stroke: #000000; stroke-width: 0.8"/>
      </defs>
      <g>
       <use xlink:href="#md3897525c3" x="92.290909" y="384.48" style="stroke: #000000; stroke-width: 0.8"/>
      </g>
     </g>
     <g id="text_1">
      <!-- 0 -->
      <g transform="translate(89.109659 399.078438)scale(0.1 -0.1)">
       <defs>
        <path id="DejaVuSans-30" d="M 2034 4250 
Q 1547 4250 1301 3770 
Q 1056 3291 1056 2328 
Q 1056 1369 1301 889 
Q 1547 409 2034 409 
Q 2525 409 2770 889 
Q 3016 1369 3016 2328 
Q 3016 3291 2770 3770 
Q 2525 4250 2034 4250 
z
M 2034 4750 
Q 2819 4750 3233 4129 
Q 3647 3509 3647 2328 
Q 3647 1150 3233 529 
Q 2819 -91 2034 -91 
Q 1250 -91 836 529 
Q 422 1150 422 2328 
Q 422 3509 836 4129 
Q 1250 4750 2034 4750 
z
" transform="scale(0.015625)"/>
       </defs>
       <use xlink:href="#DejaVuSans-30"/>
      </g>
     </g>
    </g>
    <g id="xtick_2">
     <g id="line2d_3">
      <path d="M 143.018182 384.48 
L 143.018182 51.84 
" clip-path="url(#paa05db3268)" style="fill: none; stroke: #b0b0b0; stroke-opacity: 0.5; stroke-width: 0.8; stroke-linecap: square"/>
     </g>
     <g id="line2d_4">
      <g>
       <use xlink:href="#md3897525c3" x="143.018182" y="384.48" style="stroke: #000000; stroke-width: 0.8"/>
      </g>
     </g>
     <g id="text_2">
      <!-- 25 -->
      <g transform="translate(136.655682 399.078438)scale(0.1 -0.1)">
       <defs>
        <path id="DejaVuSans-32" d="M 1228 531 
L 3431 531 
L 3431 0 
L 469 0 
L 469 531 
Q 828 903 1448 1529 
Q 2069 2156 2228 2338 
Q 2531 2678 2651 2914 
Q 2772 3150 2772 3378 
Q 2772 3750 2511 3984 
Q 2250 4219 1831 4219 
Q 1534 4219 1204 4116 
Q 875 4013 500 3803 
L 500 4441 
Q 881 4594 1212 4672 
Q 1544 4750 1819 4750 
Q 2544 4750 2975 4387 
Q 3406 4025 3406 3419 
Q 3406 3131 3298 2873 
Q 3191 2616 2906 2266 
Q 2828 2175 2409 1742 
Q 1991 1309 1228 531 
z
" transform="scale(0.015625)"/>
        <path id="DejaVuSans-35" d="M 691 4666 
L 3169 4666 
L 3169 4134 
L 1269 4134 
L 1269 2991 
Q 1406 3038 1543 3061 
Q 1681 3084 1819 3084 
Q 2600 3084 3056 2656 
Q 3513 2228 3513 1497 
Q 3513 744 3044 326 
Q 2575 -91 1722 -91 
Q 1428 -91 1123 -41 
Q 819 9 494 109 
L 494 744 
Q 775 591 1075 516 
Q 1375 441 1709 441 
Q 2250 441 2565 725 
Q 2881 1009 2881 1497 
Q 2881 1984 2565 2268 
Q 2250 2553 1709 2553 
Q 1456 2553 1204 2497 
Q 953 2441 691 2322 
L 691 4666 
z
" transform="scale(0.015625)"/>
       </defs>
       <use xlink:href="#DejaVuSans-32"/>
       <use xlink:href="#DejaVuSans-35" x="63.623047"/>
      </g>
     </g>
    </g>
    <g id="xtick_3">
     <g id="line2d_5">
      <path d="M 193.745455 384.48 
L 193.745455 51.84 
" clip-path="url(#paa05db3268)" style="fill: none; stroke: #b0b0b0; stroke-opacity: 0.5; stroke-width: 0.8; stroke-linecap: square"/>
     </g>
     <g id="line2d_6">
      <g>
       <use xlink:href="#md3897525c3" x="193.745455" y="384.48" style="stroke: #000000; stroke-width: 0.8"/>
      </g>
     </g>
     <g id="text_3">
      <!-- 50 -->
      <g transform="translate(187.382955 399.078438)scale(0.1 -0.1)">
       <use xlink:href="#DejaVuSans-35"/>
       <use xlink:href="#DejaVuSans-30" x="63.623047"/>
      </g>
     </g>
    </g>
    <g id="xtick_4">
     <g id="line2d_7">
      <path d="M 244.472727 384.48 
L 244.472727 51.84 
" clip-path="url(#paa05db3268)" style="fill: none; stroke: #b0b0b0; stroke-opacity: 0.5; stroke-width: 0.8; stroke-linecap: square"/>
     </g>
     <g id="line2d_8">
      <g>
       <use xlink:href="#md3897525c3" x="244.472727" y="384.48" style="stroke: #000000; stroke-width: 0.8"/>
      </g>
     </g>
     <g id="text_4">
      <!-- 75 -->
      <g transform="translate(238.110227 399.078438)scale(0.1 -0.1)">
       <defs>
        <path id="DejaVuSans-37" d="M 525 4666 
L 3525 4666 
L 3525 4397 
L 1831 0 
L 1172 0 
L 2766 4134 
L 525 4134 
L 525 4666 
z
" transform="scale(0.015625)"/>
       </defs>
       <use xlink:href="#DejaVuSans-37"/>
       <use xlink:href="#DejaVuSans-35" x="63.623047"/>
      </g>
     </g>
    </g>
    <g id="xtick_5">
     <g id="line2d_9">
      <path d="M 295.2 384.48 
L 295.2 51.84 
" clip-path="url(#paa05db3268)" style="fill: none; stroke: #b0b0b0; stroke-opacity: 0.5; stroke-width: 0.8; stroke-linecap: square"/>
     </g>
     <g id="line2d_10">
      <g>
       <use xlink:href="#md3897525c3" x="295.2" y="384.48" style="stroke: #000000; stroke-width: 0.8"/>
      </g>
     </g>
     <g id="text_5">
      <!-- 100 -->
      <g transform="translate(285.65625 399.078438)scale(0.1 -0.1)">
       <defs>
        <path id="DejaVuSans-31" d="M 794 531 
L 1825 531 
L 1825 4091 
L 703 3866 
L 703 4441 
L 1819 4666 
L 2450 4666 
L 2450 531 
L 3481 531 
L 3481 0 
L 794 0 
L 794 531 
z
" transform="scale(0.015625)"/>
       </defs>
       <use xlink:href="#DejaVuSans-31"/>
       <use xlink:href="#DejaVuSans-30" x="63.623047"/>
       <use xlink:href="#DejaVuSans-30" x="127.246094"/>
      </g>
     </g>
    </g>
    <g id="xtick_6">
     <g id="line2d_11">
      <path d="M 345.927273 384.48 
L 345.927273 51.84 
" clip-path="url(#paa05db3268)" style="fill: none; stroke: #b0b0b0; stroke-opacity: 0.5; stroke-width: 0.8; stroke-linecap: square"/>
     </g>
     <g id="line2d_12">
      <g>
       <use xlink:href="#md3897525c3" x="345.927273" y="384.48" style="stroke: #000000; stroke-width: 0.8"/>
      </g>
     </g>
     <g id="text_6">
      <!-- 125 -->
      <g transform="translate(336.383523 399.078438)scale(0.1 -0.1)">
       <use xlink:href="#DejaVuSans-31"/>
       <use xlink:href="#DejaVuSans-32" x="63.623047"/>
       <use xlink:href="#DejaVuSans-35" x="127.246094"/>
      </g>
     </g>
    </g>
    <g id="xtick_7">
     <g id="line2d_13">
      <path d="M 396.654545 384.48 
L 396.654545 51.84 
" clip-path="url(#paa05db3268)" style="fill: none; stroke: #b0b0b0; stroke-opacity: 0.5; stroke-width: 0.8; stroke-linecap: square"/>
     </g>
     <g id="line2d_14">
      <g>
       <use xlink:href="#md3897525c3" x="396.654545" y="384.48" style="stroke: #000000; stroke-width: 0.8"/>
      </g>
     </g>
     <g id="text_7">
      <!-- 150 -->
      <g transform="translate(387.110795 399.078438)scale(0.1 -0.1)">
       <use xlink:href="#DejaVuSans-31"/>
       <use xlink:href="#DejaVuSans-35" x="63.623047"/>
       <use xlink:href="#DejaVuSans-30" x="127.246094"/>
      </g>
     </g>
    </g>
    <g id="xtick_8">
     <g id="line2d_15">
      <path d="M 447.381818 384.48 
L 447.381818 51.84 
" clip-path="url(#paa05db3268)" style="fill: none; stroke: #b0b0b0; stroke-opacity: 0.5; stroke-width: 0.8; stroke-linecap: square"/>
     </g>
     <g id="line2d_16">
      <g>
       <use xlink:href="#md3897525c3" x="447.381818" y="384.48" style="stroke: #000000; stroke-width: 0.8"/>
      </g>
     </g>
     <g id="text_8">
      <!-- 175 -->
      <g transform="translate(437.838068 399.078438)scale(0.1 -0.1)">
       <use xlink:href="#DejaVuSans-31"/>
       <use xlink:href="#DejaVuSans-37" x="63.623047"/>
       <use xlink:href="#DejaVuSans-35" x="127.246094"/>
      </g>
     </g>
    </g>
    <g id="xtick_9">
     <g id="line2d_17">
      <path d="M 498.109091 384.48 
L 498.109091 51.84 
" clip-path="url(#paa05db3268)" style="fill: none; stroke: #b0b0b0; stroke-opacity: 0.5; stroke-width: 0.8; stroke-linecap: square"/>
     </g>
     <g id="line2d_18">
      <g>
       <use xlink:href="#md3897525c3" x="498.109091" y="384.48" style="stroke: #000000; stroke-width: 0.8"/>
      </g>
     </g>
     <g id="text_9">
      <!-- 200 -->
      <g transform="translate(488.565341 399.078438)scale(0.1 -0.1)">
       <use xlink:href="#DejaVuSans-32"/>
       <use xlink:href="#DejaVuSans-30" x="63.623047"/>
       <use xlink:href="#DejaVuSans-30" x="127.246094"/>
      </g>
     </g>
    </g>
    <g id="text_10">
     <!-- Communication rounds -->
     <g transform="translate(237.083594 412.756563)scale(0.1 -0.1)">
      <defs>
       <path id="DejaVuSans-43" d="M 4122 4306 
L 4122 3641 
Q 3803 3938 3442 4084 
Q 3081 4231 2675 4231 
Q 1875 4231 1450 3742 
Q 1025 3253 1025 2328 
Q 1025 1406 1450 917 
Q 1875 428 2675 428 
Q 3081 428 3442 575 
Q 3803 722 4122 1019 
L 4122 359 
Q 3791 134 3420 21 
Q 3050 -91 2638 -91 
Q 1578 -91 968 557 
Q 359 1206 359 2328 
Q 359 3453 968 4101 
Q 1578 4750 2638 4750 
Q 3056 4750 3426 4639 
Q 3797 4528 4122 4306 
z
" transform="scale(0.015625)"/>
       <path id="DejaVuSans-6f" d="M 1959 3097 
Q 1497 3097 1228 2736 
Q 959 2375 959 1747 
Q 959 1119 1226 758 
Q 1494 397 1959 397 
Q 2419 397 2687 759 
Q 2956 1122 2956 1747 
Q 2956 2369 2687 2733 
Q 2419 3097 1959 3097 
z
M 1959 3584 
Q 2709 3584 3137 3096 
Q 3566 2609 3566 1747 
Q 3566 888 3137 398 
Q 2709 -91 1959 -91 
Q 1206 -91 779 398 
Q 353 888 353 1747 
Q 353 2609 779 3096 
Q 1206 3584 1959 3584 
z
" transform="scale(0.015625)"/>
       <path id="DejaVuSans-6d" d="M 3328 2828 
Q 3544 3216 3844 3400 
Q 4144 3584 4550 3584 
Q 5097 3584 5394 3201 
Q 5691 2819 5691 2113 
L 5691 0 
L 5113 0 
L 5113 2094 
Q 5113 2597 4934 2840 
Q 4756 3084 4391 3084 
Q 3944 3084 3684 2787 
Q 3425 2491 3425 1978 
L 3425 0 
L 2847 0 
L 2847 2094 
Q 2847 2600 2669 2842 
Q 2491 3084 2119 3084 
Q 1678 3084 1418 2786 
Q 1159 2488 1159 1978 
L 1159 0 
L 581 0 
L 581 3500 
L 1159 3500 
L 1159 2956 
Q 1356 3278 1631 3431 
Q 1906 3584 2284 3584 
Q 2666 3584 2933 3390 
Q 3200 3197 3328 2828 
z
" transform="scale(0.015625)"/>
       <path id="DejaVuSans-75" d="M 544 1381 
L 544 3500 
L 1119 3500 
L 1119 1403 
Q 1119 906 1312 657 
Q 1506 409 1894 409 
Q 2359 409 2629 706 
Q 2900 1003 2900 1516 
L 2900 3500 
L 3475 3500 
L 3475 0 
L 2900 0 
L 2900 538 
Q 2691 219 2414 64 
Q 2138 -91 1772 -91 
Q 1169 -91 856 284 
Q 544 659 544 1381 
z
M 1991 3584 
L 1991 3584 
z
" transform="scale(0.015625)"/>
       <path id="DejaVuSans-6e" d="M 3513 2113 
L 3513 0 
L 2938 0 
L 2938 2094 
Q 2938 2591 2744 2837 
Q 2550 3084 2163 3084 
Q 1697 3084 1428 2787 
Q 1159 2491 1159 1978 
L 1159 0 
L 581 0 
L 581 3500 
L 1159 3500 
L 1159 2956 
Q 1366 3272 1645 3428 
Q 1925 3584 2291 3584 
Q 2894 3584 3203 3211 
Q 3513 2838 3513 2113 
z
" transform="scale(0.015625)"/>
       <path id="DejaVuSans-69" d="M 603 3500 
L 1178 3500 
L 1178 0 
L 603 0 
L 603 3500 
z
M 603 4863 
L 1178 4863 
L 1178 4134 
L 603 4134 
L 603 4863 
z
" transform="scale(0.015625)"/>
       <path id="DejaVuSans-63" d="M 3122 3366 
L 3122 2828 
Q 2878 2963 2633 3030 
Q 2388 3097 2138 3097 
Q 1578 3097 1268 2742 
Q 959 2388 959 1747 
Q 959 1106 1268 751 
Q 1578 397 2138 397 
Q 2388 397 2633 464 
Q 2878 531 3122 666 
L 3122 134 
Q 2881 22 2623 -34 
Q 2366 -91 2075 -91 
Q 1284 -91 818 406 
Q 353 903 353 1747 
Q 353 2603 823 3093 
Q 1294 3584 2113 3584 
Q 2378 3584 2631 3529 
Q 2884 3475 3122 3366 
z
" transform="scale(0.015625)"/>
       <path id="DejaVuSans-61" d="M 2194 1759 
Q 1497 1759 1228 1600 
Q 959 1441 959 1056 
Q 959 750 1161 570 
Q 1363 391 1709 391 
Q 2188 391 2477 730 
Q 2766 1069 2766 1631 
L 2766 1759 
L 2194 1759 
z
M 3341 1997 
L 3341 0 
L 2766 0 
L 2766 531 
Q 2569 213 2275 61 
Q 1981 -91 1556 -91 
Q 1019 -91 701 211 
Q 384 513 384 1019 
Q 384 1609 779 1909 
Q 1175 2209 1959 2209 
L 2766 2209 
L 2766 2266 
Q 2766 2663 2505 2880 
Q 2244 3097 1772 3097 
Q 1472 3097 1187 3025 
Q 903 2953 641 2809 
L 641 3341 
Q 956 3463 1253 3523 
Q 1550 3584 1831 3584 
Q 2591 3584 2966 3190 
Q 3341 2797 3341 1997 
z
" transform="scale(0.015625)"/>
       <path id="DejaVuSans-74" d="M 1172 4494 
L 1172 3500 
L 2356 3500 
L 2356 3053 
L 1172 3053 
L 1172 1153 
Q 1172 725 1289 603 
Q 1406 481 1766 481 
L 2356 481 
L 2356 0 
L 1766 0 
Q 1100 0 847 248 
Q 594 497 594 1153 
L 594 3053 
L 172 3053 
L 172 3500 
L 594 3500 
L 594 4494 
L 1172 4494 
z
" transform="scale(0.015625)"/>
       <path id="DejaVuSans-20" transform="scale(0.015625)"/>
       <path id="DejaVuSans-72" d="M 2631 2963 
Q 2534 3019 2420 3045 
Q 2306 3072 2169 3072 
Q 1681 3072 1420 2755 
Q 1159 2438 1159 1844 
L 1159 0 
L 581 0 
L 581 3500 
L 1159 3500 
L 1159 2956 
Q 1341 3275 1631 3429 
Q 1922 3584 2338 3584 
Q 2397 3584 2469 3576 
Q 2541 3569 2628 3553 
L 2631 2963 
z
" transform="scale(0.015625)"/>
       <path id="DejaVuSans-64" d="M 2906 2969 
L 2906 4863 
L 3481 4863 
L 3481 0 
L 2906 0 
L 2906 525 
Q 2725 213 2448 61 
Q 2172 -91 1784 -91 
Q 1150 -91 751 415 
Q 353 922 353 1747 
Q 353 2572 751 3078 
Q 1150 3584 1784 3584 
Q 2172 3584 2448 3432 
Q 2725 3281 2906 2969 
z
M 947 1747 
Q 947 1113 1208 752 
Q 1469 391 1925 391 
Q 2381 391 2643 752 
Q 2906 1113 2906 1747 
Q 2906 2381 2643 2742 
Q 2381 3103 1925 3103 
Q 1469 3103 1208 2742 
Q 947 2381 947 1747 
z
" transform="scale(0.015625)"/>
       <path id="DejaVuSans-73" d="M 2834 3397 
L 2834 2853 
Q 2591 2978 2328 3040 
Q 2066 3103 1784 3103 
Q 1356 3103 1142 2972 
Q 928 2841 928 2578 
Q 928 2378 1081 2264 
Q 1234 2150 1697 2047 
L 1894 2003 
Q 2506 1872 2764 1633 
Q 3022 1394 3022 966 
Q 3022 478 2636 193 
Q 2250 -91 1575 -91 
Q 1294 -91 989 -36 
Q 684 19 347 128 
L 347 722 
Q 666 556 975 473 
Q 1284 391 1588 391 
Q 1994 391 2212 530 
Q 2431 669 2431 922 
Q 2431 1156 2273 1281 
Q 2116 1406 1581 1522 
L 1381 1569 
Q 847 1681 609 1914 
Q 372 2147 372 2553 
Q 372 3047 722 3315 
Q 1072 3584 1716 3584 
Q 2034 3584 2315 3537 
Q 2597 3491 2834 3397 
z
" transform="scale(0.015625)"/>
      </defs>
      <use xlink:href="#DejaVuSans-43"/>
      <use xlink:href="#DejaVuSans-6f" x="69.824219"/>
      <use xlink:href="#DejaVuSans-6d" x="131.005859"/>
      <use xlink:href="#DejaVuSans-6d" x="228.417969"/>
      <use xlink:href="#DejaVuSans-75" x="325.830078"/>
      <use xlink:href="#DejaVuSans-6e" x="389.208984"/>
      <use xlink:href="#DejaVuSans-69" x="452.587891"/>
      <use xlink:href="#DejaVuSans-63" x="480.371094"/>
      <use xlink:href="#DejaVuSans-61" x="535.351562"/>
      <use xlink:href="#DejaVuSans-74" x="596.630859"/>
      <use xlink:href="#DejaVuSans-69" x="635.839844"/>
      <use xlink:href="#DejaVuSans-6f" x="663.623047"/>
      <use xlink:href="#DejaVuSans-6e" x="724.804688"/>
      <use xlink:href="#DejaVuSans-20" x="788.183594"/>
      <use xlink:href="#DejaVuSans-72" x="819.970703"/>
      <use xlink:href="#DejaVuSans-6f" x="858.833984"/>
      <use xlink:href="#DejaVuSans-75" x="920.015625"/>
      <use xlink:href="#DejaVuSans-6e" x="983.394531"/>
      <use xlink:href="#DejaVuSans-64" x="1046.773438"/>
      <use xlink:href="#DejaVuSans-73" x="1110.25"/>
     </g>
    </g>
   </g>
   <g id="matplotlib.axis_2">
    <g id="ytick_1">
     <g id="line2d_19">
      <path d="M 72 343.669381 
L 518.4 343.669381 
" clip-path="url(#paa05db3268)" style="fill: none; stroke: #b0b0b0; stroke-opacity: 0.5; stroke-width: 0.8; stroke-linecap: square"/>
     </g>
     <g id="line2d_20">
      <defs>
       <path id="mf57cc5f930" d="M 0 0 
L -3.5 0 
" style="stroke: #000000; stroke-width: 0.8"/>
      </defs>
      <g>
       <use xlink:href="#mf57cc5f930" x="72" y="343.669381" style="stroke: #000000; stroke-width: 0.8"/>
      </g>
     </g>
     <g id="text_11">
      <!-- 0.2 -->
      <g transform="translate(49.096875 347.468599)scale(0.1 -0.1)">
       <defs>
        <path id="DejaVuSans-2e" d="M 684 794 
L 1344 794 
L 1344 0 
L 684 0 
L 684 794 
z
" transform="scale(0.015625)"/>
       </defs>
       <use xlink:href="#DejaVuSans-30"/>
       <use xlink:href="#DejaVuSans-2e" x="63.623047"/>
       <use xlink:href="#DejaVuSans-32" x="95.410156"/>
      </g>
     </g>
    </g>
    <g id="ytick_2">
     <g id="line2d_21">
      <path d="M 72 290.147257 
L 518.4 290.147257 
" clip-path="url(#paa05db3268)" style="fill: none; stroke: #b0b0b0; stroke-opacity: 0.5; stroke-width: 0.8; stroke-linecap: square"/>
     </g>
     <g id="line2d_22">
      <g>
       <use xlink:href="#mf57cc5f930" x="72" y="290.147257" style="stroke: #000000; stroke-width: 0.8"/>
      </g>
     </g>
     <g id="text_12">
      <!-- 0.3 -->
      <g transform="translate(49.096875 293.946475)scale(0.1 -0.1)">
       <defs>
        <path id="DejaVuSans-33" d="M 2597 2516 
Q 3050 2419 3304 2112 
Q 3559 1806 3559 1356 
Q 3559 666 3084 287 
Q 2609 -91 1734 -91 
Q 1441 -91 1130 -33 
Q 819 25 488 141 
L 488 750 
Q 750 597 1062 519 
Q 1375 441 1716 441 
Q 2309 441 2620 675 
Q 2931 909 2931 1356 
Q 2931 1769 2642 2001 
Q 2353 2234 1838 2234 
L 1294 2234 
L 1294 2753 
L 1863 2753 
Q 2328 2753 2575 2939 
Q 2822 3125 2822 3475 
Q 2822 3834 2567 4026 
Q 2313 4219 1838 4219 
Q 1578 4219 1281 4162 
Q 984 4106 628 3988 
L 628 4550 
Q 988 4650 1302 4700 
Q 1616 4750 1894 4750 
Q 2613 4750 3031 4423 
Q 3450 4097 3450 3541 
Q 3450 3153 3228 2886 
Q 3006 2619 2597 2516 
z
" transform="scale(0.015625)"/>
       </defs>
       <use xlink:href="#DejaVuSans-30"/>
       <use xlink:href="#DejaVuSans-2e" x="63.623047"/>
       <use xlink:href="#DejaVuSans-33" x="95.410156"/>
      </g>
     </g>
    </g>
    <g id="ytick_3">
     <g id="line2d_23">
      <path d="M 72 236.625133 
L 518.4 236.625133 
" clip-path="url(#paa05db3268)" style="fill: none; stroke: #b0b0b0; stroke-opacity: 0.5; stroke-width: 0.8; stroke-linecap: square"/>
     </g>
     <g id="line2d_24">
      <g>
       <use xlink:href="#mf57cc5f930" x="72" y="236.625133" style="stroke: #000000; stroke-width: 0.8"/>
      </g>
     </g>
     <g id="text_13">
      <!-- 0.4 -->
      <g transform="translate(49.096875 240.424351)scale(0.1 -0.1)">
       <defs>
        <path id="DejaVuSans-34" d="M 2419 4116 
L 825 1625 
L 2419 1625 
L 2419 4116 
z
M 2253 4666 
L 3047 4666 
L 3047 1625 
L 3713 1625 
L 3713 1100 
L 3047 1100 
L 3047 0 
L 2419 0 
L 2419 1100 
L 313 1100 
L 313 1709 
L 2253 4666 
z
" transform="scale(0.015625)"/>
       </defs>
       <use xlink:href="#DejaVuSans-30"/>
       <use xlink:href="#DejaVuSans-2e" x="63.623047"/>
       <use xlink:href="#DejaVuSans-34" x="95.410156"/>
      </g>
     </g>
    </g>
    <g id="ytick_4">
     <g id="line2d_25">
      <path d="M 72 183.103009 
L 518.4 183.103009 
" clip-path="url(#paa05db3268)" style="fill: none; stroke: #b0b0b0; stroke-opacity: 0.5; stroke-width: 0.8; stroke-linecap: square"/>
     </g>
     <g id="line2d_26">
      <g>
       <use xlink:href="#mf57cc5f930" x="72" y="183.103009" style="stroke: #000000; stroke-width: 0.8"/>
      </g>
     </g>
     <g id="text_14">
      <!-- 0.5 -->
      <g transform="translate(49.096875 186.902228)scale(0.1 -0.1)">
       <use xlink:href="#DejaVuSans-30"/>
       <use xlink:href="#DejaVuSans-2e" x="63.623047"/>
       <use xlink:href="#DejaVuSans-35" x="95.410156"/>
      </g>
     </g>
    </g>
    <g id="ytick_5">
     <g id="line2d_27">
      <path d="M 72 129.580885 
L 518.4 129.580885 
" clip-path="url(#paa05db3268)" style="fill: none; stroke: #b0b0b0; stroke-opacity: 0.5; stroke-width: 0.8; stroke-linecap: square"/>
     </g>
     <g id="line2d_28">
      <g>
       <use xlink:href="#mf57cc5f930" x="72" y="129.580885" style="stroke: #000000; stroke-width: 0.8"/>
      </g>
     </g>
     <g id="text_15">
      <!-- 0.6 -->
      <g transform="translate(49.096875 133.380104)scale(0.1 -0.1)">
       <defs>
        <path id="DejaVuSans-36" d="M 2113 2584 
Q 1688 2584 1439 2293 
Q 1191 2003 1191 1497 
Q 1191 994 1439 701 
Q 1688 409 2113 409 
Q 2538 409 2786 701 
Q 3034 994 3034 1497 
Q 3034 2003 2786 2293 
Q 2538 2584 2113 2584 
z
M 3366 4563 
L 3366 3988 
Q 3128 4100 2886 4159 
Q 2644 4219 2406 4219 
Q 1781 4219 1451 3797 
Q 1122 3375 1075 2522 
Q 1259 2794 1537 2939 
Q 1816 3084 2150 3084 
Q 2853 3084 3261 2657 
Q 3669 2231 3669 1497 
Q 3669 778 3244 343 
Q 2819 -91 2113 -91 
Q 1303 -91 875 529 
Q 447 1150 447 2328 
Q 447 3434 972 4092 
Q 1497 4750 2381 4750 
Q 2619 4750 2861 4703 
Q 3103 4656 3366 4563 
z
" transform="scale(0.015625)"/>
       </defs>
       <use xlink:href="#DejaVuSans-30"/>
       <use xlink:href="#DejaVuSans-2e" x="63.623047"/>
       <use xlink:href="#DejaVuSans-36" x="95.410156"/>
      </g>
     </g>
    </g>
    <g id="ytick_6">
     <g id="line2d_29">
      <path d="M 72 76.058761 
L 518.4 76.058761 
" clip-path="url(#paa05db3268)" style="fill: none; stroke: #b0b0b0; stroke-opacity: 0.5; stroke-width: 0.8; stroke-linecap: square"/>
     </g>
     <g id="line2d_30">
      <g>
       <use xlink:href="#mf57cc5f930" x="72" y="76.058761" style="stroke: #000000; stroke-width: 0.8"/>
      </g>
     </g>
     <g id="text_16">
      <!-- 0.7 -->
      <g transform="translate(49.096875 79.85798)scale(0.1 -0.1)">
       <use xlink:href="#DejaVuSans-30"/>
       <use xlink:href="#DejaVuSans-2e" x="63.623047"/>
       <use xlink:href="#DejaVuSans-37" x="95.410156"/>
      </g>
     </g>
    </g>
    <g id="text_17">
     <!-- Accuracy -->
     <g transform="translate(43.017187 240.988125)rotate(-90)scale(0.1 -0.1)">
      <defs>
       <path id="DejaVuSans-41" d="M 2188 4044 
L 1331 1722 
L 3047 1722 
L 2188 4044 
z
M 1831 4666 
L 2547 4666 
L 4325 0 
L 3669 0 
L 3244 1197 
L 1141 1197 
L 716 0 
L 50 0 
L 1831 4666 
z
" transform="scale(0.015625)"/>
       <path id="DejaVuSans-79" d="M 2059 -325 
Q 1816 -950 1584 -1140 
Q 1353 -1331 966 -1331 
L 506 -1331 
L 506 -850 
L 844 -850 
Q 1081 -850 1212 -737 
Q 1344 -625 1503 -206 
L 1606 56 
L 191 3500 
L 800 3500 
L 1894 763 
L 2988 3500 
L 3597 3500 
L 2059 -325 
z
" transform="scale(0.015625)"/>
      </defs>
      <use xlink:href="#DejaVuSans-41"/>
      <use xlink:href="#DejaVuSans-63" x="66.658203"/>
      <use xlink:href="#DejaVuSans-63" x="121.638672"/>
      <use xlink:href="#DejaVuSans-75" x="176.619141"/>
      <use xlink:href="#DejaVuSans-72" x="239.998047"/>
      <use xlink:href="#DejaVuSans-61" x="281.111328"/>
      <use xlink:href="#DejaVuSans-63" x="342.390625"/>
      <use xlink:href="#DejaVuSans-79" x="397.371094"/>
     </g>
    </g>
   </g>
   <g id="line2d_31">
    <path d="M 92.290909 295.606513 
L 94.32 290.414867 
L 96.349091 268.684885 
L 98.378182 244.599929 
L 100.407273 240.532248 
L 104.465455 226.402407 
L 106.494545 211.576779 
L 108.523636 205.261168 
L 110.552727 212.807788 
L 112.581818 197.928637 
L 114.610909 195.520142 
L 116.64 192.255292 
L 118.669091 177.429664 
L 120.698182 193.807434 
L 122.727273 177.857841 
L 124.756364 187.92 
L 126.785455 177.911363 
L 128.814545 179.409982 
L 130.843636 174.592991 
L 132.872727 166.082973 
L 134.901818 183.691752 
L 136.930909 174.539469 
L 138.96 167.26046 
L 140.989091 173.415504 
L 143.018182 165.440708 
L 145.047273 161.801204 
L 147.076364 166.778761 
L 149.105455 155.539115 
L 151.134545 152.541876 
L 153.163636 154.843327 
L 155.192727 148.206584 
L 157.221818 156.127858 
L 159.250909 148.795327 
L 161.28 150.347469 
L 163.309091 159.018053 
L 165.338182 152.488354 
L 167.367273 154.308106 
L 169.396364 144.888212 
L 171.425455 151.899611 
L 173.454545 147.457274 
L 175.483636 138.679646 
L 177.512727 135.628885 
L 179.541818 137.823292 
L 181.570909 135.361274 
L 183.6 140.713487 
L 185.629091 143.603681 
L 187.658182 144.513558 
L 189.687273 137.341593 
L 191.716364 140.659965 
L 193.745455 142.961416 
L 195.774545 140.338832 
L 197.803636 133.273912 
L 199.832727 136.057062 
L 201.861818 129.099186 
L 203.890909 127.921699 
L 205.92 124.068106 
L 207.949091 132.845735 
L 209.978182 136.431717 
L 212.007273 129.366796 
L 214.036364 136.431717 
L 216.065455 136.859894 
L 218.094545 127.547044 
L 220.123636 130.97246 
L 222.152727 121.231434 
L 224.181818 138.037381 
L 226.210909 123.104708 
L 228.24 131.133027 
L 230.269091 128.724531 
L 232.298182 130.116106 
L 234.327273 134.23731 
L 236.356364 123.746973 
L 238.385455 123.639929 
L 240.414545 122.837097 
L 242.443636 122.944142 
L 244.472727 127.011823 
L 246.501818 122.034265 
L 248.530909 120.214513 
L 250.56 116.842619 
L 252.589091 115.718655 
L 254.618182 130.383717 
L 256.647273 126.476602 
L 258.676364 115.129912 
L 260.705455 119.62577 
L 262.734545 118.020106 
L 264.763636 122.301876 
L 266.792727 117.217274 
L 268.821818 119.304637 
L 270.850909 117.217274 
L 272.88 114.166513 
L 274.909091 115.504566 
L 276.938182 118.662372 
L 278.967273 121.552566 
L 280.996364 117.85954 
L 283.025455 121.284956 
L 285.054545 114.273558 
L 287.083636 112.400283 
L 289.112727 116.735575 
L 291.141818 122.730053 
L 293.170909 118.501805 
L 295.2 119.732814 
L 297.229091 117.806018 
L 299.258182 119.572248 
L 301.287273 117.431363 
L 303.316364 120.749735 
L 305.345455 118.715894 
L 307.374545 111.597451 
L 309.403636 118.394761 
L 311.432727 119.62577 
L 313.461818 110.366442 
L 315.490909 109.831221 
L 317.52 116.949664 
L 319.549091 119.732814 
L 321.578182 115.665133 
L 323.607273 118.234195 
L 325.636364 113.952425 
L 327.665455 114.969345 
L 329.694545 112.82846 
L 331.723636 112.82846 
L 333.752727 115.236956 
L 335.781818 114.755257 
L 337.810909 119.62577 
L 339.84 112.239717 
L 341.869091 112.07915 
L 343.898182 105.870584 
L 345.927273 108.011469 
L 347.956364 111.81154 
L 349.985455 112.667894 
L 352.014545 115.718655 
L 354.043636 113.524248 
L 356.072727 109.991788 
L 358.101818 112.346761 
L 360.130909 116.307398 
L 362.16 108.332602 
L 364.189091 106.941027 
L 366.218182 114.755257 
L 368.247273 118.073628 
L 370.276364 112.881982 
L 372.305455 111.650973 
L 374.334545 114.701735 
L 376.363636 113.791858 
L 378.392727 110.205876 
L 380.421818 108.225558 
L 382.450909 110.794619 
L 384.48 111.597451 
L 386.509091 114.862301 
L 388.538182 108.867823 
L 390.567273 113.149593 
L 392.596364 107.583292 
L 394.625455 108.332602 
L 396.654545 107.101593 
L 398.683636 114.273558 
L 400.712727 108.332602 
L 402.741818 110.634053 
L 404.770909 109.403044 
L 406.8 109.510088 
L 408.829091 107.636814 
L 410.858182 115.932743 
L 412.887273 108.439646 
L 414.916364 112.400283 
L 416.945455 104.800142 
L 418.974545 113.524248 
L 421.003636 110.31292 
L 423.032727 112.667894 
L 425.061818 107.957947 
L 427.090909 109.456566 
L 429.12 111.383363 
L 431.149091 107.048071 
L 433.178182 105.442407 
L 435.207273 108.172035 
L 437.236364 115.986265 
L 439.265455 110.794619 
L 441.294545 108.172035 
L 443.323636 110.687575 
L 445.352727 108.332602 
L 447.381818 113.417204 
L 449.410909 115.397522 
L 451.44 111.81154 
L 453.469091 109.349522 
L 455.498182 106.51285 
L 457.527273 112.507327 
L 459.556364 109.777699 
L 461.585455 113.310159 
L 463.614545 105.495929 
L 465.643636 110.741097 
L 467.672727 113.631292 
L 469.701818 110.580531 
L 471.730909 113.738336 
L 473.76 103.515611 
L 475.789091 113.524248 
L 477.818182 110.259398 
L 479.847273 106.138195 
L 481.876364 105.977628 
L 483.905455 106.084673 
L 487.963636 114.273558 
L 489.992727 110.152354 
L 492.021818 108.707257 
L 494.050909 107.583292 
L 496.08 107.743858 
L 498.109091 103.99731 
L 498.109091 103.99731 
" clip-path="url(#paa05db3268)" style="fill: none; stroke: #1f77b4; stroke-width: 1.5; stroke-linecap: square"/>
   </g>
   <g id="line2d_32">
    <path d="M 92.290909 290.628956 
L 94.32 287.417628 
L 96.349091 273.394832 
L 98.378182 264.884814 
L 100.407273 248.078867 
L 102.436364 228.864425 
L 104.465455 214.092319 
L 106.494545 220.622018 
L 108.523636 202.692106 
L 110.552727 200.230088 
L 112.581818 191.398938 
L 114.610909 184.494584 
L 116.64 188.134088 
L 118.669091 173.415504 
L 120.698182 176.466265 
L 122.727273 176.680354 
L 124.756364 179.570549 
L 126.785455 169.133735 
L 128.814545 176.252177 
L 130.843636 155.806726 
L 132.872727 159.44623 
L 134.901818 149.062938 
L 136.930909 149.972814 
L 138.96 147.136142 
L 140.989091 150.61508 
L 143.018182 151.310867 
L 145.047273 149.437593 
L 147.076364 130.811894 
L 149.105455 145.102301 
L 151.134545 127.118867 
L 153.163636 133.166867 
L 155.192727 138.037381 
L 157.221818 125.780814 
L 159.250909 142.854372 
L 161.28 148.902372 
L 163.309091 148.36715 
L 165.338182 126.42308 
L 167.367273 124.282195 
L 169.396364 135.093664 
L 171.425455 129.95554 
L 173.454545 117.913062 
L 175.483636 116.521487 
L 177.512727 141.837451 
L 179.541818 125.406159 
L 181.570909 115.183434 
L 183.6 125.245593 
L 185.629091 121.017345 
L 187.658182 109.456566 
L 189.687273 106.78046 
L 191.716364 114.005947 
L 193.745455 113.524248 
L 195.774545 110.259398 
L 197.803636 113.096071 
L 199.832727 126.101947 
L 201.861818 120.160991 
L 203.890909 111.169274 
L 205.92 118.822938 
L 207.949091 107.476248 
L 209.978182 101.856425 
L 212.007273 109.884743 
L 214.036364 104.318442 
L 216.065455 108.921345 
L 218.094545 106.459327 
L 220.123636 103.783221 
L 222.152727 94.737982 
L 226.210909 103.99731 
L 228.24 93.078796 
L 230.269091 89.706903 
L 232.298182 91.526655 
L 234.327273 94.523894 
L 236.356364 93.560496 
L 238.385455 99.019752 
L 240.414545 95.754903 
L 242.443636 95.326726 
L 244.472727 95.166159 
L 246.501818 97.039434 
L 248.530909 87.084319 
L 250.56 84.35469 
L 252.589091 94.577416 
L 254.618182 93.292885 
L 256.647273 89.38577 
L 258.676364 89.171681 
L 260.705455 90.991434 
L 262.734545 91.740743 
L 264.763636 96.343646 
L 266.792727 86.602619 
L 268.821818 89.920991 
L 270.850909 91.90131 
L 272.88 92.329487 
L 274.909091 86.977274 
L 276.938182 87.780106 
L 278.967273 94.898549 
L 280.996364 89.332248 
L 283.025455 85.746265 
L 285.054545 83.33777 
L 287.083636 87.726584 
L 289.112727 84.568779 
L 291.141818 85.585699 
L 293.170909 82.749027 
L 295.2 85.157522 
L 297.229091 82.106761 
L 299.258182 82.856071 
L 301.287273 81.464496 
L 303.316364 81.250407 
L 305.345455 83.926513 
L 307.374545 83.819469 
L 309.403636 82.053239 
L 311.432727 89.064637 
L 313.461818 84.943434 
L 315.490909 77.503858 
L 317.52 80.447575 
L 319.549091 77.771469 
L 321.578182 77.932035 
L 323.607273 77.824991 
L 325.636364 79.323611 
L 327.665455 86.549097 
L 329.694545 80.875752 
L 331.723636 82.374372 
L 333.752727 81.410973 
L 335.781818 80.661664 
L 337.810909 81.678584 
L 339.84 80.07292 
L 341.869091 81.999717 
L 343.898182 84.35469 
L 345.927273 88.047717 
L 347.956364 80.179965 
L 349.985455 82.053239 
L 352.014545 87.458973 
L 354.043636 85.585699 
L 356.072727 76.165805 
L 358.101818 77.343292 
L 360.130909 78.199646 
L 362.16 77.28977 
L 364.189091 83.284248 
L 366.218182 78.413735 
L 368.247273 84.836389 
L 370.276364 83.070159 
L 372.305455 78.948956 
L 374.334545 78.03908 
L 376.363636 84.782867 
L 378.392727 79.270088 
L 380.421818 87.512496 
L 382.450909 76.968637 
L 384.48 80.608142 
L 386.509091 77.610903 
L 388.538182 74.881274 
L 390.567273 81.785628 
L 392.596364 82.32085 
L 394.625455 81.250407 
L 396.654545 84.461735 
L 398.683636 78.413735 
L 400.712727 77.343292 
L 402.741818 77.771469 
L 404.770909 78.520779 
L 406.8 79.698265 
L 408.829091 77.610903 
L 410.858182 76.433416 
L 412.887273 84.729345 
L 414.916364 81.464496 
L 416.945455 77.664425 
L 418.974545 74.506619 
L 421.003636 77.022159 
L 423.032727 80.982796 
L 425.061818 75.362973 
L 427.090909 73.917876 
L 429.12 79.216566 
L 431.149091 77.717947 
L 433.178182 74.827752 
L 435.207273 77.878513 
L 437.236364 79.80531 
L 439.265455 71.830513 
L 441.294545 74.239009 
L 443.323636 71.027681 
L 445.352727 81.678584 
L 447.381818 73.917876 
L 449.410909 73.275611 
L 451.44 79.751788 
L 453.469091 77.664425 
L 455.498182 79.002478 
L 457.527273 66.96 
L 459.556364 72.847434 
L 461.585455 77.343292 
L 463.614545 76.112283 
L 465.643636 76.968637 
L 467.672727 80.661664 
L 469.701818 82.963115 
L 471.730909 82.749027 
L 473.76 76.219327 
L 475.789091 77.396814 
L 477.818182 81.625062 
L 479.847273 80.661664 
L 481.876364 76.593982 
L 483.905455 77.343292 
L 485.934545 71.99108 
L 487.963636 75.844673 
L 489.992727 72.740389 
L 492.021818 79.270088 
L 494.050909 75.630584 
L 496.08 82.267327 
L 498.109091 74.667186 
L 498.109091 74.667186 
" clip-path="url(#paa05db3268)" style="fill: none; stroke: #ff7f0e; stroke-width: 1.5; stroke-linecap: square"/>
   </g>
   <g id="line2d_33">
    <path d="M 92.290909 366.416283 
L 94.32 323.116885 
L 96.349091 305.829239 
L 98.378182 282.440071 
L 100.407273 261.887575 
L 102.436364 255.732531 
L 104.465455 253.002903 
L 106.494545 228.382726 
L 108.523636 212.112 
L 110.552727 201.996319 
L 112.581818 193.432779 
L 114.610909 198.570903 
L 116.64 187.277735 
L 118.669091 199.159646 
L 120.698182 198.838513 
L 122.727273 178.874761 
L 124.756364 173.790159 
L 126.785455 187.92 
L 128.814545 150.722124 
L 130.843636 148.36715 
L 132.872727 161.265982 
L 134.901818 161.587115 
L 136.930909 160.837805 
L 138.96 144.406513 
L 140.989091 145.262867 
L 143.018182 130.330195 
L 145.047273 147.457274 
L 147.076364 153.237664 
L 149.105455 130.169628 
L 151.134545 135.200708 
L 153.163636 137.823292 
L 155.192727 144.460035 
L 157.221818 128.885097 
L 159.250909 137.341593 
L 161.28 141.783929 
L 163.309091 135.414796 
L 165.338182 140.713487 
L 167.367273 123.854018 
L 169.396364 136.217628 
L 171.425455 135.950018 
L 173.454545 129.20623 
L 175.483636 118.60885 
L 177.512727 120.749735 
L 179.541818 126.530124 
L 181.570909 119.197593 
L 183.6 118.715894 
L 185.629091 111.543929 
L 187.658182 110.687575 
L 189.687273 130.437239 
L 191.716364 128.028743 
L 193.745455 122.569487 
L 195.774545 122.944142 
L 197.803636 129.794973 
L 199.832727 116.842619 
L 201.861818 113.524248 
L 203.890909 117.591929 
L 205.92 116.949664 
L 207.949091 109.563611 
L 209.978182 115.022867 
L 212.007273 112.453805 
L 214.036364 106.673416 
L 216.065455 108.760779 
L 218.094545 112.293239 
L 220.123636 102.070513 
L 222.152727 112.614372 
L 224.181818 97.307044 
L 226.210909 99.073274 
L 228.24 107.155115 
L 232.298182 99.769062 
L 234.327273 105.817062 
L 236.356364 99.662018 
L 238.385455 98.484531 
L 240.414545 99.019752 
L 242.443636 116.789097 
L 244.472727 96.397168 
L 246.501818 99.019752 
L 248.530909 110.848142 
L 250.56 113.363681 
L 252.589091 97.895788 
L 254.618182 101.642336 
L 256.647273 98.377487 
L 258.676364 101.321204 
L 260.705455 96.557735 
L 262.734545 91.473133 
L 264.763636 98.431009 
L 266.792727 102.445168 
L 268.821818 102.766301 
L 270.850909 93.453451 
L 272.88 96.664779 
L 274.909091 89.653381 
L 276.938182 100.357805 
L 278.967273 95.326726 
L 280.996364 93.239363 
L 285.054545 93.66754 
L 287.083636 95.219681 
L 289.112727 93.506973 
L 293.170909 89.653381 
L 295.2 93.399929 
L 297.229091 92.650619 
L 299.258182 87.61954 
L 301.287273 85.585699 
L 303.316364 102.177558 
L 305.345455 86.12092 
L 307.374545 98.163398 
L 309.403636 81.999717 
L 311.432727 95.326726 
L 313.461818 83.980035 
L 315.490909 90.028035 
L 317.52 91.044956 
L 319.549091 89.974513 
L 321.578182 87.351929 
L 323.607273 91.633699 
L 325.636364 93.078796 
L 327.665455 90.991434 
L 329.694545 87.405451 
L 331.723636 92.864708 
L 333.752727 89.225204 
L 335.781818 86.709664 
L 337.810909 93.025274 
L 339.84 85.157522 
L 341.869091 98.96623 
L 343.898182 93.239363 
L 345.927273 102.177558 
L 347.956364 95.326726 
L 349.985455 86.495575 
L 352.014545 91.098478 
L 354.043636 84.033558 
L 356.072727 84.996956 
L 358.101818 82.267327 
L 360.130909 87.191363 
L 362.16 91.152 
L 364.189091 80.287009 
L 366.218182 83.926513 
L 368.247273 89.760425 
L 370.276364 87.030796 
L 372.305455 93.453451 
L 374.334545 90.509735 
L 376.363636 88.101239 
L 378.392727 84.622301 
L 380.421818 84.35469 
L 382.450909 85.639221 
L 384.48 83.33777 
L 386.509091 78.520779 
L 388.538182 80.447575 
L 390.567273 85.85331 
L 392.596364 81.196885 
L 394.625455 84.622301 
L 396.654545 96.022513 
L 398.683636 85.85331 
L 400.712727 91.366088 
L 402.741818 86.227965 
L 404.770909 83.980035 
L 406.8 90.509735 
L 408.829091 85.104 
L 410.858182 91.152 
L 412.887273 82.534938 
L 414.916364 88.689982 
L 416.945455 80.982796 
L 418.974545 83.33777 
L 421.003636 80.447575 
L 423.032727 88.904071 
L 425.061818 90.081558 
L 427.090909 89.38577 
L 429.12 80.394053 
L 431.149091 83.016637 
L 433.178182 82.856071 
L 435.207273 76.326372 
L 437.236364 80.608142 
L 439.265455 83.284248 
L 441.294545 87.084319 
L 443.323636 85.104 
L 445.352727 91.580177 
L 447.381818 73.329133 
L 449.410909 92.597097 
L 451.44 76.165805 
L 453.469091 81.089841 
L 455.498182 79.751788 
L 457.527273 85.585699 
L 459.556364 79.377133 
L 461.585455 80.447575 
L 463.614545 82.053239 
L 465.643636 79.80531 
L 467.672727 86.549097 
L 469.701818 85.371611 
L 471.730909 86.549097 
L 473.76 84.08708 
L 475.789091 83.605381 
L 477.818182 85.050478 
L 479.847273 83.391292 
L 481.876364 91.90131 
L 483.905455 79.002478 
L 485.934545 83.177204 
L 487.963636 82.963115 
L 489.992727 88.743504 
L 492.021818 77.664425 
L 494.050909 86.656142 
L 496.08 82.963115 
L 498.109091 75.52354 
L 498.109091 75.52354 
" clip-path="url(#paa05db3268)" style="fill: none; stroke: #2ca02c; stroke-width: 1.5; stroke-linecap: square"/>
   </g>
   <g id="line2d_34">
    <path d="M 92.290909 369.36 
L 94.32 316.908319 
L 96.349091 312.787115 
L 98.378182 298.282619 
L 100.407273 281.637239 
L 102.436364 260.067823 
L 104.465455 273.180743 
L 106.494545 254.180389 
L 108.523636 238.551929 
L 110.552727 204.190726 
L 112.581818 204.244248 
L 114.610909 191.077805 
L 116.64 211.202124 
L 118.669091 193.325735 
L 120.698182 184.976283 
L 122.727273 199.962478 
L 124.756364 187.598867 
L 126.785455 202.156885 
L 128.814545 172.987327 
L 130.843636 160.784283 
L 132.872727 183.745274 
L 134.901818 163.513912 
L 136.930909 164.637876 
L 138.96 153.558796 
L 140.989091 157.037735 
L 143.018182 146.975575 
L 145.047273 149.009416 
L 147.076364 162.229381 
L 149.105455 161.587115 
L 151.134545 150.61508 
L 153.163636 137.555681 
L 155.192727 147.403752 
L 157.221818 139.857133 
L 159.250909 134.023221 
L 161.28 139.536 
L 163.309091 126.583646 
L 165.338182 131.828814 
L 167.367273 126.530124 
L 169.396364 134.451398 
L 171.425455 144.995257 
L 173.454545 131.347115 
L 175.483636 125.352637 
L 177.512727 137.76977 
L 179.541818 138.251469 
L 181.570909 132.685168 
L 183.6 129.794973 
L 185.629091 119.946903 
L 187.658182 120.428602 
L 189.687273 118.020106 
L 191.716364 120.482124 
L 193.745455 118.020106 
L 195.774545 123.961062 
L 197.803636 106.619894 
L 199.832727 117.538407 
L 201.861818 106.941027 
L 203.890909 122.14131 
L 205.92 111.543929 
L 207.949091 120.160991 
L 209.978182 122.569487 
L 212.007273 122.034265 
L 214.036364 112.453805 
L 216.065455 113.738336 
L 218.094545 116.467965 
L 220.123636 107.315681 
L 222.152727 114.808779 
L 224.181818 107.52977 
L 226.210909 105.388885 
L 228.24 112.239717 
L 230.269091 104.318442 
L 232.298182 112.507327 
L 234.327273 112.82846 
L 236.356364 107.315681 
L 238.385455 108.493168 
L 240.414545 112.667894 
L 242.443636 106.673416 
L 246.501818 106.941027 
L 248.530909 113.096071 
L 250.56 102.659257 
L 252.589091 104.853664 
L 254.618182 105.01423 
L 256.647273 98.591575 
L 258.676364 101.588814 
L 260.705455 103.729699 
L 262.734545 94.577416 
L 264.763636 99.71554 
L 266.792727 101.802903 
L 268.821818 104.960708 
L 270.850909 98.056354 
L 272.88 101.428248 
L 274.909091 99.608496 
L 276.938182 96.022513 
L 280.996364 106.941027 
L 283.025455 96.718301 
L 285.054545 91.205522 
L 287.083636 100.946549 
L 289.112727 103.140956 
L 291.141818 109.242478 
L 293.170909 113.631292 
L 295.2 100.357805 
L 297.229091 110.31292 
L 299.258182 103.729699 
L 301.287273 107.52977 
L 303.316364 104.104354 
L 305.345455 97.94931 
L 307.374545 102.552212 
L 309.403636 102.659257 
L 311.432727 87.191363 
L 313.461818 99.98315 
L 315.490909 103.355044 
L 317.52 109.081912 
L 319.549091 98.698619 
L 321.578182 104.479009 
L 323.607273 101.642336 
L 325.636364 95.166159 
L 327.665455 95.968991 
L 329.694545 94.363327 
L 331.723636 94.095717 
L 333.752727 95.808425 
L 335.781818 101.107115 
L 337.810909 119.251115 
L 339.84 102.605735 
L 341.869091 88.582938 
L 343.898182 103.462088 
L 345.927273 115.879221 
L 347.956364 108.653735 
L 352.014545 89.38577 
L 354.043636 95.43377 
L 356.072727 93.292885 
L 358.101818 104.050832 
L 360.130909 94.952071 
L 362.16 84.35469 
L 364.189091 99.340885 
L 366.218182 97.574655 
L 368.247273 90.028035 
L 370.276364 109.563611 
L 374.334545 99.180319 
L 376.363636 103.248 
L 378.392727 93.185841 
L 380.421818 99.554973 
L 382.450909 87.940673 
L 384.48 99.340885 
L 386.509091 96.236602 
L 388.538182 95.326726 
L 390.567273 85.639221 
L 392.596364 94.095717 
L 394.625455 97.574655 
L 396.654545 89.706903 
L 398.683636 89.064637 
L 400.712727 92.115398 
L 402.741818 86.923752 
L 404.770909 93.614018 
L 406.8 93.506973 
L 408.829091 98.591575 
L 410.858182 92.650619 
L 412.887273 101.374726 
L 414.916364 93.93515 
L 416.945455 110.31292 
L 418.974545 100.46485 
L 421.003636 105.710018 
L 423.032727 97.307044 
L 425.061818 99.233841 
L 427.090909 99.233841 
L 429.12 91.90131 
L 431.149091 109.028389 
L 433.178182 90.242124 
L 435.207273 98.859186 
L 437.236364 93.988673 
L 439.265455 98.96623 
L 441.294545 87.726584 
L 443.323636 96.45069 
L 445.352727 100.250761 
L 447.381818 96.18308 
L 449.410909 94.363327 
L 451.44 89.332248 
L 453.469091 86.013876 
L 455.498182 89.225204 
L 457.527273 93.239363 
L 459.556364 90.830867 
L 461.585455 101.909947 
L 463.614545 97.360566 
L 465.643636 93.185841 
L 467.672727 94.737982 
L 469.701818 89.38577 
L 471.730909 97.467611 
L 473.76 101.588814 
L 475.789091 98.377487 
L 477.818182 88.904071 
L 479.847273 95.647858 
L 481.876364 97.039434 
L 483.905455 96.397168 
L 485.934545 100.893027 
L 487.963636 93.025274 
L 489.992727 88.36885 
L 492.021818 87.61954 
L 494.050909 98.163398 
L 496.08 83.284248 
L 498.109091 87.994195 
L 498.109091 87.994195 
" clip-path="url(#paa05db3268)" style="fill: none; stroke: #d62728; stroke-width: 1.5; stroke-linecap: square"/>
   </g>
   <g id="patch_3">
    <path d="M 72 384.48 
L 72 51.84 
" style="fill: none; stroke: #000000; stroke-width: 0.8; stroke-linejoin: miter; stroke-linecap: square"/>
   </g>
   <g id="patch_4">
    <path d="M 518.4 384.48 
L 518.4 51.84 
" style="fill: none; stroke: #000000; stroke-width: 0.8; stroke-linejoin: miter; stroke-linecap: square"/>
   </g>
   <g id="patch_5">
    <path d="M 72 384.48 
L 518.4 384.48 
" style="fill: none; stroke: #000000; stroke-width: 0.8; stroke-linejoin: miter; stroke-linecap: square"/>
   </g>
   <g id="patch_6">
    <path d="M 72 51.84 
L 518.4 51.84 
" style="fill: none; stroke: #000000; stroke-width: 0.8; stroke-linejoin: miter; stroke-linecap: square"/>
   </g>
   <g id="text_18">
    <!-- Max-Common -->
    <g transform="translate(253.606875 45.84)scale(0.12 -0.12)">
     <defs>
      <path id="DejaVuSans-4d" d="M 628 4666 
L 1569 4666 
L 2759 1491 
L 3956 4666 
L 4897 4666 
L 4897 0 
L 4281 0 
L 4281 4097 
L 3078 897 
L 2444 897 
L 1241 4097 
L 1241 0 
L 628 0 
L 628 4666 
z
" transform="scale(0.015625)"/>
      <path id="DejaVuSans-78" d="M 3513 3500 
L 2247 1797 
L 3578 0 
L 2900 0 
L 1881 1375 
L 863 0 
L 184 0 
L 1544 1831 
L 300 3500 
L 978 3500 
L 1906 2253 
L 2834 3500 
L 3513 3500 
z
" transform="scale(0.015625)"/>
      <path id="DejaVuSans-2d" d="M 313 2009 
L 1997 2009 
L 1997 1497 
L 313 1497 
L 313 2009 
z
" transform="scale(0.015625)"/>
     </defs>
     <use xlink:href="#DejaVuSans-4d"/>
     <use xlink:href="#DejaVuSans-61" x="86.279297"/>
     <use xlink:href="#DejaVuSans-78" x="147.558594"/>
     <use xlink:href="#DejaVuSans-2d" x="206.738281"/>
     <use xlink:href="#DejaVuSans-43" x="242.822266"/>
     <use xlink:href="#DejaVuSans-6f" x="312.646484"/>
     <use xlink:href="#DejaVuSans-6d" x="373.828125"/>
     <use xlink:href="#DejaVuSans-6d" x="471.240234"/>
     <use xlink:href="#DejaVuSans-6f" x="568.652344"/>
     <use xlink:href="#DejaVuSans-6e" x="629.833984"/>
    </g>
   </g>
   <g id="legend_1">
    <g id="patch_7">
     <path d="M 79 118.5525 
L 124.203125 118.5525 
Q 126.203125 118.5525 126.203125 116.5525 
L 126.203125 58.84 
Q 126.203125 56.84 124.203125 56.84 
L 79 56.84 
Q 77 56.84 77 58.84 
L 77 116.5525 
Q 77 118.5525 79 118.5525 
z
" style="fill: #ffffff; opacity: 0.8; stroke: #cccccc; stroke-linejoin: miter"/>
    </g>
    <g id="line2d_35">
     <path d="M 81 64.938438 
L 91 64.938438 
L 101 64.938438 
" style="fill: none; stroke: #1f77b4; stroke-width: 1.5; stroke-linecap: square"/>
    </g>
    <g id="text_19">
     <!-- V1 -->
     <g transform="translate(109 68.438438)scale(0.1 -0.1)">
      <defs>
       <path id="DejaVuSans-56" d="M 1831 0 
L 50 4666 
L 709 4666 
L 2188 738 
L 3669 4666 
L 4325 4666 
L 2547 0 
L 1831 0 
z
" transform="scale(0.015625)"/>
      </defs>
      <use xlink:href="#DejaVuSans-56"/>
      <use xlink:href="#DejaVuSans-31" x="68.408203"/>
     </g>
    </g>
    <g id="line2d_36">
     <path d="M 81 79.616563 
L 91 79.616563 
L 101 79.616563 
" style="fill: none; stroke: #ff7f0e; stroke-width: 1.5; stroke-linecap: square"/>
    </g>
    <g id="text_20">
     <!-- V2 -->
     <g transform="translate(109 83.116563)scale(0.1 -0.1)">
      <use xlink:href="#DejaVuSans-56"/>
      <use xlink:href="#DejaVuSans-32" x="68.408203"/>
     </g>
    </g>
    <g id="line2d_37">
     <path d="M 81 94.294688 
L 91 94.294688 
L 101 94.294688 
" style="fill: none; stroke: #2ca02c; stroke-width: 1.5; stroke-linecap: square"/>
    </g>
    <g id="text_21">
     <!-- V3 -->
     <g transform="translate(109 97.794688)scale(0.1 -0.1)">
      <use xlink:href="#DejaVuSans-56"/>
      <use xlink:href="#DejaVuSans-33" x="68.408203"/>
     </g>
    </g>
    <g id="line2d_38">
     <path d="M 81 108.972813 
L 91 108.972813 
L 101 108.972813 
" style="fill: none; stroke: #d62728; stroke-width: 1.5; stroke-linecap: square"/>
    </g>
    <g id="text_22">
     <!-- V4 -->
     <g transform="translate(109 112.472813)scale(0.1 -0.1)">
      <use xlink:href="#DejaVuSans-56"/>
      <use xlink:href="#DejaVuSans-34" x="68.408203"/>
     </g>
    </g>
   </g>
  </g>
 </g>
 <defs>
  <clipPath id="paa05db3268">
   <rect x="72" y="51.84" width="446.4" height="332.64"/>
  </clipPath>
 </defs>
</svg>
