<?xml version="1.0" encoding="utf-8" standalone="no"?>
<!DOCTYPE svg PUBLIC "-//W3C//DTD SVG 1.1//EN"
  "http://www.w3.org/Graphics/SVG/1.1/DTD/svg11.dtd">
<svg xmlns:xlink="http://www.w3.org/1999/xlink" width="576pt" height="432pt" viewBox="0 0 576 432" xmlns="http://www.w3.org/2000/svg" version="1.1">
 <metadata>
  <rdf:RDF xmlns:dc="http://purl.org/dc/elements/1.1/" xmlns:cc="http://creativecommons.org/ns#" xmlns:rdf="http://www.w3.org/1999/02/22-rdf-syntax-ns#">
   <cc:Work>
    <dc:type rdf:resource="http://purl.org/dc/dcmitype/StillImage"/>
    <dc:date>2023-08-06T01:42:01.214097</dc:date>
    <dc:format>image/svg+xml</dc:format>
    <dc:creator>
     <cc:Agent>
      <dc:title>Matplotlib v3.7.2, https://matplotlib.org/</dc:title>
     </cc:Agent>
    </dc:creator>
   </cc:Work>
  </rdf:RDF>
 </metadata>
 <defs>
  <style type="text/css">*{stroke-linejoin: round; stroke-linecap: butt}</style>
 </defs>
 <g id="figure_1">
  <g id="patch_1">
   <path d="M 0 432 
L 576 432 
L 576 0 
L 0 0 
z
" style="fill: #ffffff"/>
  </g>
  <g id="axes_1">
   <g id="patch_2">
    <path d="M 72 384.48 
L 518.4 384.48 
L 518.4 51.84 
L 72 51.84 
z
" style="fill: #ffffff"/>
   </g>
   <g id="matplotlib.axis_1">
    <g id="xtick_1">
     <g id="line2d_1">
      <path d="M 92.290909 384.48 
L 92.290909 51.84 
" clip-path="url(#p4d7015eac1)" style="fill: none; stroke: #b0b0b0; stroke-opacity: 0.5; stroke-width: 0.8; stroke-linecap: square"/>
     </g>
     <g id="line2d_2">
      <defs>
       <path id="m3cfd0870b8" d="M 0 0 
L 0 3.5 
" style="stroke: #000000; stroke-width: 0.8"/>
      </defs>
      <g>
       <use xlink:href="#m3cfd0870b8" x="92.290909" y="384.48" style="stroke: #000000; stroke-width: 0.8"/>
      </g>
     </g>
     <g id="text_1">
      <!-- 0 -->
      <g transform="translate(89.109659 399.078438) scale(0.1 -0.1)">
       <defs>
        <path id="DejaVuSans-30" d="M 2034 4250 
Q 1547 4250 1301 3770 
Q 1056 3291 1056 2328 
Q 1056 1369 1301 889 
Q 1547 409 2034 409 
Q 2525 409 2770 889 
Q 3016 1369 3016 2328 
Q 3016 3291 2770 3770 
Q 2525 4250 2034 4250 
z
M 2034 4750 
Q 2819 4750 3233 4129 
Q 3647 3509 3647 2328 
Q 3647 1150 3233 529 
Q 2819 -91 2034 -91 
Q 1250 -91 836 529 
Q 422 1150 422 2328 
Q 422 3509 836 4129 
Q 1250 4750 2034 4750 
z
" transform="scale(0.015625)"/>
       </defs>
       <use xlink:href="#DejaVuSans-30"/>
      </g>
     </g>
    </g>
    <g id="xtick_2">
     <g id="line2d_3">
      <path d="M 146.041662 384.48 
L 146.041662 51.84 
" clip-path="url(#p4d7015eac1)" style="fill: none; stroke: #b0b0b0; stroke-opacity: 0.5; stroke-width: 0.8; stroke-linecap: square"/>
     </g>
     <g id="line2d_4">
      <g>
       <use xlink:href="#m3cfd0870b8" x="146.041662" y="384.48" style="stroke: #000000; stroke-width: 0.8"/>
      </g>
     </g>
     <g id="text_2">
      <!-- 20 -->
      <g transform="translate(139.679162 399.078438) scale(0.1 -0.1)">
       <defs>
        <path id="DejaVuSans-32" d="M 1228 531 
L 3431 531 
L 3431 0 
L 469 0 
L 469 531 
Q 828 903 1448 1529 
Q 2069 2156 2228 2338 
Q 2531 2678 2651 2914 
Q 2772 3150 2772 3378 
Q 2772 3750 2511 3984 
Q 2250 4219 1831 4219 
Q 1534 4219 1204 4116 
Q 875 4013 500 3803 
L 500 4441 
Q 881 4594 1212 4672 
Q 1544 4750 1819 4750 
Q 2544 4750 2975 4387 
Q 3406 4025 3406 3419 
Q 3406 3131 3298 2873 
Q 3191 2616 2906 2266 
Q 2828 2175 2409 1742 
Q 1991 1309 1228 531 
z
" transform="scale(0.015625)"/>
       </defs>
       <use xlink:href="#DejaVuSans-32"/>
       <use xlink:href="#DejaVuSans-30" x="63.623047"/>
      </g>
     </g>
    </g>
    <g id="xtick_3">
     <g id="line2d_5">
      <path d="M 199.792414 384.48 
L 199.792414 51.84 
" clip-path="url(#p4d7015eac1)" style="fill: none; stroke: #b0b0b0; stroke-opacity: 0.5; stroke-width: 0.8; stroke-linecap: square"/>
     </g>
     <g id="line2d_6">
      <g>
       <use xlink:href="#m3cfd0870b8" x="199.792414" y="384.48" style="stroke: #000000; stroke-width: 0.8"/>
      </g>
     </g>
     <g id="text_3">
      <!-- 40 -->
      <g transform="translate(193.429914 399.078438) scale(0.1 -0.1)">
       <defs>
        <path id="DejaVuSans-34" d="M 2419 4116 
L 825 1625 
L 2419 1625 
L 2419 4116 
z
M 2253 4666 
L 3047 4666 
L 3047 1625 
L 3713 1625 
L 3713 1100 
L 3047 1100 
L 3047 0 
L 2419 0 
L 2419 1100 
L 313 1100 
L 313 1709 
L 2253 4666 
z
" transform="scale(0.015625)"/>
       </defs>
       <use xlink:href="#DejaVuSans-34"/>
       <use xlink:href="#DejaVuSans-30" x="63.623047"/>
      </g>
     </g>
    </g>
    <g id="xtick_4">
     <g id="line2d_7">
      <path d="M 253.543167 384.48 
L 253.543167 51.84 
" clip-path="url(#p4d7015eac1)" style="fill: none; stroke: #b0b0b0; stroke-opacity: 0.5; stroke-width: 0.8; stroke-linecap: square"/>
     </g>
     <g id="line2d_8">
      <g>
       <use xlink:href="#m3cfd0870b8" x="253.543167" y="384.48" style="stroke: #000000; stroke-width: 0.8"/>
      </g>
     </g>
     <g id="text_4">
      <!-- 60 -->
      <g transform="translate(247.180667 399.078438) scale(0.1 -0.1)">
       <defs>
        <path id="DejaVuSans-36" d="M 2113 2584 
Q 1688 2584 1439 2293 
Q 1191 2003 1191 1497 
Q 1191 994 1439 701 
Q 1688 409 2113 409 
Q 2538 409 2786 701 
Q 3034 994 3034 1497 
Q 3034 2003 2786 2293 
Q 2538 2584 2113 2584 
z
M 3366 4563 
L 3366 3988 
Q 3128 4100 2886 4159 
Q 2644 4219 2406 4219 
Q 1781 4219 1451 3797 
Q 1122 3375 1075 2522 
Q 1259 2794 1537 2939 
Q 1816 3084 2150 3084 
Q 2853 3084 3261 2657 
Q 3669 2231 3669 1497 
Q 3669 778 3244 343 
Q 2819 -91 2113 -91 
Q 1303 -91 875 529 
Q 447 1150 447 2328 
Q 447 3434 972 4092 
Q 1497 4750 2381 4750 
Q 2619 4750 2861 4703 
Q 3103 4656 3366 4563 
z
" transform="scale(0.015625)"/>
       </defs>
       <use xlink:href="#DejaVuSans-36"/>
       <use xlink:href="#DejaVuSans-30" x="63.623047"/>
      </g>
     </g>
    </g>
    <g id="xtick_5">
     <g id="line2d_9">
      <path d="M 307.293919 384.48 
L 307.293919 51.84 
" clip-path="url(#p4d7015eac1)" style="fill: none; stroke: #b0b0b0; stroke-opacity: 0.5; stroke-width: 0.8; stroke-linecap: square"/>
     </g>
     <g id="line2d_10">
      <g>
       <use xlink:href="#m3cfd0870b8" x="307.293919" y="384.48" style="stroke: #000000; stroke-width: 0.8"/>
      </g>
     </g>
     <g id="text_5">
      <!-- 80 -->
      <g transform="translate(300.931419 399.078438) scale(0.1 -0.1)">
       <defs>
        <path id="DejaVuSans-38" d="M 2034 2216 
Q 1584 2216 1326 1975 
Q 1069 1734 1069 1313 
Q 1069 891 1326 650 
Q 1584 409 2034 409 
Q 2484 409 2743 651 
Q 3003 894 3003 1313 
Q 3003 1734 2745 1975 
Q 2488 2216 2034 2216 
z
M 1403 2484 
Q 997 2584 770 2862 
Q 544 3141 544 3541 
Q 544 4100 942 4425 
Q 1341 4750 2034 4750 
Q 2731 4750 3128 4425 
Q 3525 4100 3525 3541 
Q 3525 3141 3298 2862 
Q 3072 2584 2669 2484 
Q 3125 2378 3379 2068 
Q 3634 1759 3634 1313 
Q 3634 634 3220 271 
Q 2806 -91 2034 -91 
Q 1263 -91 848 271 
Q 434 634 434 1313 
Q 434 1759 690 2068 
Q 947 2378 1403 2484 
z
M 1172 3481 
Q 1172 3119 1398 2916 
Q 1625 2713 2034 2713 
Q 2441 2713 2670 2916 
Q 2900 3119 2900 3481 
Q 2900 3844 2670 4047 
Q 2441 4250 2034 4250 
Q 1625 4250 1398 4047 
Q 1172 3844 1172 3481 
z
" transform="scale(0.015625)"/>
       </defs>
       <use xlink:href="#DejaVuSans-38"/>
       <use xlink:href="#DejaVuSans-30" x="63.623047"/>
      </g>
     </g>
    </g>
    <g id="xtick_6">
     <g id="line2d_11">
      <path d="M 361.044672 384.48 
L 361.044672 51.84 
" clip-path="url(#p4d7015eac1)" style="fill: none; stroke: #b0b0b0; stroke-opacity: 0.5; stroke-width: 0.8; stroke-linecap: square"/>
     </g>
     <g id="line2d_12">
      <g>
       <use xlink:href="#m3cfd0870b8" x="361.044672" y="384.48" style="stroke: #000000; stroke-width: 0.8"/>
      </g>
     </g>
     <g id="text_6">
      <!-- 100 -->
      <g transform="translate(351.500922 399.078438) scale(0.1 -0.1)">
       <defs>
        <path id="DejaVuSans-31" d="M 794 531 
L 1825 531 
L 1825 4091 
L 703 3866 
L 703 4441 
L 1819 4666 
L 2450 4666 
L 2450 531 
L 3481 531 
L 3481 0 
L 794 0 
L 794 531 
z
" transform="scale(0.015625)"/>
       </defs>
       <use xlink:href="#DejaVuSans-31"/>
       <use xlink:href="#DejaVuSans-30" x="63.623047"/>
       <use xlink:href="#DejaVuSans-30" x="127.246094"/>
      </g>
     </g>
    </g>
    <g id="xtick_7">
     <g id="line2d_13">
      <path d="M 414.795424 384.48 
L 414.795424 51.84 
" clip-path="url(#p4d7015eac1)" style="fill: none; stroke: #b0b0b0; stroke-opacity: 0.5; stroke-width: 0.8; stroke-linecap: square"/>
     </g>
     <g id="line2d_14">
      <g>
       <use xlink:href="#m3cfd0870b8" x="414.795424" y="384.48" style="stroke: #000000; stroke-width: 0.8"/>
      </g>
     </g>
     <g id="text_7">
      <!-- 120 -->
      <g transform="translate(405.251674 399.078438) scale(0.1 -0.1)">
       <use xlink:href="#DejaVuSans-31"/>
       <use xlink:href="#DejaVuSans-32" x="63.623047"/>
       <use xlink:href="#DejaVuSans-30" x="127.246094"/>
      </g>
     </g>
    </g>
    <g id="xtick_8">
     <g id="line2d_15">
      <path d="M 468.546177 384.48 
L 468.546177 51.84 
" clip-path="url(#p4d7015eac1)" style="fill: none; stroke: #b0b0b0; stroke-opacity: 0.5; stroke-width: 0.8; stroke-linecap: square"/>
     </g>
     <g id="line2d_16">
      <g>
       <use xlink:href="#m3cfd0870b8" x="468.546177" y="384.48" style="stroke: #000000; stroke-width: 0.8"/>
      </g>
     </g>
     <g id="text_8">
      <!-- 140 -->
      <g transform="translate(459.002427 399.078438) scale(0.1 -0.1)">
       <use xlink:href="#DejaVuSans-31"/>
       <use xlink:href="#DejaVuSans-34" x="63.623047"/>
       <use xlink:href="#DejaVuSans-30" x="127.246094"/>
      </g>
     </g>
    </g>
    <g id="text_9">
     <!-- Communication rounds -->
     <g transform="translate(237.083594 412.756563) scale(0.1 -0.1)">
      <defs>
       <path id="DejaVuSans-43" d="M 4122 4306 
L 4122 3641 
Q 3803 3938 3442 4084 
Q 3081 4231 2675 4231 
Q 1875 4231 1450 3742 
Q 1025 3253 1025 2328 
Q 1025 1406 1450 917 
Q 1875 428 2675 428 
Q 3081 428 3442 575 
Q 3803 722 4122 1019 
L 4122 359 
Q 3791 134 3420 21 
Q 3050 -91 2638 -91 
Q 1578 -91 968 557 
Q 359 1206 359 2328 
Q 359 3453 968 4101 
Q 1578 4750 2638 4750 
Q 3056 4750 3426 4639 
Q 3797 4528 4122 4306 
z
" transform="scale(0.015625)"/>
       <path id="DejaVuSans-6f" d="M 1959 3097 
Q 1497 3097 1228 2736 
Q 959 2375 959 1747 
Q 959 1119 1226 758 
Q 1494 397 1959 397 
Q 2419 397 2687 759 
Q 2956 1122 2956 1747 
Q 2956 2369 2687 2733 
Q 2419 3097 1959 3097 
z
M 1959 3584 
Q 2709 3584 3137 3096 
Q 3566 2609 3566 1747 
Q 3566 888 3137 398 
Q 2709 -91 1959 -91 
Q 1206 -91 779 398 
Q 353 888 353 1747 
Q 353 2609 779 3096 
Q 1206 3584 1959 3584 
z
" transform="scale(0.015625)"/>
       <path id="DejaVuSans-6d" d="M 3328 2828 
Q 3544 3216 3844 3400 
Q 4144 3584 4550 3584 
Q 5097 3584 5394 3201 
Q 5691 2819 5691 2113 
L 5691 0 
L 5113 0 
L 5113 2094 
Q 5113 2597 4934 2840 
Q 4756 3084 4391 3084 
Q 3944 3084 3684 2787 
Q 3425 2491 3425 1978 
L 3425 0 
L 2847 0 
L 2847 2094 
Q 2847 2600 2669 2842 
Q 2491 3084 2119 3084 
Q 1678 3084 1418 2786 
Q 1159 2488 1159 1978 
L 1159 0 
L 581 0 
L 581 3500 
L 1159 3500 
L 1159 2956 
Q 1356 3278 1631 3431 
Q 1906 3584 2284 3584 
Q 2666 3584 2933 3390 
Q 3200 3197 3328 2828 
z
" transform="scale(0.015625)"/>
       <path id="DejaVuSans-75" d="M 544 1381 
L 544 3500 
L 1119 3500 
L 1119 1403 
Q 1119 906 1312 657 
Q 1506 409 1894 409 
Q 2359 409 2629 706 
Q 2900 1003 2900 1516 
L 2900 3500 
L 3475 3500 
L 3475 0 
L 2900 0 
L 2900 538 
Q 2691 219 2414 64 
Q 2138 -91 1772 -91 
Q 1169 -91 856 284 
Q 544 659 544 1381 
z
M 1991 3584 
L 1991 3584 
z
" transform="scale(0.015625)"/>
       <path id="DejaVuSans-6e" d="M 3513 2113 
L 3513 0 
L 2938 0 
L 2938 2094 
Q 2938 2591 2744 2837 
Q 2550 3084 2163 3084 
Q 1697 3084 1428 2787 
Q 1159 2491 1159 1978 
L 1159 0 
L 581 0 
L 581 3500 
L 1159 3500 
L 1159 2956 
Q 1366 3272 1645 3428 
Q 1925 3584 2291 3584 
Q 2894 3584 3203 3211 
Q 3513 2838 3513 2113 
z
" transform="scale(0.015625)"/>
       <path id="DejaVuSans-69" d="M 603 3500 
L 1178 3500 
L 1178 0 
L 603 0 
L 603 3500 
z
M 603 4863 
L 1178 4863 
L 1178 4134 
L 603 4134 
L 603 4863 
z
" transform="scale(0.015625)"/>
       <path id="DejaVuSans-63" d="M 3122 3366 
L 3122 2828 
Q 2878 2963 2633 3030 
Q 2388 3097 2138 3097 
Q 1578 3097 1268 2742 
Q 959 2388 959 1747 
Q 959 1106 1268 751 
Q 1578 397 2138 397 
Q 2388 397 2633 464 
Q 2878 531 3122 666 
L 3122 134 
Q 2881 22 2623 -34 
Q 2366 -91 2075 -91 
Q 1284 -91 818 406 
Q 353 903 353 1747 
Q 353 2603 823 3093 
Q 1294 3584 2113 3584 
Q 2378 3584 2631 3529 
Q 2884 3475 3122 3366 
z
" transform="scale(0.015625)"/>
       <path id="DejaVuSans-61" d="M 2194 1759 
Q 1497 1759 1228 1600 
Q 959 1441 959 1056 
Q 959 750 1161 570 
Q 1363 391 1709 391 
Q 2188 391 2477 730 
Q 2766 1069 2766 1631 
L 2766 1759 
L 2194 1759 
z
M 3341 1997 
L 3341 0 
L 2766 0 
L 2766 531 
Q 2569 213 2275 61 
Q 1981 -91 1556 -91 
Q 1019 -91 701 211 
Q 384 513 384 1019 
Q 384 1609 779 1909 
Q 1175 2209 1959 2209 
L 2766 2209 
L 2766 2266 
Q 2766 2663 2505 2880 
Q 2244 3097 1772 3097 
Q 1472 3097 1187 3025 
Q 903 2953 641 2809 
L 641 3341 
Q 956 3463 1253 3523 
Q 1550 3584 1831 3584 
Q 2591 3584 2966 3190 
Q 3341 2797 3341 1997 
z
" transform="scale(0.015625)"/>
       <path id="DejaVuSans-74" d="M 1172 4494 
L 1172 3500 
L 2356 3500 
L 2356 3053 
L 1172 3053 
L 1172 1153 
Q 1172 725 1289 603 
Q 1406 481 1766 481 
L 2356 481 
L 2356 0 
L 1766 0 
Q 1100 0 847 248 
Q 594 497 594 1153 
L 594 3053 
L 172 3053 
L 172 3500 
L 594 3500 
L 594 4494 
L 1172 4494 
z
" transform="scale(0.015625)"/>
       <path id="DejaVuSans-20" transform="scale(0.015625)"/>
       <path id="DejaVuSans-72" d="M 2631 2963 
Q 2534 3019 2420 3045 
Q 2306 3072 2169 3072 
Q 1681 3072 1420 2755 
Q 1159 2438 1159 1844 
L 1159 0 
L 581 0 
L 581 3500 
L 1159 3500 
L 1159 2956 
Q 1341 3275 1631 3429 
Q 1922 3584 2338 3584 
Q 2397 3584 2469 3576 
Q 2541 3569 2628 3553 
L 2631 2963 
z
" transform="scale(0.015625)"/>
       <path id="DejaVuSans-64" d="M 2906 2969 
L 2906 4863 
L 3481 4863 
L 3481 0 
L 2906 0 
L 2906 525 
Q 2725 213 2448 61 
Q 2172 -91 1784 -91 
Q 1150 -91 751 415 
Q 353 922 353 1747 
Q 353 2572 751 3078 
Q 1150 3584 1784 3584 
Q 2172 3584 2448 3432 
Q 2725 3281 2906 2969 
z
M 947 1747 
Q 947 1113 1208 752 
Q 1469 391 1925 391 
Q 2381 391 2643 752 
Q 2906 1113 2906 1747 
Q 2906 2381 2643 2742 
Q 2381 3103 1925 3103 
Q 1469 3103 1208 2742 
Q 947 2381 947 1747 
z
" transform="scale(0.015625)"/>
       <path id="DejaVuSans-73" d="M 2834 3397 
L 2834 2853 
Q 2591 2978 2328 3040 
Q 2066 3103 1784 3103 
Q 1356 3103 1142 2972 
Q 928 2841 928 2578 
Q 928 2378 1081 2264 
Q 1234 2150 1697 2047 
L 1894 2003 
Q 2506 1872 2764 1633 
Q 3022 1394 3022 966 
Q 3022 478 2636 193 
Q 2250 -91 1575 -91 
Q 1294 -91 989 -36 
Q 684 19 347 128 
L 347 722 
Q 666 556 975 473 
Q 1284 391 1588 391 
Q 1994 391 2212 530 
Q 2431 669 2431 922 
Q 2431 1156 2273 1281 
Q 2116 1406 1581 1522 
L 1381 1569 
Q 847 1681 609 1914 
Q 372 2147 372 2553 
Q 372 3047 722 3315 
Q 1072 3584 1716 3584 
Q 2034 3584 2315 3537 
Q 2597 3491 2834 3397 
z
" transform="scale(0.015625)"/>
      </defs>
      <use xlink:href="#DejaVuSans-43"/>
      <use xlink:href="#DejaVuSans-6f" x="69.824219"/>
      <use xlink:href="#DejaVuSans-6d" x="131.005859"/>
      <use xlink:href="#DejaVuSans-6d" x="228.417969"/>
      <use xlink:href="#DejaVuSans-75" x="325.830078"/>
      <use xlink:href="#DejaVuSans-6e" x="389.208984"/>
      <use xlink:href="#DejaVuSans-69" x="452.587891"/>
      <use xlink:href="#DejaVuSans-63" x="480.371094"/>
      <use xlink:href="#DejaVuSans-61" x="535.351562"/>
      <use xlink:href="#DejaVuSans-74" x="596.630859"/>
      <use xlink:href="#DejaVuSans-69" x="635.839844"/>
      <use xlink:href="#DejaVuSans-6f" x="663.623047"/>
      <use xlink:href="#DejaVuSans-6e" x="724.804688"/>
      <use xlink:href="#DejaVuSans-20" x="788.183594"/>
      <use xlink:href="#DejaVuSans-72" x="819.970703"/>
      <use xlink:href="#DejaVuSans-6f" x="858.833984"/>
      <use xlink:href="#DejaVuSans-75" x="920.015625"/>
      <use xlink:href="#DejaVuSans-6e" x="983.394531"/>
      <use xlink:href="#DejaVuSans-64" x="1046.773438"/>
      <use xlink:href="#DejaVuSans-73" x="1110.25"/>
     </g>
    </g>
   </g>
   <g id="matplotlib.axis_2">
    <g id="ytick_1">
     <g id="line2d_17">
      <path d="M 72 352.394847 
L 518.4 352.394847 
" clip-path="url(#p4d7015eac1)" style="fill: none; stroke: #b0b0b0; stroke-opacity: 0.5; stroke-width: 0.8; stroke-linecap: square"/>
     </g>
     <g id="line2d_18">
      <defs>
       <path id="mf8d507450e" d="M 0 0 
L -3.5 0 
" style="stroke: #000000; stroke-width: 0.8"/>
      </defs>
      <g>
       <use xlink:href="#mf8d507450e" x="72" y="352.394847" style="stroke: #000000; stroke-width: 0.8"/>
      </g>
     </g>
     <g id="text_10">
      <!-- 0.3 -->
      <g transform="translate(49.096875 356.194066) scale(0.1 -0.1)">
       <defs>
        <path id="DejaVuSans-2e" d="M 684 794 
L 1344 794 
L 1344 0 
L 684 0 
L 684 794 
z
" transform="scale(0.015625)"/>
        <path id="DejaVuSans-33" d="M 2597 2516 
Q 3050 2419 3304 2112 
Q 3559 1806 3559 1356 
Q 3559 666 3084 287 
Q 2609 -91 1734 -91 
Q 1441 -91 1130 -33 
Q 819 25 488 141 
L 488 750 
Q 750 597 1062 519 
Q 1375 441 1716 441 
Q 2309 441 2620 675 
Q 2931 909 2931 1356 
Q 2931 1769 2642 2001 
Q 2353 2234 1838 2234 
L 1294 2234 
L 1294 2753 
L 1863 2753 
Q 2328 2753 2575 2939 
Q 2822 3125 2822 3475 
Q 2822 3834 2567 4026 
Q 2313 4219 1838 4219 
Q 1578 4219 1281 4162 
Q 984 4106 628 3988 
L 628 4550 
Q 988 4650 1302 4700 
Q 1616 4750 1894 4750 
Q 2613 4750 3031 4423 
Q 3450 4097 3450 3541 
Q 3450 3153 3228 2886 
Q 3006 2619 2597 2516 
z
" transform="scale(0.015625)"/>
       </defs>
       <use xlink:href="#DejaVuSans-30"/>
       <use xlink:href="#DejaVuSans-2e" x="63.623047"/>
       <use xlink:href="#DejaVuSans-33" x="95.410156"/>
      </g>
     </g>
    </g>
    <g id="ytick_2">
     <g id="line2d_19">
      <path d="M 72 301.14061 
L 518.4 301.14061 
" clip-path="url(#p4d7015eac1)" style="fill: none; stroke: #b0b0b0; stroke-opacity: 0.5; stroke-width: 0.8; stroke-linecap: square"/>
     </g>
     <g id="line2d_20">
      <g>
       <use xlink:href="#mf8d507450e" x="72" y="301.14061" style="stroke: #000000; stroke-width: 0.8"/>
      </g>
     </g>
     <g id="text_11">
      <!-- 0.4 -->
      <g transform="translate(49.096875 304.939829) scale(0.1 -0.1)">
       <use xlink:href="#DejaVuSans-30"/>
       <use xlink:href="#DejaVuSans-2e" x="63.623047"/>
       <use xlink:href="#DejaVuSans-34" x="95.410156"/>
      </g>
     </g>
    </g>
    <g id="ytick_3">
     <g id="line2d_21">
      <path d="M 72 249.886373 
L 518.4 249.886373 
" clip-path="url(#p4d7015eac1)" style="fill: none; stroke: #b0b0b0; stroke-opacity: 0.5; stroke-width: 0.8; stroke-linecap: square"/>
     </g>
     <g id="line2d_22">
      <g>
       <use xlink:href="#mf8d507450e" x="72" y="249.886373" style="stroke: #000000; stroke-width: 0.8"/>
      </g>
     </g>
     <g id="text_12">
      <!-- 0.5 -->
      <g transform="translate(49.096875 253.685592) scale(0.1 -0.1)">
       <defs>
        <path id="DejaVuSans-35" d="M 691 4666 
L 3169 4666 
L 3169 4134 
L 1269 4134 
L 1269 2991 
Q 1406 3038 1543 3061 
Q 1681 3084 1819 3084 
Q 2600 3084 3056 2656 
Q 3513 2228 3513 1497 
Q 3513 744 3044 326 
Q 2575 -91 1722 -91 
Q 1428 -91 1123 -41 
Q 819 9 494 109 
L 494 744 
Q 775 591 1075 516 
Q 1375 441 1709 441 
Q 2250 441 2565 725 
Q 2881 1009 2881 1497 
Q 2881 1984 2565 2268 
Q 2250 2553 1709 2553 
Q 1456 2553 1204 2497 
Q 953 2441 691 2322 
L 691 4666 
z
" transform="scale(0.015625)"/>
       </defs>
       <use xlink:href="#DejaVuSans-30"/>
       <use xlink:href="#DejaVuSans-2e" x="63.623047"/>
       <use xlink:href="#DejaVuSans-35" x="95.410156"/>
      </g>
     </g>
    </g>
    <g id="ytick_4">
     <g id="line2d_23">
      <path d="M 72 198.632136 
L 518.4 198.632136 
" clip-path="url(#p4d7015eac1)" style="fill: none; stroke: #b0b0b0; stroke-opacity: 0.5; stroke-width: 0.8; stroke-linecap: square"/>
     </g>
     <g id="line2d_24">
      <g>
       <use xlink:href="#mf8d507450e" x="72" y="198.632136" style="stroke: #000000; stroke-width: 0.8"/>
      </g>
     </g>
     <g id="text_13">
      <!-- 0.6 -->
      <g transform="translate(49.096875 202.431354) scale(0.1 -0.1)">
       <use xlink:href="#DejaVuSans-30"/>
       <use xlink:href="#DejaVuSans-2e" x="63.623047"/>
       <use xlink:href="#DejaVuSans-36" x="95.410156"/>
      </g>
     </g>
    </g>
    <g id="ytick_5">
     <g id="line2d_25">
      <path d="M 72 147.377898 
L 518.4 147.377898 
" clip-path="url(#p4d7015eac1)" style="fill: none; stroke: #b0b0b0; stroke-opacity: 0.5; stroke-width: 0.8; stroke-linecap: square"/>
     </g>
     <g id="line2d_26">
      <g>
       <use xlink:href="#mf8d507450e" x="72" y="147.377898" style="stroke: #000000; stroke-width: 0.8"/>
      </g>
     </g>
     <g id="text_14">
      <!-- 0.7 -->
      <g transform="translate(49.096875 151.177117) scale(0.1 -0.1)">
       <defs>
        <path id="DejaVuSans-37" d="M 525 4666 
L 3525 4666 
L 3525 4397 
L 1831 0 
L 1172 0 
L 2766 4134 
L 525 4134 
L 525 4666 
z
" transform="scale(0.015625)"/>
       </defs>
       <use xlink:href="#DejaVuSans-30"/>
       <use xlink:href="#DejaVuSans-2e" x="63.623047"/>
       <use xlink:href="#DejaVuSans-37" x="95.410156"/>
      </g>
     </g>
    </g>
    <g id="ytick_6">
     <g id="line2d_27">
      <path d="M 72 96.123661 
L 518.4 96.123661 
" clip-path="url(#p4d7015eac1)" style="fill: none; stroke: #b0b0b0; stroke-opacity: 0.5; stroke-width: 0.8; stroke-linecap: square"/>
     </g>
     <g id="line2d_28">
      <g>
       <use xlink:href="#mf8d507450e" x="72" y="96.123661" style="stroke: #000000; stroke-width: 0.8"/>
      </g>
     </g>
     <g id="text_15">
      <!-- 0.8 -->
      <g transform="translate(49.096875 99.92288) scale(0.1 -0.1)">
       <use xlink:href="#DejaVuSans-30"/>
       <use xlink:href="#DejaVuSans-2e" x="63.623047"/>
       <use xlink:href="#DejaVuSans-38" x="95.410156"/>
      </g>
     </g>
    </g>
    <g id="text_16">
     <!-- Accuracy -->
     <g transform="translate(43.017187 240.988125) rotate(-90) scale(0.1 -0.1)">
      <defs>
       <path id="DejaVuSans-41" d="M 2188 4044 
L 1331 1722 
L 3047 1722 
L 2188 4044 
z
M 1831 4666 
L 2547 4666 
L 4325 0 
L 3669 0 
L 3244 1197 
L 1141 1197 
L 716 0 
L 50 0 
L 1831 4666 
z
" transform="scale(0.015625)"/>
       <path id="DejaVuSans-79" d="M 2059 -325 
Q 1816 -950 1584 -1140 
Q 1353 -1331 966 -1331 
L 506 -1331 
L 506 -850 
L 844 -850 
Q 1081 -850 1212 -737 
Q 1344 -625 1503 -206 
L 1606 56 
L 191 3500 
L 800 3500 
L 1894 763 
L 2988 3500 
L 3597 3500 
L 2059 -325 
z
" transform="scale(0.015625)"/>
      </defs>
      <use xlink:href="#DejaVuSans-41"/>
      <use xlink:href="#DejaVuSans-63" x="66.658203"/>
      <use xlink:href="#DejaVuSans-63" x="121.638672"/>
      <use xlink:href="#DejaVuSans-75" x="176.619141"/>
      <use xlink:href="#DejaVuSans-72" x="239.998047"/>
      <use xlink:href="#DejaVuSans-61" x="281.111328"/>
      <use xlink:href="#DejaVuSans-63" x="342.390625"/>
      <use xlink:href="#DejaVuSans-79" x="397.371094"/>
     </g>
    </g>
   </g>
   <g id="line2d_29">
    <path d="M 92.290909 336.762305 
L 94.978447 304.113356 
L 97.665984 247.426169 
L 100.353522 285.508068 
L 103.04106 252.859119 
L 105.728597 300.064271 
L 108.416135 180.283119 
L 111.103672 147.377898 
L 113.79121 149.838102 
L 116.478748 125.799864 
L 119.166285 142.56 
L 121.853823 102.069153 
L 124.541361 169.776 
L 127.228898 107.758373 
L 129.916436 106.374508 
L 132.603974 109.603525 
L 135.291511 93.407186 
L 137.979049 88.076746 
L 140.666586 93.714712 
L 143.354124 103.401763 
L 146.041662 94.278508 
L 148.729199 84.540203 
L 151.416737 89.101831 
L 154.104275 87.461695 
L 156.791812 88.025492 
L 159.47935 83.976407 
L 162.166887 83.463864 
L 164.854425 81.823729 
L 167.541963 83.41261 
L 170.2295 86.129085 
L 172.917038 82.643797 
L 175.604576 75.314441 
L 178.292113 81.259932 
L 180.979651 78.030915 
L 183.667188 80.183593 
L 186.354726 87.205424 
L 189.042264 74.545627 
L 191.729801 82.900068 
L 194.417339 81.003661 
L 197.104877 80.491119 
L 199.792414 73.469288 
L 202.479952 78.030915 
L 205.167489 78.850983 
L 207.855027 77.825898 
L 210.542565 78.030915 
L 213.230102 76.698305 
L 215.91764 80.183593 
L 218.605178 75.878237 
L 221.292715 78.338441 
L 223.980253 83.976407 
L 226.66779 77.262102 
L 229.355328 76.954576 
L 232.042866 76.954576 
L 234.730403 74.238102 
L 237.417941 77.262102 
L 240.105479 72.085424 
L 242.793016 81.567458 
L 245.480554 75.621966 
L 248.168092 77.518373 
L 250.855629 79.927322 
L 253.543167 81.003661 
L 256.230704 77.774644 
L 258.918242 77.825898 
L 261.60578 76.442034 
L 264.293317 78.030915 
L 266.980855 79.363525 
L 269.668393 75.878237 
L 272.35593 78.850983 
L 275.043468 83.156339 
L 277.731005 77.467119 
L 280.418543 74.801898 
L 283.106081 76.134508 
L 285.793618 75.365695 
L 288.481156 81.259932 
L 291.168694 78.850983 
L 293.856231 78.850983 
L 296.543769 75.109424 
L 299.231306 74.033085 
L 301.918844 77.210847 
L 304.606382 74.289356 
L 307.293919 75.109424 
L 309.981457 76.954576 
L 312.668995 75.314441 
L 315.356532 71.572881 
L 318.04407 83.720136 
L 320.731607 72.64922 
L 323.419145 74.238102 
L 326.106683 70.189017 
L 328.79422 77.774644 
L 331.481758 75.314441 
L 334.169296 75.878237 
L 336.856833 78.338441 
L 339.544371 76.749559 
L 342.231908 75.621966 
L 344.919446 75.621966 
L 347.606984 73.161763 
L 350.294521 75.365695 
L 352.982059 73.161763 
L 355.669597 74.801898 
L 358.357134 73.725559 
L 361.044672 75.621966 
L 363.73221 75.878237 
L 366.419747 71.829153 
L 369.107285 73.161763 
L 371.794822 78.594712 
L 374.48236 74.289356 
L 377.169898 75.621966 
L 379.857435 71.829153 
L 382.544973 79.107254 
L 385.232511 76.954576 
L 387.920048 79.927322 
L 390.607586 83.463864 
L 393.295123 74.545627 
L 395.982661 72.905492 
L 398.670199 75.109424 
L 401.357736 75.621966 
L 404.045274 75.314441 
L 406.732812 72.392949 
L 409.420349 79.363525 
L 412.107887 76.698305 
L 414.795424 75.365695 
L 417.482962 82.08 
L 420.1705 73.981831 
L 422.858037 70.752814 
L 425.545575 69.984 
L 428.233113 76.954576 
L 430.92065 73.981831 
L 433.608188 75.058169 
L 436.295725 74.238102 
L 438.983263 70.496542 
L 441.670801 74.801898 
L 444.358338 75.058169 
L 447.045876 78.850983 
L 449.733414 73.725559 
L 452.420951 72.905492 
L 455.108489 82.08 
L 457.796026 76.39078 
L 460.483564 73.213017 
L 463.171102 75.621966 
L 465.858639 84.540203 
L 468.546177 76.442034 
L 471.233715 71.829153 
L 473.921252 74.801898 
L 476.60879 73.469288 
L 479.296328 76.134508 
L 481.983865 76.698305 
L 484.671403 72.905492 
L 487.35894 70.752814 
L 490.046478 76.442034 
L 492.734016 70.752814 
L 495.421553 76.954576 
L 498.109091 82.336271 
L 498.109091 82.336271 
" clip-path="url(#p4d7015eac1)" style="fill: none; stroke: #1f77b4; stroke-width: 1.5; stroke-linecap: square"/>
   </g>
   <g id="line2d_30">
    <path d="M 92.290909 317.59322 
L 94.978447 368.591186 
L 97.665984 335.378441 
L 100.353522 308.162441 
L 103.04106 268.747932 
L 105.728597 248.246237 
L 108.416135 229.692203 
L 111.103672 219.133831 
L 113.79121 209.703051 
L 116.478748 139.843525 
L 119.166285 163.830508 
L 121.853823 127.44 
L 124.541361 102.632949 
L 127.228898 103.145492 
L 129.916436 111.192407 
L 132.603974 96.636203 
L 135.291511 118.214237 
L 137.979049 97.456271 
L 140.666586 98.276339 
L 143.354124 98.788881 
L 146.041662 96.943729 
L 148.729199 92.330847 
L 151.416737 100.992814 
L 154.104275 90.998237 
L 156.791812 106.63078 
L 159.47935 86.129085 
L 162.166887 89.101831 
L 164.854425 87.000407 
L 167.541963 84.232678 
L 170.2295 90.741966 
L 172.917038 88.025492 
L 175.604576 93.407186 
L 178.292113 82.08 
L 180.979651 79.927322 
L 183.667188 88.025492 
L 186.354726 85.309017 
L 189.042264 88.025492 
L 191.729801 84.027661 
L 194.417339 82.643797 
L 197.104877 90.741966 
L 199.792414 86.385356 
L 202.479952 85.052746 
L 205.167489 93.407186 
L 207.855027 86.129085 
L 210.542565 82.08 
L 213.230102 85.309017 
L 215.91764 84.232678 
L 218.605178 91.818305 
L 221.292715 85.052746 
L 223.980253 90.998237 
L 226.66779 82.643797 
L 229.355328 79.671051 
L 232.042866 81.823729 
L 234.730403 81.567458 
L 237.417941 87.512949 
L 240.105479 79.927322 
L 242.793016 85.052746 
L 245.480554 85.872814 
L 248.168092 79.671051 
L 250.855629 85.872814 
L 253.543167 77.518373 
L 256.230704 82.900068 
L 258.918242 82.951322 
L 261.60578 85.309017 
L 264.293317 90.178169 
L 266.980855 82.900068 
L 269.668393 80.74739 
L 272.35593 84.232678 
L 275.043468 84.540203 
L 277.731005 80.183593 
L 280.418543 77.467119 
L 283.106081 79.671051 
L 285.793618 90.741966 
L 288.481156 81.874983 
L 291.168694 91.254508 
L 293.856231 75.058169 
L 296.543769 80.491119 
L 299.231306 81.003661 
L 301.918844 81.003661 
L 304.606382 82.900068 
L 307.293919 78.338441 
L 309.981457 85.052746 
L 312.668995 82.387525 
L 315.356532 114.472678 
L 318.04407 85.565288 
L 320.731607 83.720136 
L 323.419145 83.463864 
L 326.106683 84.027661 
L 328.79422 82.387525 
L 331.481758 86.692881 
L 334.169296 75.878237 
L 336.856833 76.954576 
L 339.544371 81.311186 
L 342.231908 78.850983 
L 344.919446 88.281763 
L 347.606984 81.823729 
L 350.294521 85.052746 
L 352.982059 77.262102 
L 355.669597 85.565288 
L 358.357134 86.129085 
L 361.044672 78.338441 
L 363.73221 78.338441 
L 366.419747 84.796475 
L 369.107285 85.872814 
L 371.794822 82.336271 
L 374.48236 80.74739 
L 377.169898 79.41478 
L 379.857435 80.491119 
L 382.544973 83.156339 
L 385.232511 91.51078 
L 387.920048 82.08 
L 390.607586 82.08 
L 393.295123 90.229424 
L 395.982661 89.614373 
L 398.670199 89.614373 
L 401.357736 81.823729 
L 404.045274 75.365695 
L 406.732812 79.41478 
L 409.420349 80.439864 
L 412.107887 86.692881 
L 414.795424 79.671051 
L 417.482962 83.720136 
L 420.1705 83.720136 
L 422.858037 81.259932 
L 425.545575 87.205424 
L 428.233113 86.949153 
L 430.92065 83.156339 
L 433.608188 80.183593 
L 436.295725 86.385356 
L 438.983263 82.900068 
L 441.670801 93.407186 
L 444.358338 75.878237 
L 447.045876 82.336271 
L 449.733414 86.641627 
L 452.420951 79.107254 
L 455.108489 79.107254 
L 457.796026 80.491119 
L 460.483564 78.594712 
L 463.171102 86.129085 
L 465.858639 86.129085 
L 468.546177 82.336271 
L 471.233715 83.41261 
L 473.921252 82.08 
L 476.60879 83.976407 
L 479.296328 87.512949 
L 481.983865 76.954576 
L 484.671403 76.134508 
L 487.35894 79.927322 
L 490.046478 79.107254 
L 492.734016 84.540203 
L 495.421553 92.074576 
L 498.109091 84.232678 
L 498.109091 84.232678 
" clip-path="url(#p4d7015eac1)" style="fill: none; stroke: #ff7f0e; stroke-width: 1.5; stroke-linecap: square"/>
   </g>
   <g id="line2d_31">
    <path d="M 92.290909 353.214915 
L 94.978447 360.493017 
L 97.665984 324.307525 
L 100.353522 315.133017 
L 103.04106 240.148068 
L 105.728597 175.46522 
L 108.416135 205.910237 
L 111.103672 217.237424 
L 113.79121 152.759593 
L 116.478748 185.408542 
L 119.166285 139.330983 
L 121.853823 116.932881 
L 124.541361 172.748746 
L 127.228898 107.96339 
L 129.916436 135.743186 
L 132.603974 113.960136 
L 135.291511 100.172746 
L 137.979049 90.741966 
L 140.666586 102.325424 
L 143.354124 115.549017 
L 146.041662 106.066983 
L 148.729199 131.745356 
L 151.416737 94.227254 
L 154.104275 92.587119 
L 156.791812 97.763797 
L 159.47935 103.658034 
L 162.166887 97.456271 
L 164.854425 89.921898 
L 167.541963 113.396339 
L 170.2295 94.739797 
L 172.917038 91.818305 
L 175.604576 87.205424 
L 178.292113 100.429017 
L 180.979651 81.003661 
L 183.667188 97.2 
L 186.354726 87.76922 
L 189.042264 85.872814 
L 191.729801 85.565288 
L 194.417339 97.456271 
L 197.104877 85.872814 
L 199.792414 82.336271 
L 202.479952 82.643797 
L 205.167489 90.998237 
L 207.855027 89.614373 
L 210.542565 83.463864 
L 213.230102 85.052746 
L 215.91764 84.232678 
L 218.605178 85.565288 
L 221.292715 90.434441 
L 223.980253 80.234847 
L 226.66779 84.796475 
L 229.355328 87.205424 
L 232.042866 85.309017 
L 234.730403 77.262102 
L 237.417941 94.483525 
L 240.105479 78.594712 
L 242.793016 78.338441 
L 245.480554 76.39078 
L 248.168092 95.303593 
L 250.855629 87.000407 
L 253.543167 83.720136 
L 256.230704 81.259932 
L 258.918242 86.692881 
L 261.60578 87.76922 
L 264.293317 83.41261 
L 266.980855 88.538034 
L 269.668393 96.123661 
L 272.35593 81.003661 
L 275.043468 85.872814 
L 277.731005 100.172746 
L 280.418543 83.720136 
L 283.106081 83.41261 
L 285.793618 89.101831 
L 288.481156 81.823729 
L 291.168694 80.74739 
L 293.856231 78.338441 
L 296.543769 75.621966 
L 299.231306 80.234847 
L 301.918844 95.559864 
L 304.606382 83.41261 
L 307.293919 87.205424 
L 309.981457 83.156339 
L 312.668995 86.385356 
L 315.356532 82.336271 
L 318.04407 77.518373 
L 320.731607 79.927322 
L 323.419145 83.720136 
L 326.106683 90.998237 
L 328.79422 81.311186 
L 331.481758 83.156339 
L 334.169296 95.559864 
L 336.856833 85.872814 
L 339.544371 82.900068 
L 342.231908 80.183593 
L 344.919446 86.43661 
L 347.606984 76.442034 
L 350.294521 96.943729 
L 352.982059 78.338441 
L 355.669597 90.229424 
L 358.357134 129.848949 
L 361.044672 88.538034 
L 363.73221 88.025492 
L 366.419747 81.311186 
L 369.107285 78.030915 
L 371.794822 78.338441 
L 374.48236 78.030915 
L 377.169898 85.309017 
L 379.857435 86.129085 
L 382.544973 88.794305 
L 385.232511 85.872814 
L 387.920048 77.518373 
L 390.607586 87.512949 
L 393.295123 94.227254 
L 395.982661 80.74739 
L 398.670199 91.818305 
L 401.357736 84.540203 
L 404.045274 76.185763 
L 406.732812 87.512949 
L 409.420349 78.594712 
L 412.107887 100.941559 
L 414.795424 84.232678 
L 417.482962 83.976407 
L 420.1705 82.643797 
L 422.858037 85.052746 
L 425.545575 82.336271 
L 428.233113 81.003661 
L 430.92065 78.850983 
L 433.608188 72.392949 
L 436.295725 81.567458 
L 438.983263 95.303593 
L 441.670801 82.643797 
L 444.358338 80.183593 
L 449.733414 78.030915 
L 452.420951 94.483525 
L 455.108489 86.129085 
L 457.796026 83.156339 
L 460.483564 77.518373 
L 463.171102 95.354847 
L 465.858639 84.540203 
L 468.546177 84.540203 
L 471.233715 78.030915 
L 473.921252 93.202169 
L 476.60879 83.668881 
L 479.296328 85.309017 
L 481.983865 85.309017 
L 484.671403 80.439864 
L 487.35894 78.850983 
L 490.046478 85.052746 
L 492.734016 80.74739 
L 495.421553 85.616542 
L 498.109091 87.76922 
L 498.109091 87.76922 
" clip-path="url(#p4d7015eac1)" style="fill: none; stroke: #2ca02c; stroke-width: 1.5; stroke-linecap: square"/>
   </g>
   <g id="line2d_32">
    <path d="M 92.290909 357.827797 
L 94.978447 351.882305 
L 97.665984 369.36 
L 100.353522 316.516881 
L 103.04106 267.159051 
L 105.728597 251.475254 
L 108.416135 158.192542 
L 111.103672 253.166644 
L 113.79121 155.219797 
L 116.478748 123.903458 
L 119.166285 168.135864 
L 121.853823 177.874169 
L 124.541361 151.99078 
L 127.228898 127.183729 
L 129.916436 142.508746 
L 132.603974 119.290576 
L 135.291511 113.65261 
L 137.979049 165.726915 
L 140.666586 97.2 
L 143.354124 117.137898 
L 146.041662 98.53261 
L 148.729199 90.741966 
L 151.416737 85.616542 
L 154.104275 95.047322 
L 156.791812 102.069153 
L 159.47935 150.350644 
L 162.166887 78.594712 
L 164.854425 79.671051 
L 167.541963 88.281763 
L 170.2295 76.134508 
L 172.917038 89.101831 
L 175.604576 77.262102 
L 178.292113 97.763797 
L 180.979651 88.845559 
L 183.667188 105.041898 
L 186.354726 80.74739 
L 189.042264 90.741966 
L 191.729801 78.594712 
L 194.417339 81.567458 
L 197.104877 92.84339 
L 199.792414 82.387525 
L 202.479952 79.41478 
L 205.167489 76.698305 
L 207.855027 75.621966 
L 210.542565 80.74739 
L 213.230102 79.671051 
L 215.91764 75.058169 
L 218.605178 78.850983 
L 221.292715 78.594712 
L 223.980253 113.960136 
L 229.355328 78.338441 
L 232.042866 92.894644 
L 234.730403 74.238102 
L 237.417941 73.161763 
L 240.105479 74.545627 
L 242.793016 78.850983 
L 245.480554 72.136678 
L 248.168092 83.976407 
L 250.855629 72.392949 
L 253.543167 79.927322 
L 256.230704 78.850983 
L 258.918242 86.385356 
L 261.60578 74.545627 
L 264.293317 80.74739 
L 266.980855 99.096407 
L 269.668393 84.796475 
L 272.35593 74.033085 
L 275.043468 74.238102 
L 280.418543 78.594712 
L 283.106081 73.469288 
L 285.793618 80.491119 
L 288.481156 114.780203 
L 291.168694 87.76922 
L 293.856231 82.08 
L 296.543769 73.725559 
L 299.231306 76.185763 
L 301.918844 72.136678 
L 304.606382 73.981831 
L 307.293919 81.823729 
L 309.981457 91.767051 
L 312.668995 74.545627 
L 315.356532 79.671051 
L 318.04407 76.954576 
L 320.731607 84.027661 
L 323.419145 72.905492 
L 326.106683 75.878237 
L 328.79422 73.725559 
L 331.481758 78.338441 
L 334.169296 80.74739 
L 339.544371 75.878237 
L 342.231908 71.572881 
L 344.919446 75.878237 
L 347.606984 81.516203 
L 350.294521 75.621966 
L 352.982059 75.058169 
L 355.669597 76.442034 
L 358.357134 90.741966 
L 361.044672 90.741966 
L 363.73221 73.981831 
L 366.419747 77.518373 
L 369.107285 79.927322 
L 371.794822 94.739797 
L 374.48236 72.905492 
L 377.169898 88.845559 
L 379.857435 70.496542 
L 382.544973 76.185763 
L 385.232511 85.309017 
L 387.920048 90.741966 
L 390.607586 81.259932 
L 393.295123 69.984 
L 395.982661 79.927322 
L 398.670199 80.183593 
L 401.357736 71.572881 
L 404.045274 69.420203 
L 406.732812 81.311186 
L 409.420349 72.136678 
L 412.107887 72.136678 
L 414.795424 85.565288 
L 417.482962 74.545627 
L 420.1705 77.774644 
L 422.858037 83.720136 
L 425.545575 73.725559 
L 428.233113 76.442034 
L 430.92065 71.060339 
L 433.608188 79.41478 
L 436.295725 75.621966 
L 438.983263 70.752814 
L 441.670801 80.74739 
L 444.358338 102.837966 
L 447.045876 79.927322 
L 449.733414 68.087593 
L 452.420951 81.567458 
L 455.108489 69.420203 
L 457.796026 78.338441 
L 460.483564 71.829153 
L 463.171102 72.905492 
L 465.858639 73.725559 
L 468.546177 75.878237 
L 471.233715 71.31661 
L 473.921252 75.109424 
L 476.60879 70.240271 
L 479.296328 85.565288 
L 481.983865 78.338441 
L 484.671403 75.109424 
L 487.35894 66.96 
L 490.046478 77.467119 
L 492.734016 73.725559 
L 495.421553 73.981831 
L 498.109091 76.954576 
L 498.109091 76.954576 
" clip-path="url(#p4d7015eac1)" style="fill: none; stroke: #d62728; stroke-width: 1.5; stroke-linecap: square"/>
   </g>
   <g id="patch_3">
    <path d="M 72 384.48 
L 72 51.84 
" style="fill: none; stroke: #000000; stroke-width: 0.8; stroke-linejoin: miter; stroke-linecap: square"/>
   </g>
   <g id="patch_4">
    <path d="M 518.4 384.48 
L 518.4 51.84 
" style="fill: none; stroke: #000000; stroke-width: 0.8; stroke-linejoin: miter; stroke-linecap: square"/>
   </g>
   <g id="patch_5">
    <path d="M 72 384.48 
L 518.4 384.48 
" style="fill: none; stroke: #000000; stroke-width: 0.8; stroke-linejoin: miter; stroke-linecap: square"/>
   </g>
   <g id="patch_6">
    <path d="M 72 51.84 
L 518.4 51.84 
" style="fill: none; stroke: #000000; stroke-width: 0.8; stroke-linejoin: miter; stroke-linecap: square"/>
   </g>
   <g id="text_17">
    <!-- Basic-Common -->
    <g transform="translate(250.126875 45.84) scale(0.12 -0.12)">
     <defs>
      <path id="DejaVuSans-42" d="M 1259 2228 
L 1259 519 
L 2272 519 
Q 2781 519 3026 730 
Q 3272 941 3272 1375 
Q 3272 1813 3026 2020 
Q 2781 2228 2272 2228 
L 1259 2228 
z
M 1259 4147 
L 1259 2741 
L 2194 2741 
Q 2656 2741 2882 2914 
Q 3109 3088 3109 3444 
Q 3109 3797 2882 3972 
Q 2656 4147 2194 4147 
L 1259 4147 
z
M 628 4666 
L 2241 4666 
Q 2963 4666 3353 4366 
Q 3744 4066 3744 3513 
Q 3744 3084 3544 2831 
Q 3344 2578 2956 2516 
Q 3422 2416 3680 2098 
Q 3938 1781 3938 1306 
Q 3938 681 3513 340 
Q 3088 0 2303 0 
L 628 0 
L 628 4666 
z
" transform="scale(0.015625)"/>
      <path id="DejaVuSans-2d" d="M 313 2009 
L 1997 2009 
L 1997 1497 
L 313 1497 
L 313 2009 
z
" transform="scale(0.015625)"/>
     </defs>
     <use xlink:href="#DejaVuSans-42"/>
     <use xlink:href="#DejaVuSans-61" x="68.603516"/>
     <use xlink:href="#DejaVuSans-73" x="129.882812"/>
     <use xlink:href="#DejaVuSans-69" x="181.982422"/>
     <use xlink:href="#DejaVuSans-63" x="209.765625"/>
     <use xlink:href="#DejaVuSans-2d" x="264.746094"/>
     <use xlink:href="#DejaVuSans-43" x="300.830078"/>
     <use xlink:href="#DejaVuSans-6f" x="370.654297"/>
     <use xlink:href="#DejaVuSans-6d" x="431.835938"/>
     <use xlink:href="#DejaVuSans-6d" x="529.248047"/>
     <use xlink:href="#DejaVuSans-6f" x="626.660156"/>
     <use xlink:href="#DejaVuSans-6e" x="687.841797"/>
    </g>
   </g>
   <g id="legend_1">
    <g id="patch_7">
     <path d="M 466.196875 379.48 
L 511.4 379.48 
Q 513.4 379.48 513.4 377.48 
L 513.4 319.7675 
Q 513.4 317.7675 511.4 317.7675 
L 466.196875 317.7675 
Q 464.196875 317.7675 464.196875 319.7675 
L 464.196875 377.48 
Q 464.196875 379.48 466.196875 379.48 
z
" style="fill: #ffffff; opacity: 0.8; stroke: #cccccc; stroke-linejoin: miter"/>
    </g>
    <g id="line2d_33">
     <path d="M 468.196875 325.865937 
L 478.196875 325.865937 
L 488.196875 325.865937 
" style="fill: none; stroke: #1f77b4; stroke-width: 1.5; stroke-linecap: square"/>
    </g>
    <g id="text_18">
     <!-- V1 -->
     <g transform="translate(496.196875 329.365937) scale(0.1 -0.1)">
      <defs>
       <path id="DejaVuSans-56" d="M 1831 0 
L 50 4666 
L 709 4666 
L 2188 738 
L 3669 4666 
L 4325 4666 
L 2547 0 
L 1831 0 
z
" transform="scale(0.015625)"/>
      </defs>
      <use xlink:href="#DejaVuSans-56"/>
      <use xlink:href="#DejaVuSans-31" x="68.408203"/>
     </g>
    </g>
    <g id="line2d_34">
     <path d="M 468.196875 340.544062 
L 478.196875 340.544062 
L 488.196875 340.544062 
" style="fill: none; stroke: #ff7f0e; stroke-width: 1.5; stroke-linecap: square"/>
    </g>
    <g id="text_19">
     <!-- V2 -->
     <g transform="translate(496.196875 344.044062) scale(0.1 -0.1)">
      <use xlink:href="#DejaVuSans-56"/>
      <use xlink:href="#DejaVuSans-32" x="68.408203"/>
     </g>
    </g>
    <g id="line2d_35">
     <path d="M 468.196875 355.222188 
L 478.196875 355.222188 
L 488.196875 355.222188 
" style="fill: none; stroke: #2ca02c; stroke-width: 1.5; stroke-linecap: square"/>
    </g>
    <g id="text_20">
     <!-- V3 -->
     <g transform="translate(496.196875 358.722188) scale(0.1 -0.1)">
      <use xlink:href="#DejaVuSans-56"/>
      <use xlink:href="#DejaVuSans-33" x="68.408203"/>
     </g>
    </g>
    <g id="line2d_36">
     <path d="M 468.196875 369.900312 
L 478.196875 369.900312 
L 488.196875 369.900312 
" style="fill: none; stroke: #d62728; stroke-width: 1.5; stroke-linecap: square"/>
    </g>
    <g id="text_21">
     <!-- V4 -->
     <g transform="translate(496.196875 373.400312) scale(0.1 -0.1)">
      <use xlink:href="#DejaVuSans-56"/>
      <use xlink:href="#DejaVuSans-34" x="68.408203"/>
     </g>
    </g>
   </g>
  </g>
 </g>
 <defs>
  <clipPath id="p4d7015eac1">
   <rect x="72" y="51.84" width="446.4" height="332.64"/>
  </clipPath>
 </defs>
</svg>
