<?xml version="1.0" encoding="utf-8" standalone="no"?>
<!DOCTYPE svg PUBLIC "-//W3C//DTD SVG 1.1//EN"
  "http://www.w3.org/Graphics/SVG/1.1/DTD/svg11.dtd">
<svg xmlns:xlink="http://www.w3.org/1999/xlink" width="576pt" height="432pt" viewBox="0 0 576 432" xmlns="http://www.w3.org/2000/svg" version="1.1">
 <metadata>
  <rdf:RDF xmlns:dc="http://purl.org/dc/elements/1.1/" xmlns:cc="http://creativecommons.org/ns#" xmlns:rdf="http://www.w3.org/1999/02/22-rdf-syntax-ns#">
   <cc:Work>
    <dc:type rdf:resource="http://purl.org/dc/dcmitype/StillImage"/>
    <dc:date>2023-08-07T13:42:24.042725</dc:date>
    <dc:format>image/svg+xml</dc:format>
    <dc:creator>
     <cc:Agent>
      <dc:title>Matplotlib v3.5.2, https://matplotlib.org/</dc:title>
     </cc:Agent>
    </dc:creator>
   </cc:Work>
  </rdf:RDF>
 </metadata>
 <defs>
  <style type="text/css">*{stroke-linejoin: round; stroke-linecap: butt}</style>
 </defs>
 <g id="figure_1">
  <g id="patch_1">
   <path d="M 0 432 
L 576 432 
L 576 0 
L 0 0 
z
" style="fill: #ffffff"/>
  </g>
  <g id="axes_1">
   <g id="patch_2">
    <path d="M 72 384.48 
L 518.4 384.48 
L 518.4 51.84 
L 72 51.84 
z
" style="fill: #ffffff"/>
   </g>
   <g id="matplotlib.axis_1">
    <g id="xtick_1">
     <g id="line2d_1">
      <path d="M 92.290909 384.48 
L 92.290909 51.84 
" clip-path="url(#pcacf16dc16)" style="fill: none; stroke: #b0b0b0; stroke-opacity: 0.5; stroke-width: 0.8; stroke-linecap: square"/>
     </g>
     <g id="line2d_2">
      <defs>
       <path id="m9ba1894812" d="M 0 0 
L 0 3.5 
" style="stroke: #000000; stroke-width: 0.8"/>
      </defs>
      <g>
       <use xlink:href="#m9ba1894812" x="92.290909" y="384.48" style="stroke: #000000; stroke-width: 0.8"/>
      </g>
     </g>
     <g id="text_1">
      <!-- 0 -->
      <g transform="translate(89.109659 399.078438)scale(0.1 -0.1)">
       <defs>
        <path id="DejaVuSans-30" d="M 2034 4250 
Q 1547 4250 1301 3770 
Q 1056 3291 1056 2328 
Q 1056 1369 1301 889 
Q 1547 409 2034 409 
Q 2525 409 2770 889 
Q 3016 1369 3016 2328 
Q 3016 3291 2770 3770 
Q 2525 4250 2034 4250 
z
M 2034 4750 
Q 2819 4750 3233 4129 
Q 3647 3509 3647 2328 
Q 3647 1150 3233 529 
Q 2819 -91 2034 -91 
Q 1250 -91 836 529 
Q 422 1150 422 2328 
Q 422 3509 836 4129 
Q 1250 4750 2034 4750 
z
" transform="scale(0.015625)"/>
       </defs>
       <use xlink:href="#DejaVuSans-30"/>
      </g>
     </g>
    </g>
    <g id="xtick_2">
     <g id="line2d_3">
      <path d="M 173.454545 384.48 
L 173.454545 51.84 
" clip-path="url(#pcacf16dc16)" style="fill: none; stroke: #b0b0b0; stroke-opacity: 0.5; stroke-width: 0.8; stroke-linecap: square"/>
     </g>
     <g id="line2d_4">
      <g>
       <use xlink:href="#m9ba1894812" x="173.454545" y="384.48" style="stroke: #000000; stroke-width: 0.8"/>
      </g>
     </g>
     <g id="text_2">
      <!-- 50 -->
      <g transform="translate(167.092045 399.078438)scale(0.1 -0.1)">
       <defs>
        <path id="DejaVuSans-35" d="M 691 4666 
L 3169 4666 
L 3169 4134 
L 1269 4134 
L 1269 2991 
Q 1406 3038 1543 3061 
Q 1681 3084 1819 3084 
Q 2600 3084 3056 2656 
Q 3513 2228 3513 1497 
Q 3513 744 3044 326 
Q 2575 -91 1722 -91 
Q 1428 -91 1123 -41 
Q 819 9 494 109 
L 494 744 
Q 775 591 1075 516 
Q 1375 441 1709 441 
Q 2250 441 2565 725 
Q 2881 1009 2881 1497 
Q 2881 1984 2565 2268 
Q 2250 2553 1709 2553 
Q 1456 2553 1204 2497 
Q 953 2441 691 2322 
L 691 4666 
z
" transform="scale(0.015625)"/>
       </defs>
       <use xlink:href="#DejaVuSans-35"/>
       <use xlink:href="#DejaVuSans-30" x="63.623047"/>
      </g>
     </g>
    </g>
    <g id="xtick_3">
     <g id="line2d_5">
      <path d="M 254.618182 384.48 
L 254.618182 51.84 
" clip-path="url(#pcacf16dc16)" style="fill: none; stroke: #b0b0b0; stroke-opacity: 0.5; stroke-width: 0.8; stroke-linecap: square"/>
     </g>
     <g id="line2d_6">
      <g>
       <use xlink:href="#m9ba1894812" x="254.618182" y="384.48" style="stroke: #000000; stroke-width: 0.8"/>
      </g>
     </g>
     <g id="text_3">
      <!-- 100 -->
      <g transform="translate(245.074432 399.078438)scale(0.1 -0.1)">
       <defs>
        <path id="DejaVuSans-31" d="M 794 531 
L 1825 531 
L 1825 4091 
L 703 3866 
L 703 4441 
L 1819 4666 
L 2450 4666 
L 2450 531 
L 3481 531 
L 3481 0 
L 794 0 
L 794 531 
z
" transform="scale(0.015625)"/>
       </defs>
       <use xlink:href="#DejaVuSans-31"/>
       <use xlink:href="#DejaVuSans-30" x="63.623047"/>
       <use xlink:href="#DejaVuSans-30" x="127.246094"/>
      </g>
     </g>
    </g>
    <g id="xtick_4">
     <g id="line2d_7">
      <path d="M 335.781818 384.48 
L 335.781818 51.84 
" clip-path="url(#pcacf16dc16)" style="fill: none; stroke: #b0b0b0; stroke-opacity: 0.5; stroke-width: 0.8; stroke-linecap: square"/>
     </g>
     <g id="line2d_8">
      <g>
       <use xlink:href="#m9ba1894812" x="335.781818" y="384.48" style="stroke: #000000; stroke-width: 0.8"/>
      </g>
     </g>
     <g id="text_4">
      <!-- 150 -->
      <g transform="translate(326.238068 399.078438)scale(0.1 -0.1)">
       <use xlink:href="#DejaVuSans-31"/>
       <use xlink:href="#DejaVuSans-35" x="63.623047"/>
       <use xlink:href="#DejaVuSans-30" x="127.246094"/>
      </g>
     </g>
    </g>
    <g id="xtick_5">
     <g id="line2d_9">
      <path d="M 416.945455 384.48 
L 416.945455 51.84 
" clip-path="url(#pcacf16dc16)" style="fill: none; stroke: #b0b0b0; stroke-opacity: 0.5; stroke-width: 0.8; stroke-linecap: square"/>
     </g>
     <g id="line2d_10">
      <g>
       <use xlink:href="#m9ba1894812" x="416.945455" y="384.48" style="stroke: #000000; stroke-width: 0.8"/>
      </g>
     </g>
     <g id="text_5">
      <!-- 200 -->
      <g transform="translate(407.401705 399.078438)scale(0.1 -0.1)">
       <defs>
        <path id="DejaVuSans-32" d="M 1228 531 
L 3431 531 
L 3431 0 
L 469 0 
L 469 531 
Q 828 903 1448 1529 
Q 2069 2156 2228 2338 
Q 2531 2678 2651 2914 
Q 2772 3150 2772 3378 
Q 2772 3750 2511 3984 
Q 2250 4219 1831 4219 
Q 1534 4219 1204 4116 
Q 875 4013 500 3803 
L 500 4441 
Q 881 4594 1212 4672 
Q 1544 4750 1819 4750 
Q 2544 4750 2975 4387 
Q 3406 4025 3406 3419 
Q 3406 3131 3298 2873 
Q 3191 2616 2906 2266 
Q 2828 2175 2409 1742 
Q 1991 1309 1228 531 
z
" transform="scale(0.015625)"/>
       </defs>
       <use xlink:href="#DejaVuSans-32"/>
       <use xlink:href="#DejaVuSans-30" x="63.623047"/>
       <use xlink:href="#DejaVuSans-30" x="127.246094"/>
      </g>
     </g>
    </g>
    <g id="xtick_6">
     <g id="line2d_11">
      <path d="M 498.109091 384.48 
L 498.109091 51.84 
" clip-path="url(#pcacf16dc16)" style="fill: none; stroke: #b0b0b0; stroke-opacity: 0.5; stroke-width: 0.8; stroke-linecap: square"/>
     </g>
     <g id="line2d_12">
      <g>
       <use xlink:href="#m9ba1894812" x="498.109091" y="384.48" style="stroke: #000000; stroke-width: 0.8"/>
      </g>
     </g>
     <g id="text_6">
      <!-- 250 -->
      <g transform="translate(488.565341 399.078438)scale(0.1 -0.1)">
       <use xlink:href="#DejaVuSans-32"/>
       <use xlink:href="#DejaVuSans-35" x="63.623047"/>
       <use xlink:href="#DejaVuSans-30" x="127.246094"/>
      </g>
     </g>
    </g>
    <g id="text_7">
     <!-- Communication rounds -->
     <g transform="translate(237.083594 412.756563)scale(0.1 -0.1)">
      <defs>
       <path id="DejaVuSans-43" d="M 4122 4306 
L 4122 3641 
Q 3803 3938 3442 4084 
Q 3081 4231 2675 4231 
Q 1875 4231 1450 3742 
Q 1025 3253 1025 2328 
Q 1025 1406 1450 917 
Q 1875 428 2675 428 
Q 3081 428 3442 575 
Q 3803 722 4122 1019 
L 4122 359 
Q 3791 134 3420 21 
Q 3050 -91 2638 -91 
Q 1578 -91 968 557 
Q 359 1206 359 2328 
Q 359 3453 968 4101 
Q 1578 4750 2638 4750 
Q 3056 4750 3426 4639 
Q 3797 4528 4122 4306 
z
" transform="scale(0.015625)"/>
       <path id="DejaVuSans-6f" d="M 1959 3097 
Q 1497 3097 1228 2736 
Q 959 2375 959 1747 
Q 959 1119 1226 758 
Q 1494 397 1959 397 
Q 2419 397 2687 759 
Q 2956 1122 2956 1747 
Q 2956 2369 2687 2733 
Q 2419 3097 1959 3097 
z
M 1959 3584 
Q 2709 3584 3137 3096 
Q 3566 2609 3566 1747 
Q 3566 888 3137 398 
Q 2709 -91 1959 -91 
Q 1206 -91 779 398 
Q 353 888 353 1747 
Q 353 2609 779 3096 
Q 1206 3584 1959 3584 
z
" transform="scale(0.015625)"/>
       <path id="DejaVuSans-6d" d="M 3328 2828 
Q 3544 3216 3844 3400 
Q 4144 3584 4550 3584 
Q 5097 3584 5394 3201 
Q 5691 2819 5691 2113 
L 5691 0 
L 5113 0 
L 5113 2094 
Q 5113 2597 4934 2840 
Q 4756 3084 4391 3084 
Q 3944 3084 3684 2787 
Q 3425 2491 3425 1978 
L 3425 0 
L 2847 0 
L 2847 2094 
Q 2847 2600 2669 2842 
Q 2491 3084 2119 3084 
Q 1678 3084 1418 2786 
Q 1159 2488 1159 1978 
L 1159 0 
L 581 0 
L 581 3500 
L 1159 3500 
L 1159 2956 
Q 1356 3278 1631 3431 
Q 1906 3584 2284 3584 
Q 2666 3584 2933 3390 
Q 3200 3197 3328 2828 
z
" transform="scale(0.015625)"/>
       <path id="DejaVuSans-75" d="M 544 1381 
L 544 3500 
L 1119 3500 
L 1119 1403 
Q 1119 906 1312 657 
Q 1506 409 1894 409 
Q 2359 409 2629 706 
Q 2900 1003 2900 1516 
L 2900 3500 
L 3475 3500 
L 3475 0 
L 2900 0 
L 2900 538 
Q 2691 219 2414 64 
Q 2138 -91 1772 -91 
Q 1169 -91 856 284 
Q 544 659 544 1381 
z
M 1991 3584 
L 1991 3584 
z
" transform="scale(0.015625)"/>
       <path id="DejaVuSans-6e" d="M 3513 2113 
L 3513 0 
L 2938 0 
L 2938 2094 
Q 2938 2591 2744 2837 
Q 2550 3084 2163 3084 
Q 1697 3084 1428 2787 
Q 1159 2491 1159 1978 
L 1159 0 
L 581 0 
L 581 3500 
L 1159 3500 
L 1159 2956 
Q 1366 3272 1645 3428 
Q 1925 3584 2291 3584 
Q 2894 3584 3203 3211 
Q 3513 2838 3513 2113 
z
" transform="scale(0.015625)"/>
       <path id="DejaVuSans-69" d="M 603 3500 
L 1178 3500 
L 1178 0 
L 603 0 
L 603 3500 
z
M 603 4863 
L 1178 4863 
L 1178 4134 
L 603 4134 
L 603 4863 
z
" transform="scale(0.015625)"/>
       <path id="DejaVuSans-63" d="M 3122 3366 
L 3122 2828 
Q 2878 2963 2633 3030 
Q 2388 3097 2138 3097 
Q 1578 3097 1268 2742 
Q 959 2388 959 1747 
Q 959 1106 1268 751 
Q 1578 397 2138 397 
Q 2388 397 2633 464 
Q 2878 531 3122 666 
L 3122 134 
Q 2881 22 2623 -34 
Q 2366 -91 2075 -91 
Q 1284 -91 818 406 
Q 353 903 353 1747 
Q 353 2603 823 3093 
Q 1294 3584 2113 3584 
Q 2378 3584 2631 3529 
Q 2884 3475 3122 3366 
z
" transform="scale(0.015625)"/>
       <path id="DejaVuSans-61" d="M 2194 1759 
Q 1497 1759 1228 1600 
Q 959 1441 959 1056 
Q 959 750 1161 570 
Q 1363 391 1709 391 
Q 2188 391 2477 730 
Q 2766 1069 2766 1631 
L 2766 1759 
L 2194 1759 
z
M 3341 1997 
L 3341 0 
L 2766 0 
L 2766 531 
Q 2569 213 2275 61 
Q 1981 -91 1556 -91 
Q 1019 -91 701 211 
Q 384 513 384 1019 
Q 384 1609 779 1909 
Q 1175 2209 1959 2209 
L 2766 2209 
L 2766 2266 
Q 2766 2663 2505 2880 
Q 2244 3097 1772 3097 
Q 1472 3097 1187 3025 
Q 903 2953 641 2809 
L 641 3341 
Q 956 3463 1253 3523 
Q 1550 3584 1831 3584 
Q 2591 3584 2966 3190 
Q 3341 2797 3341 1997 
z
" transform="scale(0.015625)"/>
       <path id="DejaVuSans-74" d="M 1172 4494 
L 1172 3500 
L 2356 3500 
L 2356 3053 
L 1172 3053 
L 1172 1153 
Q 1172 725 1289 603 
Q 1406 481 1766 481 
L 2356 481 
L 2356 0 
L 1766 0 
Q 1100 0 847 248 
Q 594 497 594 1153 
L 594 3053 
L 172 3053 
L 172 3500 
L 594 3500 
L 594 4494 
L 1172 4494 
z
" transform="scale(0.015625)"/>
       <path id="DejaVuSans-20" transform="scale(0.015625)"/>
       <path id="DejaVuSans-72" d="M 2631 2963 
Q 2534 3019 2420 3045 
Q 2306 3072 2169 3072 
Q 1681 3072 1420 2755 
Q 1159 2438 1159 1844 
L 1159 0 
L 581 0 
L 581 3500 
L 1159 3500 
L 1159 2956 
Q 1341 3275 1631 3429 
Q 1922 3584 2338 3584 
Q 2397 3584 2469 3576 
Q 2541 3569 2628 3553 
L 2631 2963 
z
" transform="scale(0.015625)"/>
       <path id="DejaVuSans-64" d="M 2906 2969 
L 2906 4863 
L 3481 4863 
L 3481 0 
L 2906 0 
L 2906 525 
Q 2725 213 2448 61 
Q 2172 -91 1784 -91 
Q 1150 -91 751 415 
Q 353 922 353 1747 
Q 353 2572 751 3078 
Q 1150 3584 1784 3584 
Q 2172 3584 2448 3432 
Q 2725 3281 2906 2969 
z
M 947 1747 
Q 947 1113 1208 752 
Q 1469 391 1925 391 
Q 2381 391 2643 752 
Q 2906 1113 2906 1747 
Q 2906 2381 2643 2742 
Q 2381 3103 1925 3103 
Q 1469 3103 1208 2742 
Q 947 2381 947 1747 
z
" transform="scale(0.015625)"/>
       <path id="DejaVuSans-73" d="M 2834 3397 
L 2834 2853 
Q 2591 2978 2328 3040 
Q 2066 3103 1784 3103 
Q 1356 3103 1142 2972 
Q 928 2841 928 2578 
Q 928 2378 1081 2264 
Q 1234 2150 1697 2047 
L 1894 2003 
Q 2506 1872 2764 1633 
Q 3022 1394 3022 966 
Q 3022 478 2636 193 
Q 2250 -91 1575 -91 
Q 1294 -91 989 -36 
Q 684 19 347 128 
L 347 722 
Q 666 556 975 473 
Q 1284 391 1588 391 
Q 1994 391 2212 530 
Q 2431 669 2431 922 
Q 2431 1156 2273 1281 
Q 2116 1406 1581 1522 
L 1381 1569 
Q 847 1681 609 1914 
Q 372 2147 372 2553 
Q 372 3047 722 3315 
Q 1072 3584 1716 3584 
Q 2034 3584 2315 3537 
Q 2597 3491 2834 3397 
z
" transform="scale(0.015625)"/>
      </defs>
      <use xlink:href="#DejaVuSans-43"/>
      <use xlink:href="#DejaVuSans-6f" x="69.824219"/>
      <use xlink:href="#DejaVuSans-6d" x="131.005859"/>
      <use xlink:href="#DejaVuSans-6d" x="228.417969"/>
      <use xlink:href="#DejaVuSans-75" x="325.830078"/>
      <use xlink:href="#DejaVuSans-6e" x="389.208984"/>
      <use xlink:href="#DejaVuSans-69" x="452.587891"/>
      <use xlink:href="#DejaVuSans-63" x="480.371094"/>
      <use xlink:href="#DejaVuSans-61" x="535.351562"/>
      <use xlink:href="#DejaVuSans-74" x="596.630859"/>
      <use xlink:href="#DejaVuSans-69" x="635.839844"/>
      <use xlink:href="#DejaVuSans-6f" x="663.623047"/>
      <use xlink:href="#DejaVuSans-6e" x="724.804688"/>
      <use xlink:href="#DejaVuSans-20" x="788.183594"/>
      <use xlink:href="#DejaVuSans-72" x="819.970703"/>
      <use xlink:href="#DejaVuSans-6f" x="858.833984"/>
      <use xlink:href="#DejaVuSans-75" x="920.015625"/>
      <use xlink:href="#DejaVuSans-6e" x="983.394531"/>
      <use xlink:href="#DejaVuSans-64" x="1046.773438"/>
      <use xlink:href="#DejaVuSans-73" x="1110.25"/>
     </g>
    </g>
   </g>
   <g id="matplotlib.axis_2">
    <g id="ytick_1">
     <g id="line2d_13">
      <path d="M 72 383.023087 
L 518.4 383.023087 
" clip-path="url(#pcacf16dc16)" style="fill: none; stroke: #b0b0b0; stroke-opacity: 0.5; stroke-width: 0.8; stroke-linecap: square"/>
     </g>
     <g id="line2d_14">
      <defs>
       <path id="m987b1a8ff4" d="M 0 0 
L -3.5 0 
" style="stroke: #000000; stroke-width: 0.8"/>
      </defs>
      <g>
       <use xlink:href="#m987b1a8ff4" x="72" y="383.023087" style="stroke: #000000; stroke-width: 0.8"/>
      </g>
     </g>
     <g id="text_8">
      <!-- 0.0 -->
      <g transform="translate(49.096875 386.822306)scale(0.1 -0.1)">
       <defs>
        <path id="DejaVuSans-2e" d="M 684 794 
L 1344 794 
L 1344 0 
L 684 0 
L 684 794 
z
" transform="scale(0.015625)"/>
       </defs>
       <use xlink:href="#DejaVuSans-30"/>
       <use xlink:href="#DejaVuSans-2e" x="63.623047"/>
       <use xlink:href="#DejaVuSans-30" x="95.410156"/>
      </g>
     </g>
    </g>
    <g id="ytick_2">
     <g id="line2d_15">
      <path d="M 72 310.539866 
L 518.4 310.539866 
" clip-path="url(#pcacf16dc16)" style="fill: none; stroke: #b0b0b0; stroke-opacity: 0.5; stroke-width: 0.8; stroke-linecap: square"/>
     </g>
     <g id="line2d_16">
      <g>
       <use xlink:href="#m987b1a8ff4" x="72" y="310.539866" style="stroke: #000000; stroke-width: 0.8"/>
      </g>
     </g>
     <g id="text_9">
      <!-- 0.2 -->
      <g transform="translate(49.096875 314.339085)scale(0.1 -0.1)">
       <use xlink:href="#DejaVuSans-30"/>
       <use xlink:href="#DejaVuSans-2e" x="63.623047"/>
       <use xlink:href="#DejaVuSans-32" x="95.410156"/>
      </g>
     </g>
    </g>
    <g id="ytick_3">
     <g id="line2d_17">
      <path d="M 72 238.056644 
L 518.4 238.056644 
" clip-path="url(#pcacf16dc16)" style="fill: none; stroke: #b0b0b0; stroke-opacity: 0.5; stroke-width: 0.8; stroke-linecap: square"/>
     </g>
     <g id="line2d_18">
      <g>
       <use xlink:href="#m987b1a8ff4" x="72" y="238.056644" style="stroke: #000000; stroke-width: 0.8"/>
      </g>
     </g>
     <g id="text_10">
      <!-- 0.4 -->
      <g transform="translate(49.096875 241.855863)scale(0.1 -0.1)">
       <defs>
        <path id="DejaVuSans-34" d="M 2419 4116 
L 825 1625 
L 2419 1625 
L 2419 4116 
z
M 2253 4666 
L 3047 4666 
L 3047 1625 
L 3713 1625 
L 3713 1100 
L 3047 1100 
L 3047 0 
L 2419 0 
L 2419 1100 
L 313 1100 
L 313 1709 
L 2253 4666 
z
" transform="scale(0.015625)"/>
       </defs>
       <use xlink:href="#DejaVuSans-30"/>
       <use xlink:href="#DejaVuSans-2e" x="63.623047"/>
       <use xlink:href="#DejaVuSans-34" x="95.410156"/>
      </g>
     </g>
    </g>
    <g id="ytick_4">
     <g id="line2d_19">
      <path d="M 72 165.573423 
L 518.4 165.573423 
" clip-path="url(#pcacf16dc16)" style="fill: none; stroke: #b0b0b0; stroke-opacity: 0.5; stroke-width: 0.8; stroke-linecap: square"/>
     </g>
     <g id="line2d_20">
      <g>
       <use xlink:href="#m987b1a8ff4" x="72" y="165.573423" style="stroke: #000000; stroke-width: 0.8"/>
      </g>
     </g>
     <g id="text_11">
      <!-- 0.6 -->
      <g transform="translate(49.096875 169.372642)scale(0.1 -0.1)">
       <defs>
        <path id="DejaVuSans-36" d="M 2113 2584 
Q 1688 2584 1439 2293 
Q 1191 2003 1191 1497 
Q 1191 994 1439 701 
Q 1688 409 2113 409 
Q 2538 409 2786 701 
Q 3034 994 3034 1497 
Q 3034 2003 2786 2293 
Q 2538 2584 2113 2584 
z
M 3366 4563 
L 3366 3988 
Q 3128 4100 2886 4159 
Q 2644 4219 2406 4219 
Q 1781 4219 1451 3797 
Q 1122 3375 1075 2522 
Q 1259 2794 1537 2939 
Q 1816 3084 2150 3084 
Q 2853 3084 3261 2657 
Q 3669 2231 3669 1497 
Q 3669 778 3244 343 
Q 2819 -91 2113 -91 
Q 1303 -91 875 529 
Q 447 1150 447 2328 
Q 447 3434 972 4092 
Q 1497 4750 2381 4750 
Q 2619 4750 2861 4703 
Q 3103 4656 3366 4563 
z
" transform="scale(0.015625)"/>
       </defs>
       <use xlink:href="#DejaVuSans-30"/>
       <use xlink:href="#DejaVuSans-2e" x="63.623047"/>
       <use xlink:href="#DejaVuSans-36" x="95.410156"/>
      </g>
     </g>
    </g>
    <g id="ytick_5">
     <g id="line2d_21">
      <path d="M 72 93.090201 
L 518.4 93.090201 
" clip-path="url(#pcacf16dc16)" style="fill: none; stroke: #b0b0b0; stroke-opacity: 0.5; stroke-width: 0.8; stroke-linecap: square"/>
     </g>
     <g id="line2d_22">
      <g>
       <use xlink:href="#m987b1a8ff4" x="72" y="93.090201" style="stroke: #000000; stroke-width: 0.8"/>
      </g>
     </g>
     <g id="text_12">
      <!-- 0.8 -->
      <g transform="translate(49.096875 96.88942)scale(0.1 -0.1)">
       <defs>
        <path id="DejaVuSans-38" d="M 2034 2216 
Q 1584 2216 1326 1975 
Q 1069 1734 1069 1313 
Q 1069 891 1326 650 
Q 1584 409 2034 409 
Q 2484 409 2743 651 
Q 3003 894 3003 1313 
Q 3003 1734 2745 1975 
Q 2488 2216 2034 2216 
z
M 1403 2484 
Q 997 2584 770 2862 
Q 544 3141 544 3541 
Q 544 4100 942 4425 
Q 1341 4750 2034 4750 
Q 2731 4750 3128 4425 
Q 3525 4100 3525 3541 
Q 3525 3141 3298 2862 
Q 3072 2584 2669 2484 
Q 3125 2378 3379 2068 
Q 3634 1759 3634 1313 
Q 3634 634 3220 271 
Q 2806 -91 2034 -91 
Q 1263 -91 848 271 
Q 434 634 434 1313 
Q 434 1759 690 2068 
Q 947 2378 1403 2484 
z
M 1172 3481 
Q 1172 3119 1398 2916 
Q 1625 2713 2034 2713 
Q 2441 2713 2670 2916 
Q 2900 3119 2900 3481 
Q 2900 3844 2670 4047 
Q 2441 4250 2034 4250 
Q 1625 4250 1398 4047 
Q 1172 3844 1172 3481 
z
" transform="scale(0.015625)"/>
       </defs>
       <use xlink:href="#DejaVuSans-30"/>
       <use xlink:href="#DejaVuSans-2e" x="63.623047"/>
       <use xlink:href="#DejaVuSans-38" x="95.410156"/>
      </g>
     </g>
    </g>
    <g id="text_13">
     <!-- Accuracy -->
     <g transform="translate(43.017187 240.988125)rotate(-90)scale(0.1 -0.1)">
      <defs>
       <path id="DejaVuSans-41" d="M 2188 4044 
L 1331 1722 
L 3047 1722 
L 2188 4044 
z
M 1831 4666 
L 2547 4666 
L 4325 0 
L 3669 0 
L 3244 1197 
L 1141 1197 
L 716 0 
L 50 0 
L 1831 4666 
z
" transform="scale(0.015625)"/>
       <path id="DejaVuSans-79" d="M 2059 -325 
Q 1816 -950 1584 -1140 
Q 1353 -1331 966 -1331 
L 506 -1331 
L 506 -850 
L 844 -850 
Q 1081 -850 1212 -737 
Q 1344 -625 1503 -206 
L 1606 56 
L 191 3500 
L 800 3500 
L 1894 763 
L 2988 3500 
L 3597 3500 
L 2059 -325 
z
" transform="scale(0.015625)"/>
      </defs>
      <use xlink:href="#DejaVuSans-41"/>
      <use xlink:href="#DejaVuSans-63" x="66.658203"/>
      <use xlink:href="#DejaVuSans-63" x="121.638672"/>
      <use xlink:href="#DejaVuSans-75" x="176.619141"/>
      <use xlink:href="#DejaVuSans-72" x="239.998047"/>
      <use xlink:href="#DejaVuSans-61" x="281.111328"/>
      <use xlink:href="#DejaVuSans-63" x="342.390625"/>
      <use xlink:href="#DejaVuSans-79" x="397.371094"/>
     </g>
    </g>
   </g>
   <g id="line2d_23">
    <path d="M 92.290909 365.98953 
L 93.914182 363.996242 
L 95.537455 365.772081 
L 97.160727 355.443221 
L 98.784 355.696913 
L 100.407273 351.420403 
L 102.030545 353.667383 
L 103.653818 348.557315 
L 105.277091 343.845906 
L 106.900364 337.539866 
L 108.523636 338.917047 
L 110.146909 335.981477 
L 111.770182 331.306309 
L 113.393455 324.094228 
L 115.016727 322.753289 
L 116.64 316.26604 
L 118.263273 311.373423 
L 119.886545 310.86604 
L 121.509818 305.538523 
L 123.133091 299.232483 
L 124.756364 295.209664 
L 126.379636 291.875436 
L 128.002909 278.647248 
L 129.626182 277.741208 
L 131.249455 269.69557 
L 132.872727 271.94255 
L 134.496 267.88349 
L 136.119273 273.464698 
L 137.742545 260.961342 
L 139.365818 252.227114 
L 140.989091 232.946577 
L 142.612364 243.927785 
L 144.235636 242.369396 
L 145.858909 229.576107 
L 147.482182 237.875436 
L 149.105455 221.965369 
L 150.728727 208.773423 
L 152.352 223.088859 
L 153.975273 245.268725 
L 155.598545 216.601611 
L 157.221818 233.852617 
L 160.468364 187.499597 
L 162.091636 191.268725 
L 163.714909 206.272752 
L 165.338182 194.856644 
L 166.961455 186.122416 
L 168.584727 209.208322 
L 170.208 174.271409 
L 171.831273 180.106309 
L 173.454545 183.657987 
L 175.077818 169.56 
L 176.701091 184.998926 
L 178.324364 167.09557 
L 179.947636 157.237852 
L 181.570909 176.264698 
L 183.194182 156.549262 
L 184.817455 148.721074 
L 186.440727 186.811007 
L 188.064 169.77745 
L 189.687273 144.698255 
L 191.310545 138.211007 
L 192.933818 153.649933 
L 194.557091 144.698255 
L 196.180364 129.694228 
L 197.803636 147.815034 
L 199.426909 169.34255 
L 201.050182 134.188188 
L 202.673455 154.555973 
L 204.296727 136.616376 
L 205.92 126.976107 
L 207.543273 126.323758 
L 209.166545 114.255302 
L 210.789818 127.882148 
L 212.413091 111.537181 
L 214.036364 132.593557 
L 215.659636 119.83651 
L 217.282909 140.421745 
L 218.906182 150.968054 
L 220.529455 115.994899 
L 222.152727 125.417718 
L 223.776 120.307651 
L 225.399273 125.200268 
L 227.022545 122.953289 
L 228.645818 131.252617 
L 230.269091 125.888859 
L 231.892364 108.637852 
L 233.515636 112.443221 
L 235.138909 132.811007 
L 236.762182 117.118389 
L 238.385455 108.420403 
L 240.008727 113.566711 
L 241.632 127.447248 
L 243.255273 159.484832 
L 244.878545 104.832483 
L 246.501818 120.74255 
L 248.125091 116.248591 
L 249.748364 110.848591 
L 251.371636 149.627114 
L 252.994909 101.715705 
L 254.618182 101.679463 
L 256.241455 97.439195 
L 257.864727 105.267383 
L 259.488 96.315705 
L 261.111273 110.196242 
L 262.734545 99.903624 
L 264.357818 98.562685 
L 265.981091 94.938523 
L 267.604364 95.880805 
L 269.227636 105.955973 
L 270.850909 94.322416 
L 272.474182 97.874094 
L 274.097455 102.150604 
L 275.720727 93.198926 
L 277.344 92.292886 
L 278.967273 106.173423 
L 280.590545 97.656644 
L 282.213818 91.169396 
L 283.837091 115.34255 
L 285.460364 93.633826 
L 287.083636 99.215034 
L 288.706909 96.786846 
L 290.330182 102.585503 
L 291.953455 90.734497 
L 293.576727 90.263356 
L 295.2 92.075436 
L 296.823273 94.539866 
L 298.446545 95.880805 
L 300.069818 88.487517 
L 301.693091 104.832483 
L 303.316364 84.211007 
L 304.939636 95.880805 
L 306.562909 82.906309 
L 308.186182 95.880805 
L 309.809455 97.439195 
L 311.432727 86.457987 
L 313.056 96.315705 
L 314.679273 86.675436 
L 316.302545 92.945235 
L 317.925818 81.529128 
L 319.549091 84.899597 
L 321.172364 86.240537 
L 322.795636 95.445906 
L 324.418909 80.623087 
L 326.042182 81.275436 
L 327.665455 84.899597 
L 329.288727 94.322416 
L 330.912 93.380134 
L 332.535273 80.188188 
L 334.158545 86.675436 
L 335.781818 84.464698 
L 337.405091 89.792215 
L 339.028364 87.364027 
L 340.651636 88.233826 
L 342.274909 80.188188 
L 343.898182 89.611007 
L 345.521455 78.847248 
L 347.144727 77.723758 
L 348.768 80.188188 
L 350.391273 86.711678 
L 352.014545 82.435168 
L 353.637818 79.717047 
L 355.261091 107.514362 
L 356.884364 88.487517 
L 358.507636 87.798926 
L 360.130909 82.435168 
L 361.754182 79.499597 
L 363.377455 80.659329 
L 365.000727 83.558658 
L 366.624 87.110336 
L 368.247273 91.133154 
L 369.870545 77.97745 
L 371.493818 75.259329 
L 373.117091 101.462013 
L 374.740364 85.986846 
L 376.363636 80.188188 
L 377.986909 88.487517 
L 379.610182 83.558658 
L 381.233455 86.023087 
L 382.856727 73.012349 
L 384.48 85.805638 
L 386.103273 89.139866 
L 387.726545 92.945235 
L 389.349818 81.746577 
L 390.973091 85.334497 
L 392.596364 101.244564 
L 394.219636 85.334497 
L 395.842909 78.629799 
L 397.466182 86.892886 
L 399.089455 79.753289 
L 400.712727 80.876779 
L 402.336 86.892886 
L 403.959273 75.041879 
L 405.582545 91.386846 
L 407.205818 92.727785 
L 408.829091 85.551946 
L 410.452364 79.717047 
L 412.075636 103.020403 
L 413.698909 97.656644 
L 415.322182 77.071409 
L 416.945455 84.645906 
L 418.568727 79.064698 
L 420.192 71.925101 
L 421.815273 87.146577 
L 423.438545 76.817718 
L 425.061818 76.817718 
L 426.685091 86.675436 
L 428.308364 78.847248 
L 429.931636 75.911678 
L 431.554909 75.51302 
L 433.178182 83.087517 
L 434.801455 77.071409 
L 436.424727 77.252617 
L 438.048 83.341208 
L 439.671273 70.33047 
L 441.294545 73.918389 
L 442.917818 83.776107 
L 444.541091 86.711678 
L 446.164364 80.876779 
L 447.787636 80.659329 
L 449.410909 75.911678 
L 451.034182 78.847248 
L 452.657455 84.464698 
L 454.280727 75.73047 
L 455.904 82.906309 
L 457.527273 82.217718 
L 459.150545 83.993557 
L 460.773818 78.629799 
L 462.397091 81.311678 
L 464.020364 82.217718 
L 465.643636 73.229799 
L 467.266909 76.600268 
L 468.890182 74.60698 
L 470.513455 78.158658 
L 472.136727 78.847248 
L 473.76 83.341208 
L 475.383273 82.870067 
L 477.006545 79.970738 
L 478.629818 79.282148 
L 480.253091 79.970738 
L 481.876364 74.570738 
L 483.499636 79.318389 
L 485.122909 76.165369 
L 486.746182 78.412349 
L 488.369455 73.918389 
L 489.992727 79.753289 
L 491.616 75.947919 
L 493.239273 75.73047 
L 494.862545 90.480805 
L 496.485818 75.476779 
L 498.109091 73.48349 
L 498.109091 73.48349 
" clip-path="url(#pcacf16dc16)" style="fill: none; stroke: #1f77b4; stroke-width: 1.5; stroke-linecap: square"/>
   </g>
   <g id="line2d_24">
    <path d="M 92.290909 369.36 
L 93.914182 359.937181 
L 95.537455 361.531812 
L 97.160727 352.108993 
L 98.784 351.637852 
L 100.407273 347.216376 
L 102.030545 346.056644 
L 103.653818 341.562685 
L 105.277091 342.939866 
L 106.900364 326.37745 
L 108.523636 327.464698 
L 110.146909 318.29557 
L 111.770182 315.613691 
L 113.393455 315.396242 
L 115.016727 297.891544 
L 116.64 294.992215 
L 118.263273 290.280805 
L 119.886545 284.699597 
L 121.509818 281.800268 
L 123.133091 271.25396 
L 124.756364 265.41906 
L 126.379636 264.984161 
L 128.002909 262.302282 
L 129.626182 264.114362 
L 131.249455 266.54255 
L 132.872727 241.680805 
L 134.496 237.621745 
L 136.119273 221.53047 
L 137.742545 234.976107 
L 139.365818 204.750604 
L 140.989091 227.111678 
L 142.612364 212.54255 
L 144.235636 183.440537 
L 145.858909 178.547919 
L 147.482182 204.496913 
L 149.105455 187.028456 
L 150.728727 217.507651 
L 152.352 185.470067 
L 153.975273 172.459329 
L 155.598545 210.766711 
L 157.221818 160.608322 
L 158.845091 154.555973 
L 160.468364 144.444564 
L 162.091636 152.091544 
L 163.714909 176.047248 
L 165.338182 141.327785 
L 166.961455 146.039195 
L 168.584727 140.675436 
L 170.208 132.629799 
L 171.831273 152.091544 
L 173.454545 155.679463 
L 175.077818 164.848591 
L 176.701091 140.892886 
L 178.324364 126.106309 
L 179.947636 135.057987 
L 181.570909 118.71302 
L 183.194182 130.382819 
L 184.817455 121.648591 
L 186.440727 155.679463 
L 188.064 115.125101 
L 189.687273 117.372081 
L 191.310545 116.937181 
L 192.933818 112.443221 
L 194.557091 112.878121 
L 196.180364 108.637852 
L 197.803636 101.244564 
L 199.426909 124.547919 
L 201.050182 116.90094 
L 202.673455 97.439195 
L 204.296727 126.794899 
L 205.92 93.851275 
L 207.543273 108.420403 
L 209.166545 117.154631 
L 210.789818 98.345235 
L 212.413091 103.020403 
L 214.036364 117.154631 
L 215.659636 94.322416 
L 217.282909 92.039195 
L 218.906182 107.731812 
L 220.529455 103.491544 
L 222.152727 96.968054 
L 223.776 88.487517 
L 225.399273 94.286174 
L 227.022545 93.633826 
L 228.645818 103.491544 
L 230.269091 103.020403 
L 231.892364 95.627114 
L 233.515636 86.023087 
L 235.138909 112.878121 
L 236.762182 94.068725 
L 238.385455 93.416376 
L 240.008727 93.380134 
L 241.632 112.225772 
L 243.255273 91.604295 
L 244.878545 88.668725 
L 246.501818 89.611007 
L 248.125091 86.457987 
L 249.748364 89.792215 
L 251.371636 94.322416 
L 252.994909 83.558658 
L 254.618182 83.776107 
L 256.241455 92.727785 
L 257.864727 87.146577 
L 259.488 96.315705 
L 261.111273 83.304966 
L 262.734545 93.198926 
L 264.357818 85.334497 
L 265.981091 89.139866 
L 267.604364 95.445906 
L 269.227636 83.087517 
L 270.850909 94.757315 
L 272.474182 87.364027 
L 274.097455 93.198926 
L 275.720727 77.506309 
L 277.344 83.304966 
L 278.967273 89.792215 
L 280.590545 95.409664 
L 282.213818 81.094228 
L 283.837091 80.188188 
L 285.460364 106.173423 
L 287.083636 86.457987 
L 288.706909 77.723758 
L 290.330182 81.057987 
L 291.953455 86.711678 
L 293.576727 88.704966 
L 295.2 81.529128 
L 296.823273 88.451275 
L 298.446545 83.087517 
L 300.069818 85.334497 
L 301.693091 79.717047 
L 303.316364 88.704966 
L 304.939636 89.357315 
L 306.562909 82.652617 
L 308.186182 92.292886 
L 309.809455 82.435168 
L 311.432727 94.068725 
L 313.056 88.016376 
L 314.679273 82.906309 
L 316.302545 75.041879 
L 317.925818 80.441879 
L 319.549091 78.376107 
L 321.172364 86.711678 
L 322.795636 77.76 
L 324.418909 82.217718 
L 326.042182 77.470067 
L 327.665455 76.817718 
L 329.288727 84.464698 
L 330.912 81.529128 
L 332.535273 82.435168 
L 334.158545 76.817718 
L 335.781818 79.318389 
L 337.405091 80.623087 
L 339.028364 81.529128 
L 340.651636 82.217718 
L 342.274909 75.259329 
L 343.898182 82.652617 
L 345.521455 73.48349 
L 347.144727 81.529128 
L 348.768 77.506309 
L 350.391273 81.529128 
L 352.014545 79.064698 
L 353.637818 79.499597 
L 355.261091 82.217718 
L 356.884364 73.48349 
L 358.507636 82.000268 
L 360.130909 77.288859 
L 361.754182 80.623087 
L 363.377455 74.82443 
L 365.000727 77.941208 
L 366.624 76.600268 
L 368.247273 78.847248 
L 369.870545 84.464698 
L 371.493818 74.570738 
L 373.117091 83.304966 
L 374.740364 72.14255 
L 376.363636 83.304966 
L 377.986909 74.135839 
L 379.610182 71.23651 
L 381.233455 91.133154 
L 382.856727 71.888859 
L 384.48 78.376107 
L 386.103273 79.499597 
L 387.726545 76.817718 
L 389.349818 76.85396 
L 390.973091 71.45396 
L 392.596364 70.33047 
L 394.219636 78.376107 
L 395.842909 81.529128 
L 397.466182 71.01906 
L 399.089455 77.506309 
L 400.712727 72.106309 
L 402.336 75.73047 
L 403.959273 71.671409 
L 405.582545 76.382819 
L 407.205818 93.851275 
L 408.829091 83.087517 
L 410.452364 77.723758 
L 412.075636 84.211007 
L 413.698909 92.039195 
L 415.322182 74.353289 
L 416.945455 76.600268 
L 418.568727 76.165369 
L 420.192 69.20698 
L 421.815273 82.217718 
L 423.438545 76.85396 
L 425.061818 70.765369 
L 426.685091 74.82443 
L 428.308364 79.970738 
L 429.931636 66.96 
L 431.554909 71.671409 
L 433.178182 77.723758 
L 434.801455 71.01906 
L 436.424727 75.911678 
L 438.048 73.012349 
L 439.671273 72.106309 
L 441.294545 78.811007 
L 442.917818 79.499597 
L 444.541091 72.106309 
L 446.164364 69.641879 
L 447.787636 75.041879 
L 449.410909 73.70094 
L 451.034182 73.70094 
L 452.657455 74.353289 
L 454.280727 75.73047 
L 455.904 69.678121 
L 457.527273 77.506309 
L 459.150545 69.42443 
L 460.773818 75.476779 
L 462.397091 74.570738 
L 464.020364 69.42443 
L 465.643636 74.788188 
L 467.266909 67.86604 
L 468.890182 75.476779 
L 470.513455 72.794899 
L 472.136727 76.600268 
L 473.76 76.129128 
L 475.383273 68.08349 
L 477.006545 75.947919 
L 478.629818 74.353289 
L 480.253091 79.318389 
L 481.876364 75.259329 
L 483.499636 72.57745 
L 485.122909 83.776107 
L 486.746182 73.229799 
L 488.369455 70.33047 
L 489.992727 80.876779 
L 491.616 74.135839 
L 493.239273 71.671409 
L 494.862545 70.584161 
L 496.485818 75.73047 
L 498.109091 76.600268 
L 498.109091 76.600268 
" clip-path="url(#pcacf16dc16)" style="fill: none; stroke: #ff7f0e; stroke-width: 1.5; stroke-linecap: square"/>
   </g>
   <g id="line2d_25">
    <path d="M 92.290909 365.337181 
L 93.914182 359.719732 
L 95.537455 360.372081 
L 97.160727 359.031141 
L 98.784 350.079463 
L 100.407273 348.992215 
L 102.030545 339.569396 
L 103.653818 338.011007 
L 105.277091 334.640537 
L 106.900364 331.741208 
L 108.523636 315.36 
L 110.146909 316.918389 
L 111.770182 307.966711 
L 113.393455 305.538523 
L 115.016727 290.751946 
L 116.64 286.946577 
L 118.263273 273.06604 
L 119.886545 264.766711 
L 121.509818 257.808322 
L 123.133091 256.249933 
L 124.756364 241.680805 
L 126.379636 242.586846 
L 128.002909 234.758658 
L 129.626182 231.388188 
L 131.249455 219.50094 
L 132.872727 210.549262 
L 134.496 208.084832 
L 136.119273 185.687517 
L 137.742545 190.398926 
L 139.365818 212.361342 
L 140.989091 178.076779 
L 142.612364 179.200268 
L 144.235636 158.796242 
L 145.858909 164.631141 
L 147.482182 163.290201 
L 149.105455 173.800268 
L 150.728727 164.848591 
L 152.352 137.087517 
L 153.975273 143.103624 
L 155.598545 130.564027 
L 157.221818 131.470067 
L 158.845091 146.510336 
L 160.468364 117.80698 
L 162.091636 128.788188 
L 163.714909 128.570738 
L 165.338182 141.327785 
L 166.961455 132.811007 
L 168.584727 125.45396 
L 171.831273 173.582819 
L 173.454545 112.225772 
L 175.077818 102.150604 
L 176.701091 104.361342 
L 178.324364 111.06604 
L 179.947636 102.368054 
L 183.194182 115.813691 
L 186.440727 102.114362 
L 188.064 104.832483 
L 189.687273 103.020403 
L 191.310545 97.185503 
L 192.933818 104.615034 
L 194.557091 103.708993 
L 196.180364 95.627114 
L 197.803636 107.731812 
L 199.426909 107.514362 
L 201.050182 96.098255 
L 202.673455 101.715705 
L 204.296727 105.049933 
L 205.92 95.627114 
L 207.543273 89.611007 
L 209.166545 107.079463 
L 210.789818 97.692886 
L 212.413091 104.361342 
L 214.036364 86.675436 
L 215.659636 99.215034 
L 217.282909 87.798926 
L 218.906182 99.215034 
L 220.529455 99.468725 
L 222.152727 83.776107 
L 223.776 103.020403 
L 225.399273 96.098255 
L 227.022545 112.008322 
L 228.645818 79.970738 
L 230.269091 86.675436 
L 231.892364 88.052617 
L 233.515636 88.487517 
L 235.138909 82.000268 
L 236.762182 88.451275 
L 238.385455 85.117047 
L 240.008727 88.922416 
L 241.632 86.892886 
L 243.255273 86.240537 
L 244.878545 85.117047 
L 246.501818 83.776107 
L 248.125091 90.299597 
L 249.748364 86.240537 
L 251.371636 79.064698 
L 252.994909 116.937181 
L 254.618182 79.753289 
L 256.241455 79.499597 
L 257.864727 99.033826 
L 259.488 80.188188 
L 261.111273 109.978792 
L 262.734545 81.746577 
L 264.357818 84.899597 
L 265.981091 84.899597 
L 267.604364 82.652617 
L 269.227636 82.870067 
L 270.850909 82.000268 
L 272.474182 82.217718 
L 274.097455 84.211007 
L 275.720727 81.746577 
L 277.344 80.876779 
L 278.967273 85.117047 
L 280.590545 77.97745 
L 282.213818 85.117047 
L 283.837091 73.229799 
L 285.460364 88.704966 
L 287.083636 83.087517 
L 288.706909 88.052617 
L 290.330182 78.847248 
L 291.953455 84.428456 
L 293.576727 88.487517 
L 295.2 78.629799 
L 296.823273 82.000268 
L 298.446545 75.041879 
L 300.069818 82.398926 
L 301.693091 86.892886 
L 303.316364 76.165369 
L 304.939636 78.194899 
L 306.562909 122.30094 
L 308.186182 80.623087 
L 309.809455 78.847248 
L 311.432727 83.993557 
L 313.056 82.870067 
L 314.679273 83.776107 
L 316.302545 87.581477 
L 317.925818 86.240537 
L 319.549091 78.847248 
L 321.172364 86.457987 
L 322.795636 82.652617 
L 324.418909 79.499597 
L 326.042182 82.906309 
L 327.665455 80.876779 
L 329.288727 79.499597 
L 330.912 73.229799 
L 332.535273 78.847248 
L 334.158545 80.188188 
L 335.781818 80.188188 
L 337.405091 73.918389 
L 339.028364 78.376107 
L 340.651636 91.821745 
L 342.274909 80.876779 
L 343.898182 80.188188 
L 345.521455 75.694228 
L 347.144727 72.57745 
L 348.768 74.353289 
L 350.391273 82.435168 
L 352.014545 74.570738 
L 353.637818 80.405638 
L 355.261091 76.165369 
L 356.884364 76.85396 
L 358.507636 80.188188 
L 360.130909 77.252617 
L 361.754182 87.798926 
L 363.377455 92.039195 
L 365.000727 82.217718 
L 366.624 81.529128 
L 368.247273 73.70094 
L 371.493818 75.041879 
L 373.117091 78.158658 
L 374.740364 73.918389 
L 376.363636 82.652617 
L 377.986909 83.776107 
L 379.610182 75.259329 
L 381.233455 78.158658 
L 382.856727 74.172081 
L 384.48 75.259329 
L 386.103273 76.165369 
L 387.726545 79.499597 
L 389.349818 73.48349 
L 390.973091 73.48349 
L 392.596364 72.323758 
L 394.219636 94.503624 
L 395.842909 70.547919 
L 397.466182 86.023087 
L 399.089455 75.259329 
L 400.712727 81.057987 
L 402.336 79.970738 
L 403.959273 94.286174 
L 405.582545 81.746577 
L 407.205818 77.723758 
L 408.829091 77.470067 
L 410.452364 75.73047 
L 412.075636 76.600268 
L 413.698909 81.057987 
L 415.322182 74.353289 
L 416.945455 91.857987 
L 418.568727 79.499597 
L 420.192 72.57745 
L 421.815273 75.73047 
L 423.438545 77.723758 
L 425.061818 77.506309 
L 426.685091 79.318389 
L 428.308364 75.041879 
L 429.931636 77.470067 
L 431.554909 75.476779 
L 433.178182 78.811007 
L 434.801455 75.259329 
L 436.424727 73.48349 
L 438.048 75.911678 
L 439.671273 85.805638 
L 441.294545 84.899597 
L 442.917818 76.382819 
L 444.541091 104.361342 
L 446.164364 76.165369 
L 447.787636 75.259329 
L 449.410909 83.341208 
L 451.034182 73.012349 
L 452.657455 81.529128 
L 454.280727 75.73047 
L 455.904 75.911678 
L 457.527273 79.717047 
L 459.150545 73.229799 
L 460.773818 78.412349 
L 462.397091 74.82443 
L 464.020364 73.012349 
L 465.643636 74.788188 
L 467.266909 71.23651 
L 468.890182 73.70094 
L 470.513455 82.652617 
L 472.136727 79.282148 
L 473.76 71.888859 
L 475.383273 70.765369 
L 477.006545 80.876779 
L 478.629818 74.172081 
L 480.253091 72.323758 
L 481.876364 75.476779 
L 483.499636 76.129128 
L 485.122909 80.188188 
L 486.746182 71.23651 
L 488.369455 108.202953 
L 489.992727 73.48349 
L 491.616 73.918389 
L 494.862545 79.499597 
L 496.485818 77.252617 
L 498.109091 80.188188 
L 498.109091 80.188188 
" clip-path="url(#pcacf16dc16)" style="fill: none; stroke: #2ca02c; stroke-width: 1.5; stroke-linecap: square"/>
   </g>
   <g id="line2d_26">
    <path d="M 92.290909 366.20698 
L 93.914182 361.314362 
L 95.537455 358.813691 
L 97.160727 352.145235 
L 98.784 351.674094 
L 100.407273 343.374765 
L 102.030545 332.828456 
L 103.653818 332.393557 
L 105.277091 324.782819 
L 106.900364 316.519732 
L 108.523636 312.025772 
L 110.146909 304.197584 
L 111.770182 301.733154 
L 113.393455 288.722416 
L 115.016727 290.063356 
L 116.64 277.741208 
L 118.263273 271.03651 
L 119.886545 266.54255 
L 121.509818 252.879463 
L 123.133091 237.440537 
L 124.756364 237.875436 
L 128.002909 213.919732 
L 129.626182 206.055302 
L 131.249455 191.268725 
L 132.872727 188.623087 
L 134.496 181.664698 
L 136.119273 193.044564 
L 137.742545 169.125101 
L 139.365818 172.241879 
L 140.989091 176.518389 
L 142.612364 159.702282 
L 144.235636 159.702282 
L 145.858909 154.338523 
L 147.482182 142.922416 
L 149.105455 140.023087 
L 150.728727 132.593557 
L 152.352 137.087517 
L 153.975273 133.282148 
L 155.598545 151.656644 
L 157.221818 133.282148 
L 158.845091 144.480805 
L 160.468364 126.976107 
L 162.091636 118.49557 
L 163.714909 126.106309 
L 165.338182 112.660671 
L 166.961455 124.33047 
L 168.584727 109.543893 
L 170.208 127.882148 
L 171.831273 112.443221 
L 173.454545 122.08349 
L 175.077818 118.93047 
L 176.701091 109.072752 
L 178.324364 108.637852 
L 179.947636 107.079463 
L 181.570909 113.09557 
L 183.194182 112.225772 
L 184.817455 109.072752 
L 186.440727 100.374765 
L 188.064 119.401611 
L 189.687273 122.08349 
L 191.310545 118.49557 
L 192.933818 95.627114 
L 194.557091 97.221745 
L 196.180364 93.198926 
L 197.803636 95.192215 
L 199.426909 103.708993 
L 201.050182 89.139866 
L 202.673455 96.533154 
L 204.296727 98.526443 
L 205.92 94.539866 
L 207.543273 89.792215 
L 209.166545 94.757315 
L 210.789818 92.292886 
L 212.413091 85.805638 
L 214.036364 94.974765 
L 215.659636 90.263356 
L 217.282909 101.715705 
L 218.906182 100.773423 
L 220.529455 92.945235 
L 222.152727 88.487517 
L 223.776 86.457987 
L 225.399273 85.334497 
L 227.022545 93.380134 
L 228.645818 98.127785 
L 230.269091 94.757315 
L 231.892364 93.380134 
L 233.515636 86.240537 
L 235.138909 90.045906 
L 236.762182 78.158658 
L 238.385455 92.510336 
L 240.008727 84.899597 
L 241.632 86.457987 
L 243.255273 83.993557 
L 244.878545 89.357315 
L 246.501818 84.464698 
L 248.125091 90.480805 
L 249.748364 87.146577 
L 251.371636 87.364027 
L 252.994909 96.786846 
L 254.618182 85.334497 
L 256.241455 92.945235 
L 257.864727 83.993557 
L 259.488 95.409664 
L 261.111273 88.922416 
L 262.734545 85.769396 
L 264.357818 83.558658 
L 265.981091 87.798926 
L 267.604364 89.139866 
L 269.227636 84.899597 
L 270.850909 94.286174 
L 272.474182 87.798926 
L 274.097455 87.835168 
L 275.720727 84.645906 
L 277.344 90.734497 
L 278.967273 79.970738 
L 280.590545 85.551946 
L 282.213818 82.217718 
L 283.837091 88.487517 
L 287.083636 78.629799 
L 288.706909 83.304966 
L 290.330182 92.727785 
L 291.953455 85.551946 
L 293.576727 82.217718 
L 295.2 85.117047 
L 296.823273 84.645906 
L 298.446545 88.451275 
L 300.069818 88.016376 
L 301.693091 88.704966 
L 303.316364 80.876779 
L 304.939636 82.000268 
L 306.562909 82.652617 
L 308.186182 87.110336 
L 309.809455 85.334497 
L 311.432727 78.847248 
L 313.056 83.558658 
L 314.679273 80.405638 
L 316.302545 78.158658 
L 317.925818 86.675436 
L 319.549091 80.188188 
L 321.172364 79.064698 
L 322.795636 83.776107 
L 324.418909 84.645906 
L 326.042182 78.376107 
L 327.665455 81.529128 
L 329.288727 77.941208 
L 330.912 81.311678 
L 332.535273 81.311678 
L 334.158545 83.341208 
L 335.781818 77.071409 
L 337.405091 76.600268 
L 339.028364 85.986846 
L 340.651636 80.659329 
L 342.274909 87.798926 
L 343.898182 85.986846 
L 345.521455 78.847248 
L 347.144727 77.506309 
L 348.768 78.158658 
L 350.391273 87.798926 
L 353.637818 79.753289 
L 355.261091 81.746577 
L 356.884364 82.000268 
L 358.507636 80.876779 
L 360.130909 81.565369 
L 361.754182 84.645906 
L 363.377455 86.457987 
L 365.000727 81.094228 
L 366.624 86.675436 
L 368.247273 85.334497 
L 369.870545 86.457987 
L 371.493818 83.558658 
L 373.117091 77.723758 
L 374.740364 76.85396 
L 376.363636 82.435168 
L 377.986909 77.252617 
L 379.610182 75.911678 
L 381.233455 83.558658 
L 382.856727 80.623087 
L 384.48 73.918389 
L 386.103273 77.506309 
L 387.726545 88.704966 
L 389.349818 84.211007 
L 390.973091 82.000268 
L 392.596364 80.188188 
L 394.219636 80.405638 
L 395.842909 76.382819 
L 397.466182 79.064698 
L 399.089455 83.776107 
L 400.712727 77.941208 
L 402.336 82.652617 
L 403.959273 83.776107 
L 405.582545 85.117047 
L 407.205818 82.000268 
L 408.829091 80.188188 
L 410.452364 83.776107 
L 412.075636 76.382819 
L 413.698909 75.694228 
L 415.322182 76.85396 
L 416.945455 84.247248 
L 418.568727 81.746577 
L 420.192 74.353289 
L 421.815273 76.600268 
L 423.438545 81.746577 
L 425.061818 83.087517 
L 426.685091 76.165369 
L 428.308364 86.711678 
L 429.931636 83.304966 
L 431.554909 80.188188 
L 433.178182 79.499597 
L 434.801455 78.376107 
L 436.424727 81.057987 
L 438.048 81.746577 
L 439.671273 78.629799 
L 441.294545 77.941208 
L 442.917818 79.064698 
L 444.541091 75.476779 
L 446.164364 75.911678 
L 447.787636 70.765369 
L 449.410909 81.094228 
L 451.034182 76.85396 
L 452.657455 79.499597 
L 454.280727 75.73047 
L 455.904 77.723758 
L 457.527273 77.071409 
L 459.150545 73.664698 
L 460.773818 79.970738 
L 462.397091 98.345235 
L 464.020364 81.529128 
L 465.643636 74.82443 
L 467.266909 76.165369 
L 468.890182 75.911678 
L 470.513455 81.565369 
L 472.136727 74.353289 
L 473.76 74.60698 
L 475.383273 84.899597 
L 477.006545 76.817718 
L 478.629818 82.398926 
L 481.876364 77.941208 
L 483.499636 80.659329 
L 485.122909 84.899597 
L 486.746182 80.876779 
L 488.369455 82.652617 
L 489.992727 85.334497 
L 491.616 82.000268 
L 493.239273 81.529128 
L 494.862545 78.629799 
L 496.485818 82.217718 
L 498.109091 75.259329 
L 498.109091 75.259329 
" clip-path="url(#pcacf16dc16)" style="fill: none; stroke: #d62728; stroke-width: 1.5; stroke-linecap: square"/>
   </g>
   <g id="patch_3">
    <path d="M 72 384.48 
L 72 51.84 
" style="fill: none; stroke: #000000; stroke-width: 0.8; stroke-linejoin: miter; stroke-linecap: square"/>
   </g>
   <g id="patch_4">
    <path d="M 518.4 384.48 
L 518.4 51.84 
" style="fill: none; stroke: #000000; stroke-width: 0.8; stroke-linejoin: miter; stroke-linecap: square"/>
   </g>
   <g id="patch_5">
    <path d="M 72 384.48 
L 518.4 384.48 
" style="fill: none; stroke: #000000; stroke-width: 0.8; stroke-linejoin: miter; stroke-linecap: square"/>
   </g>
   <g id="patch_6">
    <path d="M 72 51.84 
L 518.4 51.84 
" style="fill: none; stroke: #000000; stroke-width: 0.8; stroke-linejoin: miter; stroke-linecap: square"/>
   </g>
   <g id="text_14">
    <!-- Basic-Common -->
    <g transform="translate(250.126875 45.84)scale(0.12 -0.12)">
     <defs>
      <path id="DejaVuSans-42" d="M 1259 2228 
L 1259 519 
L 2272 519 
Q 2781 519 3026 730 
Q 3272 941 3272 1375 
Q 3272 1813 3026 2020 
Q 2781 2228 2272 2228 
L 1259 2228 
z
M 1259 4147 
L 1259 2741 
L 2194 2741 
Q 2656 2741 2882 2914 
Q 3109 3088 3109 3444 
Q 3109 3797 2882 3972 
Q 2656 4147 2194 4147 
L 1259 4147 
z
M 628 4666 
L 2241 4666 
Q 2963 4666 3353 4366 
Q 3744 4066 3744 3513 
Q 3744 3084 3544 2831 
Q 3344 2578 2956 2516 
Q 3422 2416 3680 2098 
Q 3938 1781 3938 1306 
Q 3938 681 3513 340 
Q 3088 0 2303 0 
L 628 0 
L 628 4666 
z
" transform="scale(0.015625)"/>
      <path id="DejaVuSans-2d" d="M 313 2009 
L 1997 2009 
L 1997 1497 
L 313 1497 
L 313 2009 
z
" transform="scale(0.015625)"/>
     </defs>
     <use xlink:href="#DejaVuSans-42"/>
     <use xlink:href="#DejaVuSans-61" x="68.603516"/>
     <use xlink:href="#DejaVuSans-73" x="129.882812"/>
     <use xlink:href="#DejaVuSans-69" x="181.982422"/>
     <use xlink:href="#DejaVuSans-63" x="209.765625"/>
     <use xlink:href="#DejaVuSans-2d" x="264.746094"/>
     <use xlink:href="#DejaVuSans-43" x="300.830078"/>
     <use xlink:href="#DejaVuSans-6f" x="370.654297"/>
     <use xlink:href="#DejaVuSans-6d" x="431.835938"/>
     <use xlink:href="#DejaVuSans-6d" x="529.248047"/>
     <use xlink:href="#DejaVuSans-6f" x="626.660156"/>
     <use xlink:href="#DejaVuSans-6e" x="687.841797"/>
    </g>
   </g>
   <g id="legend_1">
    <g id="patch_7">
     <path d="M 79 118.5525 
L 124.203125 118.5525 
Q 126.203125 118.5525 126.203125 116.5525 
L 126.203125 58.84 
Q 126.203125 56.84 124.203125 56.84 
L 79 56.84 
Q 77 56.84 77 58.84 
L 77 116.5525 
Q 77 118.5525 79 118.5525 
z
" style="fill: #ffffff; opacity: 0.8; stroke: #cccccc; stroke-linejoin: miter"/>
    </g>
    <g id="line2d_27">
     <path d="M 81 64.938438 
L 91 64.938438 
L 101 64.938438 
" style="fill: none; stroke: #1f77b4; stroke-width: 1.5; stroke-linecap: square"/>
    </g>
    <g id="text_15">
     <!-- V1 -->
     <g transform="translate(109 68.438438)scale(0.1 -0.1)">
      <defs>
       <path id="DejaVuSans-56" d="M 1831 0 
L 50 4666 
L 709 4666 
L 2188 738 
L 3669 4666 
L 4325 4666 
L 2547 0 
L 1831 0 
z
" transform="scale(0.015625)"/>
      </defs>
      <use xlink:href="#DejaVuSans-56"/>
      <use xlink:href="#DejaVuSans-31" x="68.408203"/>
     </g>
    </g>
    <g id="line2d_28">
     <path d="M 81 79.616563 
L 91 79.616563 
L 101 79.616563 
" style="fill: none; stroke: #ff7f0e; stroke-width: 1.5; stroke-linecap: square"/>
    </g>
    <g id="text_16">
     <!-- V2 -->
     <g transform="translate(109 83.116563)scale(0.1 -0.1)">
      <use xlink:href="#DejaVuSans-56"/>
      <use xlink:href="#DejaVuSans-32" x="68.408203"/>
     </g>
    </g>
    <g id="line2d_29">
     <path d="M 81 94.294688 
L 91 94.294688 
L 101 94.294688 
" style="fill: none; stroke: #2ca02c; stroke-width: 1.5; stroke-linecap: square"/>
    </g>
    <g id="text_17">
     <!-- V3 -->
     <g transform="translate(109 97.794688)scale(0.1 -0.1)">
      <defs>
       <path id="DejaVuSans-33" d="M 2597 2516 
Q 3050 2419 3304 2112 
Q 3559 1806 3559 1356 
Q 3559 666 3084 287 
Q 2609 -91 1734 -91 
Q 1441 -91 1130 -33 
Q 819 25 488 141 
L 488 750 
Q 750 597 1062 519 
Q 1375 441 1716 441 
Q 2309 441 2620 675 
Q 2931 909 2931 1356 
Q 2931 1769 2642 2001 
Q 2353 2234 1838 2234 
L 1294 2234 
L 1294 2753 
L 1863 2753 
Q 2328 2753 2575 2939 
Q 2822 3125 2822 3475 
Q 2822 3834 2567 4026 
Q 2313 4219 1838 4219 
Q 1578 4219 1281 4162 
Q 984 4106 628 3988 
L 628 4550 
Q 988 4650 1302 4700 
Q 1616 4750 1894 4750 
Q 2613 4750 3031 4423 
Q 3450 4097 3450 3541 
Q 3450 3153 3228 2886 
Q 3006 2619 2597 2516 
z
" transform="scale(0.015625)"/>
      </defs>
      <use xlink:href="#DejaVuSans-56"/>
      <use xlink:href="#DejaVuSans-33" x="68.408203"/>
     </g>
    </g>
    <g id="line2d_30">
     <path d="M 81 108.972813 
L 91 108.972813 
L 101 108.972813 
" style="fill: none; stroke: #d62728; stroke-width: 1.5; stroke-linecap: square"/>
    </g>
    <g id="text_18">
     <!-- V4 -->
     <g transform="translate(109 112.472813)scale(0.1 -0.1)">
      <use xlink:href="#DejaVuSans-56"/>
      <use xlink:href="#DejaVuSans-34" x="68.408203"/>
     </g>
    </g>
   </g>
  </g>
 </g>
 <defs>
  <clipPath id="pcacf16dc16">
   <rect x="72" y="51.84" width="446.4" height="332.64"/>
  </clipPath>
 </defs>
</svg>
