<?xml version="1.0" encoding="utf-8" standalone="no"?>
<!DOCTYPE svg PUBLIC "-//W3C//DTD SVG 1.1//EN"
  "http://www.w3.org/Graphics/SVG/1.1/DTD/svg11.dtd">
<svg xmlns:xlink="http://www.w3.org/1999/xlink" width="576pt" height="432pt" viewBox="0 0 576 432" xmlns="http://www.w3.org/2000/svg" version="1.1">
 <metadata>
  <rdf:RDF xmlns:dc="http://purl.org/dc/elements/1.1/" xmlns:cc="http://creativecommons.org/ns#" xmlns:rdf="http://www.w3.org/1999/02/22-rdf-syntax-ns#">
   <cc:Work>
    <dc:type rdf:resource="http://purl.org/dc/dcmitype/StillImage"/>
    <dc:date>2023-08-09T07:41:18.104882</dc:date>
    <dc:format>image/svg+xml</dc:format>
    <dc:creator>
     <cc:Agent>
      <dc:title>Matplotlib v3.5.1, https://matplotlib.org/</dc:title>
     </cc:Agent>
    </dc:creator>
   </cc:Work>
  </rdf:RDF>
 </metadata>
 <defs>
  <style type="text/css">*{stroke-linejoin: round; stroke-linecap: butt}</style>
 </defs>
 <g id="figure_1">
  <g id="patch_1">
   <path d="M 0 432 
L 576 432 
L 576 0 
L 0 0 
z
" style="fill: #ffffff"/>
  </g>
  <g id="axes_1">
   <g id="patch_2">
    <path d="M 72 384.48 
L 518.4 384.48 
L 518.4 51.84 
L 72 51.84 
z
" style="fill: #ffffff"/>
   </g>
   <g id="matplotlib.axis_1">
    <g id="xtick_1">
     <g id="line2d_1">
      <path d="M 92.290909 384.48 
L 92.290909 51.84 
" clip-path="url(#pcd82fb926c)" style="fill: none; stroke: #b0b0b0; stroke-opacity: 0.5; stroke-width: 0.8; stroke-linecap: square"/>
     </g>
     <g id="line2d_2">
      <defs>
       <path id="m48bbf8326e" d="M 0 0 
L 0 3.5 
" style="stroke: #000000; stroke-width: 0.8"/>
      </defs>
      <g>
       <use xlink:href="#m48bbf8326e" x="92.290909" y="384.48" style="stroke: #000000; stroke-width: 0.8"/>
      </g>
     </g>
     <g id="text_1">
      <!-- 0 -->
      <g transform="translate(89.109659 399.078438)scale(0.1 -0.1)">
       <defs>
        <path id="DejaVuSans-30" d="M 2034 4250 
Q 1547 4250 1301 3770 
Q 1056 3291 1056 2328 
Q 1056 1369 1301 889 
Q 1547 409 2034 409 
Q 2525 409 2770 889 
Q 3016 1369 3016 2328 
Q 3016 3291 2770 3770 
Q 2525 4250 2034 4250 
z
M 2034 4750 
Q 2819 4750 3233 4129 
Q 3647 3509 3647 2328 
Q 3647 1150 3233 529 
Q 2819 -91 2034 -91 
Q 1250 -91 836 529 
Q 422 1150 422 2328 
Q 422 3509 836 4129 
Q 1250 4750 2034 4750 
z
" transform="scale(0.015625)"/>
       </defs>
       <use xlink:href="#DejaVuSans-30"/>
      </g>
     </g>
    </g>
    <g id="xtick_2">
     <g id="line2d_3">
      <path d="M 173.454545 384.48 
L 173.454545 51.84 
" clip-path="url(#pcd82fb926c)" style="fill: none; stroke: #b0b0b0; stroke-opacity: 0.5; stroke-width: 0.8; stroke-linecap: square"/>
     </g>
     <g id="line2d_4">
      <g>
       <use xlink:href="#m48bbf8326e" x="173.454545" y="384.48" style="stroke: #000000; stroke-width: 0.8"/>
      </g>
     </g>
     <g id="text_2">
      <!-- 50 -->
      <g transform="translate(167.092045 399.078438)scale(0.1 -0.1)">
       <defs>
        <path id="DejaVuSans-35" d="M 691 4666 
L 3169 4666 
L 3169 4134 
L 1269 4134 
L 1269 2991 
Q 1406 3038 1543 3061 
Q 1681 3084 1819 3084 
Q 2600 3084 3056 2656 
Q 3513 2228 3513 1497 
Q 3513 744 3044 326 
Q 2575 -91 1722 -91 
Q 1428 -91 1123 -41 
Q 819 9 494 109 
L 494 744 
Q 775 591 1075 516 
Q 1375 441 1709 441 
Q 2250 441 2565 725 
Q 2881 1009 2881 1497 
Q 2881 1984 2565 2268 
Q 2250 2553 1709 2553 
Q 1456 2553 1204 2497 
Q 953 2441 691 2322 
L 691 4666 
z
" transform="scale(0.015625)"/>
       </defs>
       <use xlink:href="#DejaVuSans-35"/>
       <use xlink:href="#DejaVuSans-30" x="63.623047"/>
      </g>
     </g>
    </g>
    <g id="xtick_3">
     <g id="line2d_5">
      <path d="M 254.618182 384.48 
L 254.618182 51.84 
" clip-path="url(#pcd82fb926c)" style="fill: none; stroke: #b0b0b0; stroke-opacity: 0.5; stroke-width: 0.8; stroke-linecap: square"/>
     </g>
     <g id="line2d_6">
      <g>
       <use xlink:href="#m48bbf8326e" x="254.618182" y="384.48" style="stroke: #000000; stroke-width: 0.8"/>
      </g>
     </g>
     <g id="text_3">
      <!-- 100 -->
      <g transform="translate(245.074432 399.078438)scale(0.1 -0.1)">
       <defs>
        <path id="DejaVuSans-31" d="M 794 531 
L 1825 531 
L 1825 4091 
L 703 3866 
L 703 4441 
L 1819 4666 
L 2450 4666 
L 2450 531 
L 3481 531 
L 3481 0 
L 794 0 
L 794 531 
z
" transform="scale(0.015625)"/>
       </defs>
       <use xlink:href="#DejaVuSans-31"/>
       <use xlink:href="#DejaVuSans-30" x="63.623047"/>
       <use xlink:href="#DejaVuSans-30" x="127.246094"/>
      </g>
     </g>
    </g>
    <g id="xtick_4">
     <g id="line2d_7">
      <path d="M 335.781818 384.48 
L 335.781818 51.84 
" clip-path="url(#pcd82fb926c)" style="fill: none; stroke: #b0b0b0; stroke-opacity: 0.5; stroke-width: 0.8; stroke-linecap: square"/>
     </g>
     <g id="line2d_8">
      <g>
       <use xlink:href="#m48bbf8326e" x="335.781818" y="384.48" style="stroke: #000000; stroke-width: 0.8"/>
      </g>
     </g>
     <g id="text_4">
      <!-- 150 -->
      <g transform="translate(326.238068 399.078438)scale(0.1 -0.1)">
       <use xlink:href="#DejaVuSans-31"/>
       <use xlink:href="#DejaVuSans-35" x="63.623047"/>
       <use xlink:href="#DejaVuSans-30" x="127.246094"/>
      </g>
     </g>
    </g>
    <g id="xtick_5">
     <g id="line2d_9">
      <path d="M 416.945455 384.48 
L 416.945455 51.84 
" clip-path="url(#pcd82fb926c)" style="fill: none; stroke: #b0b0b0; stroke-opacity: 0.5; stroke-width: 0.8; stroke-linecap: square"/>
     </g>
     <g id="line2d_10">
      <g>
       <use xlink:href="#m48bbf8326e" x="416.945455" y="384.48" style="stroke: #000000; stroke-width: 0.8"/>
      </g>
     </g>
     <g id="text_5">
      <!-- 200 -->
      <g transform="translate(407.401705 399.078438)scale(0.1 -0.1)">
       <defs>
        <path id="DejaVuSans-32" d="M 1228 531 
L 3431 531 
L 3431 0 
L 469 0 
L 469 531 
Q 828 903 1448 1529 
Q 2069 2156 2228 2338 
Q 2531 2678 2651 2914 
Q 2772 3150 2772 3378 
Q 2772 3750 2511 3984 
Q 2250 4219 1831 4219 
Q 1534 4219 1204 4116 
Q 875 4013 500 3803 
L 500 4441 
Q 881 4594 1212 4672 
Q 1544 4750 1819 4750 
Q 2544 4750 2975 4387 
Q 3406 4025 3406 3419 
Q 3406 3131 3298 2873 
Q 3191 2616 2906 2266 
Q 2828 2175 2409 1742 
Q 1991 1309 1228 531 
z
" transform="scale(0.015625)"/>
       </defs>
       <use xlink:href="#DejaVuSans-32"/>
       <use xlink:href="#DejaVuSans-30" x="63.623047"/>
       <use xlink:href="#DejaVuSans-30" x="127.246094"/>
      </g>
     </g>
    </g>
    <g id="xtick_6">
     <g id="line2d_11">
      <path d="M 498.109091 384.48 
L 498.109091 51.84 
" clip-path="url(#pcd82fb926c)" style="fill: none; stroke: #b0b0b0; stroke-opacity: 0.5; stroke-width: 0.8; stroke-linecap: square"/>
     </g>
     <g id="line2d_12">
      <g>
       <use xlink:href="#m48bbf8326e" x="498.109091" y="384.48" style="stroke: #000000; stroke-width: 0.8"/>
      </g>
     </g>
     <g id="text_6">
      <!-- 250 -->
      <g transform="translate(488.565341 399.078438)scale(0.1 -0.1)">
       <use xlink:href="#DejaVuSans-32"/>
       <use xlink:href="#DejaVuSans-35" x="63.623047"/>
       <use xlink:href="#DejaVuSans-30" x="127.246094"/>
      </g>
     </g>
    </g>
    <g id="text_7">
     <!-- Communication rounds -->
     <g transform="translate(237.083594 412.756563)scale(0.1 -0.1)">
      <defs>
       <path id="DejaVuSans-43" d="M 4122 4306 
L 4122 3641 
Q 3803 3938 3442 4084 
Q 3081 4231 2675 4231 
Q 1875 4231 1450 3742 
Q 1025 3253 1025 2328 
Q 1025 1406 1450 917 
Q 1875 428 2675 428 
Q 3081 428 3442 575 
Q 3803 722 4122 1019 
L 4122 359 
Q 3791 134 3420 21 
Q 3050 -91 2638 -91 
Q 1578 -91 968 557 
Q 359 1206 359 2328 
Q 359 3453 968 4101 
Q 1578 4750 2638 4750 
Q 3056 4750 3426 4639 
Q 3797 4528 4122 4306 
z
" transform="scale(0.015625)"/>
       <path id="DejaVuSans-6f" d="M 1959 3097 
Q 1497 3097 1228 2736 
Q 959 2375 959 1747 
Q 959 1119 1226 758 
Q 1494 397 1959 397 
Q 2419 397 2687 759 
Q 2956 1122 2956 1747 
Q 2956 2369 2687 2733 
Q 2419 3097 1959 3097 
z
M 1959 3584 
Q 2709 3584 3137 3096 
Q 3566 2609 3566 1747 
Q 3566 888 3137 398 
Q 2709 -91 1959 -91 
Q 1206 -91 779 398 
Q 353 888 353 1747 
Q 353 2609 779 3096 
Q 1206 3584 1959 3584 
z
" transform="scale(0.015625)"/>
       <path id="DejaVuSans-6d" d="M 3328 2828 
Q 3544 3216 3844 3400 
Q 4144 3584 4550 3584 
Q 5097 3584 5394 3201 
Q 5691 2819 5691 2113 
L 5691 0 
L 5113 0 
L 5113 2094 
Q 5113 2597 4934 2840 
Q 4756 3084 4391 3084 
Q 3944 3084 3684 2787 
Q 3425 2491 3425 1978 
L 3425 0 
L 2847 0 
L 2847 2094 
Q 2847 2600 2669 2842 
Q 2491 3084 2119 3084 
Q 1678 3084 1418 2786 
Q 1159 2488 1159 1978 
L 1159 0 
L 581 0 
L 581 3500 
L 1159 3500 
L 1159 2956 
Q 1356 3278 1631 3431 
Q 1906 3584 2284 3584 
Q 2666 3584 2933 3390 
Q 3200 3197 3328 2828 
z
" transform="scale(0.015625)"/>
       <path id="DejaVuSans-75" d="M 544 1381 
L 544 3500 
L 1119 3500 
L 1119 1403 
Q 1119 906 1312 657 
Q 1506 409 1894 409 
Q 2359 409 2629 706 
Q 2900 1003 2900 1516 
L 2900 3500 
L 3475 3500 
L 3475 0 
L 2900 0 
L 2900 538 
Q 2691 219 2414 64 
Q 2138 -91 1772 -91 
Q 1169 -91 856 284 
Q 544 659 544 1381 
z
M 1991 3584 
L 1991 3584 
z
" transform="scale(0.015625)"/>
       <path id="DejaVuSans-6e" d="M 3513 2113 
L 3513 0 
L 2938 0 
L 2938 2094 
Q 2938 2591 2744 2837 
Q 2550 3084 2163 3084 
Q 1697 3084 1428 2787 
Q 1159 2491 1159 1978 
L 1159 0 
L 581 0 
L 581 3500 
L 1159 3500 
L 1159 2956 
Q 1366 3272 1645 3428 
Q 1925 3584 2291 3584 
Q 2894 3584 3203 3211 
Q 3513 2838 3513 2113 
z
" transform="scale(0.015625)"/>
       <path id="DejaVuSans-69" d="M 603 3500 
L 1178 3500 
L 1178 0 
L 603 0 
L 603 3500 
z
M 603 4863 
L 1178 4863 
L 1178 4134 
L 603 4134 
L 603 4863 
z
" transform="scale(0.015625)"/>
       <path id="DejaVuSans-63" d="M 3122 3366 
L 3122 2828 
Q 2878 2963 2633 3030 
Q 2388 3097 2138 3097 
Q 1578 3097 1268 2742 
Q 959 2388 959 1747 
Q 959 1106 1268 751 
Q 1578 397 2138 397 
Q 2388 397 2633 464 
Q 2878 531 3122 666 
L 3122 134 
Q 2881 22 2623 -34 
Q 2366 -91 2075 -91 
Q 1284 -91 818 406 
Q 353 903 353 1747 
Q 353 2603 823 3093 
Q 1294 3584 2113 3584 
Q 2378 3584 2631 3529 
Q 2884 3475 3122 3366 
z
" transform="scale(0.015625)"/>
       <path id="DejaVuSans-61" d="M 2194 1759 
Q 1497 1759 1228 1600 
Q 959 1441 959 1056 
Q 959 750 1161 570 
Q 1363 391 1709 391 
Q 2188 391 2477 730 
Q 2766 1069 2766 1631 
L 2766 1759 
L 2194 1759 
z
M 3341 1997 
L 3341 0 
L 2766 0 
L 2766 531 
Q 2569 213 2275 61 
Q 1981 -91 1556 -91 
Q 1019 -91 701 211 
Q 384 513 384 1019 
Q 384 1609 779 1909 
Q 1175 2209 1959 2209 
L 2766 2209 
L 2766 2266 
Q 2766 2663 2505 2880 
Q 2244 3097 1772 3097 
Q 1472 3097 1187 3025 
Q 903 2953 641 2809 
L 641 3341 
Q 956 3463 1253 3523 
Q 1550 3584 1831 3584 
Q 2591 3584 2966 3190 
Q 3341 2797 3341 1997 
z
" transform="scale(0.015625)"/>
       <path id="DejaVuSans-74" d="M 1172 4494 
L 1172 3500 
L 2356 3500 
L 2356 3053 
L 1172 3053 
L 1172 1153 
Q 1172 725 1289 603 
Q 1406 481 1766 481 
L 2356 481 
L 2356 0 
L 1766 0 
Q 1100 0 847 248 
Q 594 497 594 1153 
L 594 3053 
L 172 3053 
L 172 3500 
L 594 3500 
L 594 4494 
L 1172 4494 
z
" transform="scale(0.015625)"/>
       <path id="DejaVuSans-20" transform="scale(0.015625)"/>
       <path id="DejaVuSans-72" d="M 2631 2963 
Q 2534 3019 2420 3045 
Q 2306 3072 2169 3072 
Q 1681 3072 1420 2755 
Q 1159 2438 1159 1844 
L 1159 0 
L 581 0 
L 581 3500 
L 1159 3500 
L 1159 2956 
Q 1341 3275 1631 3429 
Q 1922 3584 2338 3584 
Q 2397 3584 2469 3576 
Q 2541 3569 2628 3553 
L 2631 2963 
z
" transform="scale(0.015625)"/>
       <path id="DejaVuSans-64" d="M 2906 2969 
L 2906 4863 
L 3481 4863 
L 3481 0 
L 2906 0 
L 2906 525 
Q 2725 213 2448 61 
Q 2172 -91 1784 -91 
Q 1150 -91 751 415 
Q 353 922 353 1747 
Q 353 2572 751 3078 
Q 1150 3584 1784 3584 
Q 2172 3584 2448 3432 
Q 2725 3281 2906 2969 
z
M 947 1747 
Q 947 1113 1208 752 
Q 1469 391 1925 391 
Q 2381 391 2643 752 
Q 2906 1113 2906 1747 
Q 2906 2381 2643 2742 
Q 2381 3103 1925 3103 
Q 1469 3103 1208 2742 
Q 947 2381 947 1747 
z
" transform="scale(0.015625)"/>
       <path id="DejaVuSans-73" d="M 2834 3397 
L 2834 2853 
Q 2591 2978 2328 3040 
Q 2066 3103 1784 3103 
Q 1356 3103 1142 2972 
Q 928 2841 928 2578 
Q 928 2378 1081 2264 
Q 1234 2150 1697 2047 
L 1894 2003 
Q 2506 1872 2764 1633 
Q 3022 1394 3022 966 
Q 3022 478 2636 193 
Q 2250 -91 1575 -91 
Q 1294 -91 989 -36 
Q 684 19 347 128 
L 347 722 
Q 666 556 975 473 
Q 1284 391 1588 391 
Q 1994 391 2212 530 
Q 2431 669 2431 922 
Q 2431 1156 2273 1281 
Q 2116 1406 1581 1522 
L 1381 1569 
Q 847 1681 609 1914 
Q 372 2147 372 2553 
Q 372 3047 722 3315 
Q 1072 3584 1716 3584 
Q 2034 3584 2315 3537 
Q 2597 3491 2834 3397 
z
" transform="scale(0.015625)"/>
      </defs>
      <use xlink:href="#DejaVuSans-43"/>
      <use xlink:href="#DejaVuSans-6f" x="69.824219"/>
      <use xlink:href="#DejaVuSans-6d" x="131.005859"/>
      <use xlink:href="#DejaVuSans-6d" x="228.417969"/>
      <use xlink:href="#DejaVuSans-75" x="325.830078"/>
      <use xlink:href="#DejaVuSans-6e" x="389.208984"/>
      <use xlink:href="#DejaVuSans-69" x="452.587891"/>
      <use xlink:href="#DejaVuSans-63" x="480.371094"/>
      <use xlink:href="#DejaVuSans-61" x="535.351562"/>
      <use xlink:href="#DejaVuSans-74" x="596.630859"/>
      <use xlink:href="#DejaVuSans-69" x="635.839844"/>
      <use xlink:href="#DejaVuSans-6f" x="663.623047"/>
      <use xlink:href="#DejaVuSans-6e" x="724.804688"/>
      <use xlink:href="#DejaVuSans-20" x="788.183594"/>
      <use xlink:href="#DejaVuSans-72" x="819.970703"/>
      <use xlink:href="#DejaVuSans-6f" x="858.833984"/>
      <use xlink:href="#DejaVuSans-75" x="920.015625"/>
      <use xlink:href="#DejaVuSans-6e" x="983.394531"/>
      <use xlink:href="#DejaVuSans-64" x="1046.773438"/>
      <use xlink:href="#DejaVuSans-73" x="1110.25"/>
     </g>
    </g>
   </g>
   <g id="matplotlib.axis_2">
    <g id="ytick_1">
     <g id="line2d_13">
      <path d="M 72 371.597632 
L 518.4 371.597632 
" clip-path="url(#pcd82fb926c)" style="fill: none; stroke: #b0b0b0; stroke-opacity: 0.5; stroke-width: 0.8; stroke-linecap: square"/>
     </g>
     <g id="line2d_14">
      <defs>
       <path id="ma9badb546c" d="M 0 0 
L -3.5 0 
" style="stroke: #000000; stroke-width: 0.8"/>
      </defs>
      <g>
       <use xlink:href="#ma9badb546c" x="72" y="371.597632" style="stroke: #000000; stroke-width: 0.8"/>
      </g>
     </g>
     <g id="text_8">
      <!-- 0.1 -->
      <g transform="translate(49.096875 375.396851)scale(0.1 -0.1)">
       <defs>
        <path id="DejaVuSans-2e" d="M 684 794 
L 1344 794 
L 1344 0 
L 684 0 
L 684 794 
z
" transform="scale(0.015625)"/>
       </defs>
       <use xlink:href="#DejaVuSans-30"/>
       <use xlink:href="#DejaVuSans-2e" x="63.623047"/>
       <use xlink:href="#DejaVuSans-31" x="95.410156"/>
      </g>
     </g>
    </g>
    <g id="ytick_2">
     <g id="line2d_15">
      <path d="M 72 331.639915 
L 518.4 331.639915 
" clip-path="url(#pcd82fb926c)" style="fill: none; stroke: #b0b0b0; stroke-opacity: 0.5; stroke-width: 0.8; stroke-linecap: square"/>
     </g>
     <g id="line2d_16">
      <g>
       <use xlink:href="#ma9badb546c" x="72" y="331.639915" style="stroke: #000000; stroke-width: 0.8"/>
      </g>
     </g>
     <g id="text_9">
      <!-- 0.2 -->
      <g transform="translate(49.096875 335.439134)scale(0.1 -0.1)">
       <use xlink:href="#DejaVuSans-30"/>
       <use xlink:href="#DejaVuSans-2e" x="63.623047"/>
       <use xlink:href="#DejaVuSans-32" x="95.410156"/>
      </g>
     </g>
    </g>
    <g id="ytick_3">
     <g id="line2d_17">
      <path d="M 72 291.682199 
L 518.4 291.682199 
" clip-path="url(#pcd82fb926c)" style="fill: none; stroke: #b0b0b0; stroke-opacity: 0.5; stroke-width: 0.8; stroke-linecap: square"/>
     </g>
     <g id="line2d_18">
      <g>
       <use xlink:href="#ma9badb546c" x="72" y="291.682199" style="stroke: #000000; stroke-width: 0.8"/>
      </g>
     </g>
     <g id="text_10">
      <!-- 0.3 -->
      <g transform="translate(49.096875 295.481417)scale(0.1 -0.1)">
       <defs>
        <path id="DejaVuSans-33" d="M 2597 2516 
Q 3050 2419 3304 2112 
Q 3559 1806 3559 1356 
Q 3559 666 3084 287 
Q 2609 -91 1734 -91 
Q 1441 -91 1130 -33 
Q 819 25 488 141 
L 488 750 
Q 750 597 1062 519 
Q 1375 441 1716 441 
Q 2309 441 2620 675 
Q 2931 909 2931 1356 
Q 2931 1769 2642 2001 
Q 2353 2234 1838 2234 
L 1294 2234 
L 1294 2753 
L 1863 2753 
Q 2328 2753 2575 2939 
Q 2822 3125 2822 3475 
Q 2822 3834 2567 4026 
Q 2313 4219 1838 4219 
Q 1578 4219 1281 4162 
Q 984 4106 628 3988 
L 628 4550 
Q 988 4650 1302 4700 
Q 1616 4750 1894 4750 
Q 2613 4750 3031 4423 
Q 3450 4097 3450 3541 
Q 3450 3153 3228 2886 
Q 3006 2619 2597 2516 
z
" transform="scale(0.015625)"/>
       </defs>
       <use xlink:href="#DejaVuSans-30"/>
       <use xlink:href="#DejaVuSans-2e" x="63.623047"/>
       <use xlink:href="#DejaVuSans-33" x="95.410156"/>
      </g>
     </g>
    </g>
    <g id="ytick_4">
     <g id="line2d_19">
      <path d="M 72 251.724482 
L 518.4 251.724482 
" clip-path="url(#pcd82fb926c)" style="fill: none; stroke: #b0b0b0; stroke-opacity: 0.5; stroke-width: 0.8; stroke-linecap: square"/>
     </g>
     <g id="line2d_20">
      <g>
       <use xlink:href="#ma9badb546c" x="72" y="251.724482" style="stroke: #000000; stroke-width: 0.8"/>
      </g>
     </g>
     <g id="text_11">
      <!-- 0.4 -->
      <g transform="translate(49.096875 255.523701)scale(0.1 -0.1)">
       <defs>
        <path id="DejaVuSans-34" d="M 2419 4116 
L 825 1625 
L 2419 1625 
L 2419 4116 
z
M 2253 4666 
L 3047 4666 
L 3047 1625 
L 3713 1625 
L 3713 1100 
L 3047 1100 
L 3047 0 
L 2419 0 
L 2419 1100 
L 313 1100 
L 313 1709 
L 2253 4666 
z
" transform="scale(0.015625)"/>
       </defs>
       <use xlink:href="#DejaVuSans-30"/>
       <use xlink:href="#DejaVuSans-2e" x="63.623047"/>
       <use xlink:href="#DejaVuSans-34" x="95.410156"/>
      </g>
     </g>
    </g>
    <g id="ytick_5">
     <g id="line2d_21">
      <path d="M 72 211.766765 
L 518.4 211.766765 
" clip-path="url(#pcd82fb926c)" style="fill: none; stroke: #b0b0b0; stroke-opacity: 0.5; stroke-width: 0.8; stroke-linecap: square"/>
     </g>
     <g id="line2d_22">
      <g>
       <use xlink:href="#ma9badb546c" x="72" y="211.766765" style="stroke: #000000; stroke-width: 0.8"/>
      </g>
     </g>
     <g id="text_12">
      <!-- 0.5 -->
      <g transform="translate(49.096875 215.565984)scale(0.1 -0.1)">
       <use xlink:href="#DejaVuSans-30"/>
       <use xlink:href="#DejaVuSans-2e" x="63.623047"/>
       <use xlink:href="#DejaVuSans-35" x="95.410156"/>
      </g>
     </g>
    </g>
    <g id="ytick_6">
     <g id="line2d_23">
      <path d="M 72 171.809049 
L 518.4 171.809049 
" clip-path="url(#pcd82fb926c)" style="fill: none; stroke: #b0b0b0; stroke-opacity: 0.5; stroke-width: 0.8; stroke-linecap: square"/>
     </g>
     <g id="line2d_24">
      <g>
       <use xlink:href="#ma9badb546c" x="72" y="171.809049" style="stroke: #000000; stroke-width: 0.8"/>
      </g>
     </g>
     <g id="text_13">
      <!-- 0.6 -->
      <g transform="translate(49.096875 175.608267)scale(0.1 -0.1)">
       <defs>
        <path id="DejaVuSans-36" d="M 2113 2584 
Q 1688 2584 1439 2293 
Q 1191 2003 1191 1497 
Q 1191 994 1439 701 
Q 1688 409 2113 409 
Q 2538 409 2786 701 
Q 3034 994 3034 1497 
Q 3034 2003 2786 2293 
Q 2538 2584 2113 2584 
z
M 3366 4563 
L 3366 3988 
Q 3128 4100 2886 4159 
Q 2644 4219 2406 4219 
Q 1781 4219 1451 3797 
Q 1122 3375 1075 2522 
Q 1259 2794 1537 2939 
Q 1816 3084 2150 3084 
Q 2853 3084 3261 2657 
Q 3669 2231 3669 1497 
Q 3669 778 3244 343 
Q 2819 -91 2113 -91 
Q 1303 -91 875 529 
Q 447 1150 447 2328 
Q 447 3434 972 4092 
Q 1497 4750 2381 4750 
Q 2619 4750 2861 4703 
Q 3103 4656 3366 4563 
z
" transform="scale(0.015625)"/>
       </defs>
       <use xlink:href="#DejaVuSans-30"/>
       <use xlink:href="#DejaVuSans-2e" x="63.623047"/>
       <use xlink:href="#DejaVuSans-36" x="95.410156"/>
      </g>
     </g>
    </g>
    <g id="ytick_7">
     <g id="line2d_25">
      <path d="M 72 131.851332 
L 518.4 131.851332 
" clip-path="url(#pcd82fb926c)" style="fill: none; stroke: #b0b0b0; stroke-opacity: 0.5; stroke-width: 0.8; stroke-linecap: square"/>
     </g>
     <g id="line2d_26">
      <g>
       <use xlink:href="#ma9badb546c" x="72" y="131.851332" style="stroke: #000000; stroke-width: 0.8"/>
      </g>
     </g>
     <g id="text_14">
      <!-- 0.7 -->
      <g transform="translate(49.096875 135.650551)scale(0.1 -0.1)">
       <defs>
        <path id="DejaVuSans-37" d="M 525 4666 
L 3525 4666 
L 3525 4397 
L 1831 0 
L 1172 0 
L 2766 4134 
L 525 4134 
L 525 4666 
z
" transform="scale(0.015625)"/>
       </defs>
       <use xlink:href="#DejaVuSans-30"/>
       <use xlink:href="#DejaVuSans-2e" x="63.623047"/>
       <use xlink:href="#DejaVuSans-37" x="95.410156"/>
      </g>
     </g>
    </g>
    <g id="ytick_8">
     <g id="line2d_27">
      <path d="M 72 91.893615 
L 518.4 91.893615 
" clip-path="url(#pcd82fb926c)" style="fill: none; stroke: #b0b0b0; stroke-opacity: 0.5; stroke-width: 0.8; stroke-linecap: square"/>
     </g>
     <g id="line2d_28">
      <g>
       <use xlink:href="#ma9badb546c" x="72" y="91.893615" style="stroke: #000000; stroke-width: 0.8"/>
      </g>
     </g>
     <g id="text_15">
      <!-- 0.8 -->
      <g transform="translate(49.096875 95.692834)scale(0.1 -0.1)">
       <defs>
        <path id="DejaVuSans-38" d="M 2034 2216 
Q 1584 2216 1326 1975 
Q 1069 1734 1069 1313 
Q 1069 891 1326 650 
Q 1584 409 2034 409 
Q 2484 409 2743 651 
Q 3003 894 3003 1313 
Q 3003 1734 2745 1975 
Q 2488 2216 2034 2216 
z
M 1403 2484 
Q 997 2584 770 2862 
Q 544 3141 544 3541 
Q 544 4100 942 4425 
Q 1341 4750 2034 4750 
Q 2731 4750 3128 4425 
Q 3525 4100 3525 3541 
Q 3525 3141 3298 2862 
Q 3072 2584 2669 2484 
Q 3125 2378 3379 2068 
Q 3634 1759 3634 1313 
Q 3634 634 3220 271 
Q 2806 -91 2034 -91 
Q 1263 -91 848 271 
Q 434 634 434 1313 
Q 434 1759 690 2068 
Q 947 2378 1403 2484 
z
M 1172 3481 
Q 1172 3119 1398 2916 
Q 1625 2713 2034 2713 
Q 2441 2713 2670 2916 
Q 2900 3119 2900 3481 
Q 2900 3844 2670 4047 
Q 2441 4250 2034 4250 
Q 1625 4250 1398 4047 
Q 1172 3844 1172 3481 
z
" transform="scale(0.015625)"/>
       </defs>
       <use xlink:href="#DejaVuSans-30"/>
       <use xlink:href="#DejaVuSans-2e" x="63.623047"/>
       <use xlink:href="#DejaVuSans-38" x="95.410156"/>
      </g>
     </g>
    </g>
    <g id="ytick_9">
     <g id="line2d_29">
      <path d="M 72 51.935899 
L 518.4 51.935899 
" clip-path="url(#pcd82fb926c)" style="fill: none; stroke: #b0b0b0; stroke-opacity: 0.5; stroke-width: 0.8; stroke-linecap: square"/>
     </g>
     <g id="line2d_30">
      <g>
       <use xlink:href="#ma9badb546c" x="72" y="51.935899" style="stroke: #000000; stroke-width: 0.8"/>
      </g>
     </g>
     <g id="text_16">
      <!-- 0.9 -->
      <g transform="translate(49.096875 55.735117)scale(0.1 -0.1)">
       <defs>
        <path id="DejaVuSans-39" d="M 703 97 
L 703 672 
Q 941 559 1184 500 
Q 1428 441 1663 441 
Q 2288 441 2617 861 
Q 2947 1281 2994 2138 
Q 2813 1869 2534 1725 
Q 2256 1581 1919 1581 
Q 1219 1581 811 2004 
Q 403 2428 403 3163 
Q 403 3881 828 4315 
Q 1253 4750 1959 4750 
Q 2769 4750 3195 4129 
Q 3622 3509 3622 2328 
Q 3622 1225 3098 567 
Q 2575 -91 1691 -91 
Q 1453 -91 1209 -44 
Q 966 3 703 97 
z
M 1959 2075 
Q 2384 2075 2632 2365 
Q 2881 2656 2881 3163 
Q 2881 3666 2632 3958 
Q 2384 4250 1959 4250 
Q 1534 4250 1286 3958 
Q 1038 3666 1038 3163 
Q 1038 2656 1286 2365 
Q 1534 2075 1959 2075 
z
" transform="scale(0.015625)"/>
       </defs>
       <use xlink:href="#DejaVuSans-30"/>
       <use xlink:href="#DejaVuSans-2e" x="63.623047"/>
       <use xlink:href="#DejaVuSans-39" x="95.410156"/>
      </g>
     </g>
    </g>
    <g id="text_17">
     <!-- Accuracy -->
     <g transform="translate(43.017187 240.988125)rotate(-90)scale(0.1 -0.1)">
      <defs>
       <path id="DejaVuSans-41" d="M 2188 4044 
L 1331 1722 
L 3047 1722 
L 2188 4044 
z
M 1831 4666 
L 2547 4666 
L 4325 0 
L 3669 0 
L 3244 1197 
L 1141 1197 
L 716 0 
L 50 0 
L 1831 4666 
z
" transform="scale(0.015625)"/>
       <path id="DejaVuSans-79" d="M 2059 -325 
Q 1816 -950 1584 -1140 
Q 1353 -1331 966 -1331 
L 506 -1331 
L 506 -850 
L 844 -850 
Q 1081 -850 1212 -737 
Q 1344 -625 1503 -206 
L 1606 56 
L 191 3500 
L 800 3500 
L 1894 763 
L 2988 3500 
L 3597 3500 
L 2059 -325 
z
" transform="scale(0.015625)"/>
      </defs>
      <use xlink:href="#DejaVuSans-41"/>
      <use xlink:href="#DejaVuSans-63" x="66.658203"/>
      <use xlink:href="#DejaVuSans-63" x="121.638672"/>
      <use xlink:href="#DejaVuSans-75" x="176.619141"/>
      <use xlink:href="#DejaVuSans-72" x="239.998047"/>
      <use xlink:href="#DejaVuSans-61" x="281.111328"/>
      <use xlink:href="#DejaVuSans-63" x="342.390625"/>
      <use xlink:href="#DejaVuSans-79" x="397.371094"/>
     </g>
    </g>
   </g>
   <g id="line2d_31">
    <path d="M 92.290909 305.427653 
L 93.914182 277.617082 
L 97.160727 239.577336 
L 98.784 231.266131 
L 100.407273 221.676279 
L 102.030545 207.611163 
L 103.653818 213.365074 
L 105.277091 208.88981 
L 106.900364 196.742664 
L 108.523636 207.291501 
L 110.146909 208.570148 
L 111.770182 177.56296 
L 113.393455 173.087696 
L 115.016727 175.964651 
L 116.64 166.374799 
L 118.263273 178.841607 
L 119.886545 183.316871 
L 121.509818 172.768034 
L 123.133091 166.055137 
L 124.756364 165.096152 
L 126.379636 174.046681 
L 128.002909 154.547315 
L 129.626182 160.94055 
L 131.249455 153.907992 
L 132.872727 153.268668 
L 134.496 144.31814 
L 136.119273 150.072051 
L 137.742545 150.391712 
L 139.365818 148.15408 
L 140.989091 140.80186 
L 142.612364 142.400169 
L 144.235636 144.637801 
L 145.858909 141.760846 
L 147.482182 131.212008 
L 150.728727 140.482199 
L 152.352 140.482199 
L 153.975273 139.842875 
L 155.598545 137.924905 
L 157.221818 124.17945 
L 158.845091 129.6137 
L 160.468364 122.900803 
L 162.091636 131.212008 
L 163.714909 127.376068 
L 165.338182 129.294038 
L 166.961455 134.088964 
L 168.584727 124.499112 
L 170.208 131.212008 
L 171.831273 126.736744 
L 173.454545 121.302495 
L 175.077818 115.228922 
L 176.701091 125.458097 
L 178.324364 114.589598 
L 179.947636 120.023848 
L 181.570909 131.53167 
L 183.194182 121.302495 
L 184.817455 112.99129 
L 186.440727 119.064863 
L 188.064 133.129979 
L 191.310545 116.187907 
L 192.933818 119.064863 
L 194.557091 117.146892 
L 196.180364 113.310951 
L 197.803636 108.835687 
L 199.426909 119.704186 
L 201.050182 112.351966 
L 202.673455 115.228922 
L 204.296727 114.589598 
L 205.92 113.630613 
L 207.543273 112.99129 
L 209.166545 108.196364 
L 210.789818 114.589598 
L 212.413091 124.17945 
L 214.036364 113.630613 
L 215.659636 110.433996 
L 217.282909 112.032304 
L 218.906182 106.278393 
L 220.529455 107.876702 
L 222.152727 106.598055 
L 223.776 116.507569 
L 225.399273 108.196364 
L 227.022545 107.237378 
L 228.645818 123.540127 
L 230.269091 107.55704 
L 231.892364 112.351966 
L 233.515636 114.90926 
L 235.138909 110.114334 
L 236.762182 110.114334 
L 238.385455 118.425539 
L 240.008727 112.671628 
L 241.632 108.196364 
L 243.255273 114.589598 
L 244.878545 112.671628 
L 246.501818 114.589598 
L 248.125091 107.876702 
L 249.748364 116.187907 
L 251.371636 109.155349 
L 252.994909 109.794672 
L 254.618182 93.491924 
L 256.241455 119.704186 
L 257.864727 115.548584 
L 259.488 102.442452 
L 261.111273 104.360423 
L 262.734545 114.90926 
L 264.357818 108.835687 
L 265.981091 112.671628 
L 267.604364 110.114334 
L 270.850909 103.081776 
L 272.474182 101.483467 
L 274.097455 114.589598 
L 275.720727 112.032304 
L 277.344 111.073319 
L 278.967273 104.360423 
L 280.590545 101.483467 
L 282.213818 108.516025 
L 283.837091 110.753658 
L 285.460364 113.630613 
L 287.083636 106.598055 
L 288.706909 110.753658 
L 290.330182 97.327865 
L 291.953455 102.762114 
L 293.576727 100.844144 
L 295.2 107.876702 
L 296.823273 110.433996 
L 300.069818 109.794672 
L 301.693091 107.876702 
L 303.316364 103.081776 
L 304.939636 112.351966 
L 306.562909 101.163805 
L 308.186182 104.040761 
L 309.809455 104.999746 
L 311.432727 101.483467 
L 313.056 108.516025 
L 314.679273 101.483467 
L 316.302545 105.319408 
L 317.925818 99.885159 
L 319.549091 99.565497 
L 321.172364 100.844144 
L 322.795636 99.885159 
L 324.418909 111.073319 
L 326.042182 109.475011 
L 327.665455 99.565497 
L 329.288727 109.155349 
L 330.912 101.163805 
L 332.535273 105.958732 
L 334.158545 104.360423 
L 335.781818 112.99129 
L 337.405091 107.237378 
L 339.028364 99.565497 
L 340.651636 97.967188 
L 342.274909 100.844144 
L 343.898182 106.598055 
L 345.521455 100.524482 
L 347.144727 102.762114 
L 348.768 99.245835 
L 350.391273 104.999746 
L 352.014545 107.55704 
L 353.637818 101.163805 
L 355.261091 102.122791 
L 356.884364 102.762114 
L 358.507636 98.926173 
L 360.130909 102.442452 
L 361.754182 103.721099 
L 363.377455 102.122791 
L 365.000727 98.606512 
L 366.624 94.450909 
L 368.247273 96.049218 
L 369.870545 104.999746 
L 371.493818 111.712643 
L 373.117091 102.442452 
L 374.740364 102.762114 
L 376.363636 105.319408 
L 377.986909 99.565497 
L 379.610182 103.721099 
L 381.233455 98.606512 
L 382.856727 99.245835 
L 384.48 108.516025 
L 386.103273 105.63907 
L 387.726545 102.442452 
L 389.349818 108.516025 
L 390.973091 103.081776 
L 392.596364 102.122791 
L 394.219636 101.803129 
L 395.842909 104.040761 
L 397.466182 90.93463 
L 399.089455 93.172262 
L 400.712727 116.507569 
L 402.336 104.680085 
L 403.959273 102.762114 
L 405.582545 118.425539 
L 407.205818 104.680085 
L 408.829091 99.885159 
L 410.452364 112.99129 
L 412.075636 103.401438 
L 413.698909 97.008203 
L 415.322182 100.20482 
L 416.945455 99.245835 
L 418.568727 106.598055 
L 420.192 102.762114 
L 421.815273 112.99129 
L 423.438545 111.392981 
L 425.061818 105.958732 
L 426.685091 93.491924 
L 428.308364 110.753658 
L 429.931636 99.885159 
L 431.554909 107.237378 
L 433.178182 98.28685 
L 434.801455 101.803129 
L 436.424727 109.794672 
L 438.048 106.278393 
L 439.671273 102.442452 
L 441.294545 100.844144 
L 442.917818 102.122791 
L 444.541091 108.196364 
L 446.164364 104.040761 
L 447.787636 102.762114 
L 449.410909 108.196364 
L 451.034182 98.28685 
L 452.657455 97.647526 
L 454.280727 113.630613 
L 455.904 103.721099 
L 457.527273 102.762114 
L 459.150545 108.835687 
L 460.773818 102.122791 
L 462.397091 111.073319 
L 464.020364 101.163805 
L 465.643636 95.729556 
L 467.266909 96.049218 
L 468.890182 105.958732 
L 470.513455 106.278393 
L 472.136727 97.327865 
L 473.76 113.950275 
L 475.383273 103.721099 
L 477.006545 109.155349 
L 478.629818 95.729556 
L 480.253091 100.844144 
L 481.876364 116.82723 
L 483.499636 108.196364 
L 485.122909 97.647526 
L 486.746182 106.278393 
L 488.369455 98.28685 
L 489.992727 106.917717 
L 491.616 103.401438 
L 493.239273 95.729556 
L 494.862545 94.450909 
L 496.485818 101.163805 
L 498.109091 109.794672 
L 498.109091 109.794672 
" clip-path="url(#pcd82fb926c)" style="fill: none; stroke: #1f77b4; stroke-width: 1.5; stroke-linecap: square"/>
   </g>
   <g id="line2d_32">
    <path d="M 92.290909 292.00186 
L 93.914182 285.928288 
L 95.537455 276.018774 
L 97.160727 262.273319 
L 98.784 255.240761 
L 100.407273 249.48685 
L 102.030545 221.036956 
L 103.653818 230.626808 
L 105.277091 201.53759 
L 106.900364 216.24203 
L 108.523636 186.513488 
L 110.146909 189.390444 
L 111.770182 179.800592 
L 113.393455 202.816237 
L 115.016727 184.595518 
L 116.64 175.964651 
L 118.263273 160.620888 
L 119.886545 149.432727 
L 121.509818 164.137167 
L 123.133091 151.350698 
L 124.756364 140.482199 
L 126.379636 136.646258 
L 128.002909 139.523214 
L 129.626182 138.88389 
L 131.249455 128.974376 
L 132.872727 131.53167 
L 134.496 133.449641 
L 136.119273 123.859789 
L 137.742545 143.678816 
L 139.365818 119.064863 
L 140.989091 122.900803 
L 142.612364 129.933362 
L 144.235636 122.900803 
L 145.858909 117.146892 
L 147.482182 115.228922 
L 149.105455 109.155349 
L 150.728727 122.900803 
L 152.352 120.663171 
L 153.975273 115.548584 
L 155.598545 116.82723 
L 158.845091 103.081776 
L 160.468364 107.876702 
L 162.091636 105.63907 
L 163.714909 113.950275 
L 165.338182 104.040761 
L 166.961455 101.163805 
L 168.584727 114.269937 
L 170.208 110.753658 
L 171.831273 103.721099 
L 173.454545 103.081776 
L 175.077818 99.565497 
L 176.701091 102.442452 
L 178.324364 101.803129 
L 179.947636 95.409894 
L 181.570909 97.327865 
L 183.194182 99.885159 
L 184.817455 101.803129 
L 188.064 91.893615 
L 189.687273 99.565497 
L 191.310545 95.090233 
L 192.933818 93.491924 
L 194.557091 94.450909 
L 196.180364 102.122791 
L 197.803636 88.377336 
L 199.426909 97.008203 
L 201.050182 88.057674 
L 202.673455 95.090233 
L 204.296727 96.688541 
L 205.92 87.418351 
L 207.543273 94.131247 
L 209.166545 96.688541 
L 210.789818 96.368879 
L 212.413091 86.779027 
L 214.036364 89.975645 
L 215.659636 86.139704 
L 217.282909 93.491924 
L 218.906182 84.541395 
L 220.529455 88.696998 
L 222.152727 90.295307 
L 223.776 92.532939 
L 225.399273 98.926173 
L 227.022545 86.139704 
L 228.645818 89.975645 
L 231.892364 85.500381 
L 233.515636 88.377336 
L 235.138909 83.902072 
L 236.762182 76.869514 
L 238.385455 92.213277 
L 240.008727 81.66444 
L 241.632 86.779027 
L 243.255273 81.984101 
L 244.878545 88.377336 
L 246.501818 82.943087 
L 248.125091 81.984101 
L 249.748364 91.573953 
L 251.371636 81.344778 
L 252.994909 81.984101 
L 254.618182 72.713911 
L 256.241455 79.107146 
L 257.864727 83.902072 
L 259.488 79.746469 
L 261.111273 82.303763 
L 262.734545 77.189175 
L 264.357818 80.705455 
L 265.981091 87.098689 
L 267.604364 101.163805 
L 269.227636 92.213277 
L 270.850909 81.344778 
L 272.474182 81.66444 
L 274.097455 94.131247 
L 275.720727 84.541395 
L 277.344 78.787484 
L 278.967273 89.01666 
L 280.590545 78.467822 
L 282.213818 83.262748 
L 283.837091 85.820042 
L 285.460364 82.303763 
L 287.083636 74.951543 
L 288.706909 81.025116 
L 290.330182 86.139704 
L 291.953455 85.500381 
L 293.576727 86.139704 
L 295.2 77.189175 
L 296.823273 77.828499 
L 298.446545 89.655983 
L 300.069818 83.902072 
L 301.693091 76.23019 
L 303.316364 88.377336 
L 304.939636 75.910529 
L 306.562909 85.820042 
L 308.186182 75.590867 
L 309.809455 85.180719 
L 311.432727 85.820042 
L 313.056 81.025116 
L 314.679273 85.820042 
L 316.302545 82.623425 
L 317.925818 70.795941 
L 319.549091 77.828499 
L 321.172364 83.902072 
L 322.795636 74.951543 
L 324.418909 83.262748 
L 326.042182 71.754926 
L 329.288727 73.033573 
L 330.912 84.541395 
L 332.535273 80.705455 
L 334.158545 90.295307 
L 335.781818 69.197632 
L 337.405091 76.23019 
L 339.028364 80.066131 
L 340.651636 75.590867 
L 342.274909 74.951543 
L 343.898182 78.787484 
L 345.521455 74.631882 
L 347.144727 73.672896 
L 348.768 71.435264 
L 350.391273 79.107146 
L 352.014545 86.139704 
L 353.637818 80.385793 
L 355.261091 86.779027 
L 356.884364 81.66444 
L 358.507636 82.623425 
L 360.130909 77.508837 
L 361.754182 78.467822 
L 363.377455 78.148161 
L 365.000727 78.787484 
L 368.247273 81.984101 
L 369.870545 82.943087 
L 371.493818 81.984101 
L 373.117091 81.66444 
L 374.740364 79.746469 
L 376.363636 80.705455 
L 377.986909 71.754926 
L 379.610182 71.754926 
L 381.233455 78.148161 
L 382.856727 82.623425 
L 384.48 75.590867 
L 386.103273 79.426808 
L 387.726545 74.631882 
L 389.349818 73.672896 
L 390.973091 78.148161 
L 392.596364 79.426808 
L 394.219636 74.31222 
L 395.842909 70.795941 
L 397.466182 77.189175 
L 399.089455 88.057674 
L 400.712727 79.746469 
L 402.336 75.590867 
L 403.959273 81.984101 
L 405.582545 85.500381 
L 407.205818 80.705455 
L 408.829091 76.549852 
L 410.452364 74.631882 
L 412.075636 81.984101 
L 413.698909 85.180719 
L 415.322182 79.746469 
L 416.945455 70.156617 
L 418.568727 70.476279 
L 420.192 75.590867 
L 421.815273 83.58241 
L 423.438545 74.631882 
L 425.061818 73.992558 
L 426.685091 70.476279 
L 428.308364 75.271205 
L 429.931636 77.189175 
L 431.554909 71.115603 
L 433.178182 67.279662 
L 434.801455 69.517294 
L 436.424727 74.631882 
L 438.048 78.787484 
L 439.671273 74.631882 
L 441.294545 84.221734 
L 442.917818 69.517294 
L 444.541091 85.180719 
L 446.164364 79.107146 
L 447.787636 70.156617 
L 449.410909 74.31222 
L 451.034182 73.353235 
L 452.657455 70.795941 
L 454.280727 73.672896 
L 455.904 76.23019 
L 457.527273 68.558309 
L 459.150545 70.156617 
L 460.773818 83.902072 
L 462.397091 75.910529 
L 464.020364 73.672896 
L 465.643636 73.353235 
L 467.266909 68.558309 
L 468.890182 78.148161 
L 470.513455 79.746469 
L 472.136727 73.033573 
L 473.76 80.066131 
L 475.383273 75.271205 
L 477.006545 66.96 
L 478.629818 73.033573 
L 480.253091 74.631882 
L 481.876364 78.787484 
L 483.499636 69.836956 
L 485.122909 73.992558 
L 486.746182 72.394249 
L 488.369455 71.435264 
L 489.992727 76.869514 
L 491.616 79.746469 
L 493.239273 69.836956 
L 494.862545 73.672896 
L 496.485818 67.599323 
L 498.109091 71.115603 
L 498.109091 71.115603 
" clip-path="url(#pcd82fb926c)" style="fill: none; stroke: #ff7f0e; stroke-width: 1.5; stroke-linecap: square"/>
   </g>
   <g id="line2d_33">
    <path d="M 92.290909 336.754503 
L 93.914182 306.386638 
L 95.537455 296.157463 
L 97.160727 283.690655 
L 98.784 253.003129 
L 100.407273 234.143087 
L 102.030545 228.069514 
L 103.653818 221.356617 
L 105.277091 215.283044 
L 106.900364 203.135899 
L 108.523636 197.381987 
L 110.146909 186.513488 
L 111.770182 165.415814 
L 113.393455 200.578605 
L 115.016727 185.234841 
L 116.64 184.275856 
L 118.263273 167.014123 
L 119.886545 171.169725 
L 121.509818 162.85852 
L 123.133091 165.096152 
L 124.756364 141.441184 
L 126.379636 145.277125 
L 128.002909 155.825962 
L 129.626182 150.711374 
L 131.249455 151.350698 
L 132.872727 134.088964 
L 134.496 153.907992 
L 136.119273 130.892347 
L 137.742545 143.039493 
L 139.365818 127.695729 
L 140.989091 136.96592 
L 142.612364 137.285581 
L 144.235636 142.400169 
L 145.858909 146.875433 
L 147.482182 126.736744 
L 149.105455 124.818774 
L 150.728727 137.285581 
L 152.352 116.507569 
L 153.975273 118.745201 
L 155.598545 131.212008 
L 157.221818 122.900803 
L 158.845091 128.015391 
L 160.468364 121.941818 
L 162.091636 112.351966 
L 163.714909 113.630613 
L 165.338182 124.17945 
L 166.961455 104.999746 
L 168.584727 114.589598 
L 170.208 107.876702 
L 171.831273 121.941818 
L 173.454545 109.475011 
L 175.077818 99.245835 
L 176.701091 109.475011 
L 178.324364 105.63907 
L 179.947636 114.90926 
L 181.570909 110.114334 
L 183.194182 104.040761 
L 184.817455 107.876702 
L 186.440727 111.392981 
L 188.064 109.794672 
L 189.687273 104.360423 
L 191.310545 106.278393 
L 192.933818 110.433996 
L 194.557091 102.122791 
L 196.180364 103.721099 
L 197.803636 103.401438 
L 199.426909 104.360423 
L 201.050182 101.483467 
L 202.673455 111.073319 
L 204.296727 97.008203 
L 205.92 100.20482 
L 207.543273 94.770571 
L 209.166545 100.844144 
L 210.789818 104.360423 
L 212.413091 99.885159 
L 214.036364 93.491924 
L 215.659636 92.532939 
L 217.282909 97.967188 
L 218.906182 94.770571 
L 220.529455 100.20482 
L 222.152727 102.122791 
L 223.776 108.196364 
L 225.399273 95.090233 
L 227.022545 98.28685 
L 228.645818 93.172262 
L 230.269091 97.327865 
L 231.892364 96.368879 
L 233.515636 98.926173 
L 235.138909 101.803129 
L 236.762182 90.614968 
L 238.385455 91.893615 
L 240.008727 95.090233 
L 241.632 91.893615 
L 243.255273 100.20482 
L 244.878545 89.975645 
L 246.501818 99.885159 
L 248.125091 89.655983 
L 249.748364 90.614968 
L 251.371636 84.221734 
L 252.994909 83.262748 
L 254.618182 96.049218 
L 256.241455 92.532939 
L 257.864727 89.336321 
L 259.488 88.696998 
L 261.111273 97.327865 
L 262.734545 88.696998 
L 264.357818 89.336321 
L 265.981091 91.893615 
L 267.604364 81.025116 
L 269.227636 101.483467 
L 270.850909 94.131247 
L 272.474182 90.614968 
L 274.097455 91.893615 
L 275.720727 90.295307 
L 277.344 90.295307 
L 278.967273 93.491924 
L 280.590545 88.057674 
L 282.213818 91.573953 
L 283.837091 88.057674 
L 285.460364 83.902072 
L 287.083636 94.450909 
L 288.706909 91.254292 
L 290.330182 89.975645 
L 291.953455 80.705455 
L 293.576727 87.418351 
L 295.2 81.344778 
L 296.823273 86.139704 
L 298.446545 95.090233 
L 300.069818 92.8526 
L 301.693091 78.787484 
L 303.316364 87.738013 
L 304.939636 83.262748 
L 306.562909 86.459366 
L 308.186182 87.418351 
L 309.809455 94.131247 
L 311.432727 92.8526 
L 313.056 89.336321 
L 314.679273 82.943087 
L 316.302545 87.418351 
L 317.925818 92.532939 
L 319.549091 78.787484 
L 321.172364 86.139704 
L 322.795636 83.58241 
L 324.418909 100.844144 
L 326.042182 87.098689 
L 327.665455 81.66444 
L 329.288727 85.820042 
L 330.912 82.943087 
L 332.535273 91.893615 
L 334.158545 83.262748 
L 335.781818 90.614968 
L 337.405091 91.573953 
L 339.028364 89.655983 
L 340.651636 89.975645 
L 342.274909 83.58241 
L 343.898182 84.861057 
L 345.521455 81.66444 
L 347.144727 82.623425 
L 348.768 84.541395 
L 352.014545 93.811586 
L 353.637818 80.385793 
L 355.261091 82.303763 
L 356.884364 83.58241 
L 358.507636 85.820042 
L 360.130909 85.180719 
L 361.754182 88.696998 
L 363.377455 88.377336 
L 365.000727 84.861057 
L 366.624 91.573953 
L 368.247273 86.459366 
L 369.870545 82.303763 
L 371.493818 87.098689 
L 374.740364 87.738013 
L 376.363636 89.655983 
L 377.986909 91.893615 
L 379.610182 89.336321 
L 381.233455 81.984101 
L 382.856727 86.459366 
L 384.48 83.902072 
L 386.103273 80.066131 
L 387.726545 91.893615 
L 389.349818 80.705455 
L 390.973091 81.66444 
L 392.596364 84.861057 
L 394.219636 82.623425 
L 395.842909 81.025116 
L 397.466182 93.491924 
L 399.089455 80.066131 
L 400.712727 81.025116 
L 402.336 87.098689 
L 403.959273 87.418351 
L 405.582545 86.779027 
L 407.205818 81.66444 
L 408.829091 97.647526 
L 410.452364 86.459366 
L 412.075636 90.93463 
L 413.698909 82.303763 
L 415.322182 87.738013 
L 416.945455 82.623425 
L 418.568727 81.984101 
L 420.192 76.869514 
L 421.815273 90.93463 
L 423.438545 77.189175 
L 425.061818 82.943087 
L 426.685091 82.303763 
L 428.308364 81.344778 
L 429.931636 79.107146 
L 431.554909 88.696998 
L 433.178182 86.779027 
L 434.801455 86.779027 
L 436.424727 78.787484 
L 438.048 80.385793 
L 439.671273 85.500381 
L 441.294545 97.327865 
L 442.917818 87.098689 
L 444.541091 82.303763 
L 446.164364 82.623425 
L 447.787636 79.426808 
L 449.410909 77.828499 
L 451.034182 81.984101 
L 452.657455 80.705455 
L 457.527273 83.58241 
L 459.150545 80.705455 
L 460.773818 87.098689 
L 462.397091 89.336321 
L 464.020364 89.01666 
L 465.643636 81.344778 
L 467.266909 85.500381 
L 468.890182 82.623425 
L 470.513455 82.623425 
L 472.136727 89.336321 
L 473.76 81.984101 
L 475.383273 93.491924 
L 477.006545 101.163805 
L 478.629818 94.450909 
L 480.253091 83.262748 
L 481.876364 86.139704 
L 483.499636 83.262748 
L 485.122909 80.705455 
L 486.746182 93.491924 
L 488.369455 89.655983 
L 489.992727 76.23019 
L 491.616 82.303763 
L 493.239273 75.590867 
L 494.862545 94.131247 
L 496.485818 80.385793 
L 498.109091 91.254292 
L 498.109091 91.254292 
" clip-path="url(#pcd82fb926c)" style="fill: none; stroke: #2ca02c; stroke-width: 1.5; stroke-linecap: square"/>
   </g>
   <g id="line2d_34">
    <path d="M 92.290909 369.36 
L 93.914182 342.188753 
L 97.160727 293.600169 
L 98.784 291.362537 
L 100.407273 264.19129 
L 102.030545 242.13463 
L 103.653818 241.814968 
L 105.277091 247.249218 
L 106.900364 216.881353 
L 108.523636 205.373531 
L 110.146909 199.299958 
L 111.770182 196.742664 
L 113.393455 202.496575 
L 115.016727 192.587061 
L 116.64 176.284313 
L 118.263273 169.891078 
L 119.886545 166.055137 
L 121.509818 169.891078 
L 123.133091 179.48093 
L 124.756364 167.973108 
L 126.379636 164.137167 
L 128.002909 137.285581 
L 129.626182 149.432727 
L 131.249455 157.104609 
L 132.872727 147.195095 
L 134.496 142.719831 
L 136.119273 139.842875 
L 137.742545 155.186638 
L 139.365818 137.605243 
L 140.989091 141.121522 
L 142.612364 136.006934 
L 144.235636 123.220465 
L 145.858909 131.212008 
L 147.482182 136.006934 
L 149.105455 130.572685 
L 150.728727 128.015391 
L 152.352 130.572685 
L 153.975273 128.335053 
L 155.598545 133.449641 
L 157.221818 135.047949 
L 158.845091 143.039493 
L 160.468364 112.671628 
L 162.091636 127.695729 
L 163.714909 127.056406 
L 165.338182 121.622156 
L 166.961455 112.671628 
L 168.584727 127.695729 
L 170.208 125.458097 
L 171.831273 131.851332 
L 173.454545 121.302495 
L 175.077818 119.064863 
L 176.701091 114.589598 
L 178.324364 105.63907 
L 179.947636 114.269937 
L 181.570909 102.442452 
L 183.194182 99.565497 
L 184.817455 109.475011 
L 186.440727 109.155349 
L 188.064 108.196364 
L 189.687273 112.351966 
L 191.310545 104.040761 
L 192.933818 98.28685 
L 194.557091 106.598055 
L 196.180364 107.876702 
L 197.803636 112.351966 
L 199.426909 101.163805 
L 201.050182 103.401438 
L 202.673455 99.885159 
L 204.296727 98.606512 
L 205.92 90.614968 
L 207.543273 97.327865 
L 209.166545 105.319408 
L 210.789818 108.516025 
L 214.036364 94.770571 
L 215.659636 106.278393 
L 217.282909 97.008203 
L 218.906182 92.8526 
L 220.529455 103.081776 
L 222.152727 102.762114 
L 223.776 97.967188 
L 225.399273 100.524482 
L 227.022545 93.491924 
L 228.645818 97.647526 
L 230.269091 108.196364 
L 231.892364 92.8526 
L 233.515636 97.967188 
L 235.138909 98.606512 
L 236.762182 95.409894 
L 238.385455 97.647526 
L 240.008727 86.779027 
L 241.632 97.647526 
L 243.255273 86.779027 
L 244.878545 88.057674 
L 246.501818 90.295307 
L 248.125091 106.598055 
L 249.748364 90.295307 
L 251.371636 90.614968 
L 252.994909 97.647526 
L 254.618182 86.139704 
L 256.241455 93.491924 
L 257.864727 86.779027 
L 259.488 96.688541 
L 261.111273 87.098689 
L 262.734545 98.28685 
L 264.357818 94.770571 
L 265.981091 93.491924 
L 267.604364 91.893615 
L 269.227636 95.090233 
L 270.850909 88.057674 
L 272.474182 85.180719 
L 274.097455 91.573953 
L 275.720727 81.984101 
L 277.344 95.409894 
L 278.967273 92.532939 
L 280.590545 84.541395 
L 282.213818 86.139704 
L 283.837091 94.770571 
L 285.460364 83.902072 
L 287.083636 94.770571 
L 288.706909 90.93463 
L 290.330182 81.984101 
L 291.953455 84.861057 
L 293.576727 85.500381 
L 295.2 81.66444 
L 296.823273 83.902072 
L 298.446545 94.770571 
L 300.069818 86.779027 
L 301.693091 86.459366 
L 303.316364 75.910529 
L 304.939636 90.614968 
L 306.562909 86.139704 
L 308.186182 83.902072 
L 309.809455 84.861057 
L 311.432727 82.943087 
L 313.056 91.893615 
L 314.679273 85.180719 
L 316.302545 88.377336 
L 317.925818 85.500381 
L 319.549091 98.926173 
L 321.172364 83.58241 
L 324.418909 92.532939 
L 326.042182 89.01666 
L 327.665455 87.418351 
L 329.288727 86.459366 
L 330.912 80.066131 
L 332.535273 90.295307 
L 334.158545 86.139704 
L 335.781818 75.910529 
L 337.405091 90.614968 
L 339.028364 81.025116 
L 340.651636 88.696998 
L 342.274909 86.459366 
L 343.898182 93.172262 
L 345.521455 80.705455 
L 347.144727 82.943087 
L 348.768 86.459366 
L 350.391273 83.58241 
L 352.014545 85.180719 
L 353.637818 81.025116 
L 355.261091 75.910529 
L 356.884364 95.090233 
L 358.507636 90.614968 
L 360.130909 92.8526 
L 361.754182 80.066131 
L 363.377455 85.500381 
L 365.000727 82.303763 
L 366.624 81.66444 
L 368.247273 96.688541 
L 369.870545 81.984101 
L 371.493818 86.779027 
L 373.117091 92.532939 
L 374.740364 89.655983 
L 376.363636 97.008203 
L 377.986909 96.368879 
L 379.610182 83.902072 
L 381.233455 83.58241 
L 382.856727 87.098689 
L 384.48 89.655983 
L 386.103273 73.672896 
L 387.726545 92.8526 
L 389.349818 87.098689 
L 390.973091 86.779027 
L 392.596364 86.139704 
L 394.219636 82.623425 
L 395.842909 84.541395 
L 397.466182 91.254292 
L 399.089455 84.861057 
L 400.712727 97.008203 
L 402.336 86.459366 
L 403.959273 87.738013 
L 405.582545 87.098689 
L 407.205818 85.820042 
L 408.829091 83.262748 
L 410.452364 90.614968 
L 412.075636 84.541395 
L 413.698909 83.262748 
L 415.322182 85.500381 
L 416.945455 91.573953 
L 418.568727 74.631882 
L 420.192 82.623425 
L 421.815273 77.508837 
L 423.438545 93.491924 
L 425.061818 77.508837 
L 426.685091 86.139704 
L 428.308364 78.787484 
L 429.931636 88.377336 
L 431.554909 86.139704 
L 433.178182 95.090233 
L 434.801455 91.893615 
L 436.424727 80.385793 
L 438.048 85.500381 
L 439.671273 85.820042 
L 441.294545 84.861057 
L 442.917818 94.131247 
L 444.541091 97.008203 
L 446.164364 83.262748 
L 447.787636 81.025116 
L 449.410909 89.975645 
L 451.034182 93.491924 
L 452.657455 96.368879 
L 454.280727 76.23019 
L 455.904 84.861057 
L 457.527273 85.500381 
L 459.150545 89.336321 
L 460.773818 73.992558 
L 462.397091 79.746469 
L 464.020364 77.189175 
L 465.643636 90.93463 
L 467.266909 94.770571 
L 468.890182 73.672896 
L 470.513455 87.738013 
L 472.136727 95.090233 
L 473.76 82.623425 
L 475.383273 94.770571 
L 477.006545 81.344778 
L 478.629818 89.01666 
L 480.253091 98.606512 
L 481.876364 83.262748 
L 483.499636 81.344778 
L 485.122909 103.401438 
L 486.746182 88.057674 
L 488.369455 86.779027 
L 489.992727 81.025116 
L 491.616 83.58241 
L 493.239273 80.705455 
L 494.862545 89.336321 
L 496.485818 90.614968 
L 498.109091 90.93463 
L 498.109091 90.93463 
" clip-path="url(#pcd82fb926c)" style="fill: none; stroke: #d62728; stroke-width: 1.5; stroke-linecap: square"/>
   </g>
   <g id="patch_3">
    <path d="M 72 384.48 
L 72 51.84 
" style="fill: none; stroke: #000000; stroke-width: 0.8; stroke-linejoin: miter; stroke-linecap: square"/>
   </g>
   <g id="patch_4">
    <path d="M 518.4 384.48 
L 518.4 51.84 
" style="fill: none; stroke: #000000; stroke-width: 0.8; stroke-linejoin: miter; stroke-linecap: square"/>
   </g>
   <g id="patch_5">
    <path d="M 72 384.48 
L 518.4 384.48 
" style="fill: none; stroke: #000000; stroke-width: 0.8; stroke-linejoin: miter; stroke-linecap: square"/>
   </g>
   <g id="patch_6">
    <path d="M 72 51.84 
L 518.4 51.84 
" style="fill: none; stroke: #000000; stroke-width: 0.8; stroke-linejoin: miter; stroke-linecap: square"/>
   </g>
   <g id="text_18">
    <!-- Max-Common -->
    <g transform="translate(253.606875 45.84)scale(0.12 -0.12)">
     <defs>
      <path id="DejaVuSans-4d" d="M 628 4666 
L 1569 4666 
L 2759 1491 
L 3956 4666 
L 4897 4666 
L 4897 0 
L 4281 0 
L 4281 4097 
L 3078 897 
L 2444 897 
L 1241 4097 
L 1241 0 
L 628 0 
L 628 4666 
z
" transform="scale(0.015625)"/>
      <path id="DejaVuSans-78" d="M 3513 3500 
L 2247 1797 
L 3578 0 
L 2900 0 
L 1881 1375 
L 863 0 
L 184 0 
L 1544 1831 
L 300 3500 
L 978 3500 
L 1906 2253 
L 2834 3500 
L 3513 3500 
z
" transform="scale(0.015625)"/>
      <path id="DejaVuSans-2d" d="M 313 2009 
L 1997 2009 
L 1997 1497 
L 313 1497 
L 313 2009 
z
" transform="scale(0.015625)"/>
     </defs>
     <use xlink:href="#DejaVuSans-4d"/>
     <use xlink:href="#DejaVuSans-61" x="86.279297"/>
     <use xlink:href="#DejaVuSans-78" x="147.558594"/>
     <use xlink:href="#DejaVuSans-2d" x="206.738281"/>
     <use xlink:href="#DejaVuSans-43" x="242.822266"/>
     <use xlink:href="#DejaVuSans-6f" x="312.646484"/>
     <use xlink:href="#DejaVuSans-6d" x="373.828125"/>
     <use xlink:href="#DejaVuSans-6d" x="471.240234"/>
     <use xlink:href="#DejaVuSans-6f" x="568.652344"/>
     <use xlink:href="#DejaVuSans-6e" x="629.833984"/>
    </g>
   </g>
   <g id="legend_1">
    <g id="patch_7">
     <path d="M 79 118.5525 
L 124.203125 118.5525 
Q 126.203125 118.5525 126.203125 116.5525 
L 126.203125 58.84 
Q 126.203125 56.84 124.203125 56.84 
L 79 56.84 
Q 77 56.84 77 58.84 
L 77 116.5525 
Q 77 118.5525 79 118.5525 
z
" style="fill: #ffffff; opacity: 0.8; stroke: #cccccc; stroke-linejoin: miter"/>
    </g>
    <g id="line2d_35">
     <path d="M 81 64.938438 
L 91 64.938438 
L 101 64.938438 
" style="fill: none; stroke: #1f77b4; stroke-width: 1.5; stroke-linecap: square"/>
    </g>
    <g id="text_19">
     <!-- V1 -->
     <g transform="translate(109 68.438438)scale(0.1 -0.1)">
      <defs>
       <path id="DejaVuSans-56" d="M 1831 0 
L 50 4666 
L 709 4666 
L 2188 738 
L 3669 4666 
L 4325 4666 
L 2547 0 
L 1831 0 
z
" transform="scale(0.015625)"/>
      </defs>
      <use xlink:href="#DejaVuSans-56"/>
      <use xlink:href="#DejaVuSans-31" x="68.408203"/>
     </g>
    </g>
    <g id="line2d_36">
     <path d="M 81 79.616563 
L 91 79.616563 
L 101 79.616563 
" style="fill: none; stroke: #ff7f0e; stroke-width: 1.5; stroke-linecap: square"/>
    </g>
    <g id="text_20">
     <!-- V2 -->
     <g transform="translate(109 83.116563)scale(0.1 -0.1)">
      <use xlink:href="#DejaVuSans-56"/>
      <use xlink:href="#DejaVuSans-32" x="68.408203"/>
     </g>
    </g>
    <g id="line2d_37">
     <path d="M 81 94.294688 
L 91 94.294688 
L 101 94.294688 
" style="fill: none; stroke: #2ca02c; stroke-width: 1.5; stroke-linecap: square"/>
    </g>
    <g id="text_21">
     <!-- V3 -->
     <g transform="translate(109 97.794688)scale(0.1 -0.1)">
      <use xlink:href="#DejaVuSans-56"/>
      <use xlink:href="#DejaVuSans-33" x="68.408203"/>
     </g>
    </g>
    <g id="line2d_38">
     <path d="M 81 108.972813 
L 91 108.972813 
L 101 108.972813 
" style="fill: none; stroke: #d62728; stroke-width: 1.5; stroke-linecap: square"/>
    </g>
    <g id="text_22">
     <!-- V4 -->
     <g transform="translate(109 112.472813)scale(0.1 -0.1)">
      <use xlink:href="#DejaVuSans-56"/>
      <use xlink:href="#DejaVuSans-34" x="68.408203"/>
     </g>
    </g>
   </g>
  </g>
 </g>
 <defs>
  <clipPath id="pcd82fb926c">
   <rect x="72" y="51.84" width="446.4" height="332.64"/>
  </clipPath>
 </defs>
</svg>
