<?xml version="1.0" encoding="utf-8" standalone="no"?>
<!DOCTYPE svg PUBLIC "-//W3C//DTD SVG 1.1//EN"
  "http://www.w3.org/Graphics/SVG/1.1/DTD/svg11.dtd">
<svg xmlns:xlink="http://www.w3.org/1999/xlink" width="576pt" height="432pt" viewBox="0 0 576 432" xmlns="http://www.w3.org/2000/svg" version="1.1">
 <metadata>
  <rdf:RDF xmlns:dc="http://purl.org/dc/elements/1.1/" xmlns:cc="http://creativecommons.org/ns#" xmlns:rdf="http://www.w3.org/1999/02/22-rdf-syntax-ns#">
   <cc:Work>
    <dc:type rdf:resource="http://purl.org/dc/dcmitype/StillImage"/>
    <dc:date>2023-08-04T16:22:12.920329</dc:date>
    <dc:format>image/svg+xml</dc:format>
    <dc:creator>
     <cc:Agent>
      <dc:title>Matplotlib v3.5.2, https://matplotlib.org/</dc:title>
     </cc:Agent>
    </dc:creator>
   </cc:Work>
  </rdf:RDF>
 </metadata>
 <defs>
  <style type="text/css">*{stroke-linejoin: round; stroke-linecap: butt}</style>
 </defs>
 <g id="figure_1">
  <g id="patch_1">
   <path d="M 0 432 
L 576 432 
L 576 0 
L 0 0 
L 0 432 
z
" style="fill: none"/>
  </g>
  <g id="axes_1">
   <g id="patch_2">
    <path d="M 72 378 
L 518.4 378 
L 518.4 51.84 
L 72 51.84 
z
" style="fill: #ffffff"/>
   </g>
   <g id="matplotlib.axis_1">
    <g id="xtick_1">
     <g id="line2d_1">
      <path d="M 92.290909 378 
L 92.290909 51.84 
" clip-path="url(#p47af757402)" style="fill: none; stroke: #b0b0b0; stroke-opacity: 0.5; stroke-width: 0.8; stroke-linecap: square"/>
     </g>
     <g id="line2d_2">
      <defs>
       <path id="md81e7fbec1" d="M 0 0 
L 0 3.5 
" style="stroke: #000000; stroke-width: 0.8"/>
      </defs>
      <g>
       <use xlink:href="#md81e7fbec1" x="92.290909" y="378" style="stroke: #000000; stroke-width: 0.8"/>
      </g>
     </g>
     <g id="text_1">
      <!-- 0 -->
      <g transform="translate(89.109659 392.598437)scale(0.1 -0.1)">
       <defs>
        <path id="DejaVuSans-30" d="M 2034 4250 
Q 1547 4250 1301 3770 
Q 1056 3291 1056 2328 
Q 1056 1369 1301 889 
Q 1547 409 2034 409 
Q 2525 409 2770 889 
Q 3016 1369 3016 2328 
Q 3016 3291 2770 3770 
Q 2525 4250 2034 4250 
z
M 2034 4750 
Q 2819 4750 3233 4129 
Q 3647 3509 3647 2328 
Q 3647 1150 3233 529 
Q 2819 -91 2034 -91 
Q 1250 -91 836 529 
Q 422 1150 422 2328 
Q 422 3509 836 4129 
Q 1250 4750 2034 4750 
z
" transform="scale(0.015625)"/>
       </defs>
       <use xlink:href="#DejaVuSans-30"/>
      </g>
     </g>
    </g>
    <g id="xtick_2">
     <g id="line2d_3">
      <path d="M 173.454545 378 
L 173.454545 51.84 
" clip-path="url(#p47af757402)" style="fill: none; stroke: #b0b0b0; stroke-opacity: 0.5; stroke-width: 0.8; stroke-linecap: square"/>
     </g>
     <g id="line2d_4">
      <g>
       <use xlink:href="#md81e7fbec1" x="173.454545" y="378" style="stroke: #000000; stroke-width: 0.8"/>
      </g>
     </g>
     <g id="text_2">
      <!-- 50 -->
      <g transform="translate(167.092045 392.598437)scale(0.1 -0.1)">
       <defs>
        <path id="DejaVuSans-35" d="M 691 4666 
L 3169 4666 
L 3169 4134 
L 1269 4134 
L 1269 2991 
Q 1406 3038 1543 3061 
Q 1681 3084 1819 3084 
Q 2600 3084 3056 2656 
Q 3513 2228 3513 1497 
Q 3513 744 3044 326 
Q 2575 -91 1722 -91 
Q 1428 -91 1123 -41 
Q 819 9 494 109 
L 494 744 
Q 775 591 1075 516 
Q 1375 441 1709 441 
Q 2250 441 2565 725 
Q 2881 1009 2881 1497 
Q 2881 1984 2565 2268 
Q 2250 2553 1709 2553 
Q 1456 2553 1204 2497 
Q 953 2441 691 2322 
L 691 4666 
z
" transform="scale(0.015625)"/>
       </defs>
       <use xlink:href="#DejaVuSans-35"/>
       <use xlink:href="#DejaVuSans-30" x="63.623047"/>
      </g>
     </g>
    </g>
    <g id="xtick_3">
     <g id="line2d_5">
      <path d="M 254.618182 378 
L 254.618182 51.84 
" clip-path="url(#p47af757402)" style="fill: none; stroke: #b0b0b0; stroke-opacity: 0.5; stroke-width: 0.8; stroke-linecap: square"/>
     </g>
     <g id="line2d_6">
      <g>
       <use xlink:href="#md81e7fbec1" x="254.618182" y="378" style="stroke: #000000; stroke-width: 0.8"/>
      </g>
     </g>
     <g id="text_3">
      <!-- 100 -->
      <g transform="translate(245.074432 392.598437)scale(0.1 -0.1)">
       <defs>
        <path id="DejaVuSans-31" d="M 794 531 
L 1825 531 
L 1825 4091 
L 703 3866 
L 703 4441 
L 1819 4666 
L 2450 4666 
L 2450 531 
L 3481 531 
L 3481 0 
L 794 0 
L 794 531 
z
" transform="scale(0.015625)"/>
       </defs>
       <use xlink:href="#DejaVuSans-31"/>
       <use xlink:href="#DejaVuSans-30" x="63.623047"/>
       <use xlink:href="#DejaVuSans-30" x="127.246094"/>
      </g>
     </g>
    </g>
    <g id="xtick_4">
     <g id="line2d_7">
      <path d="M 335.781818 378 
L 335.781818 51.84 
" clip-path="url(#p47af757402)" style="fill: none; stroke: #b0b0b0; stroke-opacity: 0.5; stroke-width: 0.8; stroke-linecap: square"/>
     </g>
     <g id="line2d_8">
      <g>
       <use xlink:href="#md81e7fbec1" x="335.781818" y="378" style="stroke: #000000; stroke-width: 0.8"/>
      </g>
     </g>
     <g id="text_4">
      <!-- 150 -->
      <g transform="translate(326.238068 392.598437)scale(0.1 -0.1)">
       <use xlink:href="#DejaVuSans-31"/>
       <use xlink:href="#DejaVuSans-35" x="63.623047"/>
       <use xlink:href="#DejaVuSans-30" x="127.246094"/>
      </g>
     </g>
    </g>
    <g id="xtick_5">
     <g id="line2d_9">
      <path d="M 416.945455 378 
L 416.945455 51.84 
" clip-path="url(#p47af757402)" style="fill: none; stroke: #b0b0b0; stroke-opacity: 0.5; stroke-width: 0.8; stroke-linecap: square"/>
     </g>
     <g id="line2d_10">
      <g>
       <use xlink:href="#md81e7fbec1" x="416.945455" y="378" style="stroke: #000000; stroke-width: 0.8"/>
      </g>
     </g>
     <g id="text_5">
      <!-- 200 -->
      <g transform="translate(407.401705 392.598437)scale(0.1 -0.1)">
       <defs>
        <path id="DejaVuSans-32" d="M 1228 531 
L 3431 531 
L 3431 0 
L 469 0 
L 469 531 
Q 828 903 1448 1529 
Q 2069 2156 2228 2338 
Q 2531 2678 2651 2914 
Q 2772 3150 2772 3378 
Q 2772 3750 2511 3984 
Q 2250 4219 1831 4219 
Q 1534 4219 1204 4116 
Q 875 4013 500 3803 
L 500 4441 
Q 881 4594 1212 4672 
Q 1544 4750 1819 4750 
Q 2544 4750 2975 4387 
Q 3406 4025 3406 3419 
Q 3406 3131 3298 2873 
Q 3191 2616 2906 2266 
Q 2828 2175 2409 1742 
Q 1991 1309 1228 531 
z
" transform="scale(0.015625)"/>
       </defs>
       <use xlink:href="#DejaVuSans-32"/>
       <use xlink:href="#DejaVuSans-30" x="63.623047"/>
       <use xlink:href="#DejaVuSans-30" x="127.246094"/>
      </g>
     </g>
    </g>
    <g id="xtick_6">
     <g id="line2d_11">
      <path d="M 498.109091 378 
L 498.109091 51.84 
" clip-path="url(#p47af757402)" style="fill: none; stroke: #b0b0b0; stroke-opacity: 0.5; stroke-width: 0.8; stroke-linecap: square"/>
     </g>
     <g id="line2d_12">
      <g>
       <use xlink:href="#md81e7fbec1" x="498.109091" y="378" style="stroke: #000000; stroke-width: 0.8"/>
      </g>
     </g>
     <g id="text_6">
      <!-- 250 -->
      <g transform="translate(488.565341 392.598437)scale(0.1 -0.1)">
       <use xlink:href="#DejaVuSans-32"/>
       <use xlink:href="#DejaVuSans-35" x="63.623047"/>
       <use xlink:href="#DejaVuSans-30" x="127.246094"/>
      </g>
     </g>
    </g>
    <g id="text_7">
     <!-- Communication rounds -->
     <g transform="translate(237.083594 406.276563)scale(0.1 -0.1)">
      <defs>
       <path id="DejaVuSans-43" d="M 4122 4306 
L 4122 3641 
Q 3803 3938 3442 4084 
Q 3081 4231 2675 4231 
Q 1875 4231 1450 3742 
Q 1025 3253 1025 2328 
Q 1025 1406 1450 917 
Q 1875 428 2675 428 
Q 3081 428 3442 575 
Q 3803 722 4122 1019 
L 4122 359 
Q 3791 134 3420 21 
Q 3050 -91 2638 -91 
Q 1578 -91 968 557 
Q 359 1206 359 2328 
Q 359 3453 968 4101 
Q 1578 4750 2638 4750 
Q 3056 4750 3426 4639 
Q 3797 4528 4122 4306 
z
" transform="scale(0.015625)"/>
       <path id="DejaVuSans-6f" d="M 1959 3097 
Q 1497 3097 1228 2736 
Q 959 2375 959 1747 
Q 959 1119 1226 758 
Q 1494 397 1959 397 
Q 2419 397 2687 759 
Q 2956 1122 2956 1747 
Q 2956 2369 2687 2733 
Q 2419 3097 1959 3097 
z
M 1959 3584 
Q 2709 3584 3137 3096 
Q 3566 2609 3566 1747 
Q 3566 888 3137 398 
Q 2709 -91 1959 -91 
Q 1206 -91 779 398 
Q 353 888 353 1747 
Q 353 2609 779 3096 
Q 1206 3584 1959 3584 
z
" transform="scale(0.015625)"/>
       <path id="DejaVuSans-6d" d="M 3328 2828 
Q 3544 3216 3844 3400 
Q 4144 3584 4550 3584 
Q 5097 3584 5394 3201 
Q 5691 2819 5691 2113 
L 5691 0 
L 5113 0 
L 5113 2094 
Q 5113 2597 4934 2840 
Q 4756 3084 4391 3084 
Q 3944 3084 3684 2787 
Q 3425 2491 3425 1978 
L 3425 0 
L 2847 0 
L 2847 2094 
Q 2847 2600 2669 2842 
Q 2491 3084 2119 3084 
Q 1678 3084 1418 2786 
Q 1159 2488 1159 1978 
L 1159 0 
L 581 0 
L 581 3500 
L 1159 3500 
L 1159 2956 
Q 1356 3278 1631 3431 
Q 1906 3584 2284 3584 
Q 2666 3584 2933 3390 
Q 3200 3197 3328 2828 
z
" transform="scale(0.015625)"/>
       <path id="DejaVuSans-75" d="M 544 1381 
L 544 3500 
L 1119 3500 
L 1119 1403 
Q 1119 906 1312 657 
Q 1506 409 1894 409 
Q 2359 409 2629 706 
Q 2900 1003 2900 1516 
L 2900 3500 
L 3475 3500 
L 3475 0 
L 2900 0 
L 2900 538 
Q 2691 219 2414 64 
Q 2138 -91 1772 -91 
Q 1169 -91 856 284 
Q 544 659 544 1381 
z
M 1991 3584 
L 1991 3584 
z
" transform="scale(0.015625)"/>
       <path id="DejaVuSans-6e" d="M 3513 2113 
L 3513 0 
L 2938 0 
L 2938 2094 
Q 2938 2591 2744 2837 
Q 2550 3084 2163 3084 
Q 1697 3084 1428 2787 
Q 1159 2491 1159 1978 
L 1159 0 
L 581 0 
L 581 3500 
L 1159 3500 
L 1159 2956 
Q 1366 3272 1645 3428 
Q 1925 3584 2291 3584 
Q 2894 3584 3203 3211 
Q 3513 2838 3513 2113 
z
" transform="scale(0.015625)"/>
       <path id="DejaVuSans-69" d="M 603 3500 
L 1178 3500 
L 1178 0 
L 603 0 
L 603 3500 
z
M 603 4863 
L 1178 4863 
L 1178 4134 
L 603 4134 
L 603 4863 
z
" transform="scale(0.015625)"/>
       <path id="DejaVuSans-63" d="M 3122 3366 
L 3122 2828 
Q 2878 2963 2633 3030 
Q 2388 3097 2138 3097 
Q 1578 3097 1268 2742 
Q 959 2388 959 1747 
Q 959 1106 1268 751 
Q 1578 397 2138 397 
Q 2388 397 2633 464 
Q 2878 531 3122 666 
L 3122 134 
Q 2881 22 2623 -34 
Q 2366 -91 2075 -91 
Q 1284 -91 818 406 
Q 353 903 353 1747 
Q 353 2603 823 3093 
Q 1294 3584 2113 3584 
Q 2378 3584 2631 3529 
Q 2884 3475 3122 3366 
z
" transform="scale(0.015625)"/>
       <path id="DejaVuSans-61" d="M 2194 1759 
Q 1497 1759 1228 1600 
Q 959 1441 959 1056 
Q 959 750 1161 570 
Q 1363 391 1709 391 
Q 2188 391 2477 730 
Q 2766 1069 2766 1631 
L 2766 1759 
L 2194 1759 
z
M 3341 1997 
L 3341 0 
L 2766 0 
L 2766 531 
Q 2569 213 2275 61 
Q 1981 -91 1556 -91 
Q 1019 -91 701 211 
Q 384 513 384 1019 
Q 384 1609 779 1909 
Q 1175 2209 1959 2209 
L 2766 2209 
L 2766 2266 
Q 2766 2663 2505 2880 
Q 2244 3097 1772 3097 
Q 1472 3097 1187 3025 
Q 903 2953 641 2809 
L 641 3341 
Q 956 3463 1253 3523 
Q 1550 3584 1831 3584 
Q 2591 3584 2966 3190 
Q 3341 2797 3341 1997 
z
" transform="scale(0.015625)"/>
       <path id="DejaVuSans-74" d="M 1172 4494 
L 1172 3500 
L 2356 3500 
L 2356 3053 
L 1172 3053 
L 1172 1153 
Q 1172 725 1289 603 
Q 1406 481 1766 481 
L 2356 481 
L 2356 0 
L 1766 0 
Q 1100 0 847 248 
Q 594 497 594 1153 
L 594 3053 
L 172 3053 
L 172 3500 
L 594 3500 
L 594 4494 
L 1172 4494 
z
" transform="scale(0.015625)"/>
       <path id="DejaVuSans-20" transform="scale(0.015625)"/>
       <path id="DejaVuSans-72" d="M 2631 2963 
Q 2534 3019 2420 3045 
Q 2306 3072 2169 3072 
Q 1681 3072 1420 2755 
Q 1159 2438 1159 1844 
L 1159 0 
L 581 0 
L 581 3500 
L 1159 3500 
L 1159 2956 
Q 1341 3275 1631 3429 
Q 1922 3584 2338 3584 
Q 2397 3584 2469 3576 
Q 2541 3569 2628 3553 
L 2631 2963 
z
" transform="scale(0.015625)"/>
       <path id="DejaVuSans-64" d="M 2906 2969 
L 2906 4863 
L 3481 4863 
L 3481 0 
L 2906 0 
L 2906 525 
Q 2725 213 2448 61 
Q 2172 -91 1784 -91 
Q 1150 -91 751 415 
Q 353 922 353 1747 
Q 353 2572 751 3078 
Q 1150 3584 1784 3584 
Q 2172 3584 2448 3432 
Q 2725 3281 2906 2969 
z
M 947 1747 
Q 947 1113 1208 752 
Q 1469 391 1925 391 
Q 2381 391 2643 752 
Q 2906 1113 2906 1747 
Q 2906 2381 2643 2742 
Q 2381 3103 1925 3103 
Q 1469 3103 1208 2742 
Q 947 2381 947 1747 
z
" transform="scale(0.015625)"/>
       <path id="DejaVuSans-73" d="M 2834 3397 
L 2834 2853 
Q 2591 2978 2328 3040 
Q 2066 3103 1784 3103 
Q 1356 3103 1142 2972 
Q 928 2841 928 2578 
Q 928 2378 1081 2264 
Q 1234 2150 1697 2047 
L 1894 2003 
Q 2506 1872 2764 1633 
Q 3022 1394 3022 966 
Q 3022 478 2636 193 
Q 2250 -91 1575 -91 
Q 1294 -91 989 -36 
Q 684 19 347 128 
L 347 722 
Q 666 556 975 473 
Q 1284 391 1588 391 
Q 1994 391 2212 530 
Q 2431 669 2431 922 
Q 2431 1156 2273 1281 
Q 2116 1406 1581 1522 
L 1381 1569 
Q 847 1681 609 1914 
Q 372 2147 372 2553 
Q 372 3047 722 3315 
Q 1072 3584 1716 3584 
Q 2034 3584 2315 3537 
Q 2597 3491 2834 3397 
z
" transform="scale(0.015625)"/>
      </defs>
      <use xlink:href="#DejaVuSans-43"/>
      <use xlink:href="#DejaVuSans-6f" x="69.824219"/>
      <use xlink:href="#DejaVuSans-6d" x="131.005859"/>
      <use xlink:href="#DejaVuSans-6d" x="228.417969"/>
      <use xlink:href="#DejaVuSans-75" x="325.830078"/>
      <use xlink:href="#DejaVuSans-6e" x="389.208984"/>
      <use xlink:href="#DejaVuSans-69" x="452.587891"/>
      <use xlink:href="#DejaVuSans-63" x="480.371094"/>
      <use xlink:href="#DejaVuSans-61" x="535.351562"/>
      <use xlink:href="#DejaVuSans-74" x="596.630859"/>
      <use xlink:href="#DejaVuSans-69" x="635.839844"/>
      <use xlink:href="#DejaVuSans-6f" x="663.623047"/>
      <use xlink:href="#DejaVuSans-6e" x="724.804688"/>
      <use xlink:href="#DejaVuSans-20" x="788.183594"/>
      <use xlink:href="#DejaVuSans-72" x="819.970703"/>
      <use xlink:href="#DejaVuSans-6f" x="858.833984"/>
      <use xlink:href="#DejaVuSans-75" x="920.015625"/>
      <use xlink:href="#DejaVuSans-6e" x="983.394531"/>
      <use xlink:href="#DejaVuSans-64" x="1046.773438"/>
      <use xlink:href="#DejaVuSans-73" x="1110.25"/>
     </g>
    </g>
   </g>
   <g id="matplotlib.axis_2">
    <g id="ytick_1">
     <g id="line2d_13">
      <path d="M 72 351.297512 
L 518.4 351.297512 
" clip-path="url(#p47af757402)" style="fill: none; stroke: #b0b0b0; stroke-opacity: 0.5; stroke-width: 0.8; stroke-linecap: square"/>
     </g>
     <g id="line2d_14">
      <defs>
       <path id="mbaac8d467e" d="M 0 0 
L -3.5 0 
" style="stroke: #000000; stroke-width: 0.8"/>
      </defs>
      <g>
       <use xlink:href="#mbaac8d467e" x="72" y="351.297512" style="stroke: #000000; stroke-width: 0.8"/>
      </g>
     </g>
     <g id="text_8">
      <!-- 0.3 -->
      <g transform="translate(49.096875 355.096731)scale(0.1 -0.1)">
       <defs>
        <path id="DejaVuSans-2e" d="M 684 794 
L 1344 794 
L 1344 0 
L 684 0 
L 684 794 
z
" transform="scale(0.015625)"/>
        <path id="DejaVuSans-33" d="M 2597 2516 
Q 3050 2419 3304 2112 
Q 3559 1806 3559 1356 
Q 3559 666 3084 287 
Q 2609 -91 1734 -91 
Q 1441 -91 1130 -33 
Q 819 25 488 141 
L 488 750 
Q 750 597 1062 519 
Q 1375 441 1716 441 
Q 2309 441 2620 675 
Q 2931 909 2931 1356 
Q 2931 1769 2642 2001 
Q 2353 2234 1838 2234 
L 1294 2234 
L 1294 2753 
L 1863 2753 
Q 2328 2753 2575 2939 
Q 2822 3125 2822 3475 
Q 2822 3834 2567 4026 
Q 2313 4219 1838 4219 
Q 1578 4219 1281 4162 
Q 984 4106 628 3988 
L 628 4550 
Q 988 4650 1302 4700 
Q 1616 4750 1894 4750 
Q 2613 4750 3031 4423 
Q 3450 4097 3450 3541 
Q 3450 3153 3228 2886 
Q 3006 2619 2597 2516 
z
" transform="scale(0.015625)"/>
       </defs>
       <use xlink:href="#DejaVuSans-30"/>
       <use xlink:href="#DejaVuSans-2e" x="63.623047"/>
       <use xlink:href="#DejaVuSans-33" x="95.410156"/>
      </g>
     </g>
    </g>
    <g id="ytick_2">
     <g id="line2d_15">
      <path d="M 72 299.205262 
L 518.4 299.205262 
" clip-path="url(#p47af757402)" style="fill: none; stroke: #b0b0b0; stroke-opacity: 0.5; stroke-width: 0.8; stroke-linecap: square"/>
     </g>
     <g id="line2d_16">
      <g>
       <use xlink:href="#mbaac8d467e" x="72" y="299.205262" style="stroke: #000000; stroke-width: 0.8"/>
      </g>
     </g>
     <g id="text_9">
      <!-- 0.4 -->
      <g transform="translate(49.096875 303.00448)scale(0.1 -0.1)">
       <defs>
        <path id="DejaVuSans-34" d="M 2419 4116 
L 825 1625 
L 2419 1625 
L 2419 4116 
z
M 2253 4666 
L 3047 4666 
L 3047 1625 
L 3713 1625 
L 3713 1100 
L 3047 1100 
L 3047 0 
L 2419 0 
L 2419 1100 
L 313 1100 
L 313 1709 
L 2253 4666 
z
" transform="scale(0.015625)"/>
       </defs>
       <use xlink:href="#DejaVuSans-30"/>
       <use xlink:href="#DejaVuSans-2e" x="63.623047"/>
       <use xlink:href="#DejaVuSans-34" x="95.410156"/>
      </g>
     </g>
    </g>
    <g id="ytick_3">
     <g id="line2d_17">
      <path d="M 72 247.113011 
L 518.4 247.113011 
" clip-path="url(#p47af757402)" style="fill: none; stroke: #b0b0b0; stroke-opacity: 0.5; stroke-width: 0.8; stroke-linecap: square"/>
     </g>
     <g id="line2d_18">
      <g>
       <use xlink:href="#mbaac8d467e" x="72" y="247.113011" style="stroke: #000000; stroke-width: 0.8"/>
      </g>
     </g>
     <g id="text_10">
      <!-- 0.5 -->
      <g transform="translate(49.096875 250.91223)scale(0.1 -0.1)">
       <use xlink:href="#DejaVuSans-30"/>
       <use xlink:href="#DejaVuSans-2e" x="63.623047"/>
       <use xlink:href="#DejaVuSans-35" x="95.410156"/>
      </g>
     </g>
    </g>
    <g id="ytick_4">
     <g id="line2d_19">
      <path d="M 72 195.02076 
L 518.4 195.02076 
" clip-path="url(#p47af757402)" style="fill: none; stroke: #b0b0b0; stroke-opacity: 0.5; stroke-width: 0.8; stroke-linecap: square"/>
     </g>
     <g id="line2d_20">
      <g>
       <use xlink:href="#mbaac8d467e" x="72" y="195.02076" style="stroke: #000000; stroke-width: 0.8"/>
      </g>
     </g>
     <g id="text_11">
      <!-- 0.6 -->
      <g transform="translate(49.096875 198.819979)scale(0.1 -0.1)">
       <defs>
        <path id="DejaVuSans-36" d="M 2113 2584 
Q 1688 2584 1439 2293 
Q 1191 2003 1191 1497 
Q 1191 994 1439 701 
Q 1688 409 2113 409 
Q 2538 409 2786 701 
Q 3034 994 3034 1497 
Q 3034 2003 2786 2293 
Q 2538 2584 2113 2584 
z
M 3366 4563 
L 3366 3988 
Q 3128 4100 2886 4159 
Q 2644 4219 2406 4219 
Q 1781 4219 1451 3797 
Q 1122 3375 1075 2522 
Q 1259 2794 1537 2939 
Q 1816 3084 2150 3084 
Q 2853 3084 3261 2657 
Q 3669 2231 3669 1497 
Q 3669 778 3244 343 
Q 2819 -91 2113 -91 
Q 1303 -91 875 529 
Q 447 1150 447 2328 
Q 447 3434 972 4092 
Q 1497 4750 2381 4750 
Q 2619 4750 2861 4703 
Q 3103 4656 3366 4563 
z
" transform="scale(0.015625)"/>
       </defs>
       <use xlink:href="#DejaVuSans-30"/>
       <use xlink:href="#DejaVuSans-2e" x="63.623047"/>
       <use xlink:href="#DejaVuSans-36" x="95.410156"/>
      </g>
     </g>
    </g>
    <g id="ytick_5">
     <g id="line2d_21">
      <path d="M 72 142.92851 
L 518.4 142.92851 
" clip-path="url(#p47af757402)" style="fill: none; stroke: #b0b0b0; stroke-opacity: 0.5; stroke-width: 0.8; stroke-linecap: square"/>
     </g>
     <g id="line2d_22">
      <g>
       <use xlink:href="#mbaac8d467e" x="72" y="142.92851" style="stroke: #000000; stroke-width: 0.8"/>
      </g>
     </g>
     <g id="text_12">
      <!-- 0.7 -->
      <g transform="translate(49.096875 146.727728)scale(0.1 -0.1)">
       <defs>
        <path id="DejaVuSans-37" d="M 525 4666 
L 3525 4666 
L 3525 4397 
L 1831 0 
L 1172 0 
L 2766 4134 
L 525 4134 
L 525 4666 
z
" transform="scale(0.015625)"/>
       </defs>
       <use xlink:href="#DejaVuSans-30"/>
       <use xlink:href="#DejaVuSans-2e" x="63.623047"/>
       <use xlink:href="#DejaVuSans-37" x="95.410156"/>
      </g>
     </g>
    </g>
    <g id="ytick_6">
     <g id="line2d_23">
      <path d="M 72 90.836259 
L 518.4 90.836259 
" clip-path="url(#p47af757402)" style="fill: none; stroke: #b0b0b0; stroke-opacity: 0.5; stroke-width: 0.8; stroke-linecap: square"/>
     </g>
     <g id="line2d_24">
      <g>
       <use xlink:href="#mbaac8d467e" x="72" y="90.836259" style="stroke: #000000; stroke-width: 0.8"/>
      </g>
     </g>
     <g id="text_13">
      <!-- 0.8 -->
      <g transform="translate(49.096875 94.635478)scale(0.1 -0.1)">
       <defs>
        <path id="DejaVuSans-38" d="M 2034 2216 
Q 1584 2216 1326 1975 
Q 1069 1734 1069 1313 
Q 1069 891 1326 650 
Q 1584 409 2034 409 
Q 2484 409 2743 651 
Q 3003 894 3003 1313 
Q 3003 1734 2745 1975 
Q 2488 2216 2034 2216 
z
M 1403 2484 
Q 997 2584 770 2862 
Q 544 3141 544 3541 
Q 544 4100 942 4425 
Q 1341 4750 2034 4750 
Q 2731 4750 3128 4425 
Q 3525 4100 3525 3541 
Q 3525 3141 3298 2862 
Q 3072 2584 2669 2484 
Q 3125 2378 3379 2068 
Q 3634 1759 3634 1313 
Q 3634 634 3220 271 
Q 2806 -91 2034 -91 
Q 1263 -91 848 271 
Q 434 634 434 1313 
Q 434 1759 690 2068 
Q 947 2378 1403 2484 
z
M 1172 3481 
Q 1172 3119 1398 2916 
Q 1625 2713 2034 2713 
Q 2441 2713 2670 2916 
Q 2900 3119 2900 3481 
Q 2900 3844 2670 4047 
Q 2441 4250 2034 4250 
Q 1625 4250 1398 4047 
Q 1172 3844 1172 3481 
z
" transform="scale(0.015625)"/>
       </defs>
       <use xlink:href="#DejaVuSans-30"/>
       <use xlink:href="#DejaVuSans-2e" x="63.623047"/>
       <use xlink:href="#DejaVuSans-38" x="95.410156"/>
      </g>
     </g>
    </g>
    <g id="text_14">
     <!-- Accuracy -->
     <g transform="translate(43.017187 237.748125)rotate(-90)scale(0.1 -0.1)">
      <defs>
       <path id="DejaVuSans-41" d="M 2188 4044 
L 1331 1722 
L 3047 1722 
L 2188 4044 
z
M 1831 4666 
L 2547 4666 
L 4325 0 
L 3669 0 
L 3244 1197 
L 1141 1197 
L 716 0 
L 50 0 
L 1831 4666 
z
" transform="scale(0.015625)"/>
       <path id="DejaVuSans-79" d="M 2059 -325 
Q 1816 -950 1584 -1140 
Q 1353 -1331 966 -1331 
L 506 -1331 
L 506 -850 
L 844 -850 
Q 1081 -850 1212 -737 
Q 1344 -625 1503 -206 
L 1606 56 
L 191 3500 
L 800 3500 
L 1894 763 
L 2988 3500 
L 3597 3500 
L 2059 -325 
z
" transform="scale(0.015625)"/>
      </defs>
      <use xlink:href="#DejaVuSans-41"/>
      <use xlink:href="#DejaVuSans-63" x="66.658203"/>
      <use xlink:href="#DejaVuSans-63" x="121.638672"/>
      <use xlink:href="#DejaVuSans-75" x="176.619141"/>
      <use xlink:href="#DejaVuSans-72" x="239.998047"/>
      <use xlink:href="#DejaVuSans-61" x="281.111328"/>
      <use xlink:href="#DejaVuSans-63" x="342.390625"/>
      <use xlink:href="#DejaVuSans-79" x="397.371094"/>
     </g>
    </g>
   </g>
   <g id="line2d_25">
    <path d="M 92.290909 330.043874 
L 93.914182 335.04473 
L 95.537455 298.996893 
L 97.160727 279.618575 
L 98.784 282.952479 
L 100.407273 256.281247 
L 102.030545 239.611727 
L 103.653818 245.23769 
L 105.277091 229.818384 
L 106.900364 241.07031 
L 108.523636 226.276111 
L 110.146909 205.43921 
L 111.770182 225.442635 
L 113.393455 197.10445 
L 115.016727 196.270974 
L 116.64 200.438354 
L 118.263273 184.810679 
L 119.886545 207.731269 
L 121.509818 181.685144 
L 123.133091 209.814959 
L 124.756364 196.062605 
L 126.379636 207.5229 
L 128.002909 175.850812 
L 129.626182 183.977203 
L 131.249455 190.228273 
L 132.872727 172.516908 
L 134.496 168.766266 
L 136.119273 174.392229 
L 137.742545 161.264982 
L 139.365818 157.305971 
L 140.989091 179.809823 
L 142.612364 153.138591 
L 144.235636 154.180436 
L 145.858909 166.890945 
L 147.482182 148.137735 
L 149.105455 140.84482 
L 150.728727 144.387093 
L 152.352 150.429794 
L 153.975273 138.55276 
L 155.598545 156.264126 
L 157.221818 144.595462 
L 158.845091 143.136879 
L 160.468364 151.054901 
L 162.091636 145.637307 
L 163.714909 147.304259 
L 165.338182 140.84482 
L 166.961455 148.554473 
L 168.584727 142.511772 
L 170.208 138.136022 
L 171.831273 132.926797 
L 173.454545 134.593749 
L 175.077818 138.136022 
L 176.701091 131.468214 
L 178.324364 134.593749 
L 179.947636 136.052332 
L 181.570909 131.259845 
L 183.194182 139.594606 
L 184.817455 138.761129 
L 186.440727 138.136022 
L 188.064 135.843963 
L 189.687273 141.261558 
L 191.310545 134.802118 
L 192.933818 129.384524 
L 194.557091 130.009631 
L 196.180364 135.635594 
L 197.803636 125.425513 
L 199.426909 130.218 
L 201.050182 127.092465 
L 202.673455 132.718428 
L 204.296727 131.051476 
L 205.92 135.218856 
L 207.543273 129.801262 
L 209.166545 128.759417 
L 210.789818 130.426369 
L 212.413091 131.468214 
L 214.036364 126.675727 
L 215.659636 123.758561 
L 217.282909 127.717572 
L 218.906182 125.842251 
L 220.529455 127.092465 
L 222.152727 124.800406 
L 223.776 130.009631 
L 225.399273 125.008775 
L 227.022545 123.133454 
L 228.645818 133.968642 
L 230.269091 128.551048 
L 231.892364 122.716716 
L 233.515636 122.925085 
L 235.138909 120.424657 
L 236.762182 122.299978 
L 238.385455 119.174443 
L 240.008727 134.38538 
L 243.255273 115.215432 
L 244.878545 126.05062 
L 246.501818 120.216288 
L 248.125091 123.96693 
L 249.748364 125.217144 
L 251.371636 116.465646 
L 252.994909 125.842251 
L 254.618182 121.88324 
L 256.241455 120.841395 
L 257.864727 117.507491 
L 259.488 113.54848 
L 261.111273 124.175299 
L 262.734545 109.172731 
L 264.357818 121.674871 
L 265.981091 121.258133 
L 267.604364 115.007063 
L 269.227636 118.340967 
L 270.850909 125.217144 
L 272.474182 115.007063 
L 274.097455 116.257277 
L 275.720727 115.215432 
L 277.344 119.79955 
L 278.967273 112.506635 
L 280.590545 113.965218 
L 282.213818 121.258133 
L 283.837091 118.549336 
L 285.460364 121.466502 
L 287.083636 121.258133 
L 288.706909 124.383668 
L 290.330182 117.71586 
L 291.953455 121.466502 
L 293.576727 111.881528 
L 295.2 122.925085 
L 296.823273 113.340111 
L 298.446545 122.299978 
L 301.693091 121.88324 
L 303.316364 123.341823 
L 304.939636 115.840539 
L 306.562909 123.133454 
L 308.186182 120.424657 
L 309.809455 114.173587 
L 311.432727 122.299978 
L 313.056 110.214576 
L 314.679273 121.88324 
L 316.302545 106.672303 
L 317.925818 108.339255 
L 319.549091 114.590325 
L 321.172364 111.881528 
L 322.795636 117.090753 
L 324.418909 117.924229 
L 326.042182 116.882384 
L 327.665455 119.591181 
L 329.288727 120.007919 
L 330.912 116.674015 
L 332.535273 116.882384 
L 334.158545 121.049764 
L 335.781818 115.215432 
L 337.405091 113.756849 
L 339.028364 120.841395 
L 340.651636 116.465646 
L 342.274909 113.131742 
L 343.898182 121.466502 
L 345.521455 110.214576 
L 347.144727 110.631314 
L 348.768 108.755993 
L 350.391273 108.964362 
L 352.014545 109.589469 
L 353.637818 117.507491 
L 355.261091 110.839683 
L 356.884364 105.422089 
L 358.507636 119.79955 
L 360.130909 105.21372 
L 361.754182 113.756849 
L 363.377455 117.924229 
L 365.000727 110.631314 
L 366.624 116.465646 
L 368.247273 106.047196 
L 369.870545 110.214576 
L 371.493818 118.132598 
L 373.117091 113.54848 
L 374.740364 108.130886 
L 376.363636 110.839683 
L 377.986909 118.966074 
L 379.610182 110.006207 
L 381.233455 112.506635 
L 382.856727 115.840539 
L 384.48 111.881528 
L 386.103273 108.339255 
L 387.726545 108.130886 
L 389.349818 112.506635 
L 390.973091 106.672303 
L 392.596364 112.506635 
L 394.219636 112.923373 
L 395.842909 115.840539 
L 397.466182 106.672303 
L 399.089455 108.755993 
L 400.712727 116.882384 
L 402.336 117.71586 
L 403.959273 123.550192 
L 405.582545 111.048052 
L 407.205818 119.174443 
L 408.829091 114.381956 
L 410.452364 119.174443 
L 412.075636 117.090753 
L 413.698909 108.964362 
L 415.322182 108.547624 
L 416.945455 112.923373 
L 418.568727 111.46479 
L 420.192 118.340967 
L 421.815273 107.089041 
L 423.438545 113.340111 
L 425.061818 112.089897 
L 426.685091 113.756849 
L 428.308364 107.089041 
L 429.931636 106.255565 
L 431.554909 130.426369 
L 433.178182 103.755137 
L 434.801455 113.340111 
L 436.424727 116.257277 
L 438.048 121.258133 
L 441.294545 102.296554 
L 442.917818 112.298266 
L 444.541091 116.048908 
L 446.164364 106.880672 
L 447.787636 109.797838 
L 449.410909 120.424657 
L 451.034182 105.630458 
L 452.657455 118.340967 
L 454.280727 116.257277 
L 455.904 107.714148 
L 457.527273 104.796982 
L 459.150545 116.257277 
L 460.773818 106.880672 
L 462.397091 113.54848 
L 464.020364 102.504923 
L 465.643636 107.505779 
L 467.266909 108.964362 
L 468.890182 114.590325 
L 470.513455 110.839683 
L 472.136727 115.007063 
L 473.76 119.79955 
L 475.383273 107.922517 
L 477.006545 121.049764 
L 478.629818 107.505779 
L 480.253091 108.339255 
L 481.876364 120.841395 
L 483.499636 112.715004 
L 485.122909 107.505779 
L 486.746182 111.256421 
L 488.369455 106.672303 
L 489.992727 102.504923 
L 491.616 107.714148 
L 493.239273 114.798694 
L 494.862545 105.21372 
L 496.485818 104.171875 
L 498.109091 101.254709 
L 498.109091 101.254709 
" clip-path="url(#p47af757402)" style="fill: none; stroke: #1f77b4; stroke-width: 1.5; stroke-linecap: square"/>
   </g>
   <g id="line2d_26">
    <path d="M 92.290909 350.047298 
L 93.914182 346.921763 
L 95.537455 321.917483 
L 97.160727 307.95676 
L 98.784 297.121572 
L 100.407273 260.031889 
L 102.030545 255.239402 
L 103.653818 236.069454 
L 105.277091 228.776539 
L 106.900364 232.110443 
L 108.523636 210.023328 
L 110.146909 222.3171 
L 111.770182 206.481055 
L 113.393455 176.475919 
L 115.016727 171.475063 
L 116.64 161.68172 
L 118.263273 173.558753 
L 119.886545 182.51862 
L 121.509818 165.223993 
L 123.133091 150.221425 
L 124.756364 151.26327 
L 126.379636 141.469927 
L 128.002909 130.426369 
L 129.626182 146.887521 
L 131.249455 142.511772 
L 132.872727 136.260701 
L 134.496 130.843107 
L 136.119273 127.509203 
L 137.742545 123.758561 
L 140.989091 128.342679 
L 142.612364 120.424657 
L 144.235636 118.549336 
L 145.858909 125.425513 
L 147.482182 121.88324 
L 149.105455 116.674015 
L 150.728727 117.507491 
L 152.352 112.506635 
L 153.975273 117.299122 
L 155.598545 119.591181 
L 157.221818 104.588613 
L 158.845091 112.506635 
L 160.468364 115.63217 
L 162.091636 113.756849 
L 163.714909 114.590325 
L 165.338182 102.088185 
L 168.584727 116.048908 
L 170.208 102.296554 
L 171.831273 101.04634 
L 173.454545 112.089897 
L 175.077818 100.837971 
L 176.701091 105.838827 
L 178.324364 94.378532 
L 179.947636 106.880672 
L 181.570909 102.504923 
L 183.194182 91.669735 
L 184.817455 104.588613 
L 186.440727 97.504067 
L 188.064 102.504923 
L 189.687273 106.672303 
L 191.310545 102.296554 
L 192.933818 95.003639 
L 194.557091 97.087329 
L 196.180364 107.714148 
L 197.803636 88.752569 
L 199.426909 97.295698 
L 201.050182 98.545912 
L 202.673455 93.961794 
L 204.296727 92.919949 
L 205.92 94.79527 
L 207.543273 94.170163 
L 209.166545 92.503211 
L 210.789818 87.919093 
L 212.413091 97.920805 
L 214.036364 91.878104 
L 215.659636 98.545912 
L 217.282909 89.794414 
L 218.906182 88.335831 
L 220.529455 91.878104 
L 222.152727 85.418665 
L 225.399273 104.380244 
L 227.022545 91.252997 
L 228.645818 91.461366 
L 230.269091 88.5442 
L 231.892364 96.87896 
L 233.515636 91.878104 
L 235.138909 101.879816 
L 236.762182 95.628746 
L 238.385455 82.709868 
L 240.008727 84.168451 
L 241.632 87.502355 
L 243.255273 85.210296 
L 244.878545 89.169307 
L 246.501818 86.46051 
L 249.748364 85.627034 
L 251.371636 98.337543 
L 252.994909 90.002783 
L 254.618182 88.5442 
L 256.241455 87.502355 
L 257.864727 82.29313 
L 259.488 86.043772 
L 261.111273 89.169307 
L 262.734545 92.71158 
L 264.357818 79.584333 
L 265.981091 82.918237 
L 267.604364 92.503211 
L 269.227636 85.210296 
L 270.850909 86.668879 
L 272.474182 87.502355 
L 274.097455 85.210296 
L 275.720727 92.503211 
L 277.344 88.335831 
L 278.967273 83.334975 
L 280.590545 92.71158 
L 282.213818 80.417809 
L 283.837091 89.586045 
L 285.460364 93.961794 
L 287.083636 79.167595 
L 288.706909 94.586901 
L 290.330182 87.085617 
L 291.953455 83.960082 
L 293.576727 84.585189 
L 295.2 81.668023 
L 296.823273 86.252141 
L 298.446545 84.793558 
L 300.069818 85.835403 
L 301.693091 87.502355 
L 303.316364 75.625322 
L 304.939636 81.459654 
L 306.562909 90.419521 
L 308.186182 82.918237 
L 309.809455 76.875536 
L 311.432727 85.210296 
L 313.056 85.627034 
L 314.679273 79.167595 
L 316.302545 83.960082 
L 317.925818 77.083905 
L 319.549091 80.626178 
L 321.172364 81.251285 
L 322.795636 78.542488 
L 324.418909 91.878104 
L 326.042182 80.417809 
L 327.665455 87.502355 
L 329.288727 90.002783 
L 330.912 79.167595 
L 332.535273 79.792702 
L 334.158545 87.293986 
L 335.781818 90.62789 
L 337.405091 83.543344 
L 339.028364 81.459654 
L 340.651636 83.126606 
L 342.274909 90.836259 
L 343.898182 83.543344 
L 345.521455 75.416953 
L 347.144727 87.085617 
L 348.768 74.791846 
L 350.391273 81.668023 
L 352.014545 83.751713 
L 353.637818 85.627034 
L 355.261091 81.668023 
L 356.884364 79.167595 
L 358.507636 86.877248 
L 360.130909 83.334975 
L 361.754182 77.500643 
L 363.377455 88.5442 
L 365.000727 88.127462 
L 366.624 81.042916 
L 368.247273 83.126606 
L 369.870545 83.334975 
L 371.493818 83.960082 
L 373.117091 88.335831 
L 374.740364 80.001071 
L 376.363636 79.584333 
L 377.986909 95.628746 
L 379.610182 81.459654 
L 381.233455 88.960938 
L 382.856727 98.337543 
L 384.48 73.333263 
L 386.103273 75.416953 
L 387.726545 80.626178 
L 389.349818 73.333263 
L 390.973091 91.044628 
L 392.596364 82.084761 
L 394.219636 79.584333 
L 395.842909 75.833691 
L 397.466182 80.20944 
L 399.089455 82.918237 
L 400.712727 81.459654 
L 402.336 72.291418 
L 403.959273 78.12575 
L 405.582545 85.418665 
L 407.205818 79.375964 
L 408.829091 80.001071 
L 410.452364 76.875536 
L 412.075636 77.292274 
L 413.698909 90.62789 
L 415.322182 84.793558 
L 416.945455 75.000215 
L 418.568727 101.04634 
L 420.192 76.667167 
L 421.815273 82.918237 
L 423.438545 76.250429 
L 425.061818 79.584333 
L 426.685091 81.459654 
L 428.308364 67.915669 
L 429.931636 86.043772 
L 431.554909 80.20944 
L 433.178182 77.083905 
L 434.801455 75.000215 
L 436.424727 78.334119 
L 438.048 80.001071 
L 439.671273 75.833691 
L 441.294545 85.210296 
L 442.917818 79.167595 
L 444.541091 85.001927 
L 446.164364 78.334119 
L 447.787636 78.542488 
L 449.410909 78.12575 
L 451.034182 78.12575 
L 452.657455 81.042916 
L 454.280727 73.333263 
L 455.904 77.500643 
L 457.527273 87.919093 
L 459.150545 66.665455 
L 460.773818 78.959226 
L 462.397091 86.46051 
L 464.020364 75.833691 
L 465.643636 70.832835 
L 467.266909 73.750001 
L 468.890182 77.083905 
L 470.513455 70.624466 
L 472.136727 76.458798 
L 473.76 81.876392 
L 475.383273 82.501499 
L 477.006545 89.377676 
L 478.629818 80.834547 
L 480.253091 80.001071 
L 481.876364 74.791846 
L 483.499636 74.583477 
L 485.122909 91.461366 
L 486.746182 74.166739 
L 488.369455 77.083905 
L 489.992727 75.000215 
L 491.616 71.666311 
L 493.239273 78.750857 
L 494.862545 78.542488 
L 496.485818 89.169307 
L 498.109091 71.87468 
L 498.109091 71.87468 
" clip-path="url(#p47af757402)" style="fill: none; stroke: #ff7f0e; stroke-width: 1.5; stroke-linecap: square"/>
   </g>
   <g id="line2d_27">
    <path d="M 92.290909 359.007165 
L 93.914182 350.880774 
L 95.537455 329.210398 
L 97.160727 304.414487 
L 98.784 284.8278 
L 100.407273 254.197557 
L 102.030545 272.950767 
L 103.653818 231.693705 
L 105.277091 239.403358 
L 106.900364 211.273542 
L 108.523636 198.146295 
L 110.146909 202.522044 
L 111.770182 189.186428 
L 113.393455 198.354664 
L 115.016727 177.726133 
L 116.64 214.607446 
L 118.263273 180.226561 
L 119.886545 174.392229 
L 121.509818 161.056613 
L 123.133091 157.931078 
L 124.756364 159.59803 
L 126.379636 147.304259 
L 128.002909 149.387949 
L 129.626182 164.390517 
L 131.249455 148.346104 
L 132.872727 151.471639 
L 134.496 174.600598 
L 136.119273 136.260701 
L 137.742545 141.053189 
L 139.365818 131.468214 
L 140.989091 137.094177 
L 142.612364 148.346104 
L 144.235636 143.136879 
L 145.858909 133.551904 
L 147.482182 130.426369 
L 149.105455 130.843107 
L 150.728727 129.592893 
L 152.352 120.007919 
L 153.975273 120.633026 
L 155.598545 110.631314 
L 157.221818 129.384524 
L 158.845091 123.96693 
L 160.468364 130.218 
L 162.091636 112.923373 
L 163.714909 121.258133 
L 165.338182 117.71586 
L 166.961455 114.590325 
L 168.584727 117.299122 
L 170.208 121.258133 
L 171.831273 113.131742 
L 173.454545 125.217144 
L 175.077818 106.463934 
L 176.701091 105.005351 
L 178.324364 111.46479 
L 179.947636 102.504923 
L 181.570909 99.379388 
L 183.194182 100.837971 
L 184.817455 100.629602 
L 186.440727 101.671447 
L 188.064 105.838827 
L 189.687273 105.838827 
L 191.310545 99.587757 
L 192.933818 106.672303 
L 194.557091 106.463934 
L 196.180364 109.3811 
L 197.803636 119.591181 
L 199.426909 103.338399 
L 201.050182 100.004495 
L 202.673455 107.089041 
L 204.296727 101.463078 
L 205.92 102.921661 
L 207.543273 97.087329 
L 209.166545 100.004495 
L 210.789818 106.047196 
L 212.413091 96.670591 
L 214.036364 94.586901 
L 215.659636 97.295698 
L 217.282909 102.713292 
L 218.906182 91.461366 
L 220.529455 100.629602 
L 222.152727 91.669735 
L 223.776 109.172731 
L 225.399273 91.044628 
L 227.022545 99.171019 
L 228.645818 98.129174 
L 230.269091 90.211152 
L 231.892364 95.212008 
L 233.515636 92.919949 
L 235.138909 98.337543 
L 236.762182 101.254709 
L 238.385455 88.335831 
L 240.008727 95.628746 
L 241.632 98.337543 
L 243.255273 96.045484 
L 244.878545 101.04634 
L 246.501818 90.836259 
L 248.125091 95.420377 
L 249.748364 96.253853 
L 251.371636 92.086473 
L 252.994909 99.171019 
L 254.618182 91.252997 
L 256.241455 91.878104 
L 257.864727 93.545056 
L 259.488 86.252141 
L 261.111273 91.252997 
L 262.734545 80.834547 
L 264.357818 93.753425 
L 267.604364 82.084761 
L 269.227636 91.878104 
L 270.850909 94.170163 
L 272.474182 89.586045 
L 274.097455 86.668879 
L 275.720727 103.755137 
L 277.344 93.961794 
L 278.967273 89.586045 
L 280.590545 87.502355 
L 282.213818 90.211152 
L 283.837091 86.46051 
L 285.460364 85.627034 
L 287.083636 86.043772 
L 288.706909 80.001071 
L 290.330182 92.503211 
L 291.953455 95.003639 
L 293.576727 85.001927 
L 295.2 83.543344 
L 296.823273 95.003639 
L 298.446545 92.294842 
L 300.069818 87.085617 
L 301.693091 85.418665 
L 303.316364 91.669735 
L 304.939636 90.211152 
L 306.562909 84.37682 
L 308.186182 93.128318 
L 309.809455 91.044628 
L 311.432727 90.62789 
L 313.056 84.37682 
L 314.679273 84.168451 
L 316.302545 85.418665 
L 317.925818 101.254709 
L 319.549091 88.335831 
L 321.172364 79.167595 
L 322.795636 104.380244 
L 324.418909 91.252997 
L 326.042182 92.086473 
L 327.665455 81.668023 
L 329.288727 86.668879 
L 330.912 75.416953 
L 332.535273 81.459654 
L 334.158545 88.960938 
L 335.781818 87.293986 
L 337.405091 77.292274 
L 339.028364 90.419521 
L 340.651636 86.46051 
L 342.274909 85.210296 
L 343.898182 81.459654 
L 345.521455 89.794414 
L 347.144727 86.668879 
L 348.768 85.627034 
L 350.391273 94.378532 
L 353.637818 80.001071 
L 355.261091 89.794414 
L 356.884364 91.669735 
L 358.507636 83.960082 
L 361.754182 77.917381 
L 363.377455 107.089041 
L 365.000727 87.502355 
L 366.624 81.042916 
L 368.247273 81.876392 
L 369.870545 92.503211 
L 371.493818 86.46051 
L 373.117091 82.29313 
L 374.740364 86.46051 
L 376.363636 84.585189 
L 377.986909 94.79527 
L 379.610182 91.252997 
L 381.233455 68.540776 
L 382.856727 91.461366 
L 384.48 88.5442 
L 386.103273 78.959226 
L 387.726545 78.12575 
L 389.349818 79.584333 
L 390.973091 89.377676 
L 392.596364 86.877248 
L 394.219636 83.751713 
L 395.842909 75.208584 
L 397.466182 87.710724 
L 399.089455 92.71158 
L 400.712727 82.709868 
L 402.336 85.835403 
L 403.959273 83.751713 
L 405.582545 80.001071 
L 407.205818 84.37682 
L 408.829091 87.502355 
L 410.452364 82.709868 
L 412.075636 78.750857 
L 413.698909 90.62789 
L 415.322182 81.876392 
L 416.945455 86.668879 
L 418.568727 74.375108 
L 420.192 83.126606 
L 421.815273 90.62789 
L 423.438545 79.792702 
L 425.061818 86.043772 
L 426.685091 85.418665 
L 428.308364 84.37682 
L 429.931636 86.877248 
L 431.554909 93.128318 
L 433.178182 82.501499 
L 434.801455 83.751713 
L 436.424727 93.128318 
L 438.048 82.709868 
L 439.671273 83.960082 
L 441.294545 87.919093 
L 442.917818 77.083905 
L 444.541091 73.124894 
L 446.164364 86.877248 
L 447.787636 78.542488 
L 449.410909 95.003639 
L 451.034182 80.834547 
L 452.657455 78.542488 
L 454.280727 94.79527 
L 455.904 90.836259 
L 457.527273 85.418665 
L 459.150545 81.042916 
L 460.773818 78.12575 
L 462.397091 81.251285 
L 464.020364 91.669735 
L 465.643636 75.208584 
L 467.266909 76.458798 
L 468.890182 85.418665 
L 470.513455 91.669735 
L 472.136727 81.042916 
L 473.76 84.585189 
L 475.383273 79.375964 
L 477.006545 86.46051 
L 478.629818 75.416953 
L 480.253091 83.126606 
L 481.876364 82.709868 
L 483.499636 77.709012 
L 485.122909 95.420377 
L 486.746182 88.752569 
L 488.369455 78.959226 
L 489.992727 91.669735 
L 491.616 85.210296 
L 493.239273 75.208584 
L 494.862545 84.168451 
L 496.485818 74.791846 
L 498.109091 75.000215 
L 498.109091 75.000215 
" clip-path="url(#p47af757402)" style="fill: none; stroke: #2ca02c; stroke-width: 1.5; stroke-linecap: square"/>
   </g>
   <g id="line2d_28">
    <path d="M 92.290909 358.173689 
L 93.914182 363.174545 
L 95.537455 335.669837 
L 97.160727 296.496465 
L 98.784 304.414487 
L 100.407273 280.452051 
L 102.030545 260.448627 
L 103.653818 279.826944 
L 105.277091 232.943919 
L 106.900364 230.443491 
L 108.523636 230.443491 
L 110.146909 214.815815 
L 111.770182 208.148007 
L 113.393455 206.272686 
L 115.016727 200.855092 
L 116.64 187.727845 
L 118.263273 181.685144 
L 119.886545 190.019904 
L 121.509818 176.059181 
L 123.133091 160.223137 
L 124.756364 169.391373 
L 126.379636 173.142015 
L 128.002909 154.180436 
L 129.626182 161.056613 
L 131.249455 146.262414 
L 132.872727 168.974635 
L 134.496 149.387949 
L 136.119273 147.929366 
L 137.742545 137.094177 
L 139.365818 131.259845 
L 140.989091 149.596318 
L 142.612364 133.968642 
L 144.235636 130.426369 
L 145.858909 140.84482 
L 147.482182 145.220569 
L 149.105455 116.882384 
L 150.728727 122.091609 
L 152.352 117.924229 
L 153.975273 132.093321 
L 155.598545 134.802118 
L 157.221818 120.633026 
L 158.845091 127.925941 
L 160.468364 121.88324 
L 162.091636 135.427225 
L 165.338182 117.090753 
L 166.961455 118.549336 
L 168.584727 118.549336 
L 170.208 115.840539 
L 171.831273 111.256421 
L 173.454545 117.299122 
L 175.077818 113.54848 
L 176.701091 106.672303 
L 178.324364 113.54848 
L 179.947636 110.839683 
L 181.570909 115.63217 
L 183.194182 108.964362 
L 184.817455 103.13003 
L 186.440727 101.879816 
L 188.064 101.04634 
L 189.687273 110.839683 
L 191.310545 125.008775 
L 192.933818 101.879816 
L 194.557091 106.880672 
L 196.180364 102.088185 
L 197.803636 105.838827 
L 199.426909 93.753425 
L 201.050182 100.212864 
L 202.673455 114.173587 
L 204.296727 98.96265 
L 205.92 104.588613 
L 207.543273 98.754281 
L 209.166545 101.04634 
L 210.789818 108.964362 
L 212.413091 103.13003 
L 214.036364 100.629602 
L 215.659636 106.255565 
L 217.282909 99.587757 
L 218.906182 91.044628 
L 220.529455 97.087329 
L 222.152727 93.753425 
L 223.776 91.461366 
L 225.399273 92.294842 
L 227.022545 101.254709 
L 228.645818 110.839683 
L 230.269091 96.462222 
L 231.892364 95.837115 
L 233.515636 92.294842 
L 235.138909 97.712436 
L 236.762182 95.212008 
L 238.385455 102.296554 
L 240.008727 93.961794 
L 241.632 99.587757 
L 243.255273 89.169307 
L 244.878545 90.419521 
L 246.501818 85.627034 
L 248.125091 84.37682 
L 249.748364 93.545056 
L 251.371636 93.336687 
L 252.994909 82.709868 
L 254.618182 107.714148 
L 256.241455 96.462222 
L 257.864727 82.918237 
L 259.488 95.628746 
L 261.111273 85.627034 
L 262.734545 93.336687 
L 264.357818 100.004495 
L 265.981091 99.379388 
L 267.604364 95.212008 
L 269.227636 86.043772 
L 270.850909 98.545912 
L 272.474182 84.37682 
L 274.097455 96.253853 
L 275.720727 93.753425 
L 277.344 93.753425 
L 278.967273 83.543344 
L 280.590545 98.337543 
L 282.213818 79.584333 
L 283.837091 95.837115 
L 285.460364 88.335831 
L 287.083636 98.754281 
L 288.706909 82.501499 
L 290.330182 89.586045 
L 291.953455 97.504067 
L 293.576727 96.87896 
L 295.2 86.877248 
L 296.823273 95.837115 
L 298.446545 99.796126 
L 300.069818 86.252141 
L 301.693091 93.753425 
L 303.316364 93.336687 
L 304.939636 86.877248 
L 306.562909 89.586045 
L 308.186182 84.37682 
L 309.809455 90.211152 
L 311.432727 87.085617 
L 313.056 86.668879 
L 314.679273 93.336687 
L 316.302545 81.876392 
L 317.925818 98.545912 
L 319.549091 95.628746 
L 321.172364 93.545056 
L 322.795636 92.71158 
L 324.418909 83.543344 
L 326.042182 77.083905 
L 327.665455 81.459654 
L 329.288727 81.876392 
L 330.912 90.211152 
L 332.535273 91.461366 
L 334.158545 94.586901 
L 335.781818 90.836259 
L 337.405091 83.751713 
L 339.028364 81.876392 
L 340.651636 82.29313 
L 342.274909 93.961794 
L 343.898182 93.336687 
L 345.521455 84.168451 
L 347.144727 83.751713 
L 348.768 90.419521 
L 350.391273 80.001071 
L 352.014545 89.169307 
L 353.637818 79.167595 
L 355.261091 84.793558 
L 358.507636 78.542488 
L 360.130909 83.126606 
L 361.754182 84.168451 
L 363.377455 87.919093 
L 365.000727 86.043772 
L 366.624 74.583477 
L 368.247273 90.62789 
L 369.870545 81.668023 
L 371.493818 90.002783 
L 373.117091 80.417809 
L 374.740364 100.837971 
L 376.363636 90.62789 
L 377.986909 89.377676 
L 379.610182 89.169307 
L 381.233455 86.877248 
L 382.856727 88.5442 
L 384.48 92.71158 
L 386.103273 84.168451 
L 387.726545 78.959226 
L 389.349818 84.793558 
L 390.973091 83.334975 
L 392.596364 79.792702 
L 394.219636 81.459654 
L 395.842909 88.752569 
L 397.466182 85.210296 
L 399.089455 84.37682 
L 400.712727 87.919093 
L 402.336 97.712436 
L 403.959273 74.583477 
L 405.582545 83.751713 
L 407.205818 87.919093 
L 408.829091 87.919093 
L 410.452364 90.62789 
L 412.075636 86.252141 
L 413.698909 80.001071 
L 415.322182 78.750857 
L 416.945455 88.960938 
L 418.568727 88.335831 
L 420.192 85.210296 
L 421.815273 85.001927 
L 423.438545 87.919093 
L 425.061818 80.001071 
L 426.685091 77.917381 
L 428.308364 88.5442 
L 429.931636 78.12575 
L 431.554909 85.835403 
L 433.178182 84.168451 
L 434.801455 90.836259 
L 436.424727 85.627034 
L 438.048 96.670591 
L 439.671273 91.669735 
L 441.294545 91.252997 
L 442.917818 77.083905 
L 444.541091 79.167595 
L 446.164364 89.169307 
L 447.787636 83.960082 
L 449.410909 93.545056 
L 451.034182 76.875536 
L 452.657455 82.918237 
L 454.280727 95.837115 
L 455.904 86.252141 
L 457.527273 87.085617 
L 459.150545 98.754281 
L 460.773818 81.668023 
L 462.397091 77.917381 
L 464.020364 93.753425 
L 465.643636 92.503211 
L 467.266909 78.334119 
L 468.890182 86.252141 
L 470.513455 86.46051 
L 472.136727 94.79527 
L 473.76 84.168451 
L 475.383273 95.212008 
L 477.006545 92.919949 
L 478.629818 76.250429 
L 480.253091 87.085617 
L 481.876364 88.960938 
L 483.499636 85.001927 
L 485.122909 78.750857 
L 486.746182 90.62789 
L 488.369455 80.20944 
L 489.992727 102.921661 
L 491.616 83.960082 
L 493.239273 89.586045 
L 494.862545 80.20944 
L 496.485818 99.171019 
L 498.109091 106.047196 
L 498.109091 106.047196 
" clip-path="url(#p47af757402)" style="fill: none; stroke: #d62728; stroke-width: 1.5; stroke-linecap: square"/>
   </g>
   <g id="patch_3">
    <path d="M 72 378 
L 72 51.84 
" style="fill: none; stroke: #000000; stroke-width: 0.8; stroke-linejoin: miter; stroke-linecap: square"/>
   </g>
   <g id="patch_4">
    <path d="M 518.4 378 
L 518.4 51.84 
" style="fill: none; stroke: #000000; stroke-width: 0.8; stroke-linejoin: miter; stroke-linecap: square"/>
   </g>
   <g id="patch_5">
    <path d="M 72 378 
L 518.4 378 
" style="fill: none; stroke: #000000; stroke-width: 0.8; stroke-linejoin: miter; stroke-linecap: square"/>
   </g>
   <g id="patch_6">
    <path d="M 72 51.84 
L 518.4 51.84 
" style="fill: none; stroke: #000000; stroke-width: 0.8; stroke-linejoin: miter; stroke-linecap: square"/>
   </g>
   <g id="text_15">
    <!-- Max-Common -->
    <g transform="translate(253.606875 45.84)scale(0.12 -0.12)">
     <defs>
      <path id="DejaVuSans-4d" d="M 628 4666 
L 1569 4666 
L 2759 1491 
L 3956 4666 
L 4897 4666 
L 4897 0 
L 4281 0 
L 4281 4097 
L 3078 897 
L 2444 897 
L 1241 4097 
L 1241 0 
L 628 0 
L 628 4666 
z
" transform="scale(0.015625)"/>
      <path id="DejaVuSans-78" d="M 3513 3500 
L 2247 1797 
L 3578 0 
L 2900 0 
L 1881 1375 
L 863 0 
L 184 0 
L 1544 1831 
L 300 3500 
L 978 3500 
L 1906 2253 
L 2834 3500 
L 3513 3500 
z
" transform="scale(0.015625)"/>
      <path id="DejaVuSans-2d" d="M 313 2009 
L 1997 2009 
L 1997 1497 
L 313 1497 
L 313 2009 
z
" transform="scale(0.015625)"/>
     </defs>
     <use xlink:href="#DejaVuSans-4d"/>
     <use xlink:href="#DejaVuSans-61" x="86.279297"/>
     <use xlink:href="#DejaVuSans-78" x="147.558594"/>
     <use xlink:href="#DejaVuSans-2d" x="206.738281"/>
     <use xlink:href="#DejaVuSans-43" x="242.822266"/>
     <use xlink:href="#DejaVuSans-6f" x="312.646484"/>
     <use xlink:href="#DejaVuSans-6d" x="373.828125"/>
     <use xlink:href="#DejaVuSans-6d" x="471.240234"/>
     <use xlink:href="#DejaVuSans-6f" x="568.652344"/>
     <use xlink:href="#DejaVuSans-6e" x="629.833984"/>
    </g>
   </g>
   <g id="legend_1">
    <g id="patch_7">
     <path d="M 79 118.5525 
L 124.203125 118.5525 
Q 126.203125 118.5525 126.203125 116.5525 
L 126.203125 58.84 
Q 126.203125 56.84 124.203125 56.84 
L 79 56.84 
Q 77 56.84 77 58.84 
L 77 116.5525 
Q 77 118.5525 79 118.5525 
z
" style="fill: #ffffff; opacity: 0.8; stroke: #cccccc; stroke-linejoin: miter"/>
    </g>
    <g id="line2d_29">
     <path d="M 81 64.938438 
L 91 64.938438 
L 101 64.938438 
" style="fill: none; stroke: #1f77b4; stroke-width: 1.5; stroke-linecap: square"/>
    </g>
    <g id="text_16">
     <!-- V1 -->
     <g transform="translate(109 68.438438)scale(0.1 -0.1)">
      <defs>
       <path id="DejaVuSans-56" d="M 1831 0 
L 50 4666 
L 709 4666 
L 2188 738 
L 3669 4666 
L 4325 4666 
L 2547 0 
L 1831 0 
z
" transform="scale(0.015625)"/>
      </defs>
      <use xlink:href="#DejaVuSans-56"/>
      <use xlink:href="#DejaVuSans-31" x="68.408203"/>
     </g>
    </g>
    <g id="line2d_30">
     <path d="M 81 79.616563 
L 91 79.616563 
L 101 79.616563 
" style="fill: none; stroke: #ff7f0e; stroke-width: 1.5; stroke-linecap: square"/>
    </g>
    <g id="text_17">
     <!-- V2 -->
     <g transform="translate(109 83.116563)scale(0.1 -0.1)">
      <use xlink:href="#DejaVuSans-56"/>
      <use xlink:href="#DejaVuSans-32" x="68.408203"/>
     </g>
    </g>
    <g id="line2d_31">
     <path d="M 81 94.294688 
L 91 94.294688 
L 101 94.294688 
" style="fill: none; stroke: #2ca02c; stroke-width: 1.5; stroke-linecap: square"/>
    </g>
    <g id="text_18">
     <!-- V3 -->
     <g transform="translate(109 97.794688)scale(0.1 -0.1)">
      <use xlink:href="#DejaVuSans-56"/>
      <use xlink:href="#DejaVuSans-33" x="68.408203"/>
     </g>
    </g>
    <g id="line2d_32">
     <path d="M 81 108.972813 
L 91 108.972813 
L 101 108.972813 
" style="fill: none; stroke: #d62728; stroke-width: 1.5; stroke-linecap: square"/>
    </g>
    <g id="text_19">
     <!-- V4 -->
     <g transform="translate(109 112.472813)scale(0.1 -0.1)">
      <use xlink:href="#DejaVuSans-56"/>
      <use xlink:href="#DejaVuSans-34" x="68.408203"/>
     </g>
    </g>
   </g>
  </g>
 </g>
 <defs>
  <clipPath id="p47af757402">
   <rect x="72" y="51.84" width="446.4" height="326.16"/>
  </clipPath>
 </defs>
</svg>
